<?xml version="1.0" encoding="UTF-8" standalone="no"?>
<!DOCTYPE svg PUBLIC "-//W3C//DTD SVG 1.1//EN"
 "http://www.w3.org/Graphics/SVG/1.1/DTD/svg11.dtd">
<!-- Generated by graphviz version 10.0.1 (20240210.2158)
 -->
<!-- Pages: 1 -->
<svg width="312pt" height="190pt"
 viewBox="0.00 0.00 312.00 190.00" xmlns="http://www.w3.org/2000/svg" xmlns:xlink="http://www.w3.org/1999/xlink">
<g id="graph0" class="graph" transform="scale(1 1) rotate(0) translate(4 186)">
<polygon fill="white" stroke="none" points="-4,4 -4,-186 308,-186 308,4 -4,4"/>
<!-- gold_temperature_by_state.date -->
<g id="node1" class="node">
<title>gold_temperature_by_state.date</title>
<g id="a_node1"><a xlink:href="../gold_temperature_by_state/date.html" xlink:title="&lt;TABLE&gt;" target="_blank">
<polygon fill="none" stroke="black" points="213.5,-36 0,-36 0,0 213.5,0 213.5,-36"/>
<text text-anchor="start" x="13" y="-13.95" font-family="Times,serif" font-weight="bold" font-size="14.00">gold_temperature_by_state.date</text>
<polygon fill="none" stroke="black" points="8,-4.75 8,-31.25 205.5,-31.25 205.5,-4.75 8,-4.75"/>
</a>
</g>
</g>
<!-- silver_temperature.date -->
<g id="node2" class="node">
<title>silver_temperature.date</title>
<g id="a_node2"><a xlink:href="../silver_temperature/date.html" xlink:title="&lt;TABLE&gt;" target="_blank">
<polygon fill="none" stroke="black" points="189.5,-109 24,-109 24,-73 189.5,-73 189.5,-109"/>
<text text-anchor="start" x="37" y="-86.95" font-family="Times,serif" font-weight="bold" font-size="14.00">silver_temperature.date</text>
<polygon fill="none" stroke="black" points="32,-77.75 32,-104.25 181.5,-104.25 181.5,-77.75 32,-77.75"/>
</a>
</g>
</g>
<!-- silver_temperature.date&#45;&gt;gold_temperature_by_state.date -->
<g id="edge1" class="edge">
<title>silver_temperature.date&#45;&gt;gold_temperature_by_state.date</title>
<path fill="none" stroke="blue" stroke-width="5" d="M106.75,-72.81C106.75,-66.53 106.75,-59.2 106.75,-52.01"/>
<polygon fill="blue" stroke="blue" stroke-width="5" points="111.13,-52.27 106.75,-42.27 102.38,-52.27 111.13,-52.27"/>
<text text-anchor="middle" x="205.38" y="-49.45" font-family="Times,serif" font-size="14.00">	 &#160;Aggregated On us_state, date</text>
</g>
<!-- bronze_temperature.date -->
<g id="node3" class="node">
<title>bronze_temperature.date</title>
<g id="a_node3"><a xlink:href="../bronze_temperature/date.html" xlink:title="&lt;TABLE&gt;" target="_blank">
<polygon fill="none" stroke="black" points="193.62,-182 19.88,-182 19.88,-146 193.62,-146 193.62,-182"/>
<text text-anchor="start" x="32.88" y="-159.95" font-family="Times,serif" font-weight="bold" font-size="14.00">bronze_temperature.date</text>
<polygon fill="none" stroke="black" points="27.88,-150.75 27.88,-177.25 185.62,-177.25 185.62,-150.75 27.88,-150.75"/>
</a>
</g>
</g>
<!-- bronze_temperature.date&#45;&gt;silver_temperature.date -->
<g id="edge2" class="edge">
<title>bronze_temperature.date&#45;&gt;silver_temperature.date</title>
<path fill="none" stroke="black" d="M106.75,-145.81C106.75,-138.23 106.75,-129.1 106.75,-120.54"/>
<polygon fill="black" stroke="black" points="110.25,-120.54 106.75,-110.54 103.25,-120.54 110.25,-120.54"/>
<text text-anchor="middle" x="145.38" y="-122.45" font-family="Times,serif" font-size="14.00"> &#160;Transformed</text>
</g>
</g>
</svg>
