<?xml version="1.0" encoding="UTF-8" standalone="no"?>
<!DOCTYPE svg PUBLIC "-//W3C//DTD SVG 1.1//EN"
 "http://www.w3.org/Graphics/SVG/1.1/DTD/svg11.dtd">
<!-- Generated by graphviz version 10.0.1 (20240210.2158)
 -->
<!-- Pages: 1 -->
<svg width="338pt" height="300pt"
 viewBox="0.00 0.00 337.88 300.00" xmlns="http://www.w3.org/2000/svg" xmlns:xlink="http://www.w3.org/1999/xlink">
<g id="graph0" class="graph" transform="scale(1 1) rotate(0) translate(4 296)">
<polygon fill="white" stroke="none" points="-4,4 -4,-296 333.88,-296 333.88,4 -4,4"/>
<!-- gold_temperature_by_state.t_mean_in_F -->
<g id="node1" class="node">
<title>gold_temperature_by_state.t_mean_in_F</title>
<g id="a_node1"><a xlink:href="../gold_temperature_by_state/t_mean_in_F.html" xlink:title="&lt;TABLE&gt;" target="_blank">
<polygon fill="none" stroke="black" points="265.25,-127.5 0,-127.5 0,0 265.25,0 265.25,-127.5"/>
<text text-anchor="start" x="13" y="-106.2" font-family="Times,serif" font-weight="bold" font-size="14.00">gold_temperature_by_state.t_mean_in_F</text>
<text text-anchor="start" x="36" y="-59.7" font-family="Times,serif" font-size="14.00">Mean Temperature in Fahrenheit</text>
<polygon fill="none" stroke="black" points="11,-7 11,-29.5 254.25,-29.5 254.25,-7 11,-7"/>
<text text-anchor="start" x="14" y="-13.2" font-family="Times,serif" font-size="14.00">AVG(temperature_in_F)</text>
<polygon fill="none" stroke="black" points="8,-4 8,-123.5 257.25,-123.5 257.25,-4 8,-4"/>
</a>
</g>
</g>
<!-- silver_temperature.temperature_in_F -->
<g id="node2" class="node">
<title>silver_temperature.temperature_in_F</title>
<g id="a_node2"><a xlink:href="../silver_temperature/temperature_in_F.html" xlink:title="&lt;TABLE&gt;" target="_blank">
<polygon fill="none" stroke="black" points="255.88,-292 9.38,-292 9.38,-164.5 255.88,-164.5 255.88,-292"/>
<text text-anchor="start" x="22.38" y="-270.7" font-family="Times,serif" font-weight="bold" font-size="14.00">silver_temperature.temperature_in_F</text>
<text text-anchor="start" x="45.38" y="-224.2" font-family="Times,serif" font-size="14.00">Temperature in Fahrenheit</text>
<polygon fill="none" stroke="black" points="20.38,-171.5 20.38,-194 244.88,-194 244.88,-171.5 20.38,-171.5"/>
<text text-anchor="start" x="23.38" y="-177.7" font-family="Times,serif" font-size="14.00">((tmmx &#45; 273.15)*9/5 + 32)</text>
<polygon fill="none" stroke="black" points="17.38,-168.5 17.38,-288 247.88,-288 247.88,-168.5 17.38,-168.5"/>
</a>
</g>
</g>
<!-- silver_temperature.temperature_in_F&#45;&gt;gold_temperature_by_state.t_mean_in_F -->
<g id="edge1" class="edge">
<title>silver_temperature.temperature_in_F&#45;&gt;gold_temperature_by_state.t_mean_in_F</title>
<path fill="none" stroke="blue" stroke-width="5" d="M132.62,-164.42C132.62,-157.78 132.62,-150.97 132.62,-144.18"/>
<polygon fill="blue" stroke="blue" stroke-width="5" points="137,-144.18 132.63,-134.18 128.25,-144.18 137,-144.18"/>
<text text-anchor="middle" x="231.25" y="-140.95" font-family="Times,serif" font-size="14.00">	 &#160;Aggregated On us_state, date</text>
</g>
</g>
</svg>
