<?xml version="1.0" encoding="UTF-8" standalone="no"?>
<!DOCTYPE svg PUBLIC "-//W3C//DTD SVG 1.1//EN"
 "http://www.w3.org/Graphics/SVG/1.1/DTD/svg11.dtd">
<!-- Generated by graphviz version 10.0.1 (20240210.2158)
 -->
<!-- Pages: 1 -->
<svg width="354pt" height="365pt"
 viewBox="0.00 0.00 354.12 365.00" xmlns="http://www.w3.org/2000/svg" xmlns:xlink="http://www.w3.org/1999/xlink">
<g id="graph0" class="graph" transform="scale(1 1) rotate(0) translate(4 361)">
<polygon fill="white" stroke="none" points="-4,4 -4,-361 350.12,-361 350.12,4 -4,4"/>
<!-- gold_temperature_by_state.t_span -->
<g id="node1" class="node">
<title>gold_temperature_by_state.t_span</title>
<g id="a_node1"><a xlink:href="../gold_temperature_by_state/t_span.html" xlink:title="&lt;TABLE&gt;" target="_blank">
<polygon fill="none" stroke="black" points="274.12,-127.5 23.62,-127.5 23.62,0 274.12,0 274.12,-127.5"/>
<text text-anchor="start" x="48.38" y="-106.2" font-family="Times,serif" font-weight="bold" font-size="14.00">gold_temperature_by_state.t_span</text>
<text text-anchor="start" x="59.62" y="-59.7" font-family="Times,serif" font-size="14.00">Temperature variation in Celsius</text>
<polygon fill="none" stroke="black" points="34.62,-7 34.62,-29.5 263.12,-29.5 263.12,-7 34.62,-7"/>
<text text-anchor="start" x="37.62" y="-13.2" font-family="Times,serif" font-size="14.00">MAX(tmmx) &#45; MIN(tmmx)</text>
<polygon fill="none" stroke="black" points="31.62,-4 31.62,-123.5 266.12,-123.5 266.12,-4 31.62,-4"/>
</a>
</g>
</g>
<!-- silver_temperature.tmmx -->
<g id="node2" class="node">
<title>silver_temperature.tmmx</title>
<g id="a_node2"><a xlink:href="../silver_temperature/tmmx.html" xlink:title="&lt;TABLE&gt;" target="_blank">
<polygon fill="none" stroke="black" points="236.88,-200.5 60.88,-200.5 60.88,-164.5 236.88,-164.5 236.88,-200.5"/>
<text text-anchor="start" x="73.88" y="-178.45" font-family="Times,serif" font-weight="bold" font-size="14.00">silver_temperature.tmmx</text>
<polygon fill="none" stroke="black" points="68.88,-169.25 68.88,-195.75 228.88,-195.75 228.88,-169.25 68.88,-169.25"/>
</a>
</g>
</g>
<!-- silver_temperature.tmmx&#45;&gt;gold_temperature_by_state.t_span -->
<g id="edge1" class="edge">
<title>silver_temperature.tmmx&#45;&gt;gold_temperature_by_state.t_span</title>
<path fill="none" stroke="blue" stroke-width="5" d="M148.88,-164.02C148.88,-158.24 148.88,-151.39 148.88,-144.03"/>
<polygon fill="blue" stroke="blue" stroke-width="5" points="153.25,-144.09 148.88,-134.09 144.5,-144.09 153.25,-144.09"/>
<text text-anchor="middle" x="247.5" y="-140.95" font-family="Times,serif" font-size="14.00">	 &#160;Aggregated On us_state, date</text>
</g>
<!-- bronze_temperature.tmmx -->
<g id="node3" class="node">
<title>bronze_temperature.tmmx</title>
<g id="a_node3"><a xlink:href="../bronze_temperature/tmmx.html" xlink:title="&lt;TABLE&gt;" target="_blank">
<polygon fill="none" stroke="black" points="297.75,-357 0,-357 0,-237.5 297.75,-237.5 297.75,-357"/>
<text text-anchor="start" x="69.75" y="-335.7" font-family="Times,serif" font-weight="bold" font-size="14.00">bronze_temperature.tmmx</text>
<text text-anchor="start" x="36" y="-289.2" font-family="Times,serif" font-size="14.00">Maximum temperature variable from the</text>
<text text-anchor="start" x="78.38" y="-272.7" font-family="Times,serif" font-size="14.00">TerraClimate dataset in K</text>
<polygon fill="none" stroke="black" points="8,-241.5 8,-353 289.75,-353 289.75,-241.5 8,-241.5"/>
</a>
</g>
</g>
<!-- bronze_temperature.tmmx&#45;&gt;silver_temperature.tmmx -->
<g id="edge2" class="edge">
<title>bronze_temperature.tmmx&#45;&gt;silver_temperature.tmmx</title>
<path fill="none" stroke="black" d="M148.88,-237.23C148.88,-228.42 148.88,-219.7 148.88,-211.92"/>
<polygon fill="black" stroke="black" points="152.38,-212.12 148.88,-202.12 145.38,-212.12 152.38,-212.12"/>
<text text-anchor="middle" x="187.5" y="-213.95" font-family="Times,serif" font-size="14.00"> &#160;Transformed</text>
</g>
</g>
</svg>
