<?xml version="1.0" encoding="UTF-8" standalone="no"?>
<!DOCTYPE svg PUBLIC "-//W3C//DTD SVG 1.1//EN"
 "http://www.w3.org/Graphics/SVG/1.1/DTD/svg11.dtd">
<!-- Generated by graphviz version 10.0.1 (20240210.2158)
 -->
<!-- Pages: 1 -->
<svg width="306pt" height="201pt"
 viewBox="0.00 0.00 305.75 200.50" xmlns="http://www.w3.org/2000/svg" xmlns:xlink="http://www.w3.org/1999/xlink">
<g id="graph0" class="graph" transform="scale(1 1) rotate(0) translate(4 196.5)">
<polygon fill="white" stroke="none" points="-4,4 -4,-196.5 301.75,-196.5 301.75,4 -4,4"/>
<!-- silver_temperature.tmmx -->
<g id="node1" class="node">
<title>silver_temperature.tmmx</title>
<g id="a_node1"><a xlink:href="../silver_temperature/tmmx.html" xlink:title="&lt;TABLE&gt;" target="_blank">
<polygon fill="none" stroke="black" points="236.88,-36 60.88,-36 60.88,0 236.88,0 236.88,-36"/>
<text text-anchor="start" x="73.88" y="-13.95" font-family="Times,serif" font-weight="bold" font-size="14.00">silver_temperature.tmmx</text>
<polygon fill="none" stroke="black" points="68.88,-4.75 68.88,-31.25 228.88,-31.25 228.88,-4.75 68.88,-4.75"/>
</a>
</g>
</g>
<!-- bronze_temperature.tmmx -->
<g id="node2" class="node">
<title>bronze_temperature.tmmx</title>
<g id="a_node2"><a xlink:href="../bronze_temperature/tmmx.html" xlink:title="&lt;TABLE&gt;" target="_blank">
<polygon fill="none" stroke="black" points="297.75,-192.5 0,-192.5 0,-73 297.75,-73 297.75,-192.5"/>
<text text-anchor="start" x="69.75" y="-171.2" font-family="Times,serif" font-weight="bold" font-size="14.00">bronze_temperature.tmmx</text>
<text text-anchor="start" x="36" y="-124.7" font-family="Times,serif" font-size="14.00">Maximum temperature variable from the</text>
<text text-anchor="start" x="78.38" y="-108.2" font-family="Times,serif" font-size="14.00">TerraClimate dataset in K</text>
<polygon fill="none" stroke="black" points="8,-77 8,-188.5 289.75,-188.5 289.75,-77 8,-77"/>
</a>
</g>
</g>
<!-- bronze_temperature.tmmx&#45;&gt;silver_temperature.tmmx -->
<g id="edge1" class="edge">
<title>bronze_temperature.tmmx&#45;&gt;silver_temperature.tmmx</title>
<path fill="none" stroke="black" d="M148.88,-72.73C148.88,-63.92 148.88,-55.2 148.88,-47.42"/>
<polygon fill="black" stroke="black" points="152.38,-47.62 148.88,-37.62 145.38,-47.62 152.38,-47.62"/>
<text text-anchor="middle" x="187.5" y="-49.45" font-family="Times,serif" font-size="14.00"> &#160;Transformed</text>
</g>
</g>
</svg>
