<?xml version="1.0" encoding="UTF-8" standalone="no"?>
<!DOCTYPE svg PUBLIC "-//W3C//DTD SVG 1.1//EN"
 "http://www.w3.org/Graphics/SVG/1.1/DTD/svg11.dtd">
<!-- Generated by graphviz version 10.0.1 (20240210.2158)
 -->
<!-- Pages: 1 -->
<svg width="305pt" height="184pt"
 viewBox="0.00 0.00 305.00 184.00" xmlns="http://www.w3.org/2000/svg" xmlns:xlink="http://www.w3.org/1999/xlink">
<g id="graph0" class="graph" transform="scale(1 1) rotate(0) translate(4 180)">
<polygon fill="white" stroke="none" points="-4,4 -4,-180 301,-180 301,4 -4,4"/>
<!-- silver_temperature.zcta -->
<g id="node1" class="node">
<title>silver_temperature.zcta</title>
<g id="a_node1"><a xlink:href="../silver_temperature/zcta.html" xlink:title="&lt;TABLE&gt;" target="_blank">
<polygon fill="none" stroke="black" points="230.5,-36 66.5,-36 66.5,0 230.5,0 230.5,-36"/>
<text text-anchor="start" x="79.5" y="-13.95" font-family="Times,serif" font-weight="bold" font-size="14.00">silver_temperature.zcta</text>
<polygon fill="none" stroke="black" points="74.5,-4.75 74.5,-31.25 222.5,-31.25 222.5,-4.75 74.5,-4.75"/>
</a>
</g>
</g>
<!-- bronze_temperature.zcta -->
<g id="node2" class="node">
<title>bronze_temperature.zcta</title>
<g id="a_node2"><a xlink:href="../bronze_temperature/zcta.html" xlink:title="&lt;TABLE&gt;" target="_blank">
<polygon fill="none" stroke="black" points="297,-176 0,-176 0,-73 297,-73 297,-176"/>
<text text-anchor="start" x="75.38" y="-154.7" font-family="Times,serif" font-weight="bold" font-size="14.00">bronze_temperature.zcta</text>
<text text-anchor="start" x="36" y="-108.2" font-family="Times,serif" font-size="14.00">Zip Code for a Zip Code Tabulation Area</text>
<polygon fill="none" stroke="black" points="8,-77 8,-172 289,-172 289,-77 8,-77"/>
</a>
</g>
</g>
<!-- bronze_temperature.zcta&#45;&gt;silver_temperature.zcta -->
<g id="edge1" class="edge">
<title>bronze_temperature.zcta&#45;&gt;silver_temperature.zcta</title>
<path fill="none" stroke="black" d="M148.5,-72.78C148.5,-64.18 148.5,-55.53 148.5,-47.75"/>
<polygon fill="black" stroke="black" points="152,-47.9 148.5,-37.9 145,-47.9 152,-47.9"/>
<text text-anchor="middle" x="187.12" y="-49.45" font-family="Times,serif" font-size="14.00"> &#160;Transformed</text>
</g>
</g>
</svg>
