<?xml version="1.0" encoding="UTF-8" standalone="no"?>
<!DOCTYPE svg PUBLIC "-//W3C//DTD SVG 1.1//EN"
 "http://www.w3.org/Graphics/SVG/1.1/DTD/svg11.dtd">
<!-- Generated by graphviz version 14.1.4 (20260321.0153)
 -->
<!-- Pages: 1 -->
<svg width="1931pt" height="405pt"
 viewBox="0.00 0.00 1931.00 405.00" xmlns="http://www.w3.org/2000/svg" xmlns:xlink="http://www.w3.org/1999/xlink">
<g id="graph0" class="graph" transform="scale(1 1) rotate(0) translate(4 400.5)">
<polygon fill="white" stroke="none" points="-4,4 -4,-400.5 1927.25,-400.5 1927.25,4 -4,4"/>
<!-- medicare.ip.adm_day_of_week -->
<g id="node1" class="node">
<title>medicare.ip.adm_day_of_week</title>
<g id="a_node1"><a xlink:href="../medicare.ip/adm_day_of_week.html" xlink:title="&lt;TABLE&gt;" target="_blank">
<polygon fill="none" stroke="black" points="954.75,-83.5 618.5,-83.5 618.5,0 954.75,0 954.75,-83.5"/>
<text xml:space="preserve" text-anchor="start" x="631.5" y="-62.2" font-family="Times,serif" font-weight="bold" font-size="14.00">medicare.ip.adm_day_of_week</text>
<polygon fill="none" stroke="black" points="629.5,-31.5 629.5,-54 814.25,-54 814.25,-31.5 629.5,-31.5"/>
<text xml:space="preserve" text-anchor="start" x="632.5" y="-38.25" font-family="Times,serif" font-size="14.00">character varying →</text>
<polygon fill="none" stroke="black" points="816.25,-31.5 816.25,-54 943.75,-54 943.75,-31.5 816.25,-31.5"/>
<text xml:space="preserve" text-anchor="start" x="819.25" y="-38.25" font-family="Times,serif" font-size="14.00">{column_name}::INT</text>
<polygon fill="none" stroke="black" points="629.5,-7 629.5,-29.5 814.25,-29.5 814.25,-7 629.5,-7"/>
<text xml:space="preserve" text-anchor="start" x="632.5" y="-13.75" font-family="Times,serif" font-size="14.00">numeric →</text>
<polygon fill="none" stroke="black" points="816.25,-7 816.25,-29.5 943.75,-29.5 943.75,-7 816.25,-7"/>
<text xml:space="preserve" text-anchor="start" x="819.25" y="-13.75" font-family="Times,serif" font-size="14.00">{column_name}::INT</text>
<polygon fill="none" stroke="black" points="626.5,-4 626.5,-79.5 946.75,-79.5 946.75,-4 626.5,-4"/>
</a>
</g>
</g>
<!-- cms.medpar_2011.ADMSNDAY -->
<g id="node2" class="node">
<title>cms.medpar_2011.ADMSNDAY</title>
<g id="a_node2"><a xlink:href="../cms.medpar_2011/ADMSNDAY.html" xlink:title="&lt;TABLE&gt;" target="_blank">
<polygon fill="none" stroke="black" points="293.25,-396.5 0,-396.5 0,-277 293.25,-277 293.25,-396.5"/>
<text xml:space="preserve" text-anchor="start" x="51.75" y="-375.2" font-family="Times,serif" font-weight="bold" font-size="14.00">cms.medpar_2011.ADMSNDAY</text>
<text xml:space="preserve" text-anchor="start" x="36" y="-329.25" font-family="Times,serif" font-size="14.00">Code indicating day of week beneficiary</text>
<text xml:space="preserve" text-anchor="start" x="80.62" y="-312.75" font-family="Times,serif" font-size="14.00">was admitted to facility.</text>
<polygon fill="none" stroke="black" points="8,-281 8,-392.5 285.25,-392.5 285.25,-281 8,-281"/>
</a>
</g>
</g>
<!-- cms.medpar_2011.ADMSNDAY&#45;&gt;medicare.ip.adm_day_of_week -->
<g id="edge5" class="edge">
<title>cms.medpar_2011.ADMSNDAY&#45;&gt;medicare.ip.adm_day_of_week</title>
<path fill="none" stroke="chocolate" stroke-width="2" d="M214.41,-276.66C271.23,-229.45 356.1,-164.18 438.62,-120.5 489.75,-93.44 549.91,-75.78 605.7,-64.26"/>
<polygon fill="chocolate" stroke="chocolate" stroke-width="2" points="606.19,-67.73 615.31,-62.34 604.82,-60.86 606.19,-67.73"/>
<text xml:space="preserve" text-anchor="middle" x="454" y="-175.2" font-family="Times,serif" font-size="14.00">union</text>
</g>
<!-- cms.medpar_2012.ADMSNDAY -->
<g id="node3" class="node">
<title>cms.medpar_2012.ADMSNDAY</title>
<g id="a_node3"><a xlink:href="../cms.medpar_2012/ADMSNDAY.html" xlink:title="&lt;TABLE&gt;" target="_blank">
<polygon fill="none" stroke="black" points="604.25,-396.5 311,-396.5 311,-277 604.25,-277 604.25,-396.5"/>
<text xml:space="preserve" text-anchor="start" x="362.75" y="-375.2" font-family="Times,serif" font-weight="bold" font-size="14.00">cms.medpar_2012.ADMSNDAY</text>
<text xml:space="preserve" text-anchor="start" x="347" y="-329.25" font-family="Times,serif" font-size="14.00">Code indicating day of week beneficiary</text>
<text xml:space="preserve" text-anchor="start" x="391.62" y="-312.75" font-family="Times,serif" font-size="14.00">was admitted to facility.</text>
<polygon fill="none" stroke="black" points="319,-281 319,-392.5 596.25,-392.5 596.25,-281 319,-281"/>
</a>
</g>
</g>
<!-- cms.medpar_2012.ADMSNDAY&#45;&gt;medicare.ip.adm_day_of_week -->
<g id="edge6" class="edge">
<title>cms.medpar_2012.ADMSNDAY&#45;&gt;medicare.ip.adm_day_of_week</title>
<path fill="none" stroke="chocolate" stroke-width="2" d="M446.06,-276.88C440.3,-229.95 440.46,-164.95 473.62,-120.5 491.09,-97.09 546.3,-79.85 605.6,-67.63"/>
<polygon fill="chocolate" stroke="chocolate" stroke-width="2" points="606.21,-71.08 615.33,-65.69 604.84,-64.21 606.21,-71.08"/>
<text xml:space="preserve" text-anchor="middle" x="489" y="-175.2" font-family="Times,serif" font-size="14.00">union</text>
</g>
<!-- cms.medpar_2013.ADMSNDAY -->
<g id="node4" class="node">
<title>cms.medpar_2013.ADMSNDAY</title>
<g id="a_node4"><a xlink:href="../cms.medpar_2013/ADMSNDAY.html" xlink:title="&lt;TABLE&gt;" target="_blank">
<polygon fill="none" stroke="black" points="1118.25,-396.5 825,-396.5 825,-277 1118.25,-277 1118.25,-396.5"/>
<text xml:space="preserve" text-anchor="start" x="876.75" y="-375.2" font-family="Times,serif" font-weight="bold" font-size="14.00">cms.medpar_2013.ADMSNDAY</text>
<text xml:space="preserve" text-anchor="start" x="861" y="-329.25" font-family="Times,serif" font-size="14.00">Code indicating day of week beneficiary</text>
<text xml:space="preserve" text-anchor="start" x="905.62" y="-312.75" font-family="Times,serif" font-size="14.00">was admitted to facility.</text>
<polygon fill="none" stroke="black" points="833,-281 833,-392.5 1110.25,-392.5 1110.25,-281 833,-281"/>
</a>
</g>
</g>
<!-- cms.medpar_2013.ADMSNDAY&#45;&gt;medicare.ip.adm_day_of_week -->
<g id="edge7" class="edge">
<title>cms.medpar_2013.ADMSNDAY&#45;&gt;medicare.ip.adm_day_of_week</title>
<path fill="none" stroke="chocolate" stroke-width="2" d="M824.51,-310.26C691.22,-286.45 514.02,-252.74 503.62,-240 470.04,-198.85 471.43,-162.74 503.62,-120.5 517.94,-101.72 559.01,-86.34 605.57,-74.37"/>
<polygon fill="chocolate" stroke="chocolate" stroke-width="2" points="606.37,-77.77 615.24,-71.97 604.69,-70.98 606.37,-77.77"/>
<text xml:space="preserve" text-anchor="middle" x="519" y="-175.2" font-family="Times,serif" font-size="14.00">union</text>
</g>
<!-- cms.medpar_2015.ADMSNDAY -->
<g id="node6" class="node">
<title>cms.medpar_2015.ADMSNDAY</title>
<g id="a_node6"><a xlink:href="../cms.medpar_2015/ADMSNDAY.html" xlink:title="&lt;TABLE&gt;" target="_blank">
<polygon fill="none" stroke="black" points="807.25,-240 514,-240 514,-120.5 807.25,-120.5 807.25,-240"/>
<text xml:space="preserve" text-anchor="start" x="565.75" y="-218.7" font-family="Times,serif" font-weight="bold" font-size="14.00">cms.medpar_2015.ADMSNDAY</text>
<text xml:space="preserve" text-anchor="start" x="550" y="-172.75" font-family="Times,serif" font-size="14.00">Code indicating day of week beneficiary</text>
<text xml:space="preserve" text-anchor="start" x="594.62" y="-156.25" font-family="Times,serif" font-size="14.00">was admitted to facility.</text>
<polygon fill="none" stroke="black" points="522,-124.5 522,-236 799.25,-236 799.25,-124.5 522,-124.5"/>
</a>
</g>
</g>
<!-- cms.medpar_2013.ADMSNDAY&#45;&gt;cms.medpar_2015.ADMSNDAY -->
<!-- cms.medpar_2016.ADMSNDAY -->
<g id="node7" class="node">
<title>cms.medpar_2016.ADMSNDAY</title>
<g id="a_node7"><a xlink:href="../cms.medpar_2016/ADMSNDAY.html" xlink:title="&lt;TABLE&gt;" target="_blank">
<polygon fill="none" stroke="black" points="1118.25,-240 825,-240 825,-120.5 1118.25,-120.5 1118.25,-240"/>
<text xml:space="preserve" text-anchor="start" x="876.75" y="-218.7" font-family="Times,serif" font-weight="bold" font-size="14.00">cms.medpar_2016.ADMSNDAY</text>
<text xml:space="preserve" text-anchor="start" x="861" y="-172.75" font-family="Times,serif" font-size="14.00">Code indicating day of week beneficiary</text>
<text xml:space="preserve" text-anchor="start" x="905.62" y="-156.25" font-family="Times,serif" font-size="14.00">was admitted to facility.</text>
<polygon fill="none" stroke="black" points="833,-124.5 833,-236 1110.25,-236 1110.25,-124.5 833,-124.5"/>
</a>
</g>
</g>
<!-- cms.medpar_2013.ADMSNDAY&#45;&gt;cms.medpar_2016.ADMSNDAY -->
<!-- cms.medpar_2017.ADMSNDAY -->
<g id="node8" class="node">
<title>cms.medpar_2017.ADMSNDAY</title>
<g id="a_node8"><a xlink:href="../cms.medpar_2017/ADMSNDAY.html" xlink:title="&lt;TABLE&gt;" target="_blank">
<polygon fill="none" stroke="black" points="1429.25,-240 1136,-240 1136,-120.5 1429.25,-120.5 1429.25,-240"/>
<text xml:space="preserve" text-anchor="start" x="1187.75" y="-218.7" font-family="Times,serif" font-weight="bold" font-size="14.00">cms.medpar_2017.ADMSNDAY</text>
<text xml:space="preserve" text-anchor="start" x="1172" y="-172.75" font-family="Times,serif" font-size="14.00">Code indicating day of week beneficiary</text>
<text xml:space="preserve" text-anchor="start" x="1216.62" y="-156.25" font-family="Times,serif" font-size="14.00">was admitted to facility.</text>
<polygon fill="none" stroke="black" points="1144,-124.5 1144,-236 1421.25,-236 1421.25,-124.5 1144,-124.5"/>
</a>
</g>
</g>
<!-- cms.medpar_2013.ADMSNDAY&#45;&gt;cms.medpar_2017.ADMSNDAY -->
<!-- cms.medpar_2018.ADMSNDAY -->
<g id="node9" class="node">
<title>cms.medpar_2018.ADMSNDAY</title>
<g id="a_node9"><a xlink:href="../cms.medpar_2018/ADMSNDAY.html" xlink:title="&lt;TABLE&gt;" target="_blank">
<polygon fill="none" stroke="black" points="1740.25,-240 1447,-240 1447,-120.5 1740.25,-120.5 1740.25,-240"/>
<text xml:space="preserve" text-anchor="start" x="1498.75" y="-218.7" font-family="Times,serif" font-weight="bold" font-size="14.00">cms.medpar_2018.ADMSNDAY</text>
<text xml:space="preserve" text-anchor="start" x="1483" y="-172.75" font-family="Times,serif" font-size="14.00">Code indicating day of week beneficiary</text>
<text xml:space="preserve" text-anchor="start" x="1527.62" y="-156.25" font-family="Times,serif" font-size="14.00">was admitted to facility.</text>
<polygon fill="none" stroke="black" points="1455,-124.5 1455,-236 1732.25,-236 1732.25,-124.5 1455,-124.5"/>
</a>
</g>
</g>
<!-- cms.medpar_2013.ADMSNDAY&#45;&gt;cms.medpar_2018.ADMSNDAY -->
<!-- cms.medpar_2014.ADMSNDAY -->
<g id="node5" class="node">
<title>cms.medpar_2014.ADMSNDAY</title>
<g id="a_node5"><a xlink:href="../cms.medpar_2014/ADMSNDAY.html" xlink:title="&lt;TABLE&gt;" target="_blank">
<polygon fill="none" stroke="black" points="1923.25,-396.5 1630,-396.5 1630,-277 1923.25,-277 1923.25,-396.5"/>
<text xml:space="preserve" text-anchor="start" x="1681.75" y="-375.2" font-family="Times,serif" font-weight="bold" font-size="14.00">cms.medpar_2014.ADMSNDAY</text>
<text xml:space="preserve" text-anchor="start" x="1666" y="-329.25" font-family="Times,serif" font-size="14.00">Code indicating day of week beneficiary</text>
<text xml:space="preserve" text-anchor="start" x="1710.62" y="-312.75" font-family="Times,serif" font-size="14.00">was admitted to facility.</text>
<polygon fill="none" stroke="black" points="1638,-281 1638,-392.5 1915.25,-392.5 1915.25,-281 1638,-281"/>
</a>
</g>
</g>
<!-- cms.medpar_2014.ADMSNDAY&#45;&gt;medicare.ip.adm_day_of_week -->
<g id="edge8" class="edge">
<title>cms.medpar_2014.ADMSNDAY&#45;&gt;medicare.ip.adm_day_of_week</title>
<path fill="none" stroke="chocolate" stroke-width="2" d="M1787.46,-276.66C1792.73,-227.64 1790.72,-159.81 1749.62,-120.5 1694.49,-67.75 1231.23,-50.71 967.86,-45.26"/>
<polygon fill="chocolate" stroke="chocolate" stroke-width="2" points="968.18,-41.77 958.11,-45.07 968.04,-48.77 968.18,-41.77"/>
<text xml:space="preserve" text-anchor="middle" x="1804.93" y="-175.2" font-family="Times,serif" font-size="14.00">union</text>
</g>
<!-- cms.medpar_2015.ADMSNDAY&#45;&gt;medicare.ip.adm_day_of_week -->
<g id="edge9" class="edge">
<title>cms.medpar_2015.ADMSNDAY&#45;&gt;medicare.ip.adm_day_of_week</title>
<path fill="none" stroke="chocolate" stroke-width="2" d="M715.16,-120.17C723.46,-111.18 731.96,-101.97 740.08,-93.18"/>
<polygon fill="chocolate" stroke="chocolate" stroke-width="2" points="742.43,-95.79 746.64,-86.06 737.29,-91.04 742.43,-95.79"/>
<text xml:space="preserve" text-anchor="middle" x="747.48" y="-96.95" font-family="Times,serif" font-size="14.00">union</text>
</g>
<!-- cms.medpar_2016.ADMSNDAY&#45;&gt;medicare.ip.adm_day_of_week -->
<g id="edge10" class="edge">
<title>cms.medpar_2016.ADMSNDAY&#45;&gt;medicare.ip.adm_day_of_week</title>
<path fill="none" stroke="chocolate" stroke-width="2" d="M891.56,-120.17C878.59,-110.6 865.29,-100.79 852.7,-91.5"/>
<polygon fill="chocolate" stroke="chocolate" stroke-width="2" points="854.87,-88.76 844.75,-85.64 850.72,-94.39 854.87,-88.76"/>
<text xml:space="preserve" text-anchor="middle" x="882.05" y="-96.95" font-family="Times,serif" font-size="14.00">union</text>
</g>
<!-- cms.medpar_2017.ADMSNDAY&#45;&gt;medicare.ip.adm_day_of_week -->
<g id="edge11" class="edge">
<title>cms.medpar_2017.ADMSNDAY&#45;&gt;medicare.ip.adm_day_of_week</title>
<path fill="none" stroke="chocolate" stroke-width="2" d="M1135.53,-122.93C1132.88,-122.1 1130.24,-121.29 1127.62,-120.5 1076.23,-104.98 1019.67,-90.91 967.63,-79.13"/>
<polygon fill="chocolate" stroke="chocolate" stroke-width="2" points="968.68,-75.78 958.16,-77.01 967.15,-82.61 968.68,-75.78"/>
<text xml:space="preserve" text-anchor="middle" x="1078.6" y="-96.95" font-family="Times,serif" font-size="14.00">union</text>
</g>
<!-- cms.medpar_2018.ADMSNDAY&#45;&gt;medicare.ip.adm_day_of_week -->
<g id="edge12" class="edge">
<title>cms.medpar_2018.ADMSNDAY&#45;&gt;medicare.ip.adm_day_of_week</title>
<path fill="none" stroke="chocolate" stroke-width="2" d="M1446.63,-122.55C1443.95,-121.83 1441.28,-121.15 1438.62,-120.5 1282.17,-82.13 1099.76,-62.43 967.74,-52.48"/>
<polygon fill="chocolate" stroke="chocolate" stroke-width="2" points="968.37,-49.02 958.14,-51.77 967.85,-56 968.37,-49.02"/>
<text xml:space="preserve" text-anchor="middle" x="1371.31" y="-96.95" font-family="Times,serif" font-size="14.00">union</text>
</g>
</g>
</svg>
