<?xml version="1.0" encoding="UTF-8" standalone="no"?>
<!DOCTYPE svg PUBLIC "-//W3C//DTD SVG 1.1//EN"
 "http://www.w3.org/Graphics/SVG/1.1/DTD/svg11.dtd">
<!-- Generated by graphviz version 10.0.1 (20240210.2158)
 -->
<!-- Pages: 1 -->
<svg width="396pt" height="354pt"
 viewBox="0.00 0.00 396.00 354.00" xmlns="http://www.w3.org/2000/svg" xmlns:xlink="http://www.w3.org/1999/xlink">
<g id="graph0" class="graph" transform="scale(1 1) rotate(0) translate(4 350)">
<polygon fill="white" stroke="none" points="-4,4 -4,-350 392,-350 392,4 -4,4"/>
<!-- medicare.admissions.adm_day_of_week -->
<g id="node1" class="node">
<title>medicare.admissions.adm_day_of_week</title>
<g id="a_node1"><a xlink:href="../medicare.admissions/adm_day_of_week.html" xlink:title="&lt;TABLE&gt;" target="_blank">
<polygon fill="none" stroke="black" points="388,-82 0,-82 0,0 388,0 388,-82"/>
<text text-anchor="start" x="12.88" y="-60.7" font-family="Times,serif" font-weight="bold" font-size="14.00">medicare.admissions.adm_day_of_week</text>
<polygon fill="none" stroke="black" points="11,-31 11,-53 248,-53 248,-31 11,-31"/>
<text text-anchor="start" x="14" y="-36.7" font-family="Times,serif" font-size="14.00">character varying →</text>
<polygon fill="none" stroke="black" points="250,-31 250,-53 377,-53 377,-31 250,-31"/>
<text text-anchor="start" x="252.75" y="-36.7" font-family="Times,serif" font-size="14.00">{column_name}::INT</text>
<polygon fill="none" stroke="black" points="11,-7 11,-29 248,-29 248,-7 11,-7"/>
<text text-anchor="start" x="14" y="-12.7" font-family="Times,serif" font-size="14.00">numeric →</text>
<polygon fill="none" stroke="black" points="250,-7 250,-29 377,-29 377,-7 250,-7"/>
<text text-anchor="start" x="252.75" y="-12.7" font-family="Times,serif" font-size="14.00">{column_name}::INT</text>
<polygon fill="none" stroke="black" points="8,-4 8,-78 380,-78 380,-4 8,-4"/>
</a>
</g>
</g>
<!-- medicare.ip.adm_day_of_week -->
<g id="node2" class="node">
<title>medicare.ip.adm_day_of_week</title>
<g id="a_node2"><a xlink:href="../medicare.ip/adm_day_of_week.html" xlink:title="&lt;TABLE&gt;" target="_blank">
<polygon fill="none" stroke="black" points="361.5,-201 26.5,-201 26.5,-119 361.5,-119 361.5,-201"/>
<text text-anchor="start" x="39.12" y="-179.7" font-family="Times,serif" font-weight="bold" font-size="14.00">medicare.ip.adm_day_of_week</text>
<polygon fill="none" stroke="black" points="37.5,-150 37.5,-172 221.5,-172 221.5,-150 37.5,-150"/>
<text text-anchor="start" x="40.5" y="-155.7" font-family="Times,serif" font-size="14.00">character varying →</text>
<polygon fill="none" stroke="black" points="223.5,-150 223.5,-172 350.5,-172 350.5,-150 223.5,-150"/>
<text text-anchor="start" x="226.25" y="-155.7" font-family="Times,serif" font-size="14.00">{column_name}::INT</text>
<polygon fill="none" stroke="black" points="37.5,-126 37.5,-148 221.5,-148 221.5,-126 37.5,-126"/>
<text text-anchor="start" x="40.5" y="-131.7" font-family="Times,serif" font-size="14.00">numeric →</text>
<polygon fill="none" stroke="black" points="223.5,-126 223.5,-148 350.5,-148 350.5,-126 223.5,-126"/>
<text text-anchor="start" x="226.25" y="-131.7" font-family="Times,serif" font-size="14.00">{column_name}::INT</text>
<polygon fill="none" stroke="black" points="34.5,-123 34.5,-197 353.5,-197 353.5,-123 34.5,-123"/>
</a>
</g>
</g>
<!-- medicare.ip.adm_day_of_week&#45;&gt;medicare.admissions.adm_day_of_week -->
<g id="edge1" class="edge">
<title>medicare.ip.adm_day_of_week&#45;&gt;medicare.admissions.adm_day_of_week</title>
<path fill="none" stroke="black" d="M194,-118.74C194,-110.65 194,-102.04 194,-93.63"/>
<polygon fill="black" stroke="black" points="197.5,-93.85 194,-83.85 190.5,-93.85 197.5,-93.85"/>
<text text-anchor="middle" x="213.5" y="-95.45" font-family="Times,serif" font-size="14.00">Copied</text>
</g>
<!-- medicare.ip.adm_day_of_week_parent -->
<g id="node3" class="node">
<title>medicare.ip.adm_day_of_week_parent</title>
<g id="a_node3"><a xlink:href="../medicare.ip/adm_day_of_week.html" xlink:title="8 incoming links (columns)" target="_blank">
<path fill="yellow" stroke="black" d="M302,-336.18C302,-341.6 253.59,-346 194,-346 134.41,-346 86,-341.6 86,-336.18 86,-336.18 86,-247.82 86,-247.82 86,-242.4 134.41,-238 194,-238 253.59,-238 302,-242.4 302,-247.82 302,-247.82 302,-336.18 302,-336.18"/>
<path fill="none" stroke="black" d="M302,-336.18C302,-330.76 253.59,-326.36 194,-326.36 134.41,-326.36 86,-330.76 86,-336.18"/>
<text text-anchor="middle" x="194" y="-286.95" font-family="Times,serif" font-size="14.00">8 incoming links (columns)</text>
</a>
</g>
</g>
<!-- medicare.ip.adm_day_of_week_parent&#45;&gt;medicare.ip.adm_day_of_week -->
<g id="edge2" class="edge">
<title>medicare.ip.adm_day_of_week_parent&#45;&gt;medicare.ip.adm_day_of_week</title>
<path fill="none" stroke="goldenrod" stroke-width="6" d="M194,-237.75C194,-231.08 194,-224.23 194,-217.51"/>
<polygon fill="goldenrod" stroke="goldenrod" stroke-width="6" points="199.25,-217.68 194,-207.68 188.75,-217.68 199.25,-217.68"/>
</g>
</g>
</svg>
