<?xml version="1.0" encoding="UTF-8" standalone="no"?>
<!DOCTYPE svg PUBLIC "-//W3C//DTD SVG 1.1//EN"
 "http://www.w3.org/Graphics/SVG/1.1/DTD/svg11.dtd">
<!-- Generated by graphviz version 10.0.1 (20240210.2158)
 -->
<!-- Pages: 1 -->
<svg width="418pt" height="473pt"
 viewBox="0.00 0.00 418.00 473.00" xmlns="http://www.w3.org/2000/svg" xmlns:xlink="http://www.w3.org/1999/xlink">
<g id="graph0" class="graph" transform="scale(1 1) rotate(0) translate(4 469)">
<polygon fill="white" stroke="none" points="-4,4 -4,-469 414,-469 414,4 -4,4"/>
<!-- medicare.qc_adm_union.adm_day_of_week -->
<g id="node1" class="node">
<title>medicare.qc_adm_union.adm_day_of_week</title>
<g id="a_node1"><a xlink:href="../medicare.qc_adm_union/adm_day_of_week.html" xlink:title="&lt;TABLE&gt;" target="_blank">
<polygon fill="none" stroke="black" points="410,-82 0,-82 0,0 410,0 410,-82"/>
<text text-anchor="start" x="12.62" y="-60.7" font-family="Times,serif" font-weight="bold" font-size="14.00">medicare.qc_adm_union.adm_day_of_week</text>
<polygon fill="none" stroke="black" points="11,-31 11,-53 270,-53 270,-31 11,-31"/>
<text text-anchor="start" x="14" y="-36.7" font-family="Times,serif" font-size="14.00">character varying →</text>
<polygon fill="none" stroke="black" points="272,-31 272,-53 399,-53 399,-31 272,-31"/>
<text text-anchor="start" x="274.75" y="-36.7" font-family="Times,serif" font-size="14.00">{column_name}::INT</text>
<polygon fill="none" stroke="black" points="11,-7 11,-29 270,-29 270,-7 11,-7"/>
<text text-anchor="start" x="14" y="-12.7" font-family="Times,serif" font-size="14.00">numeric →</text>
<polygon fill="none" stroke="black" points="272,-7 272,-29 399,-29 399,-7 272,-7"/>
<text text-anchor="start" x="274.75" y="-12.7" font-family="Times,serif" font-size="14.00">{column_name}::INT</text>
<polygon fill="none" stroke="black" points="8,-4 8,-78 402,-78 402,-4 8,-4"/>
</a>
</g>
</g>
<!-- medicare.admissions.adm_day_of_week -->
<g id="node2" class="node">
<title>medicare.admissions.adm_day_of_week</title>
<g id="a_node2"><a xlink:href="../medicare.admissions/adm_day_of_week.html" xlink:title="&lt;TABLE&gt;" target="_blank">
<polygon fill="none" stroke="black" points="399,-201 11,-201 11,-119 399,-119 399,-201"/>
<text text-anchor="start" x="23.88" y="-179.7" font-family="Times,serif" font-weight="bold" font-size="14.00">medicare.admissions.adm_day_of_week</text>
<polygon fill="none" stroke="black" points="22,-150 22,-172 259,-172 259,-150 22,-150"/>
<text text-anchor="start" x="25" y="-155.7" font-family="Times,serif" font-size="14.00">character varying →</text>
<polygon fill="none" stroke="black" points="261,-150 261,-172 388,-172 388,-150 261,-150"/>
<text text-anchor="start" x="263.75" y="-155.7" font-family="Times,serif" font-size="14.00">{column_name}::INT</text>
<polygon fill="none" stroke="black" points="22,-126 22,-148 259,-148 259,-126 22,-126"/>
<text text-anchor="start" x="25" y="-131.7" font-family="Times,serif" font-size="14.00">numeric →</text>
<polygon fill="none" stroke="black" points="261,-126 261,-148 388,-148 388,-126 261,-126"/>
<text text-anchor="start" x="263.75" y="-131.7" font-family="Times,serif" font-size="14.00">{column_name}::INT</text>
<polygon fill="none" stroke="black" points="19,-123 19,-197 391,-197 391,-123 19,-123"/>
</a>
</g>
</g>
<!-- medicare.admissions.adm_day_of_week&#45;&gt;medicare.qc_adm_union.adm_day_of_week -->
<g id="edge1" class="edge">
<title>medicare.admissions.adm_day_of_week&#45;&gt;medicare.qc_adm_union.adm_day_of_week</title>
<path fill="none" stroke="black" d="M205,-118.74C205,-110.65 205,-102.04 205,-93.63"/>
<polygon fill="black" stroke="black" points="208.5,-93.85 205,-83.85 201.5,-93.85 208.5,-93.85"/>
<text text-anchor="middle" x="224.5" y="-95.45" font-family="Times,serif" font-size="14.00">Copied</text>
</g>
<!-- medicare.ip.adm_day_of_week -->
<g id="node3" class="node">
<title>medicare.ip.adm_day_of_week</title>
<g id="a_node3"><a xlink:href="../medicare.ip/adm_day_of_week.html" xlink:title="&lt;TABLE&gt;" target="_blank">
<polygon fill="none" stroke="black" points="372.5,-320 37.5,-320 37.5,-238 372.5,-238 372.5,-320"/>
<text text-anchor="start" x="50.12" y="-298.7" font-family="Times,serif" font-weight="bold" font-size="14.00">medicare.ip.adm_day_of_week</text>
<polygon fill="none" stroke="black" points="48.5,-269 48.5,-291 232.5,-291 232.5,-269 48.5,-269"/>
<text text-anchor="start" x="51.5" y="-274.7" font-family="Times,serif" font-size="14.00">character varying →</text>
<polygon fill="none" stroke="black" points="234.5,-269 234.5,-291 361.5,-291 361.5,-269 234.5,-269"/>
<text text-anchor="start" x="237.25" y="-274.7" font-family="Times,serif" font-size="14.00">{column_name}::INT</text>
<polygon fill="none" stroke="black" points="48.5,-245 48.5,-267 232.5,-267 232.5,-245 48.5,-245"/>
<text text-anchor="start" x="51.5" y="-250.7" font-family="Times,serif" font-size="14.00">numeric →</text>
<polygon fill="none" stroke="black" points="234.5,-245 234.5,-267 361.5,-267 361.5,-245 234.5,-245"/>
<text text-anchor="start" x="237.25" y="-250.7" font-family="Times,serif" font-size="14.00">{column_name}::INT</text>
<polygon fill="none" stroke="black" points="45.5,-242 45.5,-316 364.5,-316 364.5,-242 45.5,-242"/>
</a>
</g>
</g>
<!-- medicare.ip.adm_day_of_week&#45;&gt;medicare.admissions.adm_day_of_week -->
<g id="edge2" class="edge">
<title>medicare.ip.adm_day_of_week&#45;&gt;medicare.admissions.adm_day_of_week</title>
<path fill="none" stroke="black" d="M205,-237.74C205,-229.65 205,-221.04 205,-212.63"/>
<polygon fill="black" stroke="black" points="208.5,-212.85 205,-202.85 201.5,-212.85 208.5,-212.85"/>
<text text-anchor="middle" x="224.5" y="-214.45" font-family="Times,serif" font-size="14.00">Copied</text>
</g>
<!-- medicare.ip.adm_day_of_week_parent -->
<g id="node4" class="node">
<title>medicare.ip.adm_day_of_week_parent</title>
<g id="a_node4"><a xlink:href="../medicare.ip/adm_day_of_week.html" xlink:title="8 incoming links (columns)" target="_blank">
<path fill="yellow" stroke="black" d="M313,-455.18C313,-460.6 264.59,-465 205,-465 145.41,-465 97,-460.6 97,-455.18 97,-455.18 97,-366.82 97,-366.82 97,-361.4 145.41,-357 205,-357 264.59,-357 313,-361.4 313,-366.82 313,-366.82 313,-455.18 313,-455.18"/>
<path fill="none" stroke="black" d="M313,-455.18C313,-449.76 264.59,-445.36 205,-445.36 145.41,-445.36 97,-449.76 97,-455.18"/>
<text text-anchor="middle" x="205" y="-405.95" font-family="Times,serif" font-size="14.00">8 incoming links (columns)</text>
</a>
</g>
</g>
<!-- medicare.ip.adm_day_of_week_parent&#45;&gt;medicare.ip.adm_day_of_week -->
<g id="edge3" class="edge">
<title>medicare.ip.adm_day_of_week_parent&#45;&gt;medicare.ip.adm_day_of_week</title>
<path fill="none" stroke="goldenrod" stroke-width="6" d="M205,-356.75C205,-350.08 205,-343.23 205,-336.51"/>
<polygon fill="goldenrod" stroke="goldenrod" stroke-width="6" points="210.25,-336.68 205,-326.68 199.75,-336.68 210.25,-336.68"/>
</g>
</g>
</svg>
