<?xml version="1.0" encoding="UTF-8" standalone="no"?>
<!DOCTYPE svg PUBLIC "-//W3C//DTD SVG 1.1//EN"
 "http://www.w3.org/Graphics/SVG/1.1/DTD/svg11.dtd">
<!-- Generated by graphviz version 10.0.1 (20240210.2158)
 -->
<!-- Pages: 1 -->
<svg width="543pt" height="354pt"
 viewBox="0.00 0.00 543.00 354.00" xmlns="http://www.w3.org/2000/svg" xmlns:xlink="http://www.w3.org/1999/xlink">
<g id="graph0" class="graph" transform="scale(1 1) rotate(0) translate(4 350)">
<polygon fill="white" stroke="none" points="-4,4 -4,-350 539,-350 539,4 -4,4"/>
<!-- medicare.admissions.admission_date_raw -->
<g id="node1" class="node">
<title>medicare.admissions.admission_date_raw</title>
<g id="a_node1"><a xlink:href="../medicare.admissions/admission_date_raw.html" xlink:title="&lt;TABLE&gt;" target="_blank">
<polygon fill="none" stroke="black" points="535,-82 0,-82 0,0 535,0 535,-82"/>
<text text-anchor="start" x="12.75" y="-60.7" font-family="Times,serif" font-weight="bold" font-size="14.00">medicare.admissions.admission_date_raw</text>
<polygon fill="none" stroke="black" points="11,-31 11,-53 259,-53 259,-31 11,-31"/>
<text text-anchor="start" x="14" y="-36.7" font-family="Times,serif" font-size="14.00">numeric →</text>
<polygon fill="none" stroke="black" points="261,-31 261,-53 524,-53 524,-31 261,-31"/>
<text text-anchor="start" x="263.88" y="-36.7" font-family="Times,serif" font-size="14.00">TRIM(to_char({column_name}, &#39;999999999&#39;))</text>
<polygon fill="none" stroke="black" points="11,-7 11,-29 259,-29 259,-7 11,-7"/>
<text text-anchor="start" x="14" y="-12.7" font-family="Times,serif" font-size="14.00">* →</text>
<polygon fill="none" stroke="black" points="261,-7 261,-29 524,-29 524,-7 261,-7"/>
<text text-anchor="start" x="264" y="-12.7" font-family="Times,serif" font-size="14.00">{column_name}::VARCHAR</text>
<polygon fill="none" stroke="black" points="8,-4 8,-78 527,-78 527,-4 8,-4"/>
</a>
</g>
</g>
<!-- medicare.ip.admission_date_raw -->
<g id="node2" class="node">
<title>medicare.ip.admission_date_raw</title>
<g id="a_node2"><a xlink:href="../medicare.ip/admission_date_raw.html" xlink:title="&lt;TABLE&gt;" target="_blank">
<polygon fill="none" stroke="black" points="509,-201 26,-201 26,-119 509,-119 509,-201"/>
<text text-anchor="start" x="39" y="-179.7" font-family="Times,serif" font-weight="bold" font-size="14.00">medicare.ip.admission_date_raw</text>
<polygon fill="none" stroke="black" points="37,-150 37,-172 233,-172 233,-150 37,-150"/>
<text text-anchor="start" x="40" y="-155.7" font-family="Times,serif" font-size="14.00">numeric →</text>
<polygon fill="none" stroke="black" points="235,-150 235,-172 498,-172 498,-150 235,-150"/>
<text text-anchor="start" x="237.88" y="-155.7" font-family="Times,serif" font-size="14.00">TRIM(to_char({column_name}, &#39;999999999&#39;))</text>
<polygon fill="none" stroke="black" points="37,-126 37,-148 233,-148 233,-126 37,-126"/>
<text text-anchor="start" x="40" y="-131.7" font-family="Times,serif" font-size="14.00">* →</text>
<polygon fill="none" stroke="black" points="235,-126 235,-148 498,-148 498,-126 235,-126"/>
<text text-anchor="start" x="238" y="-131.7" font-family="Times,serif" font-size="14.00">{column_name}::VARCHAR</text>
<polygon fill="none" stroke="black" points="34,-123 34,-197 501,-197 501,-123 34,-123"/>
</a>
</g>
</g>
<!-- medicare.ip.admission_date_raw&#45;&gt;medicare.admissions.admission_date_raw -->
<g id="edge1" class="edge">
<title>medicare.ip.admission_date_raw&#45;&gt;medicare.admissions.admission_date_raw</title>
<path fill="none" stroke="black" d="M267.5,-118.74C267.5,-110.65 267.5,-102.04 267.5,-93.63"/>
<polygon fill="black" stroke="black" points="271,-93.85 267.5,-83.85 264,-93.85 271,-93.85"/>
<text text-anchor="middle" x="287" y="-95.45" font-family="Times,serif" font-size="14.00">Copied</text>
</g>
<!-- medicare.ip.admission_date_raw_parent -->
<g id="node3" class="node">
<title>medicare.ip.admission_date_raw_parent</title>
<g id="a_node3"><a xlink:href="../medicare.ip/admission_date_raw.html" xlink:title="8 incoming links (columns)" target="_blank">
<path fill="yellow" stroke="black" d="M375.5,-336.18C375.5,-341.6 327.09,-346 267.5,-346 207.91,-346 159.5,-341.6 159.5,-336.18 159.5,-336.18 159.5,-247.82 159.5,-247.82 159.5,-242.4 207.91,-238 267.5,-238 327.09,-238 375.5,-242.4 375.5,-247.82 375.5,-247.82 375.5,-336.18 375.5,-336.18"/>
<path fill="none" stroke="black" d="M375.5,-336.18C375.5,-330.76 327.09,-326.36 267.5,-326.36 207.91,-326.36 159.5,-330.76 159.5,-336.18"/>
<text text-anchor="middle" x="267.5" y="-286.95" font-family="Times,serif" font-size="14.00">8 incoming links (columns)</text>
</a>
</g>
</g>
<!-- medicare.ip.admission_date_raw_parent&#45;&gt;medicare.ip.admission_date_raw -->
<g id="edge2" class="edge">
<title>medicare.ip.admission_date_raw_parent&#45;&gt;medicare.ip.admission_date_raw</title>
<path fill="none" stroke="goldenrod" stroke-width="6" d="M267.5,-237.75C267.5,-231.08 267.5,-224.23 267.5,-217.51"/>
<polygon fill="goldenrod" stroke="goldenrod" stroke-width="6" points="272.75,-217.68 267.5,-207.68 262.25,-217.68 272.75,-217.68"/>
</g>
</g>
</svg>
