<?xml version="1.0" encoding="UTF-8" standalone="no"?>
<!DOCTYPE svg PUBLIC "-//W3C//DTD SVG 1.1//EN"
 "http://www.w3.org/Graphics/SVG/1.1/DTD/svg11.dtd">
<!-- Generated by graphviz version 10.0.1 (20240210.2158)
 -->
<!-- Pages: 1 -->
<svg width="474pt" height="473pt"
 viewBox="0.00 0.00 474.00 473.00" xmlns="http://www.w3.org/2000/svg" xmlns:xlink="http://www.w3.org/1999/xlink">
<g id="graph0" class="graph" transform="scale(1 1) rotate(0) translate(4 469)">
<polygon fill="white" stroke="none" points="-4,4 -4,-469 470,-469 470,4 -4,4"/>
<!-- medicare.qc_adm_union.admission_date -->
<g id="node1" class="node">
<title>medicare.qc_adm_union.admission_date</title>
<g id="a_node1"><a xlink:href="../medicare.qc_adm_union/admission_date.html" xlink:title="&lt;TABLE&gt;" target="_blank">
<polygon fill="none" stroke="black" points="466,-82 0,-82 0,0 466,0 466,-82"/>
<text text-anchor="start" x="12.62" y="-60.7" font-family="Times,serif" font-weight="bold" font-size="14.00">medicare.qc_adm_union.admission_date</text>
<polygon fill="none" stroke="black" points="11,-31 11,-53 252,-53 252,-31 11,-31"/>
<text text-anchor="start" x="14" y="-36.7" font-family="Times,serif" font-size="14.00">character varying →</text>
<polygon fill="none" stroke="black" points="254,-31 254,-53 455,-53 455,-31 254,-31"/>
<text text-anchor="start" x="256.62" y="-36.7" font-family="Times,serif" font-size="14.00">public.parse_date({column_name})</text>
<polygon fill="none" stroke="black" points="11,-7 11,-29 252,-29 252,-7 11,-7"/>
<text text-anchor="start" x="14" y="-12.7" font-family="Times,serif" font-size="14.00">numeric →</text>
<polygon fill="none" stroke="black" points="254,-7 254,-29 455,-29 455,-7 254,-7"/>
<text text-anchor="start" x="256.62" y="-12.7" font-family="Times,serif" font-size="14.00">public.parse_date({column_name})</text>
<polygon fill="none" stroke="black" points="8,-4 8,-78 458,-78 458,-4 8,-4"/>
</a>
</g>
</g>
<!-- medicare.admissions.admission_date -->
<g id="node2" class="node">
<title>medicare.admissions.admission_date</title>
<g id="a_node2"><a xlink:href="../medicare.admissions/admission_date.html" xlink:title="&lt;TABLE&gt;" target="_blank">
<polygon fill="none" stroke="black" points="455,-201 11,-201 11,-119 455,-119 455,-201"/>
<text text-anchor="start" x="23.88" y="-179.7" font-family="Times,serif" font-weight="bold" font-size="14.00">medicare.admissions.admission_date</text>
<polygon fill="none" stroke="black" points="22,-150 22,-172 241,-172 241,-150 22,-150"/>
<text text-anchor="start" x="25" y="-155.7" font-family="Times,serif" font-size="14.00">character varying →</text>
<polygon fill="none" stroke="black" points="243,-150 243,-172 444,-172 444,-150 243,-150"/>
<text text-anchor="start" x="245.62" y="-155.7" font-family="Times,serif" font-size="14.00">public.parse_date({column_name})</text>
<polygon fill="none" stroke="black" points="22,-126 22,-148 241,-148 241,-126 22,-126"/>
<text text-anchor="start" x="25" y="-131.7" font-family="Times,serif" font-size="14.00">numeric →</text>
<polygon fill="none" stroke="black" points="243,-126 243,-148 444,-148 444,-126 243,-126"/>
<text text-anchor="start" x="245.62" y="-131.7" font-family="Times,serif" font-size="14.00">public.parse_date({column_name})</text>
<polygon fill="none" stroke="black" points="19,-123 19,-197 447,-197 447,-123 19,-123"/>
</a>
</g>
</g>
<!-- medicare.admissions.admission_date&#45;&gt;medicare.qc_adm_union.admission_date -->
<g id="edge1" class="edge">
<title>medicare.admissions.admission_date&#45;&gt;medicare.qc_adm_union.admission_date</title>
<path fill="none" stroke="black" d="M233,-118.74C233,-110.65 233,-102.04 233,-93.63"/>
<polygon fill="black" stroke="black" points="236.5,-93.85 233,-83.85 229.5,-93.85 236.5,-93.85"/>
<text text-anchor="middle" x="252.5" y="-95.45" font-family="Times,serif" font-size="14.00">Copied</text>
</g>
<!-- medicare.ip.admission_date -->
<g id="node3" class="node">
<title>medicare.ip.admission_date</title>
<g id="a_node3"><a xlink:href="../medicare.ip/admission_date.html" xlink:title="&lt;TABLE&gt;" target="_blank">
<polygon fill="none" stroke="black" points="428.5,-320 37.5,-320 37.5,-238 428.5,-238 428.5,-320"/>
<text text-anchor="start" x="50.12" y="-298.7" font-family="Times,serif" font-weight="bold" font-size="14.00">medicare.ip.admission_date</text>
<polygon fill="none" stroke="black" points="48.5,-269 48.5,-291 214.5,-291 214.5,-269 48.5,-269"/>
<text text-anchor="start" x="51.5" y="-274.7" font-family="Times,serif" font-size="14.00">character varying →</text>
<polygon fill="none" stroke="black" points="216.5,-269 216.5,-291 417.5,-291 417.5,-269 216.5,-269"/>
<text text-anchor="start" x="219.12" y="-274.7" font-family="Times,serif" font-size="14.00">public.parse_date({column_name})</text>
<polygon fill="none" stroke="black" points="48.5,-245 48.5,-267 214.5,-267 214.5,-245 48.5,-245"/>
<text text-anchor="start" x="51.5" y="-250.7" font-family="Times,serif" font-size="14.00">numeric →</text>
<polygon fill="none" stroke="black" points="216.5,-245 216.5,-267 417.5,-267 417.5,-245 216.5,-245"/>
<text text-anchor="start" x="219.12" y="-250.7" font-family="Times,serif" font-size="14.00">public.parse_date({column_name})</text>
<polygon fill="none" stroke="black" points="45.5,-242 45.5,-316 420.5,-316 420.5,-242 45.5,-242"/>
</a>
</g>
</g>
<!-- medicare.ip.admission_date&#45;&gt;medicare.admissions.admission_date -->
<g id="edge2" class="edge">
<title>medicare.ip.admission_date&#45;&gt;medicare.admissions.admission_date</title>
<path fill="none" stroke="black" d="M233,-237.74C233,-229.65 233,-221.04 233,-212.63"/>
<polygon fill="black" stroke="black" points="236.5,-212.85 233,-202.85 229.5,-212.85 236.5,-212.85"/>
<text text-anchor="middle" x="252.5" y="-214.45" font-family="Times,serif" font-size="14.00">Copied</text>
</g>
<!-- medicare.ip.admission_date_parent -->
<g id="node4" class="node">
<title>medicare.ip.admission_date_parent</title>
<g id="a_node4"><a xlink:href="../medicare.ip/admission_date.html" xlink:title="8 incoming links (columns)" target="_blank">
<path fill="yellow" stroke="black" d="M341,-455.18C341,-460.6 292.59,-465 233,-465 173.41,-465 125,-460.6 125,-455.18 125,-455.18 125,-366.82 125,-366.82 125,-361.4 173.41,-357 233,-357 292.59,-357 341,-361.4 341,-366.82 341,-366.82 341,-455.18 341,-455.18"/>
<path fill="none" stroke="black" d="M341,-455.18C341,-449.76 292.59,-445.36 233,-445.36 173.41,-445.36 125,-449.76 125,-455.18"/>
<text text-anchor="middle" x="233" y="-405.95" font-family="Times,serif" font-size="14.00">8 incoming links (columns)</text>
</a>
</g>
</g>
<!-- medicare.ip.admission_date_parent&#45;&gt;medicare.ip.admission_date -->
<g id="edge3" class="edge">
<title>medicare.ip.admission_date_parent&#45;&gt;medicare.ip.admission_date</title>
<path fill="none" stroke="goldenrod" stroke-width="6" d="M233,-356.75C233,-350.08 233,-343.23 233,-336.51"/>
<polygon fill="goldenrod" stroke="goldenrod" stroke-width="6" points="238.25,-336.68 233,-326.68 227.75,-336.68 238.25,-336.68"/>
</g>
</g>
</svg>
