<?xml version="1.0" encoding="UTF-8" standalone="no"?>
<!DOCTYPE svg PUBLIC "-//W3C//DTD SVG 1.1//EN"
 "http://www.w3.org/Graphics/SVG/1.1/DTD/svg11.dtd">
<!-- Generated by graphviz version 10.0.1 (20240210.2158)
 -->
<!-- Pages: 1 -->
<svg width="452pt" height="354pt"
 viewBox="0.00 0.00 452.00 354.00" xmlns="http://www.w3.org/2000/svg" xmlns:xlink="http://www.w3.org/1999/xlink">
<g id="graph0" class="graph" transform="scale(1 1) rotate(0) translate(4 350)">
<polygon fill="white" stroke="none" points="-4,4 -4,-350 448,-350 448,4 -4,4"/>
<!-- medicare.admissions.admission_date -->
<g id="node1" class="node">
<title>medicare.admissions.admission_date</title>
<g id="a_node1"><a xlink:href="../medicare.admissions/admission_date.html" xlink:title="&lt;TABLE&gt;" target="_blank">
<polygon fill="none" stroke="black" points="444,-82 0,-82 0,0 444,0 444,-82"/>
<text text-anchor="start" x="12.88" y="-60.7" font-family="Times,serif" font-weight="bold" font-size="14.00">medicare.admissions.admission_date</text>
<polygon fill="none" stroke="black" points="11,-31 11,-53 230,-53 230,-31 11,-31"/>
<text text-anchor="start" x="14" y="-36.7" font-family="Times,serif" font-size="14.00">character varying →</text>
<polygon fill="none" stroke="black" points="232,-31 232,-53 433,-53 433,-31 232,-31"/>
<text text-anchor="start" x="234.62" y="-36.7" font-family="Times,serif" font-size="14.00">public.parse_date({column_name})</text>
<polygon fill="none" stroke="black" points="11,-7 11,-29 230,-29 230,-7 11,-7"/>
<text text-anchor="start" x="14" y="-12.7" font-family="Times,serif" font-size="14.00">numeric →</text>
<polygon fill="none" stroke="black" points="232,-7 232,-29 433,-29 433,-7 232,-7"/>
<text text-anchor="start" x="234.62" y="-12.7" font-family="Times,serif" font-size="14.00">public.parse_date({column_name})</text>
<polygon fill="none" stroke="black" points="8,-4 8,-78 436,-78 436,-4 8,-4"/>
</a>
</g>
</g>
<!-- medicare.ip.admission_date -->
<g id="node2" class="node">
<title>medicare.ip.admission_date</title>
<g id="a_node2"><a xlink:href="../medicare.ip/admission_date.html" xlink:title="&lt;TABLE&gt;" target="_blank">
<polygon fill="none" stroke="black" points="417.5,-201 26.5,-201 26.5,-119 417.5,-119 417.5,-201"/>
<text text-anchor="start" x="39.12" y="-179.7" font-family="Times,serif" font-weight="bold" font-size="14.00">medicare.ip.admission_date</text>
<polygon fill="none" stroke="black" points="37.5,-150 37.5,-172 203.5,-172 203.5,-150 37.5,-150"/>
<text text-anchor="start" x="40.5" y="-155.7" font-family="Times,serif" font-size="14.00">character varying →</text>
<polygon fill="none" stroke="black" points="205.5,-150 205.5,-172 406.5,-172 406.5,-150 205.5,-150"/>
<text text-anchor="start" x="208.12" y="-155.7" font-family="Times,serif" font-size="14.00">public.parse_date({column_name})</text>
<polygon fill="none" stroke="black" points="37.5,-126 37.5,-148 203.5,-148 203.5,-126 37.5,-126"/>
<text text-anchor="start" x="40.5" y="-131.7" font-family="Times,serif" font-size="14.00">numeric →</text>
<polygon fill="none" stroke="black" points="205.5,-126 205.5,-148 406.5,-148 406.5,-126 205.5,-126"/>
<text text-anchor="start" x="208.12" y="-131.7" font-family="Times,serif" font-size="14.00">public.parse_date({column_name})</text>
<polygon fill="none" stroke="black" points="34.5,-123 34.5,-197 409.5,-197 409.5,-123 34.5,-123"/>
</a>
</g>
</g>
<!-- medicare.ip.admission_date&#45;&gt;medicare.admissions.admission_date -->
<g id="edge1" class="edge">
<title>medicare.ip.admission_date&#45;&gt;medicare.admissions.admission_date</title>
<path fill="none" stroke="black" d="M222,-118.74C222,-110.65 222,-102.04 222,-93.63"/>
<polygon fill="black" stroke="black" points="225.5,-93.85 222,-83.85 218.5,-93.85 225.5,-93.85"/>
<text text-anchor="middle" x="241.5" y="-95.45" font-family="Times,serif" font-size="14.00">Copied</text>
</g>
<!-- medicare.ip.admission_date_parent -->
<g id="node3" class="node">
<title>medicare.ip.admission_date_parent</title>
<g id="a_node3"><a xlink:href="../medicare.ip/admission_date.html" xlink:title="8 incoming links (columns)" target="_blank">
<path fill="yellow" stroke="black" d="M330,-336.18C330,-341.6 281.59,-346 222,-346 162.41,-346 114,-341.6 114,-336.18 114,-336.18 114,-247.82 114,-247.82 114,-242.4 162.41,-238 222,-238 281.59,-238 330,-242.4 330,-247.82 330,-247.82 330,-336.18 330,-336.18"/>
<path fill="none" stroke="black" d="M330,-336.18C330,-330.76 281.59,-326.36 222,-326.36 162.41,-326.36 114,-330.76 114,-336.18"/>
<text text-anchor="middle" x="222" y="-286.95" font-family="Times,serif" font-size="14.00">8 incoming links (columns)</text>
</a>
</g>
</g>
<!-- medicare.ip.admission_date_parent&#45;&gt;medicare.ip.admission_date -->
<g id="edge2" class="edge">
<title>medicare.ip.admission_date_parent&#45;&gt;medicare.ip.admission_date</title>
<path fill="none" stroke="goldenrod" stroke-width="6" d="M222,-237.75C222,-231.08 222,-224.23 222,-217.51"/>
<polygon fill="goldenrod" stroke="goldenrod" stroke-width="6" points="227.25,-217.68 222,-207.68 216.75,-217.68 227.25,-217.68"/>
</g>
</g>
</svg>
