<?xml version="1.0" encoding="UTF-8" standalone="no"?>
<!DOCTYPE svg PUBLIC "-//W3C//DTD SVG 1.1//EN"
 "http://www.w3.org/Graphics/SVG/1.1/DTD/svg11.dtd">
<!-- Generated by graphviz version 10.0.1 (20240210.2158)
 -->
<!-- Pages: 1 -->
<svg width="506pt" height="331pt"
 viewBox="0.00 0.00 506.25 331.00" xmlns="http://www.w3.org/2000/svg" xmlns:xlink="http://www.w3.org/1999/xlink">
<g id="graph0" class="graph" transform="scale(1 1) rotate(0) translate(4 327)">
<polygon fill="white" stroke="none" points="-4,4 -4,-327 502.25,-327 502.25,4 -4,4"/>
<!-- medicare.admissions.admission_year -->
<g id="node1" class="node">
<title>medicare.admissions.admission_year</title>
<g id="a_node1"><a xlink:href="../medicare.admissions/admission_year.html" xlink:title="&lt;TABLE&gt;" target="_blank">
<polygon fill="none" stroke="black" points="498.25,-59 0,-59 0,0 498.25,0 498.25,-59"/>
<text text-anchor="start" x="141.12" y="-37.7" font-family="Times,serif" font-weight="bold" font-size="14.00">medicare.admissions.admission_year</text>
<polygon fill="none" stroke="black" points="11,-7 11,-29.5 487.25,-29.5 487.25,-7 11,-7"/>
<text text-anchor="start" x="14" y="-13.2" font-family="Times,serif" font-size="14.00">GENERATED ALWAYS AS (EXTRACT (YEAR FROM admission_date)) STORED</text>
<polygon fill="none" stroke="black" points="8,-4 8,-55 490.25,-55 490.25,-4 8,-4"/>
</a>
</g>
</g>
<!-- medicare.ip.admission_date -->
<g id="node2" class="node">
<title>medicare.ip.admission_date</title>
<g id="a_node2"><a xlink:href="../medicare.ip/admission_date.html" xlink:title="&lt;TABLE&gt;" target="_blank">
<polygon fill="none" stroke="black" points="444.62,-178 53.62,-178 53.62,-96 444.62,-96 444.62,-178"/>
<text text-anchor="start" x="66.25" y="-156.7" font-family="Times,serif" font-weight="bold" font-size="14.00">medicare.ip.admission_date</text>
<polygon fill="none" stroke="black" points="64.62,-127 64.62,-149 230.62,-149 230.62,-127 64.62,-127"/>
<text text-anchor="start" x="67.62" y="-132.7" font-family="Times,serif" font-size="14.00">character varying →</text>
<polygon fill="none" stroke="black" points="232.62,-127 232.62,-149 433.62,-149 433.62,-127 232.62,-127"/>
<text text-anchor="start" x="235.25" y="-132.7" font-family="Times,serif" font-size="14.00">public.parse_date({column_name})</text>
<polygon fill="none" stroke="black" points="64.62,-103 64.62,-125 230.62,-125 230.62,-103 64.62,-103"/>
<text text-anchor="start" x="67.62" y="-108.7" font-family="Times,serif" font-size="14.00">numeric →</text>
<polygon fill="none" stroke="black" points="232.62,-103 232.62,-125 433.62,-125 433.62,-103 232.62,-103"/>
<text text-anchor="start" x="235.25" y="-108.7" font-family="Times,serif" font-size="14.00">public.parse_date({column_name})</text>
<polygon fill="none" stroke="black" points="61.62,-100 61.62,-174 436.62,-174 436.62,-100 61.62,-100"/>
</a>
</g>
</g>
<!-- medicare.ip.admission_date&#45;&gt;medicare.admissions.admission_year -->
<g id="edge1" class="edge">
<title>medicare.ip.admission_date&#45;&gt;medicare.admissions.admission_year</title>
<path fill="none" stroke="black" d="M249.12,-95.51C249.12,-87.39 249.12,-78.86 249.12,-70.75"/>
<polygon fill="black" stroke="black" points="252.63,-70.77 249.13,-60.77 245.63,-70.77 252.63,-70.77"/>
<text text-anchor="middle" x="287.75" y="-72.45" font-family="Times,serif" font-size="14.00"> &#160;Transformed</text>
</g>
<!-- medicare.ip.admission_date_parent -->
<g id="node3" class="node">
<title>medicare.ip.admission_date_parent</title>
<g id="a_node3"><a xlink:href="../medicare.ip/admission_date.html" xlink:title="8 incoming links (columns)" target="_blank">
<path fill="yellow" stroke="black" d="M357.12,-313.18C357.12,-318.6 308.72,-323 249.12,-323 189.53,-323 141.12,-318.6 141.12,-313.18 141.12,-313.18 141.12,-224.82 141.12,-224.82 141.12,-219.4 189.53,-215 249.12,-215 308.72,-215 357.12,-219.4 357.12,-224.82 357.12,-224.82 357.12,-313.18 357.12,-313.18"/>
<path fill="none" stroke="black" d="M357.12,-313.18C357.12,-307.76 308.72,-303.36 249.12,-303.36 189.53,-303.36 141.12,-307.76 141.12,-313.18"/>
<text text-anchor="middle" x="249.12" y="-263.95" font-family="Times,serif" font-size="14.00">8 incoming links (columns)</text>
</a>
</g>
</g>
<!-- medicare.ip.admission_date_parent&#45;&gt;medicare.ip.admission_date -->
<g id="edge2" class="edge">
<title>medicare.ip.admission_date_parent&#45;&gt;medicare.ip.admission_date</title>
<path fill="none" stroke="goldenrod" stroke-width="6" d="M249.12,-214.75C249.12,-208.08 249.12,-201.23 249.12,-194.51"/>
<polygon fill="goldenrod" stroke="goldenrod" stroke-width="6" points="254.38,-194.68 249.13,-184.68 243.88,-194.68 254.38,-194.68"/>
</g>
</g>
</svg>
