<?xml version="1.0" encoding="UTF-8" standalone="no"?>
<!DOCTYPE svg PUBLIC "-//W3C//DTD SVG 1.1//EN"
 "http://www.w3.org/Graphics/SVG/1.1/DTD/svg11.dtd">
<!-- Generated by graphviz version 10.0.1 (20240210.2158)
 -->
<!-- Pages: 1 -->
<svg width="250pt" height="262pt"
 viewBox="0.00 0.00 250.00 262.00" xmlns="http://www.w3.org/2000/svg" xmlns:xlink="http://www.w3.org/1999/xlink">
<g id="graph0" class="graph" transform="scale(1 1) rotate(0) translate(4 258)">
<polygon fill="white" stroke="none" points="-4,4 -4,-258 246,-258 246,4 -4,4"/>
<!-- medicare.admissions.admsn_type_cd -->
<g id="node1" class="node">
<title>medicare.admissions.admsn_type_cd</title>
<g id="a_node1"><a xlink:href="../medicare.admissions/admsn_type_cd.html" xlink:title="&lt;TABLE&gt;" target="_blank">
<polygon fill="none" stroke="black" points="242,-36 0,-36 0,0 242,0 242,-36"/>
<text text-anchor="start" x="13" y="-13.95" font-family="Times,serif" font-weight="bold" font-size="14.00">medicare.admissions.admsn_type_cd</text>
<polygon fill="none" stroke="black" points="8,-4.75 8,-31.25 234,-31.25 234,-4.75 8,-4.75"/>
</a>
</g>
</g>
<!-- medicare.ip.admsn_type_cd -->
<g id="node2" class="node">
<title>medicare.ip.admsn_type_cd</title>
<g id="a_node2"><a xlink:href="../medicare.ip/admsn_type_cd.html" xlink:title="&lt;TABLE&gt;" target="_blank">
<polygon fill="none" stroke="black" points="215.75,-109 26.25,-109 26.25,-73 215.75,-73 215.75,-109"/>
<text text-anchor="start" x="39.25" y="-86.95" font-family="Times,serif" font-weight="bold" font-size="14.00">medicare.ip.admsn_type_cd</text>
<polygon fill="none" stroke="black" points="34.25,-77.75 34.25,-104.25 207.75,-104.25 207.75,-77.75 34.25,-77.75"/>
</a>
</g>
</g>
<!-- medicare.ip.admsn_type_cd&#45;&gt;medicare.admissions.admsn_type_cd -->
<g id="edge1" class="edge">
<title>medicare.ip.admsn_type_cd&#45;&gt;medicare.admissions.admsn_type_cd</title>
<path fill="none" stroke="black" d="M121,-72.81C121,-65.23 121,-56.1 121,-47.54"/>
<polygon fill="black" stroke="black" points="124.5,-47.54 121,-37.54 117.5,-47.54 124.5,-47.54"/>
<text text-anchor="middle" x="140.5" y="-49.45" font-family="Times,serif" font-size="14.00">Copied</text>
</g>
<!-- medicare.ip.admsn_type_cd_parent -->
<g id="node3" class="node">
<title>medicare.ip.admsn_type_cd_parent</title>
<g id="a_node3"><a xlink:href="../medicare.ip/admsn_type_cd.html" xlink:title="8 incoming links (columns)" target="_blank">
<path fill="yellow" stroke="black" d="M229,-244.18C229,-249.6 180.59,-254 121,-254 61.41,-254 13,-249.6 13,-244.18 13,-244.18 13,-155.82 13,-155.82 13,-150.4 61.41,-146 121,-146 180.59,-146 229,-150.4 229,-155.82 229,-155.82 229,-244.18 229,-244.18"/>
<path fill="none" stroke="black" d="M229,-244.18C229,-238.76 180.59,-234.36 121,-234.36 61.41,-234.36 13,-238.76 13,-244.18"/>
<text text-anchor="middle" x="121" y="-194.95" font-family="Times,serif" font-size="14.00">8 incoming links (columns)</text>
</a>
</g>
</g>
<!-- medicare.ip.admsn_type_cd_parent&#45;&gt;medicare.ip.admsn_type_cd -->
<g id="edge2" class="edge">
<title>medicare.ip.admsn_type_cd_parent&#45;&gt;medicare.ip.admsn_type_cd</title>
<path fill="none" stroke="goldenrod" stroke-width="6" d="M121,-145.5C121,-138.71 121,-131.92 121,-125.57"/>
<polygon fill="goldenrod" stroke="goldenrod" stroke-width="6" points="126.25,-125.65 121,-115.65 115.75,-125.65 126.25,-125.65"/>
</g>
</g>
</svg>
