<?xml version="1.0" encoding="UTF-8" standalone="no"?>
<!DOCTYPE svg PUBLIC "-//W3C//DTD SVG 1.1//EN"
 "http://www.w3.org/Graphics/SVG/1.1/DTD/svg11.dtd">
<!-- Generated by graphviz version 10.0.1 (20240210.2158)
 -->
<!-- Pages: 1 -->
<svg width="371pt" height="717pt"
 viewBox="0.00 0.00 371.00 717.00" xmlns="http://www.w3.org/2000/svg" xmlns:xlink="http://www.w3.org/1999/xlink">
<g id="graph0" class="graph" transform="scale(1 1) rotate(0) translate(4 713)">
<polygon fill="white" stroke="none" points="-4,4 -4,-713 367,-713 367,4 -4,4"/>
<!-- medicare.qc_enrl_bene.age -->
<g id="node1" class="node">
<title>medicare.qc_enrl_bene.age</title>
<g id="a_node1"><a xlink:href="../medicare.qc_enrl_bene/age.html" xlink:title="&lt;TABLE&gt;" target="_blank">
<polygon fill="none" stroke="black" points="226.38,-59 42.12,-59 42.12,0 226.38,0 226.38,-59"/>
<text text-anchor="start" x="55.12" y="-37.7" font-family="Times,serif" font-weight="bold" font-size="14.00">medicare.qc_enrl_bene.age</text>
<polygon fill="none" stroke="black" points="53.12,-7 53.12,-29.5 215.38,-29.5 215.38,-7 53.12,-7"/>
<text text-anchor="start" x="56.12" y="-13.2" font-family="Times,serif" font-size="14.00">MAX(age)</text>
<polygon fill="none" stroke="black" points="50.12,-4 50.12,-55 218.38,-55 218.38,-4 50.12,-4"/>
</a>
</g>
</g>
<!-- medicare.enrollments.age -->
<g id="node2" class="node">
<title>medicare.enrollments.age</title>
<g id="a_node2"><a xlink:href="../medicare.enrollments/age.html" xlink:title="&lt;TABLE&gt;" target="_blank">
<polygon fill="none" stroke="black" points="222.25,-155 46.25,-155 46.25,-96 222.25,-96 222.25,-155"/>
<text text-anchor="start" x="59.25" y="-133.7" font-family="Times,serif" font-weight="bold" font-size="14.00">medicare.enrollments.age</text>
<polygon fill="none" stroke="black" points="57.25,-103 57.25,-125.5 211.25,-125.5 211.25,-103 57.25,-103"/>
<text text-anchor="start" x="60.25" y="-109.2" font-family="Times,serif" font-size="14.00">MAX(age)</text>
<polygon fill="none" stroke="black" points="54.25,-100 54.25,-151 214.25,-151 214.25,-100 54.25,-100"/>
</a>
</g>
</g>
<!-- medicare.enrollments.age&#45;&gt;medicare.qc_enrl_bene.age -->
<g id="edge1" class="edge">
<title>medicare.enrollments.age&#45;&gt;medicare.qc_enrl_bene.age</title>
<path fill="none" stroke="black" d="M134.25,-95.53C134.25,-87.68 134.25,-79.05 134.25,-70.7"/>
<polygon fill="black" stroke="black" points="137.75,-70.73 134.25,-60.73 130.75,-70.73 137.75,-70.73"/>
<text text-anchor="middle" x="180.38" y="-72.45" font-family="Times,serif" font-size="14.00">	join natural</text>
</g>
<!-- medicare._enrollments.age -->
<g id="node3" class="node">
<title>medicare._enrollments.age</title>
<g id="a_node3"><a xlink:href="../medicare._enrollments/age.html" xlink:title="&lt;TABLE&gt;" target="_blank">
<polygon fill="none" stroke="black" points="225.62,-251 42.88,-251 42.88,-192 225.62,-192 225.62,-251"/>
<text text-anchor="start" x="55.88" y="-229.7" font-family="Times,serif" font-weight="bold" font-size="14.00">medicare._enrollments.age</text>
<polygon fill="none" stroke="black" points="53.88,-199 53.88,-221.5 214.62,-221.5 214.62,-199 53.88,-199"/>
<text text-anchor="start" x="56.88" y="-205.2" font-family="Times,serif" font-size="14.00">MAX(age)</text>
<polygon fill="none" stroke="black" points="50.88,-196 50.88,-247 217.62,-247 217.62,-196 50.88,-196"/>
</a>
</g>
</g>
<!-- medicare._enrollments.age&#45;&gt;medicare.enrollments.age -->
<g id="edge2" class="edge">
<title>medicare._enrollments.age&#45;&gt;medicare.enrollments.age</title>
<path fill="none" stroke="black" d="M134.25,-191.53C134.25,-183.68 134.25,-175.05 134.25,-166.7"/>
<polygon fill="black" stroke="black" points="137.75,-166.73 134.25,-156.73 130.75,-166.73 137.75,-166.73"/>
<text text-anchor="middle" x="153.75" y="-168.45" font-family="Times,serif" font-size="14.00">Copied</text>
</g>
<!-- medicare._ps.age -->
<g id="node4" class="node">
<title>medicare._ps.age</title>
<g id="a_node4"><a xlink:href="../medicare._ps/age.html" xlink:title="&lt;TABLE&gt;" target="_blank">
<polygon fill="none" stroke="black" points="268.5,-407.5 0,-407.5 0,-288 268.5,-288 268.5,-407.5"/>
<text text-anchor="start" x="84" y="-386.2" font-family="Times,serif" font-weight="bold" font-size="14.00">medicare._ps.age</text>
<text text-anchor="start" x="36" y="-339.7" font-family="Times,serif" font-size="14.00">Age on January 1 of a given year, if</text>
<text text-anchor="start" x="110.25" y="-323.2" font-family="Times,serif" font-size="14.00">provided</text>
<polygon fill="none" stroke="black" points="8,-292 8,-403.5 260.5,-403.5 260.5,-292 8,-292"/>
</a>
</g>
</g>
<!-- medicare._ps.age&#45;&gt;medicare._enrollments.age -->
<g id="edge3" class="edge">
<title>medicare._ps.age&#45;&gt;medicare._enrollments.age</title>
<path fill="none" stroke="blue" stroke-width="5" d="M134.25,-287.54C134.25,-280.73 134.25,-273.88 134.25,-267.31"/>
<polygon fill="blue" stroke="blue" stroke-width="5" points="138.63,-267.51 134.25,-257.51 129.88,-267.51 138.63,-267.51"/>
<text text-anchor="middle" x="248.62" y="-264.45" font-family="Times,serif" font-size="14.00">	 &#160;Aggregated On bene_id, year, state</text>
</g>
<!-- medicare.ps.age -->
<g id="node5" class="node">
<title>medicare.ps.age</title>
<g id="a_node5"><a xlink:href="../medicare.ps/age.html" xlink:title="&lt;TABLE&gt;" target="_blank">
<polygon fill="none" stroke="black" points="268.5,-564 0,-564 0,-444.5 268.5,-444.5 268.5,-564"/>
<text text-anchor="start" x="87.38" y="-542.7" font-family="Times,serif" font-weight="bold" font-size="14.00">medicare.ps.age</text>
<text text-anchor="start" x="36" y="-496.2" font-family="Times,serif" font-size="14.00">Age on January 1 of a given year, if</text>
<text text-anchor="start" x="110.25" y="-479.7" font-family="Times,serif" font-size="14.00">provided</text>
<polygon fill="none" stroke="black" points="8,-448.5 8,-560 260.5,-560 260.5,-448.5 8,-448.5"/>
</a>
</g>
</g>
<!-- medicare.ps.age&#45;&gt;medicare._ps.age -->
<g id="edge4" class="edge">
<title>medicare.ps.age&#45;&gt;medicare._ps.age</title>
<path fill="none" stroke="black" d="M134.25,-444.4C134.25,-436.19 134.25,-427.69 134.25,-419.29"/>
<polygon fill="black" stroke="black" points="137.75,-419.46 134.25,-409.46 130.75,-419.46 137.75,-419.46"/>
<text text-anchor="middle" x="153.75" y="-420.95" font-family="Times,serif" font-size="14.00">Copied</text>
</g>
<!-- medicare.ps.age_parent -->
<g id="node6" class="node">
<title>medicare.ps.age_parent</title>
<g id="a_node6"><a xlink:href="../medicare.ps/age.html" xlink:title="8 incoming links (columns)" target="_blank">
<path fill="yellow" stroke="black" d="M242.25,-699.18C242.25,-704.6 193.84,-709 134.25,-709 74.66,-709 26.25,-704.6 26.25,-699.18 26.25,-699.18 26.25,-610.82 26.25,-610.82 26.25,-605.4 74.66,-601 134.25,-601 193.84,-601 242.25,-605.4 242.25,-610.82 242.25,-610.82 242.25,-699.18 242.25,-699.18"/>
<path fill="none" stroke="black" d="M242.25,-699.18C242.25,-693.76 193.84,-689.36 134.25,-689.36 74.66,-689.36 26.25,-693.76 26.25,-699.18"/>
<text text-anchor="middle" x="134.25" y="-649.95" font-family="Times,serif" font-size="14.00">8 incoming links (columns)</text>
</a>
</g>
</g>
<!-- medicare.ps.age_parent&#45;&gt;medicare.ps.age -->
<g id="edge5" class="edge">
<title>medicare.ps.age_parent&#45;&gt;medicare.ps.age</title>
<path fill="none" stroke="goldenrod" stroke-width="6" d="M134.25,-600.72C134.25,-594.2 134.25,-587.44 134.25,-580.68"/>
<polygon fill="goldenrod" stroke="goldenrod" stroke-width="6" points="139.5,-580.92 134.25,-570.92 129,-580.92 139.5,-580.92"/>
</g>
</g>
</svg>
