<?xml version="1.0" encoding="UTF-8" standalone="no"?>
<!DOCTYPE svg PUBLIC "-//W3C//DTD SVG 1.1//EN"
 "http://www.w3.org/Graphics/SVG/1.1/DTD/svg11.dtd">
<!-- Generated by graphviz version 10.0.1 (20240210.2158)
 -->
<!-- Pages: 1 -->
<svg width="371pt" height="594pt"
 viewBox="0.00 0.00 371.00 593.50" xmlns="http://www.w3.org/2000/svg" xmlns:xlink="http://www.w3.org/1999/xlink">
<g id="graph0" class="graph" transform="scale(1 1) rotate(0) translate(4 589.5)">
<polygon fill="white" stroke="none" points="-4,4 -4,-589.5 367,-589.5 367,4 -4,4"/>
<!-- medicare._enrollments.age -->
<g id="node1" class="node">
<title>medicare._enrollments.age</title>
<g id="a_node1"><a xlink:href="../medicare._enrollments/age.html" xlink:title="&lt;TABLE&gt;" target="_blank">
<polygon fill="none" stroke="black" points="252,-127.5 16.5,-127.5 16.5,0 252,0 252,-127.5"/>
<text text-anchor="start" x="55.88" y="-106.2" font-family="Times,serif" font-weight="bold" font-size="14.00">medicare._enrollments.age</text>
<text text-anchor="start" x="52.5" y="-59.7" font-family="Times,serif" font-size="14.00">Age at End of Reference Year</text>
<polygon fill="none" stroke="black" points="27.5,-7 27.5,-29.5 241,-29.5 241,-7 27.5,-7"/>
<text text-anchor="start" x="30.5" y="-13.2" font-family="Times,serif" font-size="14.00">MAX(age)</text>
<polygon fill="none" stroke="black" points="24.5,-4 24.5,-123.5 244,-123.5 244,-4 24.5,-4"/>
</a>
</g>
</g>
<!-- medicare._ps.age -->
<g id="node2" class="node">
<title>medicare._ps.age</title>
<g id="a_node2"><a xlink:href="../medicare._ps/age.html" xlink:title="&lt;TABLE&gt;" target="_blank">
<polygon fill="none" stroke="black" points="268.5,-284 0,-284 0,-164.5 268.5,-164.5 268.5,-284"/>
<text text-anchor="start" x="84" y="-262.7" font-family="Times,serif" font-weight="bold" font-size="14.00">medicare._ps.age</text>
<text text-anchor="start" x="36" y="-216.2" font-family="Times,serif" font-size="14.00">Age on January 1 of a given year, if</text>
<text text-anchor="start" x="110.25" y="-199.7" font-family="Times,serif" font-size="14.00">provided</text>
<polygon fill="none" stroke="black" points="8,-168.5 8,-280 260.5,-280 260.5,-168.5 8,-168.5"/>
</a>
</g>
</g>
<!-- medicare._ps.age&#45;&gt;medicare._enrollments.age -->
<g id="edge1" class="edge">
<title>medicare._ps.age&#45;&gt;medicare._enrollments.age</title>
<path fill="none" stroke="blue" stroke-width="5" d="M134.25,-164.23C134.25,-157.55 134.25,-150.66 134.25,-143.77"/>
<polygon fill="blue" stroke="blue" stroke-width="5" points="138.63,-144.04 134.25,-134.04 129.88,-144.04 138.63,-144.04"/>
<text text-anchor="middle" x="248.62" y="-140.95" font-family="Times,serif" font-size="14.00">	 &#160;Aggregated On bene_id, year, state</text>
</g>
<!-- medicare.ps.age -->
<g id="node3" class="node">
<title>medicare.ps.age</title>
<g id="a_node3"><a xlink:href="../medicare.ps/age.html" xlink:title="&lt;TABLE&gt;" target="_blank">
<polygon fill="none" stroke="black" points="268.5,-440.5 0,-440.5 0,-321 268.5,-321 268.5,-440.5"/>
<text text-anchor="start" x="87.38" y="-419.2" font-family="Times,serif" font-weight="bold" font-size="14.00">medicare.ps.age</text>
<text text-anchor="start" x="36" y="-372.7" font-family="Times,serif" font-size="14.00">Age on January 1 of a given year, if</text>
<text text-anchor="start" x="110.25" y="-356.2" font-family="Times,serif" font-size="14.00">provided</text>
<polygon fill="none" stroke="black" points="8,-325 8,-436.5 260.5,-436.5 260.5,-325 8,-325"/>
</a>
</g>
</g>
<!-- medicare.ps.age&#45;&gt;medicare._ps.age -->
<g id="edge2" class="edge">
<title>medicare.ps.age&#45;&gt;medicare._ps.age</title>
<path fill="none" stroke="black" d="M134.25,-320.9C134.25,-312.69 134.25,-304.19 134.25,-295.79"/>
<polygon fill="black" stroke="black" points="137.75,-295.96 134.25,-285.96 130.75,-295.96 137.75,-295.96"/>
<text text-anchor="middle" x="153.75" y="-297.45" font-family="Times,serif" font-size="14.00">Copied</text>
</g>
<!-- medicare.ps.age_parent -->
<g id="node4" class="node">
<title>medicare.ps.age_parent</title>
<g id="a_node4"><a xlink:href="../medicare.ps/age.html" xlink:title="8 incoming links (columns)" target="_blank">
<path fill="yellow" stroke="black" d="M242.25,-575.68C242.25,-581.1 193.84,-585.5 134.25,-585.5 74.66,-585.5 26.25,-581.1 26.25,-575.68 26.25,-575.68 26.25,-487.32 26.25,-487.32 26.25,-481.9 74.66,-477.5 134.25,-477.5 193.84,-477.5 242.25,-481.9 242.25,-487.32 242.25,-487.32 242.25,-575.68 242.25,-575.68"/>
<path fill="none" stroke="black" d="M242.25,-575.68C242.25,-570.26 193.84,-565.86 134.25,-565.86 74.66,-565.86 26.25,-570.26 26.25,-575.68"/>
<text text-anchor="middle" x="134.25" y="-526.45" font-family="Times,serif" font-size="14.00">8 incoming links (columns)</text>
</a>
</g>
</g>
<!-- medicare.ps.age_parent&#45;&gt;medicare.ps.age -->
<g id="edge3" class="edge">
<title>medicare.ps.age_parent&#45;&gt;medicare.ps.age</title>
<path fill="none" stroke="goldenrod" stroke-width="6" d="M134.25,-477.22C134.25,-470.7 134.25,-463.94 134.25,-457.18"/>
<polygon fill="goldenrod" stroke="goldenrod" stroke-width="6" points="139.5,-457.42 134.25,-447.42 129,-457.42 139.5,-457.42"/>
</g>
</g>
</svg>
