<?xml version="1.0" encoding="UTF-8" standalone="no"?>
<!DOCTYPE svg PUBLIC "-//W3C//DTD SVG 1.1//EN"
 "http://www.w3.org/Graphics/SVG/1.1/DTD/svg11.dtd">
<!-- Generated by graphviz version 10.0.1 (20240210.2158)
 -->
<!-- Pages: 1 -->
<svg width="371pt" height="758pt"
 viewBox="0.00 0.00 371.00 758.00" xmlns="http://www.w3.org/2000/svg" xmlns:xlink="http://www.w3.org/1999/xlink">
<g id="graph0" class="graph" transform="scale(1 1) rotate(0) translate(4 754)">
<polygon fill="white" stroke="none" points="-4,4 -4,-754 367,-754 367,4 -4,4"/>
<!-- medicare.enrollments.age -->
<g id="node1" class="node">
<title>medicare.enrollments.age</title>
<g id="a_node1"><a xlink:href="../medicare.enrollments/age.html" xlink:title="&lt;TABLE&gt;" target="_blank">
<polygon fill="none" stroke="black" points="252,-127.5 16.5,-127.5 16.5,0 252,0 252,-127.5"/>
<text text-anchor="start" x="59.25" y="-106.2" font-family="Times,serif" font-weight="bold" font-size="14.00">medicare.enrollments.age</text>
<text text-anchor="start" x="52.5" y="-59.7" font-family="Times,serif" font-size="14.00">Age at End of Reference Year</text>
<polygon fill="none" stroke="black" points="27.5,-7 27.5,-29.5 241,-29.5 241,-7 27.5,-7"/>
<text text-anchor="start" x="30.5" y="-13.2" font-family="Times,serif" font-size="14.00">MAX(age)</text>
<polygon fill="none" stroke="black" points="24.5,-4 24.5,-123.5 244,-123.5 244,-4 24.5,-4"/>
</a>
</g>
</g>
<!-- medicare._enrollments.age -->
<g id="node2" class="node">
<title>medicare._enrollments.age</title>
<g id="a_node2"><a xlink:href="../medicare._enrollments/age.html" xlink:title="&lt;TABLE&gt;" target="_blank">
<polygon fill="none" stroke="black" points="252,-292 16.5,-292 16.5,-164.5 252,-164.5 252,-292"/>
<text text-anchor="start" x="55.88" y="-270.7" font-family="Times,serif" font-weight="bold" font-size="14.00">medicare._enrollments.age</text>
<text text-anchor="start" x="52.5" y="-224.2" font-family="Times,serif" font-size="14.00">Age at End of Reference Year</text>
<polygon fill="none" stroke="black" points="27.5,-171.5 27.5,-194 241,-194 241,-171.5 27.5,-171.5"/>
<text text-anchor="start" x="30.5" y="-177.7" font-family="Times,serif" font-size="14.00">MAX(age)</text>
<polygon fill="none" stroke="black" points="24.5,-168.5 24.5,-288 244,-288 244,-168.5 24.5,-168.5"/>
</a>
</g>
</g>
<!-- medicare._enrollments.age&#45;&gt;medicare.enrollments.age -->
<g id="edge1" class="edge">
<title>medicare._enrollments.age&#45;&gt;medicare.enrollments.age</title>
<path fill="none" stroke="black" d="M134.25,-164.42C134.25,-156.2 134.25,-147.7 134.25,-139.3"/>
<polygon fill="black" stroke="black" points="137.75,-139.46 134.25,-129.46 130.75,-139.46 137.75,-139.46"/>
<text text-anchor="middle" x="153.75" y="-140.95" font-family="Times,serif" font-size="14.00">Copied</text>
</g>
<!-- medicare._ps.age -->
<g id="node3" class="node">
<title>medicare._ps.age</title>
<g id="a_node3"><a xlink:href="../medicare._ps/age.html" xlink:title="&lt;TABLE&gt;" target="_blank">
<polygon fill="none" stroke="black" points="268.5,-448.5 0,-448.5 0,-329 268.5,-329 268.5,-448.5"/>
<text text-anchor="start" x="84" y="-427.2" font-family="Times,serif" font-weight="bold" font-size="14.00">medicare._ps.age</text>
<text text-anchor="start" x="36" y="-380.7" font-family="Times,serif" font-size="14.00">Age on January 1 of a given year, if</text>
<text text-anchor="start" x="110.25" y="-364.2" font-family="Times,serif" font-size="14.00">provided</text>
<polygon fill="none" stroke="black" points="8,-333 8,-444.5 260.5,-444.5 260.5,-333 8,-333"/>
</a>
</g>
</g>
<!-- medicare._ps.age&#45;&gt;medicare._enrollments.age -->
<g id="edge2" class="edge">
<title>medicare._ps.age&#45;&gt;medicare._enrollments.age</title>
<path fill="none" stroke="blue" stroke-width="5" d="M134.25,-328.73C134.25,-322.05 134.25,-315.16 134.25,-308.27"/>
<polygon fill="blue" stroke="blue" stroke-width="5" points="138.63,-308.54 134.25,-298.54 129.88,-308.54 138.63,-308.54"/>
<text text-anchor="middle" x="248.62" y="-305.45" font-family="Times,serif" font-size="14.00">	 &#160;Aggregated On bene_id, year, state</text>
</g>
<!-- medicare.ps.age -->
<g id="node4" class="node">
<title>medicare.ps.age</title>
<g id="a_node4"><a xlink:href="../medicare.ps/age.html" xlink:title="&lt;TABLE&gt;" target="_blank">
<polygon fill="none" stroke="black" points="268.5,-605 0,-605 0,-485.5 268.5,-485.5 268.5,-605"/>
<text text-anchor="start" x="87.38" y="-583.7" font-family="Times,serif" font-weight="bold" font-size="14.00">medicare.ps.age</text>
<text text-anchor="start" x="36" y="-537.2" font-family="Times,serif" font-size="14.00">Age on January 1 of a given year, if</text>
<text text-anchor="start" x="110.25" y="-520.7" font-family="Times,serif" font-size="14.00">provided</text>
<polygon fill="none" stroke="black" points="8,-489.5 8,-601 260.5,-601 260.5,-489.5 8,-489.5"/>
</a>
</g>
</g>
<!-- medicare.ps.age&#45;&gt;medicare._ps.age -->
<g id="edge3" class="edge">
<title>medicare.ps.age&#45;&gt;medicare._ps.age</title>
<path fill="none" stroke="black" d="M134.25,-485.4C134.25,-477.19 134.25,-468.69 134.25,-460.29"/>
<polygon fill="black" stroke="black" points="137.75,-460.46 134.25,-450.46 130.75,-460.46 137.75,-460.46"/>
<text text-anchor="middle" x="153.75" y="-461.95" font-family="Times,serif" font-size="14.00">Copied</text>
</g>
<!-- medicare.ps.age_parent -->
<g id="node5" class="node">
<title>medicare.ps.age_parent</title>
<g id="a_node5"><a xlink:href="../medicare.ps/age.html" xlink:title="8 incoming links (columns)" target="_blank">
<path fill="yellow" stroke="black" d="M242.25,-740.18C242.25,-745.6 193.84,-750 134.25,-750 74.66,-750 26.25,-745.6 26.25,-740.18 26.25,-740.18 26.25,-651.82 26.25,-651.82 26.25,-646.4 74.66,-642 134.25,-642 193.84,-642 242.25,-646.4 242.25,-651.82 242.25,-651.82 242.25,-740.18 242.25,-740.18"/>
<path fill="none" stroke="black" d="M242.25,-740.18C242.25,-734.76 193.84,-730.36 134.25,-730.36 74.66,-730.36 26.25,-734.76 26.25,-740.18"/>
<text text-anchor="middle" x="134.25" y="-690.95" font-family="Times,serif" font-size="14.00">8 incoming links (columns)</text>
</a>
</g>
</g>
<!-- medicare.ps.age_parent&#45;&gt;medicare.ps.age -->
<g id="edge4" class="edge">
<title>medicare.ps.age_parent&#45;&gt;medicare.ps.age</title>
<path fill="none" stroke="goldenrod" stroke-width="6" d="M134.25,-641.72C134.25,-635.2 134.25,-628.44 134.25,-621.68"/>
<polygon fill="goldenrod" stroke="goldenrod" stroke-width="6" points="139.5,-621.92 134.25,-611.92 129,-621.92 139.5,-621.92"/>
</g>
</g>
</svg>
