<?xml version="1.0" encoding="UTF-8" standalone="no"?>
<!DOCTYPE svg PUBLIC "-//W3C//DTD SVG 1.1//EN"
 "http://www.w3.org/Graphics/SVG/1.1/DTD/svg11.dtd">
<!-- Generated by graphviz version 10.0.1 (20240210.2158)
 -->
<!-- Pages: 1 -->
<svg width="371pt" height="621pt"
 viewBox="0.00 0.00 371.00 621.00" xmlns="http://www.w3.org/2000/svg" xmlns:xlink="http://www.w3.org/1999/xlink">
<g id="graph0" class="graph" transform="scale(1 1) rotate(0) translate(4 617)">
<polygon fill="white" stroke="none" points="-4,4 -4,-617 367,-617 367,4 -4,4"/>
<!-- medicare.enrollments.age -->
<g id="node1" class="node">
<title>medicare.enrollments.age</title>
<g id="a_node1"><a xlink:href="../medicare.enrollments/age.html" xlink:title="&lt;TABLE&gt;" target="_blank">
<polygon fill="none" stroke="black" points="222.25,-59 46.25,-59 46.25,0 222.25,0 222.25,-59"/>
<text text-anchor="start" x="59.25" y="-37.7" font-family="Times,serif" font-weight="bold" font-size="14.00">medicare.enrollments.age</text>
<polygon fill="none" stroke="black" points="57.25,-7 57.25,-29.5 211.25,-29.5 211.25,-7 57.25,-7"/>
<text text-anchor="start" x="60.25" y="-13.2" font-family="Times,serif" font-size="14.00">MAX(age)</text>
<polygon fill="none" stroke="black" points="54.25,-4 54.25,-55 214.25,-55 214.25,-4 54.25,-4"/>
</a>
</g>
</g>
<!-- medicare._enrollments.age -->
<g id="node2" class="node">
<title>medicare._enrollments.age</title>
<g id="a_node2"><a xlink:href="../medicare._enrollments/age.html" xlink:title="&lt;TABLE&gt;" target="_blank">
<polygon fill="none" stroke="black" points="225.62,-155 42.88,-155 42.88,-96 225.62,-96 225.62,-155"/>
<text text-anchor="start" x="55.88" y="-133.7" font-family="Times,serif" font-weight="bold" font-size="14.00">medicare._enrollments.age</text>
<polygon fill="none" stroke="black" points="53.88,-103 53.88,-125.5 214.62,-125.5 214.62,-103 53.88,-103"/>
<text text-anchor="start" x="56.88" y="-109.2" font-family="Times,serif" font-size="14.00">MAX(age)</text>
<polygon fill="none" stroke="black" points="50.88,-100 50.88,-151 217.62,-151 217.62,-100 50.88,-100"/>
</a>
</g>
</g>
<!-- medicare._enrollments.age&#45;&gt;medicare.enrollments.age -->
<g id="edge1" class="edge">
<title>medicare._enrollments.age&#45;&gt;medicare.enrollments.age</title>
<path fill="none" stroke="black" d="M134.25,-95.53C134.25,-87.68 134.25,-79.05 134.25,-70.7"/>
<polygon fill="black" stroke="black" points="137.75,-70.73 134.25,-60.73 130.75,-70.73 137.75,-70.73"/>
<text text-anchor="middle" x="153.75" y="-72.45" font-family="Times,serif" font-size="14.00">Copied</text>
</g>
<!-- medicare._ps.age -->
<g id="node3" class="node">
<title>medicare._ps.age</title>
<g id="a_node3"><a xlink:href="../medicare._ps/age.html" xlink:title="&lt;TABLE&gt;" target="_blank">
<polygon fill="none" stroke="black" points="268.5,-311.5 0,-311.5 0,-192 268.5,-192 268.5,-311.5"/>
<text text-anchor="start" x="84" y="-290.2" font-family="Times,serif" font-weight="bold" font-size="14.00">medicare._ps.age</text>
<text text-anchor="start" x="36" y="-243.7" font-family="Times,serif" font-size="14.00">Age on January 1 of a given year, if</text>
<text text-anchor="start" x="110.25" y="-227.2" font-family="Times,serif" font-size="14.00">provided</text>
<polygon fill="none" stroke="black" points="8,-196 8,-307.5 260.5,-307.5 260.5,-196 8,-196"/>
</a>
</g>
</g>
<!-- medicare._ps.age&#45;&gt;medicare._enrollments.age -->
<g id="edge2" class="edge">
<title>medicare._ps.age&#45;&gt;medicare._enrollments.age</title>
<path fill="none" stroke="blue" stroke-width="5" d="M134.25,-191.54C134.25,-184.73 134.25,-177.88 134.25,-171.31"/>
<polygon fill="blue" stroke="blue" stroke-width="5" points="138.63,-171.51 134.25,-161.51 129.88,-171.51 138.63,-171.51"/>
<text text-anchor="middle" x="248.62" y="-168.45" font-family="Times,serif" font-size="14.00">	 &#160;Aggregated On bene_id, year, state</text>
</g>
<!-- medicare.ps.age -->
<g id="node4" class="node">
<title>medicare.ps.age</title>
<g id="a_node4"><a xlink:href="../medicare.ps/age.html" xlink:title="&lt;TABLE&gt;" target="_blank">
<polygon fill="none" stroke="black" points="268.5,-468 0,-468 0,-348.5 268.5,-348.5 268.5,-468"/>
<text text-anchor="start" x="87.38" y="-446.7" font-family="Times,serif" font-weight="bold" font-size="14.00">medicare.ps.age</text>
<text text-anchor="start" x="36" y="-400.2" font-family="Times,serif" font-size="14.00">Age on January 1 of a given year, if</text>
<text text-anchor="start" x="110.25" y="-383.7" font-family="Times,serif" font-size="14.00">provided</text>
<polygon fill="none" stroke="black" points="8,-352.5 8,-464 260.5,-464 260.5,-352.5 8,-352.5"/>
</a>
</g>
</g>
<!-- medicare.ps.age&#45;&gt;medicare._ps.age -->
<g id="edge3" class="edge">
<title>medicare.ps.age&#45;&gt;medicare._ps.age</title>
<path fill="none" stroke="black" d="M134.25,-348.4C134.25,-340.19 134.25,-331.69 134.25,-323.29"/>
<polygon fill="black" stroke="black" points="137.75,-323.46 134.25,-313.46 130.75,-323.46 137.75,-323.46"/>
<text text-anchor="middle" x="153.75" y="-324.95" font-family="Times,serif" font-size="14.00">Copied</text>
</g>
<!-- medicare.ps.age_parent -->
<g id="node5" class="node">
<title>medicare.ps.age_parent</title>
<g id="a_node5"><a xlink:href="../medicare.ps/age.html" xlink:title="8 incoming links (columns)" target="_blank">
<path fill="yellow" stroke="black" d="M242.25,-603.18C242.25,-608.6 193.84,-613 134.25,-613 74.66,-613 26.25,-608.6 26.25,-603.18 26.25,-603.18 26.25,-514.82 26.25,-514.82 26.25,-509.4 74.66,-505 134.25,-505 193.84,-505 242.25,-509.4 242.25,-514.82 242.25,-514.82 242.25,-603.18 242.25,-603.18"/>
<path fill="none" stroke="black" d="M242.25,-603.18C242.25,-597.76 193.84,-593.36 134.25,-593.36 74.66,-593.36 26.25,-597.76 26.25,-603.18"/>
<text text-anchor="middle" x="134.25" y="-553.95" font-family="Times,serif" font-size="14.00">8 incoming links (columns)</text>
</a>
</g>
</g>
<!-- medicare.ps.age_parent&#45;&gt;medicare.ps.age -->
<g id="edge4" class="edge">
<title>medicare.ps.age_parent&#45;&gt;medicare.ps.age</title>
<path fill="none" stroke="goldenrod" stroke-width="6" d="M134.25,-504.72C134.25,-498.2 134.25,-491.44 134.25,-484.68"/>
<polygon fill="goldenrod" stroke="goldenrod" stroke-width="6" points="139.5,-484.92 134.25,-474.92 129,-484.92 139.5,-484.92"/>
</g>
</g>
</svg>
