<?xml version="1.0" encoding="UTF-8" standalone="no"?>
<!DOCTYPE svg PUBLIC "-//W3C//DTD SVG 1.1//EN"
 "http://www.w3.org/Graphics/SVG/1.1/DTD/svg11.dtd">
<!-- Generated by graphviz version 10.0.1 (20240210.2158)
 -->
<!-- Pages: 1 -->
<svg width="277pt" height="429pt"
 viewBox="0.00 0.00 276.50 429.00" xmlns="http://www.w3.org/2000/svg" xmlns:xlink="http://www.w3.org/1999/xlink">
<g id="graph0" class="graph" transform="scale(1 1) rotate(0) translate(4 425)">
<polygon fill="white" stroke="none" points="-4,4 -4,-425 272.5,-425 272.5,4 -4,4"/>
<!-- medicare._ps.age -->
<g id="node1" class="node">
<title>medicare._ps.age</title>
<g id="a_node1"><a xlink:href="../medicare._ps/age.html" xlink:title="&lt;TABLE&gt;" target="_blank">
<polygon fill="none" stroke="black" points="268.5,-119.5 0,-119.5 0,0 268.5,0 268.5,-119.5"/>
<text text-anchor="start" x="84" y="-98.2" font-family="Times,serif" font-weight="bold" font-size="14.00">medicare._ps.age</text>
<text text-anchor="start" x="36" y="-51.7" font-family="Times,serif" font-size="14.00">Age on January 1 of a given year, if</text>
<text text-anchor="start" x="110.25" y="-35.2" font-family="Times,serif" font-size="14.00">provided</text>
<polygon fill="none" stroke="black" points="8,-4 8,-115.5 260.5,-115.5 260.5,-4 8,-4"/>
</a>
</g>
</g>
<!-- medicare.ps.age -->
<g id="node2" class="node">
<title>medicare.ps.age</title>
<g id="a_node2"><a xlink:href="../medicare.ps/age.html" xlink:title="&lt;TABLE&gt;" target="_blank">
<polygon fill="none" stroke="black" points="268.5,-276 0,-276 0,-156.5 268.5,-156.5 268.5,-276"/>
<text text-anchor="start" x="87.38" y="-254.7" font-family="Times,serif" font-weight="bold" font-size="14.00">medicare.ps.age</text>
<text text-anchor="start" x="36" y="-208.2" font-family="Times,serif" font-size="14.00">Age on January 1 of a given year, if</text>
<text text-anchor="start" x="110.25" y="-191.7" font-family="Times,serif" font-size="14.00">provided</text>
<polygon fill="none" stroke="black" points="8,-160.5 8,-272 260.5,-272 260.5,-160.5 8,-160.5"/>
</a>
</g>
</g>
<!-- medicare.ps.age&#45;&gt;medicare._ps.age -->
<g id="edge1" class="edge">
<title>medicare.ps.age&#45;&gt;medicare._ps.age</title>
<path fill="none" stroke="black" d="M134.25,-156.4C134.25,-148.19 134.25,-139.69 134.25,-131.29"/>
<polygon fill="black" stroke="black" points="137.75,-131.46 134.25,-121.46 130.75,-131.46 137.75,-131.46"/>
<text text-anchor="middle" x="153.75" y="-132.95" font-family="Times,serif" font-size="14.00">Copied</text>
</g>
<!-- medicare.ps.age_parent -->
<g id="node3" class="node">
<title>medicare.ps.age_parent</title>
<g id="a_node3"><a xlink:href="../medicare.ps/age.html" xlink:title="8 incoming links (columns)" target="_blank">
<path fill="yellow" stroke="black" d="M242.25,-411.18C242.25,-416.6 193.84,-421 134.25,-421 74.66,-421 26.25,-416.6 26.25,-411.18 26.25,-411.18 26.25,-322.82 26.25,-322.82 26.25,-317.4 74.66,-313 134.25,-313 193.84,-313 242.25,-317.4 242.25,-322.82 242.25,-322.82 242.25,-411.18 242.25,-411.18"/>
<path fill="none" stroke="black" d="M242.25,-411.18C242.25,-405.76 193.84,-401.36 134.25,-401.36 74.66,-401.36 26.25,-405.76 26.25,-411.18"/>
<text text-anchor="middle" x="134.25" y="-361.95" font-family="Times,serif" font-size="14.00">8 incoming links (columns)</text>
</a>
</g>
</g>
<!-- medicare.ps.age_parent&#45;&gt;medicare.ps.age -->
<g id="edge2" class="edge">
<title>medicare.ps.age_parent&#45;&gt;medicare.ps.age</title>
<path fill="none" stroke="goldenrod" stroke-width="6" d="M134.25,-312.72C134.25,-306.2 134.25,-299.44 134.25,-292.68"/>
<polygon fill="goldenrod" stroke="goldenrod" stroke-width="6" points="139.5,-292.92 134.25,-282.92 129,-292.92 139.5,-292.92"/>
</g>
</g>
</svg>
