<?xml version="1.0" encoding="UTF-8" standalone="no"?>
<!DOCTYPE svg PUBLIC "-//W3C//DTD SVG 1.1//EN"
 "http://www.w3.org/Graphics/SVG/1.1/DTD/svg11.dtd">
<!-- Generated by graphviz version 10.0.1 (20240210.2158)
 -->
<!-- Pages: 1 -->
<svg width="371pt" height="525pt"
 viewBox="0.00 0.00 371.00 525.00" xmlns="http://www.w3.org/2000/svg" xmlns:xlink="http://www.w3.org/1999/xlink">
<g id="graph0" class="graph" transform="scale(1 1) rotate(0) translate(4 521)">
<polygon fill="white" stroke="none" points="-4,4 -4,-521 367,-521 367,4 -4,4"/>
<!-- medicare._enrollments.age -->
<g id="node1" class="node">
<title>medicare._enrollments.age</title>
<g id="a_node1"><a xlink:href="../medicare._enrollments/age.html" xlink:title="&lt;TABLE&gt;" target="_blank">
<polygon fill="none" stroke="black" points="225.62,-59 42.88,-59 42.88,0 225.62,0 225.62,-59"/>
<text text-anchor="start" x="55.88" y="-37.7" font-family="Times,serif" font-weight="bold" font-size="14.00">medicare._enrollments.age</text>
<polygon fill="none" stroke="black" points="53.88,-7 53.88,-29.5 214.62,-29.5 214.62,-7 53.88,-7"/>
<text text-anchor="start" x="56.88" y="-13.2" font-family="Times,serif" font-size="14.00">MAX(age)</text>
<polygon fill="none" stroke="black" points="50.88,-4 50.88,-55 217.62,-55 217.62,-4 50.88,-4"/>
</a>
</g>
</g>
<!-- medicare._ps.age -->
<g id="node2" class="node">
<title>medicare._ps.age</title>
<g id="a_node2"><a xlink:href="../medicare._ps/age.html" xlink:title="&lt;TABLE&gt;" target="_blank">
<polygon fill="none" stroke="black" points="268.5,-215.5 0,-215.5 0,-96 268.5,-96 268.5,-215.5"/>
<text text-anchor="start" x="84" y="-194.2" font-family="Times,serif" font-weight="bold" font-size="14.00">medicare._ps.age</text>
<text text-anchor="start" x="36" y="-147.7" font-family="Times,serif" font-size="14.00">Age on January 1 of a given year, if</text>
<text text-anchor="start" x="110.25" y="-131.2" font-family="Times,serif" font-size="14.00">provided</text>
<polygon fill="none" stroke="black" points="8,-100 8,-211.5 260.5,-211.5 260.5,-100 8,-100"/>
</a>
</g>
</g>
<!-- medicare._ps.age&#45;&gt;medicare._enrollments.age -->
<g id="edge1" class="edge">
<title>medicare._ps.age&#45;&gt;medicare._enrollments.age</title>
<path fill="none" stroke="blue" stroke-width="5" d="M134.25,-95.54C134.25,-88.73 134.25,-81.88 134.25,-75.31"/>
<polygon fill="blue" stroke="blue" stroke-width="5" points="138.63,-75.51 134.25,-65.51 129.88,-75.51 138.63,-75.51"/>
<text text-anchor="middle" x="248.62" y="-72.45" font-family="Times,serif" font-size="14.00">	 &#160;Aggregated On bene_id, year, state</text>
</g>
<!-- medicare.ps.age -->
<g id="node3" class="node">
<title>medicare.ps.age</title>
<g id="a_node3"><a xlink:href="../medicare.ps/age.html" xlink:title="&lt;TABLE&gt;" target="_blank">
<polygon fill="none" stroke="black" points="268.5,-372 0,-372 0,-252.5 268.5,-252.5 268.5,-372"/>
<text text-anchor="start" x="87.38" y="-350.7" font-family="Times,serif" font-weight="bold" font-size="14.00">medicare.ps.age</text>
<text text-anchor="start" x="36" y="-304.2" font-family="Times,serif" font-size="14.00">Age on January 1 of a given year, if</text>
<text text-anchor="start" x="110.25" y="-287.7" font-family="Times,serif" font-size="14.00">provided</text>
<polygon fill="none" stroke="black" points="8,-256.5 8,-368 260.5,-368 260.5,-256.5 8,-256.5"/>
</a>
</g>
</g>
<!-- medicare.ps.age&#45;&gt;medicare._ps.age -->
<g id="edge2" class="edge">
<title>medicare.ps.age&#45;&gt;medicare._ps.age</title>
<path fill="none" stroke="black" d="M134.25,-252.4C134.25,-244.19 134.25,-235.69 134.25,-227.29"/>
<polygon fill="black" stroke="black" points="137.75,-227.46 134.25,-217.46 130.75,-227.46 137.75,-227.46"/>
<text text-anchor="middle" x="153.75" y="-228.95" font-family="Times,serif" font-size="14.00">Copied</text>
</g>
<!-- medicare.ps.age_parent -->
<g id="node4" class="node">
<title>medicare.ps.age_parent</title>
<g id="a_node4"><a xlink:href="../medicare.ps/age.html" xlink:title="8 incoming links (columns)" target="_blank">
<path fill="yellow" stroke="black" d="M242.25,-507.18C242.25,-512.6 193.84,-517 134.25,-517 74.66,-517 26.25,-512.6 26.25,-507.18 26.25,-507.18 26.25,-418.82 26.25,-418.82 26.25,-413.4 74.66,-409 134.25,-409 193.84,-409 242.25,-413.4 242.25,-418.82 242.25,-418.82 242.25,-507.18 242.25,-507.18"/>
<path fill="none" stroke="black" d="M242.25,-507.18C242.25,-501.76 193.84,-497.36 134.25,-497.36 74.66,-497.36 26.25,-501.76 26.25,-507.18"/>
<text text-anchor="middle" x="134.25" y="-457.95" font-family="Times,serif" font-size="14.00">8 incoming links (columns)</text>
</a>
</g>
</g>
<!-- medicare.ps.age_parent&#45;&gt;medicare.ps.age -->
<g id="edge3" class="edge">
<title>medicare.ps.age_parent&#45;&gt;medicare.ps.age</title>
<path fill="none" stroke="goldenrod" stroke-width="6" d="M134.25,-408.72C134.25,-402.2 134.25,-395.44 134.25,-388.68"/>
<polygon fill="goldenrod" stroke="goldenrod" stroke-width="6" points="139.5,-388.92 134.25,-378.92 129,-388.92 139.5,-388.92"/>
</g>
</g>
</svg>
