<?xml version="1.0" encoding="UTF-8" standalone="no"?>
<!DOCTYPE svg PUBLIC "-//W3C//DTD SVG 1.1//EN"
 "http://www.w3.org/Graphics/SVG/1.1/DTD/svg11.dtd">
<!-- Generated by graphviz version 10.0.1 (20240210.2158)
 -->
<!-- Pages: 1 -->
<svg width="426pt" height="854pt"
 viewBox="0.00 0.00 425.88 854.00" xmlns="http://www.w3.org/2000/svg" xmlns:xlink="http://www.w3.org/1999/xlink">
<g id="graph0" class="graph" transform="scale(1 1) rotate(0) translate(4 850)">
<polygon fill="white" stroke="none" points="-4,4 -4,-850 421.88,-850 421.88,4 -4,4"/>
<!-- medicare.qc_enrl_bene.age_min -->
<g id="node1" class="node">
<title>medicare.qc_enrl_bene.age_min</title>
<g id="a_node1"><a xlink:href="../medicare.qc_enrl_bene/age_min.html" xlink:title="&lt;TABLE&gt;" target="_blank">
<polygon fill="none" stroke="black" points="378.25,-59 0,-59 0,0 378.25,0 378.25,-59"/>
<text text-anchor="start" x="95" y="-37.7" font-family="Times,serif" font-weight="bold" font-size="14.00">medicare.qc_enrl_bene.age_min</text>
<polygon fill="none" stroke="black" points="11,-7 11,-29.5 367.25,-29.5 367.25,-7 11,-7"/>
<text text-anchor="start" x="14" y="-13.2" font-family="Times,serif" font-size="14.00">CASE &#160;WHEN MIN(age) &lt;&gt; MAX(age) THEN MIN(age)END</text>
<polygon fill="none" stroke="black" points="8,-4 8,-55 370.25,-55 370.25,-4 8,-4"/>
</a>
</g>
</g>
<!-- medicare.enrollments.age -->
<g id="node2" class="node">
<title>medicare.enrollments.age</title>
<g id="a_node2"><a xlink:href="../medicare.enrollments/age.html" xlink:title="&lt;TABLE&gt;" target="_blank">
<polygon fill="none" stroke="black" points="306.88,-223.5 71.38,-223.5 71.38,-96 306.88,-96 306.88,-223.5"/>
<text text-anchor="start" x="114.12" y="-202.2" font-family="Times,serif" font-weight="bold" font-size="14.00">medicare.enrollments.age</text>
<text text-anchor="start" x="107.38" y="-155.7" font-family="Times,serif" font-size="14.00">Age at End of Reference Year</text>
<polygon fill="none" stroke="black" points="82.38,-103 82.38,-125.5 295.88,-125.5 295.88,-103 82.38,-103"/>
<text text-anchor="start" x="85.38" y="-109.2" font-family="Times,serif" font-size="14.00">MAX(age)</text>
<polygon fill="none" stroke="black" points="79.38,-100 79.38,-219.5 298.88,-219.5 298.88,-100 79.38,-100"/>
</a>
</g>
</g>
<!-- medicare.enrollments.age&#45;&gt;medicare.qc_enrl_bene.age_min -->
<g id="edge1" class="edge">
<title>medicare.enrollments.age&#45;&gt;medicare.qc_enrl_bene.age_min</title>
<path fill="none" stroke="black" d="M189.12,-95.75C189.12,-87.15 189.12,-78.53 189.12,-70.5"/>
<polygon fill="black" stroke="black" points="192.63,-70.74 189.13,-60.74 185.63,-70.74 192.63,-70.74"/>
<text text-anchor="middle" x="235.25" y="-72.45" font-family="Times,serif" font-size="14.00">	join natural</text>
</g>
<!-- medicare._enrollments.age -->
<g id="node3" class="node">
<title>medicare._enrollments.age</title>
<g id="a_node3"><a xlink:href="../medicare._enrollments/age.html" xlink:title="&lt;TABLE&gt;" target="_blank">
<polygon fill="none" stroke="black" points="306.88,-388 71.38,-388 71.38,-260.5 306.88,-260.5 306.88,-388"/>
<text text-anchor="start" x="110.75" y="-366.7" font-family="Times,serif" font-weight="bold" font-size="14.00">medicare._enrollments.age</text>
<text text-anchor="start" x="107.38" y="-320.2" font-family="Times,serif" font-size="14.00">Age at End of Reference Year</text>
<polygon fill="none" stroke="black" points="82.38,-267.5 82.38,-290 295.88,-290 295.88,-267.5 82.38,-267.5"/>
<text text-anchor="start" x="85.38" y="-273.7" font-family="Times,serif" font-size="14.00">MAX(age)</text>
<polygon fill="none" stroke="black" points="79.38,-264.5 79.38,-384 298.88,-384 298.88,-264.5 79.38,-264.5"/>
</a>
</g>
</g>
<!-- medicare._enrollments.age&#45;&gt;medicare.enrollments.age -->
<g id="edge2" class="edge">
<title>medicare._enrollments.age&#45;&gt;medicare.enrollments.age</title>
<path fill="none" stroke="black" d="M189.12,-260.42C189.12,-252.2 189.12,-243.7 189.12,-235.3"/>
<polygon fill="black" stroke="black" points="192.63,-235.46 189.13,-225.46 185.63,-235.46 192.63,-235.46"/>
<text text-anchor="middle" x="208.62" y="-236.95" font-family="Times,serif" font-size="14.00">Copied</text>
</g>
<!-- medicare._ps.age -->
<g id="node4" class="node">
<title>medicare._ps.age</title>
<g id="a_node4"><a xlink:href="../medicare._ps/age.html" xlink:title="&lt;TABLE&gt;" target="_blank">
<polygon fill="none" stroke="black" points="323.38,-544.5 54.88,-544.5 54.88,-425 323.38,-425 323.38,-544.5"/>
<text text-anchor="start" x="138.88" y="-523.2" font-family="Times,serif" font-weight="bold" font-size="14.00">medicare._ps.age</text>
<text text-anchor="start" x="90.88" y="-476.7" font-family="Times,serif" font-size="14.00">Age on January 1 of a given year, if</text>
<text text-anchor="start" x="165.12" y="-460.2" font-family="Times,serif" font-size="14.00">provided</text>
<polygon fill="none" stroke="black" points="62.88,-429 62.88,-540.5 315.38,-540.5 315.38,-429 62.88,-429"/>
</a>
</g>
</g>
<!-- medicare._ps.age&#45;&gt;medicare._enrollments.age -->
<g id="edge3" class="edge">
<title>medicare._ps.age&#45;&gt;medicare._enrollments.age</title>
<path fill="none" stroke="blue" stroke-width="5" d="M189.12,-424.73C189.12,-418.05 189.12,-411.16 189.12,-404.27"/>
<polygon fill="blue" stroke="blue" stroke-width="5" points="193.5,-404.54 189.13,-394.54 184.75,-404.54 193.5,-404.54"/>
<text text-anchor="middle" x="303.5" y="-401.45" font-family="Times,serif" font-size="14.00">	 &#160;Aggregated On bene_id, year, state</text>
</g>
<!-- medicare.ps.age -->
<g id="node5" class="node">
<title>medicare.ps.age</title>
<g id="a_node5"><a xlink:href="../medicare.ps/age.html" xlink:title="&lt;TABLE&gt;" target="_blank">
<polygon fill="none" stroke="black" points="323.38,-701 54.88,-701 54.88,-581.5 323.38,-581.5 323.38,-701"/>
<text text-anchor="start" x="142.25" y="-679.7" font-family="Times,serif" font-weight="bold" font-size="14.00">medicare.ps.age</text>
<text text-anchor="start" x="90.88" y="-633.2" font-family="Times,serif" font-size="14.00">Age on January 1 of a given year, if</text>
<text text-anchor="start" x="165.12" y="-616.7" font-family="Times,serif" font-size="14.00">provided</text>
<polygon fill="none" stroke="black" points="62.88,-585.5 62.88,-697 315.38,-697 315.38,-585.5 62.88,-585.5"/>
</a>
</g>
</g>
<!-- medicare.ps.age&#45;&gt;medicare._ps.age -->
<g id="edge4" class="edge">
<title>medicare.ps.age&#45;&gt;medicare._ps.age</title>
<path fill="none" stroke="black" d="M189.12,-581.4C189.12,-573.19 189.12,-564.69 189.12,-556.29"/>
<polygon fill="black" stroke="black" points="192.63,-556.46 189.13,-546.46 185.63,-556.46 192.63,-556.46"/>
<text text-anchor="middle" x="208.62" y="-557.95" font-family="Times,serif" font-size="14.00">Copied</text>
</g>
<!-- medicare.ps.age_parent -->
<g id="node6" class="node">
<title>medicare.ps.age_parent</title>
<g id="a_node6"><a xlink:href="../medicare.ps/age.html" xlink:title="8 incoming links (columns)" target="_blank">
<path fill="yellow" stroke="black" d="M297.12,-836.18C297.12,-841.6 248.72,-846 189.12,-846 129.53,-846 81.12,-841.6 81.12,-836.18 81.12,-836.18 81.12,-747.82 81.12,-747.82 81.12,-742.4 129.53,-738 189.12,-738 248.72,-738 297.12,-742.4 297.12,-747.82 297.12,-747.82 297.12,-836.18 297.12,-836.18"/>
<path fill="none" stroke="black" d="M297.12,-836.18C297.12,-830.76 248.72,-826.36 189.12,-826.36 129.53,-826.36 81.12,-830.76 81.12,-836.18"/>
<text text-anchor="middle" x="189.12" y="-786.95" font-family="Times,serif" font-size="14.00">8 incoming links (columns)</text>
</a>
</g>
</g>
<!-- medicare.ps.age_parent&#45;&gt;medicare.ps.age -->
<g id="edge5" class="edge">
<title>medicare.ps.age_parent&#45;&gt;medicare.ps.age</title>
<path fill="none" stroke="goldenrod" stroke-width="6" d="M189.12,-737.72C189.12,-731.2 189.12,-724.44 189.12,-717.68"/>
<polygon fill="goldenrod" stroke="goldenrod" stroke-width="6" points="194.38,-717.92 189.13,-707.92 183.88,-717.92 194.38,-717.92"/>
</g>
</g>
</svg>
