<?xml version="1.0" encoding="UTF-8" standalone="no"?>
<!DOCTYPE svg PUBLIC "-//W3C//DTD SVG 1.1//EN"
 "http://www.w3.org/Graphics/SVG/1.1/DTD/svg11.dtd">
<!-- Generated by graphviz version 10.0.1 (20240210.2158)
 -->
<!-- Pages: 1 -->
<svg width="426pt" height="717pt"
 viewBox="0.00 0.00 425.88 717.00" xmlns="http://www.w3.org/2000/svg" xmlns:xlink="http://www.w3.org/1999/xlink">
<g id="graph0" class="graph" transform="scale(1 1) rotate(0) translate(4 713)">
<polygon fill="white" stroke="none" points="-4,4 -4,-713 421.88,-713 421.88,4 -4,4"/>
<!-- medicare.qc_enrl_bene.age_min -->
<g id="node1" class="node">
<title>medicare.qc_enrl_bene.age_min</title>
<g id="a_node1"><a xlink:href="../medicare.qc_enrl_bene/age_min.html" xlink:title="&lt;TABLE&gt;" target="_blank">
<polygon fill="none" stroke="black" points="378.25,-59 0,-59 0,0 378.25,0 378.25,-59"/>
<text text-anchor="start" x="95" y="-37.7" font-family="Times,serif" font-weight="bold" font-size="14.00">medicare.qc_enrl_bene.age_min</text>
<polygon fill="none" stroke="black" points="11,-7 11,-29.5 367.25,-29.5 367.25,-7 11,-7"/>
<text text-anchor="start" x="14" y="-13.2" font-family="Times,serif" font-size="14.00">CASE &#160;WHEN MIN(age) &lt;&gt; MAX(age) THEN MIN(age)END</text>
<polygon fill="none" stroke="black" points="8,-4 8,-55 370.25,-55 370.25,-4 8,-4"/>
</a>
</g>
</g>
<!-- medicare.enrollments.age -->
<g id="node2" class="node">
<title>medicare.enrollments.age</title>
<g id="a_node2"><a xlink:href="../medicare.enrollments/age.html" xlink:title="&lt;TABLE&gt;" target="_blank">
<polygon fill="none" stroke="black" points="277.12,-155 101.12,-155 101.12,-96 277.12,-96 277.12,-155"/>
<text text-anchor="start" x="114.12" y="-133.7" font-family="Times,serif" font-weight="bold" font-size="14.00">medicare.enrollments.age</text>
<polygon fill="none" stroke="black" points="112.12,-103 112.12,-125.5 266.12,-125.5 266.12,-103 112.12,-103"/>
<text text-anchor="start" x="115.12" y="-109.2" font-family="Times,serif" font-size="14.00">MAX(age)</text>
<polygon fill="none" stroke="black" points="109.12,-100 109.12,-151 269.12,-151 269.12,-100 109.12,-100"/>
</a>
</g>
</g>
<!-- medicare.enrollments.age&#45;&gt;medicare.qc_enrl_bene.age_min -->
<g id="edge1" class="edge">
<title>medicare.enrollments.age&#45;&gt;medicare.qc_enrl_bene.age_min</title>
<path fill="none" stroke="black" d="M189.12,-95.53C189.12,-87.68 189.12,-79.05 189.12,-70.7"/>
<polygon fill="black" stroke="black" points="192.63,-70.73 189.13,-60.73 185.63,-70.73 192.63,-70.73"/>
<text text-anchor="middle" x="235.25" y="-72.45" font-family="Times,serif" font-size="14.00">	join natural</text>
</g>
<!-- medicare._enrollments.age -->
<g id="node3" class="node">
<title>medicare._enrollments.age</title>
<g id="a_node3"><a xlink:href="../medicare._enrollments/age.html" xlink:title="&lt;TABLE&gt;" target="_blank">
<polygon fill="none" stroke="black" points="280.5,-251 97.75,-251 97.75,-192 280.5,-192 280.5,-251"/>
<text text-anchor="start" x="110.75" y="-229.7" font-family="Times,serif" font-weight="bold" font-size="14.00">medicare._enrollments.age</text>
<polygon fill="none" stroke="black" points="108.75,-199 108.75,-221.5 269.5,-221.5 269.5,-199 108.75,-199"/>
<text text-anchor="start" x="111.75" y="-205.2" font-family="Times,serif" font-size="14.00">MAX(age)</text>
<polygon fill="none" stroke="black" points="105.75,-196 105.75,-247 272.5,-247 272.5,-196 105.75,-196"/>
</a>
</g>
</g>
<!-- medicare._enrollments.age&#45;&gt;medicare.enrollments.age -->
<g id="edge2" class="edge">
<title>medicare._enrollments.age&#45;&gt;medicare.enrollments.age</title>
<path fill="none" stroke="black" d="M189.12,-191.53C189.12,-183.68 189.12,-175.05 189.12,-166.7"/>
<polygon fill="black" stroke="black" points="192.63,-166.73 189.13,-156.73 185.63,-166.73 192.63,-166.73"/>
<text text-anchor="middle" x="208.62" y="-168.45" font-family="Times,serif" font-size="14.00">Copied</text>
</g>
<!-- medicare._ps.age -->
<g id="node4" class="node">
<title>medicare._ps.age</title>
<g id="a_node4"><a xlink:href="../medicare._ps/age.html" xlink:title="&lt;TABLE&gt;" target="_blank">
<polygon fill="none" stroke="black" points="323.38,-407.5 54.88,-407.5 54.88,-288 323.38,-288 323.38,-407.5"/>
<text text-anchor="start" x="138.88" y="-386.2" font-family="Times,serif" font-weight="bold" font-size="14.00">medicare._ps.age</text>
<text text-anchor="start" x="90.88" y="-339.7" font-family="Times,serif" font-size="14.00">Age on January 1 of a given year, if</text>
<text text-anchor="start" x="165.12" y="-323.2" font-family="Times,serif" font-size="14.00">provided</text>
<polygon fill="none" stroke="black" points="62.88,-292 62.88,-403.5 315.38,-403.5 315.38,-292 62.88,-292"/>
</a>
</g>
</g>
<!-- medicare._ps.age&#45;&gt;medicare._enrollments.age -->
<g id="edge3" class="edge">
<title>medicare._ps.age&#45;&gt;medicare._enrollments.age</title>
<path fill="none" stroke="blue" stroke-width="5" d="M189.12,-287.54C189.12,-280.73 189.12,-273.88 189.12,-267.31"/>
<polygon fill="blue" stroke="blue" stroke-width="5" points="193.5,-267.51 189.13,-257.51 184.75,-267.51 193.5,-267.51"/>
<text text-anchor="middle" x="303.5" y="-264.45" font-family="Times,serif" font-size="14.00">	 &#160;Aggregated On bene_id, year, state</text>
</g>
<!-- medicare.ps.age -->
<g id="node5" class="node">
<title>medicare.ps.age</title>
<g id="a_node5"><a xlink:href="../medicare.ps/age.html" xlink:title="&lt;TABLE&gt;" target="_blank">
<polygon fill="none" stroke="black" points="323.38,-564 54.88,-564 54.88,-444.5 323.38,-444.5 323.38,-564"/>
<text text-anchor="start" x="142.25" y="-542.7" font-family="Times,serif" font-weight="bold" font-size="14.00">medicare.ps.age</text>
<text text-anchor="start" x="90.88" y="-496.2" font-family="Times,serif" font-size="14.00">Age on January 1 of a given year, if</text>
<text text-anchor="start" x="165.12" y="-479.7" font-family="Times,serif" font-size="14.00">provided</text>
<polygon fill="none" stroke="black" points="62.88,-448.5 62.88,-560 315.38,-560 315.38,-448.5 62.88,-448.5"/>
</a>
</g>
</g>
<!-- medicare.ps.age&#45;&gt;medicare._ps.age -->
<g id="edge4" class="edge">
<title>medicare.ps.age&#45;&gt;medicare._ps.age</title>
<path fill="none" stroke="black" d="M189.12,-444.4C189.12,-436.19 189.12,-427.69 189.12,-419.29"/>
<polygon fill="black" stroke="black" points="192.63,-419.46 189.13,-409.46 185.63,-419.46 192.63,-419.46"/>
<text text-anchor="middle" x="208.62" y="-420.95" font-family="Times,serif" font-size="14.00">Copied</text>
</g>
<!-- medicare.ps.age_parent -->
<g id="node6" class="node">
<title>medicare.ps.age_parent</title>
<g id="a_node6"><a xlink:href="../medicare.ps/age.html" xlink:title="8 incoming links (columns)" target="_blank">
<path fill="yellow" stroke="black" d="M297.12,-699.18C297.12,-704.6 248.72,-709 189.12,-709 129.53,-709 81.12,-704.6 81.12,-699.18 81.12,-699.18 81.12,-610.82 81.12,-610.82 81.12,-605.4 129.53,-601 189.12,-601 248.72,-601 297.12,-605.4 297.12,-610.82 297.12,-610.82 297.12,-699.18 297.12,-699.18"/>
<path fill="none" stroke="black" d="M297.12,-699.18C297.12,-693.76 248.72,-689.36 189.12,-689.36 129.53,-689.36 81.12,-693.76 81.12,-699.18"/>
<text text-anchor="middle" x="189.12" y="-649.95" font-family="Times,serif" font-size="14.00">8 incoming links (columns)</text>
</a>
</g>
</g>
<!-- medicare.ps.age_parent&#45;&gt;medicare.ps.age -->
<g id="edge5" class="edge">
<title>medicare.ps.age_parent&#45;&gt;medicare.ps.age</title>
<path fill="none" stroke="goldenrod" stroke-width="6" d="M189.12,-600.72C189.12,-594.2 189.12,-587.44 189.12,-580.68"/>
<polygon fill="goldenrod" stroke="goldenrod" stroke-width="6" points="194.38,-580.92 189.13,-570.92 183.88,-580.92 194.38,-580.92"/>
</g>
</g>
</svg>
