<?xml version="1.0" encoding="UTF-8" standalone="no"?>
<!DOCTYPE svg PUBLIC "-//W3C//DTD SVG 1.1//EN"
 "http://www.w3.org/Graphics/SVG/1.1/DTD/svg11.dtd">
<!-- Generated by graphviz version 10.0.1 (20240210.2158)
 -->
<!-- Pages: 1 -->
<svg width="388pt" height="599pt"
 viewBox="0.00 0.00 387.75 598.50" xmlns="http://www.w3.org/2000/svg" xmlns:xlink="http://www.w3.org/1999/xlink">
<g id="graph0" class="graph" transform="scale(1 1) rotate(0) translate(4 594.5)">
<polygon fill="white" stroke="none" points="-4,4 -4,-594.5 383.75,-594.5 383.75,4 -4,4"/>
<!-- medicare.beneficiaries.bene -->
<g id="node1" class="node">
<title>medicare.beneficiaries.bene</title>
<g id="a_node1"><a xlink:href="../medicare.beneficiaries/bene.html" xlink:title="&lt;TABLE&gt;" target="_blank">
<polygon fill="none" stroke="black" points="379.75,-226.5 0,-226.5 0,0 379.75,0 379.75,-226.5"/>
<text text-anchor="start" x="109.25" y="-205.2" font-family="Times,serif" font-weight="bold" font-size="14.00">medicare.beneficiaries.bene</text>
<text text-anchor="start" x="36" y="-158.7" font-family="Times,serif" font-size="14.00">HLL hash (see https://en.wikipedia.org/w</text>
<text text-anchor="start" x="55.12" y="-142.2" font-family="Times,serif" font-size="14.00">iki/HyperLogLog). Can be used to</text>
<text text-anchor="start" x="58.5" y="-125.7" font-family="Times,serif" font-size="14.00">calculate number of beneficiaries</text>
<text text-anchor="start" x="41.25" y="-109.2" font-family="Times,serif" font-size="14.00">satisfying a certain given condition Use</text>
<text text-anchor="start" x="83.25" y="-92.7" font-family="Times,serif" font-size="14.00">#(hll_add_agg(bene)) or</text>
<text text-anchor="start" x="54.75" y="-76.2" font-family="Times,serif" font-size="14.00">hll_cardinality(hll_add_agg(bene))</text>
<text text-anchor="start" x="120.38" y="-59.7" font-family="Times,serif" font-size="14.00">aggregator</text>
<polygon fill="none" stroke="black" points="11,-7 11,-29.5 368.75,-29.5 368.75,-7 11,-7"/>
<text text-anchor="start" x="14" y="-13.2" font-family="Times,serif" font-size="14.00">GENERATED ALWAYS AS (hll_hash_text(bene_id)) STORED</text>
<polygon fill="none" stroke="black" points="8,-4 8,-222.5 371.75,-222.5 371.75,-4 8,-4"/>
</a>
</g>
</g>
<!-- medicare._beneficiaries.bene_id -->
<g id="node2" class="node">
<title>medicare._beneficiaries.bene_id</title>
<g id="a_node2"><a xlink:href="../medicare._beneficiaries/bene_id.html" xlink:title="&lt;TABLE&gt;" target="_blank">
<polygon fill="none" stroke="black" points="295.88,-299.5 83.88,-299.5 83.88,-263.5 295.88,-263.5 295.88,-299.5"/>
<text text-anchor="start" x="96.88" y="-277.45" font-family="Times,serif" font-weight="bold" font-size="14.00">medicare._beneficiaries.bene_id</text>
<polygon fill="none" stroke="black" points="91.88,-268.25 91.88,-294.75 287.88,-294.75 287.88,-268.25 91.88,-268.25"/>
</a>
</g>
</g>
<!-- medicare._beneficiaries.bene_id&#45;&gt;medicare.beneficiaries.bene -->
<g id="edge1" class="edge">
<title>medicare._beneficiaries.bene_id&#45;&gt;medicare.beneficiaries.bene</title>
<path fill="none" stroke="black" d="M189.88,-263.02C189.88,-256.19 189.88,-247.74 189.88,-238.35"/>
<polygon fill="black" stroke="black" points="193.38,-238.47 189.88,-228.47 186.38,-238.47 193.38,-238.47"/>
<text text-anchor="middle" x="228.5" y="-239.95" font-family="Times,serif" font-size="14.00"> &#160;Transformed</text>
</g>
<!-- medicare._ps.bene_id -->
<g id="node3" class="node">
<title>medicare._ps.bene_id</title>
<g id="a_node3"><a xlink:href="../medicare._ps/bene_id.html" xlink:title="&lt;TABLE&gt;" target="_blank">
<polygon fill="none" stroke="black" points="265.88,-372.5 113.88,-372.5 113.88,-336.5 265.88,-336.5 265.88,-372.5"/>
<text text-anchor="start" x="126.88" y="-350.45" font-family="Times,serif" font-weight="bold" font-size="14.00">medicare._ps.bene_id</text>
<polygon fill="none" stroke="black" points="121.88,-341.25 121.88,-367.75 257.88,-367.75 257.88,-341.25 121.88,-341.25"/>
</a>
</g>
</g>
<!-- medicare._ps.bene_id&#45;&gt;medicare._beneficiaries.bene_id -->
<g id="edge2" class="edge">
<title>medicare._ps.bene_id&#45;&gt;medicare._beneficiaries.bene_id</title>
<path fill="none" stroke="blue" stroke-width="5" d="M189.88,-336.31C189.88,-330.03 189.88,-322.7 189.88,-315.51"/>
<polygon fill="blue" stroke="blue" stroke-width="5" points="194.25,-315.77 189.88,-305.77 185.5,-315.77 194.25,-315.77"/>
<text text-anchor="middle" x="273.12" y="-312.95" font-family="Times,serif" font-size="14.00">	 &#160;Aggregated On bene_id</text>
</g>
<!-- medicare.ps.bene_id -->
<g id="node4" class="node">
<title>medicare.ps.bene_id</title>
<g id="a_node4"><a xlink:href="../medicare.ps/bene_id.html" xlink:title="&lt;TABLE&gt;" target="_blank">
<polygon fill="none" stroke="black" points="262.5,-445.5 117.25,-445.5 117.25,-409.5 262.5,-409.5 262.5,-445.5"/>
<text text-anchor="start" x="130.25" y="-423.45" font-family="Times,serif" font-weight="bold" font-size="14.00">medicare.ps.bene_id</text>
<polygon fill="none" stroke="black" points="125.25,-414.25 125.25,-440.75 254.5,-440.75 254.5,-414.25 125.25,-414.25"/>
</a>
</g>
</g>
<!-- medicare.ps.bene_id&#45;&gt;medicare._ps.bene_id -->
<g id="edge3" class="edge">
<title>medicare.ps.bene_id&#45;&gt;medicare._ps.bene_id</title>
<path fill="none" stroke="black" d="M189.88,-409.31C189.88,-401.73 189.88,-392.6 189.88,-384.04"/>
<polygon fill="black" stroke="black" points="193.38,-384.04 189.88,-374.04 186.38,-384.04 193.38,-384.04"/>
<text text-anchor="middle" x="209.38" y="-385.95" font-family="Times,serif" font-size="14.00">Copied</text>
</g>
<!-- medicare.ps.bene_id_parent -->
<g id="node5" class="node">
<title>medicare.ps.bene_id_parent</title>
<g id="a_node5"><a xlink:href="../medicare.ps/bene_id.html" xlink:title="8 incoming links (columns)" target="_blank">
<path fill="yellow" stroke="black" d="M297.88,-580.68C297.88,-586.1 249.47,-590.5 189.88,-590.5 130.28,-590.5 81.88,-586.1 81.88,-580.68 81.88,-580.68 81.88,-492.32 81.88,-492.32 81.88,-486.9 130.28,-482.5 189.88,-482.5 249.47,-482.5 297.88,-486.9 297.88,-492.32 297.88,-492.32 297.88,-580.68 297.88,-580.68"/>
<path fill="none" stroke="black" d="M297.88,-580.68C297.88,-575.26 249.47,-570.86 189.88,-570.86 130.28,-570.86 81.88,-575.26 81.88,-580.68"/>
<text text-anchor="middle" x="189.88" y="-531.45" font-family="Times,serif" font-size="14.00">8 incoming links (columns)</text>
</a>
</g>
</g>
<!-- medicare.ps.bene_id_parent&#45;&gt;medicare.ps.bene_id -->
<g id="edge4" class="edge">
<title>medicare.ps.bene_id_parent&#45;&gt;medicare.ps.bene_id</title>
<path fill="none" stroke="goldenrod" stroke-width="6" d="M189.88,-482C189.88,-475.21 189.88,-468.42 189.88,-462.07"/>
<polygon fill="goldenrod" stroke="goldenrod" stroke-width="6" points="195.13,-462.15 189.88,-452.15 184.63,-462.15 195.13,-462.15"/>
</g>
</g>
</svg>
