<?xml version="1.0" encoding="UTF-8" standalone="no"?>
<!DOCTYPE svg PUBLIC "-//W3C//DTD SVG 1.1//EN"
 "http://www.w3.org/Graphics/SVG/1.1/DTD/svg11.dtd">
<!-- Generated by graphviz version 10.0.1 (20240210.2158)
 -->
<!-- Pages: 1 -->
<svg width="417pt" height="780pt"
 viewBox="0.00 0.00 417.38 779.50" xmlns="http://www.w3.org/2000/svg" xmlns:xlink="http://www.w3.org/1999/xlink">
<g id="graph0" class="graph" transform="scale(1 1) rotate(0) translate(4 775.5)">
<polygon fill="white" stroke="none" points="-4,4 -4,-775.5 413.38,-775.5 413.38,4 -4,4"/>
<!-- medicare.qc_enrl_bene.bene -->
<g id="node1" class="node">
<title>medicare.qc_enrl_bene.bene</title>
<g id="a_node1"><a xlink:href="../medicare.qc_enrl_bene/bene.html" xlink:title="&lt;TABLE&gt;" target="_blank">
<polygon fill="none" stroke="black" points="379.75,-226.5 0,-226.5 0,0 379.75,0 379.75,-226.5"/>
<text text-anchor="start" x="107" y="-205.2" font-family="Times,serif" font-weight="bold" font-size="14.00">medicare.qc_enrl_bene.bene</text>
<text text-anchor="start" x="36" y="-158.7" font-family="Times,serif" font-size="14.00">HLL hash (see https://en.wikipedia.org/w</text>
<text text-anchor="start" x="55.12" y="-142.2" font-family="Times,serif" font-size="14.00">iki/HyperLogLog). Can be used to</text>
<text text-anchor="start" x="58.5" y="-125.7" font-family="Times,serif" font-size="14.00">calculate number of beneficiaries</text>
<text text-anchor="start" x="41.25" y="-109.2" font-family="Times,serif" font-size="14.00">satisfying a certain given condition Use</text>
<text text-anchor="start" x="83.25" y="-92.7" font-family="Times,serif" font-size="14.00">#(hll_add_agg(bene)) or</text>
<text text-anchor="start" x="54.75" y="-76.2" font-family="Times,serif" font-size="14.00">hll_cardinality(hll_add_agg(bene))</text>
<text text-anchor="start" x="120.38" y="-59.7" font-family="Times,serif" font-size="14.00">aggregator</text>
<polygon fill="none" stroke="black" points="11,-7 11,-29.5 368.75,-29.5 368.75,-7 11,-7"/>
<text text-anchor="start" x="14" y="-13.2" font-family="Times,serif" font-size="14.00">GENERATED ALWAYS AS (hll_hash_text(bene_id)) STORED</text>
<polygon fill="none" stroke="black" points="8,-4 8,-222.5 371.75,-222.5 371.75,-4 8,-4"/>
</a>
</g>
</g>
<!-- medicare.enrollments.bene_id -->
<g id="node2" class="node">
<title>medicare.enrollments.bene_id</title>
<g id="a_node2"><a xlink:href="../medicare.enrollments/bene_id.html" xlink:title="&lt;TABLE&gt;" target="_blank">
<polygon fill="none" stroke="black" points="221.62,-299.5 20.12,-299.5 20.12,-263.5 221.62,-263.5 221.62,-299.5"/>
<text text-anchor="start" x="33.12" y="-277.45" font-family="Times,serif" font-weight="bold" font-size="14.00">medicare.enrollments.bene_id</text>
<polygon fill="none" stroke="black" points="28.12,-268.25 28.12,-294.75 213.62,-294.75 213.62,-268.25 28.12,-268.25"/>
</a>
</g>
</g>
<!-- medicare.enrollments.bene_id&#45;&gt;medicare.qc_enrl_bene.bene -->
<g id="edge1" class="edge">
<title>medicare.enrollments.bene_id&#45;&gt;medicare.qc_enrl_bene.bene</title>
<path fill="none" stroke="black" d="M128.13,-263.02C131.06,-255.97 134.7,-247.18 138.75,-237.43"/>
<polygon fill="black" stroke="black" points="141.92,-238.93 142.52,-228.35 135.45,-236.24 141.92,-238.93"/>
<text text-anchor="middle" x="182" y="-239.95" font-family="Times,serif" font-size="14.00">	join natural</text>
</g>
<!-- medicare._enrollments.bene_id -->
<g id="node3" class="node">
<title>medicare._enrollments.bene_id</title>
<g id="a_node3"><a xlink:href="../medicare._enrollments/bene_id.html" xlink:title="&lt;TABLE&gt;" target="_blank">
<polygon fill="none" stroke="black" points="225,-426.5 16.75,-426.5 16.75,-390.5 225,-390.5 225,-426.5"/>
<text text-anchor="start" x="29.75" y="-404.45" font-family="Times,serif" font-weight="bold" font-size="14.00">medicare._enrollments.bene_id</text>
<polygon fill="none" stroke="black" points="24.75,-395.25 24.75,-421.75 217,-421.75 217,-395.25 24.75,-395.25"/>
</a>
</g>
</g>
<!-- medicare._enrollments.bene_id&#45;&gt;medicare.enrollments.bene_id -->
<g id="edge2" class="edge">
<title>medicare._enrollments.bene_id&#45;&gt;medicare.enrollments.bene_id</title>
<path fill="none" stroke="black" d="M120.88,-390.12C120.88,-369.69 120.88,-335.49 120.88,-311.12"/>
<polygon fill="black" stroke="black" points="124.38,-311.25 120.88,-301.25 117.38,-311.25 124.38,-311.25"/>
<text text-anchor="middle" x="140.38" y="-349.45" font-family="Times,serif" font-size="14.00">Copied</text>
</g>
<!-- medicare._ps.bene_id -->
<g id="node4" class="node">
<title>medicare._ps.bene_id</title>
<g id="a_node4"><a xlink:href="../medicare._ps/bene_id.html" xlink:title="&lt;TABLE&gt;" target="_blank">
<polygon fill="none" stroke="black" points="306.88,-553.5 154.88,-553.5 154.88,-517.5 306.88,-517.5 306.88,-553.5"/>
<text text-anchor="start" x="167.88" y="-531.45" font-family="Times,serif" font-weight="bold" font-size="14.00">medicare._ps.bene_id</text>
<polygon fill="none" stroke="black" points="162.88,-522.25 162.88,-548.75 298.88,-548.75 298.88,-522.25 162.88,-522.25"/>
</a>
</g>
</g>
<!-- medicare._ps.bene_id&#45;&gt;medicare._enrollments.bene_id -->
<g id="edge3" class="edge">
<title>medicare._ps.bene_id&#45;&gt;medicare._enrollments.bene_id</title>
<path fill="none" stroke="blue" stroke-width="5" d="M186.81,-517.08C169.92,-508.4 151.86,-496.31 139.88,-480.5 131.62,-469.61 126.95,-455.41 124.31,-442.57"/>
<polygon fill="blue" stroke="blue" stroke-width="5" points="128.68,-442.25 122.83,-433.04 120.04,-443.59 128.68,-442.25"/>
<text text-anchor="middle" x="273.25" y="-493.95" font-family="Times,serif" font-size="14.00">	 &#160;Aggregated On bene_id, year, state</text>
</g>
<!-- medicare._beneficiaries.bene_id -->
<g id="node8" class="node">
<title>medicare._beneficiaries.bene_id</title>
<g id="a_node8"><a xlink:href="../medicare._beneficiaries/bene_id.html" xlink:title="&lt;TABLE&gt;" target="_blank">
<polygon fill="none" stroke="black" points="360.88,-480.5 148.88,-480.5 148.88,-444.5 360.88,-444.5 360.88,-480.5"/>
<text text-anchor="start" x="161.88" y="-458.45" font-family="Times,serif" font-weight="bold" font-size="14.00">medicare._beneficiaries.bene_id</text>
<polygon fill="none" stroke="black" points="156.88,-449.25 156.88,-475.75 352.88,-475.75 352.88,-449.25 156.88,-449.25"/>
</a>
</g>
</g>
<!-- medicare._ps.bene_id&#45;&gt;medicare._beneficiaries.bene_id -->
<g id="edge8" class="edge">
<title>medicare._ps.bene_id&#45;&gt;medicare._beneficiaries.bene_id</title>
<path fill="none" stroke="blue" stroke-width="5" d="M234.62,-517.13C236.07,-511.16 237.86,-504.48 239.88,-498.5 240.18,-497.58 240.51,-496.65 240.84,-495.71"/>
<polygon fill="blue" stroke="blue" stroke-width="5" points="244.87,-497.43 244.52,-486.52 236.74,-494.18 244.87,-497.43"/>
<text text-anchor="middle" x="323.12" y="-493.95" font-family="Times,serif" font-size="14.00">	 &#160;Aggregated On bene_id</text>
</g>
<!-- medicare._ps.bene_id&#45;&gt;medicare._beneficiaries.bene_id -->
<g id="edge13" class="edge">
<title>medicare._ps.bene_id&#45;&gt;medicare._beneficiaries.bene_id</title>
<path fill="none" stroke="blue" stroke-width="5" d="M236.68,-517.31C238.87,-510.86 241.42,-503.29 243.92,-495.91"/>
<polygon fill="blue" stroke="blue" stroke-width="5" points="248.06,-497.31 247.12,-486.44 239.77,-494.51 248.06,-497.31"/>
<text text-anchor="middle" x="326.12" y="-493.95" font-family="Times,serif" font-size="14.00">	 &#160;Aggregated On bene_id</text>
</g>
<!-- medicare.ps.bene_id -->
<g id="node5" class="node">
<title>medicare.ps.bene_id</title>
<g id="a_node5"><a xlink:href="../medicare.ps/bene_id.html" xlink:title="&lt;TABLE&gt;" target="_blank">
<polygon fill="none" stroke="black" points="303.5,-626.5 158.25,-626.5 158.25,-590.5 303.5,-590.5 303.5,-626.5"/>
<text text-anchor="start" x="171.25" y="-604.45" font-family="Times,serif" font-weight="bold" font-size="14.00">medicare.ps.bene_id</text>
<polygon fill="none" stroke="black" points="166.25,-595.25 166.25,-621.75 295.5,-621.75 295.5,-595.25 166.25,-595.25"/>
</a>
</g>
</g>
<!-- medicare.ps.bene_id&#45;&gt;medicare._ps.bene_id -->
<g id="edge4" class="edge">
<title>medicare.ps.bene_id&#45;&gt;medicare._ps.bene_id</title>
<path fill="none" stroke="black" d="M219.09,-590.35C216.35,-584.52 214.57,-577.87 215.88,-571.5 216.35,-569.17 216.99,-566.81 217.74,-564.47"/>
<polygon fill="black" stroke="black" points="220.95,-565.86 221.26,-555.27 214.42,-563.35 220.95,-565.86"/>
<text text-anchor="middle" x="235.38" y="-566.95" font-family="Times,serif" font-size="14.00">Copied</text>
</g>
<!-- medicare.ps.bene_id&#45;&gt;medicare._ps.bene_id -->
<g id="edge9" class="edge">
<title>medicare.ps.bene_id&#45;&gt;medicare._ps.bene_id</title>
<path fill="none" stroke="black" d="M230.88,-590.31C230.88,-582.73 230.88,-573.6 230.88,-565.04"/>
<polygon fill="black" stroke="black" points="234.38,-565.04 230.88,-555.04 227.38,-565.04 234.38,-565.04"/>
<text text-anchor="middle" x="250.38" y="-566.95" font-family="Times,serif" font-size="14.00">Copied</text>
</g>
<!-- medicare.ps.bene_id&#45;&gt;medicare._ps.bene_id -->
<g id="edge14" class="edge">
<title>medicare.ps.bene_id&#45;&gt;medicare._ps.bene_id</title>
<path fill="none" stroke="black" d="M232.42,-590.3C232.8,-584.34 233.05,-577.63 232.88,-571.5 232.82,-569.44 232.74,-567.32 232.65,-565.19"/>
<polygon fill="black" stroke="black" points="236.16,-565.26 232.15,-555.45 229.16,-565.62 236.16,-565.26"/>
<text text-anchor="middle" x="253.38" y="-566.95" font-family="Times,serif" font-size="14.00">Copied</text>
</g>
<!-- medicare.ps.bene_id_parent -->
<g id="node6" class="node">
<title>medicare.ps.bene_id_parent</title>
<g id="a_node6"><a xlink:href="../medicare.ps/bene_id.html" xlink:title="8 incoming links (columns)" target="_blank">
<path fill="yellow" stroke="black" d="M338.88,-761.68C338.88,-767.1 290.47,-771.5 230.88,-771.5 171.28,-771.5 122.88,-767.1 122.88,-761.68 122.88,-761.68 122.88,-673.32 122.88,-673.32 122.88,-667.9 171.28,-663.5 230.88,-663.5 290.47,-663.5 338.88,-667.9 338.88,-673.32 338.88,-673.32 338.88,-761.68 338.88,-761.68"/>
<path fill="none" stroke="black" d="M338.88,-761.68C338.88,-756.26 290.47,-751.86 230.88,-751.86 171.28,-751.86 122.88,-756.26 122.88,-761.68"/>
<text text-anchor="middle" x="230.88" y="-712.45" font-family="Times,serif" font-size="14.00">8 incoming links (columns)</text>
</a>
</g>
</g>
<!-- medicare.ps.bene_id_parent&#45;&gt;medicare.ps.bene_id -->
<g id="edge5" class="edge">
<title>medicare.ps.bene_id_parent&#45;&gt;medicare.ps.bene_id</title>
<path fill="none" stroke="goldenrod" stroke-width="6" d="M217.38,-663C217.38,-656.11 217.67,-649.22 218.27,-642.78"/>
<polygon fill="goldenrod" stroke="goldenrod" stroke-width="6" points="223.44,-643.74 219.7,-633.08 213.05,-642.2 223.44,-643.74"/>
</g>
<!-- medicare.ps.bene_id_parent&#45;&gt;medicare.ps.bene_id -->
<g id="edge10" class="edge">
<title>medicare.ps.bene_id_parent&#45;&gt;medicare.ps.bene_id</title>
<path fill="none" stroke="goldenrod" stroke-width="6" d="M230.88,-663C230.88,-656.21 230.88,-649.42 230.88,-643.07"/>
<polygon fill="goldenrod" stroke="goldenrod" stroke-width="6" points="236.13,-643.15 230.88,-633.15 225.63,-643.15 236.13,-643.15"/>
</g>
<!-- medicare.ps.bene_id_parent&#45;&gt;medicare.ps.bene_id -->
<g id="edge15" class="edge">
<title>medicare.ps.bene_id_parent&#45;&gt;medicare.ps.bene_id</title>
<path fill="none" stroke="goldenrod" stroke-width="6" d="M244.38,-663C244.38,-656.11 244.08,-649.22 243.48,-642.78"/>
<polygon fill="goldenrod" stroke="goldenrod" stroke-width="6" points="248.7,-642.2 242.05,-633.08 238.31,-643.74 248.7,-642.2"/>
</g>
<!-- medicare.beneficiaries.bene_id -->
<g id="node7" class="node">
<title>medicare.beneficiaries.bene_id</title>
<g id="a_node7"><a xlink:href="../medicare.beneficiaries/bene_id.html" xlink:title="&lt;TABLE&gt;" target="_blank">
<polygon fill="none" stroke="black" points="357.5,-372.5 152.25,-372.5 152.25,-336.5 357.5,-336.5 357.5,-372.5"/>
<text text-anchor="start" x="165.25" y="-350.45" font-family="Times,serif" font-weight="bold" font-size="14.00">medicare.beneficiaries.bene_id</text>
<polygon fill="none" stroke="black" points="160.25,-341.25 160.25,-367.75 349.5,-367.75 349.5,-341.25 160.25,-341.25"/>
</a>
</g>
</g>
<!-- medicare.beneficiaries.bene_id&#45;&gt;medicare.qc_enrl_bene.bene -->
<g id="edge11" class="edge">
<title>medicare.beneficiaries.bene_id&#45;&gt;medicare.qc_enrl_bene.bene</title>
<path fill="none" stroke="black" d="M250.31,-336.24C245.51,-318.11 237.72,-288.79 230.88,-263.5 228.6,-255.11 226.25,-246.46 223.88,-237.74"/>
<polygon fill="black" stroke="black" points="227.27,-236.87 221.26,-228.15 220.51,-238.72 227.27,-236.87"/>
<text text-anchor="middle" x="287" y="-276.45" font-family="Times,serif" font-size="14.00">	join natural</text>
</g>
<!-- medicare.beneficiaries.bene_id&#45;&gt;medicare.enrollments.bene_id -->
<g id="edge6" class="edge">
<title>medicare.beneficiaries.bene_id&#45;&gt;medicare.enrollments.bene_id</title>
<path fill="none" stroke="darkorchid" stroke-width="2" d="M222.09,-336.13C204.98,-327.06 183.79,-315.84 165.23,-306"/>
<polygon fill="darkorchid" stroke="darkorchid" stroke-width="2" points="166.93,-302.94 156.46,-301.35 163.65,-309.13 166.93,-302.94"/>
<text text-anchor="middle" x="207.38" y="-312.95" font-family="Times,serif" font-size="14.00">Copied</text>
</g>
<!-- medicare._beneficiaries.bene_id&#45;&gt;medicare.beneficiaries.bene_id -->
<g id="edge7" class="edge">
<title>medicare._beneficiaries.bene_id&#45;&gt;medicare.beneficiaries.bene_id</title>
<path fill="none" stroke="black" d="M254.88,-444.47C254.88,-428.26 254.88,-403.56 254.88,-384.29"/>
<polygon fill="black" stroke="black" points="258.38,-384.35 254.88,-374.35 251.38,-384.35 258.38,-384.35"/>
<text text-anchor="middle" x="274.38" y="-403.45" font-family="Times,serif" font-size="14.00">Copied</text>
</g>
<!-- medicare._beneficiaries.bene_id&#45;&gt;medicare.beneficiaries.bene_id -->
<g id="edge12" class="edge">
<title>medicare._beneficiaries.bene_id&#45;&gt;medicare.beneficiaries.bene_id</title>
<path fill="none" stroke="black" d="M254.88,-444.47C254.88,-428.26 254.88,-403.56 254.88,-384.29"/>
<polygon fill="black" stroke="black" points="258.38,-384.35 254.88,-374.35 251.38,-384.35 258.38,-384.35"/>
<text text-anchor="middle" x="274.38" y="-403.45" font-family="Times,serif" font-size="14.00">Copied</text>
</g>
</g>
</svg>
