<?xml version="1.0" encoding="UTF-8" standalone="no"?>
<!DOCTYPE svg PUBLIC "-//W3C//DTD SVG 1.1//EN"
 "http://www.w3.org/Graphics/SVG/1.1/DTD/svg11.dtd">
<!-- Generated by graphviz version 10.0.1 (20240210.2158)
 -->
<!-- Pages: 1 -->
<svg width="665pt" height="1174pt"
 viewBox="0.00 0.00 665.25 1173.50" xmlns="http://www.w3.org/2000/svg" xmlns:xlink="http://www.w3.org/1999/xlink">
<g id="graph0" class="graph" transform="scale(1 1) rotate(0) translate(4 1169.5)">
<polygon fill="white" stroke="none" points="-4,4 -4,-1169.5 661.25,-1169.5 661.25,4 -4,4"/>
<!-- medicare.admissions.bene_id -->
<g id="node1" class="node">
<title>medicare.admissions.bene_id</title>
<g id="a_node1"><a xlink:href="../medicare.admissions/bene_id.html" xlink:title="&lt;TABLE&gt;" target="_blank">
<polygon fill="none" stroke="black" points="435.25,-119.5 151,-119.5 151,0 435.25,0 435.25,-119.5"/>
<text text-anchor="start" x="208" y="-98.2" font-family="Times,serif" font-weight="bold" font-size="14.00">medicare.admissions.bene_id</text>
<text text-anchor="start" x="187" y="-51.7" font-family="Times,serif" font-size="14.00">Encrypted 723 Beneficiary ID (Unique</text>
<text text-anchor="start" x="279.62" y="-35.2" font-family="Times,serif" font-size="14.00">Key)</text>
<polygon fill="none" stroke="black" points="159,-4 159,-115.5 427.25,-115.5 427.25,-4 159,-4"/>
</a>
</g>
</g>
<!-- medicare.ip.bene_id -->
<g id="node2" class="node">
<title>medicare.ip.bene_id</title>
<g id="a_node2"><a xlink:href="../medicare.ip/bene_id.html" xlink:title="&lt;TABLE&gt;" target="_blank">
<polygon fill="none" stroke="black" points="284.25,-276 0,-276 0,-156.5 284.25,-156.5 284.25,-276"/>
<text text-anchor="start" x="83.25" y="-254.7" font-family="Times,serif" font-weight="bold" font-size="14.00">medicare.ip.bene_id</text>
<text text-anchor="start" x="36" y="-208.2" font-family="Times,serif" font-size="14.00">Encrypted 723 Beneficiary ID (Unique</text>
<text text-anchor="start" x="128.62" y="-191.7" font-family="Times,serif" font-size="14.00">Key)</text>
<polygon fill="none" stroke="black" points="8,-160.5 8,-272 276.25,-272 276.25,-160.5 8,-160.5"/>
</a>
</g>
</g>
<!-- medicare.ip.bene_id&#45;&gt;medicare.admissions.bene_id -->
<g id="edge1" class="edge">
<title>medicare.ip.bene_id&#45;&gt;medicare.admissions.bene_id</title>
<path fill="none" stroke="black" d="M199.64,-156.4C208.67,-147.17 218.06,-137.56 227.25,-128.15"/>
<polygon fill="black" stroke="black" points="229.72,-130.63 234.21,-121.03 224.72,-125.74 229.72,-130.63"/>
<text text-anchor="middle" x="236.62" y="-132.95" font-family="Times,serif" font-size="14.00">Copied</text>
</g>
<!-- medicare.ip.bene_id_parent -->
<g id="node3" class="node">
<title>medicare.ip.bene_id_parent</title>
<g id="a_node3"><a xlink:href="../medicare.ip/bene_id.html" xlink:title="8 incoming links (columns)" target="_blank">
<path fill="yellow" stroke="black" d="M250.12,-416.93C250.12,-422.35 201.72,-426.75 142.12,-426.75 82.53,-426.75 34.12,-422.35 34.12,-416.93 34.12,-416.93 34.12,-328.57 34.12,-328.57 34.12,-323.15 82.53,-318.75 142.12,-318.75 201.72,-318.75 250.12,-323.15 250.12,-328.57 250.12,-328.57 250.12,-416.93 250.12,-416.93"/>
<path fill="none" stroke="black" d="M250.12,-416.93C250.12,-411.51 201.72,-407.11 142.12,-407.11 82.53,-407.11 34.12,-411.51 34.12,-416.93"/>
<text text-anchor="middle" x="142.12" y="-367.7" font-family="Times,serif" font-size="14.00">8 incoming links (columns)</text>
</a>
</g>
</g>
<!-- medicare.ip.bene_id_parent&#45;&gt;medicare.ip.bene_id -->
<g id="edge2" class="edge">
<title>medicare.ip.bene_id_parent&#45;&gt;medicare.ip.bene_id</title>
<path fill="none" stroke="goldenrod" stroke-width="6" d="M142.12,-318.58C142.12,-310.18 142.12,-301.35 142.12,-292.56"/>
<polygon fill="goldenrod" stroke="goldenrod" stroke-width="6" points="147.38,-292.8 142.13,-282.8 136.88,-292.8 147.38,-292.8"/>
</g>
<!-- medicare.enrollments.bene_id -->
<g id="node4" class="node">
<title>medicare.enrollments.bene_id</title>
<g id="a_node4"><a xlink:href="../medicare.enrollments/bene_id.html" xlink:title="&lt;TABLE&gt;" target="_blank">
<polygon fill="none" stroke="black" points="586.25,-276 302,-276 302,-156.5 586.25,-156.5 586.25,-276"/>
<text text-anchor="start" x="356.38" y="-254.7" font-family="Times,serif" font-weight="bold" font-size="14.00">medicare.enrollments.bene_id</text>
<text text-anchor="start" x="338" y="-208.2" font-family="Times,serif" font-size="14.00">Encrypted 723 Beneficiary ID (Unique</text>
<text text-anchor="start" x="430.62" y="-191.7" font-family="Times,serif" font-size="14.00">Key)</text>
<polygon fill="none" stroke="black" points="310,-160.5 310,-272 578.25,-272 578.25,-160.5 310,-160.5"/>
</a>
</g>
</g>
<!-- medicare.enrollments.bene_id&#45;&gt;medicare.admissions.bene_id -->
<g id="edge3" class="edge">
<title>medicare.enrollments.bene_id&#45;&gt;medicare.admissions.bene_id</title>
<path fill="none" stroke="darkorchid" stroke-width="2" d="M386.61,-156.4C377.86,-147.45 368.76,-138.14 359.84,-129.01"/>
<polygon fill="darkorchid" stroke="darkorchid" stroke-width="2" points="362.59,-126.82 353.1,-122.11 357.59,-131.71 362.59,-126.82"/>
<text text-anchor="middle" x="387.62" y="-132.95" font-family="Times,serif" font-size="14.00">Copied</text>
</g>
<!-- medicare._enrollments.bene_id -->
<g id="node5" class="node">
<title>medicare._enrollments.bene_id</title>
<g id="a_node5"><a xlink:href="../medicare._enrollments/bene_id.html" xlink:title="&lt;TABLE&gt;" target="_blank">
<polygon fill="none" stroke="black" points="489.25,-570 205,-570 205,-450.5 489.25,-450.5 489.25,-570"/>
<text text-anchor="start" x="256" y="-548.7" font-family="Times,serif" font-weight="bold" font-size="14.00">medicare._enrollments.bene_id</text>
<text text-anchor="start" x="241" y="-502.2" font-family="Times,serif" font-size="14.00">Encrypted 723 Beneficiary ID (Unique</text>
<text text-anchor="start" x="333.62" y="-485.7" font-family="Times,serif" font-size="14.00">Key)</text>
<polygon fill="none" stroke="black" points="213,-454.5 213,-566 481.25,-566 481.25,-454.5 213,-454.5"/>
</a>
</g>
</g>
<!-- medicare._enrollments.bene_id&#45;&gt;medicare.enrollments.bene_id -->
<g id="edge4" class="edge">
<title>medicare._enrollments.bene_id&#45;&gt;medicare.enrollments.bene_id</title>
<path fill="none" stroke="black" d="M340.91,-450.33C338.99,-410.13 341.06,-356.51 359.12,-313 363.07,-303.5 368.36,-294.31 374.39,-285.62"/>
<polygon fill="black" stroke="black" points="377.17,-287.75 380.29,-277.62 371.54,-283.59 377.17,-287.75"/>
<text text-anchor="middle" x="378.62" y="-367.7" font-family="Times,serif" font-size="14.00">Copied</text>
</g>
<!-- medicare._ps.bene_id -->
<g id="node6" class="node">
<title>medicare._ps.bene_id</title>
<g id="a_node6"><a xlink:href="../medicare._ps/bene_id.html" xlink:title="&lt;TABLE&gt;" target="_blank">
<polygon fill="none" stroke="black" points="499.25,-864 215,-864 215,-744.5 499.25,-744.5 499.25,-864"/>
<text text-anchor="start" x="294.12" y="-842.7" font-family="Times,serif" font-weight="bold" font-size="14.00">medicare._ps.bene_id</text>
<text text-anchor="start" x="251" y="-796.2" font-family="Times,serif" font-size="14.00">Encrypted 723 Beneficiary ID (Unique</text>
<text text-anchor="start" x="343.62" y="-779.7" font-family="Times,serif" font-size="14.00">Key)</text>
<polygon fill="none" stroke="black" points="223,-748.5 223,-860 491.25,-860 491.25,-748.5 223,-748.5"/>
</a>
</g>
</g>
<!-- medicare._ps.bene_id&#45;&gt;medicare._enrollments.bene_id -->
<g id="edge5" class="edge">
<title>medicare._ps.bene_id&#45;&gt;medicare._enrollments.bene_id</title>
<path fill="none" stroke="blue" stroke-width="5" d="M355.1,-744.16C353.54,-698.64 351.38,-635.41 349.7,-586.31"/>
<polygon fill="blue" stroke="blue" stroke-width="5" points="354.07,-586.33 349.36,-576.49 345.33,-586.63 354.07,-586.33"/>
<text text-anchor="middle" x="468.5" y="-720.95" font-family="Times,serif" font-size="14.00">	 &#160;Aggregated On bene_id, year, state</text>
</g>
<!-- medicare._beneficiaries.bene_id -->
<g id="node10" class="node">
<title>medicare._beneficiaries.bene_id</title>
<g id="a_node10"><a xlink:href="../medicare._beneficiaries/bene_id.html" xlink:title="&lt;TABLE&gt;" target="_blank">
<polygon fill="none" stroke="black" points="657.25,-707.5 373,-707.5 373,-588 657.25,-588 657.25,-707.5"/>
<text text-anchor="start" x="422.12" y="-686.2" font-family="Times,serif" font-weight="bold" font-size="14.00">medicare._beneficiaries.bene_id</text>
<text text-anchor="start" x="409" y="-639.7" font-family="Times,serif" font-size="14.00">Encrypted 723 Beneficiary ID (Unique</text>
<text text-anchor="start" x="501.62" y="-623.2" font-family="Times,serif" font-size="14.00">Key)</text>
<polygon fill="none" stroke="black" points="381,-592 381,-703.5 649.25,-703.5 649.25,-592 381,-592"/>
</a>
</g>
</g>
<!-- medicare._ps.bene_id&#45;&gt;medicare._beneficiaries.bene_id -->
<g id="edge10" class="edge">
<title>medicare._ps.bene_id&#45;&gt;medicare._beneficiaries.bene_id</title>
<path fill="none" stroke="blue" stroke-width="5" d="M417.31,-744.4C425.7,-736.19 434.4,-727.69 442.98,-719.29"/>
<polygon fill="blue" stroke="blue" stroke-width="5" points="446.03,-722.43 450.13,-712.31 439.92,-716.17 446.03,-722.43"/>
<text text-anchor="middle" x="519.38" y="-720.95" font-family="Times,serif" font-size="14.00">	 &#160;Aggregated On bene_id</text>
</g>
<!-- medicare.ps.bene_id -->
<g id="node7" class="node">
<title>medicare.ps.bene_id</title>
<g id="a_node7"><a xlink:href="../medicare.ps/bene_id.html" xlink:title="&lt;TABLE&gt;" target="_blank">
<polygon fill="none" stroke="black" points="499.25,-1020.5 215,-1020.5 215,-901 499.25,-901 499.25,-1020.5"/>
<text text-anchor="start" x="297.5" y="-999.2" font-family="Times,serif" font-weight="bold" font-size="14.00">medicare.ps.bene_id</text>
<text text-anchor="start" x="251" y="-952.7" font-family="Times,serif" font-size="14.00">Encrypted 723 Beneficiary ID (Unique</text>
<text text-anchor="start" x="343.62" y="-936.2" font-family="Times,serif" font-size="14.00">Key)</text>
<polygon fill="none" stroke="black" points="223,-905 223,-1016.5 491.25,-1016.5 491.25,-905 223,-905"/>
</a>
</g>
</g>
<!-- medicare.ps.bene_id&#45;&gt;medicare._ps.bene_id -->
<g id="edge6" class="edge">
<title>medicare.ps.bene_id&#45;&gt;medicare._ps.bene_id</title>
<path fill="none" stroke="black" d="M354.58,-900.67C354.4,-894.71 354.24,-888.73 354.12,-883 354.08,-880.53 354.05,-878.02 354.04,-875.48"/>
<polygon fill="black" stroke="black" points="357.54,-875.79 354.12,-865.76 350.54,-875.74 357.54,-875.79"/>
<text text-anchor="middle" x="373.62" y="-877.45" font-family="Times,serif" font-size="14.00">Copied</text>
</g>
<!-- medicare.ps.bene_id&#45;&gt;medicare._ps.bene_id -->
<g id="edge11" class="edge">
<title>medicare.ps.bene_id&#45;&gt;medicare._ps.bene_id</title>
<path fill="none" stroke="black" d="M357.12,-900.9C357.12,-892.69 357.12,-884.19 357.12,-875.79"/>
<polygon fill="black" stroke="black" points="360.63,-875.96 357.13,-865.96 353.63,-875.96 360.63,-875.96"/>
<text text-anchor="middle" x="376.62" y="-877.45" font-family="Times,serif" font-size="14.00">Copied</text>
</g>
<!-- medicare.ps.bene_id_parent -->
<g id="node8" class="node">
<title>medicare.ps.bene_id_parent</title>
<g id="a_node8"><a xlink:href="../medicare.ps/bene_id.html" xlink:title="8 incoming links (columns)" target="_blank">
<path fill="yellow" stroke="black" d="M465.12,-1155.68C465.12,-1161.1 416.72,-1165.5 357.12,-1165.5 297.53,-1165.5 249.12,-1161.1 249.12,-1155.68 249.12,-1155.68 249.12,-1067.32 249.12,-1067.32 249.12,-1061.9 297.53,-1057.5 357.12,-1057.5 416.72,-1057.5 465.12,-1061.9 465.12,-1067.32 465.12,-1067.32 465.12,-1155.68 465.12,-1155.68"/>
<path fill="none" stroke="black" d="M465.12,-1155.68C465.12,-1150.26 416.72,-1145.86 357.12,-1145.86 297.53,-1145.86 249.12,-1150.26 249.12,-1155.68"/>
<text text-anchor="middle" x="357.12" y="-1106.45" font-family="Times,serif" font-size="14.00">8 incoming links (columns)</text>
</a>
</g>
</g>
<!-- medicare.ps.bene_id_parent&#45;&gt;medicare.ps.bene_id -->
<g id="edge7" class="edge">
<title>medicare.ps.bene_id_parent&#45;&gt;medicare.ps.bene_id</title>
<path fill="none" stroke="goldenrod" stroke-width="6" d="M350.62,-1057.22C350.47,-1050.7 350.38,-1043.94 350.38,-1037.18"/>
<polygon fill="goldenrod" stroke="goldenrod" stroke-width="6" points="355.62,-1037.46 350.45,-1027.42 345.12,-1037.38 355.62,-1037.46"/>
</g>
<!-- medicare.ps.bene_id_parent&#45;&gt;medicare.ps.bene_id -->
<g id="edge12" class="edge">
<title>medicare.ps.bene_id_parent&#45;&gt;medicare.ps.bene_id</title>
<path fill="none" stroke="goldenrod" stroke-width="6" d="M363.63,-1057.22C363.78,-1050.7 363.87,-1043.94 363.87,-1037.18"/>
<polygon fill="goldenrod" stroke="goldenrod" stroke-width="6" points="369.13,-1037.38 363.8,-1027.42 358.63,-1037.46 369.13,-1037.38"/>
</g>
<!-- medicare.beneficiaries.bene_id -->
<g id="node9" class="node">
<title>medicare.beneficiaries.bene_id</title>
<g id="a_node9"><a xlink:href="../medicare.beneficiaries/bene_id.html" xlink:title="&lt;TABLE&gt;" target="_blank">
<polygon fill="none" stroke="black" points="653.25,-432.5 369,-432.5 369,-313 653.25,-313 653.25,-432.5"/>
<text text-anchor="start" x="421.5" y="-411.2" font-family="Times,serif" font-weight="bold" font-size="14.00">medicare.beneficiaries.bene_id</text>
<text text-anchor="start" x="405" y="-364.7" font-family="Times,serif" font-size="14.00">Encrypted 723 Beneficiary ID (Unique</text>
<text text-anchor="start" x="497.62" y="-348.2" font-family="Times,serif" font-size="14.00">Key)</text>
<polygon fill="none" stroke="black" points="377,-317 377,-428.5 645.25,-428.5 645.25,-317 377,-317"/>
</a>
</g>
</g>
<!-- medicare.beneficiaries.bene_id&#45;&gt;medicare.enrollments.bene_id -->
<g id="edge8" class="edge">
<title>medicare.beneficiaries.bene_id&#45;&gt;medicare.enrollments.bene_id</title>
<path fill="none" stroke="darkorchid" stroke-width="2" d="M485.6,-312.9C482.13,-304.88 478.53,-296.58 474.97,-288.37"/>
<polygon fill="darkorchid" stroke="darkorchid" stroke-width="2" points="478.19,-287.01 471,-279.23 471.77,-289.79 478.19,-287.01"/>
<text text-anchor="middle" x="496.62" y="-289.45" font-family="Times,serif" font-size="14.00">Copied</text>
</g>
<!-- medicare._beneficiaries.bene_id&#45;&gt;medicare.beneficiaries.bene_id -->
<g id="edge9" class="edge">
<title>medicare._beneficiaries.bene_id&#45;&gt;medicare.beneficiaries.bene_id</title>
<path fill="none" stroke="black" d="M514.26,-587.51C513.64,-545.39 512.81,-488.63 512.16,-444.18"/>
<polygon fill="black" stroke="black" points="515.66,-444.33 512.01,-434.38 508.66,-444.43 515.66,-444.33"/>
<text text-anchor="middle" x="532.62" y="-505.2" font-family="Times,serif" font-size="14.00">Copied</text>
</g>
</g>
</svg>
