<?xml version="1.0" encoding="UTF-8" standalone="no"?>
<!DOCTYPE svg PUBLIC "-//W3C//DTD SVG 1.1//EN"
 "http://www.w3.org/Graphics/SVG/1.1/DTD/svg11.dtd">
<!-- Generated by graphviz version 10.0.1 (20240210.2158)
 -->
<!-- Pages: 1 -->
<svg width="316pt" height="561pt"
 viewBox="0.00 0.00 315.50 561.00" xmlns="http://www.w3.org/2000/svg" xmlns:xlink="http://www.w3.org/1999/xlink">
<g id="graph0" class="graph" transform="scale(1 1) rotate(0) translate(4 557)">
<polygon fill="white" stroke="none" points="-4,4 -4,-557 311.5,-557 311.5,4 -4,4"/>
<!-- medicare.admissions.bene_prmry_pyr_amt -->
<g id="node1" class="node">
<title>medicare.admissions.bene_prmry_pyr_amt</title>
<g id="a_node1"><a xlink:href="../medicare.admissions/bene_prmry_pyr_amt.html" xlink:title="&lt;TABLE&gt;" target="_blank">
<polygon fill="none" stroke="black" points="307.5,-185.5 0,-185.5 0,0 307.5,0 307.5,-185.5"/>
<text text-anchor="start" x="26.62" y="-164.2" font-family="Times,serif" font-weight="bold" font-size="14.00">medicare.admissions.bene_prmry_pyr_amt</text>
<text text-anchor="start" x="36" y="-117.7" font-family="Times,serif" font-size="14.00">The amount of payment (rounded to whole</text>
<text text-anchor="start" x="71.25" y="-101.2" font-family="Times,serif" font-size="14.00">dollars) made on behalf of the</text>
<text text-anchor="start" x="53.62" y="-84.7" font-family="Times,serif" font-size="14.00">beneficiary by a primary payer other</text>
<text text-anchor="start" x="39.75" y="-68.2" font-family="Times,serif" font-size="14.00">than Medicare, which has been applied to</text>
<text text-anchor="start" x="52.12" y="-51.7" font-family="Times,serif" font-size="14.00">the covered Medicare charges for the</text>
<text text-anchor="start" x="141.38" y="-35.2" font-family="Times,serif" font-size="14.00">stay.</text>
<polygon fill="none" stroke="black" points="8,-4 8,-181.5 299.5,-181.5 299.5,-4 8,-4"/>
</a>
</g>
</g>
<!-- medicare.ip.bene_prmry_pyr_amt -->
<g id="node2" class="node">
<title>medicare.ip.bene_prmry_pyr_amt</title>
<g id="a_node2"><a xlink:href="../medicare.ip/bene_prmry_pyr_amt.html" xlink:title="&lt;TABLE&gt;" target="_blank">
<polygon fill="none" stroke="black" points="307.5,-408 0,-408 0,-222.5 307.5,-222.5 307.5,-408"/>
<text text-anchor="start" x="52.88" y="-386.7" font-family="Times,serif" font-weight="bold" font-size="14.00">medicare.ip.bene_prmry_pyr_amt</text>
<text text-anchor="start" x="36" y="-340.2" font-family="Times,serif" font-size="14.00">The amount of payment (rounded to whole</text>
<text text-anchor="start" x="71.25" y="-323.7" font-family="Times,serif" font-size="14.00">dollars) made on behalf of the</text>
<text text-anchor="start" x="53.62" y="-307.2" font-family="Times,serif" font-size="14.00">beneficiary by a primary payer other</text>
<text text-anchor="start" x="39.75" y="-290.7" font-family="Times,serif" font-size="14.00">than Medicare, which has been applied to</text>
<text text-anchor="start" x="52.12" y="-274.2" font-family="Times,serif" font-size="14.00">the covered Medicare charges for the</text>
<text text-anchor="start" x="141.38" y="-257.7" font-family="Times,serif" font-size="14.00">stay.</text>
<polygon fill="none" stroke="black" points="8,-226.5 8,-404 299.5,-404 299.5,-226.5 8,-226.5"/>
</a>
</g>
</g>
<!-- medicare.ip.bene_prmry_pyr_amt&#45;&gt;medicare.admissions.bene_prmry_pyr_amt -->
<g id="edge1" class="edge">
<title>medicare.ip.bene_prmry_pyr_amt&#45;&gt;medicare.admissions.bene_prmry_pyr_amt</title>
<path fill="none" stroke="black" d="M153.75,-222.02C153.75,-213.82 153.75,-205.49 153.75,-197.21"/>
<polygon fill="black" stroke="black" points="157.25,-197.48 153.75,-187.48 150.25,-197.48 157.25,-197.48"/>
<text text-anchor="middle" x="173.25" y="-198.95" font-family="Times,serif" font-size="14.00">Copied</text>
</g>
<!-- medicare.ip.bene_prmry_pyr_amt_parent -->
<g id="node3" class="node">
<title>medicare.ip.bene_prmry_pyr_amt_parent</title>
<g id="a_node3"><a xlink:href="../medicare.ip/bene_prmry_pyr_amt.html" xlink:title="8 incoming links (columns)" target="_blank">
<path fill="yellow" stroke="black" d="M261.75,-543.18C261.75,-548.6 213.34,-553 153.75,-553 94.16,-553 45.75,-548.6 45.75,-543.18 45.75,-543.18 45.75,-454.82 45.75,-454.82 45.75,-449.4 94.16,-445 153.75,-445 213.34,-445 261.75,-449.4 261.75,-454.82 261.75,-454.82 261.75,-543.18 261.75,-543.18"/>
<path fill="none" stroke="black" d="M261.75,-543.18C261.75,-537.76 213.34,-533.36 153.75,-533.36 94.16,-533.36 45.75,-537.76 45.75,-543.18"/>
<text text-anchor="middle" x="153.75" y="-493.95" font-family="Times,serif" font-size="14.00">8 incoming links (columns)</text>
</a>
</g>
</g>
<!-- medicare.ip.bene_prmry_pyr_amt_parent&#45;&gt;medicare.ip.bene_prmry_pyr_amt -->
<g id="edge2" class="edge">
<title>medicare.ip.bene_prmry_pyr_amt_parent&#45;&gt;medicare.ip.bene_prmry_pyr_amt</title>
<path fill="none" stroke="goldenrod" stroke-width="6" d="M153.75,-444.94C153.75,-438.46 153.75,-431.66 153.75,-424.73"/>
<polygon fill="goldenrod" stroke="goldenrod" stroke-width="6" points="159,-424.81 153.75,-414.81 148.5,-424.81 159,-424.81"/>
</g>
</g>
</svg>
