<?xml version="1.0" encoding="UTF-8" standalone="no"?>
<!DOCTYPE svg PUBLIC "-//W3C//DTD SVG 1.1//EN"
 "http://www.w3.org/Graphics/SVG/1.1/DTD/svg11.dtd">
<!-- Generated by graphviz version 10.0.1 (20240210.2158)
 -->
<!-- Pages: 1 -->
<svg width="1684pt" height="424pt"
 viewBox="0.00 0.00 1684.25 424.00" xmlns="http://www.w3.org/2000/svg" xmlns:xlink="http://www.w3.org/1999/xlink">
<g id="graph0" class="graph" transform="scale(1 1) rotate(0) translate(4 420)">
<polygon fill="white" stroke="none" points="-4,4 -4,-420 1680.25,-420 1680.25,4 -4,4"/>
<!-- medicare.ps.bene_id -->
<g id="node1" class="node">
<title>medicare.ps.bene_id</title>
<g id="a_node1"><a xlink:href="../medicare.ps/bene_id.html" xlink:title="&lt;TABLE&gt;" target="_blank">
<polygon fill="none" stroke="black" points="950.25,-119.5 666,-119.5 666,0 950.25,0 950.25,-119.5"/>
<text text-anchor="start" x="748.5" y="-98.2" font-family="Times,serif" font-weight="bold" font-size="14.00">medicare.ps.bene_id</text>
<text text-anchor="start" x="702" y="-51.7" font-family="Times,serif" font-size="14.00">Encrypted 723 Beneficiary ID (Unique</text>
<text text-anchor="start" x="794.62" y="-35.2" font-family="Times,serif" font-size="14.00">Key)</text>
<polygon fill="none" stroke="black" points="674,-4 674,-115.5 942.25,-115.5 942.25,-4 674,-4"/>
</a>
</g>
</g>
<!-- cms.mbsf_ab_2011.BENE_ID -->
<g id="node2" class="node">
<title>cms.mbsf_ab_2011.BENE_ID</title>
<g id="a_node2"><a xlink:href="../cms.mbsf_ab_2011/BENE_ID.html" xlink:title="&lt;TABLE&gt;" target="_blank">
<polygon fill="none" stroke="black" points="284.25,-416 0,-416 0,-296.5 284.25,-296.5 284.25,-416"/>
<text text-anchor="start" x="55.88" y="-394.7" font-family="Times,serif" font-weight="bold" font-size="14.00">cms.mbsf_ab_2011.BENE_ID</text>
<text text-anchor="start" x="36" y="-348.2" font-family="Times,serif" font-size="14.00">Encrypted 723 Beneficiary ID (Unique</text>
<text text-anchor="start" x="128.62" y="-331.7" font-family="Times,serif" font-size="14.00">Key)</text>
<polygon fill="none" stroke="black" points="8,-300.5 8,-412 276.25,-412 276.25,-300.5 8,-300.5"/>
</a>
</g>
</g>
<!-- cms.mbsf_ab_2011.BENE_ID&#45;&gt;medicare.ps.bene_id -->
<g id="edge5" class="edge">
<title>cms.mbsf_ab_2011.BENE_ID&#45;&gt;medicare.ps.bene_id</title>
<path fill="none" stroke="chocolate" stroke-width="2" d="M216.41,-296.14C272.7,-253.34 353.23,-196.26 430.12,-156.5 499.19,-120.79 582.37,-97.85 653.1,-83.41"/>
<polygon fill="chocolate" stroke="chocolate" stroke-width="2" points="653.61,-86.88 662.73,-81.49 652.24,-80.01 653.61,-86.88"/>
<text text-anchor="middle" x="445.5" y="-202.95" font-family="Times,serif" font-size="14.00">union</text>
</g>
<!-- cms.mbsf_ab_2012.BENE_ID -->
<g id="node3" class="node">
<title>cms.mbsf_ab_2012.BENE_ID</title>
<g id="a_node3"><a xlink:href="../cms.mbsf_ab_2012/BENE_ID.html" xlink:title="&lt;TABLE&gt;" target="_blank">
<polygon fill="none" stroke="black" points="586.25,-416 302,-416 302,-296.5 586.25,-296.5 586.25,-416"/>
<text text-anchor="start" x="357.5" y="-394.7" font-family="Times,serif" font-weight="bold" font-size="14.00">cms.mbsf_ab_2012.BENE_ID</text>
<text text-anchor="start" x="338" y="-348.2" font-family="Times,serif" font-size="14.00">Encrypted 723 Beneficiary ID (Unique</text>
<text text-anchor="start" x="430.62" y="-331.7" font-family="Times,serif" font-size="14.00">Key)</text>
<polygon fill="none" stroke="black" points="310,-300.5 310,-412 578.25,-412 578.25,-300.5 310,-300.5"/>
</a>
</g>
</g>
<!-- cms.mbsf_ab_2012.BENE_ID&#45;&gt;medicare.ps.bene_id -->
<g id="edge6" class="edge">
<title>cms.mbsf_ab_2012.BENE_ID&#45;&gt;medicare.ps.bene_id</title>
<path fill="none" stroke="chocolate" stroke-width="2" d="M435.57,-296.18C432.64,-253.4 435.83,-196.33 465.12,-156.5 488.47,-124.77 573.56,-100.9 653.15,-84.93"/>
<polygon fill="chocolate" stroke="chocolate" stroke-width="2" points="653.75,-88.38 662.89,-83.02 652.4,-81.51 653.75,-88.38"/>
<text text-anchor="middle" x="480.5" y="-202.95" font-family="Times,serif" font-size="14.00">union</text>
</g>
<!-- cms.mbsf_ab_2013.BENE_ID -->
<g id="node4" class="node">
<title>cms.mbsf_ab_2013.BENE_ID</title>
<g id="a_node4"><a xlink:href="../cms.mbsf_ab_2013/BENE_ID.html" xlink:title="&lt;TABLE&gt;" target="_blank">
<polygon fill="none" stroke="black" points="1014.25,-416 730,-416 730,-296.5 1014.25,-296.5 1014.25,-416"/>
<text text-anchor="start" x="785.5" y="-394.7" font-family="Times,serif" font-weight="bold" font-size="14.00">cms.mbsf_ab_2013.BENE_ID</text>
<text text-anchor="start" x="766" y="-348.2" font-family="Times,serif" font-size="14.00">Encrypted 723 Beneficiary ID (Unique</text>
<text text-anchor="start" x="858.62" y="-331.7" font-family="Times,serif" font-size="14.00">Key)</text>
<polygon fill="none" stroke="black" points="738,-300.5 738,-412 1006.25,-412 1006.25,-300.5 738,-300.5"/>
</a>
</g>
</g>
<!-- cms.mbsf_ab_2013.BENE_ID&#45;&gt;medicare.ps.bene_id -->
<g id="edge7" class="edge">
<title>cms.mbsf_ab_2013.BENE_ID&#45;&gt;medicare.ps.bene_id</title>
<path fill="none" stroke="chocolate" stroke-width="2" d="M729.68,-323.83C624.37,-299.92 497.91,-269.47 490.12,-259.5 461.96,-223.41 462.82,-193.24 490.12,-156.5 510.89,-128.56 582.82,-105.68 653.02,-89.29"/>
<polygon fill="chocolate" stroke="chocolate" stroke-width="2" points="653.71,-92.73 662.68,-87.09 652.15,-85.9 653.71,-92.73"/>
<text text-anchor="middle" x="505.5" y="-202.95" font-family="Times,serif" font-size="14.00">union</text>
</g>
<!-- cms.mbsf_abcd_2015.BENE_ID -->
<g id="node6" class="node">
<title>cms.mbsf_abcd_2015.BENE_ID</title>
<g id="a_node6"><a xlink:href="../cms.mbsf_abcd_2015/BENE_ID.html" xlink:title="&lt;TABLE&gt;" target="_blank">
<polygon fill="none" stroke="black" points="736.25,-259.5 500,-259.5 500,-156.5 736.25,-156.5 736.25,-259.5"/>
<text text-anchor="start" x="524.75" y="-238.2" font-family="Times,serif" font-weight="bold" font-size="14.00">cms.mbsf_abcd_2015.BENE_ID</text>
<text text-anchor="start" x="536" y="-191.7" font-family="Times,serif" font-size="14.00">Encrypted 723 Beneficiary ID</text>
<polygon fill="none" stroke="black" points="508,-160.5 508,-255.5 728.25,-255.5 728.25,-160.5 508,-160.5"/>
</a>
</g>
</g>
<!-- cms.mbsf_ab_2013.BENE_ID&#45;&gt;cms.mbsf_abcd_2015.BENE_ID -->
<!-- cms.mbsf_abcd_2016.BENE_ID -->
<g id="node7" class="node">
<title>cms.mbsf_abcd_2016.BENE_ID</title>
<g id="a_node7"><a xlink:href="../cms.mbsf_abcd_2016/BENE_ID.html" xlink:title="&lt;TABLE&gt;" target="_blank">
<polygon fill="none" stroke="black" points="990.25,-259.5 754,-259.5 754,-156.5 990.25,-156.5 990.25,-259.5"/>
<text text-anchor="start" x="778.75" y="-238.2" font-family="Times,serif" font-weight="bold" font-size="14.00">cms.mbsf_abcd_2016.BENE_ID</text>
<text text-anchor="start" x="790" y="-191.7" font-family="Times,serif" font-size="14.00">Encrypted 723 Beneficiary ID</text>
<polygon fill="none" stroke="black" points="762,-160.5 762,-255.5 982.25,-255.5 982.25,-160.5 762,-160.5"/>
</a>
</g>
</g>
<!-- cms.mbsf_ab_2013.BENE_ID&#45;&gt;cms.mbsf_abcd_2016.BENE_ID -->
<!-- cms.mbsf_abcd_2017.BENE_ID -->
<g id="node8" class="node">
<title>cms.mbsf_abcd_2017.BENE_ID</title>
<g id="a_node8"><a xlink:href="../cms.mbsf_abcd_2017/BENE_ID.html" xlink:title="&lt;TABLE&gt;" target="_blank">
<polygon fill="none" stroke="black" points="1244.25,-259.5 1008,-259.5 1008,-156.5 1244.25,-156.5 1244.25,-259.5"/>
<text text-anchor="start" x="1032.75" y="-238.2" font-family="Times,serif" font-weight="bold" font-size="14.00">cms.mbsf_abcd_2017.BENE_ID</text>
<text text-anchor="start" x="1044" y="-191.7" font-family="Times,serif" font-size="14.00">Encrypted 723 Beneficiary ID</text>
<polygon fill="none" stroke="black" points="1016,-160.5 1016,-255.5 1236.25,-255.5 1236.25,-160.5 1016,-160.5"/>
</a>
</g>
</g>
<!-- cms.mbsf_ab_2013.BENE_ID&#45;&gt;cms.mbsf_abcd_2017.BENE_ID -->
<!-- cms.mbsf_abcd_2018.BENE_ID -->
<g id="node9" class="node">
<title>cms.mbsf_abcd_2018.BENE_ID</title>
<g id="a_node9"><a xlink:href="../cms.mbsf_abcd_2018/BENE_ID.html" xlink:title="&lt;TABLE&gt;" target="_blank">
<polygon fill="none" stroke="black" points="1498.25,-259.5 1262,-259.5 1262,-156.5 1498.25,-156.5 1498.25,-259.5"/>
<text text-anchor="start" x="1286.75" y="-238.2" font-family="Times,serif" font-weight="bold" font-size="14.00">cms.mbsf_abcd_2018.BENE_ID</text>
<text text-anchor="start" x="1298" y="-191.7" font-family="Times,serif" font-size="14.00">Encrypted 723 Beneficiary ID</text>
<polygon fill="none" stroke="black" points="1270,-160.5 1270,-255.5 1490.25,-255.5 1490.25,-160.5 1270,-160.5"/>
</a>
</g>
</g>
<!-- cms.mbsf_ab_2013.BENE_ID&#45;&gt;cms.mbsf_abcd_2018.BENE_ID -->
<!-- cms.mbsf_ab_2014.BENE_ID -->
<g id="node5" class="node">
<title>cms.mbsf_ab_2014.BENE_ID</title>
<g id="a_node5"><a xlink:href="../cms.mbsf_ab_2014/BENE_ID.html" xlink:title="&lt;TABLE&gt;" target="_blank">
<polygon fill="none" stroke="black" points="1676.25,-416 1392,-416 1392,-296.5 1676.25,-296.5 1676.25,-416"/>
<text text-anchor="start" x="1447.5" y="-394.7" font-family="Times,serif" font-weight="bold" font-size="14.00">cms.mbsf_ab_2014.BENE_ID</text>
<text text-anchor="start" x="1428" y="-348.2" font-family="Times,serif" font-size="14.00">Encrypted 723 Beneficiary ID (Unique</text>
<text text-anchor="start" x="1520.62" y="-331.7" font-family="Times,serif" font-size="14.00">Key)</text>
<polygon fill="none" stroke="black" points="1400,-300.5 1400,-412 1668.25,-412 1668.25,-300.5 1400,-300.5"/>
</a>
</g>
</g>
<!-- cms.mbsf_ab_2014.BENE_ID&#45;&gt;medicare.ps.bene_id -->
<g id="edge8" class="edge">
<title>cms.mbsf_ab_2014.BENE_ID&#45;&gt;medicare.ps.bene_id</title>
<path fill="none" stroke="chocolate" stroke-width="2" d="M1543.39,-296.16C1546.76,-251.65 1542.93,-192.35 1507.12,-156.5 1433.1,-82.4 1146.03,-64.57 963.59,-60.9"/>
<polygon fill="chocolate" stroke="chocolate" stroke-width="2" points="963.73,-57.4 953.67,-60.72 963.6,-64.4 963.73,-57.4"/>
<text text-anchor="middle" x="1558.5" y="-202.95" font-family="Times,serif" font-size="14.00">union</text>
</g>
<!-- cms.mbsf_abcd_2015.BENE_ID&#45;&gt;medicare.ps.bene_id -->
<g id="edge9" class="edge">
<title>cms.mbsf_abcd_2015.BENE_ID&#45;&gt;medicare.ps.bene_id</title>
<path fill="none" stroke="chocolate" stroke-width="2" d="M684.31,-156.05C696.31,-146.82 708.99,-137.06 721.47,-127.45"/>
<polygon fill="chocolate" stroke="chocolate" stroke-width="2" points="723.24,-130.51 729.03,-121.63 718.97,-124.96 723.24,-130.51"/>
<text text-anchor="middle" x="723.5" y="-132.95" font-family="Times,serif" font-size="14.00">union</text>
</g>
<!-- cms.mbsf_abcd_2016.BENE_ID&#45;&gt;medicare.ps.bene_id -->
<g id="edge10" class="edge">
<title>cms.mbsf_abcd_2016.BENE_ID&#45;&gt;medicare.ps.bene_id</title>
<path fill="none" stroke="chocolate" stroke-width="2" d="M849.92,-156.26C846.44,-148.3 842.78,-139.94 839.14,-131.63"/>
<polygon fill="chocolate" stroke="chocolate" stroke-width="2" points="842.46,-130.47 835.24,-122.71 836.04,-133.28 842.46,-130.47"/>
<text text-anchor="middle" x="857.5" y="-132.95" font-family="Times,serif" font-size="14.00">union</text>
</g>
<!-- cms.mbsf_abcd_2017.BENE_ID&#45;&gt;medicare.ps.bene_id -->
<g id="edge11" class="edge">
<title>cms.mbsf_abcd_2017.BENE_ID&#45;&gt;medicare.ps.bene_id</title>
<path fill="none" stroke="chocolate" stroke-width="2" d="M1015.35,-156.05C993.75,-146.12 970.84,-135.58 948.43,-125.28"/>
<polygon fill="chocolate" stroke="chocolate" stroke-width="2" points="950.07,-122.18 939.52,-121.18 947.14,-128.54 950.07,-122.18"/>
<text text-anchor="middle" x="992.5" y="-132.95" font-family="Times,serif" font-size="14.00">union</text>
</g>
<!-- cms.mbsf_abcd_2018.BENE_ID&#45;&gt;medicare.ps.bene_id -->
<g id="edge12" class="edge">
<title>cms.mbsf_abcd_2018.BENE_ID&#45;&gt;medicare.ps.bene_id</title>
<path fill="none" stroke="chocolate" stroke-width="2" d="M1261.71,-159.19C1258.83,-158.26 1255.96,-157.36 1253.12,-156.5 1158.27,-127.66 1049.52,-104.09 963.26,-87.55"/>
<polygon fill="chocolate" stroke="chocolate" stroke-width="2" points="964.16,-84.16 953.68,-85.73 962.85,-91.04 964.16,-84.16"/>
<text text-anchor="middle" x="1203.5" y="-132.95" font-family="Times,serif" font-size="14.00">union</text>
</g>
</g>
</svg>
