<?xml version="1.0" encoding="UTF-8" standalone="no"?>
<!DOCTYPE svg PUBLIC "-//W3C//DTD SVG 1.1//EN"
 "http://www.w3.org/Graphics/SVG/1.1/DTD/svg11.dtd">
<!-- Generated by graphviz version 10.0.1 (20240210.2158)
 -->
<!-- Pages: 1 -->
<svg width="665pt" height="1437pt"
 viewBox="0.00 0.00 665.25 1437.00" xmlns="http://www.w3.org/2000/svg" xmlns:xlink="http://www.w3.org/1999/xlink">
<g id="graph0" class="graph" transform="scale(1 1) rotate(0) translate(4 1433)">
<polygon fill="white" stroke="none" points="-4,4 -4,-1433 661.25,-1433 661.25,4 -4,4"/>
<!-- medicare.qc_adm_union.bene -->
<g id="node1" class="node">
<title>medicare.qc_adm_union.bene</title>
<g id="a_node1"><a xlink:href="../medicare.qc_adm_union/bene.html" xlink:title="&lt;TABLE&gt;" target="_blank">
<polygon fill="none" stroke="black" points="483,-226.5 103.25,-226.5 103.25,0 483,0 483,-226.5"/>
<text text-anchor="start" x="205.75" y="-205.2" font-family="Times,serif" font-weight="bold" font-size="14.00">medicare.qc_adm_union.bene</text>
<text text-anchor="start" x="139.25" y="-158.7" font-family="Times,serif" font-size="14.00">HLL hash (see https://en.wikipedia.org/w</text>
<text text-anchor="start" x="158.38" y="-142.2" font-family="Times,serif" font-size="14.00">iki/HyperLogLog). Can be used to</text>
<text text-anchor="start" x="161.75" y="-125.7" font-family="Times,serif" font-size="14.00">calculate number of beneficiaries</text>
<text text-anchor="start" x="144.5" y="-109.2" font-family="Times,serif" font-size="14.00">satisfying a certain given condition Use</text>
<text text-anchor="start" x="186.5" y="-92.7" font-family="Times,serif" font-size="14.00">#(hll_add_agg(bene)) or</text>
<text text-anchor="start" x="158" y="-76.2" font-family="Times,serif" font-size="14.00">hll_cardinality(hll_add_agg(bene))</text>
<text text-anchor="start" x="223.62" y="-59.7" font-family="Times,serif" font-size="14.00">aggregator</text>
<polygon fill="none" stroke="black" points="114.25,-7 114.25,-29.5 472,-29.5 472,-7 114.25,-7"/>
<text text-anchor="start" x="117.25" y="-13.2" font-family="Times,serif" font-size="14.00">GENERATED ALWAYS AS (hll_hash_text(bene_id)) STORED</text>
<polygon fill="none" stroke="black" points="111.25,-4 111.25,-222.5 475,-222.5 475,-4 111.25,-4"/>
</a>
</g>
</g>
<!-- medicare.admissions.bene_id -->
<g id="node2" class="node">
<title>medicare.admissions.bene_id</title>
<g id="a_node2"><a xlink:href="../medicare.admissions/bene_id.html" xlink:title="&lt;TABLE&gt;" target="_blank">
<polygon fill="none" stroke="black" points="435.25,-383 151,-383 151,-263.5 435.25,-263.5 435.25,-383"/>
<text text-anchor="start" x="208" y="-361.7" font-family="Times,serif" font-weight="bold" font-size="14.00">medicare.admissions.bene_id</text>
<text text-anchor="start" x="187" y="-315.2" font-family="Times,serif" font-size="14.00">Encrypted 723 Beneficiary ID (Unique</text>
<text text-anchor="start" x="279.62" y="-298.7" font-family="Times,serif" font-size="14.00">Key)</text>
<polygon fill="none" stroke="black" points="159,-267.5 159,-379 427.25,-379 427.25,-267.5 159,-267.5"/>
</a>
</g>
</g>
<!-- medicare.admissions.bene_id&#45;&gt;medicare.qc_adm_union.bene -->
<g id="edge1" class="edge">
<title>medicare.admissions.bene_id&#45;&gt;medicare.qc_adm_union.bene</title>
<path fill="none" stroke="black" d="M293.12,-263.2C293.12,-255.18 293.12,-246.73 293.12,-238.08"/>
<polygon fill="black" stroke="black" points="296.63,-238.13 293.13,-228.13 289.63,-238.13 296.63,-238.13"/>
<text text-anchor="middle" x="312.62" y="-239.95" font-family="Times,serif" font-size="14.00">Copied</text>
</g>
<!-- medicare.ip.bene_id -->
<g id="node3" class="node">
<title>medicare.ip.bene_id</title>
<g id="a_node3"><a xlink:href="../medicare.ip/bene_id.html" xlink:title="&lt;TABLE&gt;" target="_blank">
<polygon fill="none" stroke="black" points="284.25,-539.5 0,-539.5 0,-420 284.25,-420 284.25,-539.5"/>
<text text-anchor="start" x="83.25" y="-518.2" font-family="Times,serif" font-weight="bold" font-size="14.00">medicare.ip.bene_id</text>
<text text-anchor="start" x="36" y="-471.7" font-family="Times,serif" font-size="14.00">Encrypted 723 Beneficiary ID (Unique</text>
<text text-anchor="start" x="128.62" y="-455.2" font-family="Times,serif" font-size="14.00">Key)</text>
<polygon fill="none" stroke="black" points="8,-424 8,-535.5 276.25,-535.5 276.25,-424 8,-424"/>
</a>
</g>
</g>
<!-- medicare.ip.bene_id&#45;&gt;medicare.admissions.bene_id -->
<g id="edge2" class="edge">
<title>medicare.ip.bene_id&#45;&gt;medicare.admissions.bene_id</title>
<path fill="none" stroke="black" d="M199.64,-419.9C208.67,-410.67 218.06,-401.06 227.25,-391.65"/>
<polygon fill="black" stroke="black" points="229.72,-394.13 234.21,-384.53 224.72,-389.24 229.72,-394.13"/>
<text text-anchor="middle" x="236.62" y="-396.45" font-family="Times,serif" font-size="14.00">Copied</text>
</g>
<!-- medicare.ip.bene_id_parent -->
<g id="node4" class="node">
<title>medicare.ip.bene_id_parent</title>
<g id="a_node4"><a xlink:href="../medicare.ip/bene_id.html" xlink:title="8 incoming links (columns)" target="_blank">
<path fill="yellow" stroke="black" d="M250.12,-680.43C250.12,-685.85 201.72,-690.25 142.12,-690.25 82.53,-690.25 34.12,-685.85 34.12,-680.43 34.12,-680.43 34.12,-592.07 34.12,-592.07 34.12,-586.65 82.53,-582.25 142.12,-582.25 201.72,-582.25 250.12,-586.65 250.12,-592.07 250.12,-592.07 250.12,-680.43 250.12,-680.43"/>
<path fill="none" stroke="black" d="M250.12,-680.43C250.12,-675.01 201.72,-670.61 142.12,-670.61 82.53,-670.61 34.12,-675.01 34.12,-680.43"/>
<text text-anchor="middle" x="142.12" y="-631.2" font-family="Times,serif" font-size="14.00">8 incoming links (columns)</text>
</a>
</g>
</g>
<!-- medicare.ip.bene_id_parent&#45;&gt;medicare.ip.bene_id -->
<g id="edge3" class="edge">
<title>medicare.ip.bene_id_parent&#45;&gt;medicare.ip.bene_id</title>
<path fill="none" stroke="goldenrod" stroke-width="6" d="M142.12,-582.08C142.12,-573.68 142.12,-564.85 142.12,-556.06"/>
<polygon fill="goldenrod" stroke="goldenrod" stroke-width="6" points="147.38,-556.3 142.13,-546.3 136.88,-556.3 147.38,-556.3"/>
</g>
<!-- medicare.enrollments.bene_id -->
<g id="node5" class="node">
<title>medicare.enrollments.bene_id</title>
<g id="a_node5"><a xlink:href="../medicare.enrollments/bene_id.html" xlink:title="&lt;TABLE&gt;" target="_blank">
<polygon fill="none" stroke="black" points="586.25,-539.5 302,-539.5 302,-420 586.25,-420 586.25,-539.5"/>
<text text-anchor="start" x="356.38" y="-518.2" font-family="Times,serif" font-weight="bold" font-size="14.00">medicare.enrollments.bene_id</text>
<text text-anchor="start" x="338" y="-471.7" font-family="Times,serif" font-size="14.00">Encrypted 723 Beneficiary ID (Unique</text>
<text text-anchor="start" x="430.62" y="-455.2" font-family="Times,serif" font-size="14.00">Key)</text>
<polygon fill="none" stroke="black" points="310,-424 310,-535.5 578.25,-535.5 578.25,-424 310,-424"/>
</a>
</g>
</g>
<!-- medicare.enrollments.bene_id&#45;&gt;medicare.admissions.bene_id -->
<g id="edge4" class="edge">
<title>medicare.enrollments.bene_id&#45;&gt;medicare.admissions.bene_id</title>
<path fill="none" stroke="darkorchid" stroke-width="2" d="M386.61,-419.9C377.86,-410.95 368.76,-401.64 359.84,-392.51"/>
<polygon fill="darkorchid" stroke="darkorchid" stroke-width="2" points="362.59,-390.32 353.1,-385.61 357.59,-395.21 362.59,-390.32"/>
<text text-anchor="middle" x="387.62" y="-396.45" font-family="Times,serif" font-size="14.00">Copied</text>
</g>
<!-- medicare._enrollments.bene_id -->
<g id="node6" class="node">
<title>medicare._enrollments.bene_id</title>
<g id="a_node6"><a xlink:href="../medicare._enrollments/bene_id.html" xlink:title="&lt;TABLE&gt;" target="_blank">
<polygon fill="none" stroke="black" points="489.25,-833.5 205,-833.5 205,-714 489.25,-714 489.25,-833.5"/>
<text text-anchor="start" x="256" y="-812.2" font-family="Times,serif" font-weight="bold" font-size="14.00">medicare._enrollments.bene_id</text>
<text text-anchor="start" x="241" y="-765.7" font-family="Times,serif" font-size="14.00">Encrypted 723 Beneficiary ID (Unique</text>
<text text-anchor="start" x="333.62" y="-749.2" font-family="Times,serif" font-size="14.00">Key)</text>
<polygon fill="none" stroke="black" points="213,-718 213,-829.5 481.25,-829.5 481.25,-718 213,-718"/>
</a>
</g>
</g>
<!-- medicare._enrollments.bene_id&#45;&gt;medicare.enrollments.bene_id -->
<g id="edge5" class="edge">
<title>medicare._enrollments.bene_id&#45;&gt;medicare.enrollments.bene_id</title>
<path fill="none" stroke="black" d="M340.91,-713.83C338.99,-673.63 341.06,-620.01 359.12,-576.5 363.07,-567 368.36,-557.81 374.39,-549.12"/>
<polygon fill="black" stroke="black" points="377.17,-551.25 380.29,-541.12 371.54,-547.09 377.17,-551.25"/>
<text text-anchor="middle" x="378.62" y="-631.2" font-family="Times,serif" font-size="14.00">Copied</text>
</g>
<!-- medicare._ps.bene_id -->
<g id="node7" class="node">
<title>medicare._ps.bene_id</title>
<g id="a_node7"><a xlink:href="../medicare._ps/bene_id.html" xlink:title="&lt;TABLE&gt;" target="_blank">
<polygon fill="none" stroke="black" points="499.25,-1127.5 215,-1127.5 215,-1008 499.25,-1008 499.25,-1127.5"/>
<text text-anchor="start" x="294.12" y="-1106.2" font-family="Times,serif" font-weight="bold" font-size="14.00">medicare._ps.bene_id</text>
<text text-anchor="start" x="251" y="-1059.7" font-family="Times,serif" font-size="14.00">Encrypted 723 Beneficiary ID (Unique</text>
<text text-anchor="start" x="343.62" y="-1043.2" font-family="Times,serif" font-size="14.00">Key)</text>
<polygon fill="none" stroke="black" points="223,-1012 223,-1123.5 491.25,-1123.5 491.25,-1012 223,-1012"/>
</a>
</g>
</g>
<!-- medicare._ps.bene_id&#45;&gt;medicare._enrollments.bene_id -->
<g id="edge6" class="edge">
<title>medicare._ps.bene_id&#45;&gt;medicare._enrollments.bene_id</title>
<path fill="none" stroke="blue" stroke-width="5" d="M355.1,-1007.66C353.54,-962.14 351.38,-898.91 349.7,-849.81"/>
<polygon fill="blue" stroke="blue" stroke-width="5" points="354.07,-849.83 349.36,-839.99 345.33,-850.13 354.07,-849.83"/>
<text text-anchor="middle" x="468.5" y="-984.45" font-family="Times,serif" font-size="14.00">	 &#160;Aggregated On bene_id, year, state</text>
</g>
<!-- medicare._beneficiaries.bene_id -->
<g id="node11" class="node">
<title>medicare._beneficiaries.bene_id</title>
<g id="a_node11"><a xlink:href="../medicare._beneficiaries/bene_id.html" xlink:title="&lt;TABLE&gt;" target="_blank">
<polygon fill="none" stroke="black" points="657.25,-971 373,-971 373,-851.5 657.25,-851.5 657.25,-971"/>
<text text-anchor="start" x="422.12" y="-949.7" font-family="Times,serif" font-weight="bold" font-size="14.00">medicare._beneficiaries.bene_id</text>
<text text-anchor="start" x="409" y="-903.2" font-family="Times,serif" font-size="14.00">Encrypted 723 Beneficiary ID (Unique</text>
<text text-anchor="start" x="501.62" y="-886.7" font-family="Times,serif" font-size="14.00">Key)</text>
<polygon fill="none" stroke="black" points="381,-855.5 381,-967 649.25,-967 649.25,-855.5 381,-855.5"/>
</a>
</g>
</g>
<!-- medicare._ps.bene_id&#45;&gt;medicare._beneficiaries.bene_id -->
<g id="edge11" class="edge">
<title>medicare._ps.bene_id&#45;&gt;medicare._beneficiaries.bene_id</title>
<path fill="none" stroke="blue" stroke-width="5" d="M417.31,-1007.9C425.7,-999.69 434.4,-991.19 442.98,-982.79"/>
<polygon fill="blue" stroke="blue" stroke-width="5" points="446.03,-985.93 450.13,-975.81 439.92,-979.67 446.03,-985.93"/>
<text text-anchor="middle" x="519.38" y="-984.45" font-family="Times,serif" font-size="14.00">	 &#160;Aggregated On bene_id</text>
</g>
<!-- medicare.ps.bene_id -->
<g id="node8" class="node">
<title>medicare.ps.bene_id</title>
<g id="a_node8"><a xlink:href="../medicare.ps/bene_id.html" xlink:title="&lt;TABLE&gt;" target="_blank">
<polygon fill="none" stroke="black" points="499.25,-1284 215,-1284 215,-1164.5 499.25,-1164.5 499.25,-1284"/>
<text text-anchor="start" x="297.5" y="-1262.7" font-family="Times,serif" font-weight="bold" font-size="14.00">medicare.ps.bene_id</text>
<text text-anchor="start" x="251" y="-1216.2" font-family="Times,serif" font-size="14.00">Encrypted 723 Beneficiary ID (Unique</text>
<text text-anchor="start" x="343.62" y="-1199.7" font-family="Times,serif" font-size="14.00">Key)</text>
<polygon fill="none" stroke="black" points="223,-1168.5 223,-1280 491.25,-1280 491.25,-1168.5 223,-1168.5"/>
</a>
</g>
</g>
<!-- medicare.ps.bene_id&#45;&gt;medicare._ps.bene_id -->
<g id="edge7" class="edge">
<title>medicare.ps.bene_id&#45;&gt;medicare._ps.bene_id</title>
<path fill="none" stroke="black" d="M354.58,-1164.17C354.4,-1158.21 354.24,-1152.23 354.12,-1146.5 354.08,-1144.03 354.05,-1141.52 354.04,-1138.98"/>
<polygon fill="black" stroke="black" points="357.54,-1139.29 354.12,-1129.26 350.54,-1139.24 357.54,-1139.29"/>
<text text-anchor="middle" x="373.62" y="-1140.95" font-family="Times,serif" font-size="14.00">Copied</text>
</g>
<!-- medicare.ps.bene_id&#45;&gt;medicare._ps.bene_id -->
<g id="edge12" class="edge">
<title>medicare.ps.bene_id&#45;&gt;medicare._ps.bene_id</title>
<path fill="none" stroke="black" d="M357.12,-1164.4C357.12,-1156.19 357.12,-1147.69 357.12,-1139.29"/>
<polygon fill="black" stroke="black" points="360.63,-1139.46 357.13,-1129.46 353.63,-1139.46 360.63,-1139.46"/>
<text text-anchor="middle" x="376.62" y="-1140.95" font-family="Times,serif" font-size="14.00">Copied</text>
</g>
<!-- medicare.ps.bene_id_parent -->
<g id="node9" class="node">
<title>medicare.ps.bene_id_parent</title>
<g id="a_node9"><a xlink:href="../medicare.ps/bene_id.html" xlink:title="8 incoming links (columns)" target="_blank">
<path fill="yellow" stroke="black" d="M465.12,-1419.18C465.12,-1424.6 416.72,-1429 357.12,-1429 297.53,-1429 249.12,-1424.6 249.12,-1419.18 249.12,-1419.18 249.12,-1330.82 249.12,-1330.82 249.12,-1325.4 297.53,-1321 357.12,-1321 416.72,-1321 465.12,-1325.4 465.12,-1330.82 465.12,-1330.82 465.12,-1419.18 465.12,-1419.18"/>
<path fill="none" stroke="black" d="M465.12,-1419.18C465.12,-1413.76 416.72,-1409.36 357.12,-1409.36 297.53,-1409.36 249.12,-1413.76 249.12,-1419.18"/>
<text text-anchor="middle" x="357.12" y="-1369.95" font-family="Times,serif" font-size="14.00">8 incoming links (columns)</text>
</a>
</g>
</g>
<!-- medicare.ps.bene_id_parent&#45;&gt;medicare.ps.bene_id -->
<g id="edge8" class="edge">
<title>medicare.ps.bene_id_parent&#45;&gt;medicare.ps.bene_id</title>
<path fill="none" stroke="goldenrod" stroke-width="6" d="M350.62,-1320.72C350.47,-1314.2 350.38,-1307.44 350.38,-1300.68"/>
<polygon fill="goldenrod" stroke="goldenrod" stroke-width="6" points="355.62,-1300.96 350.45,-1290.92 345.12,-1300.88 355.62,-1300.96"/>
</g>
<!-- medicare.ps.bene_id_parent&#45;&gt;medicare.ps.bene_id -->
<g id="edge13" class="edge">
<title>medicare.ps.bene_id_parent&#45;&gt;medicare.ps.bene_id</title>
<path fill="none" stroke="goldenrod" stroke-width="6" d="M363.63,-1320.72C363.78,-1314.2 363.87,-1307.44 363.87,-1300.68"/>
<polygon fill="goldenrod" stroke="goldenrod" stroke-width="6" points="369.13,-1300.88 363.8,-1290.92 358.63,-1300.96 369.13,-1300.88"/>
</g>
<!-- medicare.beneficiaries.bene_id -->
<g id="node10" class="node">
<title>medicare.beneficiaries.bene_id</title>
<g id="a_node10"><a xlink:href="../medicare.beneficiaries/bene_id.html" xlink:title="&lt;TABLE&gt;" target="_blank">
<polygon fill="none" stroke="black" points="653.25,-696 369,-696 369,-576.5 653.25,-576.5 653.25,-696"/>
<text text-anchor="start" x="421.5" y="-674.7" font-family="Times,serif" font-weight="bold" font-size="14.00">medicare.beneficiaries.bene_id</text>
<text text-anchor="start" x="405" y="-628.2" font-family="Times,serif" font-size="14.00">Encrypted 723 Beneficiary ID (Unique</text>
<text text-anchor="start" x="497.62" y="-611.7" font-family="Times,serif" font-size="14.00">Key)</text>
<polygon fill="none" stroke="black" points="377,-580.5 377,-692 645.25,-692 645.25,-580.5 377,-580.5"/>
</a>
</g>
</g>
<!-- medicare.beneficiaries.bene_id&#45;&gt;medicare.enrollments.bene_id -->
<g id="edge9" class="edge">
<title>medicare.beneficiaries.bene_id&#45;&gt;medicare.enrollments.bene_id</title>
<path fill="none" stroke="darkorchid" stroke-width="2" d="M485.6,-576.4C482.13,-568.38 478.53,-560.08 474.97,-551.87"/>
<polygon fill="darkorchid" stroke="darkorchid" stroke-width="2" points="478.19,-550.51 471,-542.73 471.77,-553.29 478.19,-550.51"/>
<text text-anchor="middle" x="496.62" y="-552.95" font-family="Times,serif" font-size="14.00">Copied</text>
</g>
<!-- medicare._beneficiaries.bene_id&#45;&gt;medicare.beneficiaries.bene_id -->
<g id="edge10" class="edge">
<title>medicare._beneficiaries.bene_id&#45;&gt;medicare.beneficiaries.bene_id</title>
<path fill="none" stroke="black" d="M514.26,-851.01C513.64,-808.89 512.81,-752.13 512.16,-707.68"/>
<polygon fill="black" stroke="black" points="515.66,-707.83 512.01,-697.88 508.66,-707.93 515.66,-707.83"/>
<text text-anchor="middle" x="532.62" y="-768.7" font-family="Times,serif" font-size="14.00">Copied</text>
</g>
</g>
</svg>
