<?xml version="1.0" encoding="UTF-8" standalone="no"?>
<!DOCTYPE svg PUBLIC "-//W3C//DTD SVG 1.1//EN"
 "http://www.w3.org/Graphics/SVG/1.1/DTD/svg11.dtd">
<!-- Generated by graphviz version 10.0.1 (20240210.2158)
 -->
<!-- Pages: 1 -->
<svg width="417pt" height="707pt"
 viewBox="0.00 0.00 416.88 706.50" xmlns="http://www.w3.org/2000/svg" xmlns:xlink="http://www.w3.org/1999/xlink">
<g id="graph0" class="graph" transform="scale(1 1) rotate(0) translate(4 702.5)">
<polygon fill="white" stroke="none" points="-4,4 -4,-702.5 412.88,-702.5 412.88,4 -4,4"/>
<!-- medicare.enrollments.bene -->
<g id="node1" class="node">
<title>medicare.enrollments.bene</title>
<g id="a_node1"><a xlink:href="../medicare.enrollments/bene.html" xlink:title="&lt;TABLE&gt;" target="_blank">
<polygon fill="none" stroke="black" points="379.75,-226.5 0,-226.5 0,0 379.75,0 379.75,-226.5"/>
<text text-anchor="start" x="111.12" y="-205.2" font-family="Times,serif" font-weight="bold" font-size="14.00">medicare.enrollments.bene</text>
<text text-anchor="start" x="36" y="-158.7" font-family="Times,serif" font-size="14.00">HLL hash (see https://en.wikipedia.org/w</text>
<text text-anchor="start" x="55.12" y="-142.2" font-family="Times,serif" font-size="14.00">iki/HyperLogLog). Can be used to</text>
<text text-anchor="start" x="58.5" y="-125.7" font-family="Times,serif" font-size="14.00">calculate number of beneficiaries</text>
<text text-anchor="start" x="41.25" y="-109.2" font-family="Times,serif" font-size="14.00">satisfying a certain given condition Use</text>
<text text-anchor="start" x="83.25" y="-92.7" font-family="Times,serif" font-size="14.00">#(hll_add_agg(bene)) or</text>
<text text-anchor="start" x="54.75" y="-76.2" font-family="Times,serif" font-size="14.00">hll_cardinality(hll_add_agg(bene))</text>
<text text-anchor="start" x="120.38" y="-59.7" font-family="Times,serif" font-size="14.00">aggregator</text>
<polygon fill="none" stroke="black" points="11,-7 11,-29.5 368.75,-29.5 368.75,-7 11,-7"/>
<text text-anchor="start" x="14" y="-13.2" font-family="Times,serif" font-size="14.00">GENERATED ALWAYS AS (hll_hash_text(bene_id)) STORED</text>
<polygon fill="none" stroke="black" points="8,-4 8,-222.5 371.75,-222.5 371.75,-4 8,-4"/>
</a>
</g>
</g>
<!-- medicare._enrollments.bene_id -->
<g id="node2" class="node">
<title>medicare._enrollments.bene_id</title>
<g id="a_node2"><a xlink:href="../medicare._enrollments/bene_id.html" xlink:title="&lt;TABLE&gt;" target="_blank">
<polygon fill="none" stroke="black" points="276,-353.5 67.75,-353.5 67.75,-317.5 276,-317.5 276,-353.5"/>
<text text-anchor="start" x="80.75" y="-331.45" font-family="Times,serif" font-weight="bold" font-size="14.00">medicare._enrollments.bene_id</text>
<polygon fill="none" stroke="black" points="75.75,-322.25 75.75,-348.75 268,-348.75 268,-322.25 75.75,-322.25"/>
</a>
</g>
</g>
<!-- medicare._enrollments.bene_id&#45;&gt;medicare.enrollments.bene -->
<g id="edge1" class="edge">
<title>medicare._enrollments.bene_id&#45;&gt;medicare.enrollments.bene</title>
<path fill="none" stroke="black" d="M173.29,-317.22C174.76,-299.26 177.19,-269.43 179.75,-238.1"/>
<polygon fill="black" stroke="black" points="183.21,-238.74 180.54,-228.48 176.24,-238.17 183.21,-238.74"/>
<text text-anchor="middle" x="216.5" y="-276.45" font-family="Times,serif" font-size="14.00"> &#160;Transformed</text>
</g>
<!-- medicare._ps.bene_id -->
<g id="node3" class="node">
<title>medicare._ps.bene_id</title>
<g id="a_node3"><a xlink:href="../medicare._ps/bene_id.html" xlink:title="&lt;TABLE&gt;" target="_blank">
<polygon fill="none" stroke="black" points="256.88,-480.5 104.88,-480.5 104.88,-444.5 256.88,-444.5 256.88,-480.5"/>
<text text-anchor="start" x="117.88" y="-458.45" font-family="Times,serif" font-weight="bold" font-size="14.00">medicare._ps.bene_id</text>
<polygon fill="none" stroke="black" points="112.88,-449.25 112.88,-475.75 248.88,-475.75 248.88,-449.25 112.88,-449.25"/>
</a>
</g>
</g>
<!-- medicare._ps.bene_id&#45;&gt;medicare._enrollments.bene_id -->
<g id="edge2" class="edge">
<title>medicare._ps.bene_id&#45;&gt;medicare._enrollments.bene_id</title>
<path fill="none" stroke="blue" stroke-width="5" d="M179.62,-444.12C178.25,-425 176,-393.8 174.28,-369.91"/>
<polygon fill="blue" stroke="blue" stroke-width="5" points="178.65,-369.61 173.56,-359.95 169.92,-370.24 178.65,-369.61"/>
<text text-anchor="middle" x="293.25" y="-420.95" font-family="Times,serif" font-size="14.00">	 &#160;Aggregated On bene_id, year, state</text>
</g>
<!-- medicare._beneficiaries.bene_id -->
<g id="node7" class="node">
<title>medicare._beneficiaries.bene_id</title>
<g id="a_node7"><a xlink:href="../medicare._beneficiaries/bene_id.html" xlink:title="&lt;TABLE&gt;" target="_blank">
<polygon fill="none" stroke="black" points="408.88,-407.5 196.88,-407.5 196.88,-371.5 408.88,-371.5 408.88,-407.5"/>
<text text-anchor="start" x="209.88" y="-385.45" font-family="Times,serif" font-weight="bold" font-size="14.00">medicare._beneficiaries.bene_id</text>
<polygon fill="none" stroke="black" points="204.88,-376.25 204.88,-402.75 400.88,-402.75 400.88,-376.25 204.88,-376.25"/>
</a>
</g>
</g>
<!-- medicare._ps.bene_id&#45;&gt;medicare._beneficiaries.bene_id -->
<g id="edge7" class="edge">
<title>medicare._ps.bene_id&#45;&gt;medicare._beneficiaries.bene_id</title>
<path fill="none" stroke="blue" stroke-width="5" d="M210.72,-444.13C225.34,-435.62 243.23,-425.21 259.34,-415.84"/>
<polygon fill="blue" stroke="blue" stroke-width="5" points="261.08,-419.88 267.52,-411.07 256.68,-412.32 261.08,-419.88"/>
<text text-anchor="middle" x="325.12" y="-420.95" font-family="Times,serif" font-size="14.00">	 &#160;Aggregated On bene_id</text>
</g>
<!-- medicare.ps.bene_id -->
<g id="node4" class="node">
<title>medicare.ps.bene_id</title>
<g id="a_node4"><a xlink:href="../medicare.ps/bene_id.html" xlink:title="&lt;TABLE&gt;" target="_blank">
<polygon fill="none" stroke="black" points="253.5,-553.5 108.25,-553.5 108.25,-517.5 253.5,-517.5 253.5,-553.5"/>
<text text-anchor="start" x="121.25" y="-531.45" font-family="Times,serif" font-weight="bold" font-size="14.00">medicare.ps.bene_id</text>
<polygon fill="none" stroke="black" points="116.25,-522.25 116.25,-548.75 245.5,-548.75 245.5,-522.25 116.25,-522.25"/>
</a>
</g>
</g>
<!-- medicare.ps.bene_id&#45;&gt;medicare._ps.bene_id -->
<g id="edge3" class="edge">
<title>medicare.ps.bene_id&#45;&gt;medicare._ps.bene_id</title>
<path fill="none" stroke="black" d="M179.09,-517.07C178.59,-511.47 178.12,-505.23 177.88,-499.5 177.77,-497.1 177.77,-494.62 177.83,-492.12"/>
<polygon fill="black" stroke="black" points="181.32,-492.41 178.46,-482.21 174.34,-491.96 181.32,-492.41"/>
<text text-anchor="middle" x="197.38" y="-493.95" font-family="Times,serif" font-size="14.00">Copied</text>
</g>
<!-- medicare.ps.bene_id&#45;&gt;medicare._ps.bene_id -->
<g id="edge8" class="edge">
<title>medicare.ps.bene_id&#45;&gt;medicare._ps.bene_id</title>
<path fill="none" stroke="black" d="M180.88,-517.31C180.88,-509.73 180.88,-500.6 180.88,-492.04"/>
<polygon fill="black" stroke="black" points="184.38,-492.04 180.88,-482.04 177.38,-492.04 184.38,-492.04"/>
<text text-anchor="middle" x="200.38" y="-493.95" font-family="Times,serif" font-size="14.00">Copied</text>
</g>
<!-- medicare.ps.bene_id_parent -->
<g id="node5" class="node">
<title>medicare.ps.bene_id_parent</title>
<g id="a_node5"><a xlink:href="../medicare.ps/bene_id.html" xlink:title="8 incoming links (columns)" target="_blank">
<path fill="yellow" stroke="black" d="M288.88,-688.68C288.88,-694.1 240.47,-698.5 180.88,-698.5 121.28,-698.5 72.88,-694.1 72.88,-688.68 72.88,-688.68 72.88,-600.32 72.88,-600.32 72.88,-594.9 121.28,-590.5 180.88,-590.5 240.47,-590.5 288.88,-594.9 288.88,-600.32 288.88,-600.32 288.88,-688.68 288.88,-688.68"/>
<path fill="none" stroke="black" d="M288.88,-688.68C288.88,-683.26 240.47,-678.86 180.88,-678.86 121.28,-678.86 72.88,-683.26 72.88,-688.68"/>
<text text-anchor="middle" x="180.88" y="-639.45" font-family="Times,serif" font-size="14.00">8 incoming links (columns)</text>
</a>
</g>
</g>
<!-- medicare.ps.bene_id_parent&#45;&gt;medicare.ps.bene_id -->
<g id="edge4" class="edge">
<title>medicare.ps.bene_id_parent&#45;&gt;medicare.ps.bene_id</title>
<path fill="none" stroke="goldenrod" stroke-width="6" d="M174.12,-590C174.12,-583.21 174.27,-576.42 174.56,-570.07"/>
<polygon fill="goldenrod" stroke="goldenrod" stroke-width="6" points="179.79,-570.49 175.29,-560.13 169.32,-569.72 179.79,-570.49"/>
</g>
<!-- medicare.ps.bene_id_parent&#45;&gt;medicare.ps.bene_id -->
<g id="edge9" class="edge">
<title>medicare.ps.bene_id_parent&#45;&gt;medicare.ps.bene_id</title>
<path fill="none" stroke="goldenrod" stroke-width="6" d="M187.62,-590C187.62,-583.21 187.48,-576.42 187.19,-570.07"/>
<polygon fill="goldenrod" stroke="goldenrod" stroke-width="6" points="192.43,-569.72 186.46,-560.13 181.96,-570.49 192.43,-569.72"/>
</g>
<!-- medicare.beneficiaries.bene_id -->
<g id="node6" class="node">
<title>medicare.beneficiaries.bene_id</title>
<g id="a_node6"><a xlink:href="../medicare.beneficiaries/bene_id.html" xlink:title="&lt;TABLE&gt;" target="_blank">
<polygon fill="none" stroke="black" points="399.5,-299.5 194.25,-299.5 194.25,-263.5 399.5,-263.5 399.5,-299.5"/>
<text text-anchor="start" x="207.25" y="-277.45" font-family="Times,serif" font-weight="bold" font-size="14.00">medicare.beneficiaries.bene_id</text>
<polygon fill="none" stroke="black" points="202.25,-268.25 202.25,-294.75 391.5,-294.75 391.5,-268.25 202.25,-268.25"/>
</a>
</g>
</g>
<!-- medicare.beneficiaries.bene_id&#45;&gt;medicare.enrollments.bene -->
<g id="edge5" class="edge">
<title>medicare.beneficiaries.bene_id&#45;&gt;medicare.enrollments.bene</title>
<path fill="none" stroke="darkorchid" stroke-width="2" d="M285.63,-263.02C281.13,-256.04 275.55,-247.37 269.35,-237.74"/>
<polygon fill="darkorchid" stroke="darkorchid" stroke-width="2" points="272.4,-236.01 264.05,-229.5 266.52,-239.8 272.4,-236.01"/>
<text text-anchor="middle" x="305.5" y="-239.95" font-family="Times,serif" font-size="14.00">parent&#45;child</text>
</g>
<!-- medicare._beneficiaries.bene_id&#45;&gt;medicare.beneficiaries.bene_id -->
<g id="edge6" class="edge">
<title>medicare._beneficiaries.bene_id&#45;&gt;medicare.beneficiaries.bene_id</title>
<path fill="none" stroke="black" d="M301.91,-371.47C300.99,-355.26 299.6,-330.56 298.5,-311.29"/>
<polygon fill="black" stroke="black" points="302,-311.14 297.94,-301.35 295.01,-311.53 302,-311.14"/>
<text text-anchor="middle" x="319.38" y="-330.45" font-family="Times,serif" font-size="14.00">Copied</text>
</g>
</g>
</svg>
