<?xml version="1.0" encoding="UTF-8" standalone="no"?>
<!DOCTYPE svg PUBLIC "-//W3C//DTD SVG 1.1//EN"
 "http://www.w3.org/Graphics/SVG/1.1/DTD/svg11.dtd">
<!-- Generated by graphviz version 14.1.4 (20260321.0153)
 -->
<!-- Pages: 1 -->
<svg width="1612pt" height="474pt"
 viewBox="0.00 0.00 1612.00 474.00" xmlns="http://www.w3.org/2000/svg" xmlns:xlink="http://www.w3.org/1999/xlink">
<g id="graph0" class="graph" transform="scale(1 1) rotate(0) translate(4 469.5)">
<polygon fill="white" stroke="none" points="-4,4 -4,-469.5 1608,-469.5 1608,4 -4,4"/>
<!-- medicare.ip.bene_blood_ddctbl_amt -->
<g id="node1" class="node">
<title>medicare.ip.bene_blood_ddctbl_amt</title>
<g id="a_node1"><a xlink:href="../medicare.ip/bene_blood_ddctbl_amt.html" xlink:title="&lt;TABLE&gt;" target="_blank">
<polygon fill="none" stroke="black" points="895.88,-152.5 598.12,-152.5 598.12,0 895.88,0 895.88,-152.5"/>
<text xml:space="preserve" text-anchor="start" x="640.88" y="-131.2" font-family="Times,serif" font-weight="bold" font-size="14.00">medicare.ip.bene_blood_ddctbl_amt</text>
<text xml:space="preserve" text-anchor="start" x="634.12" y="-85.25" font-family="Times,serif" font-size="14.00">The amount of money (rounded to whole</text>
<text xml:space="preserve" text-anchor="start" x="645" y="-68.75" font-family="Times,serif" font-size="14.00">dollars) identified as the beneficiary&#39;s</text>
<text xml:space="preserve" text-anchor="start" x="649.12" y="-52.25" font-family="Times,serif" font-size="14.00">liability for the blood deductible for</text>
<text xml:space="preserve" text-anchor="start" x="724.5" y="-35.75" font-family="Times,serif" font-size="14.00">the stay.</text>
<polygon fill="none" stroke="black" points="606.12,-4 606.12,-148.5 887.88,-148.5 887.88,-4 606.12,-4"/>
</a>
</g>
</g>
<!-- cms.medpar_2011.BLDDEDAM -->
<g id="node2" class="node">
<title>cms.medpar_2011.BLDDEDAM</title>
<g id="a_node2"><a xlink:href="../cms.medpar_2011/BLDDEDAM.html" xlink:title="&lt;TABLE&gt;" target="_blank">
<polygon fill="none" stroke="black" points="240,-465.5 0,-465.5 0,-346 240,-346 240,-465.5"/>
<text xml:space="preserve" text-anchor="start" x="25.12" y="-444.2" font-family="Times,serif" font-weight="bold" font-size="14.00">cms.medpar_2011.BLDDEDAM</text>
<text xml:space="preserve" text-anchor="start" x="36" y="-398.25" font-family="Times,serif" font-size="14.00">Beneficiarys liability for blood</text>
<text xml:space="preserve" text-anchor="start" x="59.62" y="-381.75" font-family="Times,serif" font-size="14.00">deductible for stay ($)</text>
<polygon fill="none" stroke="black" points="8,-350 8,-461.5 232,-461.5 232,-350 8,-350"/>
</a>
</g>
</g>
<!-- cms.medpar_2011.BLDDEDAM&#45;&gt;medicare.ip.bene_blood_ddctbl_amt -->
<g id="edge5" class="edge">
<title>cms.medpar_2011.BLDDEDAM&#45;&gt;medicare.ip.bene_blood_ddctbl_amt</title>
<path fill="none" stroke="chocolate" stroke-width="2" d="M173.79,-345.51C219.51,-298.05 288.88,-232.51 360,-189.5 428.47,-148.1 513.02,-121.28 585.6,-104.29"/>
<polygon fill="chocolate" stroke="chocolate" stroke-width="2" points="586.15,-107.75 595.12,-102.11 584.59,-100.93 586.15,-107.75"/>
<text xml:space="preserve" text-anchor="middle" x="375.38" y="-244.2" font-family="Times,serif" font-size="14.00">union</text>
</g>
<!-- cms.medpar_2012.BLDDEDAM -->
<g id="node3" class="node">
<title>cms.medpar_2012.BLDDEDAM</title>
<g id="a_node3"><a xlink:href="../cms.medpar_2012/BLDDEDAM.html" xlink:title="&lt;TABLE&gt;" target="_blank">
<polygon fill="none" stroke="black" points="498,-465.5 258,-465.5 258,-346 498,-346 498,-465.5"/>
<text xml:space="preserve" text-anchor="start" x="283.12" y="-444.2" font-family="Times,serif" font-weight="bold" font-size="14.00">cms.medpar_2012.BLDDEDAM</text>
<text xml:space="preserve" text-anchor="start" x="294" y="-398.25" font-family="Times,serif" font-size="14.00">Beneficiarys liability for blood</text>
<text xml:space="preserve" text-anchor="start" x="317.62" y="-381.75" font-family="Times,serif" font-size="14.00">deductible for stay ($)</text>
<polygon fill="none" stroke="black" points="266,-350 266,-461.5 490,-461.5 490,-350 266,-350"/>
</a>
</g>
</g>
<!-- cms.medpar_2012.BLDDEDAM&#45;&gt;medicare.ip.bene_blood_ddctbl_amt -->
<g id="edge6" class="edge">
<title>cms.medpar_2012.BLDDEDAM&#45;&gt;medicare.ip.bene_blood_ddctbl_amt</title>
<path fill="none" stroke="chocolate" stroke-width="2" d="M367.62,-345.6C362.78,-299.12 363.75,-234.88 395,-189.5 418.01,-156.08 504.24,-128.28 585.58,-108.71"/>
<polygon fill="chocolate" stroke="chocolate" stroke-width="2" points="586.19,-112.16 595.12,-106.45 584.58,-105.35 586.19,-112.16"/>
<text xml:space="preserve" text-anchor="middle" x="410.38" y="-244.2" font-family="Times,serif" font-size="14.00">union</text>
</g>
<!-- cms.medpar_2013.BLDDEDAM -->
<g id="node4" class="node">
<title>cms.medpar_2013.BLDDEDAM</title>
<g id="a_node4"><a xlink:href="../cms.medpar_2013/BLDDEDAM.html" xlink:title="&lt;TABLE&gt;" target="_blank">
<polygon fill="none" stroke="black" points="932,-465.5 692,-465.5 692,-346 932,-346 932,-465.5"/>
<text xml:space="preserve" text-anchor="start" x="717.12" y="-444.2" font-family="Times,serif" font-weight="bold" font-size="14.00">cms.medpar_2013.BLDDEDAM</text>
<text xml:space="preserve" text-anchor="start" x="728" y="-398.25" font-family="Times,serif" font-size="14.00">Beneficiarys liability for blood</text>
<text xml:space="preserve" text-anchor="start" x="751.62" y="-381.75" font-family="Times,serif" font-size="14.00">deductible for stay ($)</text>
<polygon fill="none" stroke="black" points="700,-350 700,-461.5 924,-461.5 924,-350 700,-350"/>
</a>
</g>
</g>
<!-- cms.medpar_2013.BLDDEDAM&#45;&gt;medicare.ip.bene_blood_ddctbl_amt -->
<g id="edge7" class="edge">
<title>cms.medpar_2013.BLDDEDAM&#45;&gt;medicare.ip.bene_blood_ddctbl_amt</title>
<path fill="none" stroke="chocolate" stroke-width="2" d="M691.62,-382.73C584.05,-361.84 440.86,-330.52 424,-309 391.25,-267.19 393.22,-232.78 424,-189.5 461.18,-137.22 524.52,-109.08 585.31,-94.01"/>
<polygon fill="chocolate" stroke="chocolate" stroke-width="2" points="585.94,-97.45 594.88,-91.77 584.34,-90.64 585.94,-97.45"/>
<text xml:space="preserve" text-anchor="middle" x="439.38" y="-244.2" font-family="Times,serif" font-size="14.00">union</text>
</g>
<!-- cms.medpar_2015.BLDDEDAM -->
<g id="node6" class="node">
<title>cms.medpar_2015.BLDDEDAM</title>
<g id="a_node6"><a xlink:href="../cms.medpar_2015/BLDDEDAM.html" xlink:title="&lt;TABLE&gt;" target="_blank">
<polygon fill="none" stroke="black" points="674,-309 434,-309 434,-189.5 674,-189.5 674,-309"/>
<text xml:space="preserve" text-anchor="start" x="459.12" y="-287.7" font-family="Times,serif" font-weight="bold" font-size="14.00">cms.medpar_2015.BLDDEDAM</text>
<text xml:space="preserve" text-anchor="start" x="470" y="-241.75" font-family="Times,serif" font-size="14.00">Beneficiarys liability for blood</text>
<text xml:space="preserve" text-anchor="start" x="493.62" y="-225.25" font-family="Times,serif" font-size="14.00">deductible for stay ($)</text>
<polygon fill="none" stroke="black" points="442,-193.5 442,-305 666,-305 666,-193.5 442,-193.5"/>
</a>
</g>
</g>
<!-- cms.medpar_2013.BLDDEDAM&#45;&gt;cms.medpar_2015.BLDDEDAM -->
<!-- cms.medpar_2016.BLDDEDAM -->
<g id="node7" class="node">
<title>cms.medpar_2016.BLDDEDAM</title>
<g id="a_node7"><a xlink:href="../cms.medpar_2016/BLDDEDAM.html" xlink:title="&lt;TABLE&gt;" target="_blank">
<polygon fill="none" stroke="black" points="932,-309 692,-309 692,-189.5 932,-189.5 932,-309"/>
<text xml:space="preserve" text-anchor="start" x="717.12" y="-287.7" font-family="Times,serif" font-weight="bold" font-size="14.00">cms.medpar_2016.BLDDEDAM</text>
<text xml:space="preserve" text-anchor="start" x="728" y="-241.75" font-family="Times,serif" font-size="14.00">Beneficiarys liability for blood</text>
<text xml:space="preserve" text-anchor="start" x="751.62" y="-225.25" font-family="Times,serif" font-size="14.00">deductible for stay ($)</text>
<polygon fill="none" stroke="black" points="700,-193.5 700,-305 924,-305 924,-193.5 700,-193.5"/>
</a>
</g>
</g>
<!-- cms.medpar_2013.BLDDEDAM&#45;&gt;cms.medpar_2016.BLDDEDAM -->
<!-- cms.medpar_2017.BLDDEDAM -->
<g id="node8" class="node">
<title>cms.medpar_2017.BLDDEDAM</title>
<g id="a_node8"><a xlink:href="../cms.medpar_2017/BLDDEDAM.html" xlink:title="&lt;TABLE&gt;" target="_blank">
<polygon fill="none" stroke="black" points="1190,-309 950,-309 950,-189.5 1190,-189.5 1190,-309"/>
<text xml:space="preserve" text-anchor="start" x="975.12" y="-287.7" font-family="Times,serif" font-weight="bold" font-size="14.00">cms.medpar_2017.BLDDEDAM</text>
<text xml:space="preserve" text-anchor="start" x="986" y="-241.75" font-family="Times,serif" font-size="14.00">Beneficiarys liability for blood</text>
<text xml:space="preserve" text-anchor="start" x="1009.62" y="-225.25" font-family="Times,serif" font-size="14.00">deductible for stay ($)</text>
<polygon fill="none" stroke="black" points="958,-193.5 958,-305 1182,-305 1182,-193.5 958,-193.5"/>
</a>
</g>
</g>
<!-- cms.medpar_2013.BLDDEDAM&#45;&gt;cms.medpar_2017.BLDDEDAM -->
<!-- cms.medpar_2018.BLDDEDAM -->
<g id="node9" class="node">
<title>cms.medpar_2018.BLDDEDAM</title>
<g id="a_node9"><a xlink:href="../cms.medpar_2018/BLDDEDAM.html" xlink:title="&lt;TABLE&gt;" target="_blank">
<polygon fill="none" stroke="black" points="1448,-309 1208,-309 1208,-189.5 1448,-189.5 1448,-309"/>
<text xml:space="preserve" text-anchor="start" x="1233.12" y="-287.7" font-family="Times,serif" font-weight="bold" font-size="14.00">cms.medpar_2018.BLDDEDAM</text>
<text xml:space="preserve" text-anchor="start" x="1244" y="-241.75" font-family="Times,serif" font-size="14.00">Beneficiarys liability for blood</text>
<text xml:space="preserve" text-anchor="start" x="1267.62" y="-225.25" font-family="Times,serif" font-size="14.00">deductible for stay ($)</text>
<polygon fill="none" stroke="black" points="1216,-193.5 1216,-305 1440,-305 1440,-193.5 1216,-193.5"/>
</a>
</g>
</g>
<!-- cms.medpar_2013.BLDDEDAM&#45;&gt;cms.medpar_2018.BLDDEDAM -->
<!-- cms.medpar_2014.BLDDEDAM -->
<g id="node5" class="node">
<title>cms.medpar_2014.BLDDEDAM</title>
<g id="a_node5"><a xlink:href="../cms.medpar_2014/BLDDEDAM.html" xlink:title="&lt;TABLE&gt;" target="_blank">
<polygon fill="none" stroke="black" points="1604,-465.5 1364,-465.5 1364,-346 1604,-346 1604,-465.5"/>
<text xml:space="preserve" text-anchor="start" x="1389.12" y="-444.2" font-family="Times,serif" font-weight="bold" font-size="14.00">cms.medpar_2014.BLDDEDAM</text>
<text xml:space="preserve" text-anchor="start" x="1400" y="-398.25" font-family="Times,serif" font-size="14.00">Beneficiarys liability for blood</text>
<text xml:space="preserve" text-anchor="start" x="1423.62" y="-381.75" font-family="Times,serif" font-size="14.00">deductible for stay ($)</text>
<polygon fill="none" stroke="black" points="1372,-350 1372,-461.5 1596,-461.5 1596,-350 1372,-350"/>
</a>
</g>
</g>
<!-- cms.medpar_2014.BLDDEDAM&#45;&gt;medicare.ip.bene_blood_ddctbl_amt -->
<g id="edge8" class="edge">
<title>cms.medpar_2014.BLDDEDAM&#45;&gt;medicare.ip.bene_blood_ddctbl_amt</title>
<path fill="none" stroke="chocolate" stroke-width="2" d="M1494.11,-345.96C1498.83,-297.45 1496.43,-230.22 1457,-189.5 1383.25,-113.35 1094.71,-88.84 908.94,-80.96"/>
<polygon fill="chocolate" stroke="chocolate" stroke-width="2" points="909.18,-77.47 899.05,-80.56 908.89,-84.46 909.18,-77.47"/>
<text xml:space="preserve" text-anchor="middle" x="1511.24" y="-244.2" font-family="Times,serif" font-size="14.00">union</text>
</g>
<!-- cms.medpar_2015.BLDDEDAM&#45;&gt;medicare.ip.bene_blood_ddctbl_amt -->
<g id="edge9" class="edge">
<title>cms.medpar_2015.BLDDEDAM&#45;&gt;medicare.ip.bene_blood_ddctbl_amt</title>
<path fill="none" stroke="chocolate" stroke-width="2" d="M620.69,-189.16C630.78,-180.22 641.36,-170.85 651.91,-161.5"/>
<polygon fill="chocolate" stroke="chocolate" stroke-width="2" points="654.16,-164.19 659.32,-154.94 649.51,-158.95 654.16,-164.19"/>
<text xml:space="preserve" text-anchor="middle" x="656.48" y="-165.95" font-family="Times,serif" font-size="14.00">union</text>
</g>
<!-- cms.medpar_2016.BLDDEDAM&#45;&gt;medicare.ip.bene_blood_ddctbl_amt -->
<g id="edge10" class="edge">
<title>cms.medpar_2016.BLDDEDAM&#45;&gt;medicare.ip.bene_blood_ddctbl_amt</title>
<path fill="none" stroke="chocolate" stroke-width="2" d="M789.63,-189.4C786.62,-181.48 783.48,-173.22 780.33,-164.94"/>
<polygon fill="chocolate" stroke="chocolate" stroke-width="2" points="783.62,-163.75 776.8,-155.65 777.08,-166.24 783.62,-163.75"/>
<text xml:space="preserve" text-anchor="middle" x="798.04" y="-165.95" font-family="Times,serif" font-size="14.00">union</text>
</g>
<!-- cms.medpar_2017.BLDDEDAM&#45;&gt;medicare.ip.bene_blood_ddctbl_amt -->
<g id="edge11" class="edge">
<title>cms.medpar_2017.BLDDEDAM&#45;&gt;medicare.ip.bene_blood_ddctbl_amt</title>
<path fill="none" stroke="chocolate" stroke-width="2" d="M958.39,-189.16C939.95,-179.4 920.54,-169.12 901.27,-158.92"/>
<polygon fill="chocolate" stroke="chocolate" stroke-width="2" points="903.1,-155.93 892.62,-154.34 899.82,-162.12 903.1,-155.93"/>
<text xml:space="preserve" text-anchor="middle" x="939.6" y="-165.95" font-family="Times,serif" font-size="14.00">union</text>
</g>
<!-- cms.medpar_2018.BLDDEDAM&#45;&gt;medicare.ip.bene_blood_ddctbl_amt -->
<g id="edge12" class="edge">
<title>cms.medpar_2018.BLDDEDAM&#45;&gt;medicare.ip.bene_blood_ddctbl_amt</title>
<path fill="none" stroke="chocolate" stroke-width="2" d="M1207.78,-192.65C1204.83,-191.57 1201.9,-190.51 1199,-189.5 1104.67,-156.62 996.11,-129.33 909.03,-109.9"/>
<polygon fill="chocolate" stroke="chocolate" stroke-width="2" points="909.82,-106.49 899.3,-107.74 908.3,-113.32 909.82,-106.49"/>
<text xml:space="preserve" text-anchor="middle" x="1157.29" y="-165.95" font-family="Times,serif" font-size="14.00">union</text>
</g>
</g>
</svg>
