<?xml version="1.0" encoding="UTF-8" standalone="no"?>
<!DOCTYPE svg PUBLIC "-//W3C//DTD SVG 1.1//EN"
 "http://www.w3.org/Graphics/SVG/1.1/DTD/svg11.dtd">
<!-- Generated by graphviz version 10.0.1 (20240210.2158)
 -->
<!-- Pages: 1 -->
<svg width="283pt" height="335pt"
 viewBox="0.00 0.00 282.50 335.00" xmlns="http://www.w3.org/2000/svg" xmlns:xlink="http://www.w3.org/1999/xlink">
<g id="graph0" class="graph" transform="scale(1 1) rotate(0) translate(4 331)">
<polygon fill="white" stroke="none" points="-4,4 -4,-331 278.5,-331 278.5,4 -4,4"/>
<!-- medicare._beneficiaries.bene_id -->
<g id="node1" class="node">
<title>medicare._beneficiaries.bene_id</title>
<g id="a_node1"><a xlink:href="../medicare._beneficiaries/bene_id.html" xlink:title="&lt;TABLE&gt;" target="_blank">
<polygon fill="none" stroke="black" points="214,-36 2,-36 2,0 214,0 214,-36"/>
<text text-anchor="start" x="15" y="-13.95" font-family="Times,serif" font-weight="bold" font-size="14.00">medicare._beneficiaries.bene_id</text>
<polygon fill="none" stroke="black" points="10,-4.75 10,-31.25 206,-31.25 206,-4.75 10,-4.75"/>
</a>
</g>
</g>
<!-- medicare._ps.bene_id -->
<g id="node2" class="node">
<title>medicare._ps.bene_id</title>
<g id="a_node2"><a xlink:href="../medicare._ps/bene_id.html" xlink:title="&lt;TABLE&gt;" target="_blank">
<polygon fill="none" stroke="black" points="184,-109 32,-109 32,-73 184,-73 184,-109"/>
<text text-anchor="start" x="45" y="-86.95" font-family="Times,serif" font-weight="bold" font-size="14.00">medicare._ps.bene_id</text>
<polygon fill="none" stroke="black" points="40,-77.75 40,-104.25 176,-104.25 176,-77.75 40,-77.75"/>
</a>
</g>
</g>
<!-- medicare._ps.bene_id&#45;&gt;medicare._beneficiaries.bene_id -->
<g id="edge1" class="edge">
<title>medicare._ps.bene_id&#45;&gt;medicare._beneficiaries.bene_id</title>
<path fill="none" stroke="blue" stroke-width="5" d="M108,-72.81C108,-66.53 108,-59.2 108,-52.01"/>
<polygon fill="blue" stroke="blue" stroke-width="5" points="112.38,-52.27 108,-42.27 103.63,-52.27 112.38,-52.27"/>
<text text-anchor="middle" x="191.25" y="-49.45" font-family="Times,serif" font-size="14.00">	 &#160;Aggregated On bene_id</text>
</g>
<!-- medicare.ps.bene_id -->
<g id="node3" class="node">
<title>medicare.ps.bene_id</title>
<g id="a_node3"><a xlink:href="../medicare.ps/bene_id.html" xlink:title="&lt;TABLE&gt;" target="_blank">
<polygon fill="none" stroke="black" points="180.62,-182 35.38,-182 35.38,-146 180.62,-146 180.62,-182"/>
<text text-anchor="start" x="48.38" y="-159.95" font-family="Times,serif" font-weight="bold" font-size="14.00">medicare.ps.bene_id</text>
<polygon fill="none" stroke="black" points="43.38,-150.75 43.38,-177.25 172.62,-177.25 172.62,-150.75 43.38,-150.75"/>
</a>
</g>
</g>
<!-- medicare.ps.bene_id&#45;&gt;medicare._ps.bene_id -->
<g id="edge2" class="edge">
<title>medicare.ps.bene_id&#45;&gt;medicare._ps.bene_id</title>
<path fill="none" stroke="black" d="M108,-145.81C108,-138.23 108,-129.1 108,-120.54"/>
<polygon fill="black" stroke="black" points="111.5,-120.54 108,-110.54 104.5,-120.54 111.5,-120.54"/>
<text text-anchor="middle" x="127.5" y="-122.45" font-family="Times,serif" font-size="14.00">Copied</text>
</g>
<!-- medicare.ps.bene_id_parent -->
<g id="node4" class="node">
<title>medicare.ps.bene_id_parent</title>
<g id="a_node4"><a xlink:href="../medicare.ps/bene_id.html" xlink:title="8 incoming links (columns)" target="_blank">
<path fill="yellow" stroke="black" d="M216,-317.18C216,-322.6 167.59,-327 108,-327 48.41,-327 0,-322.6 0,-317.18 0,-317.18 0,-228.82 0,-228.82 0,-223.4 48.41,-219 108,-219 167.59,-219 216,-223.4 216,-228.82 216,-228.82 216,-317.18 216,-317.18"/>
<path fill="none" stroke="black" d="M216,-317.18C216,-311.76 167.59,-307.36 108,-307.36 48.41,-307.36 0,-311.76 0,-317.18"/>
<text text-anchor="middle" x="108" y="-267.95" font-family="Times,serif" font-size="14.00">8 incoming links (columns)</text>
</a>
</g>
</g>
<!-- medicare.ps.bene_id_parent&#45;&gt;medicare.ps.bene_id -->
<g id="edge3" class="edge">
<title>medicare.ps.bene_id_parent&#45;&gt;medicare.ps.bene_id</title>
<path fill="none" stroke="goldenrod" stroke-width="6" d="M108,-218.5C108,-211.71 108,-204.92 108,-198.57"/>
<polygon fill="goldenrod" stroke="goldenrod" stroke-width="6" points="113.25,-198.65 108,-188.65 102.75,-198.65 113.25,-198.65"/>
</g>
</g>
</svg>
