<?xml version="1.0" encoding="UTF-8" standalone="no"?>
<!DOCTYPE svg PUBLIC "-//W3C//DTD SVG 1.1//EN"
 "http://www.w3.org/Graphics/SVG/1.1/DTD/svg11.dtd">
<!-- Generated by graphviz version 10.0.1 (20240210.2158)
 -->
<!-- Pages: 1 -->
<svg width="292pt" height="429pt"
 viewBox="0.00 0.00 292.25 429.00" xmlns="http://www.w3.org/2000/svg" xmlns:xlink="http://www.w3.org/1999/xlink">
<g id="graph0" class="graph" transform="scale(1 1) rotate(0) translate(4 425)">
<polygon fill="white" stroke="none" points="-4,4 -4,-425 288.25,-425 288.25,4 -4,4"/>
<!-- medicare._ps.bene_id -->
<g id="node1" class="node">
<title>medicare._ps.bene_id</title>
<g id="a_node1"><a xlink:href="../medicare._ps/bene_id.html" xlink:title="&lt;TABLE&gt;" target="_blank">
<polygon fill="none" stroke="black" points="284.25,-119.5 0,-119.5 0,0 284.25,0 284.25,-119.5"/>
<text text-anchor="start" x="79.12" y="-98.2" font-family="Times,serif" font-weight="bold" font-size="14.00">medicare._ps.bene_id</text>
<text text-anchor="start" x="36" y="-51.7" font-family="Times,serif" font-size="14.00">Encrypted 723 Beneficiary ID (Unique</text>
<text text-anchor="start" x="128.62" y="-35.2" font-family="Times,serif" font-size="14.00">Key)</text>
<polygon fill="none" stroke="black" points="8,-4 8,-115.5 276.25,-115.5 276.25,-4 8,-4"/>
</a>
</g>
</g>
<!-- medicare.ps.bene_id -->
<g id="node2" class="node">
<title>medicare.ps.bene_id</title>
<g id="a_node2"><a xlink:href="../medicare.ps/bene_id.html" xlink:title="&lt;TABLE&gt;" target="_blank">
<polygon fill="none" stroke="black" points="284.25,-276 0,-276 0,-156.5 284.25,-156.5 284.25,-276"/>
<text text-anchor="start" x="82.5" y="-254.7" font-family="Times,serif" font-weight="bold" font-size="14.00">medicare.ps.bene_id</text>
<text text-anchor="start" x="36" y="-208.2" font-family="Times,serif" font-size="14.00">Encrypted 723 Beneficiary ID (Unique</text>
<text text-anchor="start" x="128.62" y="-191.7" font-family="Times,serif" font-size="14.00">Key)</text>
<polygon fill="none" stroke="black" points="8,-160.5 8,-272 276.25,-272 276.25,-160.5 8,-160.5"/>
</a>
</g>
</g>
<!-- medicare.ps.bene_id&#45;&gt;medicare._ps.bene_id -->
<g id="edge1" class="edge">
<title>medicare.ps.bene_id&#45;&gt;medicare._ps.bene_id</title>
<path fill="none" stroke="black" d="M142.12,-156.4C142.12,-148.19 142.12,-139.69 142.12,-131.29"/>
<polygon fill="black" stroke="black" points="145.63,-131.46 142.13,-121.46 138.63,-131.46 145.63,-131.46"/>
<text text-anchor="middle" x="161.62" y="-132.95" font-family="Times,serif" font-size="14.00">Copied</text>
</g>
<!-- medicare.ps.bene_id_parent -->
<g id="node3" class="node">
<title>medicare.ps.bene_id_parent</title>
<g id="a_node3"><a xlink:href="../medicare.ps/bene_id.html" xlink:title="8 incoming links (columns)" target="_blank">
<path fill="yellow" stroke="black" d="M250.12,-411.18C250.12,-416.6 201.72,-421 142.12,-421 82.53,-421 34.12,-416.6 34.12,-411.18 34.12,-411.18 34.12,-322.82 34.12,-322.82 34.12,-317.4 82.53,-313 142.12,-313 201.72,-313 250.12,-317.4 250.12,-322.82 250.12,-322.82 250.12,-411.18 250.12,-411.18"/>
<path fill="none" stroke="black" d="M250.12,-411.18C250.12,-405.76 201.72,-401.36 142.12,-401.36 82.53,-401.36 34.12,-405.76 34.12,-411.18"/>
<text text-anchor="middle" x="142.12" y="-361.95" font-family="Times,serif" font-size="14.00">8 incoming links (columns)</text>
</a>
</g>
</g>
<!-- medicare.ps.bene_id_parent&#45;&gt;medicare.ps.bene_id -->
<g id="edge2" class="edge">
<title>medicare.ps.bene_id_parent&#45;&gt;medicare.ps.bene_id</title>
<path fill="none" stroke="goldenrod" stroke-width="6" d="M142.12,-312.72C142.12,-306.2 142.12,-299.44 142.12,-292.68"/>
<polygon fill="goldenrod" stroke="goldenrod" stroke-width="6" points="147.38,-292.92 142.13,-282.92 136.88,-292.92 147.38,-292.92"/>
</g>
</g>
</svg>
