<?xml version="1.0" encoding="UTF-8" standalone="no"?>
<!DOCTYPE svg PUBLIC "-//W3C//DTD SVG 1.1//EN"
 "http://www.w3.org/Graphics/SVG/1.1/DTD/svg11.dtd">
<!-- Generated by graphviz version 10.0.1 (20240210.2158)
 -->
<!-- Pages: 1 -->
<svg width="283pt" height="408pt"
 viewBox="0.00 0.00 282.50 408.00" xmlns="http://www.w3.org/2000/svg" xmlns:xlink="http://www.w3.org/1999/xlink">
<g id="graph0" class="graph" transform="scale(1 1) rotate(0) translate(4 404)">
<polygon fill="white" stroke="none" points="-4,4 -4,-404 278.5,-404 278.5,4 -4,4"/>
<!-- medicare.beneficiaries.bene_id -->
<g id="node1" class="node">
<title>medicare.beneficiaries.bene_id</title>
<g id="a_node1"><a xlink:href="../medicare.beneficiaries/bene_id.html" xlink:title="&lt;TABLE&gt;" target="_blank">
<polygon fill="none" stroke="black" points="210.62,-36 5.38,-36 5.38,0 210.62,0 210.62,-36"/>
<text text-anchor="start" x="18.38" y="-13.95" font-family="Times,serif" font-weight="bold" font-size="14.00">medicare.beneficiaries.bene_id</text>
<polygon fill="none" stroke="black" points="13.38,-4.75 13.38,-31.25 202.62,-31.25 202.62,-4.75 13.38,-4.75"/>
</a>
</g>
</g>
<!-- medicare._beneficiaries.bene_id -->
<g id="node2" class="node">
<title>medicare._beneficiaries.bene_id</title>
<g id="a_node2"><a xlink:href="../medicare._beneficiaries/bene_id.html" xlink:title="&lt;TABLE&gt;" target="_blank">
<polygon fill="none" stroke="black" points="214,-109 2,-109 2,-73 214,-73 214,-109"/>
<text text-anchor="start" x="15" y="-86.95" font-family="Times,serif" font-weight="bold" font-size="14.00">medicare._beneficiaries.bene_id</text>
<polygon fill="none" stroke="black" points="10,-77.75 10,-104.25 206,-104.25 206,-77.75 10,-77.75"/>
</a>
</g>
</g>
<!-- medicare._beneficiaries.bene_id&#45;&gt;medicare.beneficiaries.bene_id -->
<g id="edge1" class="edge">
<title>medicare._beneficiaries.bene_id&#45;&gt;medicare.beneficiaries.bene_id</title>
<path fill="none" stroke="black" d="M108,-72.81C108,-65.23 108,-56.1 108,-47.54"/>
<polygon fill="black" stroke="black" points="111.5,-47.54 108,-37.54 104.5,-47.54 111.5,-47.54"/>
<text text-anchor="middle" x="127.5" y="-49.45" font-family="Times,serif" font-size="14.00">Copied</text>
</g>
<!-- medicare._ps.bene_id -->
<g id="node3" class="node">
<title>medicare._ps.bene_id</title>
<g id="a_node3"><a xlink:href="../medicare._ps/bene_id.html" xlink:title="&lt;TABLE&gt;" target="_blank">
<polygon fill="none" stroke="black" points="184,-182 32,-182 32,-146 184,-146 184,-182"/>
<text text-anchor="start" x="45" y="-159.95" font-family="Times,serif" font-weight="bold" font-size="14.00">medicare._ps.bene_id</text>
<polygon fill="none" stroke="black" points="40,-150.75 40,-177.25 176,-177.25 176,-150.75 40,-150.75"/>
</a>
</g>
</g>
<!-- medicare._ps.bene_id&#45;&gt;medicare._beneficiaries.bene_id -->
<g id="edge2" class="edge">
<title>medicare._ps.bene_id&#45;&gt;medicare._beneficiaries.bene_id</title>
<path fill="none" stroke="blue" stroke-width="5" d="M108,-145.81C108,-139.53 108,-132.2 108,-125.01"/>
<polygon fill="blue" stroke="blue" stroke-width="5" points="112.38,-125.27 108,-115.27 103.63,-125.27 112.38,-125.27"/>
<text text-anchor="middle" x="191.25" y="-122.45" font-family="Times,serif" font-size="14.00">	 &#160;Aggregated On bene_id</text>
</g>
<!-- medicare.ps.bene_id -->
<g id="node4" class="node">
<title>medicare.ps.bene_id</title>
<g id="a_node4"><a xlink:href="../medicare.ps/bene_id.html" xlink:title="&lt;TABLE&gt;" target="_blank">
<polygon fill="none" stroke="black" points="180.62,-255 35.38,-255 35.38,-219 180.62,-219 180.62,-255"/>
<text text-anchor="start" x="48.38" y="-232.95" font-family="Times,serif" font-weight="bold" font-size="14.00">medicare.ps.bene_id</text>
<polygon fill="none" stroke="black" points="43.38,-223.75 43.38,-250.25 172.62,-250.25 172.62,-223.75 43.38,-223.75"/>
</a>
</g>
</g>
<!-- medicare.ps.bene_id&#45;&gt;medicare._ps.bene_id -->
<g id="edge3" class="edge">
<title>medicare.ps.bene_id&#45;&gt;medicare._ps.bene_id</title>
<path fill="none" stroke="black" d="M108,-218.81C108,-211.23 108,-202.1 108,-193.54"/>
<polygon fill="black" stroke="black" points="111.5,-193.54 108,-183.54 104.5,-193.54 111.5,-193.54"/>
<text text-anchor="middle" x="127.5" y="-195.45" font-family="Times,serif" font-size="14.00">Copied</text>
</g>
<!-- medicare.ps.bene_id_parent -->
<g id="node5" class="node">
<title>medicare.ps.bene_id_parent</title>
<g id="a_node5"><a xlink:href="../medicare.ps/bene_id.html" xlink:title="8 incoming links (columns)" target="_blank">
<path fill="yellow" stroke="black" d="M216,-390.18C216,-395.6 167.59,-400 108,-400 48.41,-400 0,-395.6 0,-390.18 0,-390.18 0,-301.82 0,-301.82 0,-296.4 48.41,-292 108,-292 167.59,-292 216,-296.4 216,-301.82 216,-301.82 216,-390.18 216,-390.18"/>
<path fill="none" stroke="black" d="M216,-390.18C216,-384.76 167.59,-380.36 108,-380.36 48.41,-380.36 0,-384.76 0,-390.18"/>
<text text-anchor="middle" x="108" y="-340.95" font-family="Times,serif" font-size="14.00">8 incoming links (columns)</text>
</a>
</g>
</g>
<!-- medicare.ps.bene_id_parent&#45;&gt;medicare.ps.bene_id -->
<g id="edge4" class="edge">
<title>medicare.ps.bene_id_parent&#45;&gt;medicare.ps.bene_id</title>
<path fill="none" stroke="goldenrod" stroke-width="6" d="M108,-291.5C108,-284.71 108,-277.92 108,-271.57"/>
<polygon fill="goldenrod" stroke="goldenrod" stroke-width="6" points="113.25,-271.65 108,-261.65 102.75,-271.65 113.25,-271.65"/>
</g>
</g>
</svg>
