<?xml version="1.0" encoding="UTF-8" standalone="no"?>
<!DOCTYPE svg PUBLIC "-//W3C//DTD SVG 1.1//EN"
 "http://www.w3.org/Graphics/SVG/1.1/DTD/svg11.dtd">
<!-- Generated by graphviz version 10.0.1 (20240210.2158)
 -->
<!-- Pages: 1 -->
<svg width="317pt" height="742pt"
 viewBox="0.00 0.00 316.62 742.00" xmlns="http://www.w3.org/2000/svg" xmlns:xlink="http://www.w3.org/1999/xlink">
<g id="graph0" class="graph" transform="scale(1 1) rotate(0) translate(4 738)">
<polygon fill="white" stroke="none" points="-4,4 -4,-738 312.62,-738 312.62,4 -4,4"/>
<!-- medicare.beneficiaries.bene_id -->
<g id="node1" class="node">
<title>medicare.beneficiaries.bene_id</title>
<g id="a_node1"><a xlink:href="../medicare.beneficiaries/bene_id.html" xlink:title="&lt;TABLE&gt;" target="_blank">
<polygon fill="none" stroke="black" points="284.25,-119.5 0,-119.5 0,0 284.25,0 284.25,-119.5"/>
<text text-anchor="start" x="52.5" y="-98.2" font-family="Times,serif" font-weight="bold" font-size="14.00">medicare.beneficiaries.bene_id</text>
<text text-anchor="start" x="36" y="-51.7" font-family="Times,serif" font-size="14.00">Encrypted 723 Beneficiary ID (Unique</text>
<text text-anchor="start" x="128.62" y="-35.2" font-family="Times,serif" font-size="14.00">Key)</text>
<polygon fill="none" stroke="black" points="8,-4 8,-115.5 276.25,-115.5 276.25,-4 8,-4"/>
</a>
</g>
</g>
<!-- medicare._beneficiaries.bene_id -->
<g id="node2" class="node">
<title>medicare._beneficiaries.bene_id</title>
<g id="a_node2"><a xlink:href="../medicare._beneficiaries/bene_id.html" xlink:title="&lt;TABLE&gt;" target="_blank">
<polygon fill="none" stroke="black" points="284.25,-276 0,-276 0,-156.5 284.25,-156.5 284.25,-276"/>
<text text-anchor="start" x="49.12" y="-254.7" font-family="Times,serif" font-weight="bold" font-size="14.00">medicare._beneficiaries.bene_id</text>
<text text-anchor="start" x="36" y="-208.2" font-family="Times,serif" font-size="14.00">Encrypted 723 Beneficiary ID (Unique</text>
<text text-anchor="start" x="128.62" y="-191.7" font-family="Times,serif" font-size="14.00">Key)</text>
<polygon fill="none" stroke="black" points="8,-160.5 8,-272 276.25,-272 276.25,-160.5 8,-160.5"/>
</a>
</g>
</g>
<!-- medicare._beneficiaries.bene_id&#45;&gt;medicare.beneficiaries.bene_id -->
<g id="edge1" class="edge">
<title>medicare._beneficiaries.bene_id&#45;&gt;medicare.beneficiaries.bene_id</title>
<path fill="none" stroke="black" d="M142.12,-156.4C142.12,-148.19 142.12,-139.69 142.12,-131.29"/>
<polygon fill="black" stroke="black" points="145.63,-131.46 142.13,-121.46 138.63,-131.46 145.63,-131.46"/>
<text text-anchor="middle" x="161.62" y="-132.95" font-family="Times,serif" font-size="14.00">Copied</text>
</g>
<!-- medicare._ps.bene_id -->
<g id="node3" class="node">
<title>medicare._ps.bene_id</title>
<g id="a_node3"><a xlink:href="../medicare._ps/bene_id.html" xlink:title="&lt;TABLE&gt;" target="_blank">
<polygon fill="none" stroke="black" points="284.25,-432.5 0,-432.5 0,-313 284.25,-313 284.25,-432.5"/>
<text text-anchor="start" x="79.12" y="-411.2" font-family="Times,serif" font-weight="bold" font-size="14.00">medicare._ps.bene_id</text>
<text text-anchor="start" x="36" y="-364.7" font-family="Times,serif" font-size="14.00">Encrypted 723 Beneficiary ID (Unique</text>
<text text-anchor="start" x="128.62" y="-348.2" font-family="Times,serif" font-size="14.00">Key)</text>
<polygon fill="none" stroke="black" points="8,-317 8,-428.5 276.25,-428.5 276.25,-317 8,-317"/>
</a>
</g>
</g>
<!-- medicare._ps.bene_id&#45;&gt;medicare._beneficiaries.bene_id -->
<g id="edge2" class="edge">
<title>medicare._ps.bene_id&#45;&gt;medicare._beneficiaries.bene_id</title>
<path fill="none" stroke="blue" stroke-width="5" d="M142.12,-312.9C142.12,-306.28 142.12,-299.46 142.12,-292.67"/>
<polygon fill="blue" stroke="blue" stroke-width="5" points="146.5,-292.69 142.13,-282.69 137.75,-292.69 146.5,-292.69"/>
<text text-anchor="middle" x="225.38" y="-289.45" font-family="Times,serif" font-size="14.00">	 &#160;Aggregated On bene_id</text>
</g>
<!-- medicare.ps.bene_id -->
<g id="node4" class="node">
<title>medicare.ps.bene_id</title>
<g id="a_node4"><a xlink:href="../medicare.ps/bene_id.html" xlink:title="&lt;TABLE&gt;" target="_blank">
<polygon fill="none" stroke="black" points="284.25,-589 0,-589 0,-469.5 284.25,-469.5 284.25,-589"/>
<text text-anchor="start" x="82.5" y="-567.7" font-family="Times,serif" font-weight="bold" font-size="14.00">medicare.ps.bene_id</text>
<text text-anchor="start" x="36" y="-521.2" font-family="Times,serif" font-size="14.00">Encrypted 723 Beneficiary ID (Unique</text>
<text text-anchor="start" x="128.62" y="-504.7" font-family="Times,serif" font-size="14.00">Key)</text>
<polygon fill="none" stroke="black" points="8,-473.5 8,-585 276.25,-585 276.25,-473.5 8,-473.5"/>
</a>
</g>
</g>
<!-- medicare.ps.bene_id&#45;&gt;medicare._ps.bene_id -->
<g id="edge3" class="edge">
<title>medicare.ps.bene_id&#45;&gt;medicare._ps.bene_id</title>
<path fill="none" stroke="black" d="M142.12,-469.4C142.12,-461.19 142.12,-452.69 142.12,-444.29"/>
<polygon fill="black" stroke="black" points="145.63,-444.46 142.13,-434.46 138.63,-444.46 145.63,-444.46"/>
<text text-anchor="middle" x="161.62" y="-445.95" font-family="Times,serif" font-size="14.00">Copied</text>
</g>
<!-- medicare.ps.bene_id_parent -->
<g id="node5" class="node">
<title>medicare.ps.bene_id_parent</title>
<g id="a_node5"><a xlink:href="../medicare.ps/bene_id.html" xlink:title="8 incoming links (columns)" target="_blank">
<path fill="yellow" stroke="black" d="M250.12,-724.18C250.12,-729.6 201.72,-734 142.12,-734 82.53,-734 34.12,-729.6 34.12,-724.18 34.12,-724.18 34.12,-635.82 34.12,-635.82 34.12,-630.4 82.53,-626 142.12,-626 201.72,-626 250.12,-630.4 250.12,-635.82 250.12,-635.82 250.12,-724.18 250.12,-724.18"/>
<path fill="none" stroke="black" d="M250.12,-724.18C250.12,-718.76 201.72,-714.36 142.12,-714.36 82.53,-714.36 34.12,-718.76 34.12,-724.18"/>
<text text-anchor="middle" x="142.12" y="-674.95" font-family="Times,serif" font-size="14.00">8 incoming links (columns)</text>
</a>
</g>
</g>
<!-- medicare.ps.bene_id_parent&#45;&gt;medicare.ps.bene_id -->
<g id="edge4" class="edge">
<title>medicare.ps.bene_id_parent&#45;&gt;medicare.ps.bene_id</title>
<path fill="none" stroke="goldenrod" stroke-width="6" d="M142.12,-625.72C142.12,-619.2 142.12,-612.44 142.12,-605.68"/>
<polygon fill="goldenrod" stroke="goldenrod" stroke-width="6" points="147.38,-605.92 142.13,-595.92 136.88,-605.92 147.38,-605.92"/>
</g>
</g>
</svg>
