<?xml version="1.0" encoding="UTF-8" standalone="no"?>
<!DOCTYPE svg PUBLIC "-//W3C//DTD SVG 1.1//EN"
 "http://www.w3.org/Graphics/SVG/1.1/DTD/svg11.dtd">
<!-- Generated by graphviz version 10.0.1 (20240210.2158)
 -->
<!-- Pages: 1 -->
<svg width="388pt" height="849pt"
 viewBox="0.00 0.00 387.75 849.00" xmlns="http://www.w3.org/2000/svg" xmlns:xlink="http://www.w3.org/1999/xlink">
<g id="graph0" class="graph" transform="scale(1 1) rotate(0) translate(4 845)">
<polygon fill="white" stroke="none" points="-4,4 -4,-845 383.75,-845 383.75,4 -4,4"/>
<!-- medicare.beneficiaries.bene -->
<g id="node1" class="node">
<title>medicare.beneficiaries.bene</title>
<g id="a_node1"><a xlink:href="../medicare.beneficiaries/bene.html" xlink:title="&lt;TABLE&gt;" target="_blank">
<polygon fill="none" stroke="black" points="379.75,-226.5 0,-226.5 0,0 379.75,0 379.75,-226.5"/>
<text text-anchor="start" x="109.25" y="-205.2" font-family="Times,serif" font-weight="bold" font-size="14.00">medicare.beneficiaries.bene</text>
<text text-anchor="start" x="36" y="-158.7" font-family="Times,serif" font-size="14.00">HLL hash (see https://en.wikipedia.org/w</text>
<text text-anchor="start" x="55.12" y="-142.2" font-family="Times,serif" font-size="14.00">iki/HyperLogLog). Can be used to</text>
<text text-anchor="start" x="58.5" y="-125.7" font-family="Times,serif" font-size="14.00">calculate number of beneficiaries</text>
<text text-anchor="start" x="41.25" y="-109.2" font-family="Times,serif" font-size="14.00">satisfying a certain given condition Use</text>
<text text-anchor="start" x="83.25" y="-92.7" font-family="Times,serif" font-size="14.00">#(hll_add_agg(bene)) or</text>
<text text-anchor="start" x="54.75" y="-76.2" font-family="Times,serif" font-size="14.00">hll_cardinality(hll_add_agg(bene))</text>
<text text-anchor="start" x="120.38" y="-59.7" font-family="Times,serif" font-size="14.00">aggregator</text>
<polygon fill="none" stroke="black" points="11,-7 11,-29.5 368.75,-29.5 368.75,-7 11,-7"/>
<text text-anchor="start" x="14" y="-13.2" font-family="Times,serif" font-size="14.00">GENERATED ALWAYS AS (hll_hash_text(bene_id)) STORED</text>
<polygon fill="none" stroke="black" points="8,-4 8,-222.5 371.75,-222.5 371.75,-4 8,-4"/>
</a>
</g>
</g>
<!-- medicare._beneficiaries.bene_id -->
<g id="node2" class="node">
<title>medicare._beneficiaries.bene_id</title>
<g id="a_node2"><a xlink:href="../medicare._beneficiaries/bene_id.html" xlink:title="&lt;TABLE&gt;" target="_blank">
<polygon fill="none" stroke="black" points="332,-383 47.75,-383 47.75,-263.5 332,-263.5 332,-383"/>
<text text-anchor="start" x="96.88" y="-361.7" font-family="Times,serif" font-weight="bold" font-size="14.00">medicare._beneficiaries.bene_id</text>
<text text-anchor="start" x="83.75" y="-315.2" font-family="Times,serif" font-size="14.00">Encrypted 723 Beneficiary ID (Unique</text>
<text text-anchor="start" x="176.38" y="-298.7" font-family="Times,serif" font-size="14.00">Key)</text>
<polygon fill="none" stroke="black" points="55.75,-267.5 55.75,-379 324,-379 324,-267.5 55.75,-267.5"/>
</a>
</g>
</g>
<!-- medicare._beneficiaries.bene_id&#45;&gt;medicare.beneficiaries.bene -->
<g id="edge1" class="edge">
<title>medicare._beneficiaries.bene_id&#45;&gt;medicare.beneficiaries.bene</title>
<path fill="none" stroke="black" d="M189.88,-263.2C189.88,-255.18 189.88,-246.73 189.88,-238.08"/>
<polygon fill="black" stroke="black" points="193.38,-238.13 189.88,-228.13 186.38,-238.13 193.38,-238.13"/>
<text text-anchor="middle" x="228.5" y="-239.95" font-family="Times,serif" font-size="14.00"> &#160;Transformed</text>
</g>
<!-- medicare._ps.bene_id -->
<g id="node3" class="node">
<title>medicare._ps.bene_id</title>
<g id="a_node3"><a xlink:href="../medicare._ps/bene_id.html" xlink:title="&lt;TABLE&gt;" target="_blank">
<polygon fill="none" stroke="black" points="332,-539.5 47.75,-539.5 47.75,-420 332,-420 332,-539.5"/>
<text text-anchor="start" x="126.88" y="-518.2" font-family="Times,serif" font-weight="bold" font-size="14.00">medicare._ps.bene_id</text>
<text text-anchor="start" x="83.75" y="-471.7" font-family="Times,serif" font-size="14.00">Encrypted 723 Beneficiary ID (Unique</text>
<text text-anchor="start" x="176.38" y="-455.2" font-family="Times,serif" font-size="14.00">Key)</text>
<polygon fill="none" stroke="black" points="55.75,-424 55.75,-535.5 324,-535.5 324,-424 55.75,-424"/>
</a>
</g>
</g>
<!-- medicare._ps.bene_id&#45;&gt;medicare._beneficiaries.bene_id -->
<g id="edge2" class="edge">
<title>medicare._ps.bene_id&#45;&gt;medicare._beneficiaries.bene_id</title>
<path fill="none" stroke="blue" stroke-width="5" d="M189.88,-419.9C189.88,-413.28 189.88,-406.46 189.88,-399.67"/>
<polygon fill="blue" stroke="blue" stroke-width="5" points="194.25,-399.69 189.88,-389.69 185.5,-399.69 194.25,-399.69"/>
<text text-anchor="middle" x="273.12" y="-396.45" font-family="Times,serif" font-size="14.00">	 &#160;Aggregated On bene_id</text>
</g>
<!-- medicare.ps.bene_id -->
<g id="node4" class="node">
<title>medicare.ps.bene_id</title>
<g id="a_node4"><a xlink:href="../medicare.ps/bene_id.html" xlink:title="&lt;TABLE&gt;" target="_blank">
<polygon fill="none" stroke="black" points="332,-696 47.75,-696 47.75,-576.5 332,-576.5 332,-696"/>
<text text-anchor="start" x="130.25" y="-674.7" font-family="Times,serif" font-weight="bold" font-size="14.00">medicare.ps.bene_id</text>
<text text-anchor="start" x="83.75" y="-628.2" font-family="Times,serif" font-size="14.00">Encrypted 723 Beneficiary ID (Unique</text>
<text text-anchor="start" x="176.38" y="-611.7" font-family="Times,serif" font-size="14.00">Key)</text>
<polygon fill="none" stroke="black" points="55.75,-580.5 55.75,-692 324,-692 324,-580.5 55.75,-580.5"/>
</a>
</g>
</g>
<!-- medicare.ps.bene_id&#45;&gt;medicare._ps.bene_id -->
<g id="edge3" class="edge">
<title>medicare.ps.bene_id&#45;&gt;medicare._ps.bene_id</title>
<path fill="none" stroke="black" d="M189.88,-576.4C189.88,-568.19 189.88,-559.69 189.88,-551.29"/>
<polygon fill="black" stroke="black" points="193.38,-551.46 189.88,-541.46 186.38,-551.46 193.38,-551.46"/>
<text text-anchor="middle" x="209.38" y="-552.95" font-family="Times,serif" font-size="14.00">Copied</text>
</g>
<!-- medicare.ps.bene_id_parent -->
<g id="node5" class="node">
<title>medicare.ps.bene_id_parent</title>
<g id="a_node5"><a xlink:href="../medicare.ps/bene_id.html" xlink:title="8 incoming links (columns)" target="_blank">
<path fill="yellow" stroke="black" d="M297.88,-831.18C297.88,-836.6 249.47,-841 189.88,-841 130.28,-841 81.88,-836.6 81.88,-831.18 81.88,-831.18 81.88,-742.82 81.88,-742.82 81.88,-737.4 130.28,-733 189.88,-733 249.47,-733 297.88,-737.4 297.88,-742.82 297.88,-742.82 297.88,-831.18 297.88,-831.18"/>
<path fill="none" stroke="black" d="M297.88,-831.18C297.88,-825.76 249.47,-821.36 189.88,-821.36 130.28,-821.36 81.88,-825.76 81.88,-831.18"/>
<text text-anchor="middle" x="189.88" y="-781.95" font-family="Times,serif" font-size="14.00">8 incoming links (columns)</text>
</a>
</g>
</g>
<!-- medicare.ps.bene_id_parent&#45;&gt;medicare.ps.bene_id -->
<g id="edge4" class="edge">
<title>medicare.ps.bene_id_parent&#45;&gt;medicare.ps.bene_id</title>
<path fill="none" stroke="goldenrod" stroke-width="6" d="M189.88,-732.72C189.88,-726.2 189.88,-719.44 189.88,-712.68"/>
<polygon fill="goldenrod" stroke="goldenrod" stroke-width="6" points="195.13,-712.92 189.88,-702.92 184.63,-712.92 195.13,-712.92"/>
</g>
</g>
</svg>
