<?xml version="1.0" encoding="UTF-8" standalone="no"?>
<!DOCTYPE svg PUBLIC "-//W3C//DTD SVG 1.1//EN"
 "http://www.w3.org/Graphics/SVG/1.1/DTD/svg11.dtd">
<!-- Generated by graphviz version 10.0.1 (20240210.2158)
 -->
<!-- Pages: 1 -->
<svg width="297pt" height="462pt"
 viewBox="0.00 0.00 296.75 462.00" xmlns="http://www.w3.org/2000/svg" xmlns:xlink="http://www.w3.org/1999/xlink">
<g id="graph0" class="graph" transform="scale(1 1) rotate(0) translate(4 458)">
<polygon fill="white" stroke="none" points="-4,4 -4,-458 292.75,-458 292.75,4 -4,4"/>
<!-- medicare._ps.buyin_cvg_count -->
<g id="node1" class="node">
<title>medicare._ps.buyin_cvg_count</title>
<g id="a_node1"><a xlink:href="../medicare._ps/buyin_cvg_count.html" xlink:title="&lt;TABLE&gt;" target="_blank">
<polygon fill="none" stroke="black" points="288.75,-136 0,-136 0,0 288.75,0 288.75,-136"/>
<text text-anchor="start" x="54.75" y="-114.7" font-family="Times,serif" font-weight="bold" font-size="14.00">medicare._ps.buyin_cvg_count</text>
<text text-anchor="start" x="36" y="-68.2" font-family="Times,serif" font-size="14.00">Number of months during a given year,</text>
<text text-anchor="start" x="44.25" y="-51.7" font-family="Times,serif" font-size="14.00">during the year when the beneficiary</text>
<text text-anchor="start" x="58.5" y="-35.2" font-family="Times,serif" font-size="14.00">premium was paid by the state.</text>
<polygon fill="none" stroke="black" points="8,-4 8,-132 280.75,-132 280.75,-4 8,-4"/>
</a>
</g>
</g>
<!-- medicare.ps.buyin_cvg_count -->
<g id="node2" class="node">
<title>medicare.ps.buyin_cvg_count</title>
<g id="a_node2"><a xlink:href="../medicare.ps/buyin_cvg_count.html" xlink:title="&lt;TABLE&gt;" target="_blank">
<polygon fill="none" stroke="black" points="288.75,-309 0,-309 0,-173 288.75,-173 288.75,-309"/>
<text text-anchor="start" x="58.12" y="-287.7" font-family="Times,serif" font-weight="bold" font-size="14.00">medicare.ps.buyin_cvg_count</text>
<text text-anchor="start" x="36" y="-241.2" font-family="Times,serif" font-size="14.00">Number of months during a given year,</text>
<text text-anchor="start" x="44.25" y="-224.7" font-family="Times,serif" font-size="14.00">during the year when the beneficiary</text>
<text text-anchor="start" x="58.5" y="-208.2" font-family="Times,serif" font-size="14.00">premium was paid by the state.</text>
<polygon fill="none" stroke="black" points="8,-177 8,-305 280.75,-305 280.75,-177 8,-177"/>
</a>
</g>
</g>
<!-- medicare.ps.buyin_cvg_count&#45;&gt;medicare._ps.buyin_cvg_count -->
<g id="edge1" class="edge">
<title>medicare.ps.buyin_cvg_count&#45;&gt;medicare._ps.buyin_cvg_count</title>
<path fill="none" stroke="black" d="M144.38,-172.91C144.38,-164.67 144.38,-156.2 144.38,-147.81"/>
<polygon fill="black" stroke="black" points="147.88,-147.97 144.38,-137.97 140.88,-147.97 147.88,-147.97"/>
<text text-anchor="middle" x="163.88" y="-149.45" font-family="Times,serif" font-size="14.00">Copied</text>
</g>
<!-- medicare.ps.buyin_cvg_count_parent -->
<g id="node3" class="node">
<title>medicare.ps.buyin_cvg_count_parent</title>
<g id="a_node3"><a xlink:href="../medicare.ps/buyin_cvg_count.html" xlink:title="8 incoming links (columns)" target="_blank">
<path fill="yellow" stroke="black" d="M252.38,-444.18C252.38,-449.6 203.97,-454 144.38,-454 84.78,-454 36.38,-449.6 36.38,-444.18 36.38,-444.18 36.38,-355.82 36.38,-355.82 36.38,-350.4 84.78,-346 144.38,-346 203.97,-346 252.38,-350.4 252.38,-355.82 252.38,-355.82 252.38,-444.18 252.38,-444.18"/>
<path fill="none" stroke="black" d="M252.38,-444.18C252.38,-438.76 203.97,-434.36 144.38,-434.36 84.78,-434.36 36.38,-438.76 36.38,-444.18"/>
<text text-anchor="middle" x="144.38" y="-394.95" font-family="Times,serif" font-size="14.00">8 incoming links (columns)</text>
</a>
</g>
</g>
<!-- medicare.ps.buyin_cvg_count_parent&#45;&gt;medicare.ps.buyin_cvg_count -->
<g id="edge2" class="edge">
<title>medicare.ps.buyin_cvg_count_parent&#45;&gt;medicare.ps.buyin_cvg_count</title>
<path fill="none" stroke="goldenrod" stroke-width="6" d="M144.38,-345.85C144.38,-339.33 144.38,-332.56 144.38,-325.73"/>
<polygon fill="goldenrod" stroke="goldenrod" stroke-width="6" points="149.63,-325.75 144.38,-315.75 139.13,-325.75 149.63,-325.75"/>
</g>
</g>
</svg>
