<?xml version="1.0" encoding="UTF-8" standalone="no"?>
<!DOCTYPE svg PUBLIC "-//W3C//DTD SVG 1.1//EN"
 "http://www.w3.org/Graphics/SVG/1.1/DTD/svg11.dtd">
<!-- Generated by graphviz version 10.0.1 (20240210.2158)
 -->
<!-- Pages: 1 -->
<svg width="927pt" height="236pt"
 viewBox="0.00 0.00 927.00 236.00" xmlns="http://www.w3.org/2000/svg" xmlns:xlink="http://www.w3.org/1999/xlink">
<g id="graph0" class="graph" transform="scale(1 1) rotate(0) translate(4 232)">
<polygon fill="white" stroke="none" points="-4,4 -4,-232 923,-232 923,4 -4,4"/>
<!-- medicare.qc_enrollments.buyin -->
<g id="node1" class="node">
<title>medicare.qc_enrollments.buyin</title>
<g id="a_node1"><a xlink:href="../medicare.qc_enrollments/buyin.html" xlink:title="&lt;TABLE&gt;" target="_blank">
<polygon fill="none" stroke="black" points="564.38,-36 354.62,-36 354.62,0 564.38,0 564.38,-36"/>
<text text-anchor="start" x="367.62" y="-13.95" font-family="Times,serif" font-weight="bold" font-size="14.00">medicare.qc_enrollments.buyin</text>
<polygon fill="none" stroke="black" points="362.62,-4.75 362.62,-31.25 556.38,-31.25 556.38,-4.75 362.62,-4.75"/>
</a>
</g>
</g>
<!-- medicare.qc_enrl_bene.buyin -->
<g id="node2" class="node">
<title>medicare.qc_enrl_bene.buyin</title>
<g id="a_node2"><a xlink:href="../medicare.qc_enrl_bene/buyin.html" xlink:title="&lt;TABLE&gt;" target="_blank">
<polygon fill="none" stroke="black" points="919,-132 0,-132 0,-73 919,-73 919,-132"/>
<text text-anchor="start" x="373.62" y="-110.7" font-family="Times,serif" font-weight="bold" font-size="14.00">medicare.qc_enrl_bene.buyin</text>
<polygon fill="none" stroke="black" points="11,-80 11,-102.5 908,-102.5 908,-80 11,-80"/>
<text text-anchor="start" x="14" y="-86.2" font-family="Times,serif" font-size="14.00">GENERATED ALWAYS AS (CASE WHEN buyin_cvg_count IS NULL THEN NULL WHEN buyin_cvg_count &gt; 0 THEN TRUE ELSE FALSE END) STORED</text>
<polygon fill="none" stroke="black" points="8,-77 8,-128 911,-128 911,-77 8,-77"/>
</a>
</g>
</g>
<!-- medicare.qc_enrl_bene.buyin&#45;&gt;medicare.qc_enrollments.buyin -->
<g id="edge1" class="edge">
<title>medicare.qc_enrl_bene.buyin&#45;&gt;medicare.qc_enrollments.buyin</title>
<path fill="none" stroke="black" d="M459.5,-72.65C459.5,-64.62 459.5,-55.91 459.5,-47.89"/>
<polygon fill="black" stroke="black" points="463,-47.93 459.5,-37.93 456,-47.93 463,-47.93"/>
<text text-anchor="middle" x="498.12" y="-49.45" font-family="Times,serif" font-size="14.00"> &#160;Transformed</text>
</g>
<!-- medicare.enrollments.buyin -->
<g id="node3" class="node">
<title>medicare.enrollments.buyin</title>
<g id="a_node3"><a xlink:href="../medicare.enrollments/buyin.html" xlink:title="&lt;TABLE&gt;" target="_blank">
<polygon fill="none" stroke="black" points="919,-228 0,-228 0,-169 919,-169 919,-228"/>
<text text-anchor="start" x="377.75" y="-206.7" font-family="Times,serif" font-weight="bold" font-size="14.00">medicare.enrollments.buyin</text>
<polygon fill="none" stroke="black" points="11,-176 11,-198.5 908,-198.5 908,-176 11,-176"/>
<text text-anchor="start" x="14" y="-182.2" font-family="Times,serif" font-size="14.00">GENERATED ALWAYS AS (CASE WHEN buyin_cvg_count IS NULL THEN NULL WHEN buyin_cvg_count &gt; 0 THEN TRUE ELSE FALSE END) STORED</text>
<polygon fill="none" stroke="black" points="8,-173 8,-224 911,-224 911,-173 8,-173"/>
</a>
</g>
</g>
<!-- medicare.enrollments.buyin&#45;&gt;medicare.qc_enrl_bene.buyin -->
<g id="edge2" class="edge">
<title>medicare.enrollments.buyin&#45;&gt;medicare.qc_enrl_bene.buyin</title>
<path fill="none" stroke="black" d="M459.5,-168.53C459.5,-160.68 459.5,-152.05 459.5,-143.7"/>
<polygon fill="black" stroke="black" points="463,-143.73 459.5,-133.73 456,-143.73 463,-143.73"/>
<text text-anchor="middle" x="505.62" y="-145.45" font-family="Times,serif" font-size="14.00">	join natural</text>
</g>
</g>
</svg>
