<?xml version="1.0" encoding="UTF-8" standalone="no"?>
<!DOCTYPE svg PUBLIC "-//W3C//DTD SVG 1.1//EN"
 "http://www.w3.org/Graphics/SVG/1.1/DTD/svg11.dtd">
<!-- Generated by graphviz version 10.0.1 (20240210.2158)
 -->
<!-- Pages: 1 -->
<svg width="381pt" height="654pt"
 viewBox="0.00 0.00 381.12 654.00" xmlns="http://www.w3.org/2000/svg" xmlns:xlink="http://www.w3.org/1999/xlink">
<g id="graph0" class="graph" transform="scale(1 1) rotate(0) translate(4 650)">
<polygon fill="white" stroke="none" points="-4,4 -4,-650 377.12,-650 377.12,4 -4,4"/>
<!-- medicare.enrollments.buyin_cvg_count -->
<g id="node1" class="node">
<title>medicare.enrollments.buyin_cvg_count</title>
<g id="a_node1"><a xlink:href="../medicare.enrollments/buyin_cvg_count.html" xlink:title="&lt;TABLE&gt;" target="_blank">
<polygon fill="none" stroke="black" points="271.75,-59 17,-59 17,0 271.75,0 271.75,-59"/>
<text text-anchor="start" x="30" y="-37.7" font-family="Times,serif" font-weight="bold" font-size="14.00">medicare.enrollments.buyin_cvg_count</text>
<polygon fill="none" stroke="black" points="28,-7 28,-29.5 260.75,-29.5 260.75,-7 28,-7"/>
<text text-anchor="start" x="31" y="-13.2" font-family="Times,serif" font-size="14.00">MAX(buyin_cvg_count)</text>
<polygon fill="none" stroke="black" points="25,-4 25,-55 263.75,-55 263.75,-4 25,-4"/>
</a>
</g>
</g>
<!-- medicare._enrollments.buyin_cvg_count -->
<g id="node2" class="node">
<title>medicare._enrollments.buyin_cvg_count</title>
<g id="a_node2"><a xlink:href="../medicare._enrollments/buyin_cvg_count.html" xlink:title="&lt;TABLE&gt;" target="_blank">
<polygon fill="none" stroke="black" points="275.12,-155 13.62,-155 13.62,-96 275.12,-96 275.12,-155"/>
<text text-anchor="start" x="26.62" y="-133.7" font-family="Times,serif" font-weight="bold" font-size="14.00">medicare._enrollments.buyin_cvg_count</text>
<polygon fill="none" stroke="black" points="24.62,-103 24.62,-125.5 264.12,-125.5 264.12,-103 24.62,-103"/>
<text text-anchor="start" x="27.62" y="-109.2" font-family="Times,serif" font-size="14.00">MAX(buyin_cvg_count)</text>
<polygon fill="none" stroke="black" points="21.62,-100 21.62,-151 267.12,-151 267.12,-100 21.62,-100"/>
</a>
</g>
</g>
<!-- medicare._enrollments.buyin_cvg_count&#45;&gt;medicare.enrollments.buyin_cvg_count -->
<g id="edge1" class="edge">
<title>medicare._enrollments.buyin_cvg_count&#45;&gt;medicare.enrollments.buyin_cvg_count</title>
<path fill="none" stroke="black" d="M144.38,-95.53C144.38,-87.68 144.38,-79.05 144.38,-70.7"/>
<polygon fill="black" stroke="black" points="147.88,-70.73 144.38,-60.73 140.88,-70.73 147.88,-70.73"/>
<text text-anchor="middle" x="163.88" y="-72.45" font-family="Times,serif" font-size="14.00">Copied</text>
</g>
<!-- medicare._ps.buyin_cvg_count -->
<g id="node3" class="node">
<title>medicare._ps.buyin_cvg_count</title>
<g id="a_node3"><a xlink:href="../medicare._ps/buyin_cvg_count.html" xlink:title="&lt;TABLE&gt;" target="_blank">
<polygon fill="none" stroke="black" points="288.75,-328 0,-328 0,-192 288.75,-192 288.75,-328"/>
<text text-anchor="start" x="54.75" y="-306.7" font-family="Times,serif" font-weight="bold" font-size="14.00">medicare._ps.buyin_cvg_count</text>
<text text-anchor="start" x="36" y="-260.2" font-family="Times,serif" font-size="14.00">Number of months during a given year,</text>
<text text-anchor="start" x="44.25" y="-243.7" font-family="Times,serif" font-size="14.00">during the year when the beneficiary</text>
<text text-anchor="start" x="58.5" y="-227.2" font-family="Times,serif" font-size="14.00">premium was paid by the state.</text>
<polygon fill="none" stroke="black" points="8,-196 8,-324 280.75,-324 280.75,-196 8,-196"/>
</a>
</g>
</g>
<!-- medicare._ps.buyin_cvg_count&#45;&gt;medicare._enrollments.buyin_cvg_count -->
<g id="edge2" class="edge">
<title>medicare._ps.buyin_cvg_count&#45;&gt;medicare._enrollments.buyin_cvg_count</title>
<path fill="none" stroke="blue" stroke-width="5" d="M144.38,-191.59C144.38,-184.79 144.38,-178.02 144.38,-171.54"/>
<polygon fill="blue" stroke="blue" stroke-width="5" points="148.75,-171.54 144.38,-161.54 140,-171.54 148.75,-171.54"/>
<text text-anchor="middle" x="258.75" y="-168.45" font-family="Times,serif" font-size="14.00">	 &#160;Aggregated On bene_id, year, state</text>
</g>
<!-- medicare.ps.buyin_cvg_count -->
<g id="node4" class="node">
<title>medicare.ps.buyin_cvg_count</title>
<g id="a_node4"><a xlink:href="../medicare.ps/buyin_cvg_count.html" xlink:title="&lt;TABLE&gt;" target="_blank">
<polygon fill="none" stroke="black" points="288.75,-501 0,-501 0,-365 288.75,-365 288.75,-501"/>
<text text-anchor="start" x="58.12" y="-479.7" font-family="Times,serif" font-weight="bold" font-size="14.00">medicare.ps.buyin_cvg_count</text>
<text text-anchor="start" x="36" y="-433.2" font-family="Times,serif" font-size="14.00">Number of months during a given year,</text>
<text text-anchor="start" x="44.25" y="-416.7" font-family="Times,serif" font-size="14.00">during the year when the beneficiary</text>
<text text-anchor="start" x="58.5" y="-400.2" font-family="Times,serif" font-size="14.00">premium was paid by the state.</text>
<polygon fill="none" stroke="black" points="8,-369 8,-497 280.75,-497 280.75,-369 8,-369"/>
</a>
</g>
</g>
<!-- medicare.ps.buyin_cvg_count&#45;&gt;medicare._ps.buyin_cvg_count -->
<g id="edge3" class="edge">
<title>medicare.ps.buyin_cvg_count&#45;&gt;medicare._ps.buyin_cvg_count</title>
<path fill="none" stroke="black" d="M144.38,-364.91C144.38,-356.67 144.38,-348.2 144.38,-339.81"/>
<polygon fill="black" stroke="black" points="147.88,-339.97 144.38,-329.97 140.88,-339.97 147.88,-339.97"/>
<text text-anchor="middle" x="163.88" y="-341.45" font-family="Times,serif" font-size="14.00">Copied</text>
</g>
<!-- medicare.ps.buyin_cvg_count_parent -->
<g id="node5" class="node">
<title>medicare.ps.buyin_cvg_count_parent</title>
<g id="a_node5"><a xlink:href="../medicare.ps/buyin_cvg_count.html" xlink:title="8 incoming links (columns)" target="_blank">
<path fill="yellow" stroke="black" d="M252.38,-636.18C252.38,-641.6 203.97,-646 144.38,-646 84.78,-646 36.38,-641.6 36.38,-636.18 36.38,-636.18 36.38,-547.82 36.38,-547.82 36.38,-542.4 84.78,-538 144.38,-538 203.97,-538 252.38,-542.4 252.38,-547.82 252.38,-547.82 252.38,-636.18 252.38,-636.18"/>
<path fill="none" stroke="black" d="M252.38,-636.18C252.38,-630.76 203.97,-626.36 144.38,-626.36 84.78,-626.36 36.38,-630.76 36.38,-636.18"/>
<text text-anchor="middle" x="144.38" y="-586.95" font-family="Times,serif" font-size="14.00">8 incoming links (columns)</text>
</a>
</g>
</g>
<!-- medicare.ps.buyin_cvg_count_parent&#45;&gt;medicare.ps.buyin_cvg_count -->
<g id="edge4" class="edge">
<title>medicare.ps.buyin_cvg_count_parent&#45;&gt;medicare.ps.buyin_cvg_count</title>
<path fill="none" stroke="goldenrod" stroke-width="6" d="M144.38,-537.85C144.38,-531.33 144.38,-524.56 144.38,-517.73"/>
<polygon fill="goldenrod" stroke="goldenrod" stroke-width="6" points="149.63,-517.75 144.38,-507.75 139.13,-517.75 149.63,-517.75"/>
</g>
</g>
</svg>
