<?xml version="1.0" encoding="UTF-8" standalone="no"?>
<!DOCTYPE svg PUBLIC "-//W3C//DTD SVG 1.1//EN"
 "http://www.w3.org/Graphics/SVG/1.1/DTD/svg11.dtd">
<!-- Generated by graphviz version 10.0.1 (20240210.2158)
 -->
<!-- Pages: 1 -->
<svg width="793pt" height="140pt"
 viewBox="0.00 0.00 792.75 140.00" xmlns="http://www.w3.org/2000/svg" xmlns:xlink="http://www.w3.org/1999/xlink">
<g id="graph0" class="graph" transform="scale(1 1) rotate(0) translate(4 136)">
<polygon fill="white" stroke="none" points="-4,4 -4,-136 788.75,-136 788.75,4 -4,4"/>
<!-- medicare.qc_enrollments.consistent_dob -->
<g id="node1" class="node">
<title>medicare.qc_enrollments.consistent_dob</title>
<g id="a_node1"><a xlink:href="../medicare.qc_enrollments/consistent_dob.html" xlink:title="&lt;TABLE&gt;" target="_blank">
<polygon fill="none" stroke="black" points="523.5,-36 261.25,-36 261.25,0 523.5,0 523.5,-36"/>
<text text-anchor="start" x="274.25" y="-13.95" font-family="Times,serif" font-weight="bold" font-size="14.00">medicare.qc_enrollments.consistent_dob</text>
<polygon fill="none" stroke="black" points="269.25,-4.75 269.25,-31.25 515.5,-31.25 515.5,-4.75 269.25,-4.75"/>
</a>
</g>
</g>
<!-- medicare.qc_enrl_bene.consistent_dob -->
<g id="node2" class="node">
<title>medicare.qc_enrl_bene.consistent_dob</title>
<g id="a_node2"><a xlink:href="../medicare.qc_enrl_bene/consistent_dob.html" xlink:title="&lt;TABLE&gt;" target="_blank">
<polygon fill="none" stroke="black" points="784.75,-132 0,-132 0,-73 784.75,-73 784.75,-132"/>
<text text-anchor="start" x="280.25" y="-110.7" font-family="Times,serif" font-weight="bold" font-size="14.00">medicare.qc_enrl_bene.consistent_dob</text>
<polygon fill="none" stroke="black" points="11,-80 11,-102.5 773.75,-102.5 773.75,-80 11,-80"/>
<text text-anchor="start" x="14" y="-86.2" font-family="Times,serif" font-size="14.00">(CASE &#160;WHEN dob IS NULL THEN &#39;MISSING&#39; &#160;WHEN dob_latest IS NOT NULL THEN &#39;AMBIGUOUS&#39; &#160;ELSE &#39;CONSISTENT&#39;END)</text>
<polygon fill="none" stroke="black" points="8,-77 8,-128 776.75,-128 776.75,-77 8,-77"/>
</a>
</g>
</g>
<!-- medicare.qc_enrl_bene.consistent_dob&#45;&gt;medicare.qc_enrollments.consistent_dob -->
<g id="edge1" class="edge">
<title>medicare.qc_enrl_bene.consistent_dob&#45;&gt;medicare.qc_enrollments.consistent_dob</title>
<path fill="none" stroke="black" d="M392.38,-72.65C392.38,-64.62 392.38,-55.91 392.38,-47.89"/>
<polygon fill="black" stroke="black" points="395.88,-47.93 392.38,-37.93 388.88,-47.93 395.88,-47.93"/>
<text text-anchor="middle" x="431" y="-49.45" font-family="Times,serif" font-size="14.00"> &#160;Transformed</text>
</g>
</g>
</svg>
