<?xml version="1.0" encoding="UTF-8" standalone="no"?>
<!DOCTYPE svg PUBLIC "-//W3C//DTD SVG 1.1//EN"
 "http://www.w3.org/Graphics/SVG/1.1/DTD/svg11.dtd">
<!-- Generated by graphviz version 10.0.1 (20240210.2158)
 -->
<!-- Pages: 1 -->
<svg width="785pt" height="140pt"
 viewBox="0.00 0.00 784.50 140.00" xmlns="http://www.w3.org/2000/svg" xmlns:xlink="http://www.w3.org/1999/xlink">
<g id="graph0" class="graph" transform="scale(1 1) rotate(0) translate(4 136)">
<polygon fill="white" stroke="none" points="-4,4 -4,-136 780.5,-136 780.5,4 -4,4"/>
<!-- medicare.qc_enrollments.consistent_dod -->
<g id="node1" class="node">
<title>medicare.qc_enrollments.consistent_dod</title>
<g id="a_node1"><a xlink:href="../medicare.qc_enrollments/consistent_dod.html" xlink:title="&lt;TABLE&gt;" target="_blank">
<polygon fill="none" stroke="black" points="519.38,-36 257.12,-36 257.12,0 519.38,0 519.38,-36"/>
<text text-anchor="start" x="270.12" y="-13.95" font-family="Times,serif" font-weight="bold" font-size="14.00">medicare.qc_enrollments.consistent_dod</text>
<polygon fill="none" stroke="black" points="265.12,-4.75 265.12,-31.25 511.38,-31.25 511.38,-4.75 265.12,-4.75"/>
</a>
</g>
</g>
<!-- medicare.qc_enrl_bene.consistent_dod -->
<g id="node2" class="node">
<title>medicare.qc_enrl_bene.consistent_dod</title>
<g id="a_node2"><a xlink:href="../medicare.qc_enrl_bene/consistent_dod.html" xlink:title="&lt;TABLE&gt;" target="_blank">
<polygon fill="none" stroke="black" points="776.5,-132 0,-132 0,-73 776.5,-73 776.5,-132"/>
<text text-anchor="start" x="276.12" y="-110.7" font-family="Times,serif" font-weight="bold" font-size="14.00">medicare.qc_enrl_bene.consistent_dod</text>
<polygon fill="none" stroke="black" points="11,-80 11,-102.5 765.5,-102.5 765.5,-80 11,-80"/>
<text text-anchor="start" x="14" y="-86.2" font-family="Times,serif" font-size="14.00">(CASE &#160;WHEN dod IS NULL THEN &#39;NONE&#39; &#160;WHEN dod_earliest IS NOT NULL THEN &#39;AMBIGUOUS&#39; &#160;ELSE &#39;CONSISTENT&#39;END)</text>
<polygon fill="none" stroke="black" points="8,-77 8,-128 768.5,-128 768.5,-77 8,-77"/>
</a>
</g>
</g>
<!-- medicare.qc_enrl_bene.consistent_dod&#45;&gt;medicare.qc_enrollments.consistent_dod -->
<g id="edge1" class="edge">
<title>medicare.qc_enrl_bene.consistent_dod&#45;&gt;medicare.qc_enrollments.consistent_dod</title>
<path fill="none" stroke="black" d="M388.25,-72.65C388.25,-64.62 388.25,-55.91 388.25,-47.89"/>
<polygon fill="black" stroke="black" points="391.75,-47.93 388.25,-37.93 384.75,-47.93 391.75,-47.93"/>
<text text-anchor="middle" x="426.88" y="-49.45" font-family="Times,serif" font-size="14.00"> &#160;Transformed</text>
</g>
</g>
</svg>
