<?xml version="1.0" encoding="UTF-8" standalone="no"?>
<!DOCTYPE svg PUBLIC "-//W3C//DTD SVG 1.1//EN"
 "http://www.w3.org/Graphics/SVG/1.1/DTD/svg11.dtd">
<!-- Generated by graphviz version 10.0.1 (20240210.2158)
 -->
<!-- Pages: 1 -->
<svg width="508pt" height="140pt"
 viewBox="0.00 0.00 507.75 140.00" xmlns="http://www.w3.org/2000/svg" xmlns:xlink="http://www.w3.org/1999/xlink">
<g id="graph0" class="graph" transform="scale(1 1) rotate(0) translate(4 136)">
<polygon fill="white" stroke="none" points="-4,4 -4,-136 503.75,-136 503.75,4 -4,4"/>
<!-- medicare.qc_enrollments.consistent_sex -->
<g id="node1" class="node">
<title>medicare.qc_enrollments.consistent_sex</title>
<g id="a_node1"><a xlink:href="../medicare.qc_enrollments/consistent_sex.html" xlink:title="&lt;TABLE&gt;" target="_blank">
<polygon fill="none" stroke="black" points="379.12,-36 120.62,-36 120.62,0 379.12,0 379.12,-36"/>
<text text-anchor="start" x="133.62" y="-13.95" font-family="Times,serif" font-weight="bold" font-size="14.00">medicare.qc_enrollments.consistent_sex</text>
<polygon fill="none" stroke="black" points="128.62,-4.75 128.62,-31.25 371.12,-31.25 371.12,-4.75 128.62,-4.75"/>
</a>
</g>
</g>
<!-- medicare.qc_enrl_bene.consistent_sex -->
<g id="node2" class="node">
<title>medicare.qc_enrl_bene.consistent_sex</title>
<g id="a_node2"><a xlink:href="../medicare.qc_enrl_bene/consistent_sex.html" xlink:title="&lt;TABLE&gt;" target="_blank">
<polygon fill="none" stroke="black" points="499.75,-132 0,-132 0,-73 499.75,-73 499.75,-132"/>
<text text-anchor="start" x="139.62" y="-110.7" font-family="Times,serif" font-weight="bold" font-size="14.00">medicare.qc_enrl_bene.consistent_sex</text>
<polygon fill="none" stroke="black" points="11,-80 11,-102.5 488.75,-102.5 488.75,-80 11,-80"/>
<text text-anchor="start" x="14" y="-86.2" font-family="Times,serif" font-size="14.00">(CASE &#160;WHEN sex LIKE &#39;%,%&#39; THEN &#39;AMBIGUOUS&#39; &#160;ELSE &#39;CONSISTENT&#39;END)</text>
<polygon fill="none" stroke="black" points="8,-77 8,-128 491.75,-128 491.75,-77 8,-77"/>
</a>
</g>
</g>
<!-- medicare.qc_enrl_bene.consistent_sex&#45;&gt;medicare.qc_enrollments.consistent_sex -->
<g id="edge1" class="edge">
<title>medicare.qc_enrl_bene.consistent_sex&#45;&gt;medicare.qc_enrollments.consistent_sex</title>
<path fill="none" stroke="black" d="M249.88,-72.65C249.88,-64.62 249.88,-55.91 249.88,-47.89"/>
<polygon fill="black" stroke="black" points="253.38,-47.93 249.88,-37.93 246.38,-47.93 253.38,-47.93"/>
<text text-anchor="middle" x="288.5" y="-49.45" font-family="Times,serif" font-size="14.00"> &#160;Transformed</text>
</g>
</g>
</svg>
