<?xml version="1.0" encoding="UTF-8" standalone="no"?>
<!DOCTYPE svg PUBLIC "-//W3C//DTD SVG 1.1//EN"
 "http://www.w3.org/Graphics/SVG/1.1/DTD/svg11.dtd">
<!-- Generated by graphviz version 10.0.1 (20240210.2158)
 -->
<!-- Pages: 1 -->
<svg width="512pt" height="140pt"
 viewBox="0.00 0.00 512.25 140.00" xmlns="http://www.w3.org/2000/svg" xmlns:xlink="http://www.w3.org/1999/xlink">
<g id="graph0" class="graph" transform="scale(1 1) rotate(0) translate(4 136)">
<polygon fill="white" stroke="none" points="-4,4 -4,-136 508.25,-136 508.25,4 -4,4"/>
<!-- medicare.qc_enrollments.consistent_race -->
<g id="node1" class="node">
<title>medicare.qc_enrollments.consistent_race</title>
<g id="a_node1"><a xlink:href="../medicare.qc_enrollments/consistent_race.html" xlink:title="&lt;TABLE&gt;" target="_blank">
<polygon fill="none" stroke="black" points="384.75,-36 119.5,-36 119.5,0 384.75,0 384.75,-36"/>
<text text-anchor="start" x="132.5" y="-13.95" font-family="Times,serif" font-weight="bold" font-size="14.00">medicare.qc_enrollments.consistent_race</text>
<polygon fill="none" stroke="black" points="127.5,-4.75 127.5,-31.25 376.75,-31.25 376.75,-4.75 127.5,-4.75"/>
</a>
</g>
</g>
<!-- medicare.qc_enrl_bene.consistent_race -->
<g id="node2" class="node">
<title>medicare.qc_enrl_bene.consistent_race</title>
<g id="a_node2"><a xlink:href="../medicare.qc_enrl_bene/consistent_race.html" xlink:title="&lt;TABLE&gt;" target="_blank">
<polygon fill="none" stroke="black" points="504.25,-132 0,-132 0,-73 504.25,-73 504.25,-132"/>
<text text-anchor="start" x="138.5" y="-110.7" font-family="Times,serif" font-weight="bold" font-size="14.00">medicare.qc_enrl_bene.consistent_race</text>
<polygon fill="none" stroke="black" points="11,-80 11,-102.5 493.25,-102.5 493.25,-80 11,-80"/>
<text text-anchor="start" x="14" y="-86.2" font-family="Times,serif" font-size="14.00">(CASE &#160;WHEN race LIKE &#39;%,%&#39; THEN &#39;AMBIGUOUS&#39; &#160;ELSE &#39;CONSISTENT&#39;END)</text>
<polygon fill="none" stroke="black" points="8,-77 8,-128 496.25,-128 496.25,-77 8,-77"/>
</a>
</g>
</g>
<!-- medicare.qc_enrl_bene.consistent_race&#45;&gt;medicare.qc_enrollments.consistent_race -->
<g id="edge1" class="edge">
<title>medicare.qc_enrl_bene.consistent_race&#45;&gt;medicare.qc_enrollments.consistent_race</title>
<path fill="none" stroke="black" d="M252.12,-72.65C252.12,-64.62 252.12,-55.91 252.12,-47.89"/>
<polygon fill="black" stroke="black" points="255.63,-47.93 252.13,-37.93 248.63,-47.93 255.63,-47.93"/>
<text text-anchor="middle" x="290.75" y="-49.45" font-family="Times,serif" font-size="14.00"> &#160;Transformed</text>
</g>
</g>
</svg>
