<?xml version="1.0" encoding="UTF-8" standalone="no"?>
<!DOCTYPE svg PUBLIC "-//W3C//DTD SVG 1.1//EN"
 "http://www.w3.org/Graphics/SVG/1.1/DTD/svg11.dtd">
<!-- Generated by graphviz version 10.0.1 (20240210.2158)
 -->
<!-- Pages: 1 -->
<svg width="182pt" height="117pt"
 viewBox="0.00 0.00 181.75 117.00" xmlns="http://www.w3.org/2000/svg" xmlns:xlink="http://www.w3.org/1999/xlink">
<g id="graph0" class="graph" transform="scale(1 1) rotate(0) translate(4 113)">
<polygon fill="white" stroke="none" points="-4,4 -4,-113 177.75,-113 177.75,4 -4,4"/>
<!-- silver_temperature.date -->
<g id="node1" class="node">
<title>silver_temperature.date</title>
<g id="a_node1"><a xlink:href="../silver_temperature/date.html" xlink:title="&lt;TABLE&gt;" target="_blank">
<polygon fill="none" stroke="black" points="169.62,-36 4.12,-36 4.12,0 169.62,0 169.62,-36"/>
<text text-anchor="start" x="17.12" y="-13.95" font-family="Times,serif" font-weight="bold" font-size="14.00">silver_temperature.date</text>
<polygon fill="none" stroke="black" points="12.12,-4.75 12.12,-31.25 161.62,-31.25 161.62,-4.75 12.12,-4.75"/>
</a>
</g>
</g>
<!-- bronze_temperature.date -->
<g id="node2" class="node">
<title>bronze_temperature.date</title>
<g id="a_node2"><a xlink:href="../bronze_temperature/date.html" xlink:title="&lt;TABLE&gt;" target="_blank">
<polygon fill="none" stroke="black" points="173.75,-109 0,-109 0,-73 173.75,-73 173.75,-109"/>
<text text-anchor="start" x="13" y="-86.95" font-family="Times,serif" font-weight="bold" font-size="14.00">bronze_temperature.date</text>
<polygon fill="none" stroke="black" points="8,-77.75 8,-104.25 165.75,-104.25 165.75,-77.75 8,-77.75"/>
</a>
</g>
</g>
<!-- bronze_temperature.date&#45;&gt;silver_temperature.date -->
<g id="edge1" class="edge">
<title>bronze_temperature.date&#45;&gt;silver_temperature.date</title>
<path fill="none" stroke="black" d="M86.88,-72.81C86.88,-65.23 86.88,-56.1 86.88,-47.54"/>
<polygon fill="black" stroke="black" points="90.38,-47.54 86.88,-37.54 83.38,-47.54 90.38,-47.54"/>
<text text-anchor="middle" x="125.5" y="-49.45" font-family="Times,serif" font-size="14.00"> &#160;Transformed</text>
</g>
</g>
</svg>
