<?xml version="1.0" encoding="UTF-8" standalone="no"?>
<!DOCTYPE svg PUBLIC "-//W3C//DTD SVG 1.1//EN"
 "http://www.w3.org/Graphics/SVG/1.1/DTD/svg11.dtd">
<!-- Generated by graphviz version 10.0.1 (20240210.2158)
 -->
<!-- Pages: 1 -->
<svg width="2257pt" height="285pt"
 viewBox="0.00 0.00 2256.75 285.00" xmlns="http://www.w3.org/2000/svg" xmlns:xlink="http://www.w3.org/1999/xlink">
<g id="graph0" class="graph" transform="scale(1 1) rotate(0) translate(4 281)">
<polygon fill="white" stroke="none" points="-4,4 -4,-281 2252.75,-281 2252.75,4 -4,4"/>
<!-- medicare.qc_adm_union.diagnoses -->
<g id="node1" class="node">
<title>medicare.qc_adm_union.diagnoses</title>
<g id="a_node1"><a xlink:href="../medicare.qc_adm_union/diagnoses.html" xlink:title="&lt;TABLE&gt;" target="_blank">
<polygon fill="none" stroke="black" points="1239,-36 1009.75,-36 1009.75,0 1239,0 1239,-36"/>
<text text-anchor="start" x="1022.75" y="-13.95" font-family="Times,serif" font-weight="bold" font-size="14.00">medicare.qc_adm_union.diagnoses</text>
<polygon fill="none" stroke="black" points="1017.75,-4.75 1017.75,-31.25 1231,-31.25 1231,-4.75 1017.75,-4.75"/>
</a>
</g>
</g>
<!-- medicare.admissions.diagnoses -->
<g id="node2" class="node">
<title>medicare.admissions.diagnoses</title>
<g id="a_node2"><a xlink:href="../medicare.admissions/diagnoses.html" xlink:title="&lt;TABLE&gt;" target="_blank">
<polygon fill="none" stroke="black" points="2248.75,-132 0,-132 0,-73 2248.75,-73 2248.75,-132"/>
<text text-anchor="start" x="1034" y="-110.7" font-family="Times,serif" font-weight="bold" font-size="14.00">medicare.admissions.diagnoses</text>
<polygon fill="none" stroke="black" points="11,-80 11,-102.5 2237.75,-102.5 2237.75,-80 11,-80"/>
<text text-anchor="start" x="14" y="-86.2" font-family="Times,serif" font-size="14.00">array_remove(ARRAY[btrim(btrim(diag1)),btrim(diag2),btrim(diag3),btrim(diag4),btrim(diag5),btrim(diag6),btrim(diag7),btrim(diag8),btrim(diag9),btrim(diag10),btrim(diag11),btrim(diag12),btrim(diag13),btrim(diag14),btrim(diag15),btrim(diag16),btrim(diag17),btrim(diag18),btrim(diag19),btrim(diag20),btrim(diag21),btrim(diag22),btrim(diag23),btrim(diag24),btrim(diag25)], NULL) As diagnoses</text>
<polygon fill="none" stroke="black" points="8,-77 8,-128 2240.75,-128 2240.75,-77 8,-77"/>
</a>
</g>
</g>
<!-- medicare.admissions.diagnoses&#45;&gt;medicare.qc_adm_union.diagnoses -->
<g id="edge1" class="edge">
<title>medicare.admissions.diagnoses&#45;&gt;medicare.qc_adm_union.diagnoses</title>
<path fill="none" stroke="black" d="M1124.38,-72.65C1124.38,-64.62 1124.38,-55.91 1124.38,-47.89"/>
<polygon fill="black" stroke="black" points="1127.88,-47.93 1124.38,-37.93 1120.88,-47.93 1127.88,-47.93"/>
<text text-anchor="middle" x="1143.88" y="-49.45" font-family="Times,serif" font-size="14.00">Copied</text>
</g>
<!-- medicare.admissions.diagnoses_parent -->
<g id="node3" class="node">
<title>medicare.admissions.diagnoses_parent</title>
<g id="a_node3"><a xlink:href="../medicare.admissions/diagnoses.html" xlink:title="25 incoming links (columns)" target="_blank">
<path fill="yellow" stroke="black" d="M1232.38,-267.18C1232.38,-272.6 1183.97,-277 1124.38,-277 1064.78,-277 1016.38,-272.6 1016.38,-267.18 1016.38,-267.18 1016.38,-178.82 1016.38,-178.82 1016.38,-173.4 1064.78,-169 1124.38,-169 1183.97,-169 1232.38,-173.4 1232.38,-178.82 1232.38,-178.82 1232.38,-267.18 1232.38,-267.18"/>
<path fill="none" stroke="black" d="M1232.38,-267.18C1232.38,-261.76 1183.97,-257.36 1124.38,-257.36 1064.78,-257.36 1016.38,-261.76 1016.38,-267.18"/>
<text text-anchor="middle" x="1124.38" y="-217.95" font-family="Times,serif" font-size="14.00">25 incoming links (columns)</text>
</a>
</g>
</g>
<!-- medicare.admissions.diagnoses_parent&#45;&gt;medicare.admissions.diagnoses -->
<g id="edge2" class="edge">
<title>medicare.admissions.diagnoses_parent&#45;&gt;medicare.admissions.diagnoses</title>
<path fill="none" stroke="goldenrod" stroke-width="7.64" d="M1124.38,-168.64C1124.38,-162.08 1124.38,-155.43 1124.38,-149"/>
<polygon fill="goldenrod" stroke="goldenrod" stroke-width="7.64" points="1131.06,-149.13 1124.38,-139.13 1117.69,-149.13 1131.06,-149.13"/>
</g>
</g>
</svg>
