<?xml version="1.0" encoding="UTF-8" standalone="no"?>
<!DOCTYPE svg PUBLIC "-//W3C//DTD SVG 1.1//EN"
 "http://www.w3.org/Graphics/SVG/1.1/DTD/svg11.dtd">
<!-- Generated by graphviz version 14.1.4 (20260321.0153)
 -->
<!-- Pages: 1 -->
<svg width="1047pt" height="782pt"
 viewBox="0.00 0.00 1047.00 782.00" xmlns="http://www.w3.org/2000/svg" xmlns:xlink="http://www.w3.org/1999/xlink">
<g id="graph0" class="graph" transform="scale(1 1) rotate(0) translate(4 778)">
<polygon fill="white" stroke="none" points="-4,4 -4,-778 1043.25,-778 1043.25,4 -4,4"/>
<!-- medicare.qc_enrl_bene.died -->
<g id="node1" class="node">
<title>medicare.qc_enrl_bene.died</title>
<g id="a_node1"><a xlink:href="../medicare.qc_enrl_bene/died.html" xlink:title="&lt;TABLE&gt;" target="_blank">
<polygon fill="none" stroke="black" points="788.25,-59 251,-59 251,0 788.25,0 788.25,-59"/>
<text xml:space="preserve" text-anchor="start" x="437.88" y="-37.7" font-family="Times,serif" font-weight="bold" font-size="14.00">medicare.qc_enrl_bene.died</text>
<polygon fill="none" stroke="black" points="262,-7 262,-29.5 777.25,-29.5 777.25,-7 262,-7"/>
<text xml:space="preserve" text-anchor="start" x="265" y="-13.75" font-family="Times,serif" font-size="14.00">CASE EXTRACT (YEAR from MAX(dod)) &#160;WHEN year THEN TRUE &#160;ELSE FALSEEND</text>
<polygon fill="none" stroke="black" points="259,-4 259,-55 780.25,-55 780.25,-4 259,-4"/>
</a>
</g>
</g>
<!-- medicare.beneficiaries.dod -->
<g id="node2" class="node">
<title>medicare.beneficiaries.dod</title>
<g id="a_node2"><a xlink:href="../medicare.beneficiaries/dod.html" xlink:title="&lt;TABLE&gt;" target="_blank">
<polygon fill="none" stroke="black" points="610.62,-155 428.62,-155 428.62,-96 610.62,-96 610.62,-155"/>
<text xml:space="preserve" text-anchor="start" x="441.62" y="-133.7" font-family="Times,serif" font-weight="bold" font-size="14.00">medicare.beneficiaries.dod</text>
<polygon fill="none" stroke="black" points="439.62,-103 439.62,-125.5 599.62,-125.5 599.62,-103 439.62,-103"/>
<text xml:space="preserve" text-anchor="start" x="442.62" y="-109.75" font-family="Times,serif" font-size="14.00">MAX(dod)</text>
<polygon fill="none" stroke="black" points="436.62,-100 436.62,-151 602.62,-151 602.62,-100 436.62,-100"/>
</a>
</g>
</g>
<!-- medicare.beneficiaries.dod&#45;&gt;medicare.qc_enrl_bene.died -->
<g id="edge1" class="edge">
<title>medicare.beneficiaries.dod&#45;&gt;medicare.qc_enrl_bene.died</title>
<path fill="none" stroke="black" d="M519.62,-95.53C519.62,-87.68 519.62,-79.05 519.62,-70.7"/>
<polygon fill="black" stroke="black" points="523.13,-70.73 519.63,-60.73 516.13,-70.73 523.13,-70.73"/>
<text xml:space="preserve" text-anchor="middle" x="565.75" y="-72.45" font-family="Times,serif" font-size="14.00">	join natural</text>
</g>
<!-- medicare._beneficiaries.dod -->
<g id="node3" class="node">
<title>medicare._beneficiaries.dod</title>
<g id="a_node3"><a xlink:href="../medicare._beneficiaries/dod.html" xlink:title="&lt;TABLE&gt;" target="_blank">
<polygon fill="none" stroke="black" points="614,-251 425.25,-251 425.25,-192 614,-192 614,-251"/>
<text xml:space="preserve" text-anchor="start" x="438.25" y="-229.7" font-family="Times,serif" font-weight="bold" font-size="14.00">medicare._beneficiaries.dod</text>
<polygon fill="none" stroke="black" points="436.25,-199 436.25,-221.5 603,-221.5 603,-199 436.25,-199"/>
<text xml:space="preserve" text-anchor="start" x="439.25" y="-205.75" font-family="Times,serif" font-size="14.00">MAX(dod)</text>
<polygon fill="none" stroke="black" points="433.25,-196 433.25,-247 606,-247 606,-196 433.25,-196"/>
</a>
</g>
</g>
<!-- medicare._beneficiaries.dod&#45;&gt;medicare.beneficiaries.dod -->
<g id="edge2" class="edge">
<title>medicare._beneficiaries.dod&#45;&gt;medicare.beneficiaries.dod</title>
<path fill="none" stroke="black" d="M519.62,-191.53C519.62,-183.68 519.62,-175.05 519.62,-166.7"/>
<polygon fill="black" stroke="black" points="523.13,-166.73 519.63,-156.73 516.13,-166.73 523.13,-166.73"/>
<text xml:space="preserve" text-anchor="middle" x="539.12" y="-168.45" font-family="Times,serif" font-size="14.00">Copied</text>
</g>
<!-- medicare._ps.dod -->
<g id="node4" class="node">
<title>medicare._ps.dod</title>
<g id="a_node4"><a xlink:href="../medicare._ps/dod.html" xlink:title="&lt;TABLE&gt;" target="_blank">
<polygon fill="none" stroke="black" points="1039.25,-440 0,-440 0,-288 1039.25,-288 1039.25,-440"/>
<text xml:space="preserve" text-anchor="start" x="87.75" y="-418.7" font-family="Times,serif" font-weight="bold" font-size="14.00">medicare._ps.dod</text>
<text xml:space="preserve" text-anchor="start" x="36" y="-372.75" font-family="Times,serif" font-size="14.00">Date of beneficiary death, if available</text>
<polygon fill="none" stroke="black" points="11,-319.5 11,-342 267.25,-342 267.25,-319.5 11,-319.5"/>
<text xml:space="preserve" text-anchor="start" x="14" y="-326.25" font-family="Times,serif" font-size="14.00">character varying →</text>
<polygon fill="none" stroke="black" points="269.25,-319.5 269.25,-342 1028.25,-342 1028.25,-319.5 269.25,-319.5"/>
<text xml:space="preserve" text-anchor="start" x="272.25" y="-326.25" font-family="Times,serif" font-size="14.00">(CASE WHEN {column_name} = &#39;00000000&#39; THEN NULL ELSE public.parse_date({column_name}) END)</text>
<polygon fill="none" stroke="black" points="11,-295 11,-317.5 267.25,-317.5 267.25,-295 11,-295"/>
<text xml:space="preserve" text-anchor="start" x="14" y="-301.75" font-family="Times,serif" font-size="14.00">numeric →</text>
<polygon fill="none" stroke="black" points="269.25,-295 269.25,-317.5 1028.25,-317.5 1028.25,-295 269.25,-295"/>
<text xml:space="preserve" text-anchor="start" x="272.25" y="-301.75" font-family="Times,serif" font-size="14.00">(CASE WHEN {column_name} &lt; 19000000 THEN NULL ELSE to_date(to_char({column_name}, &#39;00000000&#39;), &#39;YYYYMMDD&#39;) END)</text>
<polygon fill="none" stroke="black" points="8,-292 8,-436 1031.25,-436 1031.25,-292 8,-292"/>
</a>
</g>
</g>
<!-- medicare._ps.dod&#45;&gt;medicare._beneficiaries.dod -->
<g id="edge3" class="edge">
<title>medicare._ps.dod&#45;&gt;medicare._beneficiaries.dod</title>
<path fill="none" stroke="blue" stroke-width="5" d="M519.62,-287.81C519.62,-280.95 519.62,-274.15 519.62,-267.68"/>
<polygon fill="blue" stroke="blue" stroke-width="5" points="524,-267.73 519.63,-257.73 515.25,-267.73 524,-267.73"/>
<text xml:space="preserve" text-anchor="middle" x="602.88" y="-264.45" font-family="Times,serif" font-size="14.00">	 &#160;Aggregated On bene_id</text>
</g>
<!-- medicare.ps.dod -->
<g id="node5" class="node">
<title>medicare.ps.dod</title>
<g id="a_node5"><a xlink:href="../medicare.ps/dod.html" xlink:title="&lt;TABLE&gt;" target="_blank">
<polygon fill="none" stroke="black" points="1039.25,-629 0,-629 0,-477 1039.25,-477 1039.25,-629"/>
<text xml:space="preserve" text-anchor="start" x="91.12" y="-607.7" font-family="Times,serif" font-weight="bold" font-size="14.00">medicare.ps.dod</text>
<text xml:space="preserve" text-anchor="start" x="36" y="-561.75" font-family="Times,serif" font-size="14.00">Date of beneficiary death, if available</text>
<polygon fill="none" stroke="black" points="11,-508.5 11,-531 267.25,-531 267.25,-508.5 11,-508.5"/>
<text xml:space="preserve" text-anchor="start" x="14" y="-515.25" font-family="Times,serif" font-size="14.00">character varying →</text>
<polygon fill="none" stroke="black" points="269.25,-508.5 269.25,-531 1028.25,-531 1028.25,-508.5 269.25,-508.5"/>
<text xml:space="preserve" text-anchor="start" x="272.25" y="-515.25" font-family="Times,serif" font-size="14.00">(CASE WHEN {column_name} = &#39;00000000&#39; THEN NULL ELSE public.parse_date({column_name}) END)</text>
<polygon fill="none" stroke="black" points="11,-484 11,-506.5 267.25,-506.5 267.25,-484 11,-484"/>
<text xml:space="preserve" text-anchor="start" x="14" y="-490.75" font-family="Times,serif" font-size="14.00">numeric →</text>
<polygon fill="none" stroke="black" points="269.25,-484 269.25,-506.5 1028.25,-506.5 1028.25,-484 269.25,-484"/>
<text xml:space="preserve" text-anchor="start" x="272.25" y="-490.75" font-family="Times,serif" font-size="14.00">(CASE WHEN {column_name} &lt; 19000000 THEN NULL ELSE to_date(to_char({column_name}, &#39;00000000&#39;), &#39;YYYYMMDD&#39;) END)</text>
<polygon fill="none" stroke="black" points="8,-481 8,-625 1031.25,-625 1031.25,-481 8,-481"/>
</a>
</g>
</g>
<!-- medicare.ps.dod&#45;&gt;medicare._ps.dod -->
<g id="edge4" class="edge">
<title>medicare.ps.dod&#45;&gt;medicare._ps.dod</title>
<path fill="none" stroke="black" d="M519.62,-476.75C519.62,-468.51 519.62,-460.09 519.62,-451.73"/>
<polygon fill="black" stroke="black" points="523.13,-451.92 519.63,-441.92 516.13,-451.92 523.13,-451.92"/>
<text xml:space="preserve" text-anchor="middle" x="539.12" y="-453.45" font-family="Times,serif" font-size="14.00">Copied</text>
</g>
<!-- medicare.ps.dod_parent -->
<g id="node6" class="node">
<title>medicare.ps.dod_parent</title>
<g id="a_node6"><a xlink:href="../medicare.ps/dod.html" xlink:title="8 incoming links (columns)" target="_blank">
<path fill="yellow" stroke="black" d="M627.62,-764.18C627.62,-769.6 579.22,-774 519.62,-774 460.03,-774 411.62,-769.6 411.62,-764.18 411.62,-764.18 411.62,-675.82 411.62,-675.82 411.62,-670.4 460.03,-666 519.62,-666 579.22,-666 627.62,-670.4 627.62,-675.82 627.62,-675.82 627.62,-764.18 627.62,-764.18"/>
<path fill="none" stroke="black" d="M627.62,-764.18C627.62,-758.76 579.22,-754.36 519.62,-754.36 460.03,-754.36 411.62,-758.76 411.62,-764.18"/>
<text xml:space="preserve" text-anchor="middle" x="519.62" y="-714.95" font-family="Times,serif" font-size="14.00">8 incoming links (columns)</text>
</a>
</g>
</g>
<!-- medicare.ps.dod_parent&#45;&gt;medicare.ps.dod -->
<g id="edge5" class="edge">
<title>medicare.ps.dod_parent&#45;&gt;medicare.ps.dod</title>
<path fill="none" stroke="goldenrod" stroke-width="6" d="M519.62,-665.88C519.62,-659.31 519.62,-652.46 519.62,-645.51"/>
<polygon fill="goldenrod" stroke="goldenrod" stroke-width="6" points="524.88,-645.7 519.63,-635.7 514.38,-645.7 524.88,-645.7"/>
</g>
</g>
</svg>
