<?xml version="1.0" encoding="UTF-8" standalone="no"?>
<!DOCTYPE svg PUBLIC "-//W3C//DTD SVG 1.1//EN"
 "http://www.w3.org/Graphics/SVG/1.1/DTD/svg11.dtd">
<!-- Generated by graphviz version 10.0.1 (20240210.2158)
 -->
<!-- Pages: 1 -->
<svg width="1048pt" height="586pt"
 viewBox="0.00 0.00 1048.00 586.00" xmlns="http://www.w3.org/2000/svg" xmlns:xlink="http://www.w3.org/1999/xlink">
<g id="graph0" class="graph" transform="scale(1 1) rotate(0) translate(4 582)">
<polygon fill="white" stroke="none" points="-4,4 -4,-582 1044,-582 1044,4 -4,4"/>
<!-- medicare._enrollments.died -->
<g id="node1" class="node">
<title>medicare._enrollments.died</title>
<g id="a_node1"><a xlink:href="../medicare._enrollments/died.html" xlink:title="&lt;TABLE&gt;" target="_blank">
<polygon fill="none" stroke="black" points="789,-59 251,-59 251,0 789,0 789,-59"/>
<text text-anchor="start" x="439" y="-37.7" font-family="Times,serif" font-weight="bold" font-size="14.00">medicare._enrollments.died</text>
<polygon fill="none" stroke="black" points="262,-7 262,-29.5 778,-29.5 778,-7 262,-7"/>
<text text-anchor="start" x="265" y="-13.2" font-family="Times,serif" font-size="14.00">CASE EXTRACT (YEAR from MAX(dod)) &#160;WHEN year THEN TRUE &#160;ELSE FALSEEND</text>
<polygon fill="none" stroke="black" points="259,-4 259,-55 781,-55 781,-4 259,-4"/>
</a>
</g>
</g>
<!-- medicare._ps.dod -->
<g id="node2" class="node">
<title>medicare._ps.dod</title>
<g id="a_node2"><a xlink:href="../medicare._ps/dod.html" xlink:title="&lt;TABLE&gt;" target="_blank">
<polygon fill="none" stroke="black" points="1040,-246 0,-246 0,-96 1040,-96 1040,-246"/>
<text text-anchor="start" x="87.62" y="-224.7" font-family="Times,serif" font-weight="bold" font-size="14.00">medicare._ps.dod</text>
<text text-anchor="start" x="35.88" y="-178.7" font-family="Times,serif" font-size="14.00">Date of beneficiary death, if available</text>
<polygon fill="none" stroke="black" points="11,-127 11,-149 267,-149 267,-127 11,-127"/>
<text text-anchor="start" x="14" y="-132.7" font-family="Times,serif" font-size="14.00">character varying →</text>
<polygon fill="none" stroke="black" points="269,-127 269,-149 1029,-149 1029,-127 269,-127"/>
<text text-anchor="start" x="272" y="-132.7" font-family="Times,serif" font-size="14.00">(CASE WHEN {column_name} = &#39;00000000&#39; THEN NULL ELSE public.parse_date({column_name}) END)</text>
<polygon fill="none" stroke="black" points="11,-103 11,-125 267,-125 267,-103 11,-103"/>
<text text-anchor="start" x="14" y="-108.7" font-family="Times,serif" font-size="14.00">numeric →</text>
<polygon fill="none" stroke="black" points="269,-103 269,-125 1029,-125 1029,-103 269,-103"/>
<text text-anchor="start" x="271.75" y="-108.7" font-family="Times,serif" font-size="14.00">(CASE WHEN {column_name} &lt; 19000000 THEN NULL ELSE to_date(to_char({column_name}, &#39;00000000&#39;), &#39;YYYYMMDD&#39;) END)</text>
<polygon fill="none" stroke="black" points="8,-100 8,-242 1032,-242 1032,-100 8,-100"/>
</a>
</g>
</g>
<!-- medicare._ps.dod&#45;&gt;medicare._enrollments.died -->
<g id="edge1" class="edge">
<title>medicare._ps.dod&#45;&gt;medicare._enrollments.died</title>
<path fill="none" stroke="blue" stroke-width="5" d="M520,-95.76C520,-88.91 520,-82.13 520,-75.66"/>
<polygon fill="blue" stroke="blue" stroke-width="5" points="524.38,-75.73 520,-65.73 515.63,-75.73 524.38,-75.73"/>
<text text-anchor="middle" x="634.38" y="-72.45" font-family="Times,serif" font-size="14.00">	 &#160;Aggregated On bene_id, year, state</text>
</g>
<!-- medicare.ps.dod -->
<g id="node3" class="node">
<title>medicare.ps.dod</title>
<g id="a_node3"><a xlink:href="../medicare.ps/dod.html" xlink:title="&lt;TABLE&gt;" target="_blank">
<polygon fill="none" stroke="black" points="1040,-433 0,-433 0,-283 1040,-283 1040,-433"/>
<text text-anchor="start" x="91" y="-411.7" font-family="Times,serif" font-weight="bold" font-size="14.00">medicare.ps.dod</text>
<text text-anchor="start" x="35.88" y="-365.7" font-family="Times,serif" font-size="14.00">Date of beneficiary death, if available</text>
<polygon fill="none" stroke="black" points="11,-314 11,-336 267,-336 267,-314 11,-314"/>
<text text-anchor="start" x="14" y="-319.7" font-family="Times,serif" font-size="14.00">character varying →</text>
<polygon fill="none" stroke="black" points="269,-314 269,-336 1029,-336 1029,-314 269,-314"/>
<text text-anchor="start" x="272" y="-319.7" font-family="Times,serif" font-size="14.00">(CASE WHEN {column_name} = &#39;00000000&#39; THEN NULL ELSE public.parse_date({column_name}) END)</text>
<polygon fill="none" stroke="black" points="11,-290 11,-312 267,-312 267,-290 11,-290"/>
<text text-anchor="start" x="14" y="-295.7" font-family="Times,serif" font-size="14.00">numeric →</text>
<polygon fill="none" stroke="black" points="269,-290 269,-312 1029,-312 1029,-290 269,-290"/>
<text text-anchor="start" x="271.75" y="-295.7" font-family="Times,serif" font-size="14.00">(CASE WHEN {column_name} &lt; 19000000 THEN NULL ELSE to_date(to_char({column_name}, &#39;00000000&#39;), &#39;YYYYMMDD&#39;) END)</text>
<polygon fill="none" stroke="black" points="8,-287 8,-429 1032,-429 1032,-287 8,-287"/>
</a>
</g>
</g>
<!-- medicare.ps.dod&#45;&gt;medicare._ps.dod -->
<g id="edge2" class="edge">
<title>medicare.ps.dod&#45;&gt;medicare._ps.dod</title>
<path fill="none" stroke="black" d="M520,-282.55C520,-274.34 520,-265.93 520,-257.59"/>
<polygon fill="black" stroke="black" points="523.5,-257.81 520,-247.81 516.5,-257.81 523.5,-257.81"/>
<text text-anchor="middle" x="539.5" y="-259.45" font-family="Times,serif" font-size="14.00">Copied</text>
</g>
<!-- medicare.ps.dod_parent -->
<g id="node4" class="node">
<title>medicare.ps.dod_parent</title>
<g id="a_node4"><a xlink:href="../medicare.ps/dod.html" xlink:title="8 incoming links (columns)" target="_blank">
<path fill="yellow" stroke="black" d="M628,-568.18C628,-573.6 579.59,-578 520,-578 460.41,-578 412,-573.6 412,-568.18 412,-568.18 412,-479.82 412,-479.82 412,-474.4 460.41,-470 520,-470 579.59,-470 628,-474.4 628,-479.82 628,-479.82 628,-568.18 628,-568.18"/>
<path fill="none" stroke="black" d="M628,-568.18C628,-562.76 579.59,-558.36 520,-558.36 460.41,-558.36 412,-562.76 412,-568.18"/>
<text text-anchor="middle" x="520" y="-518.95" font-family="Times,serif" font-size="14.00">8 incoming links (columns)</text>
</a>
</g>
</g>
<!-- medicare.ps.dod_parent&#45;&gt;medicare.ps.dod -->
<g id="edge3" class="edge">
<title>medicare.ps.dod_parent&#45;&gt;medicare.ps.dod</title>
<path fill="none" stroke="goldenrod" stroke-width="6" d="M520,-469.75C520,-463.32 520,-456.62 520,-449.83"/>
<polygon fill="goldenrod" stroke="goldenrod" stroke-width="6" points="525.25,-449.88 520,-439.88 514.75,-449.88 525.25,-449.88"/>
</g>
</g>
</svg>
