<?xml version="1.0" encoding="UTF-8" standalone="no"?>
<!DOCTYPE svg PUBLIC "-//W3C//DTD SVG 1.1//EN"
 "http://www.w3.org/Graphics/SVG/1.1/DTD/svg11.dtd">
<!-- Generated by graphviz version 10.0.1 (20240210.2158)
 -->
<!-- Pages: 1 -->
<svg width="471pt" height="473pt"
 viewBox="0.00 0.00 471.00 473.00" xmlns="http://www.w3.org/2000/svg" xmlns:xlink="http://www.w3.org/1999/xlink">
<g id="graph0" class="graph" transform="scale(1 1) rotate(0) translate(4 469)">
<polygon fill="white" stroke="none" points="-4,4 -4,-469 467,-469 467,4 -4,4"/>
<!-- medicare.qc_adm_union.discharge_date -->
<g id="node1" class="node">
<title>medicare.qc_adm_union.discharge_date</title>
<g id="a_node1"><a xlink:href="../medicare.qc_adm_union/discharge_date.html" xlink:title="&lt;TABLE&gt;" target="_blank">
<polygon fill="none" stroke="black" points="463,-82 0,-82 0,0 463,0 463,-82"/>
<text text-anchor="start" x="12.62" y="-60.7" font-family="Times,serif" font-weight="bold" font-size="14.00">medicare.qc_adm_union.discharge_date</text>
<polygon fill="none" stroke="black" points="11,-31 11,-53 249,-53 249,-31 11,-31"/>
<text text-anchor="start" x="14" y="-36.7" font-family="Times,serif" font-size="14.00">character varying →</text>
<polygon fill="none" stroke="black" points="251,-31 251,-53 452,-53 452,-31 251,-31"/>
<text text-anchor="start" x="253.62" y="-36.7" font-family="Times,serif" font-size="14.00">public.parse_date({column_name})</text>
<polygon fill="none" stroke="black" points="11,-7 11,-29 249,-29 249,-7 11,-7"/>
<text text-anchor="start" x="14" y="-12.7" font-family="Times,serif" font-size="14.00">numeric →</text>
<polygon fill="none" stroke="black" points="251,-7 251,-29 452,-29 452,-7 251,-7"/>
<text text-anchor="start" x="253.62" y="-12.7" font-family="Times,serif" font-size="14.00">public.parse_date({column_name})</text>
<polygon fill="none" stroke="black" points="8,-4 8,-78 455,-78 455,-4 8,-4"/>
</a>
</g>
</g>
<!-- medicare.admissions.discharge_date -->
<g id="node2" class="node">
<title>medicare.admissions.discharge_date</title>
<g id="a_node2"><a xlink:href="../medicare.admissions/discharge_date.html" xlink:title="&lt;TABLE&gt;" target="_blank">
<polygon fill="none" stroke="black" points="452,-201 11,-201 11,-119 452,-119 452,-201"/>
<text text-anchor="start" x="23.88" y="-179.7" font-family="Times,serif" font-weight="bold" font-size="14.00">medicare.admissions.discharge_date</text>
<polygon fill="none" stroke="black" points="22,-150 22,-172 238,-172 238,-150 22,-150"/>
<text text-anchor="start" x="25" y="-155.7" font-family="Times,serif" font-size="14.00">character varying →</text>
<polygon fill="none" stroke="black" points="240,-150 240,-172 441,-172 441,-150 240,-150"/>
<text text-anchor="start" x="242.62" y="-155.7" font-family="Times,serif" font-size="14.00">public.parse_date({column_name})</text>
<polygon fill="none" stroke="black" points="22,-126 22,-148 238,-148 238,-126 22,-126"/>
<text text-anchor="start" x="25" y="-131.7" font-family="Times,serif" font-size="14.00">numeric →</text>
<polygon fill="none" stroke="black" points="240,-126 240,-148 441,-148 441,-126 240,-126"/>
<text text-anchor="start" x="242.62" y="-131.7" font-family="Times,serif" font-size="14.00">public.parse_date({column_name})</text>
<polygon fill="none" stroke="black" points="19,-123 19,-197 444,-197 444,-123 19,-123"/>
</a>
</g>
</g>
<!-- medicare.admissions.discharge_date&#45;&gt;medicare.qc_adm_union.discharge_date -->
<g id="edge1" class="edge">
<title>medicare.admissions.discharge_date&#45;&gt;medicare.qc_adm_union.discharge_date</title>
<path fill="none" stroke="black" d="M231.5,-118.74C231.5,-110.65 231.5,-102.04 231.5,-93.63"/>
<polygon fill="black" stroke="black" points="235,-93.85 231.5,-83.85 228,-93.85 235,-93.85"/>
<text text-anchor="middle" x="251" y="-95.45" font-family="Times,serif" font-size="14.00">Copied</text>
</g>
<!-- medicare.ip.discharge_date -->
<g id="node3" class="node">
<title>medicare.ip.discharge_date</title>
<g id="a_node3"><a xlink:href="../medicare.ip/discharge_date.html" xlink:title="&lt;TABLE&gt;" target="_blank">
<polygon fill="none" stroke="black" points="425.5,-320 37.5,-320 37.5,-238 425.5,-238 425.5,-320"/>
<text text-anchor="start" x="50.12" y="-298.7" font-family="Times,serif" font-weight="bold" font-size="14.00">medicare.ip.discharge_date</text>
<polygon fill="none" stroke="black" points="48.5,-269 48.5,-291 211.5,-291 211.5,-269 48.5,-269"/>
<text text-anchor="start" x="51.5" y="-274.7" font-family="Times,serif" font-size="14.00">character varying →</text>
<polygon fill="none" stroke="black" points="213.5,-269 213.5,-291 414.5,-291 414.5,-269 213.5,-269"/>
<text text-anchor="start" x="216.12" y="-274.7" font-family="Times,serif" font-size="14.00">public.parse_date({column_name})</text>
<polygon fill="none" stroke="black" points="48.5,-245 48.5,-267 211.5,-267 211.5,-245 48.5,-245"/>
<text text-anchor="start" x="51.5" y="-250.7" font-family="Times,serif" font-size="14.00">numeric →</text>
<polygon fill="none" stroke="black" points="213.5,-245 213.5,-267 414.5,-267 414.5,-245 213.5,-245"/>
<text text-anchor="start" x="216.12" y="-250.7" font-family="Times,serif" font-size="14.00">public.parse_date({column_name})</text>
<polygon fill="none" stroke="black" points="45.5,-242 45.5,-316 417.5,-316 417.5,-242 45.5,-242"/>
</a>
</g>
</g>
<!-- medicare.ip.discharge_date&#45;&gt;medicare.admissions.discharge_date -->
<g id="edge2" class="edge">
<title>medicare.ip.discharge_date&#45;&gt;medicare.admissions.discharge_date</title>
<path fill="none" stroke="black" d="M231.5,-237.74C231.5,-229.65 231.5,-221.04 231.5,-212.63"/>
<polygon fill="black" stroke="black" points="235,-212.85 231.5,-202.85 228,-212.85 235,-212.85"/>
<text text-anchor="middle" x="251" y="-214.45" font-family="Times,serif" font-size="14.00">Copied</text>
</g>
<!-- medicare.ip.discharge_date_parent -->
<g id="node4" class="node">
<title>medicare.ip.discharge_date_parent</title>
<g id="a_node4"><a xlink:href="../medicare.ip/discharge_date.html" xlink:title="8 incoming links (columns)" target="_blank">
<path fill="yellow" stroke="black" d="M339.5,-455.18C339.5,-460.6 291.09,-465 231.5,-465 171.91,-465 123.5,-460.6 123.5,-455.18 123.5,-455.18 123.5,-366.82 123.5,-366.82 123.5,-361.4 171.91,-357 231.5,-357 291.09,-357 339.5,-361.4 339.5,-366.82 339.5,-366.82 339.5,-455.18 339.5,-455.18"/>
<path fill="none" stroke="black" d="M339.5,-455.18C339.5,-449.76 291.09,-445.36 231.5,-445.36 171.91,-445.36 123.5,-449.76 123.5,-455.18"/>
<text text-anchor="middle" x="231.5" y="-405.95" font-family="Times,serif" font-size="14.00">8 incoming links (columns)</text>
</a>
</g>
</g>
<!-- medicare.ip.discharge_date_parent&#45;&gt;medicare.ip.discharge_date -->
<g id="edge3" class="edge">
<title>medicare.ip.discharge_date_parent&#45;&gt;medicare.ip.discharge_date</title>
<path fill="none" stroke="goldenrod" stroke-width="6" d="M231.5,-356.75C231.5,-350.08 231.5,-343.23 231.5,-336.51"/>
<polygon fill="goldenrod" stroke="goldenrod" stroke-width="6" points="236.75,-336.68 231.5,-326.68 226.25,-336.68 236.75,-336.68"/>
</g>
</g>
</svg>
