<?xml version="1.0" encoding="UTF-8" standalone="no"?>
<!DOCTYPE svg PUBLIC "-//W3C//DTD SVG 1.1//EN"
 "http://www.w3.org/Graphics/SVG/1.1/DTD/svg11.dtd">
<!-- Generated by graphviz version 10.0.1 (20240210.2158)
 -->
<!-- Pages: 1 -->
<svg width="540pt" height="354pt"
 viewBox="0.00 0.00 540.00 354.00" xmlns="http://www.w3.org/2000/svg" xmlns:xlink="http://www.w3.org/1999/xlink">
<g id="graph0" class="graph" transform="scale(1 1) rotate(0) translate(4 350)">
<polygon fill="white" stroke="none" points="-4,4 -4,-350 536,-350 536,4 -4,4"/>
<!-- medicare.admissions.discharge_date_raw -->
<g id="node1" class="node">
<title>medicare.admissions.discharge_date_raw</title>
<g id="a_node1"><a xlink:href="../medicare.admissions/discharge_date_raw.html" xlink:title="&lt;TABLE&gt;" target="_blank">
<polygon fill="none" stroke="black" points="532,-82 0,-82 0,0 532,0 532,-82"/>
<text text-anchor="start" x="12.75" y="-60.7" font-family="Times,serif" font-weight="bold" font-size="14.00">medicare.admissions.discharge_date_raw</text>
<polygon fill="none" stroke="black" points="11,-31 11,-53 256,-53 256,-31 11,-31"/>
<text text-anchor="start" x="14" y="-36.7" font-family="Times,serif" font-size="14.00">numeric →</text>
<polygon fill="none" stroke="black" points="258,-31 258,-53 521,-53 521,-31 258,-31"/>
<text text-anchor="start" x="260.88" y="-36.7" font-family="Times,serif" font-size="14.00">TRIM(to_char({column_name}, &#39;999999999&#39;))</text>
<polygon fill="none" stroke="black" points="11,-7 11,-29 256,-29 256,-7 11,-7"/>
<text text-anchor="start" x="14" y="-12.7" font-family="Times,serif" font-size="14.00">* →</text>
<polygon fill="none" stroke="black" points="258,-7 258,-29 521,-29 521,-7 258,-7"/>
<text text-anchor="start" x="261" y="-12.7" font-family="Times,serif" font-size="14.00">{column_name}::VARCHAR</text>
<polygon fill="none" stroke="black" points="8,-4 8,-78 524,-78 524,-4 8,-4"/>
</a>
</g>
</g>
<!-- medicare.ip.discharge_date_raw -->
<g id="node2" class="node">
<title>medicare.ip.discharge_date_raw</title>
<g id="a_node2"><a xlink:href="../medicare.ip/discharge_date_raw.html" xlink:title="&lt;TABLE&gt;" target="_blank">
<polygon fill="none" stroke="black" points="506,-201 26,-201 26,-119 506,-119 506,-201"/>
<text text-anchor="start" x="39" y="-179.7" font-family="Times,serif" font-weight="bold" font-size="14.00">medicare.ip.discharge_date_raw</text>
<polygon fill="none" stroke="black" points="37,-150 37,-172 230,-172 230,-150 37,-150"/>
<text text-anchor="start" x="40" y="-155.7" font-family="Times,serif" font-size="14.00">numeric →</text>
<polygon fill="none" stroke="black" points="232,-150 232,-172 495,-172 495,-150 232,-150"/>
<text text-anchor="start" x="234.88" y="-155.7" font-family="Times,serif" font-size="14.00">TRIM(to_char({column_name}, &#39;999999999&#39;))</text>
<polygon fill="none" stroke="black" points="37,-126 37,-148 230,-148 230,-126 37,-126"/>
<text text-anchor="start" x="40" y="-131.7" font-family="Times,serif" font-size="14.00">* →</text>
<polygon fill="none" stroke="black" points="232,-126 232,-148 495,-148 495,-126 232,-126"/>
<text text-anchor="start" x="235" y="-131.7" font-family="Times,serif" font-size="14.00">{column_name}::VARCHAR</text>
<polygon fill="none" stroke="black" points="34,-123 34,-197 498,-197 498,-123 34,-123"/>
</a>
</g>
</g>
<!-- medicare.ip.discharge_date_raw&#45;&gt;medicare.admissions.discharge_date_raw -->
<g id="edge1" class="edge">
<title>medicare.ip.discharge_date_raw&#45;&gt;medicare.admissions.discharge_date_raw</title>
<path fill="none" stroke="black" d="M266,-118.74C266,-110.65 266,-102.04 266,-93.63"/>
<polygon fill="black" stroke="black" points="269.5,-93.85 266,-83.85 262.5,-93.85 269.5,-93.85"/>
<text text-anchor="middle" x="285.5" y="-95.45" font-family="Times,serif" font-size="14.00">Copied</text>
</g>
<!-- medicare.ip.discharge_date_raw_parent -->
<g id="node3" class="node">
<title>medicare.ip.discharge_date_raw_parent</title>
<g id="a_node3"><a xlink:href="../medicare.ip/discharge_date_raw.html" xlink:title="8 incoming links (columns)" target="_blank">
<path fill="yellow" stroke="black" d="M374,-336.18C374,-341.6 325.59,-346 266,-346 206.41,-346 158,-341.6 158,-336.18 158,-336.18 158,-247.82 158,-247.82 158,-242.4 206.41,-238 266,-238 325.59,-238 374,-242.4 374,-247.82 374,-247.82 374,-336.18 374,-336.18"/>
<path fill="none" stroke="black" d="M374,-336.18C374,-330.76 325.59,-326.36 266,-326.36 206.41,-326.36 158,-330.76 158,-336.18"/>
<text text-anchor="middle" x="266" y="-286.95" font-family="Times,serif" font-size="14.00">8 incoming links (columns)</text>
</a>
</g>
</g>
<!-- medicare.ip.discharge_date_raw_parent&#45;&gt;medicare.ip.discharge_date_raw -->
<g id="edge2" class="edge">
<title>medicare.ip.discharge_date_raw_parent&#45;&gt;medicare.ip.discharge_date_raw</title>
<path fill="none" stroke="goldenrod" stroke-width="6" d="M266,-237.75C266,-231.08 266,-224.23 266,-217.51"/>
<polygon fill="goldenrod" stroke="goldenrod" stroke-width="6" points="271.25,-217.68 266,-207.68 260.75,-217.68 271.25,-217.68"/>
</g>
</g>
</svg>
