<?xml version="1.0" encoding="UTF-8" standalone="no"?>
<!DOCTYPE svg PUBLIC "-//W3C//DTD SVG 1.1//EN"
 "http://www.w3.org/Graphics/SVG/1.1/DTD/svg11.dtd">
<!-- Generated by graphviz version 10.0.1 (20240210.2158)
 -->
<!-- Pages: 1 -->
<svg width="1205pt" height="784pt"
 viewBox="0.00 0.00 1204.50 783.50" xmlns="http://www.w3.org/2000/svg" xmlns:xlink="http://www.w3.org/1999/xlink">
<g id="graph0" class="graph" transform="scale(1 1) rotate(0) translate(4 779.5)">
<polygon fill="white" stroke="none" points="-4,4 -4,-779.5 1200.5,-779.5 1200.5,4 -4,4"/>
<!-- medicare.beneficiaries.discrepancies -->
<g id="node1" class="node">
<title>medicare.beneficiaries.discrepancies</title>
<g id="a_node1"><a xlink:href="../medicare.beneficiaries/discrepancies.html" xlink:title="&lt;TABLE&gt;" target="_blank">
<polygon fill="none" stroke="black" points="1196.5,-160.5 0,-160.5 0,0 1196.5,0 1196.5,-160.5"/>
<text text-anchor="start" x="492.5" y="-139.2" font-family="Times,serif" font-weight="bold" font-size="14.00">medicare.beneficiaries.discrepancies</text>
<text text-anchor="start" x="36" y="-92.7" font-family="Times,serif" font-size="14.00">Number of possible discrepancies for the</text>
<text text-anchor="start" x="57.38" y="-76.2" font-family="Times,serif" font-size="14.00">beneficiary, .i.e., records that use</text>
<text text-anchor="start" x="37.12" y="-59.7" font-family="Times,serif" font-size="14.00">alternative DOB, race, ethnicity or DOD</text>
<polygon fill="none" stroke="black" points="11,-7 11,-29.5 1185.5,-29.5 1185.5,-7 11,-7"/>
<text text-anchor="start" x="14" y="-13.2" font-family="Times,serif" font-size="14.00">( &#160;COUNT(distinct {identifiers}) &#45; 1 + &#160;CASE &#160;&#160;&#160;(COUNT(DISTINCT dod) FILTER (WHERE dod is not null)) &#160;&#160;&#160;WHEN 0 THEN 0 &#160;&#160;&#160;ELSE COUNT(DISTINCT dod) FILTER (WHERE dod is not null) &#45; 1 &#160;END)</text>
<polygon fill="none" stroke="black" points="8,-4 8,-156.5 1188.5,-156.5 1188.5,-4 8,-4"/>
</a>
</g>
</g>
<!-- medicare._beneficiaries.dod -->
<g id="node2" class="node">
<title>medicare._beneficiaries.dod</title>
<g id="a_node2"><a xlink:href="../medicare._beneficiaries/dod.html" xlink:title="&lt;TABLE&gt;" target="_blank">
<polygon fill="none" stroke="black" points="692.62,-256.5 503.88,-256.5 503.88,-197.5 692.62,-197.5 692.62,-256.5"/>
<text text-anchor="start" x="516.88" y="-235.2" font-family="Times,serif" font-weight="bold" font-size="14.00">medicare._beneficiaries.dod</text>
<polygon fill="none" stroke="black" points="514.88,-204.5 514.88,-227 681.62,-227 681.62,-204.5 514.88,-204.5"/>
<text text-anchor="start" x="517.88" y="-210.7" font-family="Times,serif" font-size="14.00">MAX(dod)</text>
<polygon fill="none" stroke="black" points="511.88,-201.5 511.88,-252.5 684.62,-252.5 684.62,-201.5 511.88,-201.5"/>
</a>
</g>
</g>
<!-- medicare._beneficiaries.dod&#45;&gt;medicare.beneficiaries.discrepancies -->
<g id="edge1" class="edge">
<title>medicare._beneficiaries.dod&#45;&gt;medicare.beneficiaries.discrepancies</title>
<path fill="none" stroke="black" d="M598.25,-197.06C598.25,-189.57 598.25,-181.11 598.25,-172.24"/>
<polygon fill="black" stroke="black" points="601.75,-172.35 598.25,-162.35 594.75,-172.35 601.75,-172.35"/>
<text text-anchor="middle" x="617.75" y="-173.95" font-family="Times,serif" font-size="14.00">Copied</text>
</g>
<!-- medicare._ps.dod -->
<g id="node3" class="node">
<title>medicare._ps.dod</title>
<g id="a_node3"><a xlink:href="../medicare._ps/dod.html" xlink:title="&lt;TABLE&gt;" target="_blank">
<polygon fill="none" stroke="black" points="1118.25,-443.5 78.25,-443.5 78.25,-293.5 1118.25,-293.5 1118.25,-443.5"/>
<text text-anchor="start" x="165.88" y="-422.2" font-family="Times,serif" font-weight="bold" font-size="14.00">medicare._ps.dod</text>
<text text-anchor="start" x="114.12" y="-376.2" font-family="Times,serif" font-size="14.00">Date of beneficiary death, if available</text>
<polygon fill="none" stroke="black" points="89.25,-324.5 89.25,-346.5 345.25,-346.5 345.25,-324.5 89.25,-324.5"/>
<text text-anchor="start" x="92.25" y="-330.2" font-family="Times,serif" font-size="14.00">character varying →</text>
<polygon fill="none" stroke="black" points="347.25,-324.5 347.25,-346.5 1107.25,-346.5 1107.25,-324.5 347.25,-324.5"/>
<text text-anchor="start" x="350.25" y="-330.2" font-family="Times,serif" font-size="14.00">(CASE WHEN {column_name} = &#39;00000000&#39; THEN NULL ELSE public.parse_date({column_name}) END)</text>
<polygon fill="none" stroke="black" points="89.25,-300.5 89.25,-322.5 345.25,-322.5 345.25,-300.5 89.25,-300.5"/>
<text text-anchor="start" x="92.25" y="-306.2" font-family="Times,serif" font-size="14.00">numeric →</text>
<polygon fill="none" stroke="black" points="347.25,-300.5 347.25,-322.5 1107.25,-322.5 1107.25,-300.5 347.25,-300.5"/>
<text text-anchor="start" x="350" y="-306.2" font-family="Times,serif" font-size="14.00">(CASE WHEN {column_name} &lt; 19000000 THEN NULL ELSE to_date(to_char({column_name}, &#39;00000000&#39;), &#39;YYYYMMDD&#39;) END)</text>
<polygon fill="none" stroke="black" points="86.25,-297.5 86.25,-439.5 1110.25,-439.5 1110.25,-297.5 86.25,-297.5"/>
</a>
</g>
</g>
<!-- medicare._ps.dod&#45;&gt;medicare._beneficiaries.dod -->
<g id="edge2" class="edge">
<title>medicare._ps.dod&#45;&gt;medicare._beneficiaries.dod</title>
<path fill="none" stroke="blue" stroke-width="5" d="M598.25,-293.26C598.25,-286.41 598.25,-279.63 598.25,-273.16"/>
<polygon fill="blue" stroke="blue" stroke-width="5" points="602.63,-273.23 598.25,-263.23 593.88,-273.23 602.63,-273.23"/>
<text text-anchor="middle" x="681.5" y="-269.95" font-family="Times,serif" font-size="14.00">	 &#160;Aggregated On bene_id</text>
</g>
<!-- medicare.ps.dod -->
<g id="node4" class="node">
<title>medicare.ps.dod</title>
<g id="a_node4"><a xlink:href="../medicare.ps/dod.html" xlink:title="&lt;TABLE&gt;" target="_blank">
<polygon fill="none" stroke="black" points="1118.25,-630.5 78.25,-630.5 78.25,-480.5 1118.25,-480.5 1118.25,-630.5"/>
<text text-anchor="start" x="169.25" y="-609.2" font-family="Times,serif" font-weight="bold" font-size="14.00">medicare.ps.dod</text>
<text text-anchor="start" x="114.12" y="-563.2" font-family="Times,serif" font-size="14.00">Date of beneficiary death, if available</text>
<polygon fill="none" stroke="black" points="89.25,-511.5 89.25,-533.5 345.25,-533.5 345.25,-511.5 89.25,-511.5"/>
<text text-anchor="start" x="92.25" y="-517.2" font-family="Times,serif" font-size="14.00">character varying →</text>
<polygon fill="none" stroke="black" points="347.25,-511.5 347.25,-533.5 1107.25,-533.5 1107.25,-511.5 347.25,-511.5"/>
<text text-anchor="start" x="350.25" y="-517.2" font-family="Times,serif" font-size="14.00">(CASE WHEN {column_name} = &#39;00000000&#39; THEN NULL ELSE public.parse_date({column_name}) END)</text>
<polygon fill="none" stroke="black" points="89.25,-487.5 89.25,-509.5 345.25,-509.5 345.25,-487.5 89.25,-487.5"/>
<text text-anchor="start" x="92.25" y="-493.2" font-family="Times,serif" font-size="14.00">numeric →</text>
<polygon fill="none" stroke="black" points="347.25,-487.5 347.25,-509.5 1107.25,-509.5 1107.25,-487.5 347.25,-487.5"/>
<text text-anchor="start" x="350" y="-493.2" font-family="Times,serif" font-size="14.00">(CASE WHEN {column_name} &lt; 19000000 THEN NULL ELSE to_date(to_char({column_name}, &#39;00000000&#39;), &#39;YYYYMMDD&#39;) END)</text>
<polygon fill="none" stroke="black" points="86.25,-484.5 86.25,-626.5 1110.25,-626.5 1110.25,-484.5 86.25,-484.5"/>
</a>
</g>
</g>
<!-- medicare.ps.dod&#45;&gt;medicare._ps.dod -->
<g id="edge3" class="edge">
<title>medicare.ps.dod&#45;&gt;medicare._ps.dod</title>
<path fill="none" stroke="black" d="M598.25,-480.05C598.25,-471.84 598.25,-463.43 598.25,-455.09"/>
<polygon fill="black" stroke="black" points="601.75,-455.31 598.25,-445.31 594.75,-455.31 601.75,-455.31"/>
<text text-anchor="middle" x="617.75" y="-456.95" font-family="Times,serif" font-size="14.00">Copied</text>
</g>
<!-- medicare.ps.dod_parent -->
<g id="node5" class="node">
<title>medicare.ps.dod_parent</title>
<g id="a_node5"><a xlink:href="../medicare.ps/dod.html" xlink:title="8 incoming links (columns)" target="_blank">
<path fill="yellow" stroke="black" d="M706.25,-765.68C706.25,-771.1 657.84,-775.5 598.25,-775.5 538.66,-775.5 490.25,-771.1 490.25,-765.68 490.25,-765.68 490.25,-677.32 490.25,-677.32 490.25,-671.9 538.66,-667.5 598.25,-667.5 657.84,-667.5 706.25,-671.9 706.25,-677.32 706.25,-677.32 706.25,-765.68 706.25,-765.68"/>
<path fill="none" stroke="black" d="M706.25,-765.68C706.25,-760.26 657.84,-755.86 598.25,-755.86 538.66,-755.86 490.25,-760.26 490.25,-765.68"/>
<text text-anchor="middle" x="598.25" y="-716.45" font-family="Times,serif" font-size="14.00">8 incoming links (columns)</text>
</a>
</g>
</g>
<!-- medicare.ps.dod_parent&#45;&gt;medicare.ps.dod -->
<g id="edge4" class="edge">
<title>medicare.ps.dod_parent&#45;&gt;medicare.ps.dod</title>
<path fill="none" stroke="goldenrod" stroke-width="6" d="M598.25,-667.25C598.25,-660.82 598.25,-654.12 598.25,-647.33"/>
<polygon fill="goldenrod" stroke="goldenrod" stroke-width="6" points="603.5,-647.38 598.25,-637.38 593,-647.38 603.5,-647.38"/>
</g>
</g>
</svg>
