<?xml version="1.0" encoding="UTF-8" standalone="no"?>
<!DOCTYPE svg PUBLIC "-//W3C//DTD SVG 1.1//EN"
 "http://www.w3.org/Graphics/SVG/1.1/DTD/svg11.dtd">
<!-- Generated by graphviz version 10.0.1 (20240210.2158)
 -->
<!-- Pages: 1 -->
<svg width="1205pt" height="688pt"
 viewBox="0.00 0.00 1204.50 687.50" xmlns="http://www.w3.org/2000/svg" xmlns:xlink="http://www.w3.org/1999/xlink">
<g id="graph0" class="graph" transform="scale(1 1) rotate(0) translate(4 683.5)">
<polygon fill="white" stroke="none" points="-4,4 -4,-683.5 1200.5,-683.5 1200.5,4 -4,4"/>
<!-- medicare._beneficiaries.discrepancies -->
<g id="node1" class="node">
<title>medicare._beneficiaries.discrepancies</title>
<g id="a_node1"><a xlink:href="../medicare._beneficiaries/discrepancies.html" xlink:title="&lt;TABLE&gt;" target="_blank">
<polygon fill="none" stroke="black" points="1196.5,-160.5 0,-160.5 0,0 1196.5,0 1196.5,-160.5"/>
<text text-anchor="start" x="489.12" y="-139.2" font-family="Times,serif" font-weight="bold" font-size="14.00">medicare._beneficiaries.discrepancies</text>
<text text-anchor="start" x="36" y="-92.7" font-family="Times,serif" font-size="14.00">Number of possible discrepancies for the</text>
<text text-anchor="start" x="57.38" y="-76.2" font-family="Times,serif" font-size="14.00">beneficiary, .i.e., records that use</text>
<text text-anchor="start" x="37.12" y="-59.7" font-family="Times,serif" font-size="14.00">alternative DOB, race, ethnicity or DOD</text>
<polygon fill="none" stroke="black" points="11,-7 11,-29.5 1185.5,-29.5 1185.5,-7 11,-7"/>
<text text-anchor="start" x="14" y="-13.2" font-family="Times,serif" font-size="14.00">( &#160;COUNT(distinct {identifiers}) &#45; 1 + &#160;CASE &#160;&#160;&#160;(COUNT(DISTINCT dod) FILTER (WHERE dod is not null)) &#160;&#160;&#160;WHEN 0 THEN 0 &#160;&#160;&#160;ELSE COUNT(DISTINCT dod) FILTER (WHERE dod is not null) &#45; 1 &#160;END)</text>
<polygon fill="none" stroke="black" points="8,-4 8,-156.5 1188.5,-156.5 1188.5,-4 8,-4"/>
</a>
</g>
</g>
<!-- medicare._ps.dod -->
<g id="node2" class="node">
<title>medicare._ps.dod</title>
<g id="a_node2"><a xlink:href="../medicare._ps/dod.html" xlink:title="&lt;TABLE&gt;" target="_blank">
<polygon fill="none" stroke="black" points="1118.25,-347.5 78.25,-347.5 78.25,-197.5 1118.25,-197.5 1118.25,-347.5"/>
<text text-anchor="start" x="165.88" y="-326.2" font-family="Times,serif" font-weight="bold" font-size="14.00">medicare._ps.dod</text>
<text text-anchor="start" x="114.12" y="-280.2" font-family="Times,serif" font-size="14.00">Date of beneficiary death, if available</text>
<polygon fill="none" stroke="black" points="89.25,-228.5 89.25,-250.5 345.25,-250.5 345.25,-228.5 89.25,-228.5"/>
<text text-anchor="start" x="92.25" y="-234.2" font-family="Times,serif" font-size="14.00">character varying →</text>
<polygon fill="none" stroke="black" points="347.25,-228.5 347.25,-250.5 1107.25,-250.5 1107.25,-228.5 347.25,-228.5"/>
<text text-anchor="start" x="350.25" y="-234.2" font-family="Times,serif" font-size="14.00">(CASE WHEN {column_name} = &#39;00000000&#39; THEN NULL ELSE public.parse_date({column_name}) END)</text>
<polygon fill="none" stroke="black" points="89.25,-204.5 89.25,-226.5 345.25,-226.5 345.25,-204.5 89.25,-204.5"/>
<text text-anchor="start" x="92.25" y="-210.2" font-family="Times,serif" font-size="14.00">numeric →</text>
<polygon fill="none" stroke="black" points="347.25,-204.5 347.25,-226.5 1107.25,-226.5 1107.25,-204.5 347.25,-204.5"/>
<text text-anchor="start" x="350" y="-210.2" font-family="Times,serif" font-size="14.00">(CASE WHEN {column_name} &lt; 19000000 THEN NULL ELSE to_date(to_char({column_name}, &#39;00000000&#39;), &#39;YYYYMMDD&#39;) END)</text>
<polygon fill="none" stroke="black" points="86.25,-201.5 86.25,-343.5 1110.25,-343.5 1110.25,-201.5 86.25,-201.5"/>
</a>
</g>
</g>
<!-- medicare._ps.dod&#45;&gt;medicare._beneficiaries.discrepancies -->
<g id="edge1" class="edge">
<title>medicare._ps.dod&#45;&gt;medicare._beneficiaries.discrepancies</title>
<path fill="none" stroke="blue" stroke-width="5" d="M598.25,-197.13C598.25,-190.54 598.25,-183.81 598.25,-177.07"/>
<polygon fill="blue" stroke="blue" stroke-width="5" points="602.63,-177.15 598.25,-167.15 593.88,-177.15 602.63,-177.15"/>
<text text-anchor="middle" x="681.5" y="-173.95" font-family="Times,serif" font-size="14.00">	 &#160;Aggregated On bene_id</text>
</g>
<!-- medicare.ps.dod -->
<g id="node3" class="node">
<title>medicare.ps.dod</title>
<g id="a_node3"><a xlink:href="../medicare.ps/dod.html" xlink:title="&lt;TABLE&gt;" target="_blank">
<polygon fill="none" stroke="black" points="1118.25,-534.5 78.25,-534.5 78.25,-384.5 1118.25,-384.5 1118.25,-534.5"/>
<text text-anchor="start" x="169.25" y="-513.2" font-family="Times,serif" font-weight="bold" font-size="14.00">medicare.ps.dod</text>
<text text-anchor="start" x="114.12" y="-467.2" font-family="Times,serif" font-size="14.00">Date of beneficiary death, if available</text>
<polygon fill="none" stroke="black" points="89.25,-415.5 89.25,-437.5 345.25,-437.5 345.25,-415.5 89.25,-415.5"/>
<text text-anchor="start" x="92.25" y="-421.2" font-family="Times,serif" font-size="14.00">character varying →</text>
<polygon fill="none" stroke="black" points="347.25,-415.5 347.25,-437.5 1107.25,-437.5 1107.25,-415.5 347.25,-415.5"/>
<text text-anchor="start" x="350.25" y="-421.2" font-family="Times,serif" font-size="14.00">(CASE WHEN {column_name} = &#39;00000000&#39; THEN NULL ELSE public.parse_date({column_name}) END)</text>
<polygon fill="none" stroke="black" points="89.25,-391.5 89.25,-413.5 345.25,-413.5 345.25,-391.5 89.25,-391.5"/>
<text text-anchor="start" x="92.25" y="-397.2" font-family="Times,serif" font-size="14.00">numeric →</text>
<polygon fill="none" stroke="black" points="347.25,-391.5 347.25,-413.5 1107.25,-413.5 1107.25,-391.5 347.25,-391.5"/>
<text text-anchor="start" x="350" y="-397.2" font-family="Times,serif" font-size="14.00">(CASE WHEN {column_name} &lt; 19000000 THEN NULL ELSE to_date(to_char({column_name}, &#39;00000000&#39;), &#39;YYYYMMDD&#39;) END)</text>
<polygon fill="none" stroke="black" points="86.25,-388.5 86.25,-530.5 1110.25,-530.5 1110.25,-388.5 86.25,-388.5"/>
</a>
</g>
</g>
<!-- medicare.ps.dod&#45;&gt;medicare._ps.dod -->
<g id="edge2" class="edge">
<title>medicare.ps.dod&#45;&gt;medicare._ps.dod</title>
<path fill="none" stroke="black" d="M598.25,-384.05C598.25,-375.84 598.25,-367.43 598.25,-359.09"/>
<polygon fill="black" stroke="black" points="601.75,-359.31 598.25,-349.31 594.75,-359.31 601.75,-359.31"/>
<text text-anchor="middle" x="617.75" y="-360.95" font-family="Times,serif" font-size="14.00">Copied</text>
</g>
<!-- medicare.ps.dod_parent -->
<g id="node4" class="node">
<title>medicare.ps.dod_parent</title>
<g id="a_node4"><a xlink:href="../medicare.ps/dod.html" xlink:title="8 incoming links (columns)" target="_blank">
<path fill="yellow" stroke="black" d="M706.25,-669.68C706.25,-675.1 657.84,-679.5 598.25,-679.5 538.66,-679.5 490.25,-675.1 490.25,-669.68 490.25,-669.68 490.25,-581.32 490.25,-581.32 490.25,-575.9 538.66,-571.5 598.25,-571.5 657.84,-571.5 706.25,-575.9 706.25,-581.32 706.25,-581.32 706.25,-669.68 706.25,-669.68"/>
<path fill="none" stroke="black" d="M706.25,-669.68C706.25,-664.26 657.84,-659.86 598.25,-659.86 538.66,-659.86 490.25,-664.26 490.25,-669.68"/>
<text text-anchor="middle" x="598.25" y="-620.45" font-family="Times,serif" font-size="14.00">8 incoming links (columns)</text>
</a>
</g>
</g>
<!-- medicare.ps.dod_parent&#45;&gt;medicare.ps.dod -->
<g id="edge3" class="edge">
<title>medicare.ps.dod_parent&#45;&gt;medicare.ps.dod</title>
<path fill="none" stroke="goldenrod" stroke-width="6" d="M598.25,-571.25C598.25,-564.82 598.25,-558.12 598.25,-551.33"/>
<polygon fill="goldenrod" stroke="goldenrod" stroke-width="6" points="603.5,-551.38 598.25,-541.38 593,-551.38 603.5,-551.38"/>
</g>
</g>
</svg>
