<?xml version="1.0" encoding="UTF-8" standalone="no"?>
<!DOCTYPE svg PUBLIC "-//W3C//DTD SVG 1.1//EN"
 "http://www.w3.org/Graphics/SVG/1.1/DTD/svg11.dtd">
<!-- Generated by graphviz version 10.0.1 (20240210.2158)
 -->
<!-- Pages: 1 -->
<svg width="1205pt" height="880pt"
 viewBox="0.00 0.00 1204.50 879.50" xmlns="http://www.w3.org/2000/svg" xmlns:xlink="http://www.w3.org/1999/xlink">
<g id="graph0" class="graph" transform="scale(1 1) rotate(0) translate(4 875.5)">
<polygon fill="white" stroke="none" points="-4,4 -4,-875.5 1200.5,-875.5 1200.5,4 -4,4"/>
<!-- medicare.qc_enrl_bene.discrepancies -->
<g id="node1" class="node">
<title>medicare.qc_enrl_bene.discrepancies</title>
<g id="a_node1"><a xlink:href="../medicare.qc_enrl_bene/discrepancies.html" xlink:title="&lt;TABLE&gt;" target="_blank">
<polygon fill="none" stroke="black" points="1196.5,-160.5 0,-160.5 0,0 1196.5,0 1196.5,-160.5"/>
<text text-anchor="start" x="490.25" y="-139.2" font-family="Times,serif" font-weight="bold" font-size="14.00">medicare.qc_enrl_bene.discrepancies</text>
<text text-anchor="start" x="36" y="-92.7" font-family="Times,serif" font-size="14.00">Number of possible discrepancies for the</text>
<text text-anchor="start" x="57.38" y="-76.2" font-family="Times,serif" font-size="14.00">beneficiary, .i.e., records that use</text>
<text text-anchor="start" x="37.12" y="-59.7" font-family="Times,serif" font-size="14.00">alternative DOB, race, ethnicity or DOD</text>
<polygon fill="none" stroke="black" points="11,-7 11,-29.5 1185.5,-29.5 1185.5,-7 11,-7"/>
<text text-anchor="start" x="14" y="-13.2" font-family="Times,serif" font-size="14.00">( &#160;COUNT(distinct {identifiers}) &#45; 1 + &#160;CASE &#160;&#160;&#160;(COUNT(DISTINCT dod) FILTER (WHERE dod is not null)) &#160;&#160;&#160;WHEN 0 THEN 0 &#160;&#160;&#160;ELSE COUNT(DISTINCT dod) FILTER (WHERE dod is not null) &#45; 1 &#160;END)</text>
<polygon fill="none" stroke="black" points="8,-4 8,-156.5 1188.5,-156.5 1188.5,-4 8,-4"/>
</a>
</g>
</g>
<!-- medicare.beneficiaries.dod -->
<g id="node2" class="node">
<title>medicare.beneficiaries.dod</title>
<g id="a_node2"><a xlink:href="../medicare.beneficiaries/dod.html" xlink:title="&lt;TABLE&gt;" target="_blank">
<polygon fill="none" stroke="black" points="689.25,-256.5 507.25,-256.5 507.25,-197.5 689.25,-197.5 689.25,-256.5"/>
<text text-anchor="start" x="520.25" y="-235.2" font-family="Times,serif" font-weight="bold" font-size="14.00">medicare.beneficiaries.dod</text>
<polygon fill="none" stroke="black" points="518.25,-204.5 518.25,-227 678.25,-227 678.25,-204.5 518.25,-204.5"/>
<text text-anchor="start" x="521.25" y="-210.7" font-family="Times,serif" font-size="14.00">MAX(dod)</text>
<polygon fill="none" stroke="black" points="515.25,-201.5 515.25,-252.5 681.25,-252.5 681.25,-201.5 515.25,-201.5"/>
</a>
</g>
</g>
<!-- medicare.beneficiaries.dod&#45;&gt;medicare.qc_enrl_bene.discrepancies -->
<g id="edge1" class="edge">
<title>medicare.beneficiaries.dod&#45;&gt;medicare.qc_enrl_bene.discrepancies</title>
<path fill="none" stroke="black" d="M598.25,-197.06C598.25,-189.57 598.25,-181.11 598.25,-172.24"/>
<polygon fill="black" stroke="black" points="601.75,-172.35 598.25,-162.35 594.75,-172.35 601.75,-172.35"/>
<text text-anchor="middle" x="644.38" y="-173.95" font-family="Times,serif" font-size="14.00">	join natural</text>
</g>
<!-- medicare._beneficiaries.dod -->
<g id="node3" class="node">
<title>medicare._beneficiaries.dod</title>
<g id="a_node3"><a xlink:href="../medicare._beneficiaries/dod.html" xlink:title="&lt;TABLE&gt;" target="_blank">
<polygon fill="none" stroke="black" points="692.62,-352.5 503.88,-352.5 503.88,-293.5 692.62,-293.5 692.62,-352.5"/>
<text text-anchor="start" x="516.88" y="-331.2" font-family="Times,serif" font-weight="bold" font-size="14.00">medicare._beneficiaries.dod</text>
<polygon fill="none" stroke="black" points="514.88,-300.5 514.88,-323 681.62,-323 681.62,-300.5 514.88,-300.5"/>
<text text-anchor="start" x="517.88" y="-306.7" font-family="Times,serif" font-size="14.00">MAX(dod)</text>
<polygon fill="none" stroke="black" points="511.88,-297.5 511.88,-348.5 684.62,-348.5 684.62,-297.5 511.88,-297.5"/>
</a>
</g>
</g>
<!-- medicare._beneficiaries.dod&#45;&gt;medicare.beneficiaries.dod -->
<g id="edge2" class="edge">
<title>medicare._beneficiaries.dod&#45;&gt;medicare.beneficiaries.dod</title>
<path fill="none" stroke="black" d="M598.25,-293.03C598.25,-285.18 598.25,-276.55 598.25,-268.2"/>
<polygon fill="black" stroke="black" points="601.75,-268.23 598.25,-258.23 594.75,-268.23 601.75,-268.23"/>
<text text-anchor="middle" x="617.75" y="-269.95" font-family="Times,serif" font-size="14.00">Copied</text>
</g>
<!-- medicare._ps.dod -->
<g id="node4" class="node">
<title>medicare._ps.dod</title>
<g id="a_node4"><a xlink:href="../medicare._ps/dod.html" xlink:title="&lt;TABLE&gt;" target="_blank">
<polygon fill="none" stroke="black" points="1118.25,-539.5 78.25,-539.5 78.25,-389.5 1118.25,-389.5 1118.25,-539.5"/>
<text text-anchor="start" x="165.88" y="-518.2" font-family="Times,serif" font-weight="bold" font-size="14.00">medicare._ps.dod</text>
<text text-anchor="start" x="114.12" y="-472.2" font-family="Times,serif" font-size="14.00">Date of beneficiary death, if available</text>
<polygon fill="none" stroke="black" points="89.25,-420.5 89.25,-442.5 345.25,-442.5 345.25,-420.5 89.25,-420.5"/>
<text text-anchor="start" x="92.25" y="-426.2" font-family="Times,serif" font-size="14.00">character varying →</text>
<polygon fill="none" stroke="black" points="347.25,-420.5 347.25,-442.5 1107.25,-442.5 1107.25,-420.5 347.25,-420.5"/>
<text text-anchor="start" x="350.25" y="-426.2" font-family="Times,serif" font-size="14.00">(CASE WHEN {column_name} = &#39;00000000&#39; THEN NULL ELSE public.parse_date({column_name}) END)</text>
<polygon fill="none" stroke="black" points="89.25,-396.5 89.25,-418.5 345.25,-418.5 345.25,-396.5 89.25,-396.5"/>
<text text-anchor="start" x="92.25" y="-402.2" font-family="Times,serif" font-size="14.00">numeric →</text>
<polygon fill="none" stroke="black" points="347.25,-396.5 347.25,-418.5 1107.25,-418.5 1107.25,-396.5 347.25,-396.5"/>
<text text-anchor="start" x="350" y="-402.2" font-family="Times,serif" font-size="14.00">(CASE WHEN {column_name} &lt; 19000000 THEN NULL ELSE to_date(to_char({column_name}, &#39;00000000&#39;), &#39;YYYYMMDD&#39;) END)</text>
<polygon fill="none" stroke="black" points="86.25,-393.5 86.25,-535.5 1110.25,-535.5 1110.25,-393.5 86.25,-393.5"/>
</a>
</g>
</g>
<!-- medicare._ps.dod&#45;&gt;medicare._beneficiaries.dod -->
<g id="edge3" class="edge">
<title>medicare._ps.dod&#45;&gt;medicare._beneficiaries.dod</title>
<path fill="none" stroke="blue" stroke-width="5" d="M598.25,-389.26C598.25,-382.41 598.25,-375.63 598.25,-369.16"/>
<polygon fill="blue" stroke="blue" stroke-width="5" points="602.63,-369.23 598.25,-359.23 593.88,-369.23 602.63,-369.23"/>
<text text-anchor="middle" x="681.5" y="-365.95" font-family="Times,serif" font-size="14.00">	 &#160;Aggregated On bene_id</text>
</g>
<!-- medicare.ps.dod -->
<g id="node5" class="node">
<title>medicare.ps.dod</title>
<g id="a_node5"><a xlink:href="../medicare.ps/dod.html" xlink:title="&lt;TABLE&gt;" target="_blank">
<polygon fill="none" stroke="black" points="1118.25,-726.5 78.25,-726.5 78.25,-576.5 1118.25,-576.5 1118.25,-726.5"/>
<text text-anchor="start" x="169.25" y="-705.2" font-family="Times,serif" font-weight="bold" font-size="14.00">medicare.ps.dod</text>
<text text-anchor="start" x="114.12" y="-659.2" font-family="Times,serif" font-size="14.00">Date of beneficiary death, if available</text>
<polygon fill="none" stroke="black" points="89.25,-607.5 89.25,-629.5 345.25,-629.5 345.25,-607.5 89.25,-607.5"/>
<text text-anchor="start" x="92.25" y="-613.2" font-family="Times,serif" font-size="14.00">character varying →</text>
<polygon fill="none" stroke="black" points="347.25,-607.5 347.25,-629.5 1107.25,-629.5 1107.25,-607.5 347.25,-607.5"/>
<text text-anchor="start" x="350.25" y="-613.2" font-family="Times,serif" font-size="14.00">(CASE WHEN {column_name} = &#39;00000000&#39; THEN NULL ELSE public.parse_date({column_name}) END)</text>
<polygon fill="none" stroke="black" points="89.25,-583.5 89.25,-605.5 345.25,-605.5 345.25,-583.5 89.25,-583.5"/>
<text text-anchor="start" x="92.25" y="-589.2" font-family="Times,serif" font-size="14.00">numeric →</text>
<polygon fill="none" stroke="black" points="347.25,-583.5 347.25,-605.5 1107.25,-605.5 1107.25,-583.5 347.25,-583.5"/>
<text text-anchor="start" x="350" y="-589.2" font-family="Times,serif" font-size="14.00">(CASE WHEN {column_name} &lt; 19000000 THEN NULL ELSE to_date(to_char({column_name}, &#39;00000000&#39;), &#39;YYYYMMDD&#39;) END)</text>
<polygon fill="none" stroke="black" points="86.25,-580.5 86.25,-722.5 1110.25,-722.5 1110.25,-580.5 86.25,-580.5"/>
</a>
</g>
</g>
<!-- medicare.ps.dod&#45;&gt;medicare._ps.dod -->
<g id="edge4" class="edge">
<title>medicare.ps.dod&#45;&gt;medicare._ps.dod</title>
<path fill="none" stroke="black" d="M598.25,-576.05C598.25,-567.84 598.25,-559.43 598.25,-551.09"/>
<polygon fill="black" stroke="black" points="601.75,-551.31 598.25,-541.31 594.75,-551.31 601.75,-551.31"/>
<text text-anchor="middle" x="617.75" y="-552.95" font-family="Times,serif" font-size="14.00">Copied</text>
</g>
<!-- medicare.ps.dod_parent -->
<g id="node6" class="node">
<title>medicare.ps.dod_parent</title>
<g id="a_node6"><a xlink:href="../medicare.ps/dod.html" xlink:title="8 incoming links (columns)" target="_blank">
<path fill="yellow" stroke="black" d="M706.25,-861.68C706.25,-867.1 657.84,-871.5 598.25,-871.5 538.66,-871.5 490.25,-867.1 490.25,-861.68 490.25,-861.68 490.25,-773.32 490.25,-773.32 490.25,-767.9 538.66,-763.5 598.25,-763.5 657.84,-763.5 706.25,-767.9 706.25,-773.32 706.25,-773.32 706.25,-861.68 706.25,-861.68"/>
<path fill="none" stroke="black" d="M706.25,-861.68C706.25,-856.26 657.84,-851.86 598.25,-851.86 538.66,-851.86 490.25,-856.26 490.25,-861.68"/>
<text text-anchor="middle" x="598.25" y="-812.45" font-family="Times,serif" font-size="14.00">8 incoming links (columns)</text>
</a>
</g>
</g>
<!-- medicare.ps.dod_parent&#45;&gt;medicare.ps.dod -->
<g id="edge5" class="edge">
<title>medicare.ps.dod_parent&#45;&gt;medicare.ps.dod</title>
<path fill="none" stroke="goldenrod" stroke-width="6" d="M598.25,-763.25C598.25,-756.82 598.25,-750.12 598.25,-743.33"/>
<polygon fill="goldenrod" stroke="goldenrod" stroke-width="6" points="603.5,-743.38 598.25,-733.38 593,-743.38 603.5,-743.38"/>
</g>
</g>
</svg>
