<?xml version="1.0" encoding="UTF-8" standalone="no"?>
<!DOCTYPE svg PUBLIC "-//W3C//DTD SVG 1.1//EN"
 "http://www.w3.org/Graphics/SVG/1.1/DTD/svg11.dtd">
<!-- Generated by graphviz version 10.0.1 (20240210.2158)
 -->
<!-- Pages: 1 -->
<svg width="508pt" height="778pt"
 viewBox="0.00 0.00 508.00 778.00" xmlns="http://www.w3.org/2000/svg" xmlns:xlink="http://www.w3.org/1999/xlink">
<g id="graph0" class="graph" transform="scale(1 1) rotate(0) translate(4 774)">
<polygon fill="white" stroke="none" points="-4,4 -4,-774 504,-774 504,4 -4,4"/>
<!-- medicare.qc_enrl_bene.dob -->
<g id="node1" class="node">
<title>medicare.qc_enrl_bene.dob</title>
<g id="a_node1"><a xlink:href="../medicare.qc_enrl_bene/dob.html" xlink:title="&lt;TABLE&gt;" target="_blank">
<polygon fill="none" stroke="black" points="343.25,-59 156.75,-59 156.75,0 343.25,0 343.25,-59"/>
<text text-anchor="start" x="169.75" y="-37.7" font-family="Times,serif" font-weight="bold" font-size="14.00">medicare.qc_enrl_bene.dob</text>
<polygon fill="none" stroke="black" points="167.75,-7 167.75,-29.5 332.25,-29.5 332.25,-7 167.75,-7"/>
<text text-anchor="start" x="170.75" y="-13.2" font-family="Times,serif" font-size="14.00">MIN(dob)</text>
<polygon fill="none" stroke="black" points="164.75,-4 164.75,-55 335.25,-55 335.25,-4 164.75,-4"/>
</a>
</g>
</g>
<!-- medicare.beneficiaries.dob -->
<g id="node2" class="node">
<title>medicare.beneficiaries.dob</title>
<g id="a_node2"><a xlink:href="../medicare.beneficiaries/dob.html" xlink:title="&lt;TABLE&gt;" target="_blank">
<polygon fill="none" stroke="black" points="341,-155 159,-155 159,-96 341,-96 341,-155"/>
<text text-anchor="start" x="172" y="-133.7" font-family="Times,serif" font-weight="bold" font-size="14.00">medicare.beneficiaries.dob</text>
<polygon fill="none" stroke="black" points="170,-103 170,-125.5 330,-125.5 330,-103 170,-103"/>
<text text-anchor="start" x="173" y="-109.2" font-family="Times,serif" font-size="14.00">MIN(dob)</text>
<polygon fill="none" stroke="black" points="167,-100 167,-151 333,-151 333,-100 167,-100"/>
</a>
</g>
</g>
<!-- medicare.beneficiaries.dob&#45;&gt;medicare.qc_enrl_bene.dob -->
<g id="edge1" class="edge">
<title>medicare.beneficiaries.dob&#45;&gt;medicare.qc_enrl_bene.dob</title>
<path fill="none" stroke="black" d="M250,-95.53C250,-87.68 250,-79.05 250,-70.7"/>
<polygon fill="black" stroke="black" points="253.5,-70.73 250,-60.73 246.5,-70.73 253.5,-70.73"/>
<text text-anchor="middle" x="296.12" y="-72.45" font-family="Times,serif" font-size="14.00">	join natural</text>
</g>
<!-- medicare._beneficiaries.dob -->
<g id="node3" class="node">
<title>medicare._beneficiaries.dob</title>
<g id="a_node3"><a xlink:href="../medicare._beneficiaries/dob.html" xlink:title="&lt;TABLE&gt;" target="_blank">
<polygon fill="none" stroke="black" points="344.38,-251 155.62,-251 155.62,-192 344.38,-192 344.38,-251"/>
<text text-anchor="start" x="168.62" y="-229.7" font-family="Times,serif" font-weight="bold" font-size="14.00">medicare._beneficiaries.dob</text>
<polygon fill="none" stroke="black" points="166.62,-199 166.62,-221.5 333.38,-221.5 333.38,-199 166.62,-199"/>
<text text-anchor="start" x="169.62" y="-205.2" font-family="Times,serif" font-size="14.00">MIN(dob)</text>
<polygon fill="none" stroke="black" points="163.62,-196 163.62,-247 336.38,-247 336.38,-196 163.62,-196"/>
</a>
</g>
</g>
<!-- medicare._beneficiaries.dob&#45;&gt;medicare.beneficiaries.dob -->
<g id="edge2" class="edge">
<title>medicare._beneficiaries.dob&#45;&gt;medicare.beneficiaries.dob</title>
<path fill="none" stroke="black" d="M250,-191.53C250,-183.68 250,-175.05 250,-166.7"/>
<polygon fill="black" stroke="black" points="253.5,-166.73 250,-156.73 246.5,-166.73 253.5,-166.73"/>
<text text-anchor="middle" x="269.5" y="-168.45" font-family="Times,serif" font-size="14.00">Copied</text>
</g>
<!-- medicare._ps.dob -->
<g id="node4" class="node">
<title>medicare._ps.dob</title>
<g id="a_node4"><a xlink:href="../medicare._ps/dob.html" xlink:title="&lt;TABLE&gt;" target="_blank">
<polygon fill="none" stroke="black" points="500,-438 0,-438 0,-288 500,-288 500,-438"/>
<text text-anchor="start" x="19.12" y="-416.7" font-family="Times,serif" font-weight="bold" font-size="14.00">medicare._ps.dob</text>
<text text-anchor="start" x="35.62" y="-370.7" font-family="Times,serif" font-size="14.00">Date of birth</text>
<polygon fill="none" stroke="black" points="11,-319 11,-341 130,-341 130,-319 11,-319"/>
<text text-anchor="start" x="14" y="-324.7" font-family="Times,serif" font-size="14.00">character varying →</text>
<polygon fill="none" stroke="black" points="132,-319 132,-341 489,-341 489,-319 132,-319"/>
<text text-anchor="start" x="135" y="-324.7" font-family="Times,serif" font-size="14.00">public.parse_date({column_name})</text>
<polygon fill="none" stroke="black" points="11,-295 11,-317 130,-317 130,-295 11,-295"/>
<text text-anchor="start" x="14" y="-300.7" font-family="Times,serif" font-size="14.00">numeric →</text>
<polygon fill="none" stroke="black" points="132,-295 132,-317 489,-317 489,-295 132,-295"/>
<text text-anchor="start" x="134.62" y="-300.7" font-family="Times,serif" font-size="14.00">to_date(to_char({column_name}, &#39;00000000&#39;), &#39;YYYYMMDD&#39;)</text>
<polygon fill="none" stroke="black" points="8,-292 8,-434 492,-434 492,-292 8,-292"/>
</a>
</g>
</g>
<!-- medicare._ps.dob&#45;&gt;medicare._beneficiaries.dob -->
<g id="edge3" class="edge">
<title>medicare._ps.dob&#45;&gt;medicare._beneficiaries.dob</title>
<path fill="none" stroke="blue" stroke-width="5" d="M250,-287.76C250,-280.91 250,-274.13 250,-267.66"/>
<polygon fill="blue" stroke="blue" stroke-width="5" points="254.38,-267.73 250,-257.73 245.63,-267.73 254.38,-267.73"/>
<text text-anchor="middle" x="333.25" y="-264.45" font-family="Times,serif" font-size="14.00">	 &#160;Aggregated On bene_id</text>
</g>
<!-- medicare.ps.dob -->
<g id="node5" class="node">
<title>medicare.ps.dob</title>
<g id="a_node5"><a xlink:href="../medicare.ps/dob.html" xlink:title="&lt;TABLE&gt;" target="_blank">
<polygon fill="none" stroke="black" points="500,-625 0,-625 0,-475 500,-475 500,-625"/>
<text text-anchor="start" x="22.5" y="-603.7" font-family="Times,serif" font-weight="bold" font-size="14.00">medicare.ps.dob</text>
<text text-anchor="start" x="35.62" y="-557.7" font-family="Times,serif" font-size="14.00">Date of birth</text>
<polygon fill="none" stroke="black" points="11,-506 11,-528 130,-528 130,-506 11,-506"/>
<text text-anchor="start" x="14" y="-511.7" font-family="Times,serif" font-size="14.00">character varying →</text>
<polygon fill="none" stroke="black" points="132,-506 132,-528 489,-528 489,-506 132,-506"/>
<text text-anchor="start" x="135" y="-511.7" font-family="Times,serif" font-size="14.00">public.parse_date({column_name})</text>
<polygon fill="none" stroke="black" points="11,-482 11,-504 130,-504 130,-482 11,-482"/>
<text text-anchor="start" x="14" y="-487.7" font-family="Times,serif" font-size="14.00">numeric →</text>
<polygon fill="none" stroke="black" points="132,-482 132,-504 489,-504 489,-482 132,-482"/>
<text text-anchor="start" x="134.62" y="-487.7" font-family="Times,serif" font-size="14.00">to_date(to_char({column_name}, &#39;00000000&#39;), &#39;YYYYMMDD&#39;)</text>
<polygon fill="none" stroke="black" points="8,-479 8,-621 492,-621 492,-479 8,-479"/>
</a>
</g>
</g>
<!-- medicare.ps.dob&#45;&gt;medicare._ps.dob -->
<g id="edge4" class="edge">
<title>medicare.ps.dob&#45;&gt;medicare._ps.dob</title>
<path fill="none" stroke="black" d="M250,-474.55C250,-466.34 250,-457.93 250,-449.59"/>
<polygon fill="black" stroke="black" points="253.5,-449.81 250,-439.81 246.5,-449.81 253.5,-449.81"/>
<text text-anchor="middle" x="269.5" y="-451.45" font-family="Times,serif" font-size="14.00">Copied</text>
</g>
<!-- medicare.ps.dob_parent -->
<g id="node6" class="node">
<title>medicare.ps.dob_parent</title>
<g id="a_node6"><a xlink:href="../medicare.ps/dob.html" xlink:title="8 incoming links (columns)" target="_blank">
<path fill="yellow" stroke="black" d="M358,-760.18C358,-765.6 309.59,-770 250,-770 190.41,-770 142,-765.6 142,-760.18 142,-760.18 142,-671.82 142,-671.82 142,-666.4 190.41,-662 250,-662 309.59,-662 358,-666.4 358,-671.82 358,-671.82 358,-760.18 358,-760.18"/>
<path fill="none" stroke="black" d="M358,-760.18C358,-754.76 309.59,-750.36 250,-750.36 190.41,-750.36 142,-754.76 142,-760.18"/>
<text text-anchor="middle" x="250" y="-710.95" font-family="Times,serif" font-size="14.00">8 incoming links (columns)</text>
</a>
</g>
</g>
<!-- medicare.ps.dob_parent&#45;&gt;medicare.ps.dob -->
<g id="edge5" class="edge">
<title>medicare.ps.dob_parent&#45;&gt;medicare.ps.dob</title>
<path fill="none" stroke="goldenrod" stroke-width="6" d="M250,-661.75C250,-655.32 250,-648.62 250,-641.83"/>
<polygon fill="goldenrod" stroke="goldenrod" stroke-width="6" points="255.25,-641.88 250,-631.88 244.75,-641.88 255.25,-641.88"/>
</g>
</g>
</svg>
