<?xml version="1.0" encoding="UTF-8" standalone="no"?>
<!DOCTYPE svg PUBLIC "-//W3C//DTD SVG 1.1//EN"
 "http://www.w3.org/Graphics/SVG/1.1/DTD/svg11.dtd">
<!-- Generated by graphviz version 10.0.1 (20240210.2158)
 -->
<!-- Pages: 1 -->
<svg width="508pt" height="490pt"
 viewBox="0.00 0.00 508.00 490.00" xmlns="http://www.w3.org/2000/svg" xmlns:xlink="http://www.w3.org/1999/xlink">
<g id="graph0" class="graph" transform="scale(1 1) rotate(0) translate(4 486)">
<polygon fill="white" stroke="none" points="-4,4 -4,-486 504,-486 504,4 -4,4"/>
<!-- medicare._ps.dob -->
<g id="node1" class="node">
<title>medicare._ps.dob</title>
<g id="a_node1"><a xlink:href="../medicare._ps/dob.html" xlink:title="&lt;TABLE&gt;" target="_blank">
<polygon fill="none" stroke="black" points="500,-150 0,-150 0,0 500,0 500,-150"/>
<text text-anchor="start" x="19.12" y="-128.7" font-family="Times,serif" font-weight="bold" font-size="14.00">medicare._ps.dob</text>
<text text-anchor="start" x="35.62" y="-82.7" font-family="Times,serif" font-size="14.00">Date of birth</text>
<polygon fill="none" stroke="black" points="11,-31 11,-53 130,-53 130,-31 11,-31"/>
<text text-anchor="start" x="14" y="-36.7" font-family="Times,serif" font-size="14.00">character varying →</text>
<polygon fill="none" stroke="black" points="132,-31 132,-53 489,-53 489,-31 132,-31"/>
<text text-anchor="start" x="135" y="-36.7" font-family="Times,serif" font-size="14.00">public.parse_date({column_name})</text>
<polygon fill="none" stroke="black" points="11,-7 11,-29 130,-29 130,-7 11,-7"/>
<text text-anchor="start" x="14" y="-12.7" font-family="Times,serif" font-size="14.00">numeric →</text>
<polygon fill="none" stroke="black" points="132,-7 132,-29 489,-29 489,-7 132,-7"/>
<text text-anchor="start" x="134.62" y="-12.7" font-family="Times,serif" font-size="14.00">to_date(to_char({column_name}, &#39;00000000&#39;), &#39;YYYYMMDD&#39;)</text>
<polygon fill="none" stroke="black" points="8,-4 8,-146 492,-146 492,-4 8,-4"/>
</a>
</g>
</g>
<!-- medicare.ps.dob -->
<g id="node2" class="node">
<title>medicare.ps.dob</title>
<g id="a_node2"><a xlink:href="../medicare.ps/dob.html" xlink:title="&lt;TABLE&gt;" target="_blank">
<polygon fill="none" stroke="black" points="500,-337 0,-337 0,-187 500,-187 500,-337"/>
<text text-anchor="start" x="22.5" y="-315.7" font-family="Times,serif" font-weight="bold" font-size="14.00">medicare.ps.dob</text>
<text text-anchor="start" x="35.62" y="-269.7" font-family="Times,serif" font-size="14.00">Date of birth</text>
<polygon fill="none" stroke="black" points="11,-218 11,-240 130,-240 130,-218 11,-218"/>
<text text-anchor="start" x="14" y="-223.7" font-family="Times,serif" font-size="14.00">character varying →</text>
<polygon fill="none" stroke="black" points="132,-218 132,-240 489,-240 489,-218 132,-218"/>
<text text-anchor="start" x="135" y="-223.7" font-family="Times,serif" font-size="14.00">public.parse_date({column_name})</text>
<polygon fill="none" stroke="black" points="11,-194 11,-216 130,-216 130,-194 11,-194"/>
<text text-anchor="start" x="14" y="-199.7" font-family="Times,serif" font-size="14.00">numeric →</text>
<polygon fill="none" stroke="black" points="132,-194 132,-216 489,-216 489,-194 132,-194"/>
<text text-anchor="start" x="134.62" y="-199.7" font-family="Times,serif" font-size="14.00">to_date(to_char({column_name}, &#39;00000000&#39;), &#39;YYYYMMDD&#39;)</text>
<polygon fill="none" stroke="black" points="8,-191 8,-333 492,-333 492,-191 8,-191"/>
</a>
</g>
</g>
<!-- medicare.ps.dob&#45;&gt;medicare._ps.dob -->
<g id="edge1" class="edge">
<title>medicare.ps.dob&#45;&gt;medicare._ps.dob</title>
<path fill="none" stroke="black" d="M250,-186.55C250,-178.34 250,-169.93 250,-161.59"/>
<polygon fill="black" stroke="black" points="253.5,-161.81 250,-151.81 246.5,-161.81 253.5,-161.81"/>
<text text-anchor="middle" x="269.5" y="-163.45" font-family="Times,serif" font-size="14.00">Copied</text>
</g>
<!-- medicare.ps.dob_parent -->
<g id="node3" class="node">
<title>medicare.ps.dob_parent</title>
<g id="a_node3"><a xlink:href="../medicare.ps/dob.html" xlink:title="8 incoming links (columns)" target="_blank">
<path fill="yellow" stroke="black" d="M358,-472.18C358,-477.6 309.59,-482 250,-482 190.41,-482 142,-477.6 142,-472.18 142,-472.18 142,-383.82 142,-383.82 142,-378.4 190.41,-374 250,-374 309.59,-374 358,-378.4 358,-383.82 358,-383.82 358,-472.18 358,-472.18"/>
<path fill="none" stroke="black" d="M358,-472.18C358,-466.76 309.59,-462.36 250,-462.36 190.41,-462.36 142,-466.76 142,-472.18"/>
<text text-anchor="middle" x="250" y="-422.95" font-family="Times,serif" font-size="14.00">8 incoming links (columns)</text>
</a>
</g>
</g>
<!-- medicare.ps.dob_parent&#45;&gt;medicare.ps.dob -->
<g id="edge2" class="edge">
<title>medicare.ps.dob_parent&#45;&gt;medicare.ps.dob</title>
<path fill="none" stroke="goldenrod" stroke-width="6" d="M250,-373.75C250,-367.32 250,-360.62 250,-353.83"/>
<polygon fill="goldenrod" stroke="goldenrod" stroke-width="6" points="255.25,-353.88 250,-343.88 244.75,-353.88 255.25,-353.88"/>
</g>
</g>
</svg>
