<?xml version="1.0" encoding="UTF-8" standalone="no"?>
<!DOCTYPE svg PUBLIC "-//W3C//DTD SVG 1.1//EN"
 "http://www.w3.org/Graphics/SVG/1.1/DTD/svg11.dtd">
<!-- Generated by graphviz version 10.0.1 (20240210.2158)
 -->
<!-- Pages: 1 -->
<svg width="1048pt" height="490pt"
 viewBox="0.00 0.00 1048.00 490.00" xmlns="http://www.w3.org/2000/svg" xmlns:xlink="http://www.w3.org/1999/xlink">
<g id="graph0" class="graph" transform="scale(1 1) rotate(0) translate(4 486)">
<polygon fill="white" stroke="none" points="-4,4 -4,-486 1044,-486 1044,4 -4,4"/>
<!-- medicare._ps.dod -->
<g id="node1" class="node">
<title>medicare._ps.dod</title>
<g id="a_node1"><a xlink:href="../medicare._ps/dod.html" xlink:title="&lt;TABLE&gt;" target="_blank">
<polygon fill="none" stroke="black" points="1040,-150 0,-150 0,0 1040,0 1040,-150"/>
<text text-anchor="start" x="87.62" y="-128.7" font-family="Times,serif" font-weight="bold" font-size="14.00">medicare._ps.dod</text>
<text text-anchor="start" x="35.88" y="-82.7" font-family="Times,serif" font-size="14.00">Date of beneficiary death, if available</text>
<polygon fill="none" stroke="black" points="11,-31 11,-53 267,-53 267,-31 11,-31"/>
<text text-anchor="start" x="14" y="-36.7" font-family="Times,serif" font-size="14.00">character varying →</text>
<polygon fill="none" stroke="black" points="269,-31 269,-53 1029,-53 1029,-31 269,-31"/>
<text text-anchor="start" x="272" y="-36.7" font-family="Times,serif" font-size="14.00">(CASE WHEN {column_name} = &#39;00000000&#39; THEN NULL ELSE public.parse_date({column_name}) END)</text>
<polygon fill="none" stroke="black" points="11,-7 11,-29 267,-29 267,-7 11,-7"/>
<text text-anchor="start" x="14" y="-12.7" font-family="Times,serif" font-size="14.00">numeric →</text>
<polygon fill="none" stroke="black" points="269,-7 269,-29 1029,-29 1029,-7 269,-7"/>
<text text-anchor="start" x="271.75" y="-12.7" font-family="Times,serif" font-size="14.00">(CASE WHEN {column_name} &lt; 19000000 THEN NULL ELSE to_date(to_char({column_name}, &#39;00000000&#39;), &#39;YYYYMMDD&#39;) END)</text>
<polygon fill="none" stroke="black" points="8,-4 8,-146 1032,-146 1032,-4 8,-4"/>
</a>
</g>
</g>
<!-- medicare.ps.dod -->
<g id="node2" class="node">
<title>medicare.ps.dod</title>
<g id="a_node2"><a xlink:href="../medicare.ps/dod.html" xlink:title="&lt;TABLE&gt;" target="_blank">
<polygon fill="none" stroke="black" points="1040,-337 0,-337 0,-187 1040,-187 1040,-337"/>
<text text-anchor="start" x="91" y="-315.7" font-family="Times,serif" font-weight="bold" font-size="14.00">medicare.ps.dod</text>
<text text-anchor="start" x="35.88" y="-269.7" font-family="Times,serif" font-size="14.00">Date of beneficiary death, if available</text>
<polygon fill="none" stroke="black" points="11,-218 11,-240 267,-240 267,-218 11,-218"/>
<text text-anchor="start" x="14" y="-223.7" font-family="Times,serif" font-size="14.00">character varying →</text>
<polygon fill="none" stroke="black" points="269,-218 269,-240 1029,-240 1029,-218 269,-218"/>
<text text-anchor="start" x="272" y="-223.7" font-family="Times,serif" font-size="14.00">(CASE WHEN {column_name} = &#39;00000000&#39; THEN NULL ELSE public.parse_date({column_name}) END)</text>
<polygon fill="none" stroke="black" points="11,-194 11,-216 267,-216 267,-194 11,-194"/>
<text text-anchor="start" x="14" y="-199.7" font-family="Times,serif" font-size="14.00">numeric →</text>
<polygon fill="none" stroke="black" points="269,-194 269,-216 1029,-216 1029,-194 269,-194"/>
<text text-anchor="start" x="271.75" y="-199.7" font-family="Times,serif" font-size="14.00">(CASE WHEN {column_name} &lt; 19000000 THEN NULL ELSE to_date(to_char({column_name}, &#39;00000000&#39;), &#39;YYYYMMDD&#39;) END)</text>
<polygon fill="none" stroke="black" points="8,-191 8,-333 1032,-333 1032,-191 8,-191"/>
</a>
</g>
</g>
<!-- medicare.ps.dod&#45;&gt;medicare._ps.dod -->
<g id="edge1" class="edge">
<title>medicare.ps.dod&#45;&gt;medicare._ps.dod</title>
<path fill="none" stroke="black" d="M520,-186.55C520,-178.34 520,-169.93 520,-161.59"/>
<polygon fill="black" stroke="black" points="523.5,-161.81 520,-151.81 516.5,-161.81 523.5,-161.81"/>
<text text-anchor="middle" x="539.5" y="-163.45" font-family="Times,serif" font-size="14.00">Copied</text>
</g>
<!-- medicare.ps.dod_parent -->
<g id="node3" class="node">
<title>medicare.ps.dod_parent</title>
<g id="a_node3"><a xlink:href="../medicare.ps/dod.html" xlink:title="8 incoming links (columns)" target="_blank">
<path fill="yellow" stroke="black" d="M628,-472.18C628,-477.6 579.59,-482 520,-482 460.41,-482 412,-477.6 412,-472.18 412,-472.18 412,-383.82 412,-383.82 412,-378.4 460.41,-374 520,-374 579.59,-374 628,-378.4 628,-383.82 628,-383.82 628,-472.18 628,-472.18"/>
<path fill="none" stroke="black" d="M628,-472.18C628,-466.76 579.59,-462.36 520,-462.36 460.41,-462.36 412,-466.76 412,-472.18"/>
<text text-anchor="middle" x="520" y="-422.95" font-family="Times,serif" font-size="14.00">8 incoming links (columns)</text>
</a>
</g>
</g>
<!-- medicare.ps.dod_parent&#45;&gt;medicare.ps.dod -->
<g id="edge2" class="edge">
<title>medicare.ps.dod_parent&#45;&gt;medicare.ps.dod</title>
<path fill="none" stroke="goldenrod" stroke-width="6" d="M520,-373.75C520,-367.32 520,-360.62 520,-353.83"/>
<polygon fill="goldenrod" stroke="goldenrod" stroke-width="6" points="525.25,-353.88 520,-343.88 514.75,-353.88 525.25,-353.88"/>
</g>
</g>
</svg>
