<?xml version="1.0" encoding="UTF-8" standalone="no"?>
<!DOCTYPE svg PUBLIC "-//W3C//DTD SVG 1.1//EN"
 "http://www.w3.org/Graphics/SVG/1.1/DTD/svg11.dtd">
<!-- Generated by graphviz version 10.0.1 (20240210.2158)
 -->
<!-- Pages: 1 -->
<svg width="1048pt" height="682pt"
 viewBox="0.00 0.00 1048.00 682.00" xmlns="http://www.w3.org/2000/svg" xmlns:xlink="http://www.w3.org/1999/xlink">
<g id="graph0" class="graph" transform="scale(1 1) rotate(0) translate(4 678)">
<polygon fill="white" stroke="none" points="-4,4 -4,-678 1044,-678 1044,4 -4,4"/>
<!-- medicare.beneficiaries.dod -->
<g id="node1" class="node">
<title>medicare.beneficiaries.dod</title>
<g id="a_node1"><a xlink:href="../medicare.beneficiaries/dod.html" xlink:title="&lt;TABLE&gt;" target="_blank">
<polygon fill="none" stroke="black" points="611,-59 429,-59 429,0 611,0 611,-59"/>
<text text-anchor="start" x="442" y="-37.7" font-family="Times,serif" font-weight="bold" font-size="14.00">medicare.beneficiaries.dod</text>
<polygon fill="none" stroke="black" points="440,-7 440,-29.5 600,-29.5 600,-7 440,-7"/>
<text text-anchor="start" x="443" y="-13.2" font-family="Times,serif" font-size="14.00">MAX(dod)</text>
<polygon fill="none" stroke="black" points="437,-4 437,-55 603,-55 603,-4 437,-4"/>
</a>
</g>
</g>
<!-- medicare._beneficiaries.dod -->
<g id="node2" class="node">
<title>medicare._beneficiaries.dod</title>
<g id="a_node2"><a xlink:href="../medicare._beneficiaries/dod.html" xlink:title="&lt;TABLE&gt;" target="_blank">
<polygon fill="none" stroke="black" points="614.38,-155 425.62,-155 425.62,-96 614.38,-96 614.38,-155"/>
<text text-anchor="start" x="438.62" y="-133.7" font-family="Times,serif" font-weight="bold" font-size="14.00">medicare._beneficiaries.dod</text>
<polygon fill="none" stroke="black" points="436.62,-103 436.62,-125.5 603.38,-125.5 603.38,-103 436.62,-103"/>
<text text-anchor="start" x="439.62" y="-109.2" font-family="Times,serif" font-size="14.00">MAX(dod)</text>
<polygon fill="none" stroke="black" points="433.62,-100 433.62,-151 606.38,-151 606.38,-100 433.62,-100"/>
</a>
</g>
</g>
<!-- medicare._beneficiaries.dod&#45;&gt;medicare.beneficiaries.dod -->
<g id="edge1" class="edge">
<title>medicare._beneficiaries.dod&#45;&gt;medicare.beneficiaries.dod</title>
<path fill="none" stroke="black" d="M520,-95.53C520,-87.68 520,-79.05 520,-70.7"/>
<polygon fill="black" stroke="black" points="523.5,-70.73 520,-60.73 516.5,-70.73 523.5,-70.73"/>
<text text-anchor="middle" x="539.5" y="-72.45" font-family="Times,serif" font-size="14.00">Copied</text>
</g>
<!-- medicare._ps.dod -->
<g id="node3" class="node">
<title>medicare._ps.dod</title>
<g id="a_node3"><a xlink:href="../medicare._ps/dod.html" xlink:title="&lt;TABLE&gt;" target="_blank">
<polygon fill="none" stroke="black" points="1040,-342 0,-342 0,-192 1040,-192 1040,-342"/>
<text text-anchor="start" x="87.62" y="-320.7" font-family="Times,serif" font-weight="bold" font-size="14.00">medicare._ps.dod</text>
<text text-anchor="start" x="35.88" y="-274.7" font-family="Times,serif" font-size="14.00">Date of beneficiary death, if available</text>
<polygon fill="none" stroke="black" points="11,-223 11,-245 267,-245 267,-223 11,-223"/>
<text text-anchor="start" x="14" y="-228.7" font-family="Times,serif" font-size="14.00">character varying →</text>
<polygon fill="none" stroke="black" points="269,-223 269,-245 1029,-245 1029,-223 269,-223"/>
<text text-anchor="start" x="272" y="-228.7" font-family="Times,serif" font-size="14.00">(CASE WHEN {column_name} = &#39;00000000&#39; THEN NULL ELSE public.parse_date({column_name}) END)</text>
<polygon fill="none" stroke="black" points="11,-199 11,-221 267,-221 267,-199 11,-199"/>
<text text-anchor="start" x="14" y="-204.7" font-family="Times,serif" font-size="14.00">numeric →</text>
<polygon fill="none" stroke="black" points="269,-199 269,-221 1029,-221 1029,-199 269,-199"/>
<text text-anchor="start" x="271.75" y="-204.7" font-family="Times,serif" font-size="14.00">(CASE WHEN {column_name} &lt; 19000000 THEN NULL ELSE to_date(to_char({column_name}, &#39;00000000&#39;), &#39;YYYYMMDD&#39;) END)</text>
<polygon fill="none" stroke="black" points="8,-196 8,-338 1032,-338 1032,-196 8,-196"/>
</a>
</g>
</g>
<!-- medicare._ps.dod&#45;&gt;medicare._beneficiaries.dod -->
<g id="edge2" class="edge">
<title>medicare._ps.dod&#45;&gt;medicare._beneficiaries.dod</title>
<path fill="none" stroke="blue" stroke-width="5" d="M520,-191.76C520,-184.91 520,-178.13 520,-171.66"/>
<polygon fill="blue" stroke="blue" stroke-width="5" points="524.38,-171.73 520,-161.73 515.63,-171.73 524.38,-171.73"/>
<text text-anchor="middle" x="603.25" y="-168.45" font-family="Times,serif" font-size="14.00">	 &#160;Aggregated On bene_id</text>
</g>
<!-- medicare.ps.dod -->
<g id="node4" class="node">
<title>medicare.ps.dod</title>
<g id="a_node4"><a xlink:href="../medicare.ps/dod.html" xlink:title="&lt;TABLE&gt;" target="_blank">
<polygon fill="none" stroke="black" points="1040,-529 0,-529 0,-379 1040,-379 1040,-529"/>
<text text-anchor="start" x="91" y="-507.7" font-family="Times,serif" font-weight="bold" font-size="14.00">medicare.ps.dod</text>
<text text-anchor="start" x="35.88" y="-461.7" font-family="Times,serif" font-size="14.00">Date of beneficiary death, if available</text>
<polygon fill="none" stroke="black" points="11,-410 11,-432 267,-432 267,-410 11,-410"/>
<text text-anchor="start" x="14" y="-415.7" font-family="Times,serif" font-size="14.00">character varying →</text>
<polygon fill="none" stroke="black" points="269,-410 269,-432 1029,-432 1029,-410 269,-410"/>
<text text-anchor="start" x="272" y="-415.7" font-family="Times,serif" font-size="14.00">(CASE WHEN {column_name} = &#39;00000000&#39; THEN NULL ELSE public.parse_date({column_name}) END)</text>
<polygon fill="none" stroke="black" points="11,-386 11,-408 267,-408 267,-386 11,-386"/>
<text text-anchor="start" x="14" y="-391.7" font-family="Times,serif" font-size="14.00">numeric →</text>
<polygon fill="none" stroke="black" points="269,-386 269,-408 1029,-408 1029,-386 269,-386"/>
<text text-anchor="start" x="271.75" y="-391.7" font-family="Times,serif" font-size="14.00">(CASE WHEN {column_name} &lt; 19000000 THEN NULL ELSE to_date(to_char({column_name}, &#39;00000000&#39;), &#39;YYYYMMDD&#39;) END)</text>
<polygon fill="none" stroke="black" points="8,-383 8,-525 1032,-525 1032,-383 8,-383"/>
</a>
</g>
</g>
<!-- medicare.ps.dod&#45;&gt;medicare._ps.dod -->
<g id="edge3" class="edge">
<title>medicare.ps.dod&#45;&gt;medicare._ps.dod</title>
<path fill="none" stroke="black" d="M520,-378.55C520,-370.34 520,-361.93 520,-353.59"/>
<polygon fill="black" stroke="black" points="523.5,-353.81 520,-343.81 516.5,-353.81 523.5,-353.81"/>
<text text-anchor="middle" x="539.5" y="-355.45" font-family="Times,serif" font-size="14.00">Copied</text>
</g>
<!-- medicare.ps.dod_parent -->
<g id="node5" class="node">
<title>medicare.ps.dod_parent</title>
<g id="a_node5"><a xlink:href="../medicare.ps/dod.html" xlink:title="8 incoming links (columns)" target="_blank">
<path fill="yellow" stroke="black" d="M628,-664.18C628,-669.6 579.59,-674 520,-674 460.41,-674 412,-669.6 412,-664.18 412,-664.18 412,-575.82 412,-575.82 412,-570.4 460.41,-566 520,-566 579.59,-566 628,-570.4 628,-575.82 628,-575.82 628,-664.18 628,-664.18"/>
<path fill="none" stroke="black" d="M628,-664.18C628,-658.76 579.59,-654.36 520,-654.36 460.41,-654.36 412,-658.76 412,-664.18"/>
<text text-anchor="middle" x="520" y="-614.95" font-family="Times,serif" font-size="14.00">8 incoming links (columns)</text>
</a>
</g>
</g>
<!-- medicare.ps.dod_parent&#45;&gt;medicare.ps.dod -->
<g id="edge4" class="edge">
<title>medicare.ps.dod_parent&#45;&gt;medicare.ps.dod</title>
<path fill="none" stroke="goldenrod" stroke-width="6" d="M520,-565.75C520,-559.32 520,-552.62 520,-545.83"/>
<polygon fill="goldenrod" stroke="goldenrod" stroke-width="6" points="525.25,-545.88 520,-535.88 514.75,-545.88 525.25,-545.88"/>
</g>
</g>
</svg>
