<?xml version="1.0" encoding="UTF-8" standalone="no"?>
<!DOCTYPE svg PUBLIC "-//W3C//DTD SVG 1.1//EN"
 "http://www.w3.org/Graphics/SVG/1.1/DTD/svg11.dtd">
<!-- Generated by graphviz version 14.1.4 (20260321.0153)
 -->
<!-- Pages: 1 -->
<svg width="1047pt" height="686pt"
 viewBox="0.00 0.00 1047.00 686.00" xmlns="http://www.w3.org/2000/svg" xmlns:xlink="http://www.w3.org/1999/xlink">
<g id="graph0" class="graph" transform="scale(1 1) rotate(0) translate(4 682)">
<polygon fill="white" stroke="none" points="-4,4 -4,-682 1043.25,-682 1043.25,4 -4,4"/>
<!-- medicare.beneficiaries.dod -->
<g id="node1" class="node">
<title>medicare.beneficiaries.dod</title>
<g id="a_node1"><a xlink:href="../medicare.beneficiaries/dod.html" xlink:title="&lt;TABLE&gt;" target="_blank">
<polygon fill="none" stroke="black" points="610.62,-59 428.62,-59 428.62,0 610.62,0 610.62,-59"/>
<text xml:space="preserve" text-anchor="start" x="441.62" y="-37.7" font-family="Times,serif" font-weight="bold" font-size="14.00">medicare.beneficiaries.dod</text>
<polygon fill="none" stroke="black" points="439.62,-7 439.62,-29.5 599.62,-29.5 599.62,-7 439.62,-7"/>
<text xml:space="preserve" text-anchor="start" x="442.62" y="-13.75" font-family="Times,serif" font-size="14.00">MAX(dod)</text>
<polygon fill="none" stroke="black" points="436.62,-4 436.62,-55 602.62,-55 602.62,-4 436.62,-4"/>
</a>
</g>
</g>
<!-- medicare._beneficiaries.dod -->
<g id="node2" class="node">
<title>medicare._beneficiaries.dod</title>
<g id="a_node2"><a xlink:href="../medicare._beneficiaries/dod.html" xlink:title="&lt;TABLE&gt;" target="_blank">
<polygon fill="none" stroke="black" points="614,-155 425.25,-155 425.25,-96 614,-96 614,-155"/>
<text xml:space="preserve" text-anchor="start" x="438.25" y="-133.7" font-family="Times,serif" font-weight="bold" font-size="14.00">medicare._beneficiaries.dod</text>
<polygon fill="none" stroke="black" points="436.25,-103 436.25,-125.5 603,-125.5 603,-103 436.25,-103"/>
<text xml:space="preserve" text-anchor="start" x="439.25" y="-109.75" font-family="Times,serif" font-size="14.00">MAX(dod)</text>
<polygon fill="none" stroke="black" points="433.25,-100 433.25,-151 606,-151 606,-100 433.25,-100"/>
</a>
</g>
</g>
<!-- medicare._beneficiaries.dod&#45;&gt;medicare.beneficiaries.dod -->
<g id="edge1" class="edge">
<title>medicare._beneficiaries.dod&#45;&gt;medicare.beneficiaries.dod</title>
<path fill="none" stroke="black" d="M519.62,-95.53C519.62,-87.68 519.62,-79.05 519.62,-70.7"/>
<polygon fill="black" stroke="black" points="523.13,-70.73 519.63,-60.73 516.13,-70.73 523.13,-70.73"/>
<text xml:space="preserve" text-anchor="middle" x="539.12" y="-72.45" font-family="Times,serif" font-size="14.00">Copied</text>
</g>
<!-- medicare._ps.dod -->
<g id="node3" class="node">
<title>medicare._ps.dod</title>
<g id="a_node3"><a xlink:href="../medicare._ps/dod.html" xlink:title="&lt;TABLE&gt;" target="_blank">
<polygon fill="none" stroke="black" points="1039.25,-344 0,-344 0,-192 1039.25,-192 1039.25,-344"/>
<text xml:space="preserve" text-anchor="start" x="87.75" y="-322.7" font-family="Times,serif" font-weight="bold" font-size="14.00">medicare._ps.dod</text>
<text xml:space="preserve" text-anchor="start" x="36" y="-276.75" font-family="Times,serif" font-size="14.00">Date of beneficiary death, if available</text>
<polygon fill="none" stroke="black" points="11,-223.5 11,-246 267.25,-246 267.25,-223.5 11,-223.5"/>
<text xml:space="preserve" text-anchor="start" x="14" y="-230.25" font-family="Times,serif" font-size="14.00">character varying →</text>
<polygon fill="none" stroke="black" points="269.25,-223.5 269.25,-246 1028.25,-246 1028.25,-223.5 269.25,-223.5"/>
<text xml:space="preserve" text-anchor="start" x="272.25" y="-230.25" font-family="Times,serif" font-size="14.00">(CASE WHEN {column_name} = &#39;00000000&#39; THEN NULL ELSE public.parse_date({column_name}) END)</text>
<polygon fill="none" stroke="black" points="11,-199 11,-221.5 267.25,-221.5 267.25,-199 11,-199"/>
<text xml:space="preserve" text-anchor="start" x="14" y="-205.75" font-family="Times,serif" font-size="14.00">numeric →</text>
<polygon fill="none" stroke="black" points="269.25,-199 269.25,-221.5 1028.25,-221.5 1028.25,-199 269.25,-199"/>
<text xml:space="preserve" text-anchor="start" x="272.25" y="-205.75" font-family="Times,serif" font-size="14.00">(CASE WHEN {column_name} &lt; 19000000 THEN NULL ELSE to_date(to_char({column_name}, &#39;00000000&#39;), &#39;YYYYMMDD&#39;) END)</text>
<polygon fill="none" stroke="black" points="8,-196 8,-340 1031.25,-340 1031.25,-196 8,-196"/>
</a>
</g>
</g>
<!-- medicare._ps.dod&#45;&gt;medicare._beneficiaries.dod -->
<g id="edge2" class="edge">
<title>medicare._ps.dod&#45;&gt;medicare._beneficiaries.dod</title>
<path fill="none" stroke="blue" stroke-width="5" d="M519.62,-191.81C519.62,-184.95 519.62,-178.15 519.62,-171.68"/>
<polygon fill="blue" stroke="blue" stroke-width="5" points="524,-171.73 519.63,-161.73 515.25,-171.73 524,-171.73"/>
<text xml:space="preserve" text-anchor="middle" x="602.88" y="-168.45" font-family="Times,serif" font-size="14.00">	 &#160;Aggregated On bene_id</text>
</g>
<!-- medicare.ps.dod -->
<g id="node4" class="node">
<title>medicare.ps.dod</title>
<g id="a_node4"><a xlink:href="../medicare.ps/dod.html" xlink:title="&lt;TABLE&gt;" target="_blank">
<polygon fill="none" stroke="black" points="1039.25,-533 0,-533 0,-381 1039.25,-381 1039.25,-533"/>
<text xml:space="preserve" text-anchor="start" x="91.12" y="-511.7" font-family="Times,serif" font-weight="bold" font-size="14.00">medicare.ps.dod</text>
<text xml:space="preserve" text-anchor="start" x="36" y="-465.75" font-family="Times,serif" font-size="14.00">Date of beneficiary death, if available</text>
<polygon fill="none" stroke="black" points="11,-412.5 11,-435 267.25,-435 267.25,-412.5 11,-412.5"/>
<text xml:space="preserve" text-anchor="start" x="14" y="-419.25" font-family="Times,serif" font-size="14.00">character varying →</text>
<polygon fill="none" stroke="black" points="269.25,-412.5 269.25,-435 1028.25,-435 1028.25,-412.5 269.25,-412.5"/>
<text xml:space="preserve" text-anchor="start" x="272.25" y="-419.25" font-family="Times,serif" font-size="14.00">(CASE WHEN {column_name} = &#39;00000000&#39; THEN NULL ELSE public.parse_date({column_name}) END)</text>
<polygon fill="none" stroke="black" points="11,-388 11,-410.5 267.25,-410.5 267.25,-388 11,-388"/>
<text xml:space="preserve" text-anchor="start" x="14" y="-394.75" font-family="Times,serif" font-size="14.00">numeric →</text>
<polygon fill="none" stroke="black" points="269.25,-388 269.25,-410.5 1028.25,-410.5 1028.25,-388 269.25,-388"/>
<text xml:space="preserve" text-anchor="start" x="272.25" y="-394.75" font-family="Times,serif" font-size="14.00">(CASE WHEN {column_name} &lt; 19000000 THEN NULL ELSE to_date(to_char({column_name}, &#39;00000000&#39;), &#39;YYYYMMDD&#39;) END)</text>
<polygon fill="none" stroke="black" points="8,-385 8,-529 1031.25,-529 1031.25,-385 8,-385"/>
</a>
</g>
</g>
<!-- medicare.ps.dod&#45;&gt;medicare._ps.dod -->
<g id="edge3" class="edge">
<title>medicare.ps.dod&#45;&gt;medicare._ps.dod</title>
<path fill="none" stroke="black" d="M519.62,-380.75C519.62,-372.51 519.62,-364.09 519.62,-355.73"/>
<polygon fill="black" stroke="black" points="523.13,-355.92 519.63,-345.92 516.13,-355.92 523.13,-355.92"/>
<text xml:space="preserve" text-anchor="middle" x="539.12" y="-357.45" font-family="Times,serif" font-size="14.00">Copied</text>
</g>
<!-- medicare.ps.dod_parent -->
<g id="node5" class="node">
<title>medicare.ps.dod_parent</title>
<g id="a_node5"><a xlink:href="../medicare.ps/dod.html" xlink:title="8 incoming links (columns)" target="_blank">
<path fill="yellow" stroke="black" d="M627.62,-668.18C627.62,-673.6 579.22,-678 519.62,-678 460.03,-678 411.62,-673.6 411.62,-668.18 411.62,-668.18 411.62,-579.82 411.62,-579.82 411.62,-574.4 460.03,-570 519.62,-570 579.22,-570 627.62,-574.4 627.62,-579.82 627.62,-579.82 627.62,-668.18 627.62,-668.18"/>
<path fill="none" stroke="black" d="M627.62,-668.18C627.62,-662.76 579.22,-658.36 519.62,-658.36 460.03,-658.36 411.62,-662.76 411.62,-668.18"/>
<text xml:space="preserve" text-anchor="middle" x="519.62" y="-618.95" font-family="Times,serif" font-size="14.00">8 incoming links (columns)</text>
</a>
</g>
</g>
<!-- medicare.ps.dod_parent&#45;&gt;medicare.ps.dod -->
<g id="edge4" class="edge">
<title>medicare.ps.dod_parent&#45;&gt;medicare.ps.dod</title>
<path fill="none" stroke="goldenrod" stroke-width="6" d="M519.62,-569.88C519.62,-563.31 519.62,-556.46 519.62,-549.51"/>
<polygon fill="goldenrod" stroke="goldenrod" stroke-width="6" points="524.88,-549.7 519.63,-539.7 514.38,-549.7 524.88,-549.7"/>
</g>
</g>
</svg>
