<?xml version="1.0" encoding="UTF-8" standalone="no"?>
<!DOCTYPE svg PUBLIC "-//W3C//DTD SVG 1.1//EN"
 "http://www.w3.org/Graphics/SVG/1.1/DTD/svg11.dtd">
<!-- Generated by graphviz version 10.0.1 (20240210.2158)
 -->
<!-- Pages: 1 -->
<svg width="1512pt" height="438pt"
 viewBox="0.00 0.00 1511.88 438.00" xmlns="http://www.w3.org/2000/svg" xmlns:xlink="http://www.w3.org/1999/xlink">
<g id="graph0" class="graph" transform="scale(1 1) rotate(0) translate(4 434)">
<polygon fill="white" stroke="none" points="-4,4 -4,-434 1507.88,-434 1507.88,4 -4,4"/>
<!-- medicare.ps.dod -->
<g id="node1" class="node">
<title>medicare.ps.dod</title>
<g id="a_node1"><a xlink:href="../medicare.ps/dod.html" xlink:title="&lt;TABLE&gt;" target="_blank">
<polygon fill="none" stroke="black" points="1129.75,-150 89.75,-150 89.75,0 1129.75,0 1129.75,-150"/>
<text text-anchor="start" x="180.75" y="-128.7" font-family="Times,serif" font-weight="bold" font-size="14.00">medicare.ps.dod</text>
<text text-anchor="start" x="125.62" y="-82.7" font-family="Times,serif" font-size="14.00">Date of beneficiary death, if available</text>
<polygon fill="none" stroke="black" points="100.75,-31 100.75,-53 356.75,-53 356.75,-31 100.75,-31"/>
<text text-anchor="start" x="103.75" y="-36.7" font-family="Times,serif" font-size="14.00">character varying →</text>
<polygon fill="none" stroke="black" points="358.75,-31 358.75,-53 1118.75,-53 1118.75,-31 358.75,-31"/>
<text text-anchor="start" x="361.75" y="-36.7" font-family="Times,serif" font-size="14.00">(CASE WHEN {column_name} = &#39;00000000&#39; THEN NULL ELSE public.parse_date({column_name}) END)</text>
<polygon fill="none" stroke="black" points="100.75,-7 100.75,-29 356.75,-29 356.75,-7 100.75,-7"/>
<text text-anchor="start" x="103.75" y="-12.7" font-family="Times,serif" font-size="14.00">numeric →</text>
<polygon fill="none" stroke="black" points="358.75,-7 358.75,-29 1118.75,-29 1118.75,-7 358.75,-7"/>
<text text-anchor="start" x="361.5" y="-12.7" font-family="Times,serif" font-size="14.00">(CASE WHEN {column_name} &lt; 19000000 THEN NULL ELSE to_date(to_char({column_name}, &#39;00000000&#39;), &#39;YYYYMMDD&#39;) END)</text>
<polygon fill="none" stroke="black" points="97.75,-4 97.75,-146 1121.75,-146 1121.75,-4 97.75,-4"/>
</a>
</g>
</g>
<!-- cms.mbsf_ab_2011.DEATH_DT -->
<g id="node2" class="node">
<title>cms.mbsf_ab_2011.DEATH_DT</title>
<g id="a_node2"><a xlink:href="../cms.mbsf_ab_2011/DEATH_DT.html" xlink:title="&lt;TABLE&gt;" target="_blank">
<polygon fill="none" stroke="black" points="213.5,-430 0,-430 0,-327 213.5,-327 213.5,-430"/>
<text text-anchor="start" x="13" y="-408.7" font-family="Times,serif" font-weight="bold" font-size="14.00">cms.mbsf_ab_2011.DEATH_DT</text>
<text text-anchor="start" x="36" y="-362.2" font-family="Times,serif" font-size="14.00">Date of Death</text>
<polygon fill="none" stroke="black" points="8,-331 8,-426 205.5,-426 205.5,-331 8,-331"/>
</a>
</g>
</g>
<!-- cms.mbsf_ab_2011.DEATH_DT&#45;&gt;medicare.ps.dod -->
<g id="edge5" class="edge">
<title>cms.mbsf_ab_2011.DEATH_DT&#45;&gt;medicare.ps.dod</title>
<path fill="none" stroke="chocolate" stroke-width="2" d="M156.35,-326.89C198.98,-285.41 263.57,-227.2 327.75,-187 345.55,-175.85 364.65,-165.48 384.22,-155.92"/>
<polygon fill="chocolate" stroke="chocolate" stroke-width="2" points="385.55,-159.16 393.06,-151.69 382.53,-152.85 385.55,-159.16"/>
<text text-anchor="middle" x="343.12" y="-233.45" font-family="Times,serif" font-size="14.00">union</text>
</g>
<!-- cms.mbsf_ab_2012.DEATH_DT -->
<g id="node3" class="node">
<title>cms.mbsf_ab_2012.DEATH_DT</title>
<g id="a_node3"><a xlink:href="../cms.mbsf_ab_2012/DEATH_DT.html" xlink:title="&lt;TABLE&gt;" target="_blank">
<polygon fill="none" stroke="black" points="445.88,-430 231.62,-430 231.62,-327 445.88,-327 445.88,-430"/>
<text text-anchor="start" x="244.62" y="-408.7" font-family="Times,serif" font-weight="bold" font-size="14.00">cms.mbsf_ab_2012.DEATH_DT</text>
<text text-anchor="start" x="267.62" y="-362.2" font-family="Times,serif" font-size="14.00">Date of Death</text>
<polygon fill="none" stroke="black" points="239.62,-331 239.62,-426 437.88,-426 437.88,-331 239.62,-331"/>
</a>
</g>
</g>
<!-- cms.mbsf_ab_2012.DEATH_DT&#45;&gt;medicare.ps.dod -->
<g id="edge6" class="edge">
<title>cms.mbsf_ab_2012.DEATH_DT&#45;&gt;medicare.ps.dod</title>
<path fill="none" stroke="chocolate" stroke-width="2" d="M332.62,-326.7C330.31,-285.65 333.32,-228.13 360.75,-187 367.62,-176.7 375.69,-167.34 384.63,-158.85"/>
<polygon fill="chocolate" stroke="chocolate" stroke-width="2" points="386.84,-161.57 392,-152.31 382.19,-156.33 386.84,-161.57"/>
<text text-anchor="middle" x="376.12" y="-233.45" font-family="Times,serif" font-size="14.00">union</text>
</g>
<!-- cms.mbsf_ab_2013.DEATH_DT -->
<g id="node4" class="node">
<title>cms.mbsf_ab_2013.DEATH_DT</title>
<g id="a_node4"><a xlink:href="../cms.mbsf_ab_2013/DEATH_DT.html" xlink:title="&lt;TABLE&gt;" target="_blank">
<polygon fill="none" stroke="black" points="861.88,-430 647.62,-430 647.62,-327 861.88,-327 861.88,-430"/>
<text text-anchor="start" x="660.62" y="-408.7" font-family="Times,serif" font-weight="bold" font-size="14.00">cms.mbsf_ab_2013.DEATH_DT</text>
<text text-anchor="start" x="683.62" y="-362.2" font-family="Times,serif" font-size="14.00">Date of Death</text>
<polygon fill="none" stroke="black" points="655.62,-331 655.62,-426 853.88,-426 853.88,-331 655.62,-331"/>
</a>
</g>
</g>
<!-- cms.mbsf_ab_2013.DEATH_DT&#45;&gt;medicare.ps.dod -->
<g id="edge7" class="edge">
<title>cms.mbsf_ab_2013.DEATH_DT&#45;&gt;medicare.ps.dod</title>
<path fill="none" stroke="chocolate" stroke-width="2" d="M647.48,-359.08C544.21,-340.25 401.28,-310.9 384.75,-290 356.35,-254.1 360.58,-225.88 384.75,-187 391.08,-176.81 398.66,-167.53 407.13,-159.08"/>
<polygon fill="chocolate" stroke="chocolate" stroke-width="2" points="409.5,-161.66 414.45,-152.3 404.74,-156.53 409.5,-161.66"/>
<text text-anchor="middle" x="400.12" y="-233.45" font-family="Times,serif" font-size="14.00">union</text>
</g>
<!-- cms.mbsf_abcd_2015.DEATH_DT -->
<g id="node6" class="node">
<title>cms.mbsf_abcd_2015.DEATH_DT</title>
<g id="a_node6"><a xlink:href="../cms.mbsf_abcd_2015/DEATH_DT.html" xlink:title="&lt;TABLE&gt;" target="_blank">
<polygon fill="none" stroke="black" points="622.62,-290 394.88,-290 394.88,-187 622.62,-187 622.62,-290"/>
<text text-anchor="start" x="407.88" y="-268.7" font-family="Times,serif" font-weight="bold" font-size="14.00">cms.mbsf_abcd_2015.DEATH_DT</text>
<text text-anchor="start" x="430.88" y="-222.2" font-family="Times,serif" font-size="14.00">Beneficiary Date of Death</text>
<polygon fill="none" stroke="black" points="402.88,-191 402.88,-286 614.62,-286 614.62,-191 402.88,-191"/>
</a>
</g>
</g>
<!-- cms.mbsf_ab_2013.DEATH_DT&#45;&gt;cms.mbsf_abcd_2015.DEATH_DT -->
<!-- cms.mbsf_abcd_2016.DEATH_DT -->
<g id="node7" class="node">
<title>cms.mbsf_abcd_2016.DEATH_DT</title>
<g id="a_node7"><a xlink:href="../cms.mbsf_abcd_2016/DEATH_DT.html" xlink:title="&lt;TABLE&gt;" target="_blank">
<polygon fill="none" stroke="black" points="868.62,-290 640.88,-290 640.88,-187 868.62,-187 868.62,-290"/>
<text text-anchor="start" x="653.88" y="-268.7" font-family="Times,serif" font-weight="bold" font-size="14.00">cms.mbsf_abcd_2016.DEATH_DT</text>
<text text-anchor="start" x="676.88" y="-222.2" font-family="Times,serif" font-size="14.00">Beneficiary Date of Death</text>
<polygon fill="none" stroke="black" points="648.88,-191 648.88,-286 860.62,-286 860.62,-191 648.88,-191"/>
</a>
</g>
</g>
<!-- cms.mbsf_ab_2013.DEATH_DT&#45;&gt;cms.mbsf_abcd_2016.DEATH_DT -->
<!-- cms.mbsf_abcd_2017.DEATH_DT -->
<g id="node8" class="node">
<title>cms.mbsf_abcd_2017.DEATH_DT</title>
<g id="a_node8"><a xlink:href="../cms.mbsf_abcd_2017/DEATH_DT.html" xlink:title="&lt;TABLE&gt;" target="_blank">
<polygon fill="none" stroke="black" points="1114.62,-290 886.88,-290 886.88,-187 1114.62,-187 1114.62,-290"/>
<text text-anchor="start" x="899.88" y="-268.7" font-family="Times,serif" font-weight="bold" font-size="14.00">cms.mbsf_abcd_2017.DEATH_DT</text>
<text text-anchor="start" x="922.88" y="-222.2" font-family="Times,serif" font-size="14.00">Beneficiary Date of Death</text>
<polygon fill="none" stroke="black" points="894.88,-191 894.88,-286 1106.62,-286 1106.62,-191 894.88,-191"/>
</a>
</g>
</g>
<!-- cms.mbsf_ab_2013.DEATH_DT&#45;&gt;cms.mbsf_abcd_2017.DEATH_DT -->
<!-- cms.mbsf_abcd_2018.DEATH_DT -->
<g id="node9" class="node">
<title>cms.mbsf_abcd_2018.DEATH_DT</title>
<g id="a_node9"><a xlink:href="../cms.mbsf_abcd_2018/DEATH_DT.html" xlink:title="&lt;TABLE&gt;" target="_blank">
<polygon fill="none" stroke="black" points="1360.62,-290 1132.88,-290 1132.88,-187 1360.62,-187 1360.62,-290"/>
<text text-anchor="start" x="1145.88" y="-268.7" font-family="Times,serif" font-weight="bold" font-size="14.00">cms.mbsf_abcd_2018.DEATH_DT</text>
<text text-anchor="start" x="1168.88" y="-222.2" font-family="Times,serif" font-size="14.00">Beneficiary Date of Death</text>
<polygon fill="none" stroke="black" points="1140.88,-191 1140.88,-286 1352.62,-286 1352.62,-191 1140.88,-191"/>
</a>
</g>
</g>
<!-- cms.mbsf_ab_2013.DEATH_DT&#45;&gt;cms.mbsf_abcd_2018.DEATH_DT -->
<!-- cms.mbsf_ab_2014.DEATH_DT -->
<g id="node5" class="node">
<title>cms.mbsf_ab_2014.DEATH_DT</title>
<g id="a_node5"><a xlink:href="../cms.mbsf_ab_2014/DEATH_DT.html" xlink:title="&lt;TABLE&gt;" target="_blank">
<polygon fill="none" stroke="black" points="1503.88,-430 1289.62,-430 1289.62,-327 1503.88,-327 1503.88,-430"/>
<text text-anchor="start" x="1302.62" y="-408.7" font-family="Times,serif" font-weight="bold" font-size="14.00">cms.mbsf_ab_2014.DEATH_DT</text>
<text text-anchor="start" x="1325.62" y="-362.2" font-family="Times,serif" font-size="14.00">Date of Death</text>
<polygon fill="none" stroke="black" points="1297.62,-331 1297.62,-426 1495.88,-426 1495.88,-331 1297.62,-331"/>
</a>
</g>
</g>
<!-- cms.mbsf_ab_2014.DEATH_DT&#45;&gt;medicare.ps.dod -->
<g id="edge8" class="edge">
<title>cms.mbsf_ab_2014.DEATH_DT&#45;&gt;medicare.ps.dod</title>
<path fill="none" stroke="chocolate" stroke-width="2" d="M1404.74,-326.54C1408.38,-283.39 1405.58,-222.98 1369.75,-187 1332.4,-149.49 1245.11,-124.57 1142.45,-108.04"/>
<polygon fill="chocolate" stroke="chocolate" stroke-width="2" points="1143.27,-104.62 1132.85,-106.53 1142.19,-111.54 1143.27,-104.62"/>
<text text-anchor="middle" x="1421.12" y="-233.45" font-family="Times,serif" font-size="14.00">union</text>
</g>
<!-- cms.mbsf_abcd_2015.DEATH_DT&#45;&gt;medicare.ps.dod -->
<g id="edge9" class="edge">
<title>cms.mbsf_abcd_2015.DEATH_DT&#45;&gt;medicare.ps.dod</title>
<path fill="none" stroke="chocolate" stroke-width="2" d="M540.43,-186.84C545.51,-178.71 550.9,-170.11 556.32,-161.43"/>
<polygon fill="chocolate" stroke="chocolate" stroke-width="2" points="559.26,-163.33 561.6,-153 553.33,-159.62 559.26,-163.33"/>
<text text-anchor="middle" x="567.12" y="-163.45" font-family="Times,serif" font-size="14.00">union</text>
</g>
<!-- cms.mbsf_abcd_2016.DEATH_DT&#45;&gt;medicare.ps.dod -->
<g id="edge10" class="edge">
<title>cms.mbsf_abcd_2016.DEATH_DT&#45;&gt;medicare.ps.dod</title>
<path fill="none" stroke="chocolate" stroke-width="2" d="M709.27,-186.84C701.56,-178.26 693.38,-169.15 685.15,-159.98"/>
<polygon fill="chocolate" stroke="chocolate" stroke-width="2" points="687.88,-157.79 678.6,-152.68 682.67,-162.46 687.88,-157.79"/>
<text text-anchor="middle" x="709.12" y="-163.45" font-family="Times,serif" font-size="14.00">union</text>
</g>
<!-- cms.mbsf_abcd_2017.DEATH_DT&#45;&gt;medicare.ps.dod -->
<g id="edge11" class="edge">
<title>cms.mbsf_abcd_2017.DEATH_DT&#45;&gt;medicare.ps.dod</title>
<path fill="none" stroke="chocolate" stroke-width="2" d="M886.61,-190.35C859.96,-179.35 830.86,-167.33 801.86,-155.35"/>
<polygon fill="chocolate" stroke="chocolate" stroke-width="2" points="803.26,-152.14 792.68,-151.56 800.59,-158.61 803.26,-152.14"/>
<text text-anchor="middle" x="850.12" y="-163.45" font-family="Times,serif" font-size="14.00">union</text>
</g>
<!-- cms.mbsf_abcd_2018.DEATH_DT&#45;&gt;medicare.ps.dod -->
<g id="edge12" class="edge">
<title>cms.mbsf_abcd_2018.DEATH_DT&#45;&gt;medicare.ps.dod</title>
<path fill="none" stroke="chocolate" stroke-width="2" d="M1132.42,-189.78C1129.51,-188.82 1126.62,-187.89 1123.75,-187 1085.05,-174.98 1044.32,-163.79 1003.42,-153.51"/>
<polygon fill="chocolate" stroke="chocolate" stroke-width="2" points="1004.5,-150.17 993.95,-151.15 1002.81,-156.96 1004.5,-150.17"/>
<text text-anchor="middle" x="1078.12" y="-163.45" font-family="Times,serif" font-size="14.00">union</text>
</g>
</g>
</svg>
