<?xml version="1.0" encoding="UTF-8" standalone="no"?>
<!DOCTYPE svg PUBLIC "-//W3C//DTD SVG 1.1//EN"
 "http://www.w3.org/Graphics/SVG/1.1/DTD/svg11.dtd">
<!-- Generated by graphviz version 10.0.1 (20240210.2158)
 -->
<!-- Pages: 1 -->
<svg width="1048pt" height="778pt"
 viewBox="0.00 0.00 1048.00 778.00" xmlns="http://www.w3.org/2000/svg" xmlns:xlink="http://www.w3.org/1999/xlink">
<g id="graph0" class="graph" transform="scale(1 1) rotate(0) translate(4 774)">
<polygon fill="white" stroke="none" points="-4,4 -4,-774 1044,-774 1044,4 -4,4"/>
<!-- medicare.qc_enrl_bene.dod -->
<g id="node1" class="node">
<title>medicare.qc_enrl_bene.dod</title>
<g id="a_node1"><a xlink:href="../medicare.qc_enrl_bene/dod.html" xlink:title="&lt;TABLE&gt;" target="_blank">
<polygon fill="none" stroke="black" points="613.25,-59 426.75,-59 426.75,0 613.25,0 613.25,-59"/>
<text text-anchor="start" x="439.75" y="-37.7" font-family="Times,serif" font-weight="bold" font-size="14.00">medicare.qc_enrl_bene.dod</text>
<polygon fill="none" stroke="black" points="437.75,-7 437.75,-29.5 602.25,-29.5 602.25,-7 437.75,-7"/>
<text text-anchor="start" x="440.75" y="-13.2" font-family="Times,serif" font-size="14.00">MAX(dod)</text>
<polygon fill="none" stroke="black" points="434.75,-4 434.75,-55 605.25,-55 605.25,-4 434.75,-4"/>
</a>
</g>
</g>
<!-- medicare.beneficiaries.dod -->
<g id="node2" class="node">
<title>medicare.beneficiaries.dod</title>
<g id="a_node2"><a xlink:href="../medicare.beneficiaries/dod.html" xlink:title="&lt;TABLE&gt;" target="_blank">
<polygon fill="none" stroke="black" points="611,-155 429,-155 429,-96 611,-96 611,-155"/>
<text text-anchor="start" x="442" y="-133.7" font-family="Times,serif" font-weight="bold" font-size="14.00">medicare.beneficiaries.dod</text>
<polygon fill="none" stroke="black" points="440,-103 440,-125.5 600,-125.5 600,-103 440,-103"/>
<text text-anchor="start" x="443" y="-109.2" font-family="Times,serif" font-size="14.00">MAX(dod)</text>
<polygon fill="none" stroke="black" points="437,-100 437,-151 603,-151 603,-100 437,-100"/>
</a>
</g>
</g>
<!-- medicare.beneficiaries.dod&#45;&gt;medicare.qc_enrl_bene.dod -->
<g id="edge1" class="edge">
<title>medicare.beneficiaries.dod&#45;&gt;medicare.qc_enrl_bene.dod</title>
<path fill="none" stroke="black" d="M520,-95.53C520,-87.68 520,-79.05 520,-70.7"/>
<polygon fill="black" stroke="black" points="523.5,-70.73 520,-60.73 516.5,-70.73 523.5,-70.73"/>
<text text-anchor="middle" x="566.12" y="-72.45" font-family="Times,serif" font-size="14.00">	join natural</text>
</g>
<!-- medicare._beneficiaries.dod -->
<g id="node3" class="node">
<title>medicare._beneficiaries.dod</title>
<g id="a_node3"><a xlink:href="../medicare._beneficiaries/dod.html" xlink:title="&lt;TABLE&gt;" target="_blank">
<polygon fill="none" stroke="black" points="614.38,-251 425.62,-251 425.62,-192 614.38,-192 614.38,-251"/>
<text text-anchor="start" x="438.62" y="-229.7" font-family="Times,serif" font-weight="bold" font-size="14.00">medicare._beneficiaries.dod</text>
<polygon fill="none" stroke="black" points="436.62,-199 436.62,-221.5 603.38,-221.5 603.38,-199 436.62,-199"/>
<text text-anchor="start" x="439.62" y="-205.2" font-family="Times,serif" font-size="14.00">MAX(dod)</text>
<polygon fill="none" stroke="black" points="433.62,-196 433.62,-247 606.38,-247 606.38,-196 433.62,-196"/>
</a>
</g>
</g>
<!-- medicare._beneficiaries.dod&#45;&gt;medicare.beneficiaries.dod -->
<g id="edge2" class="edge">
<title>medicare._beneficiaries.dod&#45;&gt;medicare.beneficiaries.dod</title>
<path fill="none" stroke="black" d="M520,-191.53C520,-183.68 520,-175.05 520,-166.7"/>
<polygon fill="black" stroke="black" points="523.5,-166.73 520,-156.73 516.5,-166.73 523.5,-166.73"/>
<text text-anchor="middle" x="539.5" y="-168.45" font-family="Times,serif" font-size="14.00">Copied</text>
</g>
<!-- medicare._ps.dod -->
<g id="node4" class="node">
<title>medicare._ps.dod</title>
<g id="a_node4"><a xlink:href="../medicare._ps/dod.html" xlink:title="&lt;TABLE&gt;" target="_blank">
<polygon fill="none" stroke="black" points="1040,-438 0,-438 0,-288 1040,-288 1040,-438"/>
<text text-anchor="start" x="87.62" y="-416.7" font-family="Times,serif" font-weight="bold" font-size="14.00">medicare._ps.dod</text>
<text text-anchor="start" x="35.88" y="-370.7" font-family="Times,serif" font-size="14.00">Date of beneficiary death, if available</text>
<polygon fill="none" stroke="black" points="11,-319 11,-341 267,-341 267,-319 11,-319"/>
<text text-anchor="start" x="14" y="-324.7" font-family="Times,serif" font-size="14.00">character varying →</text>
<polygon fill="none" stroke="black" points="269,-319 269,-341 1029,-341 1029,-319 269,-319"/>
<text text-anchor="start" x="272" y="-324.7" font-family="Times,serif" font-size="14.00">(CASE WHEN {column_name} = &#39;00000000&#39; THEN NULL ELSE public.parse_date({column_name}) END)</text>
<polygon fill="none" stroke="black" points="11,-295 11,-317 267,-317 267,-295 11,-295"/>
<text text-anchor="start" x="14" y="-300.7" font-family="Times,serif" font-size="14.00">numeric →</text>
<polygon fill="none" stroke="black" points="269,-295 269,-317 1029,-317 1029,-295 269,-295"/>
<text text-anchor="start" x="271.75" y="-300.7" font-family="Times,serif" font-size="14.00">(CASE WHEN {column_name} &lt; 19000000 THEN NULL ELSE to_date(to_char({column_name}, &#39;00000000&#39;), &#39;YYYYMMDD&#39;) END)</text>
<polygon fill="none" stroke="black" points="8,-292 8,-434 1032,-434 1032,-292 8,-292"/>
</a>
</g>
</g>
<!-- medicare._ps.dod&#45;&gt;medicare._beneficiaries.dod -->
<g id="edge3" class="edge">
<title>medicare._ps.dod&#45;&gt;medicare._beneficiaries.dod</title>
<path fill="none" stroke="blue" stroke-width="5" d="M520,-287.76C520,-280.91 520,-274.13 520,-267.66"/>
<polygon fill="blue" stroke="blue" stroke-width="5" points="524.38,-267.73 520,-257.73 515.63,-267.73 524.38,-267.73"/>
<text text-anchor="middle" x="603.25" y="-264.45" font-family="Times,serif" font-size="14.00">	 &#160;Aggregated On bene_id</text>
</g>
<!-- medicare.ps.dod -->
<g id="node5" class="node">
<title>medicare.ps.dod</title>
<g id="a_node5"><a xlink:href="../medicare.ps/dod.html" xlink:title="&lt;TABLE&gt;" target="_blank">
<polygon fill="none" stroke="black" points="1040,-625 0,-625 0,-475 1040,-475 1040,-625"/>
<text text-anchor="start" x="91" y="-603.7" font-family="Times,serif" font-weight="bold" font-size="14.00">medicare.ps.dod</text>
<text text-anchor="start" x="35.88" y="-557.7" font-family="Times,serif" font-size="14.00">Date of beneficiary death, if available</text>
<polygon fill="none" stroke="black" points="11,-506 11,-528 267,-528 267,-506 11,-506"/>
<text text-anchor="start" x="14" y="-511.7" font-family="Times,serif" font-size="14.00">character varying →</text>
<polygon fill="none" stroke="black" points="269,-506 269,-528 1029,-528 1029,-506 269,-506"/>
<text text-anchor="start" x="272" y="-511.7" font-family="Times,serif" font-size="14.00">(CASE WHEN {column_name} = &#39;00000000&#39; THEN NULL ELSE public.parse_date({column_name}) END)</text>
<polygon fill="none" stroke="black" points="11,-482 11,-504 267,-504 267,-482 11,-482"/>
<text text-anchor="start" x="14" y="-487.7" font-family="Times,serif" font-size="14.00">numeric →</text>
<polygon fill="none" stroke="black" points="269,-482 269,-504 1029,-504 1029,-482 269,-482"/>
<text text-anchor="start" x="271.75" y="-487.7" font-family="Times,serif" font-size="14.00">(CASE WHEN {column_name} &lt; 19000000 THEN NULL ELSE to_date(to_char({column_name}, &#39;00000000&#39;), &#39;YYYYMMDD&#39;) END)</text>
<polygon fill="none" stroke="black" points="8,-479 8,-621 1032,-621 1032,-479 8,-479"/>
</a>
</g>
</g>
<!-- medicare.ps.dod&#45;&gt;medicare._ps.dod -->
<g id="edge4" class="edge">
<title>medicare.ps.dod&#45;&gt;medicare._ps.dod</title>
<path fill="none" stroke="black" d="M520,-474.55C520,-466.34 520,-457.93 520,-449.59"/>
<polygon fill="black" stroke="black" points="523.5,-449.81 520,-439.81 516.5,-449.81 523.5,-449.81"/>
<text text-anchor="middle" x="539.5" y="-451.45" font-family="Times,serif" font-size="14.00">Copied</text>
</g>
<!-- medicare.ps.dod_parent -->
<g id="node6" class="node">
<title>medicare.ps.dod_parent</title>
<g id="a_node6"><a xlink:href="../medicare.ps/dod.html" xlink:title="8 incoming links (columns)" target="_blank">
<path fill="yellow" stroke="black" d="M628,-760.18C628,-765.6 579.59,-770 520,-770 460.41,-770 412,-765.6 412,-760.18 412,-760.18 412,-671.82 412,-671.82 412,-666.4 460.41,-662 520,-662 579.59,-662 628,-666.4 628,-671.82 628,-671.82 628,-760.18 628,-760.18"/>
<path fill="none" stroke="black" d="M628,-760.18C628,-754.76 579.59,-750.36 520,-750.36 460.41,-750.36 412,-754.76 412,-760.18"/>
<text text-anchor="middle" x="520" y="-710.95" font-family="Times,serif" font-size="14.00">8 incoming links (columns)</text>
</a>
</g>
</g>
<!-- medicare.ps.dod_parent&#45;&gt;medicare.ps.dod -->
<g id="edge5" class="edge">
<title>medicare.ps.dod_parent&#45;&gt;medicare.ps.dod</title>
<path fill="none" stroke="goldenrod" stroke-width="6" d="M520,-661.75C520,-655.32 520,-648.62 520,-641.83"/>
<polygon fill="goldenrod" stroke="goldenrod" stroke-width="6" points="525.25,-641.88 520,-631.88 514.75,-641.88 525.25,-641.88"/>
</g>
</g>
</svg>
