<?xml version="1.0" encoding="UTF-8" standalone="no"?>
<!DOCTYPE svg PUBLIC "-//W3C//DTD SVG 1.1//EN"
 "http://www.w3.org/Graphics/SVG/1.1/DTD/svg11.dtd">
<!-- Generated by graphviz version 10.0.1 (20240210.2158)
 -->
<!-- Pages: 1 -->
<svg width="302pt" height="495pt"
 viewBox="0.00 0.00 302.00 495.00" xmlns="http://www.w3.org/2000/svg" xmlns:xlink="http://www.w3.org/1999/xlink">
<g id="graph0" class="graph" transform="scale(1 1) rotate(0) translate(4 491)">
<polygon fill="white" stroke="none" points="-4,4 -4,-491 298,-491 298,4 -4,4"/>
<!-- medicare.admissions.drg_outlier_pmt_amt -->
<g id="node1" class="node">
<title>medicare.admissions.drg_outlier_pmt_amt</title>
<g id="a_node1"><a xlink:href="../medicare.admissions/drg_outlier_pmt_amt.html" xlink:title="&lt;TABLE&gt;" target="_blank">
<polygon fill="none" stroke="black" points="294,-152.5 0,-152.5 0,0 294,0 294,-152.5"/>
<text text-anchor="start" x="21.38" y="-131.2" font-family="Times,serif" font-weight="bold" font-size="14.00">medicare.admissions.drg_outlier_pmt_amt</text>
<text text-anchor="start" x="52.12" y="-84.7" font-family="Times,serif" font-size="14.00">The amount of additional payment</text>
<text text-anchor="start" x="36" y="-68.2" font-family="Times,serif" font-size="14.00">(rounded to whole dollars) approved due</text>
<text text-anchor="start" x="48.75" y="-51.7" font-family="Times,serif" font-size="14.00">to an outlier situation over the DRG</text>
<text text-anchor="start" x="85.5" y="-35.2" font-family="Times,serif" font-size="14.00">allowance for the stay.</text>
<polygon fill="none" stroke="black" points="8,-4 8,-148.5 286,-148.5 286,-4 8,-4"/>
</a>
</g>
</g>
<!-- medicare.ip.drg_outlier_pmt_amt -->
<g id="node2" class="node">
<title>medicare.ip.drg_outlier_pmt_amt</title>
<g id="a_node2"><a xlink:href="../medicare.ip/drg_outlier_pmt_amt.html" xlink:title="&lt;TABLE&gt;" target="_blank">
<polygon fill="none" stroke="black" points="294,-342 0,-342 0,-189.5 294,-189.5 294,-342"/>
<text text-anchor="start" x="47.62" y="-320.7" font-family="Times,serif" font-weight="bold" font-size="14.00">medicare.ip.drg_outlier_pmt_amt</text>
<text text-anchor="start" x="52.12" y="-274.2" font-family="Times,serif" font-size="14.00">The amount of additional payment</text>
<text text-anchor="start" x="36" y="-257.7" font-family="Times,serif" font-size="14.00">(rounded to whole dollars) approved due</text>
<text text-anchor="start" x="48.75" y="-241.2" font-family="Times,serif" font-size="14.00">to an outlier situation over the DRG</text>
<text text-anchor="start" x="85.5" y="-224.7" font-family="Times,serif" font-size="14.00">allowance for the stay.</text>
<polygon fill="none" stroke="black" points="8,-193.5 8,-338 286,-338 286,-193.5 8,-193.5"/>
</a>
</g>
</g>
<!-- medicare.ip.drg_outlier_pmt_amt&#45;&gt;medicare.admissions.drg_outlier_pmt_amt -->
<g id="edge1" class="edge">
<title>medicare.ip.drg_outlier_pmt_amt&#45;&gt;medicare.admissions.drg_outlier_pmt_amt</title>
<path fill="none" stroke="black" d="M147,-189.03C147,-180.85 147,-172.49 147,-164.19"/>
<polygon fill="black" stroke="black" points="150.5,-164.46 147,-154.46 143.5,-164.46 150.5,-164.46"/>
<text text-anchor="middle" x="166.5" y="-165.95" font-family="Times,serif" font-size="14.00">Copied</text>
</g>
<!-- medicare.ip.drg_outlier_pmt_amt_parent -->
<g id="node3" class="node">
<title>medicare.ip.drg_outlier_pmt_amt_parent</title>
<g id="a_node3"><a xlink:href="../medicare.ip/drg_outlier_pmt_amt.html" xlink:title="8 incoming links (columns)" target="_blank">
<path fill="yellow" stroke="black" d="M255,-477.18C255,-482.6 206.59,-487 147,-487 87.41,-487 39,-482.6 39,-477.18 39,-477.18 39,-388.82 39,-388.82 39,-383.4 87.41,-379 147,-379 206.59,-379 255,-383.4 255,-388.82 255,-388.82 255,-477.18 255,-477.18"/>
<path fill="none" stroke="black" d="M255,-477.18C255,-471.76 206.59,-467.36 147,-467.36 87.41,-467.36 39,-471.76 39,-477.18"/>
<text text-anchor="middle" x="147" y="-427.95" font-family="Times,serif" font-size="14.00">8 incoming links (columns)</text>
</a>
</g>
</g>
<!-- medicare.ip.drg_outlier_pmt_amt_parent&#45;&gt;medicare.ip.drg_outlier_pmt_amt -->
<g id="edge2" class="edge">
<title>medicare.ip.drg_outlier_pmt_amt_parent&#45;&gt;medicare.ip.drg_outlier_pmt_amt</title>
<path fill="none" stroke="goldenrod" stroke-width="6" d="M147,-378.8C147,-372.37 147,-365.66 147,-358.86"/>
<polygon fill="goldenrod" stroke="goldenrod" stroke-width="6" points="152.25,-358.87 147,-348.87 141.75,-358.87 152.25,-358.87"/>
</g>
</g>
</svg>
