<?xml version="1.0" encoding="UTF-8" standalone="no"?>
<!DOCTYPE svg PUBLIC "-//W3C//DTD SVG 1.1//EN"
 "http://www.w3.org/Graphics/SVG/1.1/DTD/svg11.dtd">
<!-- Generated by graphviz version 10.0.1 (20240210.2158)
 -->
<!-- Pages: 1 -->
<svg width="320pt" height="561pt"
 viewBox="0.00 0.00 320.00 561.00" xmlns="http://www.w3.org/2000/svg" xmlns:xlink="http://www.w3.org/1999/xlink">
<g id="graph0" class="graph" transform="scale(1 1) rotate(0) translate(4 557)">
<polygon fill="white" stroke="none" points="-4,4 -4,-557 316,-557 316,4 -4,4"/>
<!-- medicare.admissions.drg_price_amt -->
<g id="node1" class="node">
<title>medicare.admissions.drg_price_amt</title>
<g id="a_node1"><a xlink:href="../medicare.admissions/drg_price_amt.html" xlink:title="&lt;TABLE&gt;" target="_blank">
<polygon fill="none" stroke="black" points="312,-185.5 0,-185.5 0,0 312,0 312,-185.5"/>
<text text-anchor="start" x="50.25" y="-164.2" font-family="Times,serif" font-weight="bold" font-size="14.00">medicare.admissions.drg_price_amt</text>
<text text-anchor="start" x="49.12" y="-117.7" font-family="Times,serif" font-size="14.00">The amount (called the &#39;DRG price&#39; for</text>
<text text-anchor="start" x="36" y="-101.2" font-family="Times,serif" font-size="14.00">purposes of MEDPAR analysis) &#160;that would</text>
<text text-anchor="start" x="66" y="-84.7" font-family="Times,serif" font-size="14.00">have been paid if no deductibles,</text>
<text text-anchor="start" x="47.25" y="-68.2" font-family="Times,serif" font-size="14.00">coinsurance, primary payers, or outliers</text>
<text text-anchor="start" x="65.62" y="-51.7" font-family="Times,serif" font-size="14.00">were involved (rounded to whole</text>
<text text-anchor="start" x="133.5" y="-35.2" font-family="Times,serif" font-size="14.00">dollars).</text>
<polygon fill="none" stroke="black" points="8,-4 8,-181.5 304,-181.5 304,-4 8,-4"/>
</a>
</g>
</g>
<!-- medicare.ip.drg_price_amt -->
<g id="node2" class="node">
<title>medicare.ip.drg_price_amt</title>
<g id="a_node2"><a xlink:href="../medicare.ip/drg_price_amt.html" xlink:title="&lt;TABLE&gt;" target="_blank">
<polygon fill="none" stroke="black" points="312,-408 0,-408 0,-222.5 312,-222.5 312,-408"/>
<text text-anchor="start" x="76.5" y="-386.7" font-family="Times,serif" font-weight="bold" font-size="14.00">medicare.ip.drg_price_amt</text>
<text text-anchor="start" x="49.12" y="-340.2" font-family="Times,serif" font-size="14.00">The amount (called the &#39;DRG price&#39; for</text>
<text text-anchor="start" x="36" y="-323.7" font-family="Times,serif" font-size="14.00">purposes of MEDPAR analysis) &#160;that would</text>
<text text-anchor="start" x="66" y="-307.2" font-family="Times,serif" font-size="14.00">have been paid if no deductibles,</text>
<text text-anchor="start" x="47.25" y="-290.7" font-family="Times,serif" font-size="14.00">coinsurance, primary payers, or outliers</text>
<text text-anchor="start" x="65.62" y="-274.2" font-family="Times,serif" font-size="14.00">were involved (rounded to whole</text>
<text text-anchor="start" x="133.5" y="-257.7" font-family="Times,serif" font-size="14.00">dollars).</text>
<polygon fill="none" stroke="black" points="8,-226.5 8,-404 304,-404 304,-226.5 8,-226.5"/>
</a>
</g>
</g>
<!-- medicare.ip.drg_price_amt&#45;&gt;medicare.admissions.drg_price_amt -->
<g id="edge1" class="edge">
<title>medicare.ip.drg_price_amt&#45;&gt;medicare.admissions.drg_price_amt</title>
<path fill="none" stroke="black" d="M156,-222.02C156,-213.82 156,-205.49 156,-197.21"/>
<polygon fill="black" stroke="black" points="159.5,-197.48 156,-187.48 152.5,-197.48 159.5,-197.48"/>
<text text-anchor="middle" x="175.5" y="-198.95" font-family="Times,serif" font-size="14.00">Copied</text>
</g>
<!-- medicare.ip.drg_price_amt_parent -->
<g id="node3" class="node">
<title>medicare.ip.drg_price_amt_parent</title>
<g id="a_node3"><a xlink:href="../medicare.ip/drg_price_amt.html" xlink:title="8 incoming links (columns)" target="_blank">
<path fill="yellow" stroke="black" d="M264,-543.18C264,-548.6 215.59,-553 156,-553 96.41,-553 48,-548.6 48,-543.18 48,-543.18 48,-454.82 48,-454.82 48,-449.4 96.41,-445 156,-445 215.59,-445 264,-449.4 264,-454.82 264,-454.82 264,-543.18 264,-543.18"/>
<path fill="none" stroke="black" d="M264,-543.18C264,-537.76 215.59,-533.36 156,-533.36 96.41,-533.36 48,-537.76 48,-543.18"/>
<text text-anchor="middle" x="156" y="-493.95" font-family="Times,serif" font-size="14.00">8 incoming links (columns)</text>
</a>
</g>
</g>
<!-- medicare.ip.drg_price_amt_parent&#45;&gt;medicare.ip.drg_price_amt -->
<g id="edge2" class="edge">
<title>medicare.ip.drg_price_amt_parent&#45;&gt;medicare.ip.drg_price_amt</title>
<path fill="none" stroke="goldenrod" stroke-width="6" d="M156,-444.94C156,-438.46 156,-431.66 156,-424.73"/>
<polygon fill="goldenrod" stroke="goldenrod" stroke-width="6" points="161.25,-424.81 156,-414.81 150.75,-424.81 161.25,-424.81"/>
</g>
</g>
</svg>
