<?xml version="1.0" encoding="UTF-8" standalone="no"?>
<!DOCTYPE svg PUBLIC "-//W3C//DTD SVG 1.1//EN"
 "http://www.w3.org/Graphics/SVG/1.1/DTD/svg11.dtd">
<!-- Generated by graphviz version 14.1.4 (20260321.0153)
 -->
<!-- Pages: 1 -->
<svg width="1876pt" height="357pt"
 viewBox="0.00 0.00 1876.00 357.00" xmlns="http://www.w3.org/2000/svg" xmlns:xlink="http://www.w3.org/1999/xlink">
<g id="graph0" class="graph" transform="scale(1 1) rotate(0) translate(4 353)">
<polygon fill="white" stroke="none" points="-4,4 -4,-353 1871.5,-353 1871.5,4 -4,4"/>
<!-- medicare.ip.dschrgcd -->
<g id="node1" class="node">
<title>medicare.ip.dschrgcd</title>
<g id="a_node1"><a xlink:href="../medicare.ip/dschrgcd.html" xlink:title="&lt;TABLE&gt;" target="_blank">
<polygon fill="none" stroke="black" points="839.38,-36 688.12,-36 688.12,0 839.38,0 839.38,-36"/>
<text xml:space="preserve" text-anchor="start" x="701.12" y="-13.95" font-family="Times,serif" font-weight="bold" font-size="14.00">medicare.ip.dschrgcd</text>
<polygon fill="none" stroke="black" points="696.12,-4.75 696.12,-31.25 831.38,-31.25 831.38,-4.75 696.12,-4.75"/>
</a>
</g>
</g>
<!-- cms.medpar_2011.DSCHRGCD -->
<g id="node2" class="node">
<title>cms.medpar_2011.DSCHRGCD</title>
<g id="a_node2"><a xlink:href="../cms.medpar_2011/DSCHRGCD.html" xlink:title="&lt;TABLE&gt;" target="_blank">
<polygon fill="none" stroke="black" points="283.5,-349 0,-349 0,-229.5 283.5,-229.5 283.5,-349"/>
<text xml:space="preserve" text-anchor="start" x="47.25" y="-327.7" font-family="Times,serif" font-weight="bold" font-size="14.00">cms.medpar_2011.DSCHRGCD</text>
<text xml:space="preserve" text-anchor="start" x="36" y="-281.75" font-family="Times,serif" font-size="14.00">Code identifying status of patient as of</text>
<text xml:space="preserve" text-anchor="start" x="92.62" y="-265.25" font-family="Times,serif" font-size="14.00">CLM_THRU_DT</text>
<polygon fill="none" stroke="black" points="8,-233.5 8,-345 275.5,-345 275.5,-233.5 8,-233.5"/>
</a>
</g>
</g>
<!-- cms.medpar_2011.DSCHRGCD&#45;&gt;medicare.ip.dschrgcd -->
<g id="edge5" class="edge">
<title>cms.medpar_2011.DSCHRGCD&#45;&gt;medicare.ip.dschrgcd</title>
<path fill="none" stroke="chocolate" stroke-width="2" d="M206.07,-229.02C260.6,-181.41 342.67,-115.65 423.75,-73 447.76,-60.37 455.28,-59.92 481.75,-54 545.62,-39.72 619.03,-30.84 674.93,-25.6"/>
<polygon fill="chocolate" stroke="chocolate" stroke-width="2" points="675.01,-29.1 684.65,-24.71 674.37,-22.13 675.01,-29.1"/>
<text xml:space="preserve" text-anchor="middle" x="439.12" y="-127.7" font-family="Times,serif" font-size="14.00">union</text>
</g>
<!-- cms.medpar_2012.DSCHRGCD -->
<g id="node3" class="node">
<title>cms.medpar_2012.DSCHRGCD</title>
<g id="a_node3"><a xlink:href="../cms.medpar_2012/DSCHRGCD.html" xlink:title="&lt;TABLE&gt;" target="_blank">
<polygon fill="none" stroke="black" points="585.5,-349 302,-349 302,-229.5 585.5,-229.5 585.5,-349"/>
<text xml:space="preserve" text-anchor="start" x="349.25" y="-327.7" font-family="Times,serif" font-weight="bold" font-size="14.00">cms.medpar_2012.DSCHRGCD</text>
<text xml:space="preserve" text-anchor="start" x="338" y="-281.75" font-family="Times,serif" font-size="14.00">Code identifying status of patient as of</text>
<text xml:space="preserve" text-anchor="start" x="394.62" y="-265.25" font-family="Times,serif" font-size="14.00">CLM_THRU_DT</text>
<polygon fill="none" stroke="black" points="310,-233.5 310,-345 577.5,-345 577.5,-233.5 310,-233.5"/>
</a>
</g>
</g>
<!-- cms.medpar_2012.DSCHRGCD&#45;&gt;medicare.ip.dschrgcd -->
<g id="edge6" class="edge">
<title>cms.medpar_2012.DSCHRGCD&#45;&gt;medicare.ip.dschrgcd</title>
<path fill="none" stroke="chocolate" stroke-width="2" d="M431.89,-229.16C425.96,-182.1 426.04,-117.04 459.75,-73 485.46,-39.41 594.99,-26.72 675.23,-21.92"/>
<polygon fill="chocolate" stroke="chocolate" stroke-width="2" points="675.03,-25.43 684.82,-21.38 674.64,-18.44 675.03,-25.43"/>
<text xml:space="preserve" text-anchor="middle" x="475.12" y="-127.7" font-family="Times,serif" font-size="14.00">union</text>
</g>
<!-- cms.medpar_2013.DSCHRGCD -->
<g id="node4" class="node">
<title>cms.medpar_2013.DSCHRGCD</title>
<g id="a_node4"><a xlink:href="../cms.medpar_2013/DSCHRGCD.html" xlink:title="&lt;TABLE&gt;" target="_blank">
<polygon fill="none" stroke="black" points="1085.5,-349 802,-349 802,-229.5 1085.5,-229.5 1085.5,-349"/>
<text xml:space="preserve" text-anchor="start" x="849.25" y="-327.7" font-family="Times,serif" font-weight="bold" font-size="14.00">cms.medpar_2013.DSCHRGCD</text>
<text xml:space="preserve" text-anchor="start" x="838" y="-281.75" font-family="Times,serif" font-size="14.00">Code identifying status of patient as of</text>
<text xml:space="preserve" text-anchor="start" x="894.62" y="-265.25" font-family="Times,serif" font-size="14.00">CLM_THRU_DT</text>
<polygon fill="none" stroke="black" points="810,-233.5 810,-345 1077.5,-345 1077.5,-233.5 810,-233.5"/>
</a>
</g>
</g>
<!-- cms.medpar_2013.DSCHRGCD&#45;&gt;medicare.ip.dschrgcd -->
<g id="edge7" class="edge">
<title>cms.medpar_2013.DSCHRGCD&#45;&gt;medicare.ip.dschrgcd</title>
<path fill="none" stroke="chocolate" stroke-width="2" d="M801.51,-267.38C675.91,-247.5 509.67,-217.06 489.75,-192.5 456.29,-151.25 456.02,-114.03 489.75,-73 512.98,-44.75 603.98,-31.04 674.81,-24.55"/>
<polygon fill="chocolate" stroke="chocolate" stroke-width="2" points="675.11,-28.04 684.77,-23.68 674.5,-21.06 675.11,-28.04"/>
<text xml:space="preserve" text-anchor="middle" x="505.12" y="-127.7" font-family="Times,serif" font-size="14.00">union</text>
</g>
<!-- cms.medpar_2015.DSCHRGCD -->
<g id="node6" class="node">
<title>cms.medpar_2015.DSCHRGCD</title>
<g id="a_node6"><a xlink:href="../cms.medpar_2015/DSCHRGCD.html" xlink:title="&lt;TABLE&gt;" target="_blank">
<polygon fill="none" stroke="black" points="783.5,-192.5 500,-192.5 500,-73 783.5,-73 783.5,-192.5"/>
<text xml:space="preserve" text-anchor="start" x="547.25" y="-171.2" font-family="Times,serif" font-weight="bold" font-size="14.00">cms.medpar_2015.DSCHRGCD</text>
<text xml:space="preserve" text-anchor="start" x="536" y="-125.25" font-family="Times,serif" font-size="14.00">Code identifying status of patient as of</text>
<text xml:space="preserve" text-anchor="start" x="592.62" y="-108.75" font-family="Times,serif" font-size="14.00">CLM_THRU_DT</text>
<polygon fill="none" stroke="black" points="508,-77 508,-188.5 775.5,-188.5 775.5,-77 508,-77"/>
</a>
</g>
</g>
<!-- cms.medpar_2013.DSCHRGCD&#45;&gt;cms.medpar_2015.DSCHRGCD -->
<!-- cms.medpar_2016.DSCHRGCD -->
<g id="node7" class="node">
<title>cms.medpar_2016.DSCHRGCD</title>
<g id="a_node7"><a xlink:href="../cms.medpar_2016/DSCHRGCD.html" xlink:title="&lt;TABLE&gt;" target="_blank">
<polygon fill="none" stroke="black" points="1085.5,-192.5 802,-192.5 802,-73 1085.5,-73 1085.5,-192.5"/>
<text xml:space="preserve" text-anchor="start" x="849.25" y="-171.2" font-family="Times,serif" font-weight="bold" font-size="14.00">cms.medpar_2016.DSCHRGCD</text>
<text xml:space="preserve" text-anchor="start" x="838" y="-125.25" font-family="Times,serif" font-size="14.00">Code identifying status of patient as of</text>
<text xml:space="preserve" text-anchor="start" x="894.62" y="-108.75" font-family="Times,serif" font-size="14.00">CLM_THRU_DT</text>
<polygon fill="none" stroke="black" points="810,-77 810,-188.5 1077.5,-188.5 1077.5,-77 810,-77"/>
</a>
</g>
</g>
<!-- cms.medpar_2013.DSCHRGCD&#45;&gt;cms.medpar_2016.DSCHRGCD -->
<!-- cms.medpar_2017.DSCHRGCD -->
<g id="node8" class="node">
<title>cms.medpar_2017.DSCHRGCD</title>
<g id="a_node8"><a xlink:href="../cms.medpar_2017/DSCHRGCD.html" xlink:title="&lt;TABLE&gt;" target="_blank">
<polygon fill="none" stroke="black" points="1387.5,-192.5 1104,-192.5 1104,-73 1387.5,-73 1387.5,-192.5"/>
<text xml:space="preserve" text-anchor="start" x="1151.25" y="-171.2" font-family="Times,serif" font-weight="bold" font-size="14.00">cms.medpar_2017.DSCHRGCD</text>
<text xml:space="preserve" text-anchor="start" x="1140" y="-125.25" font-family="Times,serif" font-size="14.00">Code identifying status of patient as of</text>
<text xml:space="preserve" text-anchor="start" x="1196.62" y="-108.75" font-family="Times,serif" font-size="14.00">CLM_THRU_DT</text>
<polygon fill="none" stroke="black" points="1112,-77 1112,-188.5 1379.5,-188.5 1379.5,-77 1112,-77"/>
</a>
</g>
</g>
<!-- cms.medpar_2013.DSCHRGCD&#45;&gt;cms.medpar_2017.DSCHRGCD -->
<!-- cms.medpar_2018.DSCHRGCD -->
<g id="node9" class="node">
<title>cms.medpar_2018.DSCHRGCD</title>
<g id="a_node9"><a xlink:href="../cms.medpar_2018/DSCHRGCD.html" xlink:title="&lt;TABLE&gt;" target="_blank">
<polygon fill="none" stroke="black" points="1689.5,-192.5 1406,-192.5 1406,-73 1689.5,-73 1689.5,-192.5"/>
<text xml:space="preserve" text-anchor="start" x="1453.25" y="-171.2" font-family="Times,serif" font-weight="bold" font-size="14.00">cms.medpar_2018.DSCHRGCD</text>
<text xml:space="preserve" text-anchor="start" x="1442" y="-125.25" font-family="Times,serif" font-size="14.00">Code identifying status of patient as of</text>
<text xml:space="preserve" text-anchor="start" x="1498.62" y="-108.75" font-family="Times,serif" font-size="14.00">CLM_THRU_DT</text>
<polygon fill="none" stroke="black" points="1414,-77 1414,-188.5 1681.5,-188.5 1681.5,-77 1414,-77"/>
</a>
</g>
</g>
<!-- cms.medpar_2013.DSCHRGCD&#45;&gt;cms.medpar_2018.DSCHRGCD -->
<!-- cms.medpar_2014.DSCHRGCD -->
<g id="node5" class="node">
<title>cms.medpar_2014.DSCHRGCD</title>
<g id="a_node5"><a xlink:href="../cms.medpar_2014/DSCHRGCD.html" xlink:title="&lt;TABLE&gt;" target="_blank">
<polygon fill="none" stroke="black" points="1867.5,-349 1584,-349 1584,-229.5 1867.5,-229.5 1867.5,-349"/>
<text xml:space="preserve" text-anchor="start" x="1631.25" y="-327.7" font-family="Times,serif" font-weight="bold" font-size="14.00">cms.medpar_2014.DSCHRGCD</text>
<text xml:space="preserve" text-anchor="start" x="1620" y="-281.75" font-family="Times,serif" font-size="14.00">Code identifying status of patient as of</text>
<text xml:space="preserve" text-anchor="start" x="1676.62" y="-265.25" font-family="Times,serif" font-size="14.00">CLM_THRU_DT</text>
<polygon fill="none" stroke="black" points="1592,-233.5 1592,-345 1859.5,-345 1859.5,-233.5 1592,-233.5"/>
</a>
</g>
</g>
<!-- cms.medpar_2014.DSCHRGCD&#45;&gt;medicare.ip.dschrgcd -->
<g id="edge8" class="edge">
<title>cms.medpar_2014.DSCHRGCD&#45;&gt;medicare.ip.dschrgcd</title>
<path fill="none" stroke="chocolate" stroke-width="2" d="M1736.76,-229.41C1742.23,-180.2 1740.43,-111.97 1698.75,-73 1668.13,-44.37 1079.97,-26.82 852.5,-21.08"/>
<polygon fill="chocolate" stroke="chocolate" stroke-width="2" points="852.78,-17.59 842.7,-20.84 852.61,-24.59 852.78,-17.59"/>
<text xml:space="preserve" text-anchor="middle" x="1754.37" y="-127.7" font-family="Times,serif" font-size="14.00">union</text>
</g>
<!-- cms.medpar_2015.DSCHRGCD&#45;&gt;medicare.ip.dschrgcd -->
<g id="edge9" class="edge">
<title>cms.medpar_2015.DSCHRGCD&#45;&gt;medicare.ip.dschrgcd</title>
<path fill="none" stroke="chocolate" stroke-width="2" d="M705.61,-72.73C716.08,-63.06 726.44,-53.48 735.45,-45.16"/>
<polygon fill="chocolate" stroke="chocolate" stroke-width="2" points="737.79,-47.76 742.76,-38.4 733.04,-42.62 737.79,-47.76"/>
<text xml:space="preserve" text-anchor="middle" x="740.52" y="-49.45" font-family="Times,serif" font-size="14.00">union</text>
</g>
<!-- cms.medpar_2016.DSCHRGCD&#45;&gt;medicare.ip.dschrgcd -->
<g id="edge10" class="edge">
<title>cms.medpar_2016.DSCHRGCD&#45;&gt;medicare.ip.dschrgcd</title>
<path fill="none" stroke="chocolate" stroke-width="2" d="M849.27,-72.57C832.53,-62.08 815.99,-51.72 801.99,-42.95"/>
<polygon fill="chocolate" stroke="chocolate" stroke-width="2" points="804.24,-40.23 793.91,-37.89 800.53,-46.17 804.24,-40.23"/>
<text xml:space="preserve" text-anchor="middle" x="836.08" y="-49.45" font-family="Times,serif" font-size="14.00">union</text>
</g>
<!-- cms.medpar_2017.DSCHRGCD&#45;&gt;medicare.ip.dschrgcd -->
<g id="edge11" class="edge">
<title>cms.medpar_2017.DSCHRGCD&#45;&gt;medicare.ip.dschrgcd</title>
<path fill="none" stroke="chocolate" stroke-width="2" d="M1103.76,-75.55C1100.74,-74.67 1097.74,-73.81 1094.75,-73 1014.01,-50.97 919.59,-36.65 852.3,-28.34"/>
<polygon fill="chocolate" stroke="chocolate" stroke-width="2" points="853,-24.89 842.65,-27.17 852.15,-31.84 853,-24.89"/>
<text xml:space="preserve" text-anchor="middle" x="1029.6" y="-49.45" font-family="Times,serif" font-size="14.00">union</text>
</g>
<!-- cms.medpar_2018.DSCHRGCD&#45;&gt;medicare.ip.dschrgcd -->
<g id="edge12" class="edge">
<title>cms.medpar_2018.DSCHRGCD&#45;&gt;medicare.ip.dschrgcd</title>
<path fill="none" stroke="chocolate" stroke-width="2" d="M1405.84,-75.24C1402.8,-74.45 1399.76,-73.7 1396.75,-73 1206.34,-28.8 976.19,-19.92 852.58,-18.64"/>
<polygon fill="chocolate" stroke="chocolate" stroke-width="2" points="852.92,-15.14 842.89,-18.56 852.86,-22.14 852.92,-15.14"/>
<text xml:space="preserve" text-anchor="middle" x="1318.94" y="-49.45" font-family="Times,serif" font-size="14.00">union</text>
</g>
</g>
</svg>
