<?xml version="1.0" encoding="UTF-8" standalone="no"?>
<!DOCTYPE svg PUBLIC "-//W3C//DTD SVG 1.1//EN"
 "http://www.w3.org/Graphics/SVG/1.1/DTD/svg11.dtd">
<!-- Generated by graphviz version 10.0.1 (20240210.2158)
 -->
<!-- Pages: 1 -->
<svg width="1876pt" height="441pt"
 viewBox="0.00 0.00 1875.50 440.50" xmlns="http://www.w3.org/2000/svg" xmlns:xlink="http://www.w3.org/1999/xlink">
<g id="graph0" class="graph" transform="scale(1 1) rotate(0) translate(4 436.5)">
<polygon fill="white" stroke="none" points="-4,4 -4,-436.5 1871.5,-436.5 1871.5,4 -4,4"/>
<!-- medicare.ip.dschrgcd -->
<g id="node1" class="node">
<title>medicare.ip.dschrgcd</title>
<g id="a_node1"><a xlink:href="../medicare.ip/dschrgcd.html" xlink:title="&lt;TABLE&gt;" target="_blank">
<polygon fill="none" stroke="black" points="905.5,-119.5 622,-119.5 622,0 905.5,0 905.5,-119.5"/>
<text text-anchor="start" x="701.12" y="-98.2" font-family="Times,serif" font-weight="bold" font-size="14.00">medicare.ip.dschrgcd</text>
<text text-anchor="start" x="658" y="-51.7" font-family="Times,serif" font-size="14.00">Code identifying status of patient as of</text>
<text text-anchor="start" x="714.62" y="-35.2" font-family="Times,serif" font-size="14.00">CLM_THRU_DT</text>
<polygon fill="none" stroke="black" points="630,-4 630,-115.5 897.5,-115.5 897.5,-4 630,-4"/>
</a>
</g>
</g>
<!-- cms.medpar_2011.DSCHRGCD -->
<g id="node2" class="node">
<title>cms.medpar_2011.DSCHRGCD</title>
<g id="a_node2"><a xlink:href="../cms.medpar_2011/DSCHRGCD.html" xlink:title="&lt;TABLE&gt;" target="_blank">
<polygon fill="none" stroke="black" points="283.5,-432.5 0,-432.5 0,-313 283.5,-313 283.5,-432.5"/>
<text text-anchor="start" x="47.62" y="-411.2" font-family="Times,serif" font-weight="bold" font-size="14.00">cms.medpar_2011.DSCHRGCD</text>
<text text-anchor="start" x="36" y="-364.7" font-family="Times,serif" font-size="14.00">Code identifying status of patient as of</text>
<text text-anchor="start" x="92.62" y="-348.2" font-family="Times,serif" font-size="14.00">CLM_THRU_DT</text>
<polygon fill="none" stroke="black" points="8,-317 8,-428.5 275.5,-428.5 275.5,-317 8,-317"/>
</a>
</g>
</g>
<!-- cms.medpar_2011.DSCHRGCD&#45;&gt;medicare.ip.dschrgcd -->
<g id="edge5" class="edge">
<title>cms.medpar_2011.DSCHRGCD&#45;&gt;medicare.ip.dschrgcd</title>
<path fill="none" stroke="chocolate" stroke-width="2" d="M208.16,-312.71C263.61,-265.68 346.29,-200.64 426.75,-156.5 482.88,-125.71 549.83,-104.05 609.21,-89.22"/>
<polygon fill="chocolate" stroke="chocolate" stroke-width="2" points="609.93,-92.65 618.82,-86.88 608.27,-85.85 609.93,-92.65"/>
<text text-anchor="middle" x="442.12" y="-211.2" font-family="Times,serif" font-size="14.00">union</text>
</g>
<!-- cms.medpar_2012.DSCHRGCD -->
<g id="node3" class="node">
<title>cms.medpar_2012.DSCHRGCD</title>
<g id="a_node3"><a xlink:href="../cms.medpar_2012/DSCHRGCD.html" xlink:title="&lt;TABLE&gt;" target="_blank">
<polygon fill="none" stroke="black" points="585.5,-432.5 302,-432.5 302,-313 585.5,-313 585.5,-432.5"/>
<text text-anchor="start" x="349.25" y="-411.2" font-family="Times,serif" font-weight="bold" font-size="14.00">cms.medpar_2012.DSCHRGCD</text>
<text text-anchor="start" x="338" y="-364.7" font-family="Times,serif" font-size="14.00">Code identifying status of patient as of</text>
<text text-anchor="start" x="394.62" y="-348.2" font-family="Times,serif" font-size="14.00">CLM_THRU_DT</text>
<polygon fill="none" stroke="black" points="310,-317 310,-428.5 577.5,-428.5 577.5,-317 310,-317"/>
</a>
</g>
</g>
<!-- cms.medpar_2012.DSCHRGCD&#45;&gt;medicare.ip.dschrgcd -->
<g id="edge6" class="edge">
<title>cms.medpar_2012.DSCHRGCD&#45;&gt;medicare.ip.dschrgcd</title>
<path fill="none" stroke="chocolate" stroke-width="2" d="M433.26,-312.51C428.35,-265.99 429.28,-201.73 460.75,-156.5 479.17,-130.02 544.01,-107.74 609.01,-91.37"/>
<polygon fill="chocolate" stroke="chocolate" stroke-width="2" points="609.75,-94.79 618.62,-89 608.08,-87.99 609.75,-94.79"/>
<text text-anchor="middle" x="476.12" y="-211.2" font-family="Times,serif" font-size="14.00">union</text>
</g>
<!-- cms.medpar_2013.DSCHRGCD -->
<g id="node4" class="node">
<title>cms.medpar_2013.DSCHRGCD</title>
<g id="a_node4"><a xlink:href="../cms.medpar_2013/DSCHRGCD.html" xlink:title="&lt;TABLE&gt;" target="_blank">
<polygon fill="none" stroke="black" points="1085.5,-432.5 802,-432.5 802,-313 1085.5,-313 1085.5,-432.5"/>
<text text-anchor="start" x="849.25" y="-411.2" font-family="Times,serif" font-weight="bold" font-size="14.00">cms.medpar_2013.DSCHRGCD</text>
<text text-anchor="start" x="838" y="-364.7" font-family="Times,serif" font-size="14.00">Code identifying status of patient as of</text>
<text text-anchor="start" x="894.62" y="-348.2" font-family="Times,serif" font-size="14.00">CLM_THRU_DT</text>
<polygon fill="none" stroke="black" points="810,-317 810,-428.5 1077.5,-428.5 1077.5,-317 810,-317"/>
</a>
</g>
</g>
<!-- cms.medpar_2013.DSCHRGCD&#45;&gt;medicare.ip.dschrgcd -->
<g id="edge7" class="edge">
<title>cms.medpar_2013.DSCHRGCD&#45;&gt;medicare.ip.dschrgcd</title>
<path fill="none" stroke="chocolate" stroke-width="2" d="M801.51,-350.88C675.91,-331 509.67,-300.56 489.75,-276 456.29,-234.75 459.01,-199.81 489.75,-156.5 517.8,-116.99 563.43,-93.65 609.49,-79.91"/>
<polygon fill="chocolate" stroke="chocolate" stroke-width="2" points="610.23,-83.34 618.91,-77.27 608.34,-76.6 610.23,-83.34"/>
<text text-anchor="middle" x="505.12" y="-211.2" font-family="Times,serif" font-size="14.00">union</text>
</g>
<!-- cms.medpar_2015.DSCHRGCD -->
<g id="node6" class="node">
<title>cms.medpar_2015.DSCHRGCD</title>
<g id="a_node6"><a xlink:href="../cms.medpar_2015/DSCHRGCD.html" xlink:title="&lt;TABLE&gt;" target="_blank">
<polygon fill="none" stroke="black" points="783.5,-276 500,-276 500,-156.5 783.5,-156.5 783.5,-276"/>
<text text-anchor="start" x="547.25" y="-254.7" font-family="Times,serif" font-weight="bold" font-size="14.00">cms.medpar_2015.DSCHRGCD</text>
<text text-anchor="start" x="536" y="-208.2" font-family="Times,serif" font-size="14.00">Code identifying status of patient as of</text>
<text text-anchor="start" x="592.62" y="-191.7" font-family="Times,serif" font-size="14.00">CLM_THRU_DT</text>
<polygon fill="none" stroke="black" points="508,-160.5 508,-272 775.5,-272 775.5,-160.5 508,-160.5"/>
</a>
</g>
</g>
<!-- cms.medpar_2013.DSCHRGCD&#45;&gt;cms.medpar_2015.DSCHRGCD -->
<!-- cms.medpar_2016.DSCHRGCD -->
<g id="node7" class="node">
<title>cms.medpar_2016.DSCHRGCD</title>
<g id="a_node7"><a xlink:href="../cms.medpar_2016/DSCHRGCD.html" xlink:title="&lt;TABLE&gt;" target="_blank">
<polygon fill="none" stroke="black" points="1085.5,-276 802,-276 802,-156.5 1085.5,-156.5 1085.5,-276"/>
<text text-anchor="start" x="849.25" y="-254.7" font-family="Times,serif" font-weight="bold" font-size="14.00">cms.medpar_2016.DSCHRGCD</text>
<text text-anchor="start" x="838" y="-208.2" font-family="Times,serif" font-size="14.00">Code identifying status of patient as of</text>
<text text-anchor="start" x="894.62" y="-191.7" font-family="Times,serif" font-size="14.00">CLM_THRU_DT</text>
<polygon fill="none" stroke="black" points="810,-160.5 810,-272 1077.5,-272 1077.5,-160.5 810,-160.5"/>
</a>
</g>
</g>
<!-- cms.medpar_2013.DSCHRGCD&#45;&gt;cms.medpar_2016.DSCHRGCD -->
<!-- cms.medpar_2017.DSCHRGCD -->
<g id="node8" class="node">
<title>cms.medpar_2017.DSCHRGCD</title>
<g id="a_node8"><a xlink:href="../cms.medpar_2017/DSCHRGCD.html" xlink:title="&lt;TABLE&gt;" target="_blank">
<polygon fill="none" stroke="black" points="1387.5,-276 1104,-276 1104,-156.5 1387.5,-156.5 1387.5,-276"/>
<text text-anchor="start" x="1151.25" y="-254.7" font-family="Times,serif" font-weight="bold" font-size="14.00">cms.medpar_2017.DSCHRGCD</text>
<text text-anchor="start" x="1140" y="-208.2" font-family="Times,serif" font-size="14.00">Code identifying status of patient as of</text>
<text text-anchor="start" x="1196.62" y="-191.7" font-family="Times,serif" font-size="14.00">CLM_THRU_DT</text>
<polygon fill="none" stroke="black" points="1112,-160.5 1112,-272 1379.5,-272 1379.5,-160.5 1112,-160.5"/>
</a>
</g>
</g>
<!-- cms.medpar_2013.DSCHRGCD&#45;&gt;cms.medpar_2017.DSCHRGCD -->
<!-- cms.medpar_2018.DSCHRGCD -->
<g id="node9" class="node">
<title>cms.medpar_2018.DSCHRGCD</title>
<g id="a_node9"><a xlink:href="../cms.medpar_2018/DSCHRGCD.html" xlink:title="&lt;TABLE&gt;" target="_blank">
<polygon fill="none" stroke="black" points="1689.5,-276 1406,-276 1406,-156.5 1689.5,-156.5 1689.5,-276"/>
<text text-anchor="start" x="1453.25" y="-254.7" font-family="Times,serif" font-weight="bold" font-size="14.00">cms.medpar_2018.DSCHRGCD</text>
<text text-anchor="start" x="1442" y="-208.2" font-family="Times,serif" font-size="14.00">Code identifying status of patient as of</text>
<text text-anchor="start" x="1498.62" y="-191.7" font-family="Times,serif" font-size="14.00">CLM_THRU_DT</text>
<polygon fill="none" stroke="black" points="1414,-160.5 1414,-272 1681.5,-272 1681.5,-160.5 1414,-160.5"/>
</a>
</g>
</g>
<!-- cms.medpar_2013.DSCHRGCD&#45;&gt;cms.medpar_2018.DSCHRGCD -->
<!-- cms.medpar_2014.DSCHRGCD -->
<g id="node5" class="node">
<title>cms.medpar_2014.DSCHRGCD</title>
<g id="a_node5"><a xlink:href="../cms.medpar_2014/DSCHRGCD.html" xlink:title="&lt;TABLE&gt;" target="_blank">
<polygon fill="none" stroke="black" points="1867.5,-432.5 1584,-432.5 1584,-313 1867.5,-313 1867.5,-432.5"/>
<text text-anchor="start" x="1631.25" y="-411.2" font-family="Times,serif" font-weight="bold" font-size="14.00">cms.medpar_2014.DSCHRGCD</text>
<text text-anchor="start" x="1620" y="-364.7" font-family="Times,serif" font-size="14.00">Code identifying status of patient as of</text>
<text text-anchor="start" x="1676.62" y="-348.2" font-family="Times,serif" font-size="14.00">CLM_THRU_DT</text>
<polygon fill="none" stroke="black" points="1592,-317 1592,-428.5 1859.5,-428.5 1859.5,-317 1592,-317"/>
</a>
</g>
</g>
<!-- cms.medpar_2014.DSCHRGCD&#45;&gt;medicare.ip.dschrgcd -->
<g id="edge8" class="edge">
<title>cms.medpar_2014.DSCHRGCD&#45;&gt;medicare.ip.dschrgcd</title>
<path fill="none" stroke="chocolate" stroke-width="2" d="M1736.37,-312.88C1741.5,-264 1739.42,-196.25 1698.75,-156.5 1644.16,-103.14 1169.83,-76.63 918.53,-66.23"/>
<polygon fill="chocolate" stroke="chocolate" stroke-width="2" points="918.79,-62.73 908.65,-65.82 918.5,-69.73 918.79,-62.73"/>
<text text-anchor="middle" x="1753.12" y="-211.2" font-family="Times,serif" font-size="14.00">union</text>
</g>
<!-- cms.medpar_2015.DSCHRGCD&#45;&gt;medicare.ip.dschrgcd -->
<g id="edge9" class="edge">
<title>cms.medpar_2015.DSCHRGCD&#45;&gt;medicare.ip.dschrgcd</title>
<path fill="none" stroke="chocolate" stroke-width="2" d="M688.22,-156.4C695,-147.82 702.03,-138.92 708.95,-130.15"/>
<polygon fill="chocolate" stroke="chocolate" stroke-width="2" points="711.68,-132.34 715.13,-122.32 706.18,-128 711.68,-132.34"/>
<text text-anchor="middle" x="718.12" y="-132.95" font-family="Times,serif" font-size="14.00">union</text>
</g>
<!-- cms.medpar_2016.DSCHRGCD&#45;&gt;medicare.ip.dschrgcd -->
<g id="edge10" class="edge">
<title>cms.medpar_2016.DSCHRGCD&#45;&gt;medicare.ip.dschrgcd</title>
<path fill="none" stroke="chocolate" stroke-width="2" d="M874.93,-156.18C864.29,-147.05 853.23,-137.56 842.4,-128.26"/>
<polygon fill="chocolate" stroke="chocolate" stroke-width="2" points="844.7,-125.62 834.83,-121.76 840.14,-130.93 844.7,-125.62"/>
<text text-anchor="middle" x="869.12" y="-132.95" font-family="Times,serif" font-size="14.00">union</text>
</g>
<!-- cms.medpar_2017.DSCHRGCD&#45;&gt;medicare.ip.dschrgcd -->
<g id="edge11" class="edge">
<title>cms.medpar_2017.DSCHRGCD&#45;&gt;medicare.ip.dschrgcd</title>
<path fill="none" stroke="chocolate" stroke-width="2" d="M1103.62,-159.54C1100.64,-158.51 1097.68,-157.49 1094.75,-156.5 1037.6,-137.16 974.11,-118.2 918.15,-102.32"/>
<polygon fill="chocolate" stroke="chocolate" stroke-width="2" points="919.44,-99.05 908.87,-99.7 917.54,-105.78 919.44,-99.05"/>
<text text-anchor="middle" x="1052.12" y="-132.95" font-family="Times,serif" font-size="14.00">union</text>
</g>
<!-- cms.medpar_2018.DSCHRGCD&#45;&gt;medicare.ip.dschrgcd -->
<g id="edge12" class="edge">
<title>cms.medpar_2018.DSCHRGCD&#45;&gt;medicare.ip.dschrgcd</title>
<path fill="none" stroke="chocolate" stroke-width="2" d="M1405.78,-159.01C1402.75,-158.13 1399.74,-157.3 1396.75,-156.5 1236.43,-113.75 1047.85,-88.3 918.47,-74.51"/>
<polygon fill="chocolate" stroke="chocolate" stroke-width="2" points="919.07,-71.05 908.76,-73.49 918.34,-78.01 919.07,-71.05"/>
<text text-anchor="middle" x="1337.12" y="-132.95" font-family="Times,serif" font-size="14.00">union</text>
</g>
</g>
</svg>
