<?xml version="1.0" encoding="UTF-8" standalone="no"?>
<!DOCTYPE svg PUBLIC "-//W3C//DTD SVG 1.1//EN"
 "http://www.w3.org/Graphics/SVG/1.1/DTD/svg11.dtd">
<!-- Generated by graphviz version 10.0.1 (20240210.2158)
 -->
<!-- Pages: 1 -->
<svg width="224pt" height="262pt"
 viewBox="0.00 0.00 224.00 262.00" xmlns="http://www.w3.org/2000/svg" xmlns:xlink="http://www.w3.org/1999/xlink">
<g id="graph0" class="graph" transform="scale(1 1) rotate(0) translate(4 258)">
<polygon fill="white" stroke="none" points="-4,4 -4,-258 220,-258 220,4 -4,4"/>
<!-- medicare.admissions.dschrgcd -->
<g id="node1" class="node">
<title>medicare.admissions.dschrgcd</title>
<g id="a_node1"><a xlink:href="../medicare.admissions/dschrgcd.html" xlink:title="&lt;TABLE&gt;" target="_blank">
<polygon fill="none" stroke="black" points="209.88,-36 6.12,-36 6.12,0 209.88,0 209.88,-36"/>
<text text-anchor="start" x="19.12" y="-13.95" font-family="Times,serif" font-weight="bold" font-size="14.00">medicare.admissions.dschrgcd</text>
<polygon fill="none" stroke="black" points="14.12,-4.75 14.12,-31.25 201.88,-31.25 201.88,-4.75 14.12,-4.75"/>
</a>
</g>
</g>
<!-- medicare.ip.dschrgcd -->
<g id="node2" class="node">
<title>medicare.ip.dschrgcd</title>
<g id="a_node2"><a xlink:href="../medicare.ip/dschrgcd.html" xlink:title="&lt;TABLE&gt;" target="_blank">
<polygon fill="none" stroke="black" points="183.62,-109 32.38,-109 32.38,-73 183.62,-73 183.62,-109"/>
<text text-anchor="start" x="45.38" y="-86.95" font-family="Times,serif" font-weight="bold" font-size="14.00">medicare.ip.dschrgcd</text>
<polygon fill="none" stroke="black" points="40.38,-77.75 40.38,-104.25 175.62,-104.25 175.62,-77.75 40.38,-77.75"/>
</a>
</g>
</g>
<!-- medicare.ip.dschrgcd&#45;&gt;medicare.admissions.dschrgcd -->
<g id="edge1" class="edge">
<title>medicare.ip.dschrgcd&#45;&gt;medicare.admissions.dschrgcd</title>
<path fill="none" stroke="black" d="M108,-72.81C108,-65.23 108,-56.1 108,-47.54"/>
<polygon fill="black" stroke="black" points="111.5,-47.54 108,-37.54 104.5,-47.54 111.5,-47.54"/>
<text text-anchor="middle" x="127.5" y="-49.45" font-family="Times,serif" font-size="14.00">Copied</text>
</g>
<!-- medicare.ip.dschrgcd_parent -->
<g id="node3" class="node">
<title>medicare.ip.dschrgcd_parent</title>
<g id="a_node3"><a xlink:href="../medicare.ip/dschrgcd.html" xlink:title="8 incoming links (columns)" target="_blank">
<path fill="yellow" stroke="black" d="M216,-244.18C216,-249.6 167.59,-254 108,-254 48.41,-254 0,-249.6 0,-244.18 0,-244.18 0,-155.82 0,-155.82 0,-150.4 48.41,-146 108,-146 167.59,-146 216,-150.4 216,-155.82 216,-155.82 216,-244.18 216,-244.18"/>
<path fill="none" stroke="black" d="M216,-244.18C216,-238.76 167.59,-234.36 108,-234.36 48.41,-234.36 0,-238.76 0,-244.18"/>
<text text-anchor="middle" x="108" y="-194.95" font-family="Times,serif" font-size="14.00">8 incoming links (columns)</text>
</a>
</g>
</g>
<!-- medicare.ip.dschrgcd_parent&#45;&gt;medicare.ip.dschrgcd -->
<g id="edge2" class="edge">
<title>medicare.ip.dschrgcd_parent&#45;&gt;medicare.ip.dschrgcd</title>
<path fill="none" stroke="goldenrod" stroke-width="6" d="M108,-145.5C108,-138.71 108,-131.92 108,-125.57"/>
<polygon fill="goldenrod" stroke="goldenrod" stroke-width="6" points="113.25,-125.65 108,-115.65 102.75,-125.65 113.25,-125.65"/>
</g>
</g>
</svg>
