<?xml version="1.0" encoding="UTF-8" standalone="no"?>
<!DOCTYPE svg PUBLIC "-//W3C//DTD SVG 1.1//EN"
 "http://www.w3.org/Graphics/SVG/1.1/DTD/svg11.dtd">
<!-- Generated by graphviz version 10.0.1 (20240210.2158)
 -->
<!-- Pages: 1 -->
<svg width="292pt" height="429pt"
 viewBox="0.00 0.00 291.50 429.00" xmlns="http://www.w3.org/2000/svg" xmlns:xlink="http://www.w3.org/1999/xlink">
<g id="graph0" class="graph" transform="scale(1 1) rotate(0) translate(4 425)">
<polygon fill="white" stroke="none" points="-4,4 -4,-425 287.5,-425 287.5,4 -4,4"/>
<!-- medicare.admissions.dschrgcd -->
<g id="node1" class="node">
<title>medicare.admissions.dschrgcd</title>
<g id="a_node1"><a xlink:href="../medicare.admissions/dschrgcd.html" xlink:title="&lt;TABLE&gt;" target="_blank">
<polygon fill="none" stroke="black" points="283.5,-119.5 0,-119.5 0,0 283.5,0 283.5,-119.5"/>
<text text-anchor="start" x="52.88" y="-98.2" font-family="Times,serif" font-weight="bold" font-size="14.00">medicare.admissions.dschrgcd</text>
<text text-anchor="start" x="36" y="-51.7" font-family="Times,serif" font-size="14.00">Code identifying status of patient as of</text>
<text text-anchor="start" x="92.62" y="-35.2" font-family="Times,serif" font-size="14.00">CLM_THRU_DT</text>
<polygon fill="none" stroke="black" points="8,-4 8,-115.5 275.5,-115.5 275.5,-4 8,-4"/>
</a>
</g>
</g>
<!-- medicare.ip.dschrgcd -->
<g id="node2" class="node">
<title>medicare.ip.dschrgcd</title>
<g id="a_node2"><a xlink:href="../medicare.ip/dschrgcd.html" xlink:title="&lt;TABLE&gt;" target="_blank">
<polygon fill="none" stroke="black" points="283.5,-276 0,-276 0,-156.5 283.5,-156.5 283.5,-276"/>
<text text-anchor="start" x="79.12" y="-254.7" font-family="Times,serif" font-weight="bold" font-size="14.00">medicare.ip.dschrgcd</text>
<text text-anchor="start" x="36" y="-208.2" font-family="Times,serif" font-size="14.00">Code identifying status of patient as of</text>
<text text-anchor="start" x="92.62" y="-191.7" font-family="Times,serif" font-size="14.00">CLM_THRU_DT</text>
<polygon fill="none" stroke="black" points="8,-160.5 8,-272 275.5,-272 275.5,-160.5 8,-160.5"/>
</a>
</g>
</g>
<!-- medicare.ip.dschrgcd&#45;&gt;medicare.admissions.dschrgcd -->
<g id="edge1" class="edge">
<title>medicare.ip.dschrgcd&#45;&gt;medicare.admissions.dschrgcd</title>
<path fill="none" stroke="black" d="M141.75,-156.4C141.75,-148.19 141.75,-139.69 141.75,-131.29"/>
<polygon fill="black" stroke="black" points="145.25,-131.46 141.75,-121.46 138.25,-131.46 145.25,-131.46"/>
<text text-anchor="middle" x="161.25" y="-132.95" font-family="Times,serif" font-size="14.00">Copied</text>
</g>
<!-- medicare.ip.dschrgcd_parent -->
<g id="node3" class="node">
<title>medicare.ip.dschrgcd_parent</title>
<g id="a_node3"><a xlink:href="../medicare.ip/dschrgcd.html" xlink:title="8 incoming links (columns)" target="_blank">
<path fill="yellow" stroke="black" d="M249.75,-411.18C249.75,-416.6 201.34,-421 141.75,-421 82.16,-421 33.75,-416.6 33.75,-411.18 33.75,-411.18 33.75,-322.82 33.75,-322.82 33.75,-317.4 82.16,-313 141.75,-313 201.34,-313 249.75,-317.4 249.75,-322.82 249.75,-322.82 249.75,-411.18 249.75,-411.18"/>
<path fill="none" stroke="black" d="M249.75,-411.18C249.75,-405.76 201.34,-401.36 141.75,-401.36 82.16,-401.36 33.75,-405.76 33.75,-411.18"/>
<text text-anchor="middle" x="141.75" y="-361.95" font-family="Times,serif" font-size="14.00">8 incoming links (columns)</text>
</a>
</g>
</g>
<!-- medicare.ip.dschrgcd_parent&#45;&gt;medicare.ip.dschrgcd -->
<g id="edge2" class="edge">
<title>medicare.ip.dschrgcd_parent&#45;&gt;medicare.ip.dschrgcd</title>
<path fill="none" stroke="goldenrod" stroke-width="6" d="M141.75,-312.72C141.75,-306.2 141.75,-299.44 141.75,-292.68"/>
<polygon fill="goldenrod" stroke="goldenrod" stroke-width="6" points="147,-292.92 141.75,-282.92 136.5,-292.92 147,-292.92"/>
</g>
</g>
</svg>
