<?xml version="1.0" encoding="UTF-8" standalone="no"?>
<!DOCTYPE svg PUBLIC "-//W3C//DTD SVG 1.1//EN"
 "http://www.w3.org/Graphics/SVG/1.1/DTD/svg11.dtd">
<!-- Generated by graphviz version 14.1.4 (20260321.0153)
 -->
<!-- Pages: 1 -->
<svg width="1931pt" height="405pt"
 viewBox="0.00 0.00 1931.00 405.00" xmlns="http://www.w3.org/2000/svg" xmlns:xlink="http://www.w3.org/1999/xlink">
<g id="graph0" class="graph" transform="scale(1 1) rotate(0) translate(4 400.5)">
<polygon fill="white" stroke="none" points="-4,4 -4,-400.5 1927.25,-400.5 1927.25,4 -4,4"/>
<!-- medicare.ip.dschrg_dstntn_cd -->
<g id="node1" class="node">
<title>medicare.ip.dschrg_dstntn_cd</title>
<g id="a_node1"><a xlink:href="../medicare.ip/dschrg_dstntn_cd.html" xlink:title="&lt;TABLE&gt;" target="_blank">
<polygon fill="none" stroke="black" points="996.38,-83.5 576.88,-83.5 576.88,0 996.38,0 996.38,-83.5"/>
<text xml:space="preserve" text-anchor="start" x="589.88" y="-62.2" font-family="Times,serif" font-weight="bold" font-size="14.00">medicare.ip.dschrg_dstntn_cd</text>
<polygon fill="none" stroke="black" points="587.88,-31.5 587.88,-54 767.38,-54 767.38,-31.5 587.88,-31.5"/>
<text xml:space="preserve" text-anchor="start" x="590.88" y="-38.25" font-family="Times,serif" font-size="14.00">numeric →</text>
<polygon fill="none" stroke="black" points="769.38,-31.5 769.38,-54 985.38,-54 985.38,-31.5 769.38,-31.5"/>
<text xml:space="preserve" text-anchor="start" x="772.38" y="-38.25" font-family="Times,serif" font-size="14.00">TRIM(to_char({column_name}, &#39;99&#39;))</text>
<polygon fill="none" stroke="black" points="587.88,-7 587.88,-29.5 767.38,-29.5 767.38,-7 587.88,-7"/>
<text xml:space="preserve" text-anchor="start" x="590.88" y="-13.75" font-family="Times,serif" font-size="14.00">* →</text>
<polygon fill="none" stroke="black" points="769.38,-7 769.38,-29.5 985.38,-29.5 985.38,-7 769.38,-7"/>
<text xml:space="preserve" text-anchor="start" x="772.38" y="-13.75" font-family="Times,serif" font-size="14.00">{column_name}::VARCHAR</text>
<polygon fill="none" stroke="black" points="584.88,-4 584.88,-79.5 988.38,-79.5 988.38,-4 584.88,-4"/>
</a>
</g>
</g>
<!-- cms.medpar_2011.DSTNTNCD -->
<g id="node2" class="node">
<title>cms.medpar_2011.DSTNTNCD</title>
<g id="a_node2"><a xlink:href="../cms.medpar_2011/DSTNTNCD.html" xlink:title="&lt;TABLE&gt;" target="_blank">
<polygon fill="none" stroke="black" points="293.25,-396.5 0,-396.5 0,-277 293.25,-277 293.25,-396.5"/>
<text xml:space="preserve" text-anchor="start" x="54.38" y="-375.2" font-family="Times,serif" font-weight="bold" font-size="14.00">cms.medpar_2011.DSTNTNCD</text>
<text xml:space="preserve" text-anchor="start" x="36" y="-329.25" font-family="Times,serif" font-size="14.00">Destination upon discharge from facility</text>
<text xml:space="preserve" text-anchor="start" x="133.88" y="-312.75" font-family="Times,serif" font-size="14.00">code</text>
<polygon fill="none" stroke="black" points="8,-281 8,-392.5 285.25,-392.5 285.25,-281 8,-281"/>
</a>
</g>
</g>
<!-- cms.medpar_2011.DSTNTNCD&#45;&gt;medicare.ip.dschrg_dstntn_cd -->
<g id="edge5" class="edge">
<title>cms.medpar_2011.DSTNTNCD&#45;&gt;medicare.ip.dschrg_dstntn_cd</title>
<path fill="none" stroke="chocolate" stroke-width="2" d="M214.41,-276.66C271.23,-229.45 356.1,-164.18 438.62,-120.5 477.18,-100.1 520.87,-85.03 563.95,-73.92"/>
<polygon fill="chocolate" stroke="chocolate" stroke-width="2" points="564.6,-77.37 573.45,-71.55 562.9,-70.57 564.6,-77.37"/>
<text xml:space="preserve" text-anchor="middle" x="454" y="-175.2" font-family="Times,serif" font-size="14.00">union</text>
</g>
<!-- cms.medpar_2012.DSTNTNCD -->
<g id="node3" class="node">
<title>cms.medpar_2012.DSTNTNCD</title>
<g id="a_node3"><a xlink:href="../cms.medpar_2012/DSTNTNCD.html" xlink:title="&lt;TABLE&gt;" target="_blank">
<polygon fill="none" stroke="black" points="604.25,-396.5 311,-396.5 311,-277 604.25,-277 604.25,-396.5"/>
<text xml:space="preserve" text-anchor="start" x="365.38" y="-375.2" font-family="Times,serif" font-weight="bold" font-size="14.00">cms.medpar_2012.DSTNTNCD</text>
<text xml:space="preserve" text-anchor="start" x="347" y="-329.25" font-family="Times,serif" font-size="14.00">Destination upon discharge from facility</text>
<text xml:space="preserve" text-anchor="start" x="444.88" y="-312.75" font-family="Times,serif" font-size="14.00">code</text>
<polygon fill="none" stroke="black" points="319,-281 319,-392.5 596.25,-392.5 596.25,-281 319,-281"/>
</a>
</g>
</g>
<!-- cms.medpar_2012.DSTNTNCD&#45;&gt;medicare.ip.dschrg_dstntn_cd -->
<g id="edge6" class="edge">
<title>cms.medpar_2012.DSTNTNCD&#45;&gt;medicare.ip.dschrg_dstntn_cd</title>
<path fill="none" stroke="chocolate" stroke-width="2" d="M446.06,-276.88C440.3,-229.95 440.46,-164.95 473.62,-120.5 486.91,-102.69 522.03,-88.46 564.18,-77.28"/>
<polygon fill="chocolate" stroke="chocolate" stroke-width="2" points="564.78,-80.74 573.61,-74.89 563.06,-73.96 564.78,-80.74"/>
<text xml:space="preserve" text-anchor="middle" x="489" y="-175.2" font-family="Times,serif" font-size="14.00">union</text>
</g>
<!-- cms.medpar_2013.DSTNTNCD -->
<g id="node4" class="node">
<title>cms.medpar_2013.DSTNTNCD</title>
<g id="a_node4"><a xlink:href="../cms.medpar_2013/DSTNTNCD.html" xlink:title="&lt;TABLE&gt;" target="_blank">
<polygon fill="none" stroke="black" points="1118.25,-396.5 825,-396.5 825,-277 1118.25,-277 1118.25,-396.5"/>
<text xml:space="preserve" text-anchor="start" x="879.38" y="-375.2" font-family="Times,serif" font-weight="bold" font-size="14.00">cms.medpar_2013.DSTNTNCD</text>
<text xml:space="preserve" text-anchor="start" x="861" y="-329.25" font-family="Times,serif" font-size="14.00">Destination upon discharge from facility</text>
<text xml:space="preserve" text-anchor="start" x="958.88" y="-312.75" font-family="Times,serif" font-size="14.00">code</text>
<polygon fill="none" stroke="black" points="833,-281 833,-392.5 1110.25,-392.5 1110.25,-281 833,-281"/>
</a>
</g>
</g>
<!-- cms.medpar_2013.DSTNTNCD&#45;&gt;medicare.ip.dschrg_dstntn_cd -->
<g id="edge7" class="edge">
<title>cms.medpar_2013.DSTNTNCD&#45;&gt;medicare.ip.dschrg_dstntn_cd</title>
<path fill="none" stroke="chocolate" stroke-width="2" d="M824.51,-310.26C691.22,-286.45 514.02,-252.74 503.62,-240 470.04,-198.85 471.43,-162.74 503.62,-120.5 513.5,-107.55 536.1,-96.21 564.45,-86.5"/>
<polygon fill="chocolate" stroke="chocolate" stroke-width="2" points="565.17,-89.94 573.59,-83.51 563,-83.29 565.17,-89.94"/>
<text xml:space="preserve" text-anchor="middle" x="519" y="-175.2" font-family="Times,serif" font-size="14.00">union</text>
</g>
<!-- cms.medpar_2015.DSTNTNCD -->
<g id="node6" class="node">
<title>cms.medpar_2015.DSTNTNCD</title>
<g id="a_node6"><a xlink:href="../cms.medpar_2015/DSTNTNCD.html" xlink:title="&lt;TABLE&gt;" target="_blank">
<polygon fill="none" stroke="black" points="807.25,-240 514,-240 514,-120.5 807.25,-120.5 807.25,-240"/>
<text xml:space="preserve" text-anchor="start" x="568.38" y="-218.7" font-family="Times,serif" font-weight="bold" font-size="14.00">cms.medpar_2015.DSTNTNCD</text>
<text xml:space="preserve" text-anchor="start" x="550" y="-172.75" font-family="Times,serif" font-size="14.00">Destination upon discharge from facility</text>
<text xml:space="preserve" text-anchor="start" x="647.88" y="-156.25" font-family="Times,serif" font-size="14.00">code</text>
<polygon fill="none" stroke="black" points="522,-124.5 522,-236 799.25,-236 799.25,-124.5 522,-124.5"/>
</a>
</g>
</g>
<!-- cms.medpar_2013.DSTNTNCD&#45;&gt;cms.medpar_2015.DSTNTNCD -->
<!-- cms.medpar_2016.DSTNTNCD -->
<g id="node7" class="node">
<title>cms.medpar_2016.DSTNTNCD</title>
<g id="a_node7"><a xlink:href="../cms.medpar_2016/DSTNTNCD.html" xlink:title="&lt;TABLE&gt;" target="_blank">
<polygon fill="none" stroke="black" points="1118.25,-240 825,-240 825,-120.5 1118.25,-120.5 1118.25,-240"/>
<text xml:space="preserve" text-anchor="start" x="879.38" y="-218.7" font-family="Times,serif" font-weight="bold" font-size="14.00">cms.medpar_2016.DSTNTNCD</text>
<text xml:space="preserve" text-anchor="start" x="861" y="-172.75" font-family="Times,serif" font-size="14.00">Destination upon discharge from facility</text>
<text xml:space="preserve" text-anchor="start" x="958.88" y="-156.25" font-family="Times,serif" font-size="14.00">code</text>
<polygon fill="none" stroke="black" points="833,-124.5 833,-236 1110.25,-236 1110.25,-124.5 833,-124.5"/>
</a>
</g>
</g>
<!-- cms.medpar_2013.DSTNTNCD&#45;&gt;cms.medpar_2016.DSTNTNCD -->
<!-- cms.medpar_2017.DSTNTNCD -->
<g id="node8" class="node">
<title>cms.medpar_2017.DSTNTNCD</title>
<g id="a_node8"><a xlink:href="../cms.medpar_2017/DSTNTNCD.html" xlink:title="&lt;TABLE&gt;" target="_blank">
<polygon fill="none" stroke="black" points="1429.25,-240 1136,-240 1136,-120.5 1429.25,-120.5 1429.25,-240"/>
<text xml:space="preserve" text-anchor="start" x="1190.38" y="-218.7" font-family="Times,serif" font-weight="bold" font-size="14.00">cms.medpar_2017.DSTNTNCD</text>
<text xml:space="preserve" text-anchor="start" x="1172" y="-172.75" font-family="Times,serif" font-size="14.00">Destination upon discharge from facility</text>
<text xml:space="preserve" text-anchor="start" x="1269.88" y="-156.25" font-family="Times,serif" font-size="14.00">code</text>
<polygon fill="none" stroke="black" points="1144,-124.5 1144,-236 1421.25,-236 1421.25,-124.5 1144,-124.5"/>
</a>
</g>
</g>
<!-- cms.medpar_2013.DSTNTNCD&#45;&gt;cms.medpar_2017.DSTNTNCD -->
<!-- cms.medpar_2018.DSTNTNCD -->
<g id="node9" class="node">
<title>cms.medpar_2018.DSTNTNCD</title>
<g id="a_node9"><a xlink:href="../cms.medpar_2018/DSTNTNCD.html" xlink:title="&lt;TABLE&gt;" target="_blank">
<polygon fill="none" stroke="black" points="1740.25,-240 1447,-240 1447,-120.5 1740.25,-120.5 1740.25,-240"/>
<text xml:space="preserve" text-anchor="start" x="1501.38" y="-218.7" font-family="Times,serif" font-weight="bold" font-size="14.00">cms.medpar_2018.DSTNTNCD</text>
<text xml:space="preserve" text-anchor="start" x="1483" y="-172.75" font-family="Times,serif" font-size="14.00">Destination upon discharge from facility</text>
<text xml:space="preserve" text-anchor="start" x="1580.88" y="-156.25" font-family="Times,serif" font-size="14.00">code</text>
<polygon fill="none" stroke="black" points="1455,-124.5 1455,-236 1732.25,-236 1732.25,-124.5 1455,-124.5"/>
</a>
</g>
</g>
<!-- cms.medpar_2013.DSTNTNCD&#45;&gt;cms.medpar_2018.DSTNTNCD -->
<!-- cms.medpar_2014.DSTNTNCD -->
<g id="node5" class="node">
<title>cms.medpar_2014.DSTNTNCD</title>
<g id="a_node5"><a xlink:href="../cms.medpar_2014/DSTNTNCD.html" xlink:title="&lt;TABLE&gt;" target="_blank">
<polygon fill="none" stroke="black" points="1923.25,-396.5 1630,-396.5 1630,-277 1923.25,-277 1923.25,-396.5"/>
<text xml:space="preserve" text-anchor="start" x="1684.38" y="-375.2" font-family="Times,serif" font-weight="bold" font-size="14.00">cms.medpar_2014.DSTNTNCD</text>
<text xml:space="preserve" text-anchor="start" x="1666" y="-329.25" font-family="Times,serif" font-size="14.00">Destination upon discharge from facility</text>
<text xml:space="preserve" text-anchor="start" x="1763.88" y="-312.75" font-family="Times,serif" font-size="14.00">code</text>
<polygon fill="none" stroke="black" points="1638,-281 1638,-392.5 1915.25,-392.5 1915.25,-281 1638,-281"/>
</a>
</g>
</g>
<!-- cms.medpar_2014.DSTNTNCD&#45;&gt;medicare.ip.dschrg_dstntn_cd -->
<g id="edge8" class="edge">
<title>cms.medpar_2014.DSTNTNCD&#45;&gt;medicare.ip.dschrg_dstntn_cd</title>
<path fill="none" stroke="chocolate" stroke-width="2" d="M1787.46,-276.66C1792.73,-227.64 1790.72,-159.81 1749.62,-120.5 1697.28,-70.42 1277.03,-52.52 1009.27,-46.18"/>
<polygon fill="chocolate" stroke="chocolate" stroke-width="2" points="1009.74,-42.69 999.66,-45.96 1009.57,-49.69 1009.74,-42.69"/>
<text xml:space="preserve" text-anchor="middle" x="1804.93" y="-175.2" font-family="Times,serif" font-size="14.00">union</text>
</g>
<!-- cms.medpar_2015.DSTNTNCD&#45;&gt;medicare.ip.dschrg_dstntn_cd -->
<g id="edge9" class="edge">
<title>cms.medpar_2015.DSTNTNCD&#45;&gt;medicare.ip.dschrg_dstntn_cd</title>
<path fill="none" stroke="chocolate" stroke-width="2" d="M715.16,-120.17C723.46,-111.18 731.96,-101.97 740.08,-93.18"/>
<polygon fill="chocolate" stroke="chocolate" stroke-width="2" points="742.43,-95.79 746.64,-86.06 737.29,-91.04 742.43,-95.79"/>
<text xml:space="preserve" text-anchor="middle" x="747.48" y="-96.95" font-family="Times,serif" font-size="14.00">union</text>
</g>
<!-- cms.medpar_2016.DSTNTNCD&#45;&gt;medicare.ip.dschrg_dstntn_cd -->
<g id="edge10" class="edge">
<title>cms.medpar_2016.DSTNTNCD&#45;&gt;medicare.ip.dschrg_dstntn_cd</title>
<path fill="none" stroke="chocolate" stroke-width="2" d="M891.56,-120.17C878.59,-110.6 865.29,-100.79 852.7,-91.5"/>
<polygon fill="chocolate" stroke="chocolate" stroke-width="2" points="854.87,-88.76 844.75,-85.64 850.72,-94.39 854.87,-88.76"/>
<text xml:space="preserve" text-anchor="middle" x="882.05" y="-96.95" font-family="Times,serif" font-size="14.00">union</text>
</g>
<!-- cms.medpar_2017.DSTNTNCD&#45;&gt;medicare.ip.dschrg_dstntn_cd -->
<g id="edge11" class="edge">
<title>cms.medpar_2017.DSTNTNCD&#45;&gt;medicare.ip.dschrg_dstntn_cd</title>
<path fill="none" stroke="chocolate" stroke-width="2" d="M1135.53,-122.93C1132.88,-122.1 1130.24,-121.29 1127.62,-120.5 1087.02,-108.24 1043.18,-96.88 1000.9,-86.84"/>
<polygon fill="chocolate" stroke="chocolate" stroke-width="2" points="1001.92,-83.49 991.38,-84.61 1000.31,-90.3 1001.92,-83.49"/>
<text xml:space="preserve" text-anchor="middle" x="1078.6" y="-96.95" font-family="Times,serif" font-size="14.00">union</text>
</g>
<!-- cms.medpar_2018.DSTNTNCD&#45;&gt;medicare.ip.dschrg_dstntn_cd -->
<g id="edge12" class="edge">
<title>cms.medpar_2018.DSTNTNCD&#45;&gt;medicare.ip.dschrg_dstntn_cd</title>
<path fill="none" stroke="chocolate" stroke-width="2" d="M1446.63,-122.55C1443.95,-121.83 1441.28,-121.15 1438.62,-120.5 1298.14,-86.05 1136.73,-66.65 1009.66,-55.84"/>
<polygon fill="chocolate" stroke="chocolate" stroke-width="2" points="1009.96,-52.35 999.71,-55.01 1009.38,-59.33 1009.96,-52.35"/>
<text xml:space="preserve" text-anchor="middle" x="1371.31" y="-96.95" font-family="Times,serif" font-size="14.00">union</text>
</g>
</g>
</svg>
