<?xml version="1.0" encoding="UTF-8" standalone="no"?>
<!DOCTYPE svg PUBLIC "-//W3C//DTD SVG 1.1//EN"
 "http://www.w3.org/Graphics/SVG/1.1/DTD/svg11.dtd">
<!-- Generated by graphviz version 10.0.1 (20240210.2158)
 -->
<!-- Pages: 1 -->
<svg width="815pt" height="163pt"
 viewBox="0.00 0.00 815.25 163.00" xmlns="http://www.w3.org/2000/svg" xmlns:xlink="http://www.w3.org/1999/xlink">
<g id="graph0" class="graph" transform="scale(1 1) rotate(0) translate(4 159)">
<polygon fill="white" stroke="none" points="-4,4 -4,-159 811.25,-159 811.25,4 -4,4"/>
<!-- medicare.enrollments.dual_indicators -->
<g id="node1" class="node">
<title>medicare.enrollments.dual_indicators</title>
<g id="a_node1"><a xlink:href="../medicare.enrollments/dual_indicators.html" xlink:title="&lt;TABLE&gt;" target="_blank">
<polygon fill="none" stroke="black" points="807.25,-59 0,-59 0,0 807.25,0 807.25,-59"/>
<text text-anchor="start" x="293.38" y="-37.7" font-family="Times,serif" font-weight="bold" font-size="14.00">medicare.enrollments.dual_indicators</text>
<polygon fill="none" stroke="black" points="11,-7 11,-29.5 796.25,-29.5 796.25,-7 11,-7"/>
<text text-anchor="start" x="14" y="-13.2" font-family="Times,serif" font-size="14.00">(SELECT MAX(dual_indicators) FROM medicare.mbsf_d AS d WHERE medicare._ps.year = d.year and medicare._ps.bene_id = d.bene_id)</text>
<polygon fill="none" stroke="black" points="8,-4 8,-55 799.25,-55 799.25,-4 8,-4"/>
</a>
</g>
</g>
<!-- medicare._enrollments.dual_indicators -->
<g id="node2" class="node">
<title>medicare._enrollments.dual_indicators</title>
<g id="a_node2"><a xlink:href="../medicare._enrollments/dual_indicators.html" xlink:title="&lt;TABLE&gt;" target="_blank">
<polygon fill="none" stroke="black" points="807.25,-155 0,-155 0,-96 807.25,-96 807.25,-155"/>
<text text-anchor="start" x="290" y="-133.7" font-family="Times,serif" font-weight="bold" font-size="14.00">medicare._enrollments.dual_indicators</text>
<polygon fill="none" stroke="black" points="11,-103 11,-125.5 796.25,-125.5 796.25,-103 11,-103"/>
<text text-anchor="start" x="14" y="-109.2" font-family="Times,serif" font-size="14.00">(SELECT MAX(dual_indicators) FROM medicare.mbsf_d AS d WHERE medicare._ps.year = d.year and medicare._ps.bene_id = d.bene_id)</text>
<polygon fill="none" stroke="black" points="8,-100 8,-151 799.25,-151 799.25,-100 8,-100"/>
</a>
</g>
</g>
<!-- medicare._enrollments.dual_indicators&#45;&gt;medicare.enrollments.dual_indicators -->
<g id="edge1" class="edge">
<title>medicare._enrollments.dual_indicators&#45;&gt;medicare.enrollments.dual_indicators</title>
<path fill="none" stroke="black" d="M403.62,-95.53C403.62,-87.68 403.62,-79.05 403.62,-70.7"/>
<polygon fill="black" stroke="black" points="407.13,-70.73 403.63,-60.73 400.13,-70.73 407.13,-70.73"/>
<text text-anchor="middle" x="423.12" y="-72.45" font-family="Times,serif" font-size="14.00">Copied</text>
</g>
</g>
</svg>
