<?xml version="1.0" encoding="UTF-8" standalone="no"?>
<!DOCTYPE svg PUBLIC "-//W3C//DTD SVG 1.1//EN"
 "http://www.w3.org/Graphics/SVG/1.1/DTD/svg11.dtd">
<!-- Generated by graphviz version 10.0.1 (20240210.2158)
 -->
<!-- Pages: 1 -->
<svg width="912pt" height="236pt"
 viewBox="0.00 0.00 912.00 236.00" xmlns="http://www.w3.org/2000/svg" xmlns:xlink="http://www.w3.org/1999/xlink">
<g id="graph0" class="graph" transform="scale(1 1) rotate(0) translate(4 232)">
<polygon fill="white" stroke="none" points="-4,4 -4,-232 908,-232 908,4 -4,4"/>
<!-- medicare.qc_enrollments.dual -->
<g id="node1" class="node">
<title>medicare.qc_enrollments.dual</title>
<g id="a_node1"><a xlink:href="../medicare.qc_enrollments/dual.html" xlink:title="&lt;TABLE&gt;" target="_blank">
<polygon fill="none" stroke="black" points="553.12,-36 350.88,-36 350.88,0 553.12,0 553.12,-36"/>
<text text-anchor="start" x="363.88" y="-13.95" font-family="Times,serif" font-weight="bold" font-size="14.00">medicare.qc_enrollments.dual</text>
<polygon fill="none" stroke="black" points="358.88,-4.75 358.88,-31.25 545.12,-31.25 545.12,-4.75 358.88,-4.75"/>
</a>
</g>
</g>
<!-- medicare.qc_enrl_bene.dual -->
<g id="node2" class="node">
<title>medicare.qc_enrl_bene.dual</title>
<g id="a_node2"><a xlink:href="../medicare.qc_enrl_bene/dual.html" xlink:title="&lt;TABLE&gt;" target="_blank">
<polygon fill="none" stroke="black" points="904,-132 0,-132 0,-73 904,-73 904,-132"/>
<text text-anchor="start" x="369.88" y="-110.7" font-family="Times,serif" font-weight="bold" font-size="14.00">medicare.qc_enrl_bene.dual</text>
<polygon fill="none" stroke="black" points="11,-80 11,-102.5 893,-102.5 893,-80 11,-80"/>
<text text-anchor="start" x="14" y="-86.2" font-family="Times,serif" font-size="14.00">GENERATED ALWAYS AS (CASE WHEN dual_cvg_count IS NULL THEN NULL WHEN dual_cvg_count &gt; 0 THEN TRUE ELSE FALSE END) STORED</text>
<polygon fill="none" stroke="black" points="8,-77 8,-128 896,-128 896,-77 8,-77"/>
</a>
</g>
</g>
<!-- medicare.qc_enrl_bene.dual&#45;&gt;medicare.qc_enrollments.dual -->
<g id="edge1" class="edge">
<title>medicare.qc_enrl_bene.dual&#45;&gt;medicare.qc_enrollments.dual</title>
<path fill="none" stroke="black" d="M452,-72.65C452,-64.62 452,-55.91 452,-47.89"/>
<polygon fill="black" stroke="black" points="455.5,-47.93 452,-37.93 448.5,-47.93 455.5,-47.93"/>
<text text-anchor="middle" x="490.62" y="-49.45" font-family="Times,serif" font-size="14.00"> &#160;Transformed</text>
</g>
<!-- medicare.enrollments.dual -->
<g id="node3" class="node">
<title>medicare.enrollments.dual</title>
<g id="a_node3"><a xlink:href="../medicare.enrollments/dual.html" xlink:title="&lt;TABLE&gt;" target="_blank">
<polygon fill="none" stroke="black" points="904,-228 0,-228 0,-169 904,-169 904,-228"/>
<text text-anchor="start" x="374" y="-206.7" font-family="Times,serif" font-weight="bold" font-size="14.00">medicare.enrollments.dual</text>
<polygon fill="none" stroke="black" points="11,-176 11,-198.5 893,-198.5 893,-176 11,-176"/>
<text text-anchor="start" x="14" y="-182.2" font-family="Times,serif" font-size="14.00">GENERATED ALWAYS AS (CASE WHEN dual_cvg_count IS NULL THEN NULL WHEN dual_cvg_count &gt; 0 THEN TRUE ELSE FALSE END) STORED</text>
<polygon fill="none" stroke="black" points="8,-173 8,-224 896,-224 896,-173 8,-173"/>
</a>
</g>
</g>
<!-- medicare.enrollments.dual&#45;&gt;medicare.qc_enrl_bene.dual -->
<g id="edge2" class="edge">
<title>medicare.enrollments.dual&#45;&gt;medicare.qc_enrl_bene.dual</title>
<path fill="none" stroke="black" d="M452,-168.53C452,-160.68 452,-152.05 452,-143.7"/>
<polygon fill="black" stroke="black" points="455.5,-143.73 452,-133.73 448.5,-143.73 455.5,-143.73"/>
<text text-anchor="middle" x="498.12" y="-145.45" font-family="Times,serif" font-size="14.00">	join natural</text>
</g>
</g>
</svg>
