<?xml version="1.0" encoding="UTF-8" standalone="no"?>
<!DOCTYPE svg PUBLIC "-//W3C//DTD SVG 1.1//EN"
 "http://www.w3.org/Graphics/SVG/1.1/DTD/svg11.dtd">
<!-- Generated by graphviz version 10.0.1 (20240210.2158)
 -->
<!-- Pages: 1 -->
<svg width="1867pt" height="259pt"
 viewBox="0.00 0.00 1866.75 259.00" xmlns="http://www.w3.org/2000/svg" xmlns:xlink="http://www.w3.org/1999/xlink">
<g id="graph0" class="graph" transform="scale(1 1) rotate(0) translate(4 255)">
<polygon fill="white" stroke="none" points="-4,4 -4,-255 1862.75,-255 1862.75,4 -4,4"/>
<!-- medicare.qc_enrl_bene.dual_cvg_count -->
<g id="node1" class="node">
<title>medicare.qc_enrl_bene.dual_cvg_count</title>
<g id="a_node1"><a xlink:href="../medicare.qc_enrl_bene/dual_cvg_count.html" xlink:title="&lt;TABLE&gt;" target="_blank">
<polygon fill="none" stroke="black" points="1858.75,-59 0,-59 0,0 1858.75,0 1858.75,-59"/>
<text text-anchor="start" x="814.62" y="-37.7" font-family="Times,serif" font-weight="bold" font-size="14.00">medicare.qc_enrl_bene.dual_cvg_count</text>
<polygon fill="none" stroke="black" points="11,-7 11,-29.5 1847.75,-29.5 1847.75,-7 11,-7"/>
<text text-anchor="start" x="14" y="-13.2" font-family="Times,serif" font-size="14.00">(CASE &#160;&#160;WHEN EXISTS (SELECT * FROM medicare.mbsf_d AS d WHERE medicare._ps.year = d.year and medicare._ps.bene_id = d.bene_id) &#160;&#160;THEN &#160;&#160;&#160;&#160;&#160;&#160;COALESCE((SELECT MAX(dual_mo) FROM medicare.mbsf_d AS d WHERE medicare._ps.year = d.year and medicare._ps.bene_id = d.bene_id), 0) &#160;&#160;ELSE NULLEND)</text>
<polygon fill="none" stroke="black" points="8,-4 8,-55 1850.75,-55 1850.75,-4 8,-4"/>
</a>
</g>
</g>
<!-- medicare.enrollments.dual_cvg_count -->
<g id="node2" class="node">
<title>medicare.enrollments.dual_cvg_count</title>
<g id="a_node2"><a xlink:href="../medicare.enrollments/dual_cvg_count.html" xlink:title="&lt;TABLE&gt;" target="_blank">
<polygon fill="none" stroke="black" points="1858.75,-155 0,-155 0,-96 1858.75,-96 1858.75,-155"/>
<text text-anchor="start" x="818.75" y="-133.7" font-family="Times,serif" font-weight="bold" font-size="14.00">medicare.enrollments.dual_cvg_count</text>
<polygon fill="none" stroke="black" points="11,-103 11,-125.5 1847.75,-125.5 1847.75,-103 11,-103"/>
<text text-anchor="start" x="14" y="-109.2" font-family="Times,serif" font-size="14.00">(CASE &#160;&#160;WHEN EXISTS (SELECT * FROM medicare.mbsf_d AS d WHERE medicare._ps.year = d.year and medicare._ps.bene_id = d.bene_id) &#160;&#160;THEN &#160;&#160;&#160;&#160;&#160;&#160;COALESCE((SELECT MAX(dual_mo) FROM medicare.mbsf_d AS d WHERE medicare._ps.year = d.year and medicare._ps.bene_id = d.bene_id), 0) &#160;&#160;ELSE NULLEND)</text>
<polygon fill="none" stroke="black" points="8,-100 8,-151 1850.75,-151 1850.75,-100 8,-100"/>
</a>
</g>
</g>
<!-- medicare.enrollments.dual_cvg_count&#45;&gt;medicare.qc_enrl_bene.dual_cvg_count -->
<g id="edge1" class="edge">
<title>medicare.enrollments.dual_cvg_count&#45;&gt;medicare.qc_enrl_bene.dual_cvg_count</title>
<path fill="none" stroke="black" d="M929.38,-95.53C929.38,-87.68 929.38,-79.05 929.38,-70.7"/>
<polygon fill="black" stroke="black" points="932.88,-70.73 929.38,-60.73 925.88,-70.73 932.88,-70.73"/>
<text text-anchor="middle" x="975.5" y="-72.45" font-family="Times,serif" font-size="14.00">	join natural</text>
</g>
<!-- medicare._enrollments.dual_cvg_count -->
<g id="node3" class="node">
<title>medicare._enrollments.dual_cvg_count</title>
<g id="a_node3"><a xlink:href="../medicare._enrollments/dual_cvg_count.html" xlink:title="&lt;TABLE&gt;" target="_blank">
<polygon fill="none" stroke="black" points="1858.75,-251 0,-251 0,-192 1858.75,-192 1858.75,-251"/>
<text text-anchor="start" x="815.38" y="-229.7" font-family="Times,serif" font-weight="bold" font-size="14.00">medicare._enrollments.dual_cvg_count</text>
<polygon fill="none" stroke="black" points="11,-199 11,-221.5 1847.75,-221.5 1847.75,-199 11,-199"/>
<text text-anchor="start" x="14" y="-205.2" font-family="Times,serif" font-size="14.00">(CASE &#160;&#160;WHEN EXISTS (SELECT * FROM medicare.mbsf_d AS d WHERE medicare._ps.year = d.year and medicare._ps.bene_id = d.bene_id) &#160;&#160;THEN &#160;&#160;&#160;&#160;&#160;&#160;COALESCE((SELECT MAX(dual_mo) FROM medicare.mbsf_d AS d WHERE medicare._ps.year = d.year and medicare._ps.bene_id = d.bene_id), 0) &#160;&#160;ELSE NULLEND)</text>
<polygon fill="none" stroke="black" points="8,-196 8,-247 1850.75,-247 1850.75,-196 8,-196"/>
</a>
</g>
</g>
<!-- medicare._enrollments.dual_cvg_count&#45;&gt;medicare.enrollments.dual_cvg_count -->
<g id="edge2" class="edge">
<title>medicare._enrollments.dual_cvg_count&#45;&gt;medicare.enrollments.dual_cvg_count</title>
<path fill="none" stroke="black" d="M929.38,-191.53C929.38,-183.68 929.38,-175.05 929.38,-166.7"/>
<polygon fill="black" stroke="black" points="932.88,-166.73 929.38,-156.73 925.88,-166.73 932.88,-166.73"/>
<text text-anchor="middle" x="948.88" y="-168.45" font-family="Times,serif" font-size="14.00">Copied</text>
</g>
</g>
</svg>
