<?xml version="1.0" encoding="UTF-8" standalone="no"?>
<!DOCTYPE svg PUBLIC "-//W3C//DTD SVG 1.1//EN"
 "http://www.w3.org/Graphics/SVG/1.1/DTD/svg11.dtd">
<!-- Generated by graphviz version 10.0.1 (20240210.2158)
 -->
<!-- Pages: 1 -->
<svg width="1533pt" height="391pt"
 viewBox="0.00 0.00 1532.50 391.00" xmlns="http://www.w3.org/2000/svg" xmlns:xlink="http://www.w3.org/1999/xlink">
<g id="graph0" class="graph" transform="scale(1 1) rotate(0) translate(4 387)">
<polygon fill="white" stroke="none" points="-4,4 -4,-387 1528.5,-387 1528.5,4 -4,4"/>
<!-- medicare.mbsf_d.file -->
<g id="node1" class="node">
<title>medicare.mbsf_d.file</title>
<g id="a_node1"><a xlink:href="../medicare.mbsf_d/file.html" xlink:title="&lt;TABLE&gt;" target="_blank">
<polygon fill="none" stroke="black" points="741.5,-103 515,-103 515,0 741.5,0 741.5,-103"/>
<text text-anchor="start" x="566.75" y="-81.7" font-family="Times,serif" font-weight="bold" font-size="14.00">medicare.mbsf_d.file</text>
<text text-anchor="start" x="551" y="-35.2" font-family="Times,serif" font-size="14.00">RESDAC original file name</text>
<polygon fill="none" stroke="black" points="523,-4 523,-99 733.5,-99 733.5,-4 523,-4"/>
</a>
</g>
</g>
<!-- cms.mbsf_abcd_2015.FILE -->
<g id="node2" class="node">
<title>cms.mbsf_abcd_2015.FILE</title>
<g id="a_node2"><a xlink:href="../cms.mbsf_abcd_2015/FILE.html" xlink:title="&lt;TABLE&gt;" target="_blank">
<polygon fill="none" stroke="black" points="226.5,-383 0,-383 0,-280 226.5,-280 226.5,-383"/>
<text text-anchor="start" x="33.38" y="-361.7" font-family="Times,serif" font-weight="bold" font-size="14.00">cms.mbsf_abcd_2015.FILE</text>
<text text-anchor="start" x="36" y="-315.2" font-family="Times,serif" font-size="14.00">RESDAC original file name</text>
<polygon fill="none" stroke="black" points="8,-284 8,-379 218.5,-379 218.5,-284 8,-284"/>
</a>
</g>
</g>
<!-- cms.mbsf_abcd_2015.FILE&#45;&gt;medicare.mbsf_d.file -->
<g id="edge5" class="edge">
<title>cms.mbsf_abcd_2015.FILE&#45;&gt;medicare.mbsf_d.file</title>
<path fill="none" stroke="chocolate" stroke-width="2" d="M166.39,-279.54C211.58,-238.13 279.57,-180.19 346.25,-140 364.84,-128.79 370.79,-128.25 391.25,-121 426.98,-108.34 466.33,-96.25 502.52,-85.85"/>
<polygon fill="chocolate" stroke="chocolate" stroke-width="2" points="503.1,-89.32 511.75,-83.21 501.18,-82.59 503.1,-89.32"/>
<text text-anchor="middle" x="361.62" y="-186.45" font-family="Times,serif" font-size="14.00">union</text>
</g>
<!-- cms.mbsf_abcd_2016.FILE -->
<g id="node3" class="node">
<title>cms.mbsf_abcd_2016.FILE</title>
<g id="a_node3"><a xlink:href="../cms.mbsf_abcd_2016/FILE.html" xlink:title="&lt;TABLE&gt;" target="_blank">
<polygon fill="none" stroke="black" points="471.5,-383 245,-383 245,-280 471.5,-280 471.5,-383"/>
<text text-anchor="start" x="278.38" y="-361.7" font-family="Times,serif" font-weight="bold" font-size="14.00">cms.mbsf_abcd_2016.FILE</text>
<text text-anchor="start" x="281" y="-315.2" font-family="Times,serif" font-size="14.00">RESDAC original file name</text>
<polygon fill="none" stroke="black" points="253,-284 253,-379 463.5,-379 463.5,-284 253,-284"/>
</a>
</g>
</g>
<!-- cms.mbsf_abcd_2016.FILE&#45;&gt;medicare.mbsf_d.file -->
<g id="edge6" class="edge">
<title>cms.mbsf_abcd_2016.FILE&#45;&gt;medicare.mbsf_d.file</title>
<path fill="none" stroke="chocolate" stroke-width="2" d="M351.45,-279.88C348.63,-238.67 351.13,-180.83 379.25,-140 407.16,-99.47 455.48,-77.55 502.17,-65.75"/>
<polygon fill="chocolate" stroke="chocolate" stroke-width="2" points="502.75,-69.21 511.69,-63.52 501.15,-62.4 502.75,-69.21"/>
<text text-anchor="middle" x="394.62" y="-186.45" font-family="Times,serif" font-size="14.00">union</text>
</g>
<!-- cms.mbsf_abcd_2017.FILE -->
<g id="node4" class="node">
<title>cms.mbsf_abcd_2017.FILE</title>
<g id="a_node4"><a xlink:href="../cms.mbsf_abcd_2017/FILE.html" xlink:title="&lt;TABLE&gt;" target="_blank">
<polygon fill="none" stroke="black" points="885.5,-383 659,-383 659,-280 885.5,-280 885.5,-383"/>
<text text-anchor="start" x="692.38" y="-361.7" font-family="Times,serif" font-weight="bold" font-size="14.00">cms.mbsf_abcd_2017.FILE</text>
<text text-anchor="start" x="695" y="-315.2" font-family="Times,serif" font-size="14.00">RESDAC original file name</text>
<polygon fill="none" stroke="black" points="667,-284 667,-379 877.5,-379 877.5,-284 667,-284"/>
</a>
</g>
</g>
<!-- cms.mbsf_abcd_2017.FILE&#45;&gt;medicare.mbsf_d.file -->
<g id="edge7" class="edge">
<title>cms.mbsf_abcd_2017.FILE&#45;&gt;medicare.mbsf_d.file</title>
<path fill="none" stroke="chocolate" stroke-width="2" d="M658.82,-310.8C556.74,-291.91 420.33,-263.35 404.25,-243 375.87,-207.08 378.43,-177.8 404.25,-140 426.98,-106.71 464.43,-86.09 502.26,-73.31"/>
<polygon fill="chocolate" stroke="chocolate" stroke-width="2" points="503.17,-76.69 511.65,-70.34 501.06,-70.02 503.17,-76.69"/>
<text text-anchor="middle" x="419.62" y="-186.45" font-family="Times,serif" font-size="14.00">union</text>
</g>
<!-- cms.mbsf_d_2011.FILE -->
<g id="node6" class="node">
<title>cms.mbsf_d_2011.FILE</title>
<g id="a_node6"><a xlink:href="../cms.mbsf_d_2011/FILE.html" xlink:title="&lt;TABLE&gt;" target="_blank">
<polygon fill="none" stroke="black" points="640.5,-243 414,-243 414,-140 640.5,-140 640.5,-243"/>
<text text-anchor="start" x="457.88" y="-221.7" font-family="Times,serif" font-weight="bold" font-size="14.00">cms.mbsf_d_2011.FILE</text>
<text text-anchor="start" x="450" y="-175.2" font-family="Times,serif" font-size="14.00">RESDAC original file name</text>
<polygon fill="none" stroke="black" points="422,-144 422,-239 632.5,-239 632.5,-144 422,-144"/>
</a>
</g>
</g>
<!-- cms.mbsf_abcd_2017.FILE&#45;&gt;cms.mbsf_d_2011.FILE -->
<!-- cms.mbsf_d_2012.FILE -->
<g id="node7" class="node">
<title>cms.mbsf_d_2012.FILE</title>
<g id="a_node7"><a xlink:href="../cms.mbsf_d_2012/FILE.html" xlink:title="&lt;TABLE&gt;" target="_blank">
<polygon fill="none" stroke="black" points="885.5,-243 659,-243 659,-140 885.5,-140 885.5,-243"/>
<text text-anchor="start" x="702.5" y="-221.7" font-family="Times,serif" font-weight="bold" font-size="14.00">cms.mbsf_d_2012.FILE</text>
<text text-anchor="start" x="695" y="-175.2" font-family="Times,serif" font-size="14.00">RESDAC original file name</text>
<polygon fill="none" stroke="black" points="667,-144 667,-239 877.5,-239 877.5,-144 667,-144"/>
</a>
</g>
</g>
<!-- cms.mbsf_abcd_2017.FILE&#45;&gt;cms.mbsf_d_2012.FILE -->
<!-- cms.mbsf_d_2013.FILE -->
<g id="node8" class="node">
<title>cms.mbsf_d_2013.FILE</title>
<g id="a_node8"><a xlink:href="../cms.mbsf_d_2013/FILE.html" xlink:title="&lt;TABLE&gt;" target="_blank">
<polygon fill="none" stroke="black" points="1130.5,-243 904,-243 904,-140 1130.5,-140 1130.5,-243"/>
<text text-anchor="start" x="947.5" y="-221.7" font-family="Times,serif" font-weight="bold" font-size="14.00">cms.mbsf_d_2013.FILE</text>
<text text-anchor="start" x="940" y="-175.2" font-family="Times,serif" font-size="14.00">RESDAC original file name</text>
<polygon fill="none" stroke="black" points="912,-144 912,-239 1122.5,-239 1122.5,-144 912,-144"/>
</a>
</g>
</g>
<!-- cms.mbsf_abcd_2017.FILE&#45;&gt;cms.mbsf_d_2013.FILE -->
<!-- cms.mbsf_d_2014.FILE -->
<g id="node9" class="node">
<title>cms.mbsf_d_2014.FILE</title>
<g id="a_node9"><a xlink:href="../cms.mbsf_d_2014/FILE.html" xlink:title="&lt;TABLE&gt;" target="_blank">
<polygon fill="none" stroke="black" points="1375.5,-243 1149,-243 1149,-140 1375.5,-140 1375.5,-243"/>
<text text-anchor="start" x="1192.5" y="-221.7" font-family="Times,serif" font-weight="bold" font-size="14.00">cms.mbsf_d_2014.FILE</text>
<text text-anchor="start" x="1185" y="-175.2" font-family="Times,serif" font-size="14.00">RESDAC original file name</text>
<polygon fill="none" stroke="black" points="1157,-144 1157,-239 1367.5,-239 1367.5,-144 1157,-144"/>
</a>
</g>
</g>
<!-- cms.mbsf_abcd_2017.FILE&#45;&gt;cms.mbsf_d_2014.FILE -->
<!-- cms.mbsf_abcd_2018.FILE -->
<g id="node5" class="node">
<title>cms.mbsf_abcd_2018.FILE</title>
<g id="a_node5"><a xlink:href="../cms.mbsf_abcd_2018/FILE.html" xlink:title="&lt;TABLE&gt;" target="_blank">
<polygon fill="none" stroke="black" points="1524.5,-383 1298,-383 1298,-280 1524.5,-280 1524.5,-383"/>
<text text-anchor="start" x="1331.38" y="-361.7" font-family="Times,serif" font-weight="bold" font-size="14.00">cms.mbsf_abcd_2018.FILE</text>
<text text-anchor="start" x="1334" y="-315.2" font-family="Times,serif" font-size="14.00">RESDAC original file name</text>
<polygon fill="none" stroke="black" points="1306,-284 1306,-379 1516.5,-379 1516.5,-284 1306,-284"/>
</a>
</g>
</g>
<!-- cms.mbsf_abcd_2018.FILE&#45;&gt;medicare.mbsf_d.file -->
<g id="edge8" class="edge">
<title>cms.mbsf_abcd_2018.FILE&#45;&gt;medicare.mbsf_d.file</title>
<path fill="none" stroke="chocolate" stroke-width="2" d="M1419.47,-279.7C1423.33,-236.35 1420.73,-175.56 1384.25,-140 1340.08,-96.94 958.06,-70.14 754.6,-58.79"/>
<polygon fill="chocolate" stroke="chocolate" stroke-width="2" points="754.96,-55.31 744.78,-58.25 754.58,-62.3 754.96,-55.31"/>
<text text-anchor="middle" x="1435.62" y="-186.45" font-family="Times,serif" font-size="14.00">union</text>
</g>
<!-- cms.mbsf_d_2011.FILE&#45;&gt;medicare.mbsf_d.file -->
<g id="edge9" class="edge">
<title>cms.mbsf_d_2011.FILE&#45;&gt;medicare.mbsf_d.file</title>
<path fill="none" stroke="chocolate" stroke-width="2" d="M564.57,-139.51C570.72,-131.1 577.16,-122.31 583.47,-113.69"/>
<polygon fill="chocolate" stroke="chocolate" stroke-width="2" points="586.21,-115.86 589.29,-105.73 580.56,-111.73 586.21,-115.86"/>
<text text-anchor="middle" x="593.62" y="-116.45" font-family="Times,serif" font-size="14.00">union</text>
</g>
<!-- cms.mbsf_d_2012.FILE&#45;&gt;medicare.mbsf_d.file -->
<g id="edge10" class="edge">
<title>cms.mbsf_d_2012.FILE&#45;&gt;medicare.mbsf_d.file</title>
<path fill="none" stroke="chocolate" stroke-width="2" d="M719.04,-139.51C709.79,-130.64 700.09,-121.34 690.61,-112.27"/>
<polygon fill="chocolate" stroke="chocolate" stroke-width="2" points="693.07,-109.77 683.43,-105.38 688.23,-114.82 693.07,-109.77"/>
<text text-anchor="middle" x="715.62" y="-116.45" font-family="Times,serif" font-size="14.00">union</text>
</g>
<!-- cms.mbsf_d_2013.FILE&#45;&gt;medicare.mbsf_d.file -->
<g id="edge11" class="edge">
<title>cms.mbsf_d_2013.FILE&#45;&gt;medicare.mbsf_d.file</title>
<path fill="none" stroke="chocolate" stroke-width="2" d="M903.77,-143.56C900.57,-142.35 897.39,-141.16 894.25,-140 848.92,-123.26 798.68,-106.33 754.19,-91.88"/>
<polygon fill="chocolate" stroke="chocolate" stroke-width="2" points="755.27,-88.55 744.68,-88.8 753.12,-95.21 755.27,-88.55"/>
<text text-anchor="middle" x="859.62" y="-116.45" font-family="Times,serif" font-size="14.00">union</text>
</g>
<!-- cms.mbsf_d_2014.FILE&#45;&gt;medicare.mbsf_d.file -->
<g id="edge12" class="edge">
<title>cms.mbsf_d_2014.FILE&#45;&gt;medicare.mbsf_d.file</title>
<path fill="none" stroke="chocolate" stroke-width="2" d="M1148.64,-142.83C1145.49,-141.84 1142.36,-140.89 1139.25,-140 1010.73,-103.1 859.3,-79.56 754.82,-66.3"/>
<polygon fill="chocolate" stroke="chocolate" stroke-width="2" points="755.36,-62.84 745,-65.07 754.49,-69.79 755.36,-62.84"/>
<text text-anchor="middle" x="1083.62" y="-116.45" font-family="Times,serif" font-size="14.00">union</text>
</g>
</g>
</svg>
