<?xml version="1.0" encoding="UTF-8" standalone="no"?>
<!DOCTYPE svg PUBLIC "-//W3C//DTD SVG 1.1//EN"
 "http://www.w3.org/Graphics/SVG/1.1/DTD/svg11.dtd">
<!-- Generated by graphviz version 10.0.1 (20240210.2158)
 -->
<!-- Pages: 1 -->
<svg width="235pt" height="396pt"
 viewBox="0.00 0.00 234.50 396.00" xmlns="http://www.w3.org/2000/svg" xmlns:xlink="http://www.w3.org/1999/xlink">
<g id="graph0" class="graph" transform="scale(1 1) rotate(0) translate(4 392)">
<polygon fill="white" stroke="none" points="-4,4 -4,-392 230.5,-392 230.5,4 -4,4"/>
<!-- medicare._ps.file -->
<g id="node1" class="node">
<title>medicare._ps.file</title>
<g id="a_node1"><a xlink:href="../medicare._ps/file.html" xlink:title="&lt;TABLE&gt;" target="_blank">
<polygon fill="none" stroke="black" points="226.5,-103 0,-103 0,0 226.5,0 226.5,-103"/>
<text text-anchor="start" x="63.75" y="-81.7" font-family="Times,serif" font-weight="bold" font-size="14.00">medicare._ps.file</text>
<text text-anchor="start" x="36" y="-35.2" font-family="Times,serif" font-size="14.00">RESDAC original file name</text>
<polygon fill="none" stroke="black" points="8,-4 8,-99 218.5,-99 218.5,-4 8,-4"/>
</a>
</g>
</g>
<!-- medicare.ps.file -->
<g id="node2" class="node">
<title>medicare.ps.file</title>
<g id="a_node2"><a xlink:href="../medicare.ps/file.html" xlink:title="&lt;TABLE&gt;" target="_blank">
<polygon fill="none" stroke="black" points="226.5,-243 0,-243 0,-140 226.5,-140 226.5,-243"/>
<text text-anchor="start" x="67.12" y="-221.7" font-family="Times,serif" font-weight="bold" font-size="14.00">medicare.ps.file</text>
<text text-anchor="start" x="36" y="-175.2" font-family="Times,serif" font-size="14.00">RESDAC original file name</text>
<polygon fill="none" stroke="black" points="8,-144 8,-239 218.5,-239 218.5,-144 8,-144"/>
</a>
</g>
</g>
<!-- medicare.ps.file&#45;&gt;medicare._ps.file -->
<g id="edge1" class="edge">
<title>medicare.ps.file&#45;&gt;medicare._ps.file</title>
<path fill="none" stroke="black" d="M113.25,-139.51C113.25,-131.38 113.25,-122.89 113.25,-114.54"/>
<polygon fill="black" stroke="black" points="116.75,-114.8 113.25,-104.8 109.75,-114.8 116.75,-114.8"/>
<text text-anchor="middle" x="132.75" y="-116.45" font-family="Times,serif" font-size="14.00">Copied</text>
</g>
<!-- medicare.ps.file_parent -->
<g id="node3" class="node">
<title>medicare.ps.file_parent</title>
<g id="a_node3"><a xlink:href="../medicare.ps/file.html" xlink:title="8 incoming links (columns)" target="_blank">
<path fill="yellow" stroke="black" d="M221.25,-378.18C221.25,-383.6 172.84,-388 113.25,-388 53.66,-388 5.25,-383.6 5.25,-378.18 5.25,-378.18 5.25,-289.82 5.25,-289.82 5.25,-284.4 53.66,-280 113.25,-280 172.84,-280 221.25,-284.4 221.25,-289.82 221.25,-289.82 221.25,-378.18 221.25,-378.18"/>
<path fill="none" stroke="black" d="M221.25,-378.18C221.25,-372.76 172.84,-368.36 113.25,-368.36 53.66,-368.36 5.25,-372.76 5.25,-378.18"/>
<text text-anchor="middle" x="113.25" y="-328.95" font-family="Times,serif" font-size="14.00">8 incoming links (columns)</text>
</a>
</g>
</g>
<!-- medicare.ps.file_parent&#45;&gt;medicare.ps.file -->
<g id="edge2" class="edge">
<title>medicare.ps.file_parent&#45;&gt;medicare.ps.file</title>
<path fill="none" stroke="goldenrod" stroke-width="6" d="M113.25,-279.88C113.25,-273.24 113.25,-266.39 113.25,-259.57"/>
<polygon fill="goldenrod" stroke="goldenrod" stroke-width="6" points="118.5,-259.82 113.25,-249.82 108,-259.82 118.5,-259.82"/>
</g>
</g>
</svg>
