<?xml version="1.0" encoding="UTF-8" standalone="no"?>
<!DOCTYPE svg PUBLIC "-//W3C//DTD SVG 1.1//EN"
 "http://www.w3.org/Graphics/SVG/1.1/DTD/svg11.dtd">
<!-- Generated by graphviz version 10.0.1 (20240210.2158)
 -->
<!-- Pages: 1 -->
<svg width="3758pt" height="668pt"
 viewBox="0.00 0.00 3757.62 668.00" xmlns="http://www.w3.org/2000/svg" xmlns:xlink="http://www.w3.org/1999/xlink">
<g id="graph0" class="graph" transform="scale(1 1) rotate(0) translate(4 664)">
<polygon fill="white" stroke="none" points="-4,4 -4,-664 3753.62,-664 3753.62,4 -4,4"/>
<!-- medicare._enrollments.fips3_valdiated -->
<g id="node1" class="node">
<title>medicare._enrollments.fips3_valdiated</title>
<g id="a_node1"><a xlink:href="../medicare._enrollments/fips3_valdiated.html" xlink:title="&lt;TABLE&gt;" target="_blank">
<polygon fill="none" stroke="black" points="1812.5,-59 1435.75,-59 1435.75,0 1812.5,0 1812.5,-59"/>
<text text-anchor="start" x="1511.62" y="-37.7" font-family="Times,serif" font-weight="bold" font-size="14.00">medicare._enrollments.fips3_valdiated</text>
<polygon fill="none" stroke="black" points="1446.75,-7 1446.75,-29.5 1801.5,-29.5 1801.5,-7 1446.75,-7"/>
<text text-anchor="start" x="1449.75" y="-13.2" font-family="Times,serif" font-size="14.00">public.validate_zip_fips(MAX(zip), MAX(fips2), MAX(fips3))</text>
<polygon fill="none" stroke="black" points="1443.75,-4 1443.75,-55 1804.5,-55 1804.5,-4 1443.75,-4"/>
</a>
</g>
</g>
<!-- medicare._ps.fips3 -->
<g id="node2" class="node">
<title>medicare._ps.fips3</title>
<g id="a_node2"><a xlink:href="../medicare._ps/fips3.html" xlink:title="&lt;TABLE&gt;" target="_blank">
<polygon fill="none" stroke="black" points="2816.38,-221 431.88,-221 431.88,-162 2816.38,-162 2816.38,-221"/>
<text text-anchor="start" x="1569.75" y="-199.7" font-family="Times,serif" font-weight="bold" font-size="14.00">medicare._ps.fips3</text>
<polygon fill="none" stroke="black" points="442.88,-169 442.88,-191.5 2805.38,-191.5 2805.38,-169 442.88,-169"/>
<text text-anchor="start" x="445.88" y="-175.2" font-family="Times,serif" font-size="14.00">CASE WHEN ssa3 is NOT NULL THEN &#160;CASE WHEN year &gt; 2010 THEN &#160;&#160;&#160;&#160;&#160;(SELECT fips3 from public.ssa as s where ps.ssa3 = s.ssa3 and ps.year = s.year and ps.fips2 = s.fips2 ORDER BY 1 DESC LIMIT 1) &#160;&#160;&#160;ELSE &#160;&#160;&#160;&#160;&#160;(SELECT fips3 from public.ssa as s where ps.ssa3 = s.ssa3 and 2003 = s.year and ps.fips2 = s.fips2 ORDER BY 1 DESC LIMIT 1) &#160;ENDELSE &#160;(SELECT public.zip_to_fips3(year, zip))END AS fips3</text>
<polygon fill="none" stroke="black" points="439.88,-166 439.88,-217 2808.38,-217 2808.38,-166 439.88,-166"/>
</a>
</g>
</g>
<!-- medicare._ps.fips3&#45;&gt;medicare._enrollments.fips3_valdiated -->
<g id="edge1" class="edge">
<title>medicare._ps.fips3&#45;&gt;medicare._enrollments.fips3_valdiated</title>
<path fill="none" stroke="blue" stroke-width="5" d="M1624.12,-161.53C1624.12,-137.51 1624.12,-102.97 1624.12,-75.38"/>
<polygon fill="blue" stroke="blue" stroke-width="5" points="1628.5,-75.5 1624.13,-65.5 1619.75,-75.5 1628.5,-75.5"/>
<text text-anchor="middle" x="1738.5" y="-72.45" font-family="Times,serif" font-size="14.00">	 &#160;Aggregated On bene_id, year, state</text>
</g>
<!-- medicare.ps.ssa3 -->
<g id="node3" class="node">
<title>medicare.ps.ssa3</title>
<g id="a_node3"><a xlink:href="../medicare.ps/ssa3.html" xlink:title="&lt;TABLE&gt;" target="_blank">
<polygon fill="none" stroke="black" points="2194.88,-479.25 1917.38,-479.25 1917.38,-359.75 2194.88,-359.75 2194.88,-479.25"/>
<text text-anchor="start" x="2007" y="-457.95" font-family="Times,serif" font-weight="bold" font-size="14.00">medicare.ps.ssa3</text>
<text text-anchor="start" x="1953.38" y="-411.45" font-family="Times,serif" font-size="14.00">Social Security Administration (SSA)</text>
<text text-anchor="start" x="1983.75" y="-394.95" font-family="Times,serif" font-size="14.00">three digit code for county</text>
<polygon fill="none" stroke="black" points="1925.38,-363.75 1925.38,-475.25 2186.88,-475.25 2186.88,-363.75 1925.38,-363.75"/>
</a>
</g>
</g>
<!-- medicare.ps.ssa3&#45;&gt;medicare._ps.fips3 -->
<g id="edge2" class="edge">
<title>medicare.ps.ssa3&#45;&gt;medicare._ps.fips3</title>
<path fill="none" stroke="black" d="M1967.68,-359.3C1948.35,-347.13 1927.78,-334.76 1908.12,-324 1840.94,-287.21 1761.62,-251.06 1703.92,-226.01"/>
<polygon fill="black" stroke="black" points="1705.36,-222.82 1694.79,-222.06 1702.58,-229.24 1705.36,-222.82"/>
<text text-anchor="middle" x="1911.75" y="-300.45" font-family="Times,serif" font-size="14.00"> &#160;Transformed</text>
</g>
<!-- medicare.ps.ssa3_parent -->
<g id="node4" class="node">
<title>medicare.ps.ssa3_parent</title>
<g id="a_node4"><a xlink:href="../medicare.ps/ssa3.html" xlink:title="8 incoming links (columns)" target="_blank">
<path fill="yellow" stroke="black" d="M2164.12,-650.18C2164.12,-655.6 2115.72,-660 2056.12,-660 1996.53,-660 1948.12,-655.6 1948.12,-650.18 1948.12,-650.18 1948.12,-561.82 1948.12,-561.82 1948.12,-556.4 1996.53,-552 2056.12,-552 2115.72,-552 2164.12,-556.4 2164.12,-561.82 2164.12,-561.82 2164.12,-650.18 2164.12,-650.18"/>
<path fill="none" stroke="black" d="M2164.12,-650.18C2164.12,-644.76 2115.72,-640.36 2056.12,-640.36 1996.53,-640.36 1948.12,-644.76 1948.12,-650.18"/>
<text text-anchor="middle" x="2056.12" y="-600.95" font-family="Times,serif" font-size="14.00">8 incoming links (columns)</text>
</a>
</g>
</g>
<!-- medicare.ps.ssa3_parent&#45;&gt;medicare.ps.ssa3 -->
<g id="edge3" class="edge">
<title>medicare.ps.ssa3_parent&#45;&gt;medicare.ps.ssa3</title>
<path fill="none" stroke="goldenrod" stroke-width="6" d="M2056.12,-551.63C2056.12,-534.27 2056.12,-514.66 2056.12,-496"/>
<polygon fill="goldenrod" stroke="goldenrod" stroke-width="6" points="2061.38,-496.02 2056.13,-486.02 2050.88,-496.02 2061.38,-496.02"/>
</g>
<!-- medicare.ps.fips2 -->
<g id="node5" class="node">
<title>medicare.ps.fips2</title>
<g id="a_node5"><a xlink:href="../medicare.ps/fips2.html" xlink:title="&lt;TABLE&gt;" target="_blank">
<polygon fill="none" stroke="black" points="687.25,-499.75 273,-499.75 273,-339.25 687.25,-339.25 687.25,-499.75"/>
<text text-anchor="start" x="429.12" y="-478.45" font-family="Times,serif" font-weight="bold" font-size="14.00">medicare.ps.fips2</text>
<text text-anchor="start" x="320.62" y="-431.95" font-family="Times,serif" font-size="14.00">2 digit state FIPS, see https://en.wikip</text>
<text text-anchor="start" x="309" y="-415.45" font-family="Times,serif" font-size="14.00">edia.org/wiki/Federal_Information_Proces</text>
<text text-anchor="start" x="354" y="-398.95" font-family="Times,serif" font-size="14.00">sing_Standard_state_code</text>
<polygon fill="none" stroke="black" points="284,-346.25 284,-368.75 676.25,-368.75 676.25,-346.25 284,-346.25"/>
<text text-anchor="start" x="287" y="-352.45" font-family="Times,serif" font-size="14.00">(SELECT fips2 FROM public.us_states as s WHERE s.ssa2 = &quot;state&quot;)</text>
<polygon fill="none" stroke="black" points="281,-343.25 281,-495.75 679.25,-495.75 679.25,-343.25 281,-343.25"/>
</a>
</g>
</g>
<!-- medicare.ps.fips2&#45;&gt;medicare._ps.fips3 -->
<g id="edge4" class="edge">
<title>medicare.ps.fips2&#45;&gt;medicare._ps.fips3</title>
<path fill="none" stroke="black" d="M687.53,-346.9C715.76,-338.47 744.52,-330.55 772.12,-324 964.75,-278.28 1185.79,-244.69 1354.45,-222.92"/>
<polygon fill="black" stroke="black" points="1354.76,-226.4 1364.23,-221.66 1353.87,-219.46 1354.76,-226.4"/>
<text text-anchor="middle" x="893.75" y="-300.45" font-family="Times,serif" font-size="14.00"> &#160;Transformed</text>
</g>
<!-- medicare._ps.fips2 -->
<g id="node11" class="node">
<title>medicare._ps.fips2</title>
<g id="a_node11"><a xlink:href="../medicare._ps/fips2.html" xlink:title="&lt;TABLE&gt;" target="_blank">
<polygon fill="none" stroke="black" points="414.25,-271.75 0,-271.75 0,-111.25 414.25,-111.25 414.25,-271.75"/>
<text text-anchor="start" x="152.75" y="-250.45" font-family="Times,serif" font-weight="bold" font-size="14.00">medicare._ps.fips2</text>
<text text-anchor="start" x="47.62" y="-203.95" font-family="Times,serif" font-size="14.00">2 digit state FIPS, see https://en.wikip</text>
<text text-anchor="start" x="36" y="-187.45" font-family="Times,serif" font-size="14.00">edia.org/wiki/Federal_Information_Proces</text>
<text text-anchor="start" x="81" y="-170.95" font-family="Times,serif" font-size="14.00">sing_Standard_state_code</text>
<polygon fill="none" stroke="black" points="11,-118.25 11,-140.75 403.25,-140.75 403.25,-118.25 11,-118.25"/>
<text text-anchor="start" x="14" y="-124.45" font-family="Times,serif" font-size="14.00">(SELECT fips2 FROM public.us_states as s WHERE s.ssa2 = &quot;state&quot;)</text>
<polygon fill="none" stroke="black" points="8,-115.25 8,-267.75 406.25,-267.75 406.25,-115.25 8,-115.25"/>
</a>
</g>
</g>
<!-- medicare.ps.fips2&#45;&gt;medicare._ps.fips2 -->
<g id="edge11" class="edge">
<title>medicare.ps.fips2&#45;&gt;medicare._ps.fips2</title>
<path fill="none" stroke="black" d="M383.88,-338.82C360.63,-319.58 335.68,-298.92 312.06,-279.37"/>
<polygon fill="black" stroke="black" points="314.53,-276.87 304.59,-273.19 310.06,-282.26 314.53,-276.87"/>
<text text-anchor="middle" x="363.62" y="-300.45" font-family="Times,serif" font-size="14.00">Copied</text>
</g>
<!-- medicare.ps.year -->
<g id="node6" class="node">
<title>medicare.ps.year</title>
<g id="a_node6"><a xlink:href="../medicare.ps/year.html" xlink:title="&lt;TABLE&gt;" target="_blank">
<polygon fill="none" stroke="black" points="1899,-483.25 781.25,-483.25 781.25,-355.75 1899,-355.75 1899,-483.25"/>
<text text-anchor="start" x="1290.25" y="-461.95" font-family="Times,serif" font-weight="bold" font-size="14.00">medicare.ps.year</text>
<text text-anchor="start" x="817.25" y="-415.45" font-family="Times,serif" font-size="14.00">Beneficiary Enrollment Reference Year</text>
<polygon fill="none" stroke="black" points="792.25,-362.75 792.25,-385.25 1888,-385.25 1888,-362.75 792.25,-362.75"/>
<text text-anchor="start" x="795.25" y="-368.95" font-family="Times,serif" font-size="14.00">(CASE WHEN &quot;year&quot;::int &lt; 20 THEN (2000 + &quot;year&quot;::int) WHEN (20 &lt; &quot;year&quot;::int AND &quot;year&quot;::int &lt; 100) THEN (1900 + &quot;year&quot;::int) WHEN &quot;year&quot; IS NULL THEN 2000 ELSE &quot;year&quot;::int END)</text>
<polygon fill="none" stroke="black" points="789.25,-359.75 789.25,-479.25 1891,-479.25 1891,-359.75 789.25,-359.75"/>
</a>
</g>
</g>
<!-- medicare.ps.year&#45;&gt;medicare._ps.fips3 -->
<g id="edge5" class="edge">
<title>medicare.ps.year&#45;&gt;medicare._ps.fips3</title>
<path fill="none" stroke="black" d="M1419.23,-355.55C1470.72,-314.58 1536.03,-262.61 1578.89,-228.49"/>
<polygon fill="black" stroke="black" points="1580.86,-231.4 1586.5,-222.44 1576.5,-225.93 1580.86,-231.4"/>
<text text-anchor="middle" x="1520.75" y="-300.45" font-family="Times,serif" font-size="14.00"> &#160;Transformed</text>
</g>
<!-- medicare.ps.year_parent -->
<g id="node7" class="node">
<title>medicare.ps.year_parent</title>
<g id="a_node7"><a xlink:href="../medicare.ps/year.html" xlink:title="8 incoming links (columns)" target="_blank">
<path fill="yellow" stroke="black" d="M1448.12,-650.18C1448.12,-655.6 1399.72,-660 1340.12,-660 1280.53,-660 1232.12,-655.6 1232.12,-650.18 1232.12,-650.18 1232.12,-561.82 1232.12,-561.82 1232.12,-556.4 1280.53,-552 1340.12,-552 1399.72,-552 1448.12,-556.4 1448.12,-561.82 1448.12,-561.82 1448.12,-650.18 1448.12,-650.18"/>
<path fill="none" stroke="black" d="M1448.12,-650.18C1448.12,-644.76 1399.72,-640.36 1340.12,-640.36 1280.53,-640.36 1232.12,-644.76 1232.12,-650.18"/>
<text text-anchor="middle" x="1340.12" y="-600.95" font-family="Times,serif" font-size="14.00">8 incoming links (columns)</text>
</a>
</g>
</g>
<!-- medicare.ps.year_parent&#45;&gt;medicare.ps.year -->
<g id="edge6" class="edge">
<title>medicare.ps.year_parent&#45;&gt;medicare.ps.year</title>
<path fill="none" stroke="goldenrod" stroke-width="6" d="M1340.12,-551.63C1340.12,-535.42 1340.12,-517.25 1340.12,-499.71"/>
<polygon fill="goldenrod" stroke="goldenrod" stroke-width="6" points="1345.38,-499.98 1340.13,-489.98 1334.88,-499.98 1345.38,-499.98"/>
</g>
<!-- medicare._ps.zip -->
<g id="node8" class="node">
<title>medicare._ps.zip</title>
<g id="a_node8"><a xlink:href="../medicare._ps/zip.html" xlink:title="&lt;TABLE&gt;" target="_blank">
<polygon fill="none" stroke="black" points="3749.62,-287 2834.62,-287 2834.62,-96 3749.62,-96 3749.62,-287"/>
<text text-anchor="start" x="2922" y="-265.7" font-family="Times,serif" font-weight="bold" font-size="14.00">medicare._ps.zip</text>
<text text-anchor="start" x="2870.62" y="-219.7" font-family="Times,serif" font-size="14.00">US Postal ZIP code, the first 5 digits</text>
<text text-anchor="start" x="2959.88" y="-203.2" font-family="Times,serif" font-size="14.00">of it</text>
<polygon fill="none" stroke="black" points="2845.62,-151 2845.62,-173 3096.62,-173 3096.62,-151 2845.62,-151"/>
<text text-anchor="start" x="2848.62" y="-156.7" font-family="Times,serif" font-size="14.00">numeric →</text>
<polygon fill="none" stroke="black" points="3098.62,-151 3098.62,-173 3738.62,-173 3738.62,-151 3098.62,-151"/>
<text text-anchor="start" x="3101.38" y="-156.7" font-family="Times,serif" font-size="14.00">(CASE WHEN {column_name} &lt; 100000 THEN {column_name}::int ELSE ({column_name}/10000)::INT END)</text>
<polygon fill="none" stroke="black" points="2845.62,-127 2845.62,-149 3096.62,-149 3096.62,-127 2845.62,-127"/>
<text text-anchor="start" x="2848.62" y="-132.7" font-family="Times,serif" font-size="14.00">character varying →</text>
<polygon fill="none" stroke="black" points="3098.62,-127 3098.62,-149 3738.62,-149 3738.62,-127 3098.62,-127"/>
<text text-anchor="start" x="3101.62" y="-132.7" font-family="Times,serif" font-size="14.00">SUBSTRING({column_name} FROM 1 FOR 5)::INT</text>
<polygon fill="none" stroke="black" points="2845.62,-103 2845.62,-125 3096.62,-125 3096.62,-103 2845.62,-103"/>
<text text-anchor="start" x="2848.62" y="-108.7" font-family="Times,serif" font-size="14.00">integer →</text>
<polygon fill="none" stroke="black" points="3098.62,-103 3098.62,-125 3738.62,-125 3738.62,-103 3098.62,-103"/>
<text text-anchor="start" x="3101.62" y="-108.7" font-family="Times,serif" font-size="14.00">{column_name}::INT</text>
<polygon fill="none" stroke="black" points="2842.62,-100 2842.62,-283 3741.62,-283 3741.62,-100 2842.62,-100"/>
</a>
</g>
</g>
<!-- medicare._ps.zip&#45;&gt;medicare._enrollments.fips3_valdiated -->
<g id="edge7" class="edge">
<title>medicare._ps.zip&#45;&gt;medicare._enrollments.fips3_valdiated</title>
<path fill="none" stroke="blue" stroke-width="5" d="M2834.39,-97.21C2831.29,-96.79 2828.2,-96.39 2825.12,-96 2477.06,-51.53 2068.48,-37.22 1828.79,-32.63"/>
<polygon fill="blue" stroke="blue" stroke-width="5" points="1829.21,-28.27 1819.13,-32.46 1829.04,-37.02 1829.21,-28.27"/>
<text text-anchor="middle" x="2777.5" y="-72.45" font-family="Times,serif" font-size="14.00">	 &#160;Aggregated On bene_id, year, state</text>
</g>
<!-- medicare.ps.zip -->
<g id="node9" class="node">
<title>medicare.ps.zip</title>
<g id="a_node9"><a xlink:href="../medicare.ps/zip.html" xlink:title="&lt;TABLE&gt;" target="_blank">
<polygon fill="none" stroke="black" points="3749.62,-515 2834.62,-515 2834.62,-324 3749.62,-324 3749.62,-515"/>
<text text-anchor="start" x="2925.38" y="-493.7" font-family="Times,serif" font-weight="bold" font-size="14.00">medicare.ps.zip</text>
<text text-anchor="start" x="2870.62" y="-447.7" font-family="Times,serif" font-size="14.00">US Postal ZIP code, the first 5 digits</text>
<text text-anchor="start" x="2959.88" y="-431.2" font-family="Times,serif" font-size="14.00">of it</text>
<polygon fill="none" stroke="black" points="2845.62,-379 2845.62,-401 3096.62,-401 3096.62,-379 2845.62,-379"/>
<text text-anchor="start" x="2848.62" y="-384.7" font-family="Times,serif" font-size="14.00">numeric →</text>
<polygon fill="none" stroke="black" points="3098.62,-379 3098.62,-401 3738.62,-401 3738.62,-379 3098.62,-379"/>
<text text-anchor="start" x="3101.38" y="-384.7" font-family="Times,serif" font-size="14.00">(CASE WHEN {column_name} &lt; 100000 THEN {column_name}::int ELSE ({column_name}/10000)::INT END)</text>
<polygon fill="none" stroke="black" points="2845.62,-355 2845.62,-377 3096.62,-377 3096.62,-355 2845.62,-355"/>
<text text-anchor="start" x="2848.62" y="-360.7" font-family="Times,serif" font-size="14.00">character varying →</text>
<polygon fill="none" stroke="black" points="3098.62,-355 3098.62,-377 3738.62,-377 3738.62,-355 3098.62,-355"/>
<text text-anchor="start" x="3101.62" y="-360.7" font-family="Times,serif" font-size="14.00">SUBSTRING({column_name} FROM 1 FOR 5)::INT</text>
<polygon fill="none" stroke="black" points="2845.62,-331 2845.62,-353 3096.62,-353 3096.62,-331 2845.62,-331"/>
<text text-anchor="start" x="2848.62" y="-336.7" font-family="Times,serif" font-size="14.00">integer →</text>
<polygon fill="none" stroke="black" points="3098.62,-331 3098.62,-353 3738.62,-353 3738.62,-331 3098.62,-331"/>
<text text-anchor="start" x="3101.62" y="-336.7" font-family="Times,serif" font-size="14.00">{column_name}::INT</text>
<polygon fill="none" stroke="black" points="2842.62,-328 2842.62,-511 3741.62,-511 3741.62,-328 2842.62,-328"/>
</a>
</g>
</g>
<!-- medicare.ps.zip&#45;&gt;medicare._ps.zip -->
<g id="edge8" class="edge">
<title>medicare.ps.zip&#45;&gt;medicare._ps.zip</title>
<path fill="none" stroke="black" d="M3292.12,-323.64C3292.12,-315.42 3292.12,-307.06 3292.12,-298.76"/>
<polygon fill="black" stroke="black" points="3295.63,-299 3292.13,-289 3288.63,-299 3295.63,-299"/>
<text text-anchor="middle" x="3311.62" y="-300.45" font-family="Times,serif" font-size="14.00">Copied</text>
</g>
<!-- medicare.ps.zip_parent -->
<g id="node10" class="node">
<title>medicare.ps.zip_parent</title>
<g id="a_node10"><a xlink:href="../medicare.ps/zip.html" xlink:title="8 incoming links (columns)" target="_blank">
<path fill="yellow" stroke="black" d="M3400.12,-650.18C3400.12,-655.6 3351.72,-660 3292.12,-660 3232.53,-660 3184.12,-655.6 3184.12,-650.18 3184.12,-650.18 3184.12,-561.82 3184.12,-561.82 3184.12,-556.4 3232.53,-552 3292.12,-552 3351.72,-552 3400.12,-556.4 3400.12,-561.82 3400.12,-561.82 3400.12,-650.18 3400.12,-650.18"/>
<path fill="none" stroke="black" d="M3400.12,-650.18C3400.12,-644.76 3351.72,-640.36 3292.12,-640.36 3232.53,-640.36 3184.12,-644.76 3184.12,-650.18"/>
<text text-anchor="middle" x="3292.12" y="-600.95" font-family="Times,serif" font-size="14.00">8 incoming links (columns)</text>
</a>
</g>
</g>
<!-- medicare.ps.zip_parent&#45;&gt;medicare.ps.zip -->
<g id="edge9" class="edge">
<title>medicare.ps.zip_parent&#45;&gt;medicare.ps.zip</title>
<path fill="none" stroke="goldenrod" stroke-width="6" d="M3292.12,-551.63C3292.12,-545.23 3292.12,-538.52 3292.12,-531.66"/>
<polygon fill="goldenrod" stroke="goldenrod" stroke-width="6" points="3297.38,-531.93 3292.13,-521.93 3286.88,-531.93 3297.38,-531.93"/>
</g>
<!-- medicare._ps.fips2&#45;&gt;medicare._enrollments.fips3_valdiated -->
<g id="edge10" class="edge">
<title>medicare._ps.fips2&#45;&gt;medicare._enrollments.fips3_valdiated</title>
<path fill="none" stroke="blue" stroke-width="5" d="M373.43,-110.82C389.96,-105.01 406.7,-99.91 423.12,-96 606.34,-52.44 1127.57,-37.74 1419.56,-32.87"/>
<polygon fill="blue" stroke="blue" stroke-width="5" points="1419.28,-37.25 1429.21,-32.71 1419.14,-28.5 1419.28,-37.25"/>
<text text-anchor="middle" x="646.5" y="-72.45" font-family="Times,serif" font-size="14.00">	 &#160;Aggregated On bene_id, year, state</text>
</g>
</g>
</svg>
