<?xml version="1.0" encoding="UTF-8" standalone="no"?>
<!DOCTYPE svg PUBLIC "-//W3C//DTD SVG 1.1//EN"
 "http://www.w3.org/Graphics/SVG/1.1/DTD/svg11.dtd">
<!-- Generated by graphviz version 10.0.1 (20240210.2158)
 -->
<!-- Pages: 1 -->
<svg width="444pt" height="654pt"
 viewBox="0.00 0.00 443.88 654.00" xmlns="http://www.w3.org/2000/svg" xmlns:xlink="http://www.w3.org/1999/xlink">
<g id="graph0" class="graph" transform="scale(1 1) rotate(0) translate(4 650)">
<polygon fill="white" stroke="none" points="-4,4 -4,-650 439.88,-650 439.88,4 -4,4"/>
<!-- medicare.qc_enrl_bene.fips2 -->
<g id="node1" class="node">
<title>medicare.qc_enrl_bene.fips2</title>
<g id="a_node1"><a xlink:href="../medicare.qc_enrl_bene/fips2.html" xlink:title="&lt;TABLE&gt;" target="_blank">
<polygon fill="none" stroke="black" points="303.38,-59 110.88,-59 110.88,0 303.38,0 303.38,-59"/>
<text text-anchor="start" x="123.88" y="-37.7" font-family="Times,serif" font-weight="bold" font-size="14.00">medicare.qc_enrl_bene.fips2</text>
<polygon fill="none" stroke="black" points="121.88,-7 121.88,-29.5 292.38,-29.5 292.38,-7 121.88,-7"/>
<text text-anchor="start" x="124.88" y="-13.2" font-family="Times,serif" font-size="14.00">MAX(fips2)</text>
<polygon fill="none" stroke="black" points="118.88,-4 118.88,-55 295.38,-55 295.38,-4 118.88,-4"/>
</a>
</g>
</g>
<!-- medicare.enrollments.fips2 -->
<g id="node2" class="node">
<title>medicare.enrollments.fips2</title>
<g id="a_node2"><a xlink:href="../medicare.enrollments/fips2.html" xlink:title="&lt;TABLE&gt;" target="_blank">
<polygon fill="none" stroke="black" points="299.25,-155 115,-155 115,-96 299.25,-96 299.25,-155"/>
<text text-anchor="start" x="128" y="-133.7" font-family="Times,serif" font-weight="bold" font-size="14.00">medicare.enrollments.fips2</text>
<polygon fill="none" stroke="black" points="126,-103 126,-125.5 288.25,-125.5 288.25,-103 126,-103"/>
<text text-anchor="start" x="129" y="-109.2" font-family="Times,serif" font-size="14.00">MAX(fips2)</text>
<polygon fill="none" stroke="black" points="123,-100 123,-151 291.25,-151 291.25,-100 123,-100"/>
</a>
</g>
</g>
<!-- medicare.enrollments.fips2&#45;&gt;medicare.qc_enrl_bene.fips2 -->
<g id="edge1" class="edge">
<title>medicare.enrollments.fips2&#45;&gt;medicare.qc_enrl_bene.fips2</title>
<path fill="none" stroke="black" d="M207.12,-95.53C207.12,-87.68 207.12,-79.05 207.12,-70.7"/>
<polygon fill="black" stroke="black" points="210.63,-70.73 207.13,-60.73 203.63,-70.73 210.63,-70.73"/>
<text text-anchor="middle" x="253.25" y="-72.45" font-family="Times,serif" font-size="14.00">	join natural</text>
</g>
<!-- medicare._enrollments.fips2 -->
<g id="node3" class="node">
<title>medicare._enrollments.fips2</title>
<g id="a_node3"><a xlink:href="../medicare._enrollments/fips2.html" xlink:title="&lt;TABLE&gt;" target="_blank">
<polygon fill="none" stroke="black" points="302.62,-251 111.62,-251 111.62,-192 302.62,-192 302.62,-251"/>
<text text-anchor="start" x="124.62" y="-229.7" font-family="Times,serif" font-weight="bold" font-size="14.00">medicare._enrollments.fips2</text>
<polygon fill="none" stroke="black" points="122.62,-199 122.62,-221.5 291.62,-221.5 291.62,-199 122.62,-199"/>
<text text-anchor="start" x="125.62" y="-205.2" font-family="Times,serif" font-size="14.00">MAX(fips2)</text>
<polygon fill="none" stroke="black" points="119.62,-196 119.62,-247 294.62,-247 294.62,-196 119.62,-196"/>
</a>
</g>
</g>
<!-- medicare._enrollments.fips2&#45;&gt;medicare.enrollments.fips2 -->
<g id="edge2" class="edge">
<title>medicare._enrollments.fips2&#45;&gt;medicare.enrollments.fips2</title>
<path fill="none" stroke="black" d="M207.12,-191.53C207.12,-183.68 207.12,-175.05 207.12,-166.7"/>
<polygon fill="black" stroke="black" points="210.63,-166.73 207.13,-156.73 203.63,-166.73 210.63,-166.73"/>
<text text-anchor="middle" x="226.62" y="-168.45" font-family="Times,serif" font-size="14.00">Copied</text>
</g>
<!-- medicare._ps.fips2 -->
<g id="node4" class="node">
<title>medicare._ps.fips2</title>
<g id="a_node4"><a xlink:href="../medicare._ps/fips2.html" xlink:title="&lt;TABLE&gt;" target="_blank">
<polygon fill="none" stroke="black" points="414.25,-448.5 0,-448.5 0,-288 414.25,-288 414.25,-448.5"/>
<text text-anchor="start" x="152.75" y="-427.2" font-family="Times,serif" font-weight="bold" font-size="14.00">medicare._ps.fips2</text>
<text text-anchor="start" x="47.62" y="-380.7" font-family="Times,serif" font-size="14.00">2 digit state FIPS, see https://en.wikip</text>
<text text-anchor="start" x="36" y="-364.2" font-family="Times,serif" font-size="14.00">edia.org/wiki/Federal_Information_Proces</text>
<text text-anchor="start" x="81" y="-347.7" font-family="Times,serif" font-size="14.00">sing_Standard_state_code</text>
<polygon fill="none" stroke="black" points="11,-295 11,-317.5 403.25,-317.5 403.25,-295 11,-295"/>
<text text-anchor="start" x="14" y="-301.2" font-family="Times,serif" font-size="14.00">(SELECT fips2 FROM public.us_states as s WHERE s.ssa2 = &quot;state&quot;)</text>
<polygon fill="none" stroke="black" points="8,-292 8,-444.5 406.25,-444.5 406.25,-292 8,-292"/>
</a>
</g>
</g>
<!-- medicare._ps.fips2&#45;&gt;medicare._enrollments.fips2 -->
<g id="edge3" class="edge">
<title>medicare._ps.fips2&#45;&gt;medicare._enrollments.fips2</title>
<path fill="none" stroke="blue" stroke-width="5" d="M207.12,-287.68C207.12,-280.77 207.12,-273.94 207.12,-267.47"/>
<polygon fill="blue" stroke="blue" stroke-width="5" points="211.5,-267.53 207.13,-257.53 202.75,-267.53 211.5,-267.53"/>
<text text-anchor="middle" x="321.5" y="-264.45" font-family="Times,serif" font-size="14.00">	 &#160;Aggregated On bene_id, year, state</text>
</g>
<!-- medicare.ps.fips2 -->
<g id="node5" class="node">
<title>medicare.ps.fips2</title>
<g id="a_node5"><a xlink:href="../medicare.ps/fips2.html" xlink:title="&lt;TABLE&gt;" target="_blank">
<polygon fill="none" stroke="black" points="414.25,-646 0,-646 0,-485.5 414.25,-485.5 414.25,-646"/>
<text text-anchor="start" x="156.12" y="-624.7" font-family="Times,serif" font-weight="bold" font-size="14.00">medicare.ps.fips2</text>
<text text-anchor="start" x="47.62" y="-578.2" font-family="Times,serif" font-size="14.00">2 digit state FIPS, see https://en.wikip</text>
<text text-anchor="start" x="36" y="-561.7" font-family="Times,serif" font-size="14.00">edia.org/wiki/Federal_Information_Proces</text>
<text text-anchor="start" x="81" y="-545.2" font-family="Times,serif" font-size="14.00">sing_Standard_state_code</text>
<polygon fill="none" stroke="black" points="11,-492.5 11,-515 403.25,-515 403.25,-492.5 11,-492.5"/>
<text text-anchor="start" x="14" y="-498.7" font-family="Times,serif" font-size="14.00">(SELECT fips2 FROM public.us_states as s WHERE s.ssa2 = &quot;state&quot;)</text>
<polygon fill="none" stroke="black" points="8,-489.5 8,-642 406.25,-642 406.25,-489.5 8,-489.5"/>
</a>
</g>
</g>
<!-- medicare.ps.fips2&#45;&gt;medicare._ps.fips2 -->
<g id="edge4" class="edge">
<title>medicare.ps.fips2&#45;&gt;medicare._ps.fips2</title>
<path fill="none" stroke="black" d="M207.12,-485.23C207.12,-476.95 207.12,-468.48 207.12,-460.08"/>
<polygon fill="black" stroke="black" points="210.63,-460.21 207.13,-450.21 203.63,-460.21 210.63,-460.21"/>
<text text-anchor="middle" x="226.62" y="-461.95" font-family="Times,serif" font-size="14.00">Copied</text>
</g>
</g>
</svg>
