<?xml version="1.0" encoding="UTF-8" standalone="no"?>
<!DOCTYPE svg PUBLIC "-//W3C//DTD SVG 1.1//EN"
 "http://www.w3.org/Graphics/SVG/1.1/DTD/svg11.dtd">
<!-- Generated by graphviz version 10.0.1 (20240210.2158)
 -->
<!-- Pages: 1 -->
<svg width="2824pt" height="607pt"
 viewBox="0.00 0.00 2824.38 607.00" xmlns="http://www.w3.org/2000/svg" xmlns:xlink="http://www.w3.org/1999/xlink">
<g id="graph0" class="graph" transform="scale(1 1) rotate(0) translate(4 603)">
<polygon fill="white" stroke="none" points="-4,4 -4,-603 2820.38,-603 2820.38,4 -4,4"/>
<!-- medicare._enrollments.fips5 -->
<g id="node1" class="node">
<title>medicare._enrollments.fips5</title>
<g id="a_node1"><a xlink:href="../medicare._enrollments/fips5.html" xlink:title="&lt;TABLE&gt;" target="_blank">
<polygon fill="none" stroke="black" points="1995.75,-59 1804.75,-59 1804.75,0 1995.75,0 1995.75,-59"/>
<text text-anchor="start" x="1817.75" y="-37.7" font-family="Times,serif" font-weight="bold" font-size="14.00">medicare._enrollments.fips5</text>
<polygon fill="none" stroke="black" points="1815.75,-7 1815.75,-29.5 1984.75,-29.5 1984.75,-7 1815.75,-7"/>
<text text-anchor="start" x="1818.75" y="-13.2" font-family="Times,serif" font-size="14.00">(MAX(fips2) || MAX(fips3))</text>
<polygon fill="none" stroke="black" points="1812.75,-4 1812.75,-55 1987.75,-55 1987.75,-4 1812.75,-4"/>
</a>
</g>
</g>
<!-- medicare._ps.fips3 -->
<g id="node2" class="node">
<title>medicare._ps.fips3</title>
<g id="a_node2"><a xlink:href="../medicare._ps/fips3.html" xlink:title="&lt;TABLE&gt;" target="_blank">
<polygon fill="none" stroke="black" points="2384.5,-205.75 0,-205.75 0,-146.75 2384.5,-146.75 2384.5,-205.75"/>
<text text-anchor="start" x="1137.88" y="-184.45" font-family="Times,serif" font-weight="bold" font-size="14.00">medicare._ps.fips3</text>
<polygon fill="none" stroke="black" points="11,-153.75 11,-176.25 2373.5,-176.25 2373.5,-153.75 11,-153.75"/>
<text text-anchor="start" x="14" y="-159.95" font-family="Times,serif" font-size="14.00">CASE WHEN ssa3 is NOT NULL THEN &#160;CASE WHEN year &gt; 2010 THEN &#160;&#160;&#160;&#160;&#160;(SELECT fips3 from public.ssa as s where ps.ssa3 = s.ssa3 and ps.year = s.year and ps.fips2 = s.fips2 ORDER BY 1 DESC LIMIT 1) &#160;&#160;&#160;ELSE &#160;&#160;&#160;&#160;&#160;(SELECT fips3 from public.ssa as s where ps.ssa3 = s.ssa3 and 2003 = s.year and ps.fips2 = s.fips2 ORDER BY 1 DESC LIMIT 1) &#160;ENDELSE &#160;(SELECT public.zip_to_fips3(year, zip))END AS fips3</text>
<polygon fill="none" stroke="black" points="8,-150.75 8,-201.75 2376.5,-201.75 2376.5,-150.75 8,-150.75"/>
</a>
</g>
</g>
<!-- medicare._ps.fips3&#45;&gt;medicare._enrollments.fips5 -->
<g id="edge1" class="edge">
<title>medicare._ps.fips3&#45;&gt;medicare._enrollments.fips5</title>
<path fill="none" stroke="blue" stroke-width="5" d="M1333.82,-146.31C1467.58,-118.96 1665.56,-78.48 1788.54,-53.34"/>
<polygon fill="blue" stroke="blue" stroke-width="5" points="1789.23,-57.66 1798.15,-51.37 1787.48,-49.09 1789.23,-57.66"/>
<text text-anchor="middle" x="1785.62" y="-72.45" font-family="Times,serif" font-size="14.00">	 &#160;Aggregated On bene_id, year, state</text>
</g>
<!-- medicare.ps.ssa3 -->
<g id="node3" class="node">
<title>medicare.ps.ssa3</title>
<g id="a_node3"><a xlink:href="../medicare.ps/ssa3.html" xlink:title="&lt;TABLE&gt;" target="_blank">
<polygon fill="none" stroke="black" points="1015,-433.5 737.5,-433.5 737.5,-314 1015,-314 1015,-433.5"/>
<text text-anchor="start" x="827.12" y="-412.2" font-family="Times,serif" font-weight="bold" font-size="14.00">medicare.ps.ssa3</text>
<text text-anchor="start" x="773.5" y="-365.7" font-family="Times,serif" font-size="14.00">Social Security Administration (SSA)</text>
<text text-anchor="start" x="803.88" y="-349.2" font-family="Times,serif" font-size="14.00">three digit code for county</text>
<polygon fill="none" stroke="black" points="745.5,-318 745.5,-429.5 1007,-429.5 1007,-318 745.5,-318"/>
</a>
</g>
</g>
<!-- medicare.ps.ssa3&#45;&gt;medicare._ps.fips3 -->
<g id="edge2" class="edge">
<title>medicare.ps.ssa3&#45;&gt;medicare._ps.fips3</title>
<path fill="none" stroke="black" d="M971.92,-313.56C1025.57,-280.37 1090.63,-240.12 1136.09,-211.99"/>
<polygon fill="black" stroke="black" points="1137.82,-215.04 1144.49,-206.8 1134.14,-209.09 1137.82,-215.04"/>
<text text-anchor="middle" x="1072.88" y="-269.95" font-family="Times,serif" font-size="14.00"> &#160;Transformed</text>
</g>
<!-- medicare.ps.ssa3_parent -->
<g id="node4" class="node">
<title>medicare.ps.ssa3_parent</title>
<g id="a_node4"><a xlink:href="../medicare.ps/ssa3.html" xlink:title="8 incoming links (columns)" target="_blank">
<path fill="yellow" stroke="black" d="M984.25,-589.18C984.25,-594.6 935.84,-599 876.25,-599 816.66,-599 768.25,-594.6 768.25,-589.18 768.25,-589.18 768.25,-500.82 768.25,-500.82 768.25,-495.4 816.66,-491 876.25,-491 935.84,-491 984.25,-495.4 984.25,-500.82 984.25,-500.82 984.25,-589.18 984.25,-589.18"/>
<path fill="none" stroke="black" d="M984.25,-589.18C984.25,-583.76 935.84,-579.36 876.25,-579.36 816.66,-579.36 768.25,-583.76 768.25,-589.18"/>
<text text-anchor="middle" x="876.25" y="-539.95" font-family="Times,serif" font-size="14.00">8 incoming links (columns)</text>
</a>
</g>
</g>
<!-- medicare.ps.ssa3_parent&#45;&gt;medicare.ps.ssa3 -->
<g id="edge3" class="edge">
<title>medicare.ps.ssa3_parent&#45;&gt;medicare.ps.ssa3</title>
<path fill="none" stroke="goldenrod" stroke-width="6" d="M876.25,-490.91C876.25,-477.88 876.25,-463.69 876.25,-449.84"/>
<polygon fill="goldenrod" stroke="goldenrod" stroke-width="6" points="881.5,-450.29 876.25,-440.29 871,-450.29 881.5,-450.29"/>
</g>
<!-- medicare.ps.year -->
<g id="node5" class="node">
<title>medicare.ps.year</title>
<g id="a_node5"><a xlink:href="../medicare.ps/year.html" xlink:title="&lt;TABLE&gt;" target="_blank">
<polygon fill="none" stroke="black" points="2151.12,-437.5 1033.38,-437.5 1033.38,-310 2151.12,-310 2151.12,-437.5"/>
<text text-anchor="start" x="1542.38" y="-416.2" font-family="Times,serif" font-weight="bold" font-size="14.00">medicare.ps.year</text>
<text text-anchor="start" x="1069.38" y="-369.7" font-family="Times,serif" font-size="14.00">Beneficiary Enrollment Reference Year</text>
<polygon fill="none" stroke="black" points="1044.38,-317 1044.38,-339.5 2140.12,-339.5 2140.12,-317 1044.38,-317"/>
<text text-anchor="start" x="1047.38" y="-323.2" font-family="Times,serif" font-size="14.00">(CASE WHEN &quot;year&quot;::int &lt; 20 THEN (2000 + &quot;year&quot;::int) WHEN (20 &lt; &quot;year&quot;::int AND &quot;year&quot;::int &lt; 100) THEN (1900 + &quot;year&quot;::int) WHEN &quot;year&quot; IS NULL THEN 2000 ELSE &quot;year&quot;::int END)</text>
<polygon fill="none" stroke="black" points="1041.38,-314 1041.38,-433.5 2143.12,-433.5 2143.12,-314 1041.38,-314"/>
</a>
</g>
</g>
<!-- medicare.ps.year&#45;&gt;medicare._ps.fips3 -->
<g id="edge4" class="edge">
<title>medicare.ps.year&#45;&gt;medicare._ps.fips3</title>
<path fill="none" stroke="black" d="M1462.93,-309.55C1396,-276.83 1316.94,-238.19 1261.61,-211.15"/>
<polygon fill="black" stroke="black" points="1263.44,-208.15 1252.92,-206.9 1260.37,-214.44 1263.44,-208.15"/>
<text text-anchor="middle" x="1430.88" y="-269.95" font-family="Times,serif" font-size="14.00"> &#160;Transformed</text>
</g>
<!-- medicare.ps.year_parent -->
<g id="node6" class="node">
<title>medicare.ps.year_parent</title>
<g id="a_node6"><a xlink:href="../medicare.ps/year.html" xlink:title="8 incoming links (columns)" target="_blank">
<path fill="yellow" stroke="black" d="M1700.25,-589.18C1700.25,-594.6 1651.84,-599 1592.25,-599 1532.66,-599 1484.25,-594.6 1484.25,-589.18 1484.25,-589.18 1484.25,-500.82 1484.25,-500.82 1484.25,-495.4 1532.66,-491 1592.25,-491 1651.84,-491 1700.25,-495.4 1700.25,-500.82 1700.25,-500.82 1700.25,-589.18 1700.25,-589.18"/>
<path fill="none" stroke="black" d="M1700.25,-589.18C1700.25,-583.76 1651.84,-579.36 1592.25,-579.36 1532.66,-579.36 1484.25,-583.76 1484.25,-589.18"/>
<text text-anchor="middle" x="1592.25" y="-539.95" font-family="Times,serif" font-size="14.00">8 incoming links (columns)</text>
</a>
</g>
</g>
<!-- medicare.ps.year_parent&#45;&gt;medicare.ps.year -->
<g id="edge5" class="edge">
<title>medicare.ps.year_parent&#45;&gt;medicare.ps.year</title>
<path fill="none" stroke="goldenrod" stroke-width="6" d="M1592.25,-490.91C1592.25,-479.18 1592.25,-466.51 1592.25,-454"/>
<polygon fill="goldenrod" stroke="goldenrod" stroke-width="6" points="1597.5,-454.18 1592.25,-444.18 1587,-454.18 1597.5,-454.18"/>
</g>
<!-- medicare.ps.fips2 -->
<g id="node7" class="node">
<title>medicare.ps.fips2</title>
<g id="a_node7"><a xlink:href="../medicare.ps/fips2.html" xlink:title="&lt;TABLE&gt;" target="_blank">
<polygon fill="none" stroke="black" points="2738.38,-454 2324.12,-454 2324.12,-293.5 2738.38,-293.5 2738.38,-454"/>
<text text-anchor="start" x="2480.25" y="-432.7" font-family="Times,serif" font-weight="bold" font-size="14.00">medicare.ps.fips2</text>
<text text-anchor="start" x="2371.75" y="-386.2" font-family="Times,serif" font-size="14.00">2 digit state FIPS, see https://en.wikip</text>
<text text-anchor="start" x="2360.12" y="-369.7" font-family="Times,serif" font-size="14.00">edia.org/wiki/Federal_Information_Proces</text>
<text text-anchor="start" x="2405.12" y="-353.2" font-family="Times,serif" font-size="14.00">sing_Standard_state_code</text>
<polygon fill="none" stroke="black" points="2335.12,-300.5 2335.12,-323 2727.38,-323 2727.38,-300.5 2335.12,-300.5"/>
<text text-anchor="start" x="2338.12" y="-306.7" font-family="Times,serif" font-size="14.00">(SELECT fips2 FROM public.us_states as s WHERE s.ssa2 = &quot;state&quot;)</text>
<polygon fill="none" stroke="black" points="2332.12,-297.5 2332.12,-450 2730.38,-450 2730.38,-297.5 2332.12,-297.5"/>
</a>
</g>
</g>
<!-- medicare.ps.fips2&#45;&gt;medicare._ps.fips3 -->
<g id="edge6" class="edge">
<title>medicare.ps.fips2&#45;&gt;medicare._ps.fips3</title>
<path fill="none" stroke="black" d="M2323.89,-324.98C2270.73,-313.69 2213.52,-302.37 2160.25,-293.5 1942.01,-257.16 1694.28,-227.63 1504.06,-207.42"/>
<polygon fill="black" stroke="black" points="1504.58,-203.95 1494.27,-206.38 1503.85,-210.92 1504.58,-203.95"/>
<text text-anchor="middle" x="2080.88" y="-269.95" font-family="Times,serif" font-size="14.00"> &#160;Transformed</text>
</g>
<!-- medicare._ps.fips2 -->
<g id="node8" class="node">
<title>medicare._ps.fips2</title>
<g id="a_node8"><a xlink:href="../medicare._ps/fips2.html" xlink:title="&lt;TABLE&gt;" target="_blank">
<polygon fill="none" stroke="black" points="2816.38,-256.5 2402.12,-256.5 2402.12,-96 2816.38,-96 2816.38,-256.5"/>
<text text-anchor="start" x="2554.88" y="-235.2" font-family="Times,serif" font-weight="bold" font-size="14.00">medicare._ps.fips2</text>
<text text-anchor="start" x="2449.75" y="-188.7" font-family="Times,serif" font-size="14.00">2 digit state FIPS, see https://en.wikip</text>
<text text-anchor="start" x="2438.12" y="-172.2" font-family="Times,serif" font-size="14.00">edia.org/wiki/Federal_Information_Proces</text>
<text text-anchor="start" x="2483.12" y="-155.7" font-family="Times,serif" font-size="14.00">sing_Standard_state_code</text>
<polygon fill="none" stroke="black" points="2413.12,-103 2413.12,-125.5 2805.38,-125.5 2805.38,-103 2413.12,-103"/>
<text text-anchor="start" x="2416.12" y="-109.2" font-family="Times,serif" font-size="14.00">(SELECT fips2 FROM public.us_states as s WHERE s.ssa2 = &quot;state&quot;)</text>
<polygon fill="none" stroke="black" points="2410.12,-100 2410.12,-252.5 2808.38,-252.5 2808.38,-100 2410.12,-100"/>
</a>
</g>
</g>
<!-- medicare.ps.fips2&#45;&gt;medicare._ps.fips2 -->
<g id="edge8" class="edge">
<title>medicare.ps.fips2&#45;&gt;medicare._ps.fips2</title>
<path fill="none" stroke="black" d="M2562.98,-293.23C2566.39,-284.66 2569.89,-275.9 2573.35,-267.22"/>
<polygon fill="black" stroke="black" points="2576.54,-268.69 2576.99,-258.1 2570.04,-266.09 2576.54,-268.69"/>
<text text-anchor="middle" x="2589.75" y="-269.95" font-family="Times,serif" font-size="14.00">Copied</text>
</g>
<!-- medicare._ps.fips2&#45;&gt;medicare._enrollments.fips5 -->
<g id="edge7" class="edge">
<title>medicare._ps.fips2&#45;&gt;medicare._enrollments.fips5</title>
<path fill="none" stroke="blue" stroke-width="5" d="M2401.72,-98.15C2398.89,-97.41 2396.06,-96.69 2393.25,-96 2264.48,-64.23 2112.73,-47 2011.95,-38.31"/>
<polygon fill="blue" stroke="blue" stroke-width="5" points="2012.46,-33.96 2002.13,-37.48 2011.73,-42.68 2012.46,-33.96"/>
<text text-anchor="middle" x="2420.62" y="-72.45" font-family="Times,serif" font-size="14.00">	 &#160;Aggregated On bene_id, year, state</text>
</g>
</g>
</svg>
