<?xml version="1.0" encoding="UTF-8" standalone="no"?>
<!DOCTYPE svg PUBLIC "-//W3C//DTD SVG 1.1//EN"
 "http://www.w3.org/Graphics/SVG/1.1/DTD/svg11.dtd">
<!-- Generated by graphviz version 10.0.1 (20240210.2158)
 -->
<!-- Pages: 1 -->
<svg width="422pt" height="366pt"
 viewBox="0.00 0.00 422.25 366.00" xmlns="http://www.w3.org/2000/svg" xmlns:xlink="http://www.w3.org/1999/xlink">
<g id="graph0" class="graph" transform="scale(1 1) rotate(0) translate(4 362)">
<polygon fill="white" stroke="none" points="-4,4 -4,-362 418.25,-362 418.25,4 -4,4"/>
<!-- medicare._ps.fips2 -->
<g id="node1" class="node">
<title>medicare._ps.fips2</title>
<g id="a_node1"><a xlink:href="../medicare._ps/fips2.html" xlink:title="&lt;TABLE&gt;" target="_blank">
<polygon fill="none" stroke="black" points="414.25,-160.5 0,-160.5 0,0 414.25,0 414.25,-160.5"/>
<text text-anchor="start" x="152.75" y="-139.2" font-family="Times,serif" font-weight="bold" font-size="14.00">medicare._ps.fips2</text>
<text text-anchor="start" x="47.62" y="-92.7" font-family="Times,serif" font-size="14.00">2 digit state FIPS, see https://en.wikip</text>
<text text-anchor="start" x="36" y="-76.2" font-family="Times,serif" font-size="14.00">edia.org/wiki/Federal_Information_Proces</text>
<text text-anchor="start" x="81" y="-59.7" font-family="Times,serif" font-size="14.00">sing_Standard_state_code</text>
<polygon fill="none" stroke="black" points="11,-7 11,-29.5 403.25,-29.5 403.25,-7 11,-7"/>
<text text-anchor="start" x="14" y="-13.2" font-family="Times,serif" font-size="14.00">(SELECT fips2 FROM public.us_states as s WHERE s.ssa2 = &quot;state&quot;)</text>
<polygon fill="none" stroke="black" points="8,-4 8,-156.5 406.25,-156.5 406.25,-4 8,-4"/>
</a>
</g>
</g>
<!-- medicare.ps.fips2 -->
<g id="node2" class="node">
<title>medicare.ps.fips2</title>
<g id="a_node2"><a xlink:href="../medicare.ps/fips2.html" xlink:title="&lt;TABLE&gt;" target="_blank">
<polygon fill="none" stroke="black" points="414.25,-358 0,-358 0,-197.5 414.25,-197.5 414.25,-358"/>
<text text-anchor="start" x="156.12" y="-336.7" font-family="Times,serif" font-weight="bold" font-size="14.00">medicare.ps.fips2</text>
<text text-anchor="start" x="47.62" y="-290.2" font-family="Times,serif" font-size="14.00">2 digit state FIPS, see https://en.wikip</text>
<text text-anchor="start" x="36" y="-273.7" font-family="Times,serif" font-size="14.00">edia.org/wiki/Federal_Information_Proces</text>
<text text-anchor="start" x="81" y="-257.2" font-family="Times,serif" font-size="14.00">sing_Standard_state_code</text>
<polygon fill="none" stroke="black" points="11,-204.5 11,-227 403.25,-227 403.25,-204.5 11,-204.5"/>
<text text-anchor="start" x="14" y="-210.7" font-family="Times,serif" font-size="14.00">(SELECT fips2 FROM public.us_states as s WHERE s.ssa2 = &quot;state&quot;)</text>
<polygon fill="none" stroke="black" points="8,-201.5 8,-354 406.25,-354 406.25,-201.5 8,-201.5"/>
</a>
</g>
</g>
<!-- medicare.ps.fips2&#45;&gt;medicare._ps.fips2 -->
<g id="edge1" class="edge">
<title>medicare.ps.fips2&#45;&gt;medicare._ps.fips2</title>
<path fill="none" stroke="black" d="M207.12,-197.23C207.12,-188.95 207.12,-180.48 207.12,-172.08"/>
<polygon fill="black" stroke="black" points="210.63,-172.21 207.13,-162.21 203.63,-172.21 210.63,-172.21"/>
<text text-anchor="middle" x="226.62" y="-173.95" font-family="Times,serif" font-size="14.00">Copied</text>
</g>
</g>
</svg>
