<?xml version="1.0" encoding="UTF-8" standalone="no"?>
<!DOCTYPE svg PUBLIC "-//W3C//DTD SVG 1.1//EN"
 "http://www.w3.org/Graphics/SVG/1.1/DTD/svg11.dtd">
<!-- Generated by graphviz version 10.0.1 (20240210.2158)
 -->
<!-- Pages: 1 -->
<svg width="2543pt" height="410pt"
 viewBox="0.00 0.00 2543.12 409.50" xmlns="http://www.w3.org/2000/svg" xmlns:xlink="http://www.w3.org/1999/xlink">
<g id="graph0" class="graph" transform="scale(1 1) rotate(0) translate(4 405.5)">
<polygon fill="white" stroke="none" points="-4,4 -4,-405.5 2539.12,-405.5 2539.12,4 -4,4"/>
<!-- medicare._ps.fips3 -->
<g id="node1" class="node">
<title>medicare._ps.fips3</title>
<g id="a_node1"><a xlink:href="../medicare._ps/fips3.html" xlink:title="&lt;TABLE&gt;" target="_blank">
<polygon fill="none" stroke="black" points="2384.5,-59 0,-59 0,0 2384.5,0 2384.5,-59"/>
<text text-anchor="start" x="1137.88" y="-37.7" font-family="Times,serif" font-weight="bold" font-size="14.00">medicare._ps.fips3</text>
<polygon fill="none" stroke="black" points="11,-7 11,-29.5 2373.5,-29.5 2373.5,-7 11,-7"/>
<text text-anchor="start" x="14" y="-13.2" font-family="Times,serif" font-size="14.00">CASE WHEN ssa3 is NOT NULL THEN &#160;CASE WHEN year &gt; 2010 THEN &#160;&#160;&#160;&#160;&#160;(SELECT fips3 from public.ssa as s where ps.ssa3 = s.ssa3 and ps.year = s.year and ps.fips2 = s.fips2 ORDER BY 1 DESC LIMIT 1) &#160;&#160;&#160;ELSE &#160;&#160;&#160;&#160;&#160;(SELECT fips3 from public.ssa as s where ps.ssa3 = s.ssa3 and 2003 = s.year and ps.fips2 = s.fips2 ORDER BY 1 DESC LIMIT 1) &#160;ENDELSE &#160;(SELECT public.zip_to_fips3(year, zip))END AS fips3</text>
<polygon fill="none" stroke="black" points="8,-4 8,-55 2376.5,-55 2376.5,-4 8,-4"/>
</a>
</g>
</g>
<!-- medicare.ps.ssa3 -->
<g id="node2" class="node">
<title>medicare.ps.ssa3</title>
<g id="a_node2"><a xlink:href="../medicare.ps/ssa3.html" xlink:title="&lt;TABLE&gt;" target="_blank">
<polygon fill="none" stroke="black" points="967,-236 689.5,-236 689.5,-116.5 967,-116.5 967,-236"/>
<text text-anchor="start" x="779.12" y="-214.7" font-family="Times,serif" font-weight="bold" font-size="14.00">medicare.ps.ssa3</text>
<text text-anchor="start" x="725.5" y="-168.2" font-family="Times,serif" font-size="14.00">Social Security Administration (SSA)</text>
<text text-anchor="start" x="755.88" y="-151.7" font-family="Times,serif" font-size="14.00">three digit code for county</text>
<polygon fill="none" stroke="black" points="697.5,-120.5 697.5,-232 959,-232 959,-120.5 697.5,-120.5"/>
</a>
</g>
</g>
<!-- medicare.ps.ssa3&#45;&gt;medicare._ps.fips3 -->
<g id="edge1" class="edge">
<title>medicare.ps.ssa3&#45;&gt;medicare._ps.fips3</title>
<path fill="none" stroke="black" d="M932.52,-116.15C947,-108.91 961.85,-101.97 976.25,-96 1006.28,-83.55 1039.54,-72.29 1070.77,-62.75"/>
<polygon fill="black" stroke="black" points="1071.71,-66.13 1080.27,-59.89 1069.69,-59.42 1071.71,-66.13"/>
<text text-anchor="middle" x="1064.88" y="-72.45" font-family="Times,serif" font-size="14.00"> &#160;Transformed</text>
</g>
<!-- medicare.ps.ssa3_parent -->
<g id="node3" class="node">
<title>medicare.ps.ssa3_parent</title>
<g id="a_node3"><a xlink:href="../medicare.ps/ssa3.html" xlink:title="8 incoming links (columns)" target="_blank">
<path fill="yellow" stroke="black" d="M936.25,-391.68C936.25,-397.1 887.84,-401.5 828.25,-401.5 768.66,-401.5 720.25,-397.1 720.25,-391.68 720.25,-391.68 720.25,-303.32 720.25,-303.32 720.25,-297.9 768.66,-293.5 828.25,-293.5 887.84,-293.5 936.25,-297.9 936.25,-303.32 936.25,-303.32 936.25,-391.68 936.25,-391.68"/>
<path fill="none" stroke="black" d="M936.25,-391.68C936.25,-386.26 887.84,-381.86 828.25,-381.86 768.66,-381.86 720.25,-386.26 720.25,-391.68"/>
<text text-anchor="middle" x="828.25" y="-342.45" font-family="Times,serif" font-size="14.00">8 incoming links (columns)</text>
</a>
</g>
</g>
<!-- medicare.ps.ssa3_parent&#45;&gt;medicare.ps.ssa3 -->
<g id="edge2" class="edge">
<title>medicare.ps.ssa3_parent&#45;&gt;medicare.ps.ssa3</title>
<path fill="none" stroke="goldenrod" stroke-width="6" d="M828.25,-293.41C828.25,-280.38 828.25,-266.19 828.25,-252.34"/>
<polygon fill="goldenrod" stroke="goldenrod" stroke-width="6" points="833.5,-252.79 828.25,-242.79 823,-252.79 833.5,-252.79"/>
</g>
<!-- medicare.ps.fips2 -->
<g id="node4" class="node">
<title>medicare.ps.fips2</title>
<g id="a_node4"><a xlink:href="../medicare.ps/fips2.html" xlink:title="&lt;TABLE&gt;" target="_blank">
<polygon fill="none" stroke="black" points="1399.38,-256.5 985.12,-256.5 985.12,-96 1399.38,-96 1399.38,-256.5"/>
<text text-anchor="start" x="1141.25" y="-235.2" font-family="Times,serif" font-weight="bold" font-size="14.00">medicare.ps.fips2</text>
<text text-anchor="start" x="1032.75" y="-188.7" font-family="Times,serif" font-size="14.00">2 digit state FIPS, see https://en.wikip</text>
<text text-anchor="start" x="1021.12" y="-172.2" font-family="Times,serif" font-size="14.00">edia.org/wiki/Federal_Information_Proces</text>
<text text-anchor="start" x="1066.12" y="-155.7" font-family="Times,serif" font-size="14.00">sing_Standard_state_code</text>
<polygon fill="none" stroke="black" points="996.12,-103 996.12,-125.5 1388.38,-125.5 1388.38,-103 996.12,-103"/>
<text text-anchor="start" x="999.12" y="-109.2" font-family="Times,serif" font-size="14.00">(SELECT fips2 FROM public.us_states as s WHERE s.ssa2 = &quot;state&quot;)</text>
<polygon fill="none" stroke="black" points="993.12,-100 993.12,-252.5 1391.38,-252.5 1391.38,-100 993.12,-100"/>
</a>
</g>
</g>
<!-- medicare.ps.fips2&#45;&gt;medicare._ps.fips3 -->
<g id="edge3" class="edge">
<title>medicare.ps.fips2&#45;&gt;medicare._ps.fips3</title>
<path fill="none" stroke="black" d="M1192.25,-95.68C1192.25,-87.04 1192.25,-78.54 1192.25,-70.68"/>
<polygon fill="black" stroke="black" points="1195.75,-70.81 1192.25,-60.81 1188.75,-70.81 1195.75,-70.81"/>
<text text-anchor="middle" x="1230.88" y="-72.45" font-family="Times,serif" font-size="14.00"> &#160;Transformed</text>
</g>
<!-- medicare.ps.year -->
<g id="node5" class="node">
<title>medicare.ps.year</title>
<g id="a_node5"><a xlink:href="../medicare.ps/year.html" xlink:title="&lt;TABLE&gt;" target="_blank">
<polygon fill="none" stroke="black" points="2535.12,-240 1417.38,-240 1417.38,-112.5 2535.12,-112.5 2535.12,-240"/>
<text text-anchor="start" x="1926.38" y="-218.7" font-family="Times,serif" font-weight="bold" font-size="14.00">medicare.ps.year</text>
<text text-anchor="start" x="1453.38" y="-172.2" font-family="Times,serif" font-size="14.00">Beneficiary Enrollment Reference Year</text>
<polygon fill="none" stroke="black" points="1428.38,-119.5 1428.38,-142 2524.12,-142 2524.12,-119.5 1428.38,-119.5"/>
<text text-anchor="start" x="1431.38" y="-125.7" font-family="Times,serif" font-size="14.00">(CASE WHEN &quot;year&quot;::int &lt; 20 THEN (2000 + &quot;year&quot;::int) WHEN (20 &lt; &quot;year&quot;::int AND &quot;year&quot;::int &lt; 100) THEN (1900 + &quot;year&quot;::int) WHEN &quot;year&quot; IS NULL THEN 2000 ELSE &quot;year&quot;::int END)</text>
<polygon fill="none" stroke="black" points="1425.38,-116.5 1425.38,-236 2527.12,-236 2527.12,-116.5 1425.38,-116.5"/>
</a>
</g>
</g>
<!-- medicare.ps.year&#45;&gt;medicare._ps.fips3 -->
<g id="edge4" class="edge">
<title>medicare.ps.year&#45;&gt;medicare._ps.fips3</title>
<path fill="none" stroke="black" d="M1633.8,-112.02C1539.03,-94.53 1440.32,-76.3 1360.33,-61.53"/>
<polygon fill="black" stroke="black" points="1361.13,-58.12 1350.66,-59.75 1359.86,-65.01 1361.13,-58.12"/>
<text text-anchor="middle" x="1484.88" y="-72.45" font-family="Times,serif" font-size="14.00"> &#160;Transformed</text>
</g>
<!-- medicare.ps.year_parent -->
<g id="node6" class="node">
<title>medicare.ps.year_parent</title>
<g id="a_node6"><a xlink:href="../medicare.ps/year.html" xlink:title="8 incoming links (columns)" target="_blank">
<path fill="yellow" stroke="black" d="M2084.25,-391.68C2084.25,-397.1 2035.84,-401.5 1976.25,-401.5 1916.66,-401.5 1868.25,-397.1 1868.25,-391.68 1868.25,-391.68 1868.25,-303.32 1868.25,-303.32 1868.25,-297.9 1916.66,-293.5 1976.25,-293.5 2035.84,-293.5 2084.25,-297.9 2084.25,-303.32 2084.25,-303.32 2084.25,-391.68 2084.25,-391.68"/>
<path fill="none" stroke="black" d="M2084.25,-391.68C2084.25,-386.26 2035.84,-381.86 1976.25,-381.86 1916.66,-381.86 1868.25,-386.26 1868.25,-391.68"/>
<text text-anchor="middle" x="1976.25" y="-342.45" font-family="Times,serif" font-size="14.00">8 incoming links (columns)</text>
</a>
</g>
</g>
<!-- medicare.ps.year_parent&#45;&gt;medicare.ps.year -->
<g id="edge5" class="edge">
<title>medicare.ps.year_parent&#45;&gt;medicare.ps.year</title>
<path fill="none" stroke="goldenrod" stroke-width="6" d="M1976.25,-293.41C1976.25,-281.68 1976.25,-269.01 1976.25,-256.5"/>
<polygon fill="goldenrod" stroke="goldenrod" stroke-width="6" points="1981.5,-256.68 1976.25,-246.68 1971,-256.68 1981.5,-256.68"/>
</g>
</g>
</svg>
