<?xml version="1.0" encoding="UTF-8" standalone="no"?>
<!DOCTYPE svg PUBLIC "-//W3C//DTD SVG 1.1//EN"
 "http://www.w3.org/Graphics/SVG/1.1/DTD/svg11.dtd">
<!-- Generated by graphviz version 14.1.4 (20260321.0153)
 -->
<!-- Pages: 1 -->
<svg width="2385pt" height="410pt"
 viewBox="0.00 0.00 2385.00 410.00" xmlns="http://www.w3.org/2000/svg" xmlns:xlink="http://www.w3.org/1999/xlink">
<g id="graph0" class="graph" transform="scale(1 1) rotate(0) translate(4 405.5)">
<polygon fill="white" stroke="none" points="-4,4 -4,-405.5 2381,-405.5 2381,4 -4,4"/>
<!-- medicare._ps.fips3 -->
<g id="node1" class="node">
<title>medicare._ps.fips3</title>
<g id="a_node1"><a xlink:href="../medicare._ps/fips3.html" xlink:title="&lt;TABLE&gt;" target="_blank">
<polygon fill="none" stroke="black" points="2377,-59 0,-59 0,0 2377,0 2377,-59"/>
<text xml:space="preserve" text-anchor="start" x="1134.12" y="-37.7" font-family="Times,serif" font-weight="bold" font-size="14.00">medicare._ps.fips3</text>
<polygon fill="none" stroke="black" points="11,-7 11,-29.5 2366,-29.5 2366,-7 11,-7"/>
<text xml:space="preserve" text-anchor="start" x="14" y="-13.75" font-family="Times,serif" font-size="14.00">CASE WHEN ssa3 is NOT NULL THEN &#160;CASE WHEN year &gt; 2010 THEN &#160;&#160;&#160;&#160;&#160;(SELECT fips3 from public.ssa as s where ps.ssa3 = s.ssa3 and ps.year = s.year and ps.fips2 = s.fips2 ORDER BY 1 DESC LIMIT 1) &#160;&#160;&#160;ELSE &#160;&#160;&#160;&#160;&#160;(SELECT fips3 from public.ssa as s where ps.ssa3 = s.ssa3 and 2003 = s.year and ps.fips2 = s.fips2 ORDER BY 1 DESC LIMIT 1) &#160;ENDELSE &#160;(SELECT public.zip_to_fips3(year, zip))END AS fips3</text>
<polygon fill="none" stroke="black" points="8,-4 8,-55 2369,-55 2369,-4 8,-4"/>
</a>
</g>
</g>
<!-- medicare.ps.ssa3 -->
<g id="node2" class="node">
<title>medicare.ps.ssa3</title>
<g id="a_node2"><a xlink:href="../medicare.ps/ssa3.html" xlink:title="&lt;TABLE&gt;" target="_blank">
<polygon fill="none" stroke="black" points="612.25,-236 334.75,-236 334.75,-116.5 612.25,-116.5 612.25,-236"/>
<text xml:space="preserve" text-anchor="start" x="424.38" y="-214.7" font-family="Times,serif" font-weight="bold" font-size="14.00">medicare.ps.ssa3</text>
<text xml:space="preserve" text-anchor="start" x="370.75" y="-168.75" font-family="Times,serif" font-size="14.00">Social Security Administration (SSA)</text>
<text xml:space="preserve" text-anchor="start" x="401.12" y="-152.25" font-family="Times,serif" font-size="14.00">three digit code for county</text>
<polygon fill="none" stroke="black" points="342.75,-120.5 342.75,-232 604.25,-232 604.25,-120.5 342.75,-120.5"/>
</a>
</g>
</g>
<!-- medicare.ps.ssa3&#45;&gt;medicare._ps.fips3 -->
<g id="edge1" class="edge">
<title>medicare.ps.ssa3&#45;&gt;medicare._ps.fips3</title>
<path fill="none" stroke="black" d="M571.98,-116.01C588.1,-108.23 604.95,-101.18 621.5,-96 667.55,-81.59 716.59,-70.29 765.83,-61.44"/>
<polygon fill="black" stroke="black" points="766.27,-64.92 775.51,-59.74 765.05,-58.02 766.27,-64.92"/>
<text xml:space="preserve" text-anchor="middle" x="727.21" y="-72.45" font-family="Times,serif" font-size="14.00"> &#160;Transformed</text>
</g>
<!-- medicare.ps.ssa3_parent -->
<g id="node3" class="node">
<title>medicare.ps.ssa3_parent</title>
<g id="a_node3"><a xlink:href="../medicare.ps/ssa3.html" xlink:title="8 incoming links (columns)" target="_blank">
<path fill="yellow" stroke="black" d="M581.5,-391.68C581.5,-397.1 533.09,-401.5 473.5,-401.5 413.91,-401.5 365.5,-397.1 365.5,-391.68 365.5,-391.68 365.5,-303.32 365.5,-303.32 365.5,-297.9 413.91,-293.5 473.5,-293.5 533.09,-293.5 581.5,-297.9 581.5,-303.32 581.5,-303.32 581.5,-391.68 581.5,-391.68"/>
<path fill="none" stroke="black" d="M581.5,-391.68C581.5,-386.26 533.09,-381.86 473.5,-381.86 413.91,-381.86 365.5,-386.26 365.5,-391.68"/>
<text xml:space="preserve" text-anchor="middle" x="473.5" y="-342.45" font-family="Times,serif" font-size="14.00">8 incoming links (columns)</text>
</a>
</g>
</g>
<!-- medicare.ps.ssa3_parent&#45;&gt;medicare.ps.ssa3 -->
<g id="edge2" class="edge">
<title>medicare.ps.ssa3_parent&#45;&gt;medicare.ps.ssa3</title>
<path fill="none" stroke="goldenrod" stroke-width="6" d="M473.5,-293.41C473.5,-280.38 473.5,-266.19 473.5,-252.34"/>
<polygon fill="goldenrod" stroke="goldenrod" stroke-width="6" points="478.75,-252.79 473.5,-242.79 468.25,-252.79 478.75,-252.79"/>
</g>
<!-- medicare.ps.year -->
<g id="node4" class="node">
<title>medicare.ps.year</title>
<g id="a_node4"><a xlink:href="../medicare.ps/year.html" xlink:title="&lt;TABLE&gt;" target="_blank">
<polygon fill="none" stroke="black" points="1746.25,-205.75 630.75,-205.75 630.75,-146.75 1746.25,-146.75 1746.25,-205.75"/>
<text xml:space="preserve" text-anchor="start" x="1138.62" y="-184.45" font-family="Times,serif" font-weight="bold" font-size="14.00">medicare.ps.year</text>
<polygon fill="none" stroke="black" points="641.75,-153.75 641.75,-176.25 1735.25,-176.25 1735.25,-153.75 641.75,-153.75"/>
<text xml:space="preserve" text-anchor="start" x="644.75" y="-160.5" font-family="Times,serif" font-size="14.00">(CASE WHEN &quot;year&quot;::int &lt; 20 THEN (2000 + &quot;year&quot;::int) WHEN (20 &lt; &quot;year&quot;::int AND &quot;year&quot;::int &lt; 100) THEN (1900 + &quot;year&quot;::int) WHEN &quot;year&quot; IS NULL THEN 2000 ELSE &quot;year&quot;::int END)</text>
<polygon fill="none" stroke="black" points="638.75,-150.75 638.75,-201.75 1738.25,-201.75 1738.25,-150.75 638.75,-150.75"/>
</a>
</g>
</g>
<!-- medicare.ps.year&#45;&gt;medicare._ps.fips3 -->
<g id="edge3" class="edge">
<title>medicare.ps.year&#45;&gt;medicare._ps.fips3</title>
<path fill="none" stroke="black" d="M1188.5,-146.31C1188.5,-124.61 1188.5,-94.65 1188.5,-70.64"/>
<polygon fill="black" stroke="black" points="1192,-70.91 1188.5,-60.91 1185,-70.91 1192,-70.91"/>
<text xml:space="preserve" text-anchor="middle" x="1227.12" y="-72.45" font-family="Times,serif" font-size="14.00"> &#160;Transformed</text>
</g>
<!-- medicare.ps.year_parent -->
<g id="node5" class="node">
<title>medicare.ps.year_parent</title>
<g id="a_node5"><a xlink:href="../medicare.ps/year.html" xlink:title="8 incoming links (columns)" target="_blank">
<path fill="yellow" stroke="black" d="M1296.5,-391.68C1296.5,-397.1 1248.09,-401.5 1188.5,-401.5 1128.91,-401.5 1080.5,-397.1 1080.5,-391.68 1080.5,-391.68 1080.5,-303.32 1080.5,-303.32 1080.5,-297.9 1128.91,-293.5 1188.5,-293.5 1248.09,-293.5 1296.5,-297.9 1296.5,-303.32 1296.5,-303.32 1296.5,-391.68 1296.5,-391.68"/>
<path fill="none" stroke="black" d="M1296.5,-391.68C1296.5,-386.26 1248.09,-381.86 1188.5,-381.86 1128.91,-381.86 1080.5,-386.26 1080.5,-391.68"/>
<text xml:space="preserve" text-anchor="middle" x="1188.5" y="-342.45" font-family="Times,serif" font-size="14.00">8 incoming links (columns)</text>
</a>
</g>
</g>
<!-- medicare.ps.year_parent&#45;&gt;medicare.ps.year -->
<g id="edge4" class="edge">
<title>medicare.ps.year_parent&#45;&gt;medicare.ps.year</title>
<path fill="none" stroke="goldenrod" stroke-width="6" d="M1188.5,-293.41C1188.5,-270.62 1188.5,-244.26 1188.5,-222.42"/>
<polygon fill="goldenrod" stroke="goldenrod" stroke-width="6" points="1193.75,-222.48 1188.5,-212.48 1183.25,-222.48 1193.75,-222.48"/>
</g>
<!-- medicare.ps.fips2 -->
<g id="node6" class="node">
<title>medicare.ps.fips2</title>
<g id="a_node6"><a xlink:href="../medicare.ps/fips2.html" xlink:title="&lt;TABLE&gt;" target="_blank">
<polygon fill="none" stroke="black" points="2176.88,-256.5 1764.12,-256.5 1764.12,-96 2176.88,-96 2176.88,-256.5"/>
<text xml:space="preserve" text-anchor="start" x="1919.5" y="-235.2" font-family="Times,serif" font-weight="bold" font-size="14.00">medicare.ps.fips2</text>
<text xml:space="preserve" text-anchor="start" x="1811.75" y="-189.25" font-family="Times,serif" font-size="14.00">2 digit state FIPS, see https://en.wikip</text>
<text xml:space="preserve" text-anchor="start" x="1800.12" y="-172.75" font-family="Times,serif" font-size="14.00">edia.org/wiki/Federal_Information_Proces</text>
<text xml:space="preserve" text-anchor="start" x="1845.12" y="-156.25" font-family="Times,serif" font-size="14.00">sing_Standard_state_code</text>
<polygon fill="none" stroke="black" points="1775.12,-103 1775.12,-125.5 2165.88,-125.5 2165.88,-103 1775.12,-103"/>
<text xml:space="preserve" text-anchor="start" x="1778.12" y="-109.75" font-family="Times,serif" font-size="14.00">(SELECT fips2 FROM public.us_states as s WHERE s.ssa2 = &quot;state&quot;)</text>
<polygon fill="none" stroke="black" points="1772.12,-100 1772.12,-252.5 2168.88,-252.5 2168.88,-100 1772.12,-100"/>
</a>
</g>
</g>
<!-- medicare.ps.fips2&#45;&gt;medicare._ps.fips3 -->
<g id="edge5" class="edge">
<title>medicare.ps.fips2&#45;&gt;medicare._ps.fips3</title>
<path fill="none" stroke="black" d="M1763.66,-98.01C1760.93,-97.32 1758.21,-96.65 1755.5,-96 1693.88,-81.31 1627.68,-69.87 1563.03,-60.97"/>
<polygon fill="black" stroke="black" points="1563.7,-57.53 1553.32,-59.66 1562.76,-64.47 1563.7,-57.53"/>
<text xml:space="preserve" text-anchor="middle" x="1706.68" y="-72.45" font-family="Times,serif" font-size="14.00"> &#160;Transformed</text>
</g>
</g>
</svg>
