<?xml version="1.0" encoding="UTF-8" standalone="no"?>
<!DOCTYPE svg PUBLIC "-//W3C//DTD SVG 1.1//EN"
 "http://www.w3.org/Graphics/SVG/1.1/DTD/svg11.dtd">
<!-- Generated by graphviz version 10.0.1 (20240210.2158)
 -->
<!-- Pages: 1 -->
<svg width="1918pt" height="410pt"
 viewBox="0.00 0.00 1918.38 409.50" xmlns="http://www.w3.org/2000/svg" xmlns:xlink="http://www.w3.org/1999/xlink">
<g id="graph0" class="graph" transform="scale(1 1) rotate(0) translate(4 405.5)">
<polygon fill="white" stroke="none" points="-4,4 -4,-405.5 1914.38,-405.5 1914.38,4 -4,4"/>
<!-- medicare._ps.fips3_list -->
<g id="node1" class="node">
<title>medicare._ps.fips3_list</title>
<g id="a_node1"><a xlink:href="../medicare._ps/fips3_list.html" xlink:title="&lt;TABLE&gt;" target="_blank">
<polygon fill="none" stroke="black" points="1838.5,-59 0,-59 0,0 1838.5,0 1838.5,-59"/>
<text text-anchor="start" x="852.88" y="-37.7" font-family="Times,serif" font-weight="bold" font-size="14.00">medicare._ps.fips3_list</text>
<polygon fill="none" stroke="black" points="11,-7 11,-29.5 1827.5,-29.5 1827.5,-7 11,-7"/>
<text text-anchor="start" x="14" y="-13.2" font-family="Times,serif" font-size="14.00">CASE WHEN year &gt; 2010 THEN (SELECT string_agg(distinct fips3::varchar, &#39;,&#39;) from public.ssa as s where ps.ssa3 = s.ssa3 and ps.year = s.year and ps.fips2 = s.fips2) &#160;&#160;&#160;ELSE (SELECT string_agg(distinct fips3::varchar, &#39;,&#39;) from public.ssa as s where ps.ssa3 = s.ssa3 and 2003 = s.year and ps.fips2 = s.fips2) END AS fips3_list</text>
<polygon fill="none" stroke="black" points="8,-4 8,-55 1830.5,-55 1830.5,-4 8,-4"/>
</a>
</g>
</g>
<!-- medicare.ps.ssa3 -->
<g id="node2" class="node">
<title>medicare.ps.ssa3</title>
<g id="a_node2"><a xlink:href="../medicare.ps/ssa3.html" xlink:title="&lt;TABLE&gt;" target="_blank">
<polygon fill="none" stroke="black" points="342,-236 64.5,-236 64.5,-116.5 342,-116.5 342,-236"/>
<text text-anchor="start" x="154.12" y="-214.7" font-family="Times,serif" font-weight="bold" font-size="14.00">medicare.ps.ssa3</text>
<text text-anchor="start" x="100.5" y="-168.2" font-family="Times,serif" font-size="14.00">Social Security Administration (SSA)</text>
<text text-anchor="start" x="130.88" y="-151.7" font-family="Times,serif" font-size="14.00">three digit code for county</text>
<polygon fill="none" stroke="black" points="72.5,-120.5 72.5,-232 334,-232 334,-120.5 72.5,-120.5"/>
</a>
</g>
</g>
<!-- medicare.ps.ssa3&#45;&gt;medicare._ps.fips3_list -->
<g id="edge1" class="edge">
<title>medicare.ps.ssa3&#45;&gt;medicare._ps.fips3_list</title>
<path fill="none" stroke="black" d="M301.73,-116.01C317.85,-108.23 334.7,-101.18 351.25,-96 397.27,-81.6 446.28,-70.31 495.48,-61.46"/>
<polygon fill="black" stroke="black" points="495.91,-64.94 505.15,-59.76 494.7,-58.05 495.91,-64.94"/>
<text text-anchor="middle" x="457.88" y="-72.45" font-family="Times,serif" font-size="14.00"> &#160;Transformed</text>
</g>
<!-- medicare.ps.ssa3_parent -->
<g id="node3" class="node">
<title>medicare.ps.ssa3_parent</title>
<g id="a_node3"><a xlink:href="../medicare.ps/ssa3.html" xlink:title="8 incoming links (columns)" target="_blank">
<path fill="yellow" stroke="black" d="M311.25,-391.68C311.25,-397.1 262.84,-401.5 203.25,-401.5 143.66,-401.5 95.25,-397.1 95.25,-391.68 95.25,-391.68 95.25,-303.32 95.25,-303.32 95.25,-297.9 143.66,-293.5 203.25,-293.5 262.84,-293.5 311.25,-297.9 311.25,-303.32 311.25,-303.32 311.25,-391.68 311.25,-391.68"/>
<path fill="none" stroke="black" d="M311.25,-391.68C311.25,-386.26 262.84,-381.86 203.25,-381.86 143.66,-381.86 95.25,-386.26 95.25,-391.68"/>
<text text-anchor="middle" x="203.25" y="-342.45" font-family="Times,serif" font-size="14.00">8 incoming links (columns)</text>
</a>
</g>
</g>
<!-- medicare.ps.ssa3_parent&#45;&gt;medicare.ps.ssa3 -->
<g id="edge2" class="edge">
<title>medicare.ps.ssa3_parent&#45;&gt;medicare.ps.ssa3</title>
<path fill="none" stroke="goldenrod" stroke-width="6" d="M203.25,-293.41C203.25,-280.38 203.25,-266.19 203.25,-252.34"/>
<polygon fill="goldenrod" stroke="goldenrod" stroke-width="6" points="208.5,-252.79 203.25,-242.79 198,-252.79 208.5,-252.79"/>
</g>
<!-- medicare.ps.year -->
<g id="node4" class="node">
<title>medicare.ps.year</title>
<g id="a_node4"><a xlink:href="../medicare.ps/year.html" xlink:title="&lt;TABLE&gt;" target="_blank">
<polygon fill="none" stroke="black" points="1478.12,-240 360.38,-240 360.38,-112.5 1478.12,-112.5 1478.12,-240"/>
<text text-anchor="start" x="869.38" y="-218.7" font-family="Times,serif" font-weight="bold" font-size="14.00">medicare.ps.year</text>
<text text-anchor="start" x="396.38" y="-172.2" font-family="Times,serif" font-size="14.00">Beneficiary Enrollment Reference Year</text>
<polygon fill="none" stroke="black" points="371.38,-119.5 371.38,-142 1467.12,-142 1467.12,-119.5 371.38,-119.5"/>
<text text-anchor="start" x="374.38" y="-125.7" font-family="Times,serif" font-size="14.00">(CASE WHEN &quot;year&quot;::int &lt; 20 THEN (2000 + &quot;year&quot;::int) WHEN (20 &lt; &quot;year&quot;::int AND &quot;year&quot;::int &lt; 100) THEN (1900 + &quot;year&quot;::int) WHEN &quot;year&quot; IS NULL THEN 2000 ELSE &quot;year&quot;::int END)</text>
<polygon fill="none" stroke="black" points="368.38,-116.5 368.38,-236 1470.12,-236 1470.12,-116.5 368.38,-116.5"/>
</a>
</g>
</g>
<!-- medicare.ps.year&#45;&gt;medicare._ps.fips3_list -->
<g id="edge3" class="edge">
<title>medicare.ps.year&#45;&gt;medicare._ps.fips3_list</title>
<path fill="none" stroke="black" d="M919.25,-112.18C919.25,-98.07 919.25,-83.47 919.25,-70.59"/>
<polygon fill="black" stroke="black" points="922.75,-70.82 919.25,-60.82 915.75,-70.82 922.75,-70.82"/>
<text text-anchor="middle" x="957.88" y="-72.45" font-family="Times,serif" font-size="14.00"> &#160;Transformed</text>
</g>
<!-- medicare.ps.year_parent -->
<g id="node5" class="node">
<title>medicare.ps.year_parent</title>
<g id="a_node5"><a xlink:href="../medicare.ps/year.html" xlink:title="8 incoming links (columns)" target="_blank">
<path fill="yellow" stroke="black" d="M1027.25,-391.68C1027.25,-397.1 978.84,-401.5 919.25,-401.5 859.66,-401.5 811.25,-397.1 811.25,-391.68 811.25,-391.68 811.25,-303.32 811.25,-303.32 811.25,-297.9 859.66,-293.5 919.25,-293.5 978.84,-293.5 1027.25,-297.9 1027.25,-303.32 1027.25,-303.32 1027.25,-391.68 1027.25,-391.68"/>
<path fill="none" stroke="black" d="M1027.25,-391.68C1027.25,-386.26 978.84,-381.86 919.25,-381.86 859.66,-381.86 811.25,-386.26 811.25,-391.68"/>
<text text-anchor="middle" x="919.25" y="-342.45" font-family="Times,serif" font-size="14.00">8 incoming links (columns)</text>
</a>
</g>
</g>
<!-- medicare.ps.year_parent&#45;&gt;medicare.ps.year -->
<g id="edge4" class="edge">
<title>medicare.ps.year_parent&#45;&gt;medicare.ps.year</title>
<path fill="none" stroke="goldenrod" stroke-width="6" d="M919.25,-293.41C919.25,-281.68 919.25,-269.01 919.25,-256.5"/>
<polygon fill="goldenrod" stroke="goldenrod" stroke-width="6" points="924.5,-256.68 919.25,-246.68 914,-256.68 924.5,-256.68"/>
</g>
<!-- medicare.ps.fips2 -->
<g id="node6" class="node">
<title>medicare.ps.fips2</title>
<g id="a_node6"><a xlink:href="../medicare.ps/fips2.html" xlink:title="&lt;TABLE&gt;" target="_blank">
<polygon fill="none" stroke="black" points="1910.38,-256.5 1496.12,-256.5 1496.12,-96 1910.38,-96 1910.38,-256.5"/>
<text text-anchor="start" x="1652.25" y="-235.2" font-family="Times,serif" font-weight="bold" font-size="14.00">medicare.ps.fips2</text>
<text text-anchor="start" x="1543.75" y="-188.7" font-family="Times,serif" font-size="14.00">2 digit state FIPS, see https://en.wikip</text>
<text text-anchor="start" x="1532.12" y="-172.2" font-family="Times,serif" font-size="14.00">edia.org/wiki/Federal_Information_Proces</text>
<text text-anchor="start" x="1577.12" y="-155.7" font-family="Times,serif" font-size="14.00">sing_Standard_state_code</text>
<polygon fill="none" stroke="black" points="1507.12,-103 1507.12,-125.5 1899.38,-125.5 1899.38,-103 1507.12,-103"/>
<text text-anchor="start" x="1510.12" y="-109.2" font-family="Times,serif" font-size="14.00">(SELECT fips2 FROM public.us_states as s WHERE s.ssa2 = &quot;state&quot;)</text>
<polygon fill="none" stroke="black" points="1504.12,-100 1504.12,-252.5 1902.38,-252.5 1902.38,-100 1504.12,-100"/>
</a>
</g>
</g>
<!-- medicare.ps.fips2&#45;&gt;medicare._ps.fips3_list -->
<g id="edge5" class="edge">
<title>medicare.ps.fips2&#45;&gt;medicare._ps.fips3_list</title>
<path fill="none" stroke="black" d="M1495.74,-98.08C1492.9,-97.36 1490.07,-96.67 1487.25,-96 1425.4,-81.31 1358.94,-69.87 1294.06,-60.97"/>
<polygon fill="black" stroke="black" points="1294.7,-57.52 1284.32,-59.65 1293.76,-64.46 1294.7,-57.52"/>
<text text-anchor="middle" x="1434.88" y="-72.45" font-family="Times,serif" font-size="14.00"> &#160;Transformed</text>
</g>
</g>
</svg>
