<?xml version="1.0" encoding="UTF-8" standalone="no"?>
<!DOCTYPE svg PUBLIC "-//W3C//DTD SVG 1.1//EN"
 "http://www.w3.org/Graphics/SVG/1.1/DTD/svg11.dtd">
<!-- Generated by graphviz version 14.1.4 (20260321.0153)
 -->
<!-- Pages: 1 -->
<svg width="2469pt" height="410pt"
 viewBox="0.00 0.00 2469.00 410.00" xmlns="http://www.w3.org/2000/svg" xmlns:xlink="http://www.w3.org/1999/xlink">
<g id="graph0" class="graph" transform="scale(1 1) rotate(0) translate(4 405.5)">
<polygon fill="white" stroke="none" points="-4,4 -4,-405.5 2465.25,-405.5 2465.25,4 -4,4"/>
<!-- medicare._ps.fips3 -->
<g id="node1" class="node">
<title>medicare._ps.fips3</title>
<g id="a_node1"><a xlink:href="../medicare._ps/fips3.html" xlink:title="&lt;TABLE&gt;" target="_blank">
<polygon fill="none" stroke="black" points="2461.25,-59 84.25,-59 84.25,0 2461.25,0 2461.25,-59"/>
<text xml:space="preserve" text-anchor="start" x="1218.38" y="-37.7" font-family="Times,serif" font-weight="bold" font-size="14.00">medicare._ps.fips3</text>
<polygon fill="none" stroke="black" points="95.25,-7 95.25,-29.5 2450.25,-29.5 2450.25,-7 95.25,-7"/>
<text xml:space="preserve" text-anchor="start" x="98.25" y="-13.75" font-family="Times,serif" font-size="14.00">CASE WHEN ssa3 is NOT NULL THEN &#160;CASE WHEN year &gt; 2010 THEN &#160;&#160;&#160;&#160;&#160;(SELECT fips3 from public.ssa as s where ps.ssa3 = s.ssa3 and ps.year = s.year and ps.fips2 = s.fips2 ORDER BY 1 DESC LIMIT 1) &#160;&#160;&#160;ELSE &#160;&#160;&#160;&#160;&#160;(SELECT fips3 from public.ssa as s where ps.ssa3 = s.ssa3 and 2003 = s.year and ps.fips2 = s.fips2 ORDER BY 1 DESC LIMIT 1) &#160;ENDELSE &#160;(SELECT public.zip_to_fips3(year, zip))END AS fips3</text>
<polygon fill="none" stroke="black" points="92.25,-4 92.25,-55 2453.25,-55 2453.25,-4 92.25,-4"/>
</a>
</g>
</g>
<!-- medicare.ps.year -->
<g id="node2" class="node">
<title>medicare.ps.year</title>
<g id="a_node2"><a xlink:href="../medicare.ps/year.html" xlink:title="&lt;TABLE&gt;" target="_blank">
<polygon fill="none" stroke="black" points="1115.5,-205.75 0,-205.75 0,-146.75 1115.5,-146.75 1115.5,-205.75"/>
<text xml:space="preserve" text-anchor="start" x="507.88" y="-184.45" font-family="Times,serif" font-weight="bold" font-size="14.00">medicare.ps.year</text>
<polygon fill="none" stroke="black" points="11,-153.75 11,-176.25 1104.5,-176.25 1104.5,-153.75 11,-153.75"/>
<text xml:space="preserve" text-anchor="start" x="14" y="-160.5" font-family="Times,serif" font-size="14.00">(CASE WHEN &quot;year&quot;::int &lt; 20 THEN (2000 + &quot;year&quot;::int) WHEN (20 &lt; &quot;year&quot;::int AND &quot;year&quot;::int &lt; 100) THEN (1900 + &quot;year&quot;::int) WHEN &quot;year&quot; IS NULL THEN 2000 ELSE &quot;year&quot;::int END)</text>
<polygon fill="none" stroke="black" points="8,-150.75 8,-201.75 1107.5,-201.75 1107.5,-150.75 8,-150.75"/>
</a>
</g>
</g>
<!-- medicare.ps.year&#45;&gt;medicare._ps.fips3 -->
<g id="edge1" class="edge">
<title>medicare.ps.year&#45;&gt;medicare._ps.fips3</title>
<path fill="none" stroke="black" d="M700.72,-146.31C821.67,-121.82 994.61,-86.81 1118.63,-61.7"/>
<polygon fill="black" stroke="black" points="1119.13,-65.17 1128.24,-59.76 1117.74,-58.31 1119.13,-65.17"/>
<text xml:space="preserve" text-anchor="middle" x="1080.1" y="-72.45" font-family="Times,serif" font-size="14.00"> &#160;Transformed</text>
</g>
<!-- medicare.ps.year_parent -->
<g id="node3" class="node">
<title>medicare.ps.year_parent</title>
<g id="a_node3"><a xlink:href="../medicare.ps/year.html" xlink:title="8 incoming links (columns)" target="_blank">
<path fill="yellow" stroke="black" d="M665.75,-391.68C665.75,-397.1 617.34,-401.5 557.75,-401.5 498.16,-401.5 449.75,-397.1 449.75,-391.68 449.75,-391.68 449.75,-303.32 449.75,-303.32 449.75,-297.9 498.16,-293.5 557.75,-293.5 617.34,-293.5 665.75,-297.9 665.75,-303.32 665.75,-303.32 665.75,-391.68 665.75,-391.68"/>
<path fill="none" stroke="black" d="M665.75,-391.68C665.75,-386.26 617.34,-381.86 557.75,-381.86 498.16,-381.86 449.75,-386.26 449.75,-391.68"/>
<text xml:space="preserve" text-anchor="middle" x="557.75" y="-342.45" font-family="Times,serif" font-size="14.00">8 incoming links (columns)</text>
</a>
</g>
</g>
<!-- medicare.ps.year_parent&#45;&gt;medicare.ps.year -->
<g id="edge2" class="edge">
<title>medicare.ps.year_parent&#45;&gt;medicare.ps.year</title>
<path fill="none" stroke="goldenrod" stroke-width="6" d="M557.75,-293.41C557.75,-270.62 557.75,-244.26 557.75,-222.42"/>
<polygon fill="goldenrod" stroke="goldenrod" stroke-width="6" points="563,-222.48 557.75,-212.48 552.5,-222.48 563,-222.48"/>
</g>
<!-- medicare.ps.ssa3 -->
<g id="node4" class="node">
<title>medicare.ps.ssa3</title>
<g id="a_node4"><a xlink:href="../medicare.ps/ssa3.html" xlink:title="&lt;TABLE&gt;" target="_blank">
<polygon fill="none" stroke="black" points="1411.5,-236 1134,-236 1134,-116.5 1411.5,-116.5 1411.5,-236"/>
<text xml:space="preserve" text-anchor="start" x="1223.62" y="-214.7" font-family="Times,serif" font-weight="bold" font-size="14.00">medicare.ps.ssa3</text>
<text xml:space="preserve" text-anchor="start" x="1170" y="-168.75" font-family="Times,serif" font-size="14.00">Social Security Administration (SSA)</text>
<text xml:space="preserve" text-anchor="start" x="1200.38" y="-152.25" font-family="Times,serif" font-size="14.00">three digit code for county</text>
<polygon fill="none" stroke="black" points="1142,-120.5 1142,-232 1403.5,-232 1403.5,-120.5 1142,-120.5"/>
</a>
</g>
</g>
<!-- medicare.ps.ssa3&#45;&gt;medicare._ps.fips3 -->
<g id="edge3" class="edge">
<title>medicare.ps.ssa3&#45;&gt;medicare._ps.fips3</title>
<path fill="none" stroke="black" d="M1272.75,-116.37C1272.75,-100.97 1272.75,-84.71 1272.75,-70.54"/>
<polygon fill="black" stroke="black" points="1276.25,-70.7 1272.75,-60.7 1269.25,-70.7 1276.25,-70.7"/>
<text xml:space="preserve" text-anchor="middle" x="1311.38" y="-72.45" font-family="Times,serif" font-size="14.00"> &#160;Transformed</text>
</g>
<!-- medicare.ps.ssa3_parent -->
<g id="node5" class="node">
<title>medicare.ps.ssa3_parent</title>
<g id="a_node5"><a xlink:href="../medicare.ps/ssa3.html" xlink:title="8 incoming links (columns)" target="_blank">
<path fill="yellow" stroke="black" d="M1380.75,-391.68C1380.75,-397.1 1332.34,-401.5 1272.75,-401.5 1213.16,-401.5 1164.75,-397.1 1164.75,-391.68 1164.75,-391.68 1164.75,-303.32 1164.75,-303.32 1164.75,-297.9 1213.16,-293.5 1272.75,-293.5 1332.34,-293.5 1380.75,-297.9 1380.75,-303.32 1380.75,-303.32 1380.75,-391.68 1380.75,-391.68"/>
<path fill="none" stroke="black" d="M1380.75,-391.68C1380.75,-386.26 1332.34,-381.86 1272.75,-381.86 1213.16,-381.86 1164.75,-386.26 1164.75,-391.68"/>
<text xml:space="preserve" text-anchor="middle" x="1272.75" y="-342.45" font-family="Times,serif" font-size="14.00">8 incoming links (columns)</text>
</a>
</g>
</g>
<!-- medicare.ps.ssa3_parent&#45;&gt;medicare.ps.ssa3 -->
<g id="edge4" class="edge">
<title>medicare.ps.ssa3_parent&#45;&gt;medicare.ps.ssa3</title>
<path fill="none" stroke="goldenrod" stroke-width="6" d="M1272.75,-293.41C1272.75,-280.38 1272.75,-266.19 1272.75,-252.34"/>
<polygon fill="goldenrod" stroke="goldenrod" stroke-width="6" points="1278,-252.79 1272.75,-242.79 1267.5,-252.79 1278,-252.79"/>
</g>
<!-- medicare.ps.fips2 -->
<g id="node6" class="node">
<title>medicare.ps.fips2</title>
<g id="a_node6"><a xlink:href="../medicare.ps/fips2.html" xlink:title="&lt;TABLE&gt;" target="_blank">
<polygon fill="none" stroke="black" points="1842.12,-256.5 1429.38,-256.5 1429.38,-96 1842.12,-96 1842.12,-256.5"/>
<text xml:space="preserve" text-anchor="start" x="1584.75" y="-235.2" font-family="Times,serif" font-weight="bold" font-size="14.00">medicare.ps.fips2</text>
<text xml:space="preserve" text-anchor="start" x="1477" y="-189.25" font-family="Times,serif" font-size="14.00">2 digit state FIPS, see https://en.wikip</text>
<text xml:space="preserve" text-anchor="start" x="1465.38" y="-172.75" font-family="Times,serif" font-size="14.00">edia.org/wiki/Federal_Information_Proces</text>
<text xml:space="preserve" text-anchor="start" x="1510.38" y="-156.25" font-family="Times,serif" font-size="14.00">sing_Standard_state_code</text>
<polygon fill="none" stroke="black" points="1440.38,-103 1440.38,-125.5 1831.12,-125.5 1831.12,-103 1440.38,-103"/>
<text xml:space="preserve" text-anchor="start" x="1443.38" y="-109.75" font-family="Times,serif" font-size="14.00">(SELECT fips2 FROM public.us_states as s WHERE s.ssa2 = &quot;state&quot;)</text>
<polygon fill="none" stroke="black" points="1437.38,-100 1437.38,-252.5 1834.12,-252.5 1834.12,-100 1437.38,-100"/>
</a>
</g>
</g>
<!-- medicare.ps.fips2&#45;&gt;medicare._ps.fips3 -->
<g id="edge5" class="edge">
<title>medicare.ps.fips2&#45;&gt;medicare._ps.fips3</title>
<path fill="none" stroke="black" d="M1435.93,-95.57C1407.69,-84.31 1380.05,-73.29 1355.78,-63.61"/>
<polygon fill="black" stroke="black" points="1357.23,-60.42 1346.64,-59.97 1354.64,-66.92 1357.23,-60.42"/>
<text xml:space="preserve" text-anchor="middle" x="1428.79" y="-72.45" font-family="Times,serif" font-size="14.00"> &#160;Transformed</text>
</g>
</g>
</svg>
