<?xml version="1.0" encoding="UTF-8" standalone="no"?>
<!DOCTYPE svg PUBLIC "-//W3C//DTD SVG 1.1//EN"
 "http://www.w3.org/Graphics/SVG/1.1/DTD/svg11.dtd">
<!-- Generated by graphviz version 10.0.1 (20240210.2158)
 -->
<!-- Pages: 1 -->
<svg width="444pt" height="558pt"
 viewBox="0.00 0.00 443.88 558.00" xmlns="http://www.w3.org/2000/svg" xmlns:xlink="http://www.w3.org/1999/xlink">
<g id="graph0" class="graph" transform="scale(1 1) rotate(0) translate(4 554)">
<polygon fill="white" stroke="none" points="-4,4 -4,-554 439.88,-554 439.88,4 -4,4"/>
<!-- medicare.enrollments.fips2 -->
<g id="node1" class="node">
<title>medicare.enrollments.fips2</title>
<g id="a_node1"><a xlink:href="../medicare.enrollments/fips2.html" xlink:title="&lt;TABLE&gt;" target="_blank">
<polygon fill="none" stroke="black" points="299.25,-59 115,-59 115,0 299.25,0 299.25,-59"/>
<text text-anchor="start" x="128" y="-37.7" font-family="Times,serif" font-weight="bold" font-size="14.00">medicare.enrollments.fips2</text>
<polygon fill="none" stroke="black" points="126,-7 126,-29.5 288.25,-29.5 288.25,-7 126,-7"/>
<text text-anchor="start" x="129" y="-13.2" font-family="Times,serif" font-size="14.00">MAX(fips2)</text>
<polygon fill="none" stroke="black" points="123,-4 123,-55 291.25,-55 291.25,-4 123,-4"/>
</a>
</g>
</g>
<!-- medicare._enrollments.fips2 -->
<g id="node2" class="node">
<title>medicare._enrollments.fips2</title>
<g id="a_node2"><a xlink:href="../medicare._enrollments/fips2.html" xlink:title="&lt;TABLE&gt;" target="_blank">
<polygon fill="none" stroke="black" points="302.62,-155 111.62,-155 111.62,-96 302.62,-96 302.62,-155"/>
<text text-anchor="start" x="124.62" y="-133.7" font-family="Times,serif" font-weight="bold" font-size="14.00">medicare._enrollments.fips2</text>
<polygon fill="none" stroke="black" points="122.62,-103 122.62,-125.5 291.62,-125.5 291.62,-103 122.62,-103"/>
<text text-anchor="start" x="125.62" y="-109.2" font-family="Times,serif" font-size="14.00">MAX(fips2)</text>
<polygon fill="none" stroke="black" points="119.62,-100 119.62,-151 294.62,-151 294.62,-100 119.62,-100"/>
</a>
</g>
</g>
<!-- medicare._enrollments.fips2&#45;&gt;medicare.enrollments.fips2 -->
<g id="edge1" class="edge">
<title>medicare._enrollments.fips2&#45;&gt;medicare.enrollments.fips2</title>
<path fill="none" stroke="black" d="M207.12,-95.53C207.12,-87.68 207.12,-79.05 207.12,-70.7"/>
<polygon fill="black" stroke="black" points="210.63,-70.73 207.13,-60.73 203.63,-70.73 210.63,-70.73"/>
<text text-anchor="middle" x="226.62" y="-72.45" font-family="Times,serif" font-size="14.00">Copied</text>
</g>
<!-- medicare._ps.fips2 -->
<g id="node3" class="node">
<title>medicare._ps.fips2</title>
<g id="a_node3"><a xlink:href="../medicare._ps/fips2.html" xlink:title="&lt;TABLE&gt;" target="_blank">
<polygon fill="none" stroke="black" points="414.25,-352.5 0,-352.5 0,-192 414.25,-192 414.25,-352.5"/>
<text text-anchor="start" x="152.75" y="-331.2" font-family="Times,serif" font-weight="bold" font-size="14.00">medicare._ps.fips2</text>
<text text-anchor="start" x="47.62" y="-284.7" font-family="Times,serif" font-size="14.00">2 digit state FIPS, see https://en.wikip</text>
<text text-anchor="start" x="36" y="-268.2" font-family="Times,serif" font-size="14.00">edia.org/wiki/Federal_Information_Proces</text>
<text text-anchor="start" x="81" y="-251.7" font-family="Times,serif" font-size="14.00">sing_Standard_state_code</text>
<polygon fill="none" stroke="black" points="11,-199 11,-221.5 403.25,-221.5 403.25,-199 11,-199"/>
<text text-anchor="start" x="14" y="-205.2" font-family="Times,serif" font-size="14.00">(SELECT fips2 FROM public.us_states as s WHERE s.ssa2 = &quot;state&quot;)</text>
<polygon fill="none" stroke="black" points="8,-196 8,-348.5 406.25,-348.5 406.25,-196 8,-196"/>
</a>
</g>
</g>
<!-- medicare._ps.fips2&#45;&gt;medicare._enrollments.fips2 -->
<g id="edge2" class="edge">
<title>medicare._ps.fips2&#45;&gt;medicare._enrollments.fips2</title>
<path fill="none" stroke="blue" stroke-width="5" d="M207.12,-191.68C207.12,-184.77 207.12,-177.94 207.12,-171.47"/>
<polygon fill="blue" stroke="blue" stroke-width="5" points="211.5,-171.53 207.13,-161.53 202.75,-171.53 211.5,-171.53"/>
<text text-anchor="middle" x="321.5" y="-168.45" font-family="Times,serif" font-size="14.00">	 &#160;Aggregated On bene_id, year, state</text>
</g>
<!-- medicare.ps.fips2 -->
<g id="node4" class="node">
<title>medicare.ps.fips2</title>
<g id="a_node4"><a xlink:href="../medicare.ps/fips2.html" xlink:title="&lt;TABLE&gt;" target="_blank">
<polygon fill="none" stroke="black" points="414.25,-550 0,-550 0,-389.5 414.25,-389.5 414.25,-550"/>
<text text-anchor="start" x="156.12" y="-528.7" font-family="Times,serif" font-weight="bold" font-size="14.00">medicare.ps.fips2</text>
<text text-anchor="start" x="47.62" y="-482.2" font-family="Times,serif" font-size="14.00">2 digit state FIPS, see https://en.wikip</text>
<text text-anchor="start" x="36" y="-465.7" font-family="Times,serif" font-size="14.00">edia.org/wiki/Federal_Information_Proces</text>
<text text-anchor="start" x="81" y="-449.2" font-family="Times,serif" font-size="14.00">sing_Standard_state_code</text>
<polygon fill="none" stroke="black" points="11,-396.5 11,-419 403.25,-419 403.25,-396.5 11,-396.5"/>
<text text-anchor="start" x="14" y="-402.7" font-family="Times,serif" font-size="14.00">(SELECT fips2 FROM public.us_states as s WHERE s.ssa2 = &quot;state&quot;)</text>
<polygon fill="none" stroke="black" points="8,-393.5 8,-546 406.25,-546 406.25,-393.5 8,-393.5"/>
</a>
</g>
</g>
<!-- medicare.ps.fips2&#45;&gt;medicare._ps.fips2 -->
<g id="edge3" class="edge">
<title>medicare.ps.fips2&#45;&gt;medicare._ps.fips2</title>
<path fill="none" stroke="black" d="M207.12,-389.23C207.12,-380.95 207.12,-372.48 207.12,-364.08"/>
<polygon fill="black" stroke="black" points="210.63,-364.21 207.13,-354.21 203.63,-364.21 210.63,-364.21"/>
<text text-anchor="middle" x="226.62" y="-365.95" font-family="Times,serif" font-size="14.00">Copied</text>
</g>
</g>
</svg>
