<?xml version="1.0" encoding="UTF-8" standalone="no"?>
<!DOCTYPE svg PUBLIC "-//W3C//DTD SVG 1.1//EN"
 "http://www.w3.org/Graphics/SVG/1.1/DTD/svg11.dtd">
<!-- Generated by graphviz version 10.0.1 (20240210.2158)
 -->
<!-- Pages: 1 -->
<svg width="838pt" height="561pt"
 viewBox="0.00 0.00 837.75 560.50" xmlns="http://www.w3.org/2000/svg" xmlns:xlink="http://www.w3.org/1999/xlink">
<g id="graph0" class="graph" transform="scale(1 1) rotate(0) translate(4 556.5)">
<polygon fill="white" stroke="none" points="-4,4 -4,-556.5 833.75,-556.5 833.75,4 -4,4"/>
<!-- medicare.enrollments.fips3_is_approximated -->
<g id="node1" class="node">
<title>medicare.enrollments.fips3_is_approximated</title>
<g id="a_node1"><a xlink:href="../medicare.enrollments/fips3_is_approximated.html" xlink:title="&lt;TABLE&gt;" target="_blank">
<polygon fill="none" stroke="black" points="559.12,-59 270.62,-59 270.62,0 559.12,0 559.12,-59"/>
<text text-anchor="start" x="283.62" y="-37.7" font-family="Times,serif" font-weight="bold" font-size="14.00">medicare.enrollments.fips3_is_approximated</text>
<polygon fill="none" stroke="black" points="281.62,-7 281.62,-29.5 548.12,-29.5 548.12,-7 281.62,-7"/>
<text text-anchor="start" x="284.62" y="-13.2" font-family="Times,serif" font-size="14.00">every(fips3_is_approximated)</text>
<polygon fill="none" stroke="black" points="278.62,-4 278.62,-55 551.12,-55 551.12,-4 278.62,-4"/>
</a>
</g>
</g>
<!-- medicare._enrollments.fips3_is_approximated -->
<g id="node2" class="node">
<title>medicare._enrollments.fips3_is_approximated</title>
<g id="a_node2"><a xlink:href="../medicare._enrollments/fips3_is_approximated.html" xlink:title="&lt;TABLE&gt;" target="_blank">
<polygon fill="none" stroke="black" points="562.5,-155 267.25,-155 267.25,-96 562.5,-96 562.5,-155"/>
<text text-anchor="start" x="280.25" y="-133.7" font-family="Times,serif" font-weight="bold" font-size="14.00">medicare._enrollments.fips3_is_approximated</text>
<polygon fill="none" stroke="black" points="278.25,-103 278.25,-125.5 551.5,-125.5 551.5,-103 278.25,-103"/>
<text text-anchor="start" x="281.25" y="-109.2" font-family="Times,serif" font-size="14.00">every(fips3_is_approximated)</text>
<polygon fill="none" stroke="black" points="275.25,-100 275.25,-151 554.5,-151 554.5,-100 275.25,-100"/>
</a>
</g>
</g>
<!-- medicare._enrollments.fips3_is_approximated&#45;&gt;medicare.enrollments.fips3_is_approximated -->
<g id="edge1" class="edge">
<title>medicare._enrollments.fips3_is_approximated&#45;&gt;medicare.enrollments.fips3_is_approximated</title>
<path fill="none" stroke="black" d="M414.88,-95.53C414.88,-87.68 414.88,-79.05 414.88,-70.7"/>
<polygon fill="black" stroke="black" points="418.38,-70.73 414.88,-60.73 411.38,-70.73 418.38,-70.73"/>
<text text-anchor="middle" x="434.38" y="-72.45" font-family="Times,serif" font-size="14.00">Copied</text>
</g>
<!-- medicare._ps.fips3_is_approximated -->
<g id="node3" class="node">
<title>medicare._ps.fips3_is_approximated</title>
<g id="a_node3"><a xlink:href="../medicare._ps/fips3_is_approximated.html" xlink:title="&lt;TABLE&gt;" target="_blank">
<polygon fill="none" stroke="black" points="829.75,-251 0,-251 0,-192 829.75,-192 829.75,-251"/>
<text text-anchor="start" x="308.38" y="-229.7" font-family="Times,serif" font-weight="bold" font-size="14.00">medicare._ps.fips3_is_approximated</text>
<polygon fill="none" stroke="black" points="11,-199 11,-221.5 818.75,-221.5 818.75,-199 11,-199"/>
<text text-anchor="start" x="14" y="-205.2" font-family="Times,serif" font-size="14.00">CASE WHEN ssa3 is NOT NULL THEN &#160;&#160;&#160;False &#160;ELSE &#160;&#160;&#160;(SELECT NOT public.is_zip_to_fips_exact(year, zip))END AS fips3_is_approximated</text>
<polygon fill="none" stroke="black" points="8,-196 8,-247 821.75,-247 821.75,-196 8,-196"/>
</a>
</g>
</g>
<!-- medicare._ps.fips3_is_approximated&#45;&gt;medicare._enrollments.fips3_is_approximated -->
<g id="edge2" class="edge">
<title>medicare._ps.fips3_is_approximated&#45;&gt;medicare._enrollments.fips3_is_approximated</title>
<path fill="none" stroke="blue" stroke-width="5" d="M414.88,-191.53C414.88,-185.13 414.88,-178.2 414.88,-171.33"/>
<polygon fill="blue" stroke="blue" stroke-width="5" points="419.25,-171.45 414.88,-161.45 410.5,-171.45 419.25,-171.45"/>
<text text-anchor="middle" x="529.25" y="-168.45" font-family="Times,serif" font-size="14.00">	 &#160;Aggregated On bene_id, year, state</text>
</g>
<!-- medicare.ps.ssa3 -->
<g id="node4" class="node">
<title>medicare.ps.ssa3</title>
<g id="a_node4"><a xlink:href="../medicare.ps/ssa3.html" xlink:title="&lt;TABLE&gt;" target="_blank">
<polygon fill="none" stroke="black" points="553.62,-407.5 276.12,-407.5 276.12,-288 553.62,-288 553.62,-407.5"/>
<text text-anchor="start" x="365.75" y="-386.2" font-family="Times,serif" font-weight="bold" font-size="14.00">medicare.ps.ssa3</text>
<text text-anchor="start" x="312.12" y="-339.7" font-family="Times,serif" font-size="14.00">Social Security Administration (SSA)</text>
<text text-anchor="start" x="342.5" y="-323.2" font-family="Times,serif" font-size="14.00">three digit code for county</text>
<polygon fill="none" stroke="black" points="284.12,-292 284.12,-403.5 545.62,-403.5 545.62,-292 284.12,-292"/>
</a>
</g>
</g>
<!-- medicare.ps.ssa3&#45;&gt;medicare._ps.fips3_is_approximated -->
<g id="edge3" class="edge">
<title>medicare.ps.ssa3&#45;&gt;medicare._ps.fips3_is_approximated</title>
<path fill="none" stroke="black" d="M414.88,-287.54C414.88,-279.05 414.88,-270.5 414.88,-262.5"/>
<polygon fill="black" stroke="black" points="418.38,-262.78 414.88,-252.78 411.38,-262.78 418.38,-262.78"/>
<text text-anchor="middle" x="453.5" y="-264.45" font-family="Times,serif" font-size="14.00"> &#160;Transformed</text>
</g>
<!-- medicare.ps.ssa3_parent -->
<g id="node5" class="node">
<title>medicare.ps.ssa3_parent</title>
<g id="a_node5"><a xlink:href="../medicare.ps/ssa3.html" xlink:title="8 incoming links (columns)" target="_blank">
<path fill="yellow" stroke="black" d="M522.88,-542.68C522.88,-548.1 474.47,-552.5 414.88,-552.5 355.28,-552.5 306.88,-548.1 306.88,-542.68 306.88,-542.68 306.88,-454.32 306.88,-454.32 306.88,-448.9 355.28,-444.5 414.88,-444.5 474.47,-444.5 522.88,-448.9 522.88,-454.32 522.88,-454.32 522.88,-542.68 522.88,-542.68"/>
<path fill="none" stroke="black" d="M522.88,-542.68C522.88,-537.26 474.47,-532.86 414.88,-532.86 355.28,-532.86 306.88,-537.26 306.88,-542.68"/>
<text text-anchor="middle" x="414.88" y="-493.45" font-family="Times,serif" font-size="14.00">8 incoming links (columns)</text>
</a>
</g>
</g>
<!-- medicare.ps.ssa3_parent&#45;&gt;medicare.ps.ssa3 -->
<g id="edge4" class="edge">
<title>medicare.ps.ssa3_parent&#45;&gt;medicare.ps.ssa3</title>
<path fill="none" stroke="goldenrod" stroke-width="6" d="M414.88,-444.22C414.88,-437.7 414.88,-430.94 414.88,-424.18"/>
<polygon fill="goldenrod" stroke="goldenrod" stroke-width="6" points="420.13,-424.42 414.88,-414.42 409.63,-424.42 420.13,-424.42"/>
</g>
</g>
</svg>
