<?xml version="1.0" encoding="UTF-8" standalone="no"?>
<!DOCTYPE svg PUBLIC "-//W3C//DTD SVG 1.1//EN"
 "http://www.w3.org/Graphics/SVG/1.1/DTD/svg11.dtd">
<!-- Generated by graphviz version 10.0.1 (20240210.2158)
 -->
<!-- Pages: 1 -->
<svg width="3758pt" height="764pt"
 viewBox="0.00 0.00 3757.62 764.00" xmlns="http://www.w3.org/2000/svg" xmlns:xlink="http://www.w3.org/1999/xlink">
<g id="graph0" class="graph" transform="scale(1 1) rotate(0) translate(4 760)">
<polygon fill="white" stroke="none" points="-4,4 -4,-760 3753.62,-760 3753.62,4 -4,4"/>
<!-- medicare.enrollments.fips3_valdiated -->
<g id="node1" class="node">
<title>medicare.enrollments.fips3_valdiated</title>
<g id="a_node1"><a xlink:href="../medicare.enrollments/fips3_valdiated.html" xlink:title="&lt;TABLE&gt;" target="_blank">
<polygon fill="none" stroke="black" points="2313.88,-59 1937.12,-59 1937.12,0 2313.88,0 2313.88,-59"/>
<text text-anchor="start" x="2016.38" y="-37.7" font-family="Times,serif" font-weight="bold" font-size="14.00">medicare.enrollments.fips3_valdiated</text>
<polygon fill="none" stroke="black" points="1948.12,-7 1948.12,-29.5 2302.88,-29.5 2302.88,-7 1948.12,-7"/>
<text text-anchor="start" x="1951.12" y="-13.2" font-family="Times,serif" font-size="14.00">public.validate_zip_fips(MAX(zip), MAX(fips2), MAX(fips3))</text>
<polygon fill="none" stroke="black" points="1945.12,-4 1945.12,-55 2305.88,-55 2305.88,-4 1945.12,-4"/>
</a>
</g>
</g>
<!-- medicare._enrollments.zip -->
<g id="node2" class="node">
<title>medicare._enrollments.zip</title>
<g id="a_node2"><a xlink:href="../medicare._enrollments/zip.html" xlink:title="&lt;TABLE&gt;" target="_blank">
<polygon fill="none" stroke="black" points="1645.75,-155 1465.25,-155 1465.25,-96 1645.75,-96 1645.75,-155"/>
<text text-anchor="start" x="1478.25" y="-133.7" font-family="Times,serif" font-weight="bold" font-size="14.00">medicare._enrollments.zip</text>
<polygon fill="none" stroke="black" points="1476.25,-103 1476.25,-125.5 1634.75,-125.5 1634.75,-103 1476.25,-103"/>
<text text-anchor="start" x="1479.25" y="-109.2" font-family="Times,serif" font-size="14.00">MAX(zip)</text>
<polygon fill="none" stroke="black" points="1473.25,-100 1473.25,-151 1637.75,-151 1637.75,-100 1473.25,-100"/>
</a>
</g>
</g>
<!-- medicare._enrollments.zip&#45;&gt;medicare.enrollments.fips3_valdiated -->
<g id="edge1" class="edge">
<title>medicare._enrollments.zip&#45;&gt;medicare.enrollments.fips3_valdiated</title>
<path fill="none" stroke="black" d="M1646.13,-109.55C1724.54,-96.62 1840.45,-77.51 1938.64,-61.31"/>
<polygon fill="black" stroke="black" points="1939.12,-64.78 1948.42,-59.7 1937.99,-57.88 1939.12,-64.78"/>
<text text-anchor="middle" x="1860" y="-72.45" font-family="Times,serif" font-size="14.00">Copied</text>
</g>
<!-- medicare._ps.zip -->
<g id="node3" class="node">
<title>medicare._ps.zip</title>
<g id="a_node3"><a xlink:href="../medicare._ps/zip.html" xlink:title="&lt;TABLE&gt;" target="_blank">
<polygon fill="none" stroke="black" points="915,-383 0,-383 0,-192 915,-192 915,-383"/>
<text text-anchor="start" x="87.38" y="-361.7" font-family="Times,serif" font-weight="bold" font-size="14.00">medicare._ps.zip</text>
<text text-anchor="start" x="36" y="-315.7" font-family="Times,serif" font-size="14.00">US Postal ZIP code, the first 5 digits</text>
<text text-anchor="start" x="125.25" y="-299.2" font-family="Times,serif" font-size="14.00">of it</text>
<polygon fill="none" stroke="black" points="11,-247 11,-269 262,-269 262,-247 11,-247"/>
<text text-anchor="start" x="14" y="-252.7" font-family="Times,serif" font-size="14.00">numeric →</text>
<polygon fill="none" stroke="black" points="264,-247 264,-269 904,-269 904,-247 264,-247"/>
<text text-anchor="start" x="266.75" y="-252.7" font-family="Times,serif" font-size="14.00">(CASE WHEN {column_name} &lt; 100000 THEN {column_name}::int ELSE ({column_name}/10000)::INT END)</text>
<polygon fill="none" stroke="black" points="11,-223 11,-245 262,-245 262,-223 11,-223"/>
<text text-anchor="start" x="14" y="-228.7" font-family="Times,serif" font-size="14.00">character varying →</text>
<polygon fill="none" stroke="black" points="264,-223 264,-245 904,-245 904,-223 264,-223"/>
<text text-anchor="start" x="267" y="-228.7" font-family="Times,serif" font-size="14.00">SUBSTRING({column_name} FROM 1 FOR 5)::INT</text>
<polygon fill="none" stroke="black" points="11,-199 11,-221 262,-221 262,-199 11,-199"/>
<text text-anchor="start" x="14" y="-204.7" font-family="Times,serif" font-size="14.00">integer →</text>
<polygon fill="none" stroke="black" points="264,-199 264,-221 904,-221 904,-199 264,-199"/>
<text text-anchor="start" x="267" y="-204.7" font-family="Times,serif" font-size="14.00">{column_name}::INT</text>
<polygon fill="none" stroke="black" points="8,-196 8,-379 907,-379 907,-196 8,-196"/>
</a>
</g>
</g>
<!-- medicare._ps.zip&#45;&gt;medicare._enrollments.zip -->
<g id="edge2" class="edge">
<title>medicare._ps.zip&#45;&gt;medicare._enrollments.zip</title>
<path fill="none" stroke="blue" stroke-width="5" d="M915.27,-193.42C918.36,-192.94 921.43,-192.47 924.5,-192 1107.81,-164.01 1322.94,-144.5 1448.75,-134.43"/>
<polygon fill="blue" stroke="blue" stroke-width="5" points="1448.92,-138.8 1458.55,-133.65 1448.23,-130.08 1448.92,-138.8"/>
<text text-anchor="middle" x="1176.88" y="-168.45" font-family="Times,serif" font-size="14.00">	 &#160;Aggregated On bene_id, year, state</text>
</g>
<!-- medicare.ps.zip -->
<g id="node4" class="node">
<title>medicare.ps.zip</title>
<g id="a_node4"><a xlink:href="../medicare.ps/zip.html" xlink:title="&lt;TABLE&gt;" target="_blank">
<polygon fill="none" stroke="black" points="915,-611 0,-611 0,-420 915,-420 915,-611"/>
<text text-anchor="start" x="90.75" y="-589.7" font-family="Times,serif" font-weight="bold" font-size="14.00">medicare.ps.zip</text>
<text text-anchor="start" x="36" y="-543.7" font-family="Times,serif" font-size="14.00">US Postal ZIP code, the first 5 digits</text>
<text text-anchor="start" x="125.25" y="-527.2" font-family="Times,serif" font-size="14.00">of it</text>
<polygon fill="none" stroke="black" points="11,-475 11,-497 262,-497 262,-475 11,-475"/>
<text text-anchor="start" x="14" y="-480.7" font-family="Times,serif" font-size="14.00">numeric →</text>
<polygon fill="none" stroke="black" points="264,-475 264,-497 904,-497 904,-475 264,-475"/>
<text text-anchor="start" x="266.75" y="-480.7" font-family="Times,serif" font-size="14.00">(CASE WHEN {column_name} &lt; 100000 THEN {column_name}::int ELSE ({column_name}/10000)::INT END)</text>
<polygon fill="none" stroke="black" points="11,-451 11,-473 262,-473 262,-451 11,-451"/>
<text text-anchor="start" x="14" y="-456.7" font-family="Times,serif" font-size="14.00">character varying →</text>
<polygon fill="none" stroke="black" points="264,-451 264,-473 904,-473 904,-451 264,-451"/>
<text text-anchor="start" x="267" y="-456.7" font-family="Times,serif" font-size="14.00">SUBSTRING({column_name} FROM 1 FOR 5)::INT</text>
<polygon fill="none" stroke="black" points="11,-427 11,-449 262,-449 262,-427 11,-427"/>
<text text-anchor="start" x="14" y="-432.7" font-family="Times,serif" font-size="14.00">integer →</text>
<polygon fill="none" stroke="black" points="264,-427 264,-449 904,-449 904,-427 264,-427"/>
<text text-anchor="start" x="267" y="-432.7" font-family="Times,serif" font-size="14.00">{column_name}::INT</text>
<polygon fill="none" stroke="black" points="8,-424 8,-607 907,-607 907,-424 8,-424"/>
</a>
</g>
</g>
<!-- medicare.ps.zip&#45;&gt;medicare._ps.zip -->
<g id="edge3" class="edge">
<title>medicare.ps.zip&#45;&gt;medicare._ps.zip</title>
<path fill="none" stroke="black" d="M457.5,-419.64C457.5,-411.42 457.5,-403.06 457.5,-394.76"/>
<polygon fill="black" stroke="black" points="461,-395 457.5,-385 454,-395 461,-395"/>
<text text-anchor="middle" x="477" y="-396.45" font-family="Times,serif" font-size="14.00">Copied</text>
</g>
<!-- medicare.ps.zip_parent -->
<g id="node5" class="node">
<title>medicare.ps.zip_parent</title>
<g id="a_node5"><a xlink:href="../medicare.ps/zip.html" xlink:title="8 incoming links (columns)" target="_blank">
<path fill="yellow" stroke="black" d="M565.5,-746.18C565.5,-751.6 517.09,-756 457.5,-756 397.91,-756 349.5,-751.6 349.5,-746.18 349.5,-746.18 349.5,-657.82 349.5,-657.82 349.5,-652.4 397.91,-648 457.5,-648 517.09,-648 565.5,-652.4 565.5,-657.82 565.5,-657.82 565.5,-746.18 565.5,-746.18"/>
<path fill="none" stroke="black" d="M565.5,-746.18C565.5,-740.76 517.09,-736.36 457.5,-736.36 397.91,-736.36 349.5,-740.76 349.5,-746.18"/>
<text text-anchor="middle" x="457.5" y="-696.95" font-family="Times,serif" font-size="14.00">8 incoming links (columns)</text>
</a>
</g>
</g>
<!-- medicare.ps.zip_parent&#45;&gt;medicare.ps.zip -->
<g id="edge4" class="edge">
<title>medicare.ps.zip_parent&#45;&gt;medicare.ps.zip</title>
<path fill="none" stroke="goldenrod" stroke-width="6" d="M457.5,-647.63C457.5,-641.23 457.5,-634.52 457.5,-627.66"/>
<polygon fill="goldenrod" stroke="goldenrod" stroke-width="6" points="462.75,-627.93 457.5,-617.93 452.25,-627.93 462.75,-627.93"/>
</g>
<!-- medicare._enrollments.fips3 -->
<g id="node6" class="node">
<title>medicare._enrollments.fips3</title>
<g id="a_node6"><a xlink:href="../medicare._enrollments/fips3.html" xlink:title="&lt;TABLE&gt;" target="_blank">
<polygon fill="none" stroke="black" points="2221,-155 2030,-155 2030,-96 2221,-96 2221,-155"/>
<text text-anchor="start" x="2043" y="-133.7" font-family="Times,serif" font-weight="bold" font-size="14.00">medicare._enrollments.fips3</text>
<polygon fill="none" stroke="black" points="2041,-103 2041,-125.5 2210,-125.5 2210,-103 2041,-103"/>
<text text-anchor="start" x="2044" y="-109.2" font-family="Times,serif" font-size="14.00">MAX(fips3)</text>
<polygon fill="none" stroke="black" points="2038,-100 2038,-151 2213,-151 2213,-100 2038,-100"/>
</a>
</g>
</g>
<!-- medicare._enrollments.fips3&#45;&gt;medicare.enrollments.fips3_valdiated -->
<g id="edge5" class="edge">
<title>medicare._enrollments.fips3&#45;&gt;medicare.enrollments.fips3_valdiated</title>
<path fill="none" stroke="black" d="M2125.5,-95.53C2125.5,-87.68 2125.5,-79.05 2125.5,-70.7"/>
<polygon fill="black" stroke="black" points="2129,-70.73 2125.5,-60.73 2122,-70.73 2129,-70.73"/>
<text text-anchor="middle" x="2145" y="-72.45" font-family="Times,serif" font-size="14.00">Copied</text>
</g>
<!-- medicare._ps.fips3 -->
<g id="node7" class="node">
<title>medicare._ps.fips3</title>
<g id="a_node7"><a xlink:href="../medicare._ps/fips3.html" xlink:title="&lt;TABLE&gt;" target="_blank">
<polygon fill="none" stroke="black" points="3317.75,-317 933.25,-317 933.25,-258 3317.75,-258 3317.75,-317"/>
<text text-anchor="start" x="2071.12" y="-295.7" font-family="Times,serif" font-weight="bold" font-size="14.00">medicare._ps.fips3</text>
<polygon fill="none" stroke="black" points="944.25,-265 944.25,-287.5 3306.75,-287.5 3306.75,-265 944.25,-265"/>
<text text-anchor="start" x="947.25" y="-271.2" font-family="Times,serif" font-size="14.00">CASE WHEN ssa3 is NOT NULL THEN &#160;CASE WHEN year &gt; 2010 THEN &#160;&#160;&#160;&#160;&#160;(SELECT fips3 from public.ssa as s where ps.ssa3 = s.ssa3 and ps.year = s.year and ps.fips2 = s.fips2 ORDER BY 1 DESC LIMIT 1) &#160;&#160;&#160;ELSE &#160;&#160;&#160;&#160;&#160;(SELECT fips3 from public.ssa as s where ps.ssa3 = s.ssa3 and 2003 = s.year and ps.fips2 = s.fips2 ORDER BY 1 DESC LIMIT 1) &#160;ENDELSE &#160;(SELECT public.zip_to_fips3(year, zip))END AS fips3</text>
<polygon fill="none" stroke="black" points="941.25,-262 941.25,-313 3309.75,-313 3309.75,-262 941.25,-262"/>
</a>
</g>
</g>
<!-- medicare._ps.fips3&#45;&gt;medicare._enrollments.fips3 -->
<g id="edge6" class="edge">
<title>medicare._ps.fips3&#45;&gt;medicare._enrollments.fips3</title>
<path fill="none" stroke="blue" stroke-width="5" d="M2125.5,-257.53C2125.5,-233.51 2125.5,-198.97 2125.5,-171.38"/>
<polygon fill="blue" stroke="blue" stroke-width="5" points="2129.88,-171.5 2125.5,-161.5 2121.13,-171.5 2129.88,-171.5"/>
<text text-anchor="middle" x="2239.88" y="-168.45" font-family="Times,serif" font-size="14.00">	 &#160;Aggregated On bene_id, year, state</text>
</g>
<!-- medicare.ps.year -->
<g id="node8" class="node">
<title>medicare.ps.year</title>
<g id="a_node8"><a xlink:href="../medicare.ps/year.html" xlink:title="&lt;TABLE&gt;" target="_blank">
<polygon fill="none" stroke="black" points="2355.38,-545 1237.62,-545 1237.62,-486 2355.38,-486 2355.38,-545"/>
<text text-anchor="start" x="1746.62" y="-523.7" font-family="Times,serif" font-weight="bold" font-size="14.00">medicare.ps.year</text>
<polygon fill="none" stroke="black" points="1248.62,-493 1248.62,-515.5 2344.38,-515.5 2344.38,-493 1248.62,-493"/>
<text text-anchor="start" x="1251.62" y="-499.2" font-family="Times,serif" font-size="14.00">(CASE WHEN &quot;year&quot;::int &lt; 20 THEN (2000 + &quot;year&quot;::int) WHEN (20 &lt; &quot;year&quot;::int AND &quot;year&quot;::int &lt; 100) THEN (1900 + &quot;year&quot;::int) WHEN &quot;year&quot; IS NULL THEN 2000 ELSE &quot;year&quot;::int END)</text>
<polygon fill="none" stroke="black" points="1245.62,-490 1245.62,-541 2347.38,-541 2347.38,-490 1245.62,-490"/>
</a>
</g>
</g>
<!-- medicare.ps.year&#45;&gt;medicare._ps.fips3 -->
<g id="edge7" class="edge">
<title>medicare.ps.year&#45;&gt;medicare._ps.fips3</title>
<path fill="none" stroke="black" d="M1838.5,-485.65C1898.69,-444.31 2009.33,-368.3 2074.25,-323.7"/>
<polygon fill="black" stroke="black" points="2075.98,-326.76 2082.24,-318.22 2072.02,-320.99 2075.98,-326.76"/>
<text text-anchor="middle" x="2000.12" y="-396.45" font-family="Times,serif" font-size="14.00"> &#160;Transformed</text>
</g>
<!-- medicare.ps.year_parent -->
<g id="node9" class="node">
<title>medicare.ps.year_parent</title>
<g id="a_node9"><a xlink:href="../medicare.ps/year.html" xlink:title="8 incoming links (columns)" target="_blank">
<path fill="yellow" stroke="black" d="M1904.5,-746.18C1904.5,-751.6 1856.09,-756 1796.5,-756 1736.91,-756 1688.5,-751.6 1688.5,-746.18 1688.5,-746.18 1688.5,-657.82 1688.5,-657.82 1688.5,-652.4 1736.91,-648 1796.5,-648 1856.09,-648 1904.5,-652.4 1904.5,-657.82 1904.5,-657.82 1904.5,-746.18 1904.5,-746.18"/>
<path fill="none" stroke="black" d="M1904.5,-746.18C1904.5,-740.76 1856.09,-736.36 1796.5,-736.36 1736.91,-736.36 1688.5,-740.76 1688.5,-746.18"/>
<text text-anchor="middle" x="1796.5" y="-696.95" font-family="Times,serif" font-size="14.00">8 incoming links (columns)</text>
</a>
</g>
</g>
<!-- medicare.ps.year_parent&#45;&gt;medicare.ps.year -->
<g id="edge8" class="edge">
<title>medicare.ps.year_parent&#45;&gt;medicare.ps.year</title>
<path fill="none" stroke="goldenrod" stroke-width="6" d="M1796.5,-647.63C1796.5,-620.44 1796.5,-587.73 1796.5,-561.78"/>
<polygon fill="goldenrod" stroke="goldenrod" stroke-width="6" points="1801.75,-561.89 1796.5,-551.89 1791.25,-561.89 1801.75,-561.89"/>
</g>
<!-- medicare.ps.ssa3 -->
<g id="node10" class="node">
<title>medicare.ps.ssa3</title>
<g id="a_node10"><a xlink:href="../medicare.ps/ssa3.html" xlink:title="&lt;TABLE&gt;" target="_blank">
<polygon fill="none" stroke="black" points="2651.25,-575.25 2373.75,-575.25 2373.75,-455.75 2651.25,-455.75 2651.25,-575.25"/>
<text text-anchor="start" x="2463.38" y="-553.95" font-family="Times,serif" font-weight="bold" font-size="14.00">medicare.ps.ssa3</text>
<text text-anchor="start" x="2409.75" y="-507.45" font-family="Times,serif" font-size="14.00">Social Security Administration (SSA)</text>
<text text-anchor="start" x="2440.12" y="-490.95" font-family="Times,serif" font-size="14.00">three digit code for county</text>
<polygon fill="none" stroke="black" points="2381.75,-459.75 2381.75,-571.25 2643.25,-571.25 2643.25,-459.75 2381.75,-459.75"/>
</a>
</g>
</g>
<!-- medicare.ps.ssa3&#45;&gt;medicare._ps.fips3 -->
<g id="edge9" class="edge">
<title>medicare.ps.ssa3&#45;&gt;medicare._ps.fips3</title>
<path fill="none" stroke="black" d="M2421.89,-455.33C2403.06,-443.41 2383.24,-431.12 2364.5,-420 2306.33,-385.47 2238.66,-348.54 2190.21,-322.63"/>
<polygon fill="black" stroke="black" points="2191.98,-319.61 2181.51,-317.98 2188.68,-325.78 2191.98,-319.61"/>
<text text-anchor="middle" x="2370.12" y="-396.45" font-family="Times,serif" font-size="14.00"> &#160;Transformed</text>
</g>
<!-- medicare.ps.ssa3_parent -->
<g id="node11" class="node">
<title>medicare.ps.ssa3_parent</title>
<g id="a_node11"><a xlink:href="../medicare.ps/ssa3.html" xlink:title="8 incoming links (columns)" target="_blank">
<path fill="yellow" stroke="black" d="M2620.5,-746.18C2620.5,-751.6 2572.09,-756 2512.5,-756 2452.91,-756 2404.5,-751.6 2404.5,-746.18 2404.5,-746.18 2404.5,-657.82 2404.5,-657.82 2404.5,-652.4 2452.91,-648 2512.5,-648 2572.09,-648 2620.5,-652.4 2620.5,-657.82 2620.5,-657.82 2620.5,-746.18 2620.5,-746.18"/>
<path fill="none" stroke="black" d="M2620.5,-746.18C2620.5,-740.76 2572.09,-736.36 2512.5,-736.36 2452.91,-736.36 2404.5,-740.76 2404.5,-746.18"/>
<text text-anchor="middle" x="2512.5" y="-696.95" font-family="Times,serif" font-size="14.00">8 incoming links (columns)</text>
</a>
</g>
</g>
<!-- medicare.ps.ssa3_parent&#45;&gt;medicare.ps.ssa3 -->
<g id="edge10" class="edge">
<title>medicare.ps.ssa3_parent&#45;&gt;medicare.ps.ssa3</title>
<path fill="none" stroke="goldenrod" stroke-width="6" d="M2512.5,-647.63C2512.5,-630.27 2512.5,-610.66 2512.5,-592"/>
<polygon fill="goldenrod" stroke="goldenrod" stroke-width="6" points="2517.75,-592.02 2512.5,-582.02 2507.25,-592.02 2517.75,-592.02"/>
</g>
<!-- medicare.ps.fips2 -->
<g id="node12" class="node">
<title>medicare.ps.fips2</title>
<g id="a_node12"><a xlink:href="../medicare.ps/fips2.html" xlink:title="&lt;TABLE&gt;" target="_blank">
<polygon fill="none" stroke="black" points="3416.62,-595.75 3002.38,-595.75 3002.38,-435.25 3416.62,-435.25 3416.62,-595.75"/>
<text text-anchor="start" x="3158.5" y="-574.45" font-family="Times,serif" font-weight="bold" font-size="14.00">medicare.ps.fips2</text>
<text text-anchor="start" x="3050" y="-527.95" font-family="Times,serif" font-size="14.00">2 digit state FIPS, see https://en.wikip</text>
<text text-anchor="start" x="3038.38" y="-511.45" font-family="Times,serif" font-size="14.00">edia.org/wiki/Federal_Information_Proces</text>
<text text-anchor="start" x="3083.38" y="-494.95" font-family="Times,serif" font-size="14.00">sing_Standard_state_code</text>
<polygon fill="none" stroke="black" points="3013.38,-442.25 3013.38,-464.75 3405.62,-464.75 3405.62,-442.25 3013.38,-442.25"/>
<text text-anchor="start" x="3016.38" y="-448.45" font-family="Times,serif" font-size="14.00">(SELECT fips2 FROM public.us_states as s WHERE s.ssa2 = &quot;state&quot;)</text>
<polygon fill="none" stroke="black" points="3010.38,-439.25 3010.38,-591.75 3408.62,-591.75 3408.62,-439.25 3010.38,-439.25"/>
</a>
</g>
</g>
<!-- medicare.ps.fips2&#45;&gt;medicare._ps.fips3 -->
<g id="edge11" class="edge">
<title>medicare.ps.fips2&#45;&gt;medicare._ps.fips3</title>
<path fill="none" stroke="black" d="M3002.1,-471.26C2789.52,-426.94 2464.13,-359.1 2275.35,-319.74"/>
<polygon fill="black" stroke="black" points="2276.22,-316.35 2265.71,-317.73 2274.79,-323.2 2276.22,-316.35"/>
<text text-anchor="middle" x="2706.12" y="-396.45" font-family="Times,serif" font-size="14.00"> &#160;Transformed</text>
</g>
<!-- medicare._ps.fips2 -->
<g id="node14" class="node">
<title>medicare._ps.fips2</title>
<g id="a_node14"><a xlink:href="../medicare._ps/fips2.html" xlink:title="&lt;TABLE&gt;" target="_blank">
<polygon fill="none" stroke="black" points="3749.62,-367.75 3335.38,-367.75 3335.38,-207.25 3749.62,-207.25 3749.62,-367.75"/>
<text text-anchor="start" x="3488.12" y="-346.45" font-family="Times,serif" font-weight="bold" font-size="14.00">medicare._ps.fips2</text>
<text text-anchor="start" x="3383" y="-299.95" font-family="Times,serif" font-size="14.00">2 digit state FIPS, see https://en.wikip</text>
<text text-anchor="start" x="3371.38" y="-283.45" font-family="Times,serif" font-size="14.00">edia.org/wiki/Federal_Information_Proces</text>
<text text-anchor="start" x="3416.38" y="-266.95" font-family="Times,serif" font-size="14.00">sing_Standard_state_code</text>
<polygon fill="none" stroke="black" points="3346.38,-214.25 3346.38,-236.75 3738.62,-236.75 3738.62,-214.25 3346.38,-214.25"/>
<text text-anchor="start" x="3349.38" y="-220.45" font-family="Times,serif" font-size="14.00">(SELECT fips2 FROM public.us_states as s WHERE s.ssa2 = &quot;state&quot;)</text>
<polygon fill="none" stroke="black" points="3343.38,-211.25 3343.38,-363.75 3741.62,-363.75 3741.62,-211.25 3343.38,-211.25"/>
</a>
</g>
</g>
<!-- medicare.ps.fips2&#45;&gt;medicare._ps.fips2 -->
<g id="edge14" class="edge">
<title>medicare.ps.fips2&#45;&gt;medicare._ps.fips2</title>
<path fill="none" stroke="black" d="M3326.9,-434.82C3355.63,-415.33 3386.49,-394.38 3415.64,-374.6"/>
<polygon fill="black" stroke="black" points="3417.47,-377.58 3423.78,-369.07 3413.54,-371.79 3417.47,-377.58"/>
<text text-anchor="middle" x="3395" y="-396.45" font-family="Times,serif" font-size="14.00">Copied</text>
</g>
<!-- medicare._enrollments.fips2 -->
<g id="node13" class="node">
<title>medicare._enrollments.fips2</title>
<g id="a_node13"><a xlink:href="../medicare._enrollments/fips2.html" xlink:title="&lt;TABLE&gt;" target="_blank">
<polygon fill="none" stroke="black" points="3034,-155 2843,-155 2843,-96 3034,-96 3034,-155"/>
<text text-anchor="start" x="2856" y="-133.7" font-family="Times,serif" font-weight="bold" font-size="14.00">medicare._enrollments.fips2</text>
<polygon fill="none" stroke="black" points="2854,-103 2854,-125.5 3023,-125.5 3023,-103 2854,-103"/>
<text text-anchor="start" x="2857" y="-109.2" font-family="Times,serif" font-size="14.00">MAX(fips2)</text>
<polygon fill="none" stroke="black" points="2851,-100 2851,-151 3026,-151 3026,-100 2851,-100"/>
</a>
</g>
</g>
<!-- medicare._enrollments.fips2&#45;&gt;medicare.enrollments.fips3_valdiated -->
<g id="edge12" class="edge">
<title>medicare._enrollments.fips2&#45;&gt;medicare.enrollments.fips3_valdiated</title>
<path fill="none" stroke="black" d="M2842.85,-113.44C2716.26,-98.8 2489.93,-72.64 2325.27,-53.6"/>
<polygon fill="black" stroke="black" points="2325.86,-50.14 2315.52,-52.47 2325.05,-57.1 2325.86,-50.14"/>
<text text-anchor="middle" x="2551" y="-72.45" font-family="Times,serif" font-size="14.00">Copied</text>
</g>
<!-- medicare._ps.fips2&#45;&gt;medicare._enrollments.fips2 -->
<g id="edge13" class="edge">
<title>medicare._ps.fips2&#45;&gt;medicare._enrollments.fips2</title>
<path fill="none" stroke="blue" stroke-width="5" d="M3370.6,-206.85C3355.84,-201.38 3341.01,-196.33 3326.5,-192 3235.4,-164.83 3128.69,-147.84 3050.26,-138"/>
<polygon fill="blue" stroke="blue" stroke-width="5" points="3051.11,-133.7 3040.66,-136.82 3050.05,-142.38 3051.11,-133.7"/>
<text text-anchor="middle" x="3369.88" y="-168.45" font-family="Times,serif" font-size="14.00">	 &#160;Aggregated On bene_id, year, state</text>
</g>
</g>
</svg>
