<?xml version="1.0" encoding="UTF-8" standalone="no"?>
<!DOCTYPE svg PUBLIC "-//W3C//DTD SVG 1.1//EN"
 "http://www.w3.org/Graphics/SVG/1.1/DTD/svg11.dtd">
<!-- Generated by graphviz version 10.0.1 (20240210.2158)
 -->
<!-- Pages: 1 -->
<svg width="3758pt" height="997pt"
 viewBox="0.00 0.00 3757.62 997.00" xmlns="http://www.w3.org/2000/svg" xmlns:xlink="http://www.w3.org/1999/xlink">
<g id="graph0" class="graph" transform="scale(1 1) rotate(0) translate(4 993)">
<polygon fill="white" stroke="none" points="-4,4 -4,-993 3753.62,-993 3753.62,4 -4,4"/>
<!-- medicare.qc_enrl_bene.fips3_valdiated -->
<g id="node1" class="node">
<title>medicare.qc_enrl_bene.fips3_valdiated</title>
<g id="a_node1"><a xlink:href="../medicare.qc_enrl_bene/fips3_valdiated.html" xlink:title="&lt;TABLE&gt;" target="_blank">
<polygon fill="none" stroke="black" points="1812.5,-59 1435.75,-59 1435.75,0 1812.5,0 1812.5,-59"/>
<text text-anchor="start" x="1510.88" y="-37.7" font-family="Times,serif" font-weight="bold" font-size="14.00">medicare.qc_enrl_bene.fips3_valdiated</text>
<polygon fill="none" stroke="black" points="1446.75,-7 1446.75,-29.5 1801.5,-29.5 1801.5,-7 1446.75,-7"/>
<text text-anchor="start" x="1449.75" y="-13.2" font-family="Times,serif" font-size="14.00">public.validate_zip_fips(MAX(zip), MAX(fips2), MAX(fips3))</text>
<polygon fill="none" stroke="black" points="1443.75,-4 1443.75,-55 1804.5,-55 1804.5,-4 1443.75,-4"/>
</a>
</g>
</g>
<!-- medicare.enrollments.fips3 -->
<g id="node2" class="node">
<title>medicare.enrollments.fips3</title>
<g id="a_node2"><a xlink:href="../medicare.enrollments/fips3.html" xlink:title="&lt;TABLE&gt;" target="_blank">
<polygon fill="none" stroke="black" points="1716.25,-189.25 1532,-189.25 1532,-130.25 1716.25,-130.25 1716.25,-189.25"/>
<text text-anchor="start" x="1545" y="-167.95" font-family="Times,serif" font-weight="bold" font-size="14.00">medicare.enrollments.fips3</text>
<polygon fill="none" stroke="black" points="1543,-137.25 1543,-159.75 1705.25,-159.75 1705.25,-137.25 1543,-137.25"/>
<text text-anchor="start" x="1546" y="-143.45" font-family="Times,serif" font-size="14.00">MAX(fips3)</text>
<polygon fill="none" stroke="black" points="1540,-134.25 1540,-185.25 1708.25,-185.25 1708.25,-134.25 1540,-134.25"/>
</a>
</g>
</g>
<!-- medicare.enrollments.fips3&#45;&gt;medicare.qc_enrl_bene.fips3_valdiated -->
<g id="edge1" class="edge">
<title>medicare.enrollments.fips3&#45;&gt;medicare.qc_enrl_bene.fips3_valdiated</title>
<path fill="none" stroke="black" d="M1624.12,-129.97C1624.12,-112.48 1624.12,-89.88 1624.12,-70.65"/>
<polygon fill="black" stroke="black" points="1627.63,-70.7 1624.13,-60.7 1620.63,-70.7 1627.63,-70.7"/>
<text text-anchor="middle" x="1670.25" y="-72.45" font-family="Times,serif" font-size="14.00">	join natural</text>
</g>
<!-- medicare._enrollments.fips3 -->
<g id="node3" class="node">
<title>medicare._enrollments.fips3</title>
<g id="a_node3"><a xlink:href="../medicare._enrollments/fips3.html" xlink:title="&lt;TABLE&gt;" target="_blank">
<polygon fill="none" stroke="black" points="1719.62,-353.75 1528.62,-353.75 1528.62,-294.75 1719.62,-294.75 1719.62,-353.75"/>
<text text-anchor="start" x="1541.62" y="-332.45" font-family="Times,serif" font-weight="bold" font-size="14.00">medicare._enrollments.fips3</text>
<polygon fill="none" stroke="black" points="1539.62,-301.75 1539.62,-324.25 1708.62,-324.25 1708.62,-301.75 1539.62,-301.75"/>
<text text-anchor="start" x="1542.62" y="-307.95" font-family="Times,serif" font-size="14.00">MAX(fips3)</text>
<polygon fill="none" stroke="black" points="1536.62,-298.75 1536.62,-349.75 1711.62,-349.75 1711.62,-298.75 1536.62,-298.75"/>
</a>
</g>
</g>
<!-- medicare._enrollments.fips3&#45;&gt;medicare.enrollments.fips3 -->
<g id="edge2" class="edge">
<title>medicare._enrollments.fips3&#45;&gt;medicare.enrollments.fips3</title>
<path fill="none" stroke="black" d="M1624.12,-294.57C1624.12,-268.63 1624.12,-230.15 1624.12,-201.1"/>
<polygon fill="black" stroke="black" points="1627.63,-201.2 1624.13,-191.2 1620.63,-201.2 1627.63,-201.2"/>
<text text-anchor="middle" x="1643.62" y="-236.95" font-family="Times,serif" font-size="14.00">Copied</text>
</g>
<!-- medicare._ps.fips3 -->
<g id="node4" class="node">
<title>medicare._ps.fips3</title>
<g id="a_node4"><a xlink:href="../medicare._ps/fips3.html" xlink:title="&lt;TABLE&gt;" target="_blank">
<polygon fill="none" stroke="black" points="2816.38,-550 431.88,-550 431.88,-491 2816.38,-491 2816.38,-550"/>
<text text-anchor="start" x="1569.75" y="-528.7" font-family="Times,serif" font-weight="bold" font-size="14.00">medicare._ps.fips3</text>
<polygon fill="none" stroke="black" points="442.88,-498 442.88,-520.5 2805.38,-520.5 2805.38,-498 442.88,-498"/>
<text text-anchor="start" x="445.88" y="-504.2" font-family="Times,serif" font-size="14.00">CASE WHEN ssa3 is NOT NULL THEN &#160;CASE WHEN year &gt; 2010 THEN &#160;&#160;&#160;&#160;&#160;(SELECT fips3 from public.ssa as s where ps.ssa3 = s.ssa3 and ps.year = s.year and ps.fips2 = s.fips2 ORDER BY 1 DESC LIMIT 1) &#160;&#160;&#160;ELSE &#160;&#160;&#160;&#160;&#160;(SELECT fips3 from public.ssa as s where ps.ssa3 = s.ssa3 and 2003 = s.year and ps.fips2 = s.fips2 ORDER BY 1 DESC LIMIT 1) &#160;ENDELSE &#160;(SELECT public.zip_to_fips3(year, zip))END AS fips3</text>
<polygon fill="none" stroke="black" points="439.88,-495 439.88,-546 2808.38,-546 2808.38,-495 439.88,-495"/>
</a>
</g>
</g>
<!-- medicare._ps.fips3&#45;&gt;medicare._enrollments.fips3 -->
<g id="edge3" class="edge">
<title>medicare._ps.fips3&#45;&gt;medicare._enrollments.fips3</title>
<path fill="none" stroke="blue" stroke-width="5" d="M1624.12,-490.84C1624.12,-459.06 1624.12,-407.39 1624.12,-370.22"/>
<polygon fill="blue" stroke="blue" stroke-width="5" points="1628.5,-370.27 1624.13,-360.27 1619.75,-370.27 1628.5,-370.27"/>
<text text-anchor="middle" x="1738.5" y="-401.45" font-family="Times,serif" font-size="14.00">	 &#160;Aggregated On bene_id, year, state</text>
</g>
<!-- medicare.ps.fips2 -->
<g id="node5" class="node">
<title>medicare.ps.fips2</title>
<g id="a_node5"><a xlink:href="../medicare.ps/fips2.html" xlink:title="&lt;TABLE&gt;" target="_blank">
<polygon fill="none" stroke="black" points="1021.25,-828.75 607,-828.75 607,-668.25 1021.25,-668.25 1021.25,-828.75"/>
<text text-anchor="start" x="763.12" y="-807.45" font-family="Times,serif" font-weight="bold" font-size="14.00">medicare.ps.fips2</text>
<text text-anchor="start" x="654.62" y="-760.95" font-family="Times,serif" font-size="14.00">2 digit state FIPS, see https://en.wikip</text>
<text text-anchor="start" x="643" y="-744.45" font-family="Times,serif" font-size="14.00">edia.org/wiki/Federal_Information_Proces</text>
<text text-anchor="start" x="688" y="-727.95" font-family="Times,serif" font-size="14.00">sing_Standard_state_code</text>
<polygon fill="none" stroke="black" points="618,-675.25 618,-697.75 1010.25,-697.75 1010.25,-675.25 618,-675.25"/>
<text text-anchor="start" x="621" y="-681.45" font-family="Times,serif" font-size="14.00">(SELECT fips2 FROM public.us_states as s WHERE s.ssa2 = &quot;state&quot;)</text>
<polygon fill="none" stroke="black" points="615,-672.25 615,-824.75 1013.25,-824.75 1013.25,-672.25 615,-672.25"/>
</a>
</g>
</g>
<!-- medicare.ps.fips2&#45;&gt;medicare._ps.fips3 -->
<g id="edge4" class="edge">
<title>medicare.ps.fips2&#45;&gt;medicare._ps.fips3</title>
<path fill="none" stroke="black" d="M1021.67,-689.59C1176.75,-646.32 1382.98,-588.78 1509.49,-553.48"/>
<polygon fill="black" stroke="black" points="1510.2,-556.92 1518.89,-550.86 1508.31,-550.18 1510.2,-556.92"/>
<text text-anchor="middle" x="1257.75" y="-629.45" font-family="Times,serif" font-size="14.00"> &#160;Transformed</text>
</g>
<!-- medicare._ps.fips2 -->
<g id="node12" class="node">
<title>medicare._ps.fips2</title>
<g id="a_node12"><a xlink:href="../medicare._ps/fips2.html" xlink:title="&lt;TABLE&gt;" target="_blank">
<polygon fill="none" stroke="black" points="414.25,-600.75 0,-600.75 0,-440.25 414.25,-440.25 414.25,-600.75"/>
<text text-anchor="start" x="152.75" y="-579.45" font-family="Times,serif" font-weight="bold" font-size="14.00">medicare._ps.fips2</text>
<text text-anchor="start" x="47.62" y="-532.95" font-family="Times,serif" font-size="14.00">2 digit state FIPS, see https://en.wikip</text>
<text text-anchor="start" x="36" y="-516.45" font-family="Times,serif" font-size="14.00">edia.org/wiki/Federal_Information_Proces</text>
<text text-anchor="start" x="81" y="-499.95" font-family="Times,serif" font-size="14.00">sing_Standard_state_code</text>
<polygon fill="none" stroke="black" points="11,-447.25 11,-469.75 403.25,-469.75 403.25,-447.25 11,-447.25"/>
<text text-anchor="start" x="14" y="-453.45" font-family="Times,serif" font-size="14.00">(SELECT fips2 FROM public.us_states as s WHERE s.ssa2 = &quot;state&quot;)</text>
<polygon fill="none" stroke="black" points="8,-444.25 8,-596.75 406.25,-596.75 406.25,-444.25 8,-444.25"/>
</a>
</g>
</g>
<!-- medicare.ps.fips2&#45;&gt;medicare._ps.fips2 -->
<g id="edge12" class="edge">
<title>medicare.ps.fips2&#45;&gt;medicare._ps.fips2</title>
<path fill="none" stroke="black" d="M606.69,-681.51C547.05,-661.52 482.17,-638.79 423.12,-616 414.41,-612.64 405.53,-609.12 396.59,-605.51"/>
<polygon fill="black" stroke="black" points="398.06,-602.32 387.47,-601.8 395.42,-608.81 398.06,-602.32"/>
<text text-anchor="middle" x="492.62" y="-629.45" font-family="Times,serif" font-size="14.00">Copied</text>
</g>
<!-- medicare.ps.ssa3 -->
<g id="node6" class="node">
<title>medicare.ps.ssa3</title>
<g id="a_node6"><a xlink:href="../medicare.ps/ssa3.html" xlink:title="&lt;TABLE&gt;" target="_blank">
<polygon fill="none" stroke="black" points="1559.88,-808.25 1282.38,-808.25 1282.38,-688.75 1559.88,-688.75 1559.88,-808.25"/>
<text text-anchor="start" x="1372" y="-786.95" font-family="Times,serif" font-weight="bold" font-size="14.00">medicare.ps.ssa3</text>
<text text-anchor="start" x="1318.38" y="-740.45" font-family="Times,serif" font-size="14.00">Social Security Administration (SSA)</text>
<text text-anchor="start" x="1348.75" y="-723.95" font-family="Times,serif" font-size="14.00">three digit code for county</text>
<polygon fill="none" stroke="black" points="1290.38,-692.75 1290.38,-804.25 1551.88,-804.25 1551.88,-692.75 1290.38,-692.75"/>
</a>
</g>
</g>
<!-- medicare.ps.ssa3&#45;&gt;medicare._ps.fips3 -->
<g id="edge5" class="edge">
<title>medicare.ps.ssa3&#45;&gt;medicare._ps.fips3</title>
<path fill="none" stroke="black" d="M1474.2,-688.42C1511.02,-647.42 1558.94,-594.07 1590.58,-558.85"/>
<polygon fill="black" stroke="black" points="1593.17,-561.2 1597.24,-551.43 1587.96,-556.53 1593.17,-561.2"/>
<text text-anchor="middle" x="1561.75" y="-629.45" font-family="Times,serif" font-size="14.00"> &#160;Transformed</text>
</g>
<!-- medicare.ps.ssa3_parent -->
<g id="node7" class="node">
<title>medicare.ps.ssa3_parent</title>
<g id="a_node7"><a xlink:href="../medicare.ps/ssa3.html" xlink:title="8 incoming links (columns)" target="_blank">
<path fill="yellow" stroke="black" d="M1529.12,-979.18C1529.12,-984.6 1480.72,-989 1421.12,-989 1361.53,-989 1313.12,-984.6 1313.12,-979.18 1313.12,-979.18 1313.12,-890.82 1313.12,-890.82 1313.12,-885.4 1361.53,-881 1421.12,-881 1480.72,-881 1529.12,-885.4 1529.12,-890.82 1529.12,-890.82 1529.12,-979.18 1529.12,-979.18"/>
<path fill="none" stroke="black" d="M1529.12,-979.18C1529.12,-973.76 1480.72,-969.36 1421.12,-969.36 1361.53,-969.36 1313.12,-973.76 1313.12,-979.18"/>
<text text-anchor="middle" x="1421.12" y="-929.95" font-family="Times,serif" font-size="14.00">8 incoming links (columns)</text>
</a>
</g>
</g>
<!-- medicare.ps.ssa3_parent&#45;&gt;medicare.ps.ssa3 -->
<g id="edge6" class="edge">
<title>medicare.ps.ssa3_parent&#45;&gt;medicare.ps.ssa3</title>
<path fill="none" stroke="goldenrod" stroke-width="6" d="M1421.12,-880.63C1421.12,-863.27 1421.12,-843.66 1421.12,-825"/>
<polygon fill="goldenrod" stroke="goldenrod" stroke-width="6" points="1426.38,-825.02 1421.13,-815.02 1415.88,-825.02 1426.38,-825.02"/>
</g>
<!-- medicare.ps.year -->
<g id="node8" class="node">
<title>medicare.ps.year</title>
<g id="a_node8"><a xlink:href="../medicare.ps/year.html" xlink:title="&lt;TABLE&gt;" target="_blank">
<polygon fill="none" stroke="black" points="2696,-812.25 1578.25,-812.25 1578.25,-684.75 2696,-684.75 2696,-812.25"/>
<text text-anchor="start" x="2087.25" y="-790.95" font-family="Times,serif" font-weight="bold" font-size="14.00">medicare.ps.year</text>
<text text-anchor="start" x="1614.25" y="-744.45" font-family="Times,serif" font-size="14.00">Beneficiary Enrollment Reference Year</text>
<polygon fill="none" stroke="black" points="1589.25,-691.75 1589.25,-714.25 2685,-714.25 2685,-691.75 1589.25,-691.75"/>
<text text-anchor="start" x="1592.25" y="-697.95" font-family="Times,serif" font-size="14.00">(CASE WHEN &quot;year&quot;::int &lt; 20 THEN (2000 + &quot;year&quot;::int) WHEN (20 &lt; &quot;year&quot;::int AND &quot;year&quot;::int &lt; 100) THEN (1900 + &quot;year&quot;::int) WHEN &quot;year&quot; IS NULL THEN 2000 ELSE &quot;year&quot;::int END)</text>
<polygon fill="none" stroke="black" points="1586.25,-688.75 1586.25,-808.25 2688,-808.25 2688,-688.75 1586.25,-688.75"/>
</a>
</g>
</g>
<!-- medicare.ps.year&#45;&gt;medicare._ps.fips3 -->
<g id="edge7" class="edge">
<title>medicare.ps.year&#45;&gt;medicare._ps.fips3</title>
<path fill="none" stroke="black" d="M1993.88,-684.4C1898.56,-642.4 1777.12,-588.9 1699.97,-554.91"/>
<polygon fill="black" stroke="black" points="1701.8,-551.9 1691.24,-551.07 1698.98,-558.3 1701.8,-551.9"/>
<text text-anchor="middle" x="1919.75" y="-629.45" font-family="Times,serif" font-size="14.00"> &#160;Transformed</text>
</g>
<!-- medicare.ps.year_parent -->
<g id="node9" class="node">
<title>medicare.ps.year_parent</title>
<g id="a_node9"><a xlink:href="../medicare.ps/year.html" xlink:title="8 incoming links (columns)" target="_blank">
<path fill="yellow" stroke="black" d="M2245.12,-979.18C2245.12,-984.6 2196.72,-989 2137.12,-989 2077.53,-989 2029.12,-984.6 2029.12,-979.18 2029.12,-979.18 2029.12,-890.82 2029.12,-890.82 2029.12,-885.4 2077.53,-881 2137.12,-881 2196.72,-881 2245.12,-885.4 2245.12,-890.82 2245.12,-890.82 2245.12,-979.18 2245.12,-979.18"/>
<path fill="none" stroke="black" d="M2245.12,-979.18C2245.12,-973.76 2196.72,-969.36 2137.12,-969.36 2077.53,-969.36 2029.12,-973.76 2029.12,-979.18"/>
<text text-anchor="middle" x="2137.12" y="-929.95" font-family="Times,serif" font-size="14.00">8 incoming links (columns)</text>
</a>
</g>
</g>
<!-- medicare.ps.year_parent&#45;&gt;medicare.ps.year -->
<g id="edge8" class="edge">
<title>medicare.ps.year_parent&#45;&gt;medicare.ps.year</title>
<path fill="none" stroke="goldenrod" stroke-width="6" d="M2137.12,-880.63C2137.12,-864.42 2137.12,-846.25 2137.12,-828.71"/>
<polygon fill="goldenrod" stroke="goldenrod" stroke-width="6" points="2142.38,-828.98 2137.13,-818.98 2131.88,-828.98 2142.38,-828.98"/>
</g>
<!-- medicare.enrollments.fips2 -->
<g id="node10" class="node">
<title>medicare.enrollments.fips2</title>
<g id="a_node10"><a xlink:href="../medicare.enrollments/fips2.html" xlink:title="&lt;TABLE&gt;" target="_blank">
<polygon fill="none" stroke="black" points="1361.25,-189.25 1177,-189.25 1177,-130.25 1361.25,-130.25 1361.25,-189.25"/>
<text text-anchor="start" x="1190" y="-167.95" font-family="Times,serif" font-weight="bold" font-size="14.00">medicare.enrollments.fips2</text>
<polygon fill="none" stroke="black" points="1188,-137.25 1188,-159.75 1350.25,-159.75 1350.25,-137.25 1188,-137.25"/>
<text text-anchor="start" x="1191" y="-143.45" font-family="Times,serif" font-size="14.00">MAX(fips2)</text>
<polygon fill="none" stroke="black" points="1185,-134.25 1185,-185.25 1353.25,-185.25 1353.25,-134.25 1185,-134.25"/>
</a>
</g>
</g>
<!-- medicare.enrollments.fips2&#45;&gt;medicare.qc_enrl_bene.fips3_valdiated -->
<g id="edge9" class="edge">
<title>medicare.enrollments.fips2&#45;&gt;medicare.qc_enrl_bene.fips3_valdiated</title>
<path fill="none" stroke="black" d="M1349.24,-129.81C1403.89,-110.06 1476.4,-83.87 1533.22,-63.34"/>
<polygon fill="black" stroke="black" points="1534.36,-66.65 1542.57,-59.96 1531.98,-60.07 1534.36,-66.65"/>
<text text-anchor="middle" x="1540.25" y="-72.45" font-family="Times,serif" font-size="14.00">	join natural</text>
</g>
<!-- medicare._enrollments.fips2 -->
<g id="node11" class="node">
<title>medicare._enrollments.fips2</title>
<g id="a_node11"><a xlink:href="../medicare._enrollments/fips2.html" xlink:title="&lt;TABLE&gt;" target="_blank">
<polygon fill="none" stroke="black" points="1208.62,-353.75 1017.62,-353.75 1017.62,-294.75 1208.62,-294.75 1208.62,-353.75"/>
<text text-anchor="start" x="1030.62" y="-332.45" font-family="Times,serif" font-weight="bold" font-size="14.00">medicare._enrollments.fips2</text>
<polygon fill="none" stroke="black" points="1028.62,-301.75 1028.62,-324.25 1197.62,-324.25 1197.62,-301.75 1028.62,-301.75"/>
<text text-anchor="start" x="1031.62" y="-307.95" font-family="Times,serif" font-size="14.00">MAX(fips2)</text>
<polygon fill="none" stroke="black" points="1025.62,-298.75 1025.62,-349.75 1200.62,-349.75 1200.62,-298.75 1025.62,-298.75"/>
</a>
</g>
</g>
<!-- medicare._enrollments.fips2&#45;&gt;medicare.enrollments.fips2 -->
<g id="edge10" class="edge">
<title>medicare._enrollments.fips2&#45;&gt;medicare.enrollments.fips2</title>
<path fill="none" stroke="black" d="M1140.66,-294.57C1166.56,-267.59 1205.48,-227.05 1233.69,-197.66"/>
<polygon fill="black" stroke="black" points="1235.9,-200.42 1240.3,-190.78 1230.85,-195.57 1235.9,-200.42"/>
<text text-anchor="middle" x="1210.62" y="-236.95" font-family="Times,serif" font-size="14.00">Copied</text>
</g>
<!-- medicare._ps.fips2&#45;&gt;medicare._enrollments.fips2 -->
<g id="edge11" class="edge">
<title>medicare._ps.fips2&#45;&gt;medicare._enrollments.fips2</title>
<path fill="none" stroke="blue" stroke-width="5" d="M378.02,-439.8C393.09,-434.28 408.27,-429.24 423.12,-425 622.27,-368.17 863.44,-342.75 1001.5,-332.13"/>
<polygon fill="blue" stroke="blue" stroke-width="5" points="1001.54,-336.52 1011.19,-331.41 1000.89,-327.79 1001.54,-336.52"/>
<text text-anchor="middle" x="608.5" y="-401.45" font-family="Times,serif" font-size="14.00">	 &#160;Aggregated On bene_id, year, state</text>
</g>
<!-- medicare.enrollments.zip -->
<g id="node13" class="node">
<title>medicare.enrollments.zip</title>
<g id="a_node13"><a xlink:href="../medicare.enrollments/zip.html" xlink:title="&lt;TABLE&gt;" target="_blank">
<polygon fill="none" stroke="black" points="2296.75,-223.5 2099.5,-223.5 2099.5,-96 2296.75,-96 2296.75,-223.5"/>
<text text-anchor="start" x="2124.25" y="-202.2" font-family="Times,serif" font-weight="bold" font-size="14.00">medicare.enrollments.zip</text>
<text text-anchor="start" x="2135.5" y="-155.7" font-family="Times,serif" font-size="14.00">Zip Code of Residence</text>
<polygon fill="none" stroke="black" points="2110.5,-103 2110.5,-125.5 2285.75,-125.5 2285.75,-103 2110.5,-103"/>
<text text-anchor="start" x="2113.5" y="-109.2" font-family="Times,serif" font-size="14.00">MAX(zip)</text>
<polygon fill="none" stroke="black" points="2107.5,-100 2107.5,-219.5 2288.75,-219.5 2288.75,-100 2107.5,-100"/>
</a>
</g>
</g>
<!-- medicare.enrollments.zip&#45;&gt;medicare.qc_enrl_bene.fips3_valdiated -->
<g id="edge13" class="edge">
<title>medicare.enrollments.zip&#45;&gt;medicare.qc_enrl_bene.fips3_valdiated</title>
<path fill="none" stroke="black" d="M2099.12,-136.63C2006.99,-116.04 1868.71,-85.15 1765.06,-61.99"/>
<polygon fill="black" stroke="black" points="1765.88,-58.59 1755.35,-59.82 1764.35,-65.42 1765.88,-58.59"/>
<text text-anchor="middle" x="1881.25" y="-72.45" font-family="Times,serif" font-size="14.00">	join natural</text>
</g>
<!-- medicare._enrollments.zip -->
<g id="node14" class="node">
<title>medicare._enrollments.zip</title>
<g id="a_node14"><a xlink:href="../medicare._enrollments/zip.html" xlink:title="&lt;TABLE&gt;" target="_blank">
<polygon fill="none" stroke="black" points="2662.75,-388 2465.5,-388 2465.5,-260.5 2662.75,-260.5 2662.75,-388"/>
<text text-anchor="start" x="2486.88" y="-366.7" font-family="Times,serif" font-weight="bold" font-size="14.00">medicare._enrollments.zip</text>
<text text-anchor="start" x="2501.5" y="-320.2" font-family="Times,serif" font-size="14.00">Zip Code of Residence</text>
<polygon fill="none" stroke="black" points="2476.5,-267.5 2476.5,-290 2651.75,-290 2651.75,-267.5 2476.5,-267.5"/>
<text text-anchor="start" x="2479.5" y="-273.7" font-family="Times,serif" font-size="14.00">MAX(zip)</text>
<polygon fill="none" stroke="black" points="2473.5,-264.5 2473.5,-384 2654.75,-384 2654.75,-264.5 2473.5,-264.5"/>
</a>
</g>
</g>
<!-- medicare._enrollments.zip&#45;&gt;medicare.enrollments.zip -->
<g id="edge14" class="edge">
<title>medicare._enrollments.zip&#45;&gt;medicare.enrollments.zip</title>
<path fill="none" stroke="black" d="M2465.08,-279.28C2416.36,-257.64 2357.5,-231.51 2307.46,-209.29"/>
<polygon fill="black" stroke="black" points="2309.19,-206.23 2298.63,-205.37 2306.35,-212.63 2309.19,-206.23"/>
<text text-anchor="middle" x="2400.62" y="-236.95" font-family="Times,serif" font-size="14.00">Copied</text>
</g>
<!-- medicare._ps.zip -->
<g id="node15" class="node">
<title>medicare._ps.zip</title>
<g id="a_node15"><a xlink:href="../medicare._ps/zip.html" xlink:title="&lt;TABLE&gt;" target="_blank">
<polygon fill="none" stroke="black" points="3749.62,-616 2834.62,-616 2834.62,-425 3749.62,-425 3749.62,-616"/>
<text text-anchor="start" x="2922" y="-594.7" font-family="Times,serif" font-weight="bold" font-size="14.00">medicare._ps.zip</text>
<text text-anchor="start" x="2870.62" y="-548.7" font-family="Times,serif" font-size="14.00">US Postal ZIP code, the first 5 digits</text>
<text text-anchor="start" x="2959.88" y="-532.2" font-family="Times,serif" font-size="14.00">of it</text>
<polygon fill="none" stroke="black" points="2845.62,-480 2845.62,-502 3096.62,-502 3096.62,-480 2845.62,-480"/>
<text text-anchor="start" x="2848.62" y="-485.7" font-family="Times,serif" font-size="14.00">numeric →</text>
<polygon fill="none" stroke="black" points="3098.62,-480 3098.62,-502 3738.62,-502 3738.62,-480 3098.62,-480"/>
<text text-anchor="start" x="3101.38" y="-485.7" font-family="Times,serif" font-size="14.00">(CASE WHEN {column_name} &lt; 100000 THEN {column_name}::int ELSE ({column_name}/10000)::INT END)</text>
<polygon fill="none" stroke="black" points="2845.62,-456 2845.62,-478 3096.62,-478 3096.62,-456 2845.62,-456"/>
<text text-anchor="start" x="2848.62" y="-461.7" font-family="Times,serif" font-size="14.00">character varying →</text>
<polygon fill="none" stroke="black" points="3098.62,-456 3098.62,-478 3738.62,-478 3738.62,-456 3098.62,-456"/>
<text text-anchor="start" x="3101.62" y="-461.7" font-family="Times,serif" font-size="14.00">SUBSTRING({column_name} FROM 1 FOR 5)::INT</text>
<polygon fill="none" stroke="black" points="2845.62,-432 2845.62,-454 3096.62,-454 3096.62,-432 2845.62,-432"/>
<text text-anchor="start" x="2848.62" y="-437.7" font-family="Times,serif" font-size="14.00">integer →</text>
<polygon fill="none" stroke="black" points="3098.62,-432 3098.62,-454 3738.62,-454 3738.62,-432 3098.62,-432"/>
<text text-anchor="start" x="3101.62" y="-437.7" font-family="Times,serif" font-size="14.00">{column_name}::INT</text>
<polygon fill="none" stroke="black" points="2842.62,-429 2842.62,-612 3741.62,-612 3741.62,-429 2842.62,-429"/>
</a>
</g>
</g>
<!-- medicare._ps.zip&#45;&gt;medicare._enrollments.zip -->
<g id="edge15" class="edge">
<title>medicare._ps.zip&#45;&gt;medicare._enrollments.zip</title>
<path fill="none" stroke="blue" stroke-width="5" d="M2936.12,-424.51C2842.76,-399.6 2748.69,-374.5 2678.51,-355.77"/>
<polygon fill="blue" stroke="blue" stroke-width="5" points="2679.82,-351.59 2669.03,-353.24 2677.56,-360.05 2679.82,-351.59"/>
<text text-anchor="middle" x="2983.5" y="-401.45" font-family="Times,serif" font-size="14.00">	 &#160;Aggregated On bene_id, year, state</text>
</g>
<!-- medicare.ps.zip -->
<g id="node16" class="node">
<title>medicare.ps.zip</title>
<g id="a_node16"><a xlink:href="../medicare.ps/zip.html" xlink:title="&lt;TABLE&gt;" target="_blank">
<polygon fill="none" stroke="black" points="3749.62,-844 2834.62,-844 2834.62,-653 3749.62,-653 3749.62,-844"/>
<text text-anchor="start" x="2925.38" y="-822.7" font-family="Times,serif" font-weight="bold" font-size="14.00">medicare.ps.zip</text>
<text text-anchor="start" x="2870.62" y="-776.7" font-family="Times,serif" font-size="14.00">US Postal ZIP code, the first 5 digits</text>
<text text-anchor="start" x="2959.88" y="-760.2" font-family="Times,serif" font-size="14.00">of it</text>
<polygon fill="none" stroke="black" points="2845.62,-708 2845.62,-730 3096.62,-730 3096.62,-708 2845.62,-708"/>
<text text-anchor="start" x="2848.62" y="-713.7" font-family="Times,serif" font-size="14.00">numeric →</text>
<polygon fill="none" stroke="black" points="3098.62,-708 3098.62,-730 3738.62,-730 3738.62,-708 3098.62,-708"/>
<text text-anchor="start" x="3101.38" y="-713.7" font-family="Times,serif" font-size="14.00">(CASE WHEN {column_name} &lt; 100000 THEN {column_name}::int ELSE ({column_name}/10000)::INT END)</text>
<polygon fill="none" stroke="black" points="2845.62,-684 2845.62,-706 3096.62,-706 3096.62,-684 2845.62,-684"/>
<text text-anchor="start" x="2848.62" y="-689.7" font-family="Times,serif" font-size="14.00">character varying →</text>
<polygon fill="none" stroke="black" points="3098.62,-684 3098.62,-706 3738.62,-706 3738.62,-684 3098.62,-684"/>
<text text-anchor="start" x="3101.62" y="-689.7" font-family="Times,serif" font-size="14.00">SUBSTRING({column_name} FROM 1 FOR 5)::INT</text>
<polygon fill="none" stroke="black" points="2845.62,-660 2845.62,-682 3096.62,-682 3096.62,-660 2845.62,-660"/>
<text text-anchor="start" x="2848.62" y="-665.7" font-family="Times,serif" font-size="14.00">integer →</text>
<polygon fill="none" stroke="black" points="3098.62,-660 3098.62,-682 3738.62,-682 3738.62,-660 3098.62,-660"/>
<text text-anchor="start" x="3101.62" y="-665.7" font-family="Times,serif" font-size="14.00">{column_name}::INT</text>
<polygon fill="none" stroke="black" points="2842.62,-657 2842.62,-840 3741.62,-840 3741.62,-657 2842.62,-657"/>
</a>
</g>
</g>
<!-- medicare.ps.zip&#45;&gt;medicare._ps.zip -->
<g id="edge16" class="edge">
<title>medicare.ps.zip&#45;&gt;medicare._ps.zip</title>
<path fill="none" stroke="black" d="M3292.12,-652.64C3292.12,-644.42 3292.12,-636.06 3292.12,-627.76"/>
<polygon fill="black" stroke="black" points="3295.63,-628 3292.13,-618 3288.63,-628 3295.63,-628"/>
<text text-anchor="middle" x="3311.62" y="-629.45" font-family="Times,serif" font-size="14.00">Copied</text>
</g>
<!-- medicare.ps.zip_parent -->
<g id="node17" class="node">
<title>medicare.ps.zip_parent</title>
<g id="a_node17"><a xlink:href="../medicare.ps/zip.html" xlink:title="8 incoming links (columns)" target="_blank">
<path fill="yellow" stroke="black" d="M3400.12,-979.18C3400.12,-984.6 3351.72,-989 3292.12,-989 3232.53,-989 3184.12,-984.6 3184.12,-979.18 3184.12,-979.18 3184.12,-890.82 3184.12,-890.82 3184.12,-885.4 3232.53,-881 3292.12,-881 3351.72,-881 3400.12,-885.4 3400.12,-890.82 3400.12,-890.82 3400.12,-979.18 3400.12,-979.18"/>
<path fill="none" stroke="black" d="M3400.12,-979.18C3400.12,-973.76 3351.72,-969.36 3292.12,-969.36 3232.53,-969.36 3184.12,-973.76 3184.12,-979.18"/>
<text text-anchor="middle" x="3292.12" y="-929.95" font-family="Times,serif" font-size="14.00">8 incoming links (columns)</text>
</a>
</g>
</g>
<!-- medicare.ps.zip_parent&#45;&gt;medicare.ps.zip -->
<g id="edge17" class="edge">
<title>medicare.ps.zip_parent&#45;&gt;medicare.ps.zip</title>
<path fill="none" stroke="goldenrod" stroke-width="6" d="M3292.12,-880.63C3292.12,-874.23 3292.12,-867.52 3292.12,-860.66"/>
<polygon fill="goldenrod" stroke="goldenrod" stroke-width="6" points="3297.38,-860.93 3292.13,-850.93 3286.88,-860.93 3297.38,-860.93"/>
</g>
</g>
</svg>
