<?xml version="1.0" encoding="UTF-8" standalone="no"?>
<!DOCTYPE svg PUBLIC "-//W3C//DTD SVG 1.1//EN"
 "http://www.w3.org/Graphics/SVG/1.1/DTD/svg11.dtd">
<!-- Generated by graphviz version 10.0.1 (20240210.2158)
 -->
<!-- Pages: 1 -->
<svg width="2393pt" height="698pt"
 viewBox="0.00 0.00 2392.50 697.50" xmlns="http://www.w3.org/2000/svg" xmlns:xlink="http://www.w3.org/1999/xlink">
<g id="graph0" class="graph" transform="scale(1 1) rotate(0) translate(4 693.5)">
<polygon fill="white" stroke="none" points="-4,4 -4,-693.5 2388.5,-693.5 2388.5,4 -4,4"/>
<!-- medicare.qc_enrl_bene.fips3 -->
<g id="node1" class="node">
<title>medicare.qc_enrl_bene.fips3</title>
<g id="a_node1"><a xlink:href="../medicare.qc_enrl_bene/fips3.html" xlink:title="&lt;TABLE&gt;" target="_blank">
<polygon fill="none" stroke="black" points="1288.5,-59 1096,-59 1096,0 1288.5,0 1288.5,-59"/>
<text text-anchor="start" x="1109" y="-37.7" font-family="Times,serif" font-weight="bold" font-size="14.00">medicare.qc_enrl_bene.fips3</text>
<polygon fill="none" stroke="black" points="1107,-7 1107,-29.5 1277.5,-29.5 1277.5,-7 1107,-7"/>
<text text-anchor="start" x="1110" y="-13.2" font-family="Times,serif" font-size="14.00">MAX(fips3)</text>
<polygon fill="none" stroke="black" points="1104,-4 1104,-55 1280.5,-55 1280.5,-4 1104,-4"/>
</a>
</g>
</g>
<!-- medicare.enrollments.fips3 -->
<g id="node2" class="node">
<title>medicare.enrollments.fips3</title>
<g id="a_node2"><a xlink:href="../medicare.enrollments/fips3.html" xlink:title="&lt;TABLE&gt;" target="_blank">
<polygon fill="none" stroke="black" points="1284.38,-155 1100.12,-155 1100.12,-96 1284.38,-96 1284.38,-155"/>
<text text-anchor="start" x="1113.12" y="-133.7" font-family="Times,serif" font-weight="bold" font-size="14.00">medicare.enrollments.fips3</text>
<polygon fill="none" stroke="black" points="1111.12,-103 1111.12,-125.5 1273.38,-125.5 1273.38,-103 1111.12,-103"/>
<text text-anchor="start" x="1114.12" y="-109.2" font-family="Times,serif" font-size="14.00">MAX(fips3)</text>
<polygon fill="none" stroke="black" points="1108.12,-100 1108.12,-151 1276.38,-151 1276.38,-100 1108.12,-100"/>
</a>
</g>
</g>
<!-- medicare.enrollments.fips3&#45;&gt;medicare.qc_enrl_bene.fips3 -->
<g id="edge1" class="edge">
<title>medicare.enrollments.fips3&#45;&gt;medicare.qc_enrl_bene.fips3</title>
<path fill="none" stroke="black" d="M1192.25,-95.53C1192.25,-87.68 1192.25,-79.05 1192.25,-70.7"/>
<polygon fill="black" stroke="black" points="1195.75,-70.73 1192.25,-60.73 1188.75,-70.73 1195.75,-70.73"/>
<text text-anchor="middle" x="1238.38" y="-72.45" font-family="Times,serif" font-size="14.00">	join natural</text>
</g>
<!-- medicare._enrollments.fips3 -->
<g id="node3" class="node">
<title>medicare._enrollments.fips3</title>
<g id="a_node3"><a xlink:href="../medicare._enrollments/fips3.html" xlink:title="&lt;TABLE&gt;" target="_blank">
<polygon fill="none" stroke="black" points="1287.75,-251 1096.75,-251 1096.75,-192 1287.75,-192 1287.75,-251"/>
<text text-anchor="start" x="1109.75" y="-229.7" font-family="Times,serif" font-weight="bold" font-size="14.00">medicare._enrollments.fips3</text>
<polygon fill="none" stroke="black" points="1107.75,-199 1107.75,-221.5 1276.75,-221.5 1276.75,-199 1107.75,-199"/>
<text text-anchor="start" x="1110.75" y="-205.2" font-family="Times,serif" font-size="14.00">MAX(fips3)</text>
<polygon fill="none" stroke="black" points="1104.75,-196 1104.75,-247 1279.75,-247 1279.75,-196 1104.75,-196"/>
</a>
</g>
</g>
<!-- medicare._enrollments.fips3&#45;&gt;medicare.enrollments.fips3 -->
<g id="edge2" class="edge">
<title>medicare._enrollments.fips3&#45;&gt;medicare.enrollments.fips3</title>
<path fill="none" stroke="black" d="M1192.25,-191.53C1192.25,-183.68 1192.25,-175.05 1192.25,-166.7"/>
<polygon fill="black" stroke="black" points="1195.75,-166.73 1192.25,-156.73 1188.75,-166.73 1195.75,-166.73"/>
<text text-anchor="middle" x="1211.75" y="-168.45" font-family="Times,serif" font-size="14.00">Copied</text>
</g>
<!-- medicare._ps.fips3 -->
<g id="node4" class="node">
<title>medicare._ps.fips3</title>
<g id="a_node4"><a xlink:href="../medicare._ps/fips3.html" xlink:title="&lt;TABLE&gt;" target="_blank">
<polygon fill="none" stroke="black" points="2384.5,-347 0,-347 0,-288 2384.5,-288 2384.5,-347"/>
<text text-anchor="start" x="1137.88" y="-325.7" font-family="Times,serif" font-weight="bold" font-size="14.00">medicare._ps.fips3</text>
<polygon fill="none" stroke="black" points="11,-295 11,-317.5 2373.5,-317.5 2373.5,-295 11,-295"/>
<text text-anchor="start" x="14" y="-301.2" font-family="Times,serif" font-size="14.00">CASE WHEN ssa3 is NOT NULL THEN &#160;CASE WHEN year &gt; 2010 THEN &#160;&#160;&#160;&#160;&#160;(SELECT fips3 from public.ssa as s where ps.ssa3 = s.ssa3 and ps.year = s.year and ps.fips2 = s.fips2 ORDER BY 1 DESC LIMIT 1) &#160;&#160;&#160;ELSE &#160;&#160;&#160;&#160;&#160;(SELECT fips3 from public.ssa as s where ps.ssa3 = s.ssa3 and 2003 = s.year and ps.fips2 = s.fips2 ORDER BY 1 DESC LIMIT 1) &#160;ENDELSE &#160;(SELECT public.zip_to_fips3(year, zip))END AS fips3</text>
<polygon fill="none" stroke="black" points="8,-292 8,-343 2376.5,-343 2376.5,-292 8,-292"/>
</a>
</g>
</g>
<!-- medicare._ps.fips3&#45;&gt;medicare._enrollments.fips3 -->
<g id="edge3" class="edge">
<title>medicare._ps.fips3&#45;&gt;medicare._enrollments.fips3</title>
<path fill="none" stroke="blue" stroke-width="5" d="M1192.25,-287.53C1192.25,-281.13 1192.25,-274.2 1192.25,-267.33"/>
<polygon fill="blue" stroke="blue" stroke-width="5" points="1196.63,-267.45 1192.25,-257.45 1187.88,-267.45 1196.63,-267.45"/>
<text text-anchor="middle" x="1306.62" y="-264.45" font-family="Times,serif" font-size="14.00">	 &#160;Aggregated On bene_id, year, state</text>
</g>
<!-- medicare.ps.fips2 -->
<g id="node5" class="node">
<title>medicare.ps.fips2</title>
<g id="a_node5"><a xlink:href="../medicare.ps/fips2.html" xlink:title="&lt;TABLE&gt;" target="_blank">
<polygon fill="none" stroke="black" points="615.38,-544.5 201.12,-544.5 201.12,-384 615.38,-384 615.38,-544.5"/>
<text text-anchor="start" x="357.25" y="-523.2" font-family="Times,serif" font-weight="bold" font-size="14.00">medicare.ps.fips2</text>
<text text-anchor="start" x="248.75" y="-476.7" font-family="Times,serif" font-size="14.00">2 digit state FIPS, see https://en.wikip</text>
<text text-anchor="start" x="237.12" y="-460.2" font-family="Times,serif" font-size="14.00">edia.org/wiki/Federal_Information_Proces</text>
<text text-anchor="start" x="282.12" y="-443.7" font-family="Times,serif" font-size="14.00">sing_Standard_state_code</text>
<polygon fill="none" stroke="black" points="212.12,-391 212.12,-413.5 604.38,-413.5 604.38,-391 212.12,-391"/>
<text text-anchor="start" x="215.12" y="-397.2" font-family="Times,serif" font-size="14.00">(SELECT fips2 FROM public.us_states as s WHERE s.ssa2 = &quot;state&quot;)</text>
<polygon fill="none" stroke="black" points="209.12,-388 209.12,-540.5 607.38,-540.5 607.38,-388 209.12,-388"/>
</a>
</g>
</g>
<!-- medicare.ps.fips2&#45;&gt;medicare._ps.fips3 -->
<g id="edge4" class="edge">
<title>medicare.ps.fips2&#45;&gt;medicare._ps.fips3</title>
<path fill="none" stroke="black" d="M615.76,-386.08C618.6,-385.36 621.43,-384.67 624.25,-384 686.1,-369.31 752.56,-357.87 817.44,-348.97"/>
<polygon fill="black" stroke="black" points="817.74,-352.46 827.18,-347.65 816.8,-345.52 817.74,-352.46"/>
<text text-anchor="middle" x="754.88" y="-360.45" font-family="Times,serif" font-size="14.00"> &#160;Transformed</text>
</g>
<!-- medicare.ps.year -->
<g id="node6" class="node">
<title>medicare.ps.year</title>
<g id="a_node6"><a xlink:href="../medicare.ps/year.html" xlink:title="&lt;TABLE&gt;" target="_blank">
<polygon fill="none" stroke="black" points="1751.12,-528 633.38,-528 633.38,-400.5 1751.12,-400.5 1751.12,-528"/>
<text text-anchor="start" x="1142.38" y="-506.7" font-family="Times,serif" font-weight="bold" font-size="14.00">medicare.ps.year</text>
<text text-anchor="start" x="669.38" y="-460.2" font-family="Times,serif" font-size="14.00">Beneficiary Enrollment Reference Year</text>
<polygon fill="none" stroke="black" points="644.38,-407.5 644.38,-430 1740.12,-430 1740.12,-407.5 644.38,-407.5"/>
<text text-anchor="start" x="647.38" y="-413.7" font-family="Times,serif" font-size="14.00">(CASE WHEN &quot;year&quot;::int &lt; 20 THEN (2000 + &quot;year&quot;::int) WHEN (20 &lt; &quot;year&quot;::int AND &quot;year&quot;::int &lt; 100) THEN (1900 + &quot;year&quot;::int) WHEN &quot;year&quot; IS NULL THEN 2000 ELSE &quot;year&quot;::int END)</text>
<polygon fill="none" stroke="black" points="641.38,-404.5 641.38,-524 1743.12,-524 1743.12,-404.5 641.38,-404.5"/>
</a>
</g>
</g>
<!-- medicare.ps.year&#45;&gt;medicare._ps.fips3 -->
<g id="edge5" class="edge">
<title>medicare.ps.year&#45;&gt;medicare._ps.fips3</title>
<path fill="none" stroke="black" d="M1192.25,-400.18C1192.25,-386.07 1192.25,-371.47 1192.25,-358.59"/>
<polygon fill="black" stroke="black" points="1195.75,-358.82 1192.25,-348.82 1188.75,-358.82 1195.75,-358.82"/>
<text text-anchor="middle" x="1230.88" y="-360.45" font-family="Times,serif" font-size="14.00"> &#160;Transformed</text>
</g>
<!-- medicare.ps.year_parent -->
<g id="node7" class="node">
<title>medicare.ps.year_parent</title>
<g id="a_node7"><a xlink:href="../medicare.ps/year.html" xlink:title="8 incoming links (columns)" target="_blank">
<path fill="yellow" stroke="black" d="M1300.25,-679.68C1300.25,-685.1 1251.84,-689.5 1192.25,-689.5 1132.66,-689.5 1084.25,-685.1 1084.25,-679.68 1084.25,-679.68 1084.25,-591.32 1084.25,-591.32 1084.25,-585.9 1132.66,-581.5 1192.25,-581.5 1251.84,-581.5 1300.25,-585.9 1300.25,-591.32 1300.25,-591.32 1300.25,-679.68 1300.25,-679.68"/>
<path fill="none" stroke="black" d="M1300.25,-679.68C1300.25,-674.26 1251.84,-669.86 1192.25,-669.86 1132.66,-669.86 1084.25,-674.26 1084.25,-679.68"/>
<text text-anchor="middle" x="1192.25" y="-630.45" font-family="Times,serif" font-size="14.00">8 incoming links (columns)</text>
</a>
</g>
</g>
<!-- medicare.ps.year_parent&#45;&gt;medicare.ps.year -->
<g id="edge6" class="edge">
<title>medicare.ps.year_parent&#45;&gt;medicare.ps.year</title>
<path fill="none" stroke="goldenrod" stroke-width="6" d="M1192.25,-581.41C1192.25,-569.68 1192.25,-557.01 1192.25,-544.5"/>
<polygon fill="goldenrod" stroke="goldenrod" stroke-width="6" points="1197.5,-544.68 1192.25,-534.68 1187,-544.68 1197.5,-544.68"/>
</g>
<!-- medicare.ps.ssa3 -->
<g id="node8" class="node">
<title>medicare.ps.ssa3</title>
<g id="a_node8"><a xlink:href="../medicare.ps/ssa3.html" xlink:title="&lt;TABLE&gt;" target="_blank">
<polygon fill="none" stroke="black" points="2047,-524 1769.5,-524 1769.5,-404.5 2047,-404.5 2047,-524"/>
<text text-anchor="start" x="1859.12" y="-502.7" font-family="Times,serif" font-weight="bold" font-size="14.00">medicare.ps.ssa3</text>
<text text-anchor="start" x="1805.5" y="-456.2" font-family="Times,serif" font-size="14.00">Social Security Administration (SSA)</text>
<text text-anchor="start" x="1835.88" y="-439.7" font-family="Times,serif" font-size="14.00">three digit code for county</text>
<polygon fill="none" stroke="black" points="1777.5,-408.5 1777.5,-520 2039,-520 2039,-408.5 1777.5,-408.5"/>
</a>
</g>
</g>
<!-- medicare.ps.ssa3&#45;&gt;medicare._ps.fips3 -->
<g id="edge7" class="edge">
<title>medicare.ps.ssa3&#45;&gt;medicare._ps.fips3</title>
<path fill="none" stroke="black" d="M1809.77,-404.01C1793.65,-396.23 1776.8,-389.18 1760.25,-384 1714.23,-369.6 1665.22,-358.31 1616.02,-349.46"/>
<polygon fill="black" stroke="black" points="1616.8,-346.05 1606.35,-347.76 1615.59,-352.94 1616.8,-346.05"/>
<text text-anchor="middle" x="1731.88" y="-360.45" font-family="Times,serif" font-size="14.00"> &#160;Transformed</text>
</g>
<!-- medicare.ps.ssa3_parent -->
<g id="node9" class="node">
<title>medicare.ps.ssa3_parent</title>
<g id="a_node9"><a xlink:href="../medicare.ps/ssa3.html" xlink:title="8 incoming links (columns)" target="_blank">
<path fill="yellow" stroke="black" d="M2016.25,-679.68C2016.25,-685.1 1967.84,-689.5 1908.25,-689.5 1848.66,-689.5 1800.25,-685.1 1800.25,-679.68 1800.25,-679.68 1800.25,-591.32 1800.25,-591.32 1800.25,-585.9 1848.66,-581.5 1908.25,-581.5 1967.84,-581.5 2016.25,-585.9 2016.25,-591.32 2016.25,-591.32 2016.25,-679.68 2016.25,-679.68"/>
<path fill="none" stroke="black" d="M2016.25,-679.68C2016.25,-674.26 1967.84,-669.86 1908.25,-669.86 1848.66,-669.86 1800.25,-674.26 1800.25,-679.68"/>
<text text-anchor="middle" x="1908.25" y="-630.45" font-family="Times,serif" font-size="14.00">8 incoming links (columns)</text>
</a>
</g>
</g>
<!-- medicare.ps.ssa3_parent&#45;&gt;medicare.ps.ssa3 -->
<g id="edge8" class="edge">
<title>medicare.ps.ssa3_parent&#45;&gt;medicare.ps.ssa3</title>
<path fill="none" stroke="goldenrod" stroke-width="6" d="M1908.25,-581.41C1908.25,-568.38 1908.25,-554.19 1908.25,-540.34"/>
<polygon fill="goldenrod" stroke="goldenrod" stroke-width="6" points="1913.5,-540.79 1908.25,-530.79 1903,-540.79 1913.5,-540.79"/>
</g>
</g>
</svg>
