<?xml version="1.0" encoding="UTF-8" standalone="no"?>
<!DOCTYPE svg PUBLIC "-//W3C//DTD SVG 1.1//EN"
 "http://www.w3.org/Graphics/SVG/1.1/DTD/svg11.dtd">
<!-- Generated by graphviz version 10.0.1 (20240210.2158)
 -->
<!-- Pages: 1 -->
<svg width="2543pt" height="506pt"
 viewBox="0.00 0.00 2543.12 505.50" xmlns="http://www.w3.org/2000/svg" xmlns:xlink="http://www.w3.org/1999/xlink">
<g id="graph0" class="graph" transform="scale(1 1) rotate(0) translate(4 501.5)">
<polygon fill="white" stroke="none" points="-4,4 -4,-501.5 2539.12,-501.5 2539.12,4 -4,4"/>
<!-- medicare._enrollments.fips3 -->
<g id="node1" class="node">
<title>medicare._enrollments.fips3</title>
<g id="a_node1"><a xlink:href="../medicare._enrollments/fips3.html" xlink:title="&lt;TABLE&gt;" target="_blank">
<polygon fill="none" stroke="black" points="1287.75,-59 1096.75,-59 1096.75,0 1287.75,0 1287.75,-59"/>
<text text-anchor="start" x="1109.75" y="-37.7" font-family="Times,serif" font-weight="bold" font-size="14.00">medicare._enrollments.fips3</text>
<polygon fill="none" stroke="black" points="1107.75,-7 1107.75,-29.5 1276.75,-29.5 1276.75,-7 1107.75,-7"/>
<text text-anchor="start" x="1110.75" y="-13.2" font-family="Times,serif" font-size="14.00">MAX(fips3)</text>
<polygon fill="none" stroke="black" points="1104.75,-4 1104.75,-55 1279.75,-55 1279.75,-4 1104.75,-4"/>
</a>
</g>
</g>
<!-- medicare._ps.fips3 -->
<g id="node2" class="node">
<title>medicare._ps.fips3</title>
<g id="a_node2"><a xlink:href="../medicare._ps/fips3.html" xlink:title="&lt;TABLE&gt;" target="_blank">
<polygon fill="none" stroke="black" points="2384.5,-155 0,-155 0,-96 2384.5,-96 2384.5,-155"/>
<text text-anchor="start" x="1137.88" y="-133.7" font-family="Times,serif" font-weight="bold" font-size="14.00">medicare._ps.fips3</text>
<polygon fill="none" stroke="black" points="11,-103 11,-125.5 2373.5,-125.5 2373.5,-103 11,-103"/>
<text text-anchor="start" x="14" y="-109.2" font-family="Times,serif" font-size="14.00">CASE WHEN ssa3 is NOT NULL THEN &#160;CASE WHEN year &gt; 2010 THEN &#160;&#160;&#160;&#160;&#160;(SELECT fips3 from public.ssa as s where ps.ssa3 = s.ssa3 and ps.year = s.year and ps.fips2 = s.fips2 ORDER BY 1 DESC LIMIT 1) &#160;&#160;&#160;ELSE &#160;&#160;&#160;&#160;&#160;(SELECT fips3 from public.ssa as s where ps.ssa3 = s.ssa3 and 2003 = s.year and ps.fips2 = s.fips2 ORDER BY 1 DESC LIMIT 1) &#160;ENDELSE &#160;(SELECT public.zip_to_fips3(year, zip))END AS fips3</text>
<polygon fill="none" stroke="black" points="8,-100 8,-151 2376.5,-151 2376.5,-100 8,-100"/>
</a>
</g>
</g>
<!-- medicare._ps.fips3&#45;&gt;medicare._enrollments.fips3 -->
<g id="edge1" class="edge">
<title>medicare._ps.fips3&#45;&gt;medicare._enrollments.fips3</title>
<path fill="none" stroke="blue" stroke-width="5" d="M1192.25,-95.53C1192.25,-89.13 1192.25,-82.2 1192.25,-75.33"/>
<polygon fill="blue" stroke="blue" stroke-width="5" points="1196.63,-75.45 1192.25,-65.45 1187.88,-75.45 1196.63,-75.45"/>
<text text-anchor="middle" x="1306.62" y="-72.45" font-family="Times,serif" font-size="14.00">	 &#160;Aggregated On bene_id, year, state</text>
</g>
<!-- medicare.ps.ssa3 -->
<g id="node3" class="node">
<title>medicare.ps.ssa3</title>
<g id="a_node3"><a xlink:href="../medicare.ps/ssa3.html" xlink:title="&lt;TABLE&gt;" target="_blank">
<polygon fill="none" stroke="black" points="967,-332 689.5,-332 689.5,-212.5 967,-212.5 967,-332"/>
<text text-anchor="start" x="779.12" y="-310.7" font-family="Times,serif" font-weight="bold" font-size="14.00">medicare.ps.ssa3</text>
<text text-anchor="start" x="725.5" y="-264.2" font-family="Times,serif" font-size="14.00">Social Security Administration (SSA)</text>
<text text-anchor="start" x="755.88" y="-247.7" font-family="Times,serif" font-size="14.00">three digit code for county</text>
<polygon fill="none" stroke="black" points="697.5,-216.5 697.5,-328 959,-328 959,-216.5 697.5,-216.5"/>
</a>
</g>
</g>
<!-- medicare.ps.ssa3&#45;&gt;medicare._ps.fips3 -->
<g id="edge2" class="edge">
<title>medicare.ps.ssa3&#45;&gt;medicare._ps.fips3</title>
<path fill="none" stroke="black" d="M932.52,-212.15C947,-204.91 961.85,-197.97 976.25,-192 1006.28,-179.55 1039.54,-168.29 1070.77,-158.75"/>
<polygon fill="black" stroke="black" points="1071.71,-162.13 1080.27,-155.89 1069.69,-155.42 1071.71,-162.13"/>
<text text-anchor="middle" x="1064.88" y="-168.45" font-family="Times,serif" font-size="14.00"> &#160;Transformed</text>
</g>
<!-- medicare.ps.ssa3_parent -->
<g id="node4" class="node">
<title>medicare.ps.ssa3_parent</title>
<g id="a_node4"><a xlink:href="../medicare.ps/ssa3.html" xlink:title="8 incoming links (columns)" target="_blank">
<path fill="yellow" stroke="black" d="M936.25,-487.68C936.25,-493.1 887.84,-497.5 828.25,-497.5 768.66,-497.5 720.25,-493.1 720.25,-487.68 720.25,-487.68 720.25,-399.32 720.25,-399.32 720.25,-393.9 768.66,-389.5 828.25,-389.5 887.84,-389.5 936.25,-393.9 936.25,-399.32 936.25,-399.32 936.25,-487.68 936.25,-487.68"/>
<path fill="none" stroke="black" d="M936.25,-487.68C936.25,-482.26 887.84,-477.86 828.25,-477.86 768.66,-477.86 720.25,-482.26 720.25,-487.68"/>
<text text-anchor="middle" x="828.25" y="-438.45" font-family="Times,serif" font-size="14.00">8 incoming links (columns)</text>
</a>
</g>
</g>
<!-- medicare.ps.ssa3_parent&#45;&gt;medicare.ps.ssa3 -->
<g id="edge3" class="edge">
<title>medicare.ps.ssa3_parent&#45;&gt;medicare.ps.ssa3</title>
<path fill="none" stroke="goldenrod" stroke-width="6" d="M828.25,-389.41C828.25,-376.38 828.25,-362.19 828.25,-348.34"/>
<polygon fill="goldenrod" stroke="goldenrod" stroke-width="6" points="833.5,-348.79 828.25,-338.79 823,-348.79 833.5,-348.79"/>
</g>
<!-- medicare.ps.fips2 -->
<g id="node5" class="node">
<title>medicare.ps.fips2</title>
<g id="a_node5"><a xlink:href="../medicare.ps/fips2.html" xlink:title="&lt;TABLE&gt;" target="_blank">
<polygon fill="none" stroke="black" points="1399.38,-352.5 985.12,-352.5 985.12,-192 1399.38,-192 1399.38,-352.5"/>
<text text-anchor="start" x="1141.25" y="-331.2" font-family="Times,serif" font-weight="bold" font-size="14.00">medicare.ps.fips2</text>
<text text-anchor="start" x="1032.75" y="-284.7" font-family="Times,serif" font-size="14.00">2 digit state FIPS, see https://en.wikip</text>
<text text-anchor="start" x="1021.12" y="-268.2" font-family="Times,serif" font-size="14.00">edia.org/wiki/Federal_Information_Proces</text>
<text text-anchor="start" x="1066.12" y="-251.7" font-family="Times,serif" font-size="14.00">sing_Standard_state_code</text>
<polygon fill="none" stroke="black" points="996.12,-199 996.12,-221.5 1388.38,-221.5 1388.38,-199 996.12,-199"/>
<text text-anchor="start" x="999.12" y="-205.2" font-family="Times,serif" font-size="14.00">(SELECT fips2 FROM public.us_states as s WHERE s.ssa2 = &quot;state&quot;)</text>
<polygon fill="none" stroke="black" points="993.12,-196 993.12,-348.5 1391.38,-348.5 1391.38,-196 993.12,-196"/>
</a>
</g>
</g>
<!-- medicare.ps.fips2&#45;&gt;medicare._ps.fips3 -->
<g id="edge4" class="edge">
<title>medicare.ps.fips2&#45;&gt;medicare._ps.fips3</title>
<path fill="none" stroke="black" d="M1192.25,-191.68C1192.25,-183.04 1192.25,-174.54 1192.25,-166.68"/>
<polygon fill="black" stroke="black" points="1195.75,-166.81 1192.25,-156.81 1188.75,-166.81 1195.75,-166.81"/>
<text text-anchor="middle" x="1230.88" y="-168.45" font-family="Times,serif" font-size="14.00"> &#160;Transformed</text>
</g>
<!-- medicare.ps.year -->
<g id="node6" class="node">
<title>medicare.ps.year</title>
<g id="a_node6"><a xlink:href="../medicare.ps/year.html" xlink:title="&lt;TABLE&gt;" target="_blank">
<polygon fill="none" stroke="black" points="2535.12,-336 1417.38,-336 1417.38,-208.5 2535.12,-208.5 2535.12,-336"/>
<text text-anchor="start" x="1926.38" y="-314.7" font-family="Times,serif" font-weight="bold" font-size="14.00">medicare.ps.year</text>
<text text-anchor="start" x="1453.38" y="-268.2" font-family="Times,serif" font-size="14.00">Beneficiary Enrollment Reference Year</text>
<polygon fill="none" stroke="black" points="1428.38,-215.5 1428.38,-238 2524.12,-238 2524.12,-215.5 1428.38,-215.5"/>
<text text-anchor="start" x="1431.38" y="-221.7" font-family="Times,serif" font-size="14.00">(CASE WHEN &quot;year&quot;::int &lt; 20 THEN (2000 + &quot;year&quot;::int) WHEN (20 &lt; &quot;year&quot;::int AND &quot;year&quot;::int &lt; 100) THEN (1900 + &quot;year&quot;::int) WHEN &quot;year&quot; IS NULL THEN 2000 ELSE &quot;year&quot;::int END)</text>
<polygon fill="none" stroke="black" points="1425.38,-212.5 1425.38,-332 2527.12,-332 2527.12,-212.5 1425.38,-212.5"/>
</a>
</g>
</g>
<!-- medicare.ps.year&#45;&gt;medicare._ps.fips3 -->
<g id="edge5" class="edge">
<title>medicare.ps.year&#45;&gt;medicare._ps.fips3</title>
<path fill="none" stroke="black" d="M1633.8,-208.02C1539.03,-190.53 1440.32,-172.3 1360.33,-157.53"/>
<polygon fill="black" stroke="black" points="1361.13,-154.12 1350.66,-155.75 1359.86,-161.01 1361.13,-154.12"/>
<text text-anchor="middle" x="1484.88" y="-168.45" font-family="Times,serif" font-size="14.00"> &#160;Transformed</text>
</g>
<!-- medicare.ps.year_parent -->
<g id="node7" class="node">
<title>medicare.ps.year_parent</title>
<g id="a_node7"><a xlink:href="../medicare.ps/year.html" xlink:title="8 incoming links (columns)" target="_blank">
<path fill="yellow" stroke="black" d="M2084.25,-487.68C2084.25,-493.1 2035.84,-497.5 1976.25,-497.5 1916.66,-497.5 1868.25,-493.1 1868.25,-487.68 1868.25,-487.68 1868.25,-399.32 1868.25,-399.32 1868.25,-393.9 1916.66,-389.5 1976.25,-389.5 2035.84,-389.5 2084.25,-393.9 2084.25,-399.32 2084.25,-399.32 2084.25,-487.68 2084.25,-487.68"/>
<path fill="none" stroke="black" d="M2084.25,-487.68C2084.25,-482.26 2035.84,-477.86 1976.25,-477.86 1916.66,-477.86 1868.25,-482.26 1868.25,-487.68"/>
<text text-anchor="middle" x="1976.25" y="-438.45" font-family="Times,serif" font-size="14.00">8 incoming links (columns)</text>
</a>
</g>
</g>
<!-- medicare.ps.year_parent&#45;&gt;medicare.ps.year -->
<g id="edge6" class="edge">
<title>medicare.ps.year_parent&#45;&gt;medicare.ps.year</title>
<path fill="none" stroke="goldenrod" stroke-width="6" d="M1976.25,-389.41C1976.25,-377.68 1976.25,-365.01 1976.25,-352.5"/>
<polygon fill="goldenrod" stroke="goldenrod" stroke-width="6" points="1981.5,-352.68 1976.25,-342.68 1971,-352.68 1981.5,-352.68"/>
</g>
</g>
</svg>
