<?xml version="1.0" encoding="UTF-8" standalone="no"?>
<!DOCTYPE svg PUBLIC "-//W3C//DTD SVG 1.1//EN"
 "http://www.w3.org/Graphics/SVG/1.1/DTD/svg11.dtd">
<!-- Generated by graphviz version 10.0.1 (20240210.2158)
 -->
<!-- Pages: 1 -->
<svg width="838pt" height="369pt"
 viewBox="0.00 0.00 837.75 368.50" xmlns="http://www.w3.org/2000/svg" xmlns:xlink="http://www.w3.org/1999/xlink">
<g id="graph0" class="graph" transform="scale(1 1) rotate(0) translate(4 364.5)">
<polygon fill="white" stroke="none" points="-4,4 -4,-364.5 833.75,-364.5 833.75,4 -4,4"/>
<!-- medicare._ps.fips3_is_approximated -->
<g id="node1" class="node">
<title>medicare._ps.fips3_is_approximated</title>
<g id="a_node1"><a xlink:href="../medicare._ps/fips3_is_approximated.html" xlink:title="&lt;TABLE&gt;" target="_blank">
<polygon fill="none" stroke="black" points="829.75,-59 0,-59 0,0 829.75,0 829.75,-59"/>
<text text-anchor="start" x="308.38" y="-37.7" font-family="Times,serif" font-weight="bold" font-size="14.00">medicare._ps.fips3_is_approximated</text>
<polygon fill="none" stroke="black" points="11,-7 11,-29.5 818.75,-29.5 818.75,-7 11,-7"/>
<text text-anchor="start" x="14" y="-13.2" font-family="Times,serif" font-size="14.00">CASE WHEN ssa3 is NOT NULL THEN &#160;&#160;&#160;False &#160;ELSE &#160;&#160;&#160;(SELECT NOT public.is_zip_to_fips_exact(year, zip))END AS fips3_is_approximated</text>
<polygon fill="none" stroke="black" points="8,-4 8,-55 821.75,-55 821.75,-4 8,-4"/>
</a>
</g>
</g>
<!-- medicare.ps.ssa3 -->
<g id="node2" class="node">
<title>medicare.ps.ssa3</title>
<g id="a_node2"><a xlink:href="../medicare.ps/ssa3.html" xlink:title="&lt;TABLE&gt;" target="_blank">
<polygon fill="none" stroke="black" points="553.62,-215.5 276.12,-215.5 276.12,-96 553.62,-96 553.62,-215.5"/>
<text text-anchor="start" x="365.75" y="-194.2" font-family="Times,serif" font-weight="bold" font-size="14.00">medicare.ps.ssa3</text>
<text text-anchor="start" x="312.12" y="-147.7" font-family="Times,serif" font-size="14.00">Social Security Administration (SSA)</text>
<text text-anchor="start" x="342.5" y="-131.2" font-family="Times,serif" font-size="14.00">three digit code for county</text>
<polygon fill="none" stroke="black" points="284.12,-100 284.12,-211.5 545.62,-211.5 545.62,-100 284.12,-100"/>
</a>
</g>
</g>
<!-- medicare.ps.ssa3&#45;&gt;medicare._ps.fips3_is_approximated -->
<g id="edge1" class="edge">
<title>medicare.ps.ssa3&#45;&gt;medicare._ps.fips3_is_approximated</title>
<path fill="none" stroke="black" d="M414.88,-95.54C414.88,-87.05 414.88,-78.5 414.88,-70.5"/>
<polygon fill="black" stroke="black" points="418.38,-70.78 414.88,-60.78 411.38,-70.78 418.38,-70.78"/>
<text text-anchor="middle" x="453.5" y="-72.45" font-family="Times,serif" font-size="14.00"> &#160;Transformed</text>
</g>
<!-- medicare.ps.ssa3_parent -->
<g id="node3" class="node">
<title>medicare.ps.ssa3_parent</title>
<g id="a_node3"><a xlink:href="../medicare.ps/ssa3.html" xlink:title="8 incoming links (columns)" target="_blank">
<path fill="yellow" stroke="black" d="M522.88,-350.68C522.88,-356.1 474.47,-360.5 414.88,-360.5 355.28,-360.5 306.88,-356.1 306.88,-350.68 306.88,-350.68 306.88,-262.32 306.88,-262.32 306.88,-256.9 355.28,-252.5 414.88,-252.5 474.47,-252.5 522.88,-256.9 522.88,-262.32 522.88,-262.32 522.88,-350.68 522.88,-350.68"/>
<path fill="none" stroke="black" d="M522.88,-350.68C522.88,-345.26 474.47,-340.86 414.88,-340.86 355.28,-340.86 306.88,-345.26 306.88,-350.68"/>
<text text-anchor="middle" x="414.88" y="-301.45" font-family="Times,serif" font-size="14.00">8 incoming links (columns)</text>
</a>
</g>
</g>
<!-- medicare.ps.ssa3_parent&#45;&gt;medicare.ps.ssa3 -->
<g id="edge2" class="edge">
<title>medicare.ps.ssa3_parent&#45;&gt;medicare.ps.ssa3</title>
<path fill="none" stroke="goldenrod" stroke-width="6" d="M414.88,-252.22C414.88,-245.7 414.88,-238.94 414.88,-232.18"/>
<polygon fill="goldenrod" stroke="goldenrod" stroke-width="6" points="420.13,-232.42 414.88,-222.42 409.63,-232.42 420.13,-232.42"/>
</g>
</g>
</svg>
