<?xml version="1.0" encoding="UTF-8" standalone="no"?>
<!DOCTYPE svg PUBLIC "-//W3C//DTD SVG 1.1//EN"
 "http://www.w3.org/Graphics/SVG/1.1/DTD/svg11.dtd">
<!-- Generated by graphviz version 10.0.1 (20240210.2158)
 -->
<!-- Pages: 1 -->
<svg width="3758pt" height="860pt"
 viewBox="0.00 0.00 3757.62 860.00" xmlns="http://www.w3.org/2000/svg" xmlns:xlink="http://www.w3.org/1999/xlink">
<g id="graph0" class="graph" transform="scale(1 1) rotate(0) translate(4 856)">
<polygon fill="white" stroke="none" points="-4,4 -4,-856 3753.62,-856 3753.62,4 -4,4"/>
<!-- medicare.qc_enrl_bene.fips3_valdiated -->
<g id="node1" class="node">
<title>medicare.qc_enrl_bene.fips3_valdiated</title>
<g id="a_node1"><a xlink:href="../medicare.qc_enrl_bene/fips3_valdiated.html" xlink:title="&lt;TABLE&gt;" target="_blank">
<polygon fill="none" stroke="black" points="2313.88,-59 1937.12,-59 1937.12,0 2313.88,0 2313.88,-59"/>
<text text-anchor="start" x="2012.25" y="-37.7" font-family="Times,serif" font-weight="bold" font-size="14.00">medicare.qc_enrl_bene.fips3_valdiated</text>
<polygon fill="none" stroke="black" points="1948.12,-7 1948.12,-29.5 2302.88,-29.5 2302.88,-7 1948.12,-7"/>
<text text-anchor="start" x="1951.12" y="-13.2" font-family="Times,serif" font-size="14.00">public.validate_zip_fips(MAX(zip), MAX(fips2), MAX(fips3))</text>
<polygon fill="none" stroke="black" points="1945.12,-4 1945.12,-55 2305.88,-55 2305.88,-4 1945.12,-4"/>
</a>
</g>
</g>
<!-- medicare.enrollments.zip -->
<g id="node2" class="node">
<title>medicare.enrollments.zip</title>
<g id="a_node2"><a xlink:href="../medicare.enrollments/zip.html" xlink:title="&lt;TABLE&gt;" target="_blank">
<polygon fill="none" stroke="black" points="1830.38,-155 1656.62,-155 1656.62,-96 1830.38,-96 1830.38,-155"/>
<text text-anchor="start" x="1669.62" y="-133.7" font-family="Times,serif" font-weight="bold" font-size="14.00">medicare.enrollments.zip</text>
<polygon fill="none" stroke="black" points="1667.62,-103 1667.62,-125.5 1819.38,-125.5 1819.38,-103 1667.62,-103"/>
<text text-anchor="start" x="1670.62" y="-109.2" font-family="Times,serif" font-size="14.00">MAX(zip)</text>
<polygon fill="none" stroke="black" points="1664.62,-100 1664.62,-151 1822.38,-151 1822.38,-100 1664.62,-100"/>
</a>
</g>
</g>
<!-- medicare.enrollments.zip&#45;&gt;medicare.qc_enrl_bene.fips3_valdiated -->
<g id="edge1" class="edge">
<title>medicare.enrollments.zip&#45;&gt;medicare.qc_enrl_bene.fips3_valdiated</title>
<path fill="none" stroke="black" d="M1830.66,-103.05C1879.9,-90.94 1942.36,-75.57 1997.1,-62.09"/>
<polygon fill="black" stroke="black" points="1997.6,-65.58 2006.48,-59.79 1995.93,-58.78 1997.6,-65.58"/>
<text text-anchor="middle" x="1980.62" y="-72.45" font-family="Times,serif" font-size="14.00">	join natural</text>
</g>
<!-- medicare._enrollments.zip -->
<g id="node3" class="node">
<title>medicare._enrollments.zip</title>
<g id="a_node3"><a xlink:href="../medicare._enrollments/zip.html" xlink:title="&lt;TABLE&gt;" target="_blank">
<polygon fill="none" stroke="black" points="1645.75,-251 1465.25,-251 1465.25,-192 1645.75,-192 1645.75,-251"/>
<text text-anchor="start" x="1478.25" y="-229.7" font-family="Times,serif" font-weight="bold" font-size="14.00">medicare._enrollments.zip</text>
<polygon fill="none" stroke="black" points="1476.25,-199 1476.25,-221.5 1634.75,-221.5 1634.75,-199 1476.25,-199"/>
<text text-anchor="start" x="1479.25" y="-205.2" font-family="Times,serif" font-size="14.00">MAX(zip)</text>
<polygon fill="none" stroke="black" points="1473.25,-196 1473.25,-247 1637.75,-247 1637.75,-196 1473.25,-196"/>
</a>
</g>
</g>
<!-- medicare._enrollments.zip&#45;&gt;medicare.enrollments.zip -->
<g id="edge2" class="edge">
<title>medicare._enrollments.zip&#45;&gt;medicare.enrollments.zip</title>
<path fill="none" stroke="black" d="M1613.44,-191.53C1633.1,-181.7 1655.24,-170.63 1675.6,-160.45"/>
<polygon fill="black" stroke="black" points="1677.02,-163.65 1684.4,-156.05 1673.89,-157.39 1677.02,-163.65"/>
<text text-anchor="middle" x="1669" y="-168.45" font-family="Times,serif" font-size="14.00">Copied</text>
</g>
<!-- medicare._ps.zip -->
<g id="node4" class="node">
<title>medicare._ps.zip</title>
<g id="a_node4"><a xlink:href="../medicare._ps/zip.html" xlink:title="&lt;TABLE&gt;" target="_blank">
<polygon fill="none" stroke="black" points="915,-479 0,-479 0,-288 915,-288 915,-479"/>
<text text-anchor="start" x="87.38" y="-457.7" font-family="Times,serif" font-weight="bold" font-size="14.00">medicare._ps.zip</text>
<text text-anchor="start" x="36" y="-411.7" font-family="Times,serif" font-size="14.00">US Postal ZIP code, the first 5 digits</text>
<text text-anchor="start" x="125.25" y="-395.2" font-family="Times,serif" font-size="14.00">of it</text>
<polygon fill="none" stroke="black" points="11,-343 11,-365 262,-365 262,-343 11,-343"/>
<text text-anchor="start" x="14" y="-348.7" font-family="Times,serif" font-size="14.00">numeric →</text>
<polygon fill="none" stroke="black" points="264,-343 264,-365 904,-365 904,-343 264,-343"/>
<text text-anchor="start" x="266.75" y="-348.7" font-family="Times,serif" font-size="14.00">(CASE WHEN {column_name} &lt; 100000 THEN {column_name}::int ELSE ({column_name}/10000)::INT END)</text>
<polygon fill="none" stroke="black" points="11,-319 11,-341 262,-341 262,-319 11,-319"/>
<text text-anchor="start" x="14" y="-324.7" font-family="Times,serif" font-size="14.00">character varying →</text>
<polygon fill="none" stroke="black" points="264,-319 264,-341 904,-341 904,-319 264,-319"/>
<text text-anchor="start" x="267" y="-324.7" font-family="Times,serif" font-size="14.00">SUBSTRING({column_name} FROM 1 FOR 5)::INT</text>
<polygon fill="none" stroke="black" points="11,-295 11,-317 262,-317 262,-295 11,-295"/>
<text text-anchor="start" x="14" y="-300.7" font-family="Times,serif" font-size="14.00">integer →</text>
<polygon fill="none" stroke="black" points="264,-295 264,-317 904,-317 904,-295 264,-295"/>
<text text-anchor="start" x="267" y="-300.7" font-family="Times,serif" font-size="14.00">{column_name}::INT</text>
<polygon fill="none" stroke="black" points="8,-292 8,-475 907,-475 907,-292 8,-292"/>
</a>
</g>
</g>
<!-- medicare._ps.zip&#45;&gt;medicare._enrollments.zip -->
<g id="edge3" class="edge">
<title>medicare._ps.zip&#45;&gt;medicare._enrollments.zip</title>
<path fill="none" stroke="blue" stroke-width="5" d="M915.27,-289.42C918.36,-288.94 921.43,-288.47 924.5,-288 1107.81,-260.01 1322.94,-240.5 1448.75,-230.43"/>
<polygon fill="blue" stroke="blue" stroke-width="5" points="1448.92,-234.8 1458.55,-229.65 1448.23,-226.08 1448.92,-234.8"/>
<text text-anchor="middle" x="1176.88" y="-264.45" font-family="Times,serif" font-size="14.00">	 &#160;Aggregated On bene_id, year, state</text>
</g>
<!-- medicare.ps.zip -->
<g id="node5" class="node">
<title>medicare.ps.zip</title>
<g id="a_node5"><a xlink:href="../medicare.ps/zip.html" xlink:title="&lt;TABLE&gt;" target="_blank">
<polygon fill="none" stroke="black" points="915,-707 0,-707 0,-516 915,-516 915,-707"/>
<text text-anchor="start" x="90.75" y="-685.7" font-family="Times,serif" font-weight="bold" font-size="14.00">medicare.ps.zip</text>
<text text-anchor="start" x="36" y="-639.7" font-family="Times,serif" font-size="14.00">US Postal ZIP code, the first 5 digits</text>
<text text-anchor="start" x="125.25" y="-623.2" font-family="Times,serif" font-size="14.00">of it</text>
<polygon fill="none" stroke="black" points="11,-571 11,-593 262,-593 262,-571 11,-571"/>
<text text-anchor="start" x="14" y="-576.7" font-family="Times,serif" font-size="14.00">numeric →</text>
<polygon fill="none" stroke="black" points="264,-571 264,-593 904,-593 904,-571 264,-571"/>
<text text-anchor="start" x="266.75" y="-576.7" font-family="Times,serif" font-size="14.00">(CASE WHEN {column_name} &lt; 100000 THEN {column_name}::int ELSE ({column_name}/10000)::INT END)</text>
<polygon fill="none" stroke="black" points="11,-547 11,-569 262,-569 262,-547 11,-547"/>
<text text-anchor="start" x="14" y="-552.7" font-family="Times,serif" font-size="14.00">character varying →</text>
<polygon fill="none" stroke="black" points="264,-547 264,-569 904,-569 904,-547 264,-547"/>
<text text-anchor="start" x="267" y="-552.7" font-family="Times,serif" font-size="14.00">SUBSTRING({column_name} FROM 1 FOR 5)::INT</text>
<polygon fill="none" stroke="black" points="11,-523 11,-545 262,-545 262,-523 11,-523"/>
<text text-anchor="start" x="14" y="-528.7" font-family="Times,serif" font-size="14.00">integer →</text>
<polygon fill="none" stroke="black" points="264,-523 264,-545 904,-545 904,-523 264,-523"/>
<text text-anchor="start" x="267" y="-528.7" font-family="Times,serif" font-size="14.00">{column_name}::INT</text>
<polygon fill="none" stroke="black" points="8,-520 8,-703 907,-703 907,-520 8,-520"/>
</a>
</g>
</g>
<!-- medicare.ps.zip&#45;&gt;medicare._ps.zip -->
<g id="edge4" class="edge">
<title>medicare.ps.zip&#45;&gt;medicare._ps.zip</title>
<path fill="none" stroke="black" d="M457.5,-515.64C457.5,-507.42 457.5,-499.06 457.5,-490.76"/>
<polygon fill="black" stroke="black" points="461,-491 457.5,-481 454,-491 461,-491"/>
<text text-anchor="middle" x="477" y="-492.45" font-family="Times,serif" font-size="14.00">Copied</text>
</g>
<!-- medicare.ps.zip_parent -->
<g id="node6" class="node">
<title>medicare.ps.zip_parent</title>
<g id="a_node6"><a xlink:href="../medicare.ps/zip.html" xlink:title="8 incoming links (columns)" target="_blank">
<path fill="yellow" stroke="black" d="M565.5,-842.18C565.5,-847.6 517.09,-852 457.5,-852 397.91,-852 349.5,-847.6 349.5,-842.18 349.5,-842.18 349.5,-753.82 349.5,-753.82 349.5,-748.4 397.91,-744 457.5,-744 517.09,-744 565.5,-748.4 565.5,-753.82 565.5,-753.82 565.5,-842.18 565.5,-842.18"/>
<path fill="none" stroke="black" d="M565.5,-842.18C565.5,-836.76 517.09,-832.36 457.5,-832.36 397.91,-832.36 349.5,-836.76 349.5,-842.18"/>
<text text-anchor="middle" x="457.5" y="-792.95" font-family="Times,serif" font-size="14.00">8 incoming links (columns)</text>
</a>
</g>
</g>
<!-- medicare.ps.zip_parent&#45;&gt;medicare.ps.zip -->
<g id="edge5" class="edge">
<title>medicare.ps.zip_parent&#45;&gt;medicare.ps.zip</title>
<path fill="none" stroke="goldenrod" stroke-width="6" d="M457.5,-743.63C457.5,-737.23 457.5,-730.52 457.5,-723.66"/>
<polygon fill="goldenrod" stroke="goldenrod" stroke-width="6" points="462.75,-723.93 457.5,-713.93 452.25,-723.93 462.75,-723.93"/>
</g>
<!-- medicare.enrollments.fips3 -->
<g id="node7" class="node">
<title>medicare.enrollments.fips3</title>
<g id="a_node7"><a xlink:href="../medicare.enrollments/fips3.html" xlink:title="&lt;TABLE&gt;" target="_blank">
<polygon fill="none" stroke="black" points="2217.62,-155 2033.38,-155 2033.38,-96 2217.62,-96 2217.62,-155"/>
<text text-anchor="start" x="2046.38" y="-133.7" font-family="Times,serif" font-weight="bold" font-size="14.00">medicare.enrollments.fips3</text>
<polygon fill="none" stroke="black" points="2044.38,-103 2044.38,-125.5 2206.62,-125.5 2206.62,-103 2044.38,-103"/>
<text text-anchor="start" x="2047.38" y="-109.2" font-family="Times,serif" font-size="14.00">MAX(fips3)</text>
<polygon fill="none" stroke="black" points="2041.38,-100 2041.38,-151 2209.62,-151 2209.62,-100 2041.38,-100"/>
</a>
</g>
</g>
<!-- medicare.enrollments.fips3&#45;&gt;medicare.qc_enrl_bene.fips3_valdiated -->
<g id="edge6" class="edge">
<title>medicare.enrollments.fips3&#45;&gt;medicare.qc_enrl_bene.fips3_valdiated</title>
<path fill="none" stroke="black" d="M2125.5,-95.53C2125.5,-87.68 2125.5,-79.05 2125.5,-70.7"/>
<polygon fill="black" stroke="black" points="2129,-70.73 2125.5,-60.73 2122,-70.73 2129,-70.73"/>
<text text-anchor="middle" x="2171.62" y="-72.45" font-family="Times,serif" font-size="14.00">	join natural</text>
</g>
<!-- medicare._enrollments.fips3 -->
<g id="node8" class="node">
<title>medicare._enrollments.fips3</title>
<g id="a_node8"><a xlink:href="../medicare._enrollments/fips3.html" xlink:title="&lt;TABLE&gt;" target="_blank">
<polygon fill="none" stroke="black" points="2221,-251 2030,-251 2030,-192 2221,-192 2221,-251"/>
<text text-anchor="start" x="2043" y="-229.7" font-family="Times,serif" font-weight="bold" font-size="14.00">medicare._enrollments.fips3</text>
<polygon fill="none" stroke="black" points="2041,-199 2041,-221.5 2210,-221.5 2210,-199 2041,-199"/>
<text text-anchor="start" x="2044" y="-205.2" font-family="Times,serif" font-size="14.00">MAX(fips3)</text>
<polygon fill="none" stroke="black" points="2038,-196 2038,-247 2213,-247 2213,-196 2038,-196"/>
</a>
</g>
</g>
<!-- medicare._enrollments.fips3&#45;&gt;medicare.enrollments.fips3 -->
<g id="edge7" class="edge">
<title>medicare._enrollments.fips3&#45;&gt;medicare.enrollments.fips3</title>
<path fill="none" stroke="black" d="M2125.5,-191.53C2125.5,-183.68 2125.5,-175.05 2125.5,-166.7"/>
<polygon fill="black" stroke="black" points="2129,-166.73 2125.5,-156.73 2122,-166.73 2129,-166.73"/>
<text text-anchor="middle" x="2145" y="-168.45" font-family="Times,serif" font-size="14.00">Copied</text>
</g>
<!-- medicare._ps.fips3 -->
<g id="node9" class="node">
<title>medicare._ps.fips3</title>
<g id="a_node9"><a xlink:href="../medicare._ps/fips3.html" xlink:title="&lt;TABLE&gt;" target="_blank">
<polygon fill="none" stroke="black" points="3317.75,-413 933.25,-413 933.25,-354 3317.75,-354 3317.75,-413"/>
<text text-anchor="start" x="2071.12" y="-391.7" font-family="Times,serif" font-weight="bold" font-size="14.00">medicare._ps.fips3</text>
<polygon fill="none" stroke="black" points="944.25,-361 944.25,-383.5 3306.75,-383.5 3306.75,-361 944.25,-361"/>
<text text-anchor="start" x="947.25" y="-367.2" font-family="Times,serif" font-size="14.00">CASE WHEN ssa3 is NOT NULL THEN &#160;CASE WHEN year &gt; 2010 THEN &#160;&#160;&#160;&#160;&#160;(SELECT fips3 from public.ssa as s where ps.ssa3 = s.ssa3 and ps.year = s.year and ps.fips2 = s.fips2 ORDER BY 1 DESC LIMIT 1) &#160;&#160;&#160;ELSE &#160;&#160;&#160;&#160;&#160;(SELECT fips3 from public.ssa as s where ps.ssa3 = s.ssa3 and 2003 = s.year and ps.fips2 = s.fips2 ORDER BY 1 DESC LIMIT 1) &#160;ENDELSE &#160;(SELECT public.zip_to_fips3(year, zip))END AS fips3</text>
<polygon fill="none" stroke="black" points="941.25,-358 941.25,-409 3309.75,-409 3309.75,-358 941.25,-358"/>
</a>
</g>
</g>
<!-- medicare._ps.fips3&#45;&gt;medicare._enrollments.fips3 -->
<g id="edge8" class="edge">
<title>medicare._ps.fips3&#45;&gt;medicare._enrollments.fips3</title>
<path fill="none" stroke="blue" stroke-width="5" d="M2125.5,-353.53C2125.5,-329.51 2125.5,-294.97 2125.5,-267.38"/>
<polygon fill="blue" stroke="blue" stroke-width="5" points="2129.88,-267.5 2125.5,-257.5 2121.13,-267.5 2129.88,-267.5"/>
<text text-anchor="middle" x="2239.88" y="-264.45" font-family="Times,serif" font-size="14.00">	 &#160;Aggregated On bene_id, year, state</text>
</g>
<!-- medicare.ps.year -->
<g id="node10" class="node">
<title>medicare.ps.year</title>
<g id="a_node10"><a xlink:href="../medicare.ps/year.html" xlink:title="&lt;TABLE&gt;" target="_blank">
<polygon fill="none" stroke="black" points="2355.38,-641 1237.62,-641 1237.62,-582 2355.38,-582 2355.38,-641"/>
<text text-anchor="start" x="1746.62" y="-619.7" font-family="Times,serif" font-weight="bold" font-size="14.00">medicare.ps.year</text>
<polygon fill="none" stroke="black" points="1248.62,-589 1248.62,-611.5 2344.38,-611.5 2344.38,-589 1248.62,-589"/>
<text text-anchor="start" x="1251.62" y="-595.2" font-family="Times,serif" font-size="14.00">(CASE WHEN &quot;year&quot;::int &lt; 20 THEN (2000 + &quot;year&quot;::int) WHEN (20 &lt; &quot;year&quot;::int AND &quot;year&quot;::int &lt; 100) THEN (1900 + &quot;year&quot;::int) WHEN &quot;year&quot; IS NULL THEN 2000 ELSE &quot;year&quot;::int END)</text>
<polygon fill="none" stroke="black" points="1245.62,-586 1245.62,-637 2347.38,-637 2347.38,-586 1245.62,-586"/>
</a>
</g>
</g>
<!-- medicare.ps.year&#45;&gt;medicare._ps.fips3 -->
<g id="edge9" class="edge">
<title>medicare.ps.year&#45;&gt;medicare._ps.fips3</title>
<path fill="none" stroke="black" d="M1838.5,-581.65C1898.69,-540.31 2009.33,-464.3 2074.25,-419.7"/>
<polygon fill="black" stroke="black" points="2075.98,-422.76 2082.24,-414.22 2072.02,-416.99 2075.98,-422.76"/>
<text text-anchor="middle" x="2000.12" y="-492.45" font-family="Times,serif" font-size="14.00"> &#160;Transformed</text>
</g>
<!-- medicare.ps.year_parent -->
<g id="node11" class="node">
<title>medicare.ps.year_parent</title>
<g id="a_node11"><a xlink:href="../medicare.ps/year.html" xlink:title="8 incoming links (columns)" target="_blank">
<path fill="yellow" stroke="black" d="M1904.5,-842.18C1904.5,-847.6 1856.09,-852 1796.5,-852 1736.91,-852 1688.5,-847.6 1688.5,-842.18 1688.5,-842.18 1688.5,-753.82 1688.5,-753.82 1688.5,-748.4 1736.91,-744 1796.5,-744 1856.09,-744 1904.5,-748.4 1904.5,-753.82 1904.5,-753.82 1904.5,-842.18 1904.5,-842.18"/>
<path fill="none" stroke="black" d="M1904.5,-842.18C1904.5,-836.76 1856.09,-832.36 1796.5,-832.36 1736.91,-832.36 1688.5,-836.76 1688.5,-842.18"/>
<text text-anchor="middle" x="1796.5" y="-792.95" font-family="Times,serif" font-size="14.00">8 incoming links (columns)</text>
</a>
</g>
</g>
<!-- medicare.ps.year_parent&#45;&gt;medicare.ps.year -->
<g id="edge10" class="edge">
<title>medicare.ps.year_parent&#45;&gt;medicare.ps.year</title>
<path fill="none" stroke="goldenrod" stroke-width="6" d="M1796.5,-743.63C1796.5,-716.44 1796.5,-683.73 1796.5,-657.78"/>
<polygon fill="goldenrod" stroke="goldenrod" stroke-width="6" points="1801.75,-657.89 1796.5,-647.89 1791.25,-657.89 1801.75,-657.89"/>
</g>
<!-- medicare.ps.ssa3 -->
<g id="node12" class="node">
<title>medicare.ps.ssa3</title>
<g id="a_node12"><a xlink:href="../medicare.ps/ssa3.html" xlink:title="&lt;TABLE&gt;" target="_blank">
<polygon fill="none" stroke="black" points="2651.25,-671.25 2373.75,-671.25 2373.75,-551.75 2651.25,-551.75 2651.25,-671.25"/>
<text text-anchor="start" x="2463.38" y="-649.95" font-family="Times,serif" font-weight="bold" font-size="14.00">medicare.ps.ssa3</text>
<text text-anchor="start" x="2409.75" y="-603.45" font-family="Times,serif" font-size="14.00">Social Security Administration (SSA)</text>
<text text-anchor="start" x="2440.12" y="-586.95" font-family="Times,serif" font-size="14.00">three digit code for county</text>
<polygon fill="none" stroke="black" points="2381.75,-555.75 2381.75,-667.25 2643.25,-667.25 2643.25,-555.75 2381.75,-555.75"/>
</a>
</g>
</g>
<!-- medicare.ps.ssa3&#45;&gt;medicare._ps.fips3 -->
<g id="edge11" class="edge">
<title>medicare.ps.ssa3&#45;&gt;medicare._ps.fips3</title>
<path fill="none" stroke="black" d="M2421.89,-551.33C2403.06,-539.41 2383.24,-527.12 2364.5,-516 2306.33,-481.47 2238.66,-444.54 2190.21,-418.63"/>
<polygon fill="black" stroke="black" points="2191.98,-415.61 2181.51,-413.98 2188.68,-421.78 2191.98,-415.61"/>
<text text-anchor="middle" x="2370.12" y="-492.45" font-family="Times,serif" font-size="14.00"> &#160;Transformed</text>
</g>
<!-- medicare.ps.ssa3_parent -->
<g id="node13" class="node">
<title>medicare.ps.ssa3_parent</title>
<g id="a_node13"><a xlink:href="../medicare.ps/ssa3.html" xlink:title="8 incoming links (columns)" target="_blank">
<path fill="yellow" stroke="black" d="M2620.5,-842.18C2620.5,-847.6 2572.09,-852 2512.5,-852 2452.91,-852 2404.5,-847.6 2404.5,-842.18 2404.5,-842.18 2404.5,-753.82 2404.5,-753.82 2404.5,-748.4 2452.91,-744 2512.5,-744 2572.09,-744 2620.5,-748.4 2620.5,-753.82 2620.5,-753.82 2620.5,-842.18 2620.5,-842.18"/>
<path fill="none" stroke="black" d="M2620.5,-842.18C2620.5,-836.76 2572.09,-832.36 2512.5,-832.36 2452.91,-832.36 2404.5,-836.76 2404.5,-842.18"/>
<text text-anchor="middle" x="2512.5" y="-792.95" font-family="Times,serif" font-size="14.00">8 incoming links (columns)</text>
</a>
</g>
</g>
<!-- medicare.ps.ssa3_parent&#45;&gt;medicare.ps.ssa3 -->
<g id="edge12" class="edge">
<title>medicare.ps.ssa3_parent&#45;&gt;medicare.ps.ssa3</title>
<path fill="none" stroke="goldenrod" stroke-width="6" d="M2512.5,-743.63C2512.5,-726.27 2512.5,-706.66 2512.5,-688"/>
<polygon fill="goldenrod" stroke="goldenrod" stroke-width="6" points="2517.75,-688.02 2512.5,-678.02 2507.25,-688.02 2517.75,-688.02"/>
</g>
<!-- medicare.ps.fips2 -->
<g id="node14" class="node">
<title>medicare.ps.fips2</title>
<g id="a_node14"><a xlink:href="../medicare.ps/fips2.html" xlink:title="&lt;TABLE&gt;" target="_blank">
<polygon fill="none" stroke="black" points="3416.62,-691.75 3002.38,-691.75 3002.38,-531.25 3416.62,-531.25 3416.62,-691.75"/>
<text text-anchor="start" x="3158.5" y="-670.45" font-family="Times,serif" font-weight="bold" font-size="14.00">medicare.ps.fips2</text>
<text text-anchor="start" x="3050" y="-623.95" font-family="Times,serif" font-size="14.00">2 digit state FIPS, see https://en.wikip</text>
<text text-anchor="start" x="3038.38" y="-607.45" font-family="Times,serif" font-size="14.00">edia.org/wiki/Federal_Information_Proces</text>
<text text-anchor="start" x="3083.38" y="-590.95" font-family="Times,serif" font-size="14.00">sing_Standard_state_code</text>
<polygon fill="none" stroke="black" points="3013.38,-538.25 3013.38,-560.75 3405.62,-560.75 3405.62,-538.25 3013.38,-538.25"/>
<text text-anchor="start" x="3016.38" y="-544.45" font-family="Times,serif" font-size="14.00">(SELECT fips2 FROM public.us_states as s WHERE s.ssa2 = &quot;state&quot;)</text>
<polygon fill="none" stroke="black" points="3010.38,-535.25 3010.38,-687.75 3408.62,-687.75 3408.62,-535.25 3010.38,-535.25"/>
</a>
</g>
</g>
<!-- medicare.ps.fips2&#45;&gt;medicare._ps.fips3 -->
<g id="edge13" class="edge">
<title>medicare.ps.fips2&#45;&gt;medicare._ps.fips3</title>
<path fill="none" stroke="black" d="M3002.1,-567.26C2789.52,-522.94 2464.13,-455.1 2275.35,-415.74"/>
<polygon fill="black" stroke="black" points="2276.22,-412.35 2265.71,-413.73 2274.79,-419.2 2276.22,-412.35"/>
<text text-anchor="middle" x="2706.12" y="-492.45" font-family="Times,serif" font-size="14.00"> &#160;Transformed</text>
</g>
<!-- medicare._ps.fips2 -->
<g id="node17" class="node">
<title>medicare._ps.fips2</title>
<g id="a_node17"><a xlink:href="../medicare._ps/fips2.html" xlink:title="&lt;TABLE&gt;" target="_blank">
<polygon fill="none" stroke="black" points="3749.62,-463.75 3335.38,-463.75 3335.38,-303.25 3749.62,-303.25 3749.62,-463.75"/>
<text text-anchor="start" x="3488.12" y="-442.45" font-family="Times,serif" font-weight="bold" font-size="14.00">medicare._ps.fips2</text>
<text text-anchor="start" x="3383" y="-395.95" font-family="Times,serif" font-size="14.00">2 digit state FIPS, see https://en.wikip</text>
<text text-anchor="start" x="3371.38" y="-379.45" font-family="Times,serif" font-size="14.00">edia.org/wiki/Federal_Information_Proces</text>
<text text-anchor="start" x="3416.38" y="-362.95" font-family="Times,serif" font-size="14.00">sing_Standard_state_code</text>
<polygon fill="none" stroke="black" points="3346.38,-310.25 3346.38,-332.75 3738.62,-332.75 3738.62,-310.25 3346.38,-310.25"/>
<text text-anchor="start" x="3349.38" y="-316.45" font-family="Times,serif" font-size="14.00">(SELECT fips2 FROM public.us_states as s WHERE s.ssa2 = &quot;state&quot;)</text>
<polygon fill="none" stroke="black" points="3343.38,-307.25 3343.38,-459.75 3741.62,-459.75 3741.62,-307.25 3343.38,-307.25"/>
</a>
</g>
</g>
<!-- medicare.ps.fips2&#45;&gt;medicare._ps.fips2 -->
<g id="edge17" class="edge">
<title>medicare.ps.fips2&#45;&gt;medicare._ps.fips2</title>
<path fill="none" stroke="black" d="M3326.9,-530.82C3355.63,-511.33 3386.49,-490.38 3415.64,-470.6"/>
<polygon fill="black" stroke="black" points="3417.47,-473.58 3423.78,-465.07 3413.54,-467.79 3417.47,-473.58"/>
<text text-anchor="middle" x="3395" y="-492.45" font-family="Times,serif" font-size="14.00">Copied</text>
</g>
<!-- medicare.enrollments.fips2 -->
<g id="node15" class="node">
<title>medicare.enrollments.fips2</title>
<g id="a_node15"><a xlink:href="../medicare.enrollments/fips2.html" xlink:title="&lt;TABLE&gt;" target="_blank">
<polygon fill="none" stroke="black" points="2724.62,-155 2540.38,-155 2540.38,-96 2724.62,-96 2724.62,-155"/>
<text text-anchor="start" x="2553.38" y="-133.7" font-family="Times,serif" font-weight="bold" font-size="14.00">medicare.enrollments.fips2</text>
<polygon fill="none" stroke="black" points="2551.38,-103 2551.38,-125.5 2713.62,-125.5 2713.62,-103 2551.38,-103"/>
<text text-anchor="start" x="2554.38" y="-109.2" font-family="Times,serif" font-size="14.00">MAX(fips2)</text>
<polygon fill="none" stroke="black" points="2548.38,-100 2548.38,-151 2716.62,-151 2716.62,-100 2548.38,-100"/>
</a>
</g>
</g>
<!-- medicare.enrollments.fips2&#45;&gt;medicare.qc_enrl_bene.fips3_valdiated -->
<g id="edge14" class="edge">
<title>medicare.enrollments.fips2&#45;&gt;medicare.qc_enrl_bene.fips3_valdiated</title>
<path fill="none" stroke="black" d="M2540.1,-107.37C2471.22,-94.6 2375.24,-76.8 2292.98,-61.55"/>
<polygon fill="black" stroke="black" points="2293.68,-58.12 2283.21,-59.74 2292.41,-65 2293.68,-58.12"/>
<text text-anchor="middle" x="2424.62" y="-72.45" font-family="Times,serif" font-size="14.00">	join natural</text>
</g>
<!-- medicare._enrollments.fips2 -->
<g id="node16" class="node">
<title>medicare._enrollments.fips2</title>
<g id="a_node16"><a xlink:href="../medicare._enrollments/fips2.html" xlink:title="&lt;TABLE&gt;" target="_blank">
<polygon fill="none" stroke="black" points="3034,-251 2843,-251 2843,-192 3034,-192 3034,-251"/>
<text text-anchor="start" x="2856" y="-229.7" font-family="Times,serif" font-weight="bold" font-size="14.00">medicare._enrollments.fips2</text>
<polygon fill="none" stroke="black" points="2854,-199 2854,-221.5 3023,-221.5 3023,-199 2854,-199"/>
<text text-anchor="start" x="2857" y="-205.2" font-family="Times,serif" font-size="14.00">MAX(fips2)</text>
<polygon fill="none" stroke="black" points="2851,-196 2851,-247 3026,-247 3026,-196 2851,-196"/>
</a>
</g>
</g>
<!-- medicare._enrollments.fips2&#45;&gt;medicare.enrollments.fips2 -->
<g id="edge15" class="edge">
<title>medicare._enrollments.fips2&#45;&gt;medicare.enrollments.fips2</title>
<path fill="none" stroke="black" d="M2844.19,-191.53C2809.82,-180.97 2770.78,-168.98 2735.68,-158.2"/>
<polygon fill="black" stroke="black" points="2736.95,-154.93 2726.37,-155.33 2734.9,-161.62 2736.95,-154.93"/>
<text text-anchor="middle" x="2805" y="-168.45" font-family="Times,serif" font-size="14.00">Copied</text>
</g>
<!-- medicare._ps.fips2&#45;&gt;medicare._enrollments.fips2 -->
<g id="edge16" class="edge">
<title>medicare._ps.fips2&#45;&gt;medicare._enrollments.fips2</title>
<path fill="none" stroke="blue" stroke-width="5" d="M3370.6,-302.85C3355.84,-297.38 3341.01,-292.33 3326.5,-288 3235.4,-260.83 3128.69,-243.84 3050.26,-234"/>
<polygon fill="blue" stroke="blue" stroke-width="5" points="3051.11,-229.7 3040.66,-232.82 3050.05,-238.38 3051.11,-229.7"/>
<text text-anchor="middle" x="3369.88" y="-264.45" font-family="Times,serif" font-size="14.00">	 &#160;Aggregated On bene_id, year, state</text>
</g>
</g>
</svg>
