<?xml version="1.0" encoding="UTF-8" standalone="no"?>
<!DOCTYPE svg PUBLIC "-//W3C//DTD SVG 1.1//EN"
 "http://www.w3.org/Graphics/SVG/1.1/DTD/svg11.dtd">
<!-- Generated by graphviz version 10.0.1 (20240210.2158)
 -->
<!-- Pages: 1 -->
<svg width="3758pt" height="833pt"
 viewBox="0.00 0.00 3757.62 832.50" xmlns="http://www.w3.org/2000/svg" xmlns:xlink="http://www.w3.org/1999/xlink">
<g id="graph0" class="graph" transform="scale(1 1) rotate(0) translate(4 828.5)">
<polygon fill="white" stroke="none" points="-4,4 -4,-828.5 3753.62,-828.5 3753.62,4 -4,4"/>
<!-- medicare.enrollments.fips3_valdiated -->
<g id="node1" class="node">
<title>medicare.enrollments.fips3_valdiated</title>
<g id="a_node1"><a xlink:href="../medicare.enrollments/fips3_valdiated.html" xlink:title="&lt;TABLE&gt;" target="_blank">
<polygon fill="none" stroke="black" points="1812.5,-59 1435.75,-59 1435.75,0 1812.5,0 1812.5,-59"/>
<text text-anchor="start" x="1515" y="-37.7" font-family="Times,serif" font-weight="bold" font-size="14.00">medicare.enrollments.fips3_valdiated</text>
<polygon fill="none" stroke="black" points="1446.75,-7 1446.75,-29.5 1801.5,-29.5 1801.5,-7 1446.75,-7"/>
<text text-anchor="start" x="1449.75" y="-13.2" font-family="Times,serif" font-size="14.00">public.validate_zip_fips(MAX(zip), MAX(fips2), MAX(fips3))</text>
<polygon fill="none" stroke="black" points="1443.75,-4 1443.75,-55 1804.5,-55 1804.5,-4 1443.75,-4"/>
</a>
</g>
</g>
<!-- medicare._enrollments.fips2 -->
<g id="node2" class="node">
<title>medicare._enrollments.fips2</title>
<g id="a_node2"><a xlink:href="../medicare._enrollments/fips2.html" xlink:title="&lt;TABLE&gt;" target="_blank">
<polygon fill="none" stroke="black" points="1208.62,-189.25 1017.62,-189.25 1017.62,-130.25 1208.62,-130.25 1208.62,-189.25"/>
<text text-anchor="start" x="1030.62" y="-167.95" font-family="Times,serif" font-weight="bold" font-size="14.00">medicare._enrollments.fips2</text>
<polygon fill="none" stroke="black" points="1028.62,-137.25 1028.62,-159.75 1197.62,-159.75 1197.62,-137.25 1028.62,-137.25"/>
<text text-anchor="start" x="1031.62" y="-143.45" font-family="Times,serif" font-size="14.00">MAX(fips2)</text>
<polygon fill="none" stroke="black" points="1025.62,-134.25 1025.62,-185.25 1200.62,-185.25 1200.62,-134.25 1025.62,-134.25"/>
</a>
</g>
</g>
<!-- medicare._enrollments.fips2&#45;&gt;medicare.enrollments.fips3_valdiated -->
<g id="edge1" class="edge">
<title>medicare._enrollments.fips2&#45;&gt;medicare.enrollments.fips3_valdiated</title>
<path fill="none" stroke="black" d="M1208.94,-134.7C1290.5,-114.23 1408.3,-84.67 1497.6,-62.25"/>
<polygon fill="black" stroke="black" points="1498.31,-65.69 1507.16,-59.86 1496.6,-58.9 1498.31,-65.69"/>
<text text-anchor="middle" x="1456.62" y="-72.45" font-family="Times,serif" font-size="14.00">Copied</text>
</g>
<!-- medicare._ps.fips2 -->
<g id="node3" class="node">
<title>medicare._ps.fips2</title>
<g id="a_node3"><a xlink:href="../medicare._ps/fips2.html" xlink:title="&lt;TABLE&gt;" target="_blank">
<polygon fill="none" stroke="black" points="414.25,-436.25 0,-436.25 0,-275.75 414.25,-275.75 414.25,-436.25"/>
<text text-anchor="start" x="152.75" y="-414.95" font-family="Times,serif" font-weight="bold" font-size="14.00">medicare._ps.fips2</text>
<text text-anchor="start" x="47.62" y="-368.45" font-family="Times,serif" font-size="14.00">2 digit state FIPS, see https://en.wikip</text>
<text text-anchor="start" x="36" y="-351.95" font-family="Times,serif" font-size="14.00">edia.org/wiki/Federal_Information_Proces</text>
<text text-anchor="start" x="81" y="-335.45" font-family="Times,serif" font-size="14.00">sing_Standard_state_code</text>
<polygon fill="none" stroke="black" points="11,-282.75 11,-305.25 403.25,-305.25 403.25,-282.75 11,-282.75"/>
<text text-anchor="start" x="14" y="-288.95" font-family="Times,serif" font-size="14.00">(SELECT fips2 FROM public.us_states as s WHERE s.ssa2 = &quot;state&quot;)</text>
<polygon fill="none" stroke="black" points="8,-279.75 8,-432.25 406.25,-432.25 406.25,-279.75 8,-279.75"/>
</a>
</g>
</g>
<!-- medicare._ps.fips2&#45;&gt;medicare._enrollments.fips2 -->
<g id="edge2" class="edge">
<title>medicare._ps.fips2&#45;&gt;medicare._enrollments.fips2</title>
<path fill="none" stroke="blue" stroke-width="5" d="M378.02,-275.3C393.09,-269.78 408.27,-264.74 423.12,-260.5 622.27,-203.67 863.44,-178.25 1001.5,-167.63"/>
<polygon fill="blue" stroke="blue" stroke-width="5" points="1001.54,-172.02 1011.19,-166.91 1000.89,-163.29 1001.54,-172.02"/>
<text text-anchor="middle" x="608.5" y="-236.95" font-family="Times,serif" font-size="14.00">	 &#160;Aggregated On bene_id, year, state</text>
</g>
<!-- medicare.ps.fips2 -->
<g id="node4" class="node">
<title>medicare.ps.fips2</title>
<g id="a_node4"><a xlink:href="../medicare.ps/fips2.html" xlink:title="&lt;TABLE&gt;" target="_blank">
<polygon fill="none" stroke="black" points="769.25,-664.25 355,-664.25 355,-503.75 769.25,-503.75 769.25,-664.25"/>
<text text-anchor="start" x="511.12" y="-642.95" font-family="Times,serif" font-weight="bold" font-size="14.00">medicare.ps.fips2</text>
<text text-anchor="start" x="402.62" y="-596.45" font-family="Times,serif" font-size="14.00">2 digit state FIPS, see https://en.wikip</text>
<text text-anchor="start" x="391" y="-579.95" font-family="Times,serif" font-size="14.00">edia.org/wiki/Federal_Information_Proces</text>
<text text-anchor="start" x="436" y="-563.45" font-family="Times,serif" font-size="14.00">sing_Standard_state_code</text>
<polygon fill="none" stroke="black" points="366,-510.75 366,-533.25 758.25,-533.25 758.25,-510.75 366,-510.75"/>
<text text-anchor="start" x="369" y="-516.95" font-family="Times,serif" font-size="14.00">(SELECT fips2 FROM public.us_states as s WHERE s.ssa2 = &quot;state&quot;)</text>
<polygon fill="none" stroke="black" points="363,-507.75 363,-660.25 761.25,-660.25 761.25,-507.75 363,-507.75"/>
</a>
</g>
</g>
<!-- medicare.ps.fips2&#45;&gt;medicare._ps.fips2 -->
<g id="edge3" class="edge">
<title>medicare.ps.fips2&#45;&gt;medicare._ps.fips2</title>
<path fill="none" stroke="black" d="M436.97,-503.32C406.21,-483.74 373.15,-462.7 341.97,-442.84"/>
<polygon fill="black" stroke="black" points="343.94,-439.95 333.63,-437.53 340.18,-445.86 343.94,-439.95"/>
<text text-anchor="middle" x="404.62" y="-464.95" font-family="Times,serif" font-size="14.00">Copied</text>
</g>
<!-- medicare._ps.fips3 -->
<g id="node6" class="node">
<title>medicare._ps.fips3</title>
<g id="a_node6"><a xlink:href="../medicare._ps/fips3.html" xlink:title="&lt;TABLE&gt;" target="_blank">
<polygon fill="none" stroke="black" points="2816.38,-385.5 431.88,-385.5 431.88,-326.5 2816.38,-326.5 2816.38,-385.5"/>
<text text-anchor="start" x="1569.75" y="-364.2" font-family="Times,serif" font-weight="bold" font-size="14.00">medicare._ps.fips3</text>
<polygon fill="none" stroke="black" points="442.88,-333.5 442.88,-356 2805.38,-356 2805.38,-333.5 442.88,-333.5"/>
<text text-anchor="start" x="445.88" y="-339.7" font-family="Times,serif" font-size="14.00">CASE WHEN ssa3 is NOT NULL THEN &#160;CASE WHEN year &gt; 2010 THEN &#160;&#160;&#160;&#160;&#160;(SELECT fips3 from public.ssa as s where ps.ssa3 = s.ssa3 and ps.year = s.year and ps.fips2 = s.fips2 ORDER BY 1 DESC LIMIT 1) &#160;&#160;&#160;ELSE &#160;&#160;&#160;&#160;&#160;(SELECT fips3 from public.ssa as s where ps.ssa3 = s.ssa3 and 2003 = s.year and ps.fips2 = s.fips2 ORDER BY 1 DESC LIMIT 1) &#160;ENDELSE &#160;(SELECT public.zip_to_fips3(year, zip))END AS fips3</text>
<polygon fill="none" stroke="black" points="439.88,-330.5 439.88,-381.5 2808.38,-381.5 2808.38,-330.5 439.88,-330.5"/>
</a>
</g>
</g>
<!-- medicare.ps.fips2&#45;&gt;medicare._ps.fips3 -->
<g id="edge6" class="edge">
<title>medicare.ps.fips2&#45;&gt;medicare._ps.fips3</title>
<path fill="none" stroke="black" d="M769.63,-511.81C797.85,-503.32 826.57,-495.27 854.12,-488.5 1033.21,-444.47 1239.31,-410.11 1393.19,-387.58"/>
<polygon fill="black" stroke="black" points="1393.29,-391.1 1402.68,-386.19 1392.28,-384.17 1393.29,-391.1"/>
<text text-anchor="middle" x="970.75" y="-464.95" font-family="Times,serif" font-size="14.00"> &#160;Transformed</text>
</g>
<!-- medicare._enrollments.fips3 -->
<g id="node5" class="node">
<title>medicare._enrollments.fips3</title>
<g id="a_node5"><a xlink:href="../medicare._enrollments/fips3.html" xlink:title="&lt;TABLE&gt;" target="_blank">
<polygon fill="none" stroke="black" points="1719.62,-189.25 1528.62,-189.25 1528.62,-130.25 1719.62,-130.25 1719.62,-189.25"/>
<text text-anchor="start" x="1541.62" y="-167.95" font-family="Times,serif" font-weight="bold" font-size="14.00">medicare._enrollments.fips3</text>
<polygon fill="none" stroke="black" points="1539.62,-137.25 1539.62,-159.75 1708.62,-159.75 1708.62,-137.25 1539.62,-137.25"/>
<text text-anchor="start" x="1542.62" y="-143.45" font-family="Times,serif" font-size="14.00">MAX(fips3)</text>
<polygon fill="none" stroke="black" points="1536.62,-134.25 1536.62,-185.25 1711.62,-185.25 1711.62,-134.25 1536.62,-134.25"/>
</a>
</g>
</g>
<!-- medicare._enrollments.fips3&#45;&gt;medicare.enrollments.fips3_valdiated -->
<g id="edge4" class="edge">
<title>medicare._enrollments.fips3&#45;&gt;medicare.enrollments.fips3_valdiated</title>
<path fill="none" stroke="black" d="M1624.12,-129.97C1624.12,-112.48 1624.12,-89.88 1624.12,-70.65"/>
<polygon fill="black" stroke="black" points="1627.63,-70.7 1624.13,-60.7 1620.63,-70.7 1627.63,-70.7"/>
<text text-anchor="middle" x="1643.62" y="-72.45" font-family="Times,serif" font-size="14.00">Copied</text>
</g>
<!-- medicare._ps.fips3&#45;&gt;medicare._enrollments.fips3 -->
<g id="edge5" class="edge">
<title>medicare._ps.fips3&#45;&gt;medicare._enrollments.fips3</title>
<path fill="none" stroke="blue" stroke-width="5" d="M1624.12,-326.34C1624.12,-294.56 1624.12,-242.89 1624.12,-205.72"/>
<polygon fill="blue" stroke="blue" stroke-width="5" points="1628.5,-205.77 1624.13,-195.77 1619.75,-205.77 1628.5,-205.77"/>
<text text-anchor="middle" x="1738.5" y="-236.95" font-family="Times,serif" font-size="14.00">	 &#160;Aggregated On bene_id, year, state</text>
</g>
<!-- medicare.ps.year -->
<g id="node7" class="node">
<title>medicare.ps.year</title>
<g id="a_node7"><a xlink:href="../medicare.ps/year.html" xlink:title="&lt;TABLE&gt;" target="_blank">
<polygon fill="none" stroke="black" points="1981,-647.75 863.25,-647.75 863.25,-520.25 1981,-520.25 1981,-647.75"/>
<text text-anchor="start" x="1372.25" y="-626.45" font-family="Times,serif" font-weight="bold" font-size="14.00">medicare.ps.year</text>
<text text-anchor="start" x="899.25" y="-579.95" font-family="Times,serif" font-size="14.00">Beneficiary Enrollment Reference Year</text>
<polygon fill="none" stroke="black" points="874.25,-527.25 874.25,-549.75 1970,-549.75 1970,-527.25 874.25,-527.25"/>
<text text-anchor="start" x="877.25" y="-533.45" font-family="Times,serif" font-size="14.00">(CASE WHEN &quot;year&quot;::int &lt; 20 THEN (2000 + &quot;year&quot;::int) WHEN (20 &lt; &quot;year&quot;::int AND &quot;year&quot;::int &lt; 100) THEN (1900 + &quot;year&quot;::int) WHEN &quot;year&quot; IS NULL THEN 2000 ELSE &quot;year&quot;::int END)</text>
<polygon fill="none" stroke="black" points="871.25,-524.25 871.25,-643.75 1973,-643.75 1973,-524.25 871.25,-524.25"/>
</a>
</g>
</g>
<!-- medicare.ps.year&#45;&gt;medicare._ps.fips3 -->
<g id="edge7" class="edge">
<title>medicare.ps.year&#45;&gt;medicare._ps.fips3</title>
<path fill="none" stroke="black" d="M1478.39,-520.05C1514.55,-479.59 1560.3,-428.41 1590.8,-394.29"/>
<polygon fill="black" stroke="black" points="1593.14,-396.91 1597.2,-387.12 1587.93,-392.25 1593.14,-396.91"/>
<text text-anchor="middle" x="1561.75" y="-464.95" font-family="Times,serif" font-size="14.00"> &#160;Transformed</text>
</g>
<!-- medicare.ps.year_parent -->
<g id="node8" class="node">
<title>medicare.ps.year_parent</title>
<g id="a_node8"><a xlink:href="../medicare.ps/year.html" xlink:title="8 incoming links (columns)" target="_blank">
<path fill="yellow" stroke="black" d="M1530.12,-814.68C1530.12,-820.1 1481.72,-824.5 1422.12,-824.5 1362.53,-824.5 1314.12,-820.1 1314.12,-814.68 1314.12,-814.68 1314.12,-726.32 1314.12,-726.32 1314.12,-720.9 1362.53,-716.5 1422.12,-716.5 1481.72,-716.5 1530.12,-720.9 1530.12,-726.32 1530.12,-726.32 1530.12,-814.68 1530.12,-814.68"/>
<path fill="none" stroke="black" d="M1530.12,-814.68C1530.12,-809.26 1481.72,-804.86 1422.12,-804.86 1362.53,-804.86 1314.12,-809.26 1314.12,-814.68"/>
<text text-anchor="middle" x="1422.12" y="-765.45" font-family="Times,serif" font-size="14.00">8 incoming links (columns)</text>
</a>
</g>
</g>
<!-- medicare.ps.year_parent&#45;&gt;medicare.ps.year -->
<g id="edge8" class="edge">
<title>medicare.ps.year_parent&#45;&gt;medicare.ps.year</title>
<path fill="none" stroke="goldenrod" stroke-width="6" d="M1422.12,-716.13C1422.12,-699.92 1422.12,-681.75 1422.12,-664.21"/>
<polygon fill="goldenrod" stroke="goldenrod" stroke-width="6" points="1427.38,-664.48 1422.13,-654.48 1416.88,-664.48 1427.38,-664.48"/>
</g>
<!-- medicare.ps.ssa3 -->
<g id="node9" class="node">
<title>medicare.ps.ssa3</title>
<g id="a_node9"><a xlink:href="../medicare.ps/ssa3.html" xlink:title="&lt;TABLE&gt;" target="_blank">
<polygon fill="none" stroke="black" points="2276.88,-643.75 1999.38,-643.75 1999.38,-524.25 2276.88,-524.25 2276.88,-643.75"/>
<text text-anchor="start" x="2089" y="-622.45" font-family="Times,serif" font-weight="bold" font-size="14.00">medicare.ps.ssa3</text>
<text text-anchor="start" x="2035.38" y="-575.95" font-family="Times,serif" font-size="14.00">Social Security Administration (SSA)</text>
<text text-anchor="start" x="2065.75" y="-559.45" font-family="Times,serif" font-size="14.00">three digit code for county</text>
<polygon fill="none" stroke="black" points="2007.38,-528.25 2007.38,-639.75 2268.88,-639.75 2268.88,-528.25 2007.38,-528.25"/>
</a>
</g>
</g>
<!-- medicare.ps.ssa3&#45;&gt;medicare._ps.fips3 -->
<g id="edge9" class="edge">
<title>medicare.ps.ssa3&#45;&gt;medicare._ps.fips3</title>
<path fill="none" stroke="black" d="M2052.75,-523.94C2032.7,-511.36 2011.06,-498.78 1990.12,-488.5 1907.09,-447.71 1808.1,-412.92 1734.02,-389.38"/>
<polygon fill="black" stroke="black" points="1735.31,-386.12 1724.72,-386.45 1733.2,-392.8 1735.31,-386.12"/>
<text text-anchor="middle" x="1988.75" y="-464.95" font-family="Times,serif" font-size="14.00"> &#160;Transformed</text>
</g>
<!-- medicare.ps.ssa3_parent -->
<g id="node10" class="node">
<title>medicare.ps.ssa3_parent</title>
<g id="a_node10"><a xlink:href="../medicare.ps/ssa3.html" xlink:title="8 incoming links (columns)" target="_blank">
<path fill="yellow" stroke="black" d="M2246.12,-814.68C2246.12,-820.1 2197.72,-824.5 2138.12,-824.5 2078.53,-824.5 2030.12,-820.1 2030.12,-814.68 2030.12,-814.68 2030.12,-726.32 2030.12,-726.32 2030.12,-720.9 2078.53,-716.5 2138.12,-716.5 2197.72,-716.5 2246.12,-720.9 2246.12,-726.32 2246.12,-726.32 2246.12,-814.68 2246.12,-814.68"/>
<path fill="none" stroke="black" d="M2246.12,-814.68C2246.12,-809.26 2197.72,-804.86 2138.12,-804.86 2078.53,-804.86 2030.12,-809.26 2030.12,-814.68"/>
<text text-anchor="middle" x="2138.12" y="-765.45" font-family="Times,serif" font-size="14.00">8 incoming links (columns)</text>
</a>
</g>
</g>
<!-- medicare.ps.ssa3_parent&#45;&gt;medicare.ps.ssa3 -->
<g id="edge10" class="edge">
<title>medicare.ps.ssa3_parent&#45;&gt;medicare.ps.ssa3</title>
<path fill="none" stroke="goldenrod" stroke-width="6" d="M2138.12,-716.13C2138.12,-698.77 2138.12,-679.16 2138.12,-660.5"/>
<polygon fill="goldenrod" stroke="goldenrod" stroke-width="6" points="2143.38,-660.52 2138.13,-650.52 2132.88,-660.52 2143.38,-660.52"/>
</g>
<!-- medicare._enrollments.zip -->
<g id="node11" class="node">
<title>medicare._enrollments.zip</title>
<g id="a_node11"><a xlink:href="../medicare._enrollments/zip.html" xlink:title="&lt;TABLE&gt;" target="_blank">
<polygon fill="none" stroke="black" points="2662.75,-223.5 2465.5,-223.5 2465.5,-96 2662.75,-96 2662.75,-223.5"/>
<text text-anchor="start" x="2486.88" y="-202.2" font-family="Times,serif" font-weight="bold" font-size="14.00">medicare._enrollments.zip</text>
<text text-anchor="start" x="2501.5" y="-155.7" font-family="Times,serif" font-size="14.00">Zip Code of Residence</text>
<polygon fill="none" stroke="black" points="2476.5,-103 2476.5,-125.5 2651.75,-125.5 2651.75,-103 2476.5,-103"/>
<text text-anchor="start" x="2479.5" y="-109.2" font-family="Times,serif" font-size="14.00">MAX(zip)</text>
<polygon fill="none" stroke="black" points="2473.5,-100 2473.5,-219.5 2654.75,-219.5 2654.75,-100 2473.5,-100"/>
</a>
</g>
</g>
<!-- medicare._enrollments.zip&#45;&gt;medicare.enrollments.fips3_valdiated -->
<g id="edge11" class="edge">
<title>medicare._enrollments.zip&#45;&gt;medicare.enrollments.fips3_valdiated</title>
<path fill="none" stroke="black" d="M2465.31,-145.27C2313.87,-124.61 2021.29,-84.69 1824.32,-57.81"/>
<polygon fill="black" stroke="black" points="1824.84,-54.35 1814.45,-56.47 1823.89,-61.29 1824.84,-54.35"/>
<text text-anchor="middle" x="1988.62" y="-72.45" font-family="Times,serif" font-size="14.00">Copied</text>
</g>
<!-- medicare._ps.zip -->
<g id="node12" class="node">
<title>medicare._ps.zip</title>
<g id="a_node12"><a xlink:href="../medicare._ps/zip.html" xlink:title="&lt;TABLE&gt;" target="_blank">
<polygon fill="none" stroke="black" points="3749.62,-451.5 2834.62,-451.5 2834.62,-260.5 3749.62,-260.5 3749.62,-451.5"/>
<text text-anchor="start" x="2922" y="-430.2" font-family="Times,serif" font-weight="bold" font-size="14.00">medicare._ps.zip</text>
<text text-anchor="start" x="2870.62" y="-384.2" font-family="Times,serif" font-size="14.00">US Postal ZIP code, the first 5 digits</text>
<text text-anchor="start" x="2959.88" y="-367.7" font-family="Times,serif" font-size="14.00">of it</text>
<polygon fill="none" stroke="black" points="2845.62,-315.5 2845.62,-337.5 3096.62,-337.5 3096.62,-315.5 2845.62,-315.5"/>
<text text-anchor="start" x="2848.62" y="-321.2" font-family="Times,serif" font-size="14.00">numeric →</text>
<polygon fill="none" stroke="black" points="3098.62,-315.5 3098.62,-337.5 3738.62,-337.5 3738.62,-315.5 3098.62,-315.5"/>
<text text-anchor="start" x="3101.38" y="-321.2" font-family="Times,serif" font-size="14.00">(CASE WHEN {column_name} &lt; 100000 THEN {column_name}::int ELSE ({column_name}/10000)::INT END)</text>
<polygon fill="none" stroke="black" points="2845.62,-291.5 2845.62,-313.5 3096.62,-313.5 3096.62,-291.5 2845.62,-291.5"/>
<text text-anchor="start" x="2848.62" y="-297.2" font-family="Times,serif" font-size="14.00">character varying →</text>
<polygon fill="none" stroke="black" points="3098.62,-291.5 3098.62,-313.5 3738.62,-313.5 3738.62,-291.5 3098.62,-291.5"/>
<text text-anchor="start" x="3101.62" y="-297.2" font-family="Times,serif" font-size="14.00">SUBSTRING({column_name} FROM 1 FOR 5)::INT</text>
<polygon fill="none" stroke="black" points="2845.62,-267.5 2845.62,-289.5 3096.62,-289.5 3096.62,-267.5 2845.62,-267.5"/>
<text text-anchor="start" x="2848.62" y="-273.2" font-family="Times,serif" font-size="14.00">integer →</text>
<polygon fill="none" stroke="black" points="3098.62,-267.5 3098.62,-289.5 3738.62,-289.5 3738.62,-267.5 3098.62,-267.5"/>
<text text-anchor="start" x="3101.62" y="-273.2" font-family="Times,serif" font-size="14.00">{column_name}::INT</text>
<polygon fill="none" stroke="black" points="2842.62,-264.5 2842.62,-447.5 3741.62,-447.5 3741.62,-264.5 2842.62,-264.5"/>
</a>
</g>
</g>
<!-- medicare._ps.zip&#45;&gt;medicare._enrollments.zip -->
<g id="edge12" class="edge">
<title>medicare._ps.zip&#45;&gt;medicare._enrollments.zip</title>
<path fill="none" stroke="blue" stroke-width="5" d="M2936.12,-260.01C2842.76,-235.1 2748.69,-210 2678.51,-191.27"/>
<polygon fill="blue" stroke="blue" stroke-width="5" points="2679.82,-187.09 2669.03,-188.74 2677.56,-195.55 2679.82,-187.09"/>
<text text-anchor="middle" x="2983.5" y="-236.95" font-family="Times,serif" font-size="14.00">	 &#160;Aggregated On bene_id, year, state</text>
</g>
<!-- medicare.ps.zip -->
<g id="node13" class="node">
<title>medicare.ps.zip</title>
<g id="a_node13"><a xlink:href="../medicare.ps/zip.html" xlink:title="&lt;TABLE&gt;" target="_blank">
<polygon fill="none" stroke="black" points="3749.62,-679.5 2834.62,-679.5 2834.62,-488.5 3749.62,-488.5 3749.62,-679.5"/>
<text text-anchor="start" x="2925.38" y="-658.2" font-family="Times,serif" font-weight="bold" font-size="14.00">medicare.ps.zip</text>
<text text-anchor="start" x="2870.62" y="-612.2" font-family="Times,serif" font-size="14.00">US Postal ZIP code, the first 5 digits</text>
<text text-anchor="start" x="2959.88" y="-595.7" font-family="Times,serif" font-size="14.00">of it</text>
<polygon fill="none" stroke="black" points="2845.62,-543.5 2845.62,-565.5 3096.62,-565.5 3096.62,-543.5 2845.62,-543.5"/>
<text text-anchor="start" x="2848.62" y="-549.2" font-family="Times,serif" font-size="14.00">numeric →</text>
<polygon fill="none" stroke="black" points="3098.62,-543.5 3098.62,-565.5 3738.62,-565.5 3738.62,-543.5 3098.62,-543.5"/>
<text text-anchor="start" x="3101.38" y="-549.2" font-family="Times,serif" font-size="14.00">(CASE WHEN {column_name} &lt; 100000 THEN {column_name}::int ELSE ({column_name}/10000)::INT END)</text>
<polygon fill="none" stroke="black" points="2845.62,-519.5 2845.62,-541.5 3096.62,-541.5 3096.62,-519.5 2845.62,-519.5"/>
<text text-anchor="start" x="2848.62" y="-525.2" font-family="Times,serif" font-size="14.00">character varying →</text>
<polygon fill="none" stroke="black" points="3098.62,-519.5 3098.62,-541.5 3738.62,-541.5 3738.62,-519.5 3098.62,-519.5"/>
<text text-anchor="start" x="3101.62" y="-525.2" font-family="Times,serif" font-size="14.00">SUBSTRING({column_name} FROM 1 FOR 5)::INT</text>
<polygon fill="none" stroke="black" points="2845.62,-495.5 2845.62,-517.5 3096.62,-517.5 3096.62,-495.5 2845.62,-495.5"/>
<text text-anchor="start" x="2848.62" y="-501.2" font-family="Times,serif" font-size="14.00">integer →</text>
<polygon fill="none" stroke="black" points="3098.62,-495.5 3098.62,-517.5 3738.62,-517.5 3738.62,-495.5 3098.62,-495.5"/>
<text text-anchor="start" x="3101.62" y="-501.2" font-family="Times,serif" font-size="14.00">{column_name}::INT</text>
<polygon fill="none" stroke="black" points="2842.62,-492.5 2842.62,-675.5 3741.62,-675.5 3741.62,-492.5 2842.62,-492.5"/>
</a>
</g>
</g>
<!-- medicare.ps.zip&#45;&gt;medicare._ps.zip -->
<g id="edge13" class="edge">
<title>medicare.ps.zip&#45;&gt;medicare._ps.zip</title>
<path fill="none" stroke="black" d="M3292.12,-488.14C3292.12,-479.92 3292.12,-471.56 3292.12,-463.26"/>
<polygon fill="black" stroke="black" points="3295.63,-463.5 3292.13,-453.5 3288.63,-463.5 3295.63,-463.5"/>
<text text-anchor="middle" x="3311.62" y="-464.95" font-family="Times,serif" font-size="14.00">Copied</text>
</g>
<!-- medicare.ps.zip_parent -->
<g id="node14" class="node">
<title>medicare.ps.zip_parent</title>
<g id="a_node14"><a xlink:href="../medicare.ps/zip.html" xlink:title="8 incoming links (columns)" target="_blank">
<path fill="yellow" stroke="black" d="M3400.12,-814.68C3400.12,-820.1 3351.72,-824.5 3292.12,-824.5 3232.53,-824.5 3184.12,-820.1 3184.12,-814.68 3184.12,-814.68 3184.12,-726.32 3184.12,-726.32 3184.12,-720.9 3232.53,-716.5 3292.12,-716.5 3351.72,-716.5 3400.12,-720.9 3400.12,-726.32 3400.12,-726.32 3400.12,-814.68 3400.12,-814.68"/>
<path fill="none" stroke="black" d="M3400.12,-814.68C3400.12,-809.26 3351.72,-804.86 3292.12,-804.86 3232.53,-804.86 3184.12,-809.26 3184.12,-814.68"/>
<text text-anchor="middle" x="3292.12" y="-765.45" font-family="Times,serif" font-size="14.00">8 incoming links (columns)</text>
</a>
</g>
</g>
<!-- medicare.ps.zip_parent&#45;&gt;medicare.ps.zip -->
<g id="edge14" class="edge">
<title>medicare.ps.zip_parent&#45;&gt;medicare.ps.zip</title>
<path fill="none" stroke="goldenrod" stroke-width="6" d="M3292.12,-716.13C3292.12,-709.73 3292.12,-703.02 3292.12,-696.16"/>
<polygon fill="goldenrod" stroke="goldenrod" stroke-width="6" points="3297.38,-696.43 3292.13,-686.43 3286.88,-696.43 3297.38,-696.43"/>
</g>
</g>
</svg>
