<?xml version="1.0" encoding="UTF-8" standalone="no"?>
<!DOCTYPE svg PUBLIC "-//W3C//DTD SVG 1.1//EN"
 "http://www.w3.org/Graphics/SVG/1.1/DTD/svg11.dtd">
<!-- Generated by graphviz version 10.0.1 (20240210.2158)
 -->
<!-- Pages: 1 -->
<svg width="2475pt" height="771pt"
 viewBox="0.00 0.00 2475.12 770.50" xmlns="http://www.w3.org/2000/svg" xmlns:xlink="http://www.w3.org/1999/xlink">
<g id="graph0" class="graph" transform="scale(1 1) rotate(0) translate(4 766.5)">
<polygon fill="white" stroke="none" points="-4,4 -4,-766.5 2471.12,-766.5 2471.12,4 -4,4"/>
<!-- medicare.qc_enrollments.fips3 -->
<g id="node1" class="node">
<title>medicare.qc_enrollments.fips3</title>
<g id="a_node1"><a xlink:href="../medicare.qc_enrollments/fips3.html" xlink:title="&lt;TABLE&gt;" target="_blank">
<polygon fill="none" stroke="black" points="1294.5,-36 1090,-36 1090,0 1294.5,0 1294.5,-36"/>
<text text-anchor="start" x="1103" y="-13.95" font-family="Times,serif" font-weight="bold" font-size="14.00">medicare.qc_enrollments.fips3</text>
<polygon fill="none" stroke="black" points="1098,-4.75 1098,-31.25 1286.5,-31.25 1286.5,-4.75 1098,-4.75"/>
</a>
</g>
</g>
<!-- medicare.qc_enrl_bene.fips3 -->
<g id="node2" class="node">
<title>medicare.qc_enrl_bene.fips3</title>
<g id="a_node2"><a xlink:href="../medicare.qc_enrl_bene/fips3.html" xlink:title="&lt;TABLE&gt;" target="_blank">
<polygon fill="none" stroke="black" points="1288.5,-132 1096,-132 1096,-73 1288.5,-73 1288.5,-132"/>
<text text-anchor="start" x="1109" y="-110.7" font-family="Times,serif" font-weight="bold" font-size="14.00">medicare.qc_enrl_bene.fips3</text>
<polygon fill="none" stroke="black" points="1107,-80 1107,-102.5 1277.5,-102.5 1277.5,-80 1107,-80"/>
<text text-anchor="start" x="1110" y="-86.2" font-family="Times,serif" font-size="14.00">MAX(fips3)</text>
<polygon fill="none" stroke="black" points="1104,-77 1104,-128 1280.5,-128 1280.5,-77 1104,-77"/>
</a>
</g>
</g>
<!-- medicare.qc_enrl_bene.fips3&#45;&gt;medicare.qc_enrollments.fips3 -->
<g id="edge1" class="edge">
<title>medicare.qc_enrl_bene.fips3&#45;&gt;medicare.qc_enrollments.fips3</title>
<path fill="none" stroke="black" d="M1192.25,-72.65C1192.25,-64.62 1192.25,-55.91 1192.25,-47.89"/>
<polygon fill="black" stroke="black" points="1195.75,-47.93 1192.25,-37.93 1188.75,-47.93 1195.75,-47.93"/>
<text text-anchor="middle" x="1230.88" y="-49.45" font-family="Times,serif" font-size="14.00"> &#160;Transformed</text>
</g>
<!-- medicare.enrollments.fips3 -->
<g id="node3" class="node">
<title>medicare.enrollments.fips3</title>
<g id="a_node3"><a xlink:href="../medicare.enrollments/fips3.html" xlink:title="&lt;TABLE&gt;" target="_blank">
<polygon fill="none" stroke="black" points="1284.38,-228 1100.12,-228 1100.12,-169 1284.38,-169 1284.38,-228"/>
<text text-anchor="start" x="1113.12" y="-206.7" font-family="Times,serif" font-weight="bold" font-size="14.00">medicare.enrollments.fips3</text>
<polygon fill="none" stroke="black" points="1111.12,-176 1111.12,-198.5 1273.38,-198.5 1273.38,-176 1111.12,-176"/>
<text text-anchor="start" x="1114.12" y="-182.2" font-family="Times,serif" font-size="14.00">MAX(fips3)</text>
<polygon fill="none" stroke="black" points="1108.12,-173 1108.12,-224 1276.38,-224 1276.38,-173 1108.12,-173"/>
</a>
</g>
</g>
<!-- medicare.enrollments.fips3&#45;&gt;medicare.qc_enrl_bene.fips3 -->
<g id="edge2" class="edge">
<title>medicare.enrollments.fips3&#45;&gt;medicare.qc_enrl_bene.fips3</title>
<path fill="none" stroke="black" d="M1192.25,-168.53C1192.25,-160.68 1192.25,-152.05 1192.25,-143.7"/>
<polygon fill="black" stroke="black" points="1195.75,-143.73 1192.25,-133.73 1188.75,-143.73 1195.75,-143.73"/>
<text text-anchor="middle" x="1238.38" y="-145.45" font-family="Times,serif" font-size="14.00">	join natural</text>
</g>
<!-- medicare._enrollments.fips3 -->
<g id="node4" class="node">
<title>medicare._enrollments.fips3</title>
<g id="a_node4"><a xlink:href="../medicare._enrollments/fips3.html" xlink:title="&lt;TABLE&gt;" target="_blank">
<polygon fill="none" stroke="black" points="1287.75,-324 1096.75,-324 1096.75,-265 1287.75,-265 1287.75,-324"/>
<text text-anchor="start" x="1109.75" y="-302.7" font-family="Times,serif" font-weight="bold" font-size="14.00">medicare._enrollments.fips3</text>
<polygon fill="none" stroke="black" points="1107.75,-272 1107.75,-294.5 1276.75,-294.5 1276.75,-272 1107.75,-272"/>
<text text-anchor="start" x="1110.75" y="-278.2" font-family="Times,serif" font-size="14.00">MAX(fips3)</text>
<polygon fill="none" stroke="black" points="1104.75,-269 1104.75,-320 1279.75,-320 1279.75,-269 1104.75,-269"/>
</a>
</g>
</g>
<!-- medicare._enrollments.fips3&#45;&gt;medicare.enrollments.fips3 -->
<g id="edge3" class="edge">
<title>medicare._enrollments.fips3&#45;&gt;medicare.enrollments.fips3</title>
<path fill="none" stroke="black" d="M1192.25,-264.53C1192.25,-256.68 1192.25,-248.05 1192.25,-239.7"/>
<polygon fill="black" stroke="black" points="1195.75,-239.73 1192.25,-229.73 1188.75,-239.73 1195.75,-239.73"/>
<text text-anchor="middle" x="1211.75" y="-241.45" font-family="Times,serif" font-size="14.00">Copied</text>
</g>
<!-- medicare._ps.fips3 -->
<g id="node5" class="node">
<title>medicare._ps.fips3</title>
<g id="a_node5"><a xlink:href="../medicare._ps/fips3.html" xlink:title="&lt;TABLE&gt;" target="_blank">
<polygon fill="none" stroke="black" points="2384.5,-420 0,-420 0,-361 2384.5,-361 2384.5,-420"/>
<text text-anchor="start" x="1137.88" y="-398.7" font-family="Times,serif" font-weight="bold" font-size="14.00">medicare._ps.fips3</text>
<polygon fill="none" stroke="black" points="11,-368 11,-390.5 2373.5,-390.5 2373.5,-368 11,-368"/>
<text text-anchor="start" x="14" y="-374.2" font-family="Times,serif" font-size="14.00">CASE WHEN ssa3 is NOT NULL THEN &#160;CASE WHEN year &gt; 2010 THEN &#160;&#160;&#160;&#160;&#160;(SELECT fips3 from public.ssa as s where ps.ssa3 = s.ssa3 and ps.year = s.year and ps.fips2 = s.fips2 ORDER BY 1 DESC LIMIT 1) &#160;&#160;&#160;ELSE &#160;&#160;&#160;&#160;&#160;(SELECT fips3 from public.ssa as s where ps.ssa3 = s.ssa3 and 2003 = s.year and ps.fips2 = s.fips2 ORDER BY 1 DESC LIMIT 1) &#160;ENDELSE &#160;(SELECT public.zip_to_fips3(year, zip))END AS fips3</text>
<polygon fill="none" stroke="black" points="8,-365 8,-416 2376.5,-416 2376.5,-365 8,-365"/>
</a>
</g>
</g>
<!-- medicare._ps.fips3&#45;&gt;medicare._enrollments.fips3 -->
<g id="edge4" class="edge">
<title>medicare._ps.fips3&#45;&gt;medicare._enrollments.fips3</title>
<path fill="none" stroke="blue" stroke-width="5" d="M1192.25,-360.53C1192.25,-354.13 1192.25,-347.2 1192.25,-340.33"/>
<polygon fill="blue" stroke="blue" stroke-width="5" points="1196.63,-340.45 1192.25,-330.45 1187.88,-340.45 1196.63,-340.45"/>
<text text-anchor="middle" x="1306.62" y="-337.45" font-family="Times,serif" font-size="14.00">	 &#160;Aggregated On bene_id, year, state</text>
</g>
<!-- medicare.ps.fips2 -->
<g id="node6" class="node">
<title>medicare.ps.fips2</title>
<g id="a_node6"><a xlink:href="../medicare.ps/fips2.html" xlink:title="&lt;TABLE&gt;" target="_blank">
<polygon fill="none" stroke="black" points="1035.38,-617.5 621.12,-617.5 621.12,-457 1035.38,-457 1035.38,-617.5"/>
<text text-anchor="start" x="777.25" y="-596.2" font-family="Times,serif" font-weight="bold" font-size="14.00">medicare.ps.fips2</text>
<text text-anchor="start" x="668.75" y="-549.7" font-family="Times,serif" font-size="14.00">2 digit state FIPS, see https://en.wikip</text>
<text text-anchor="start" x="657.12" y="-533.2" font-family="Times,serif" font-size="14.00">edia.org/wiki/Federal_Information_Proces</text>
<text text-anchor="start" x="702.12" y="-516.7" font-family="Times,serif" font-size="14.00">sing_Standard_state_code</text>
<polygon fill="none" stroke="black" points="632.12,-464 632.12,-486.5 1024.38,-486.5 1024.38,-464 632.12,-464"/>
<text text-anchor="start" x="635.12" y="-470.2" font-family="Times,serif" font-size="14.00">(SELECT fips2 FROM public.us_states as s WHERE s.ssa2 = &quot;state&quot;)</text>
<polygon fill="none" stroke="black" points="629.12,-461 629.12,-613.5 1027.38,-613.5 1027.38,-461 629.12,-461"/>
</a>
</g>
</g>
<!-- medicare.ps.fips2&#45;&gt;medicare._ps.fips3 -->
<g id="edge5" class="edge">
<title>medicare.ps.fips2&#45;&gt;medicare._ps.fips3</title>
<path fill="none" stroke="black" d="M1028.62,-456.57C1056.93,-445.31 1084.65,-434.29 1108.99,-424.61"/>
<polygon fill="black" stroke="black" points="1110.16,-427.91 1118.16,-420.96 1107.57,-421.41 1110.16,-427.91"/>
<text text-anchor="middle" x="1113.88" y="-433.45" font-family="Times,serif" font-size="14.00"> &#160;Transformed</text>
</g>
<!-- medicare.ps.ssa3 -->
<g id="node7" class="node">
<title>medicare.ps.ssa3</title>
<g id="a_node7"><a xlink:href="../medicare.ps/ssa3.html" xlink:title="&lt;TABLE&gt;" target="_blank">
<polygon fill="none" stroke="black" points="1331,-597 1053.5,-597 1053.5,-477.5 1331,-477.5 1331,-597"/>
<text text-anchor="start" x="1143.12" y="-575.7" font-family="Times,serif" font-weight="bold" font-size="14.00">medicare.ps.ssa3</text>
<text text-anchor="start" x="1089.5" y="-529.2" font-family="Times,serif" font-size="14.00">Social Security Administration (SSA)</text>
<text text-anchor="start" x="1119.88" y="-512.7" font-family="Times,serif" font-size="14.00">three digit code for county</text>
<polygon fill="none" stroke="black" points="1061.5,-481.5 1061.5,-593 1323,-593 1323,-481.5 1061.5,-481.5"/>
</a>
</g>
</g>
<!-- medicare.ps.ssa3&#45;&gt;medicare._ps.fips3 -->
<g id="edge6" class="edge">
<title>medicare.ps.ssa3&#45;&gt;medicare._ps.fips3</title>
<path fill="none" stroke="black" d="M1192.25,-477.37C1192.25,-461.97 1192.25,-445.71 1192.25,-431.54"/>
<polygon fill="black" stroke="black" points="1195.75,-431.7 1192.25,-421.7 1188.75,-431.7 1195.75,-431.7"/>
<text text-anchor="middle" x="1230.88" y="-433.45" font-family="Times,serif" font-size="14.00"> &#160;Transformed</text>
</g>
<!-- medicare.ps.ssa3_parent -->
<g id="node8" class="node">
<title>medicare.ps.ssa3_parent</title>
<g id="a_node8"><a xlink:href="../medicare.ps/ssa3.html" xlink:title="8 incoming links (columns)" target="_blank">
<path fill="yellow" stroke="black" d="M1300.25,-752.68C1300.25,-758.1 1251.84,-762.5 1192.25,-762.5 1132.66,-762.5 1084.25,-758.1 1084.25,-752.68 1084.25,-752.68 1084.25,-664.32 1084.25,-664.32 1084.25,-658.9 1132.66,-654.5 1192.25,-654.5 1251.84,-654.5 1300.25,-658.9 1300.25,-664.32 1300.25,-664.32 1300.25,-752.68 1300.25,-752.68"/>
<path fill="none" stroke="black" d="M1300.25,-752.68C1300.25,-747.26 1251.84,-742.86 1192.25,-742.86 1132.66,-742.86 1084.25,-747.26 1084.25,-752.68"/>
<text text-anchor="middle" x="1192.25" y="-703.45" font-family="Times,serif" font-size="14.00">8 incoming links (columns)</text>
</a>
</g>
</g>
<!-- medicare.ps.ssa3_parent&#45;&gt;medicare.ps.ssa3 -->
<g id="edge7" class="edge">
<title>medicare.ps.ssa3_parent&#45;&gt;medicare.ps.ssa3</title>
<path fill="none" stroke="goldenrod" stroke-width="6" d="M1192.25,-654.41C1192.25,-641.38 1192.25,-627.19 1192.25,-613.34"/>
<polygon fill="goldenrod" stroke="goldenrod" stroke-width="6" points="1197.5,-613.79 1192.25,-603.79 1187,-613.79 1197.5,-613.79"/>
</g>
<!-- medicare.ps.year -->
<g id="node9" class="node">
<title>medicare.ps.year</title>
<g id="a_node9"><a xlink:href="../medicare.ps/year.html" xlink:title="&lt;TABLE&gt;" target="_blank">
<polygon fill="none" stroke="black" points="2467.12,-601 1349.38,-601 1349.38,-473.5 2467.12,-473.5 2467.12,-601"/>
<text text-anchor="start" x="1858.38" y="-579.7" font-family="Times,serif" font-weight="bold" font-size="14.00">medicare.ps.year</text>
<text text-anchor="start" x="1385.38" y="-533.2" font-family="Times,serif" font-size="14.00">Beneficiary Enrollment Reference Year</text>
<polygon fill="none" stroke="black" points="1360.38,-480.5 1360.38,-503 2456.12,-503 2456.12,-480.5 1360.38,-480.5"/>
<text text-anchor="start" x="1363.38" y="-486.7" font-family="Times,serif" font-size="14.00">(CASE WHEN &quot;year&quot;::int &lt; 20 THEN (2000 + &quot;year&quot;::int) WHEN (20 &lt; &quot;year&quot;::int AND &quot;year&quot;::int &lt; 100) THEN (1900 + &quot;year&quot;::int) WHEN &quot;year&quot; IS NULL THEN 2000 ELSE &quot;year&quot;::int END)</text>
<polygon fill="none" stroke="black" points="1357.38,-477.5 1357.38,-597 2459.12,-597 2459.12,-477.5 1357.38,-477.5"/>
</a>
</g>
</g>
<!-- medicare.ps.year&#45;&gt;medicare._ps.fips3 -->
<g id="edge8" class="edge">
<title>medicare.ps.year&#45;&gt;medicare._ps.fips3</title>
<path fill="none" stroke="black" d="M1595.5,-473.02C1509.21,-455.58 1419.36,-437.41 1346.42,-422.67"/>
<polygon fill="black" stroke="black" points="1347.31,-419.28 1336.81,-420.73 1345.92,-426.14 1347.31,-419.28"/>
<text text-anchor="middle" x="1462.88" y="-433.45" font-family="Times,serif" font-size="14.00"> &#160;Transformed</text>
</g>
<!-- medicare.ps.year_parent -->
<g id="node10" class="node">
<title>medicare.ps.year_parent</title>
<g id="a_node10"><a xlink:href="../medicare.ps/year.html" xlink:title="8 incoming links (columns)" target="_blank">
<path fill="yellow" stroke="black" d="M2016.25,-752.68C2016.25,-758.1 1967.84,-762.5 1908.25,-762.5 1848.66,-762.5 1800.25,-758.1 1800.25,-752.68 1800.25,-752.68 1800.25,-664.32 1800.25,-664.32 1800.25,-658.9 1848.66,-654.5 1908.25,-654.5 1967.84,-654.5 2016.25,-658.9 2016.25,-664.32 2016.25,-664.32 2016.25,-752.68 2016.25,-752.68"/>
<path fill="none" stroke="black" d="M2016.25,-752.68C2016.25,-747.26 1967.84,-742.86 1908.25,-742.86 1848.66,-742.86 1800.25,-747.26 1800.25,-752.68"/>
<text text-anchor="middle" x="1908.25" y="-703.45" font-family="Times,serif" font-size="14.00">8 incoming links (columns)</text>
</a>
</g>
</g>
<!-- medicare.ps.year_parent&#45;&gt;medicare.ps.year -->
<g id="edge9" class="edge">
<title>medicare.ps.year_parent&#45;&gt;medicare.ps.year</title>
<path fill="none" stroke="goldenrod" stroke-width="6" d="M1908.25,-654.41C1908.25,-642.68 1908.25,-630.01 1908.25,-617.5"/>
<polygon fill="goldenrod" stroke="goldenrod" stroke-width="6" points="1913.5,-617.68 1908.25,-607.68 1903,-617.68 1913.5,-617.68"/>
</g>
</g>
</svg>
