<?xml version="1.0" encoding="UTF-8" standalone="no"?>
<!DOCTYPE svg PUBLIC "-//W3C//DTD SVG 1.1//EN"
 "http://www.w3.org/Graphics/SVG/1.1/DTD/svg11.dtd">
<!-- Generated by graphviz version 10.0.1 (20240210.2158)
 -->
<!-- Pages: 1 -->
<svg width="2475pt" height="602pt"
 viewBox="0.00 0.00 2475.12 601.50" xmlns="http://www.w3.org/2000/svg" xmlns:xlink="http://www.w3.org/1999/xlink">
<g id="graph0" class="graph" transform="scale(1 1) rotate(0) translate(4 597.5)">
<polygon fill="white" stroke="none" points="-4,4 -4,-597.5 2471.12,-597.5 2471.12,4 -4,4"/>
<!-- medicare.enrollments.fips3 -->
<g id="node1" class="node">
<title>medicare.enrollments.fips3</title>
<g id="a_node1"><a xlink:href="../medicare.enrollments/fips3.html" xlink:title="&lt;TABLE&gt;" target="_blank">
<polygon fill="none" stroke="black" points="1367,-59 1182.75,-59 1182.75,0 1367,0 1367,-59"/>
<text text-anchor="start" x="1195.75" y="-37.7" font-family="Times,serif" font-weight="bold" font-size="14.00">medicare.enrollments.fips3</text>
<polygon fill="none" stroke="black" points="1193.75,-7 1193.75,-29.5 1356,-29.5 1356,-7 1193.75,-7"/>
<text text-anchor="start" x="1196.75" y="-13.2" font-family="Times,serif" font-size="14.00">MAX(fips3)</text>
<polygon fill="none" stroke="black" points="1190.75,-4 1190.75,-55 1359,-55 1359,-4 1190.75,-4"/>
</a>
</g>
</g>
<!-- medicare._enrollments.fips3 -->
<g id="node2" class="node">
<title>medicare._enrollments.fips3</title>
<g id="a_node2"><a xlink:href="../medicare._enrollments/fips3.html" xlink:title="&lt;TABLE&gt;" target="_blank">
<polygon fill="none" stroke="black" points="1370.38,-155 1179.38,-155 1179.38,-96 1370.38,-96 1370.38,-155"/>
<text text-anchor="start" x="1192.38" y="-133.7" font-family="Times,serif" font-weight="bold" font-size="14.00">medicare._enrollments.fips3</text>
<polygon fill="none" stroke="black" points="1190.38,-103 1190.38,-125.5 1359.38,-125.5 1359.38,-103 1190.38,-103"/>
<text text-anchor="start" x="1193.38" y="-109.2" font-family="Times,serif" font-size="14.00">MAX(fips3)</text>
<polygon fill="none" stroke="black" points="1187.38,-100 1187.38,-151 1362.38,-151 1362.38,-100 1187.38,-100"/>
</a>
</g>
</g>
<!-- medicare._enrollments.fips3&#45;&gt;medicare.enrollments.fips3 -->
<g id="edge1" class="edge">
<title>medicare._enrollments.fips3&#45;&gt;medicare.enrollments.fips3</title>
<path fill="none" stroke="black" d="M1274.88,-95.53C1274.88,-87.68 1274.88,-79.05 1274.88,-70.7"/>
<polygon fill="black" stroke="black" points="1278.38,-70.73 1274.88,-60.73 1271.38,-70.73 1278.38,-70.73"/>
<text text-anchor="middle" x="1294.38" y="-72.45" font-family="Times,serif" font-size="14.00">Copied</text>
</g>
<!-- medicare._ps.fips3 -->
<g id="node3" class="node">
<title>medicare._ps.fips3</title>
<g id="a_node3"><a xlink:href="../medicare._ps/fips3.html" xlink:title="&lt;TABLE&gt;" target="_blank">
<polygon fill="none" stroke="black" points="2467.12,-251 82.62,-251 82.62,-192 2467.12,-192 2467.12,-251"/>
<text text-anchor="start" x="1220.5" y="-229.7" font-family="Times,serif" font-weight="bold" font-size="14.00">medicare._ps.fips3</text>
<polygon fill="none" stroke="black" points="93.62,-199 93.62,-221.5 2456.12,-221.5 2456.12,-199 93.62,-199"/>
<text text-anchor="start" x="96.62" y="-205.2" font-family="Times,serif" font-size="14.00">CASE WHEN ssa3 is NOT NULL THEN &#160;CASE WHEN year &gt; 2010 THEN &#160;&#160;&#160;&#160;&#160;(SELECT fips3 from public.ssa as s where ps.ssa3 = s.ssa3 and ps.year = s.year and ps.fips2 = s.fips2 ORDER BY 1 DESC LIMIT 1) &#160;&#160;&#160;ELSE &#160;&#160;&#160;&#160;&#160;(SELECT fips3 from public.ssa as s where ps.ssa3 = s.ssa3 and 2003 = s.year and ps.fips2 = s.fips2 ORDER BY 1 DESC LIMIT 1) &#160;ENDELSE &#160;(SELECT public.zip_to_fips3(year, zip))END AS fips3</text>
<polygon fill="none" stroke="black" points="90.62,-196 90.62,-247 2459.12,-247 2459.12,-196 90.62,-196"/>
</a>
</g>
</g>
<!-- medicare._ps.fips3&#45;&gt;medicare._enrollments.fips3 -->
<g id="edge2" class="edge">
<title>medicare._ps.fips3&#45;&gt;medicare._enrollments.fips3</title>
<path fill="none" stroke="blue" stroke-width="5" d="M1274.88,-191.53C1274.88,-185.13 1274.88,-178.2 1274.88,-171.33"/>
<polygon fill="blue" stroke="blue" stroke-width="5" points="1279.25,-171.45 1274.88,-161.45 1270.5,-171.45 1279.25,-171.45"/>
<text text-anchor="middle" x="1389.25" y="-168.45" font-family="Times,serif" font-size="14.00">	 &#160;Aggregated On bene_id, year, state</text>
</g>
<!-- medicare.ps.year -->
<g id="node4" class="node">
<title>medicare.ps.year</title>
<g id="a_node4"><a xlink:href="../medicare.ps/year.html" xlink:title="&lt;TABLE&gt;" target="_blank">
<polygon fill="none" stroke="black" points="1117.75,-397.75 0,-397.75 0,-338.75 1117.75,-338.75 1117.75,-397.75"/>
<text text-anchor="start" x="509" y="-376.45" font-family="Times,serif" font-weight="bold" font-size="14.00">medicare.ps.year</text>
<polygon fill="none" stroke="black" points="11,-345.75 11,-368.25 1106.75,-368.25 1106.75,-345.75 11,-345.75"/>
<text text-anchor="start" x="14" y="-351.95" font-family="Times,serif" font-size="14.00">(CASE WHEN &quot;year&quot;::int &lt; 20 THEN (2000 + &quot;year&quot;::int) WHEN (20 &lt; &quot;year&quot;::int AND &quot;year&quot;::int &lt; 100) THEN (1900 + &quot;year&quot;::int) WHEN &quot;year&quot; IS NULL THEN 2000 ELSE &quot;year&quot;::int END)</text>
<polygon fill="none" stroke="black" points="8,-342.75 8,-393.75 1109.75,-393.75 1109.75,-342.75 8,-342.75"/>
</a>
</g>
</g>
<!-- medicare.ps.year&#45;&gt;medicare._ps.fips3 -->
<g id="edge3" class="edge">
<title>medicare.ps.year&#45;&gt;medicare._ps.fips3</title>
<path fill="none" stroke="black" d="M702.05,-338.31C823.17,-313.82 996.35,-278.81 1120.54,-253.7"/>
<polygon fill="black" stroke="black" points="1121.05,-257.17 1130.16,-251.76 1119.67,-250.31 1121.05,-257.17"/>
<text text-anchor="middle" x="1082.5" y="-264.45" font-family="Times,serif" font-size="14.00"> &#160;Transformed</text>
</g>
<!-- medicare.ps.year_parent -->
<g id="node5" class="node">
<title>medicare.ps.year_parent</title>
<g id="a_node5"><a xlink:href="../medicare.ps/year.html" xlink:title="8 incoming links (columns)" target="_blank">
<path fill="yellow" stroke="black" d="M666.88,-583.68C666.88,-589.1 618.47,-593.5 558.88,-593.5 499.28,-593.5 450.88,-589.1 450.88,-583.68 450.88,-583.68 450.88,-495.32 450.88,-495.32 450.88,-489.9 499.28,-485.5 558.88,-485.5 618.47,-485.5 666.88,-489.9 666.88,-495.32 666.88,-495.32 666.88,-583.68 666.88,-583.68"/>
<path fill="none" stroke="black" d="M666.88,-583.68C666.88,-578.26 618.47,-573.86 558.88,-573.86 499.28,-573.86 450.88,-578.26 450.88,-583.68"/>
<text text-anchor="middle" x="558.88" y="-534.45" font-family="Times,serif" font-size="14.00">8 incoming links (columns)</text>
</a>
</g>
</g>
<!-- medicare.ps.year_parent&#45;&gt;medicare.ps.year -->
<g id="edge4" class="edge">
<title>medicare.ps.year_parent&#45;&gt;medicare.ps.year</title>
<path fill="none" stroke="goldenrod" stroke-width="6" d="M558.88,-485.41C558.88,-462.62 558.88,-436.26 558.88,-414.42"/>
<polygon fill="goldenrod" stroke="goldenrod" stroke-width="6" points="564.13,-414.48 558.88,-404.48 553.63,-414.48 564.13,-414.48"/>
</g>
<!-- medicare.ps.ssa3 -->
<g id="node6" class="node">
<title>medicare.ps.ssa3</title>
<g id="a_node6"><a xlink:href="../medicare.ps/ssa3.html" xlink:title="&lt;TABLE&gt;" target="_blank">
<polygon fill="none" stroke="black" points="1413.62,-428 1136.12,-428 1136.12,-308.5 1413.62,-308.5 1413.62,-428"/>
<text text-anchor="start" x="1225.75" y="-406.7" font-family="Times,serif" font-weight="bold" font-size="14.00">medicare.ps.ssa3</text>
<text text-anchor="start" x="1172.12" y="-360.2" font-family="Times,serif" font-size="14.00">Social Security Administration (SSA)</text>
<text text-anchor="start" x="1202.5" y="-343.7" font-family="Times,serif" font-size="14.00">three digit code for county</text>
<polygon fill="none" stroke="black" points="1144.12,-312.5 1144.12,-424 1405.62,-424 1405.62,-312.5 1144.12,-312.5"/>
</a>
</g>
</g>
<!-- medicare.ps.ssa3&#45;&gt;medicare._ps.fips3 -->
<g id="edge5" class="edge">
<title>medicare.ps.ssa3&#45;&gt;medicare._ps.fips3</title>
<path fill="none" stroke="black" d="M1274.88,-308.37C1274.88,-292.97 1274.88,-276.71 1274.88,-262.54"/>
<polygon fill="black" stroke="black" points="1278.38,-262.7 1274.88,-252.7 1271.38,-262.7 1278.38,-262.7"/>
<text text-anchor="middle" x="1313.5" y="-264.45" font-family="Times,serif" font-size="14.00"> &#160;Transformed</text>
</g>
<!-- medicare.ps.ssa3_parent -->
<g id="node7" class="node">
<title>medicare.ps.ssa3_parent</title>
<g id="a_node7"><a xlink:href="../medicare.ps/ssa3.html" xlink:title="8 incoming links (columns)" target="_blank">
<path fill="yellow" stroke="black" d="M1382.88,-583.68C1382.88,-589.1 1334.47,-593.5 1274.88,-593.5 1215.28,-593.5 1166.88,-589.1 1166.88,-583.68 1166.88,-583.68 1166.88,-495.32 1166.88,-495.32 1166.88,-489.9 1215.28,-485.5 1274.88,-485.5 1334.47,-485.5 1382.88,-489.9 1382.88,-495.32 1382.88,-495.32 1382.88,-583.68 1382.88,-583.68"/>
<path fill="none" stroke="black" d="M1382.88,-583.68C1382.88,-578.26 1334.47,-573.86 1274.88,-573.86 1215.28,-573.86 1166.88,-578.26 1166.88,-583.68"/>
<text text-anchor="middle" x="1274.88" y="-534.45" font-family="Times,serif" font-size="14.00">8 incoming links (columns)</text>
</a>
</g>
</g>
<!-- medicare.ps.ssa3_parent&#45;&gt;medicare.ps.ssa3 -->
<g id="edge6" class="edge">
<title>medicare.ps.ssa3_parent&#45;&gt;medicare.ps.ssa3</title>
<path fill="none" stroke="goldenrod" stroke-width="6" d="M1274.88,-485.41C1274.88,-472.38 1274.88,-458.19 1274.88,-444.34"/>
<polygon fill="goldenrod" stroke="goldenrod" stroke-width="6" points="1280.13,-444.79 1274.88,-434.79 1269.63,-444.79 1280.13,-444.79"/>
</g>
<!-- medicare.ps.fips2 -->
<g id="node8" class="node">
<title>medicare.ps.fips2</title>
<g id="a_node8"><a xlink:href="../medicare.ps/fips2.html" xlink:title="&lt;TABLE&gt;" target="_blank">
<polygon fill="none" stroke="black" points="1846,-448.5 1431.75,-448.5 1431.75,-288 1846,-288 1846,-448.5"/>
<text text-anchor="start" x="1587.88" y="-427.2" font-family="Times,serif" font-weight="bold" font-size="14.00">medicare.ps.fips2</text>
<text text-anchor="start" x="1479.38" y="-380.7" font-family="Times,serif" font-size="14.00">2 digit state FIPS, see https://en.wikip</text>
<text text-anchor="start" x="1467.75" y="-364.2" font-family="Times,serif" font-size="14.00">edia.org/wiki/Federal_Information_Proces</text>
<text text-anchor="start" x="1512.75" y="-347.7" font-family="Times,serif" font-size="14.00">sing_Standard_state_code</text>
<polygon fill="none" stroke="black" points="1442.75,-295 1442.75,-317.5 1835,-317.5 1835,-295 1442.75,-295"/>
<text text-anchor="start" x="1445.75" y="-301.2" font-family="Times,serif" font-size="14.00">(SELECT fips2 FROM public.us_states as s WHERE s.ssa2 = &quot;state&quot;)</text>
<polygon fill="none" stroke="black" points="1439.75,-292 1439.75,-444.5 1838,-444.5 1838,-292 1439.75,-292"/>
</a>
</g>
</g>
<!-- medicare.ps.fips2&#45;&gt;medicare._ps.fips3 -->
<g id="edge7" class="edge">
<title>medicare.ps.fips2&#45;&gt;medicare._ps.fips3</title>
<path fill="none" stroke="black" d="M1438.51,-287.57C1410.19,-276.31 1382.47,-265.29 1358.14,-255.61"/>
<polygon fill="black" stroke="black" points="1359.55,-252.41 1348.97,-251.96 1356.97,-258.91 1359.55,-252.41"/>
<text text-anchor="middle" x="1431.5" y="-264.45" font-family="Times,serif" font-size="14.00"> &#160;Transformed</text>
</g>
</g>
</svg>
