<?xml version="1.0" encoding="UTF-8" standalone="no"?>
<!DOCTYPE svg PUBLIC "-//W3C//DTD SVG 1.1//EN"
 "http://www.w3.org/Graphics/SVG/1.1/DTD/svg11.dtd">
<!-- Generated by graphviz version 14.1.4 (20260321.0153)
 -->
<!-- Pages: 1 -->
<svg width="2469pt" height="698pt"
 viewBox="0.00 0.00 2469.00 698.00" xmlns="http://www.w3.org/2000/svg" xmlns:xlink="http://www.w3.org/1999/xlink">
<g id="graph0" class="graph" transform="scale(1 1) rotate(0) translate(4 693.5)">
<polygon fill="white" stroke="none" points="-4,4 -4,-693.5 2465.25,-693.5 2465.25,4 -4,4"/>
<!-- medicare.qc_enrl_bene.fips3 -->
<g id="node1" class="node">
<title>medicare.qc_enrl_bene.fips3</title>
<g id="a_node1"><a xlink:href="../medicare.qc_enrl_bene/fips3.html" xlink:title="&lt;TABLE&gt;" target="_blank">
<polygon fill="none" stroke="black" points="1369,-59 1176.5,-59 1176.5,0 1369,0 1369,-59"/>
<text xml:space="preserve" text-anchor="start" x="1189.5" y="-37.7" font-family="Times,serif" font-weight="bold" font-size="14.00">medicare.qc_enrl_bene.fips3</text>
<polygon fill="none" stroke="black" points="1187.5,-7 1187.5,-29.5 1358,-29.5 1358,-7 1187.5,-7"/>
<text xml:space="preserve" text-anchor="start" x="1190.5" y="-13.75" font-family="Times,serif" font-size="14.00">MAX(fips3)</text>
<polygon fill="none" stroke="black" points="1184.5,-4 1184.5,-55 1361,-55 1361,-4 1184.5,-4"/>
</a>
</g>
</g>
<!-- medicare.enrollments.fips3 -->
<g id="node2" class="node">
<title>medicare.enrollments.fips3</title>
<g id="a_node2"><a xlink:href="../medicare.enrollments/fips3.html" xlink:title="&lt;TABLE&gt;" target="_blank">
<polygon fill="none" stroke="black" points="1364.88,-155 1180.62,-155 1180.62,-96 1364.88,-96 1364.88,-155"/>
<text xml:space="preserve" text-anchor="start" x="1193.62" y="-133.7" font-family="Times,serif" font-weight="bold" font-size="14.00">medicare.enrollments.fips3</text>
<polygon fill="none" stroke="black" points="1191.62,-103 1191.62,-125.5 1353.88,-125.5 1353.88,-103 1191.62,-103"/>
<text xml:space="preserve" text-anchor="start" x="1194.62" y="-109.75" font-family="Times,serif" font-size="14.00">MAX(fips3)</text>
<polygon fill="none" stroke="black" points="1188.62,-100 1188.62,-151 1356.88,-151 1356.88,-100 1188.62,-100"/>
</a>
</g>
</g>
<!-- medicare.enrollments.fips3&#45;&gt;medicare.qc_enrl_bene.fips3 -->
<g id="edge1" class="edge">
<title>medicare.enrollments.fips3&#45;&gt;medicare.qc_enrl_bene.fips3</title>
<path fill="none" stroke="black" d="M1272.75,-95.53C1272.75,-87.68 1272.75,-79.05 1272.75,-70.7"/>
<polygon fill="black" stroke="black" points="1276.25,-70.73 1272.75,-60.73 1269.25,-70.73 1276.25,-70.73"/>
<text xml:space="preserve" text-anchor="middle" x="1318.88" y="-72.45" font-family="Times,serif" font-size="14.00">	join natural</text>
</g>
<!-- medicare._enrollments.fips3 -->
<g id="node3" class="node">
<title>medicare._enrollments.fips3</title>
<g id="a_node3"><a xlink:href="../medicare._enrollments/fips3.html" xlink:title="&lt;TABLE&gt;" target="_blank">
<polygon fill="none" stroke="black" points="1368.25,-251 1177.25,-251 1177.25,-192 1368.25,-192 1368.25,-251"/>
<text xml:space="preserve" text-anchor="start" x="1190.25" y="-229.7" font-family="Times,serif" font-weight="bold" font-size="14.00">medicare._enrollments.fips3</text>
<polygon fill="none" stroke="black" points="1188.25,-199 1188.25,-221.5 1357.25,-221.5 1357.25,-199 1188.25,-199"/>
<text xml:space="preserve" text-anchor="start" x="1191.25" y="-205.75" font-family="Times,serif" font-size="14.00">MAX(fips3)</text>
<polygon fill="none" stroke="black" points="1185.25,-196 1185.25,-247 1360.25,-247 1360.25,-196 1185.25,-196"/>
</a>
</g>
</g>
<!-- medicare._enrollments.fips3&#45;&gt;medicare.enrollments.fips3 -->
<g id="edge2" class="edge">
<title>medicare._enrollments.fips3&#45;&gt;medicare.enrollments.fips3</title>
<path fill="none" stroke="black" d="M1272.75,-191.53C1272.75,-183.68 1272.75,-175.05 1272.75,-166.7"/>
<polygon fill="black" stroke="black" points="1276.25,-166.73 1272.75,-156.73 1269.25,-166.73 1276.25,-166.73"/>
<text xml:space="preserve" text-anchor="middle" x="1292.25" y="-168.45" font-family="Times,serif" font-size="14.00">Copied</text>
</g>
<!-- medicare._ps.fips3 -->
<g id="node4" class="node">
<title>medicare._ps.fips3</title>
<g id="a_node4"><a xlink:href="../medicare._ps/fips3.html" xlink:title="&lt;TABLE&gt;" target="_blank">
<polygon fill="none" stroke="black" points="2461.25,-347 84.25,-347 84.25,-288 2461.25,-288 2461.25,-347"/>
<text xml:space="preserve" text-anchor="start" x="1218.38" y="-325.7" font-family="Times,serif" font-weight="bold" font-size="14.00">medicare._ps.fips3</text>
<polygon fill="none" stroke="black" points="95.25,-295 95.25,-317.5 2450.25,-317.5 2450.25,-295 95.25,-295"/>
<text xml:space="preserve" text-anchor="start" x="98.25" y="-301.75" font-family="Times,serif" font-size="14.00">CASE WHEN ssa3 is NOT NULL THEN &#160;CASE WHEN year &gt; 2010 THEN &#160;&#160;&#160;&#160;&#160;(SELECT fips3 from public.ssa as s where ps.ssa3 = s.ssa3 and ps.year = s.year and ps.fips2 = s.fips2 ORDER BY 1 DESC LIMIT 1) &#160;&#160;&#160;ELSE &#160;&#160;&#160;&#160;&#160;(SELECT fips3 from public.ssa as s where ps.ssa3 = s.ssa3 and 2003 = s.year and ps.fips2 = s.fips2 ORDER BY 1 DESC LIMIT 1) &#160;ENDELSE &#160;(SELECT public.zip_to_fips3(year, zip))END AS fips3</text>
<polygon fill="none" stroke="black" points="92.25,-292 92.25,-343 2453.25,-343 2453.25,-292 92.25,-292"/>
</a>
</g>
</g>
<!-- medicare._ps.fips3&#45;&gt;medicare._enrollments.fips3 -->
<g id="edge3" class="edge">
<title>medicare._ps.fips3&#45;&gt;medicare._enrollments.fips3</title>
<path fill="none" stroke="blue" stroke-width="5" d="M1272.75,-287.53C1272.75,-281.13 1272.75,-274.2 1272.75,-267.33"/>
<polygon fill="blue" stroke="blue" stroke-width="5" points="1277.13,-267.45 1272.75,-257.45 1268.38,-267.45 1277.13,-267.45"/>
<text xml:space="preserve" text-anchor="middle" x="1387.12" y="-264.45" font-family="Times,serif" font-size="14.00">	 &#160;Aggregated On bene_id, year, state</text>
</g>
<!-- medicare.ps.year -->
<g id="node5" class="node">
<title>medicare.ps.year</title>
<g id="a_node5"><a xlink:href="../medicare.ps/year.html" xlink:title="&lt;TABLE&gt;" target="_blank">
<polygon fill="none" stroke="black" points="1115.5,-493.75 0,-493.75 0,-434.75 1115.5,-434.75 1115.5,-493.75"/>
<text xml:space="preserve" text-anchor="start" x="507.88" y="-472.45" font-family="Times,serif" font-weight="bold" font-size="14.00">medicare.ps.year</text>
<polygon fill="none" stroke="black" points="11,-441.75 11,-464.25 1104.5,-464.25 1104.5,-441.75 11,-441.75"/>
<text xml:space="preserve" text-anchor="start" x="14" y="-448.5" font-family="Times,serif" font-size="14.00">(CASE WHEN &quot;year&quot;::int &lt; 20 THEN (2000 + &quot;year&quot;::int) WHEN (20 &lt; &quot;year&quot;::int AND &quot;year&quot;::int &lt; 100) THEN (1900 + &quot;year&quot;::int) WHEN &quot;year&quot; IS NULL THEN 2000 ELSE &quot;year&quot;::int END)</text>
<polygon fill="none" stroke="black" points="8,-438.75 8,-489.75 1107.5,-489.75 1107.5,-438.75 8,-438.75"/>
</a>
</g>
</g>
<!-- medicare.ps.year&#45;&gt;medicare._ps.fips3 -->
<g id="edge4" class="edge">
<title>medicare.ps.year&#45;&gt;medicare._ps.fips3</title>
<path fill="none" stroke="black" d="M700.72,-434.31C821.67,-409.82 994.61,-374.81 1118.63,-349.7"/>
<polygon fill="black" stroke="black" points="1119.13,-353.17 1128.24,-347.76 1117.74,-346.31 1119.13,-353.17"/>
<text xml:space="preserve" text-anchor="middle" x="1080.1" y="-360.45" font-family="Times,serif" font-size="14.00"> &#160;Transformed</text>
</g>
<!-- medicare.ps.year_parent -->
<g id="node6" class="node">
<title>medicare.ps.year_parent</title>
<g id="a_node6"><a xlink:href="../medicare.ps/year.html" xlink:title="8 incoming links (columns)" target="_blank">
<path fill="yellow" stroke="black" d="M665.75,-679.68C665.75,-685.1 617.34,-689.5 557.75,-689.5 498.16,-689.5 449.75,-685.1 449.75,-679.68 449.75,-679.68 449.75,-591.32 449.75,-591.32 449.75,-585.9 498.16,-581.5 557.75,-581.5 617.34,-581.5 665.75,-585.9 665.75,-591.32 665.75,-591.32 665.75,-679.68 665.75,-679.68"/>
<path fill="none" stroke="black" d="M665.75,-679.68C665.75,-674.26 617.34,-669.86 557.75,-669.86 498.16,-669.86 449.75,-674.26 449.75,-679.68"/>
<text xml:space="preserve" text-anchor="middle" x="557.75" y="-630.45" font-family="Times,serif" font-size="14.00">8 incoming links (columns)</text>
</a>
</g>
</g>
<!-- medicare.ps.year_parent&#45;&gt;medicare.ps.year -->
<g id="edge5" class="edge">
<title>medicare.ps.year_parent&#45;&gt;medicare.ps.year</title>
<path fill="none" stroke="goldenrod" stroke-width="6" d="M557.75,-581.41C557.75,-558.62 557.75,-532.26 557.75,-510.42"/>
<polygon fill="goldenrod" stroke="goldenrod" stroke-width="6" points="563,-510.48 557.75,-500.48 552.5,-510.48 563,-510.48"/>
</g>
<!-- medicare.ps.ssa3 -->
<g id="node7" class="node">
<title>medicare.ps.ssa3</title>
<g id="a_node7"><a xlink:href="../medicare.ps/ssa3.html" xlink:title="&lt;TABLE&gt;" target="_blank">
<polygon fill="none" stroke="black" points="1411.5,-524 1134,-524 1134,-404.5 1411.5,-404.5 1411.5,-524"/>
<text xml:space="preserve" text-anchor="start" x="1223.62" y="-502.7" font-family="Times,serif" font-weight="bold" font-size="14.00">medicare.ps.ssa3</text>
<text xml:space="preserve" text-anchor="start" x="1170" y="-456.75" font-family="Times,serif" font-size="14.00">Social Security Administration (SSA)</text>
<text xml:space="preserve" text-anchor="start" x="1200.38" y="-440.25" font-family="Times,serif" font-size="14.00">three digit code for county</text>
<polygon fill="none" stroke="black" points="1142,-408.5 1142,-520 1403.5,-520 1403.5,-408.5 1142,-408.5"/>
</a>
</g>
</g>
<!-- medicare.ps.ssa3&#45;&gt;medicare._ps.fips3 -->
<g id="edge6" class="edge">
<title>medicare.ps.ssa3&#45;&gt;medicare._ps.fips3</title>
<path fill="none" stroke="black" d="M1272.75,-404.37C1272.75,-388.97 1272.75,-372.71 1272.75,-358.54"/>
<polygon fill="black" stroke="black" points="1276.25,-358.7 1272.75,-348.7 1269.25,-358.7 1276.25,-358.7"/>
<text xml:space="preserve" text-anchor="middle" x="1311.38" y="-360.45" font-family="Times,serif" font-size="14.00"> &#160;Transformed</text>
</g>
<!-- medicare.ps.ssa3_parent -->
<g id="node8" class="node">
<title>medicare.ps.ssa3_parent</title>
<g id="a_node8"><a xlink:href="../medicare.ps/ssa3.html" xlink:title="8 incoming links (columns)" target="_blank">
<path fill="yellow" stroke="black" d="M1380.75,-679.68C1380.75,-685.1 1332.34,-689.5 1272.75,-689.5 1213.16,-689.5 1164.75,-685.1 1164.75,-679.68 1164.75,-679.68 1164.75,-591.32 1164.75,-591.32 1164.75,-585.9 1213.16,-581.5 1272.75,-581.5 1332.34,-581.5 1380.75,-585.9 1380.75,-591.32 1380.75,-591.32 1380.75,-679.68 1380.75,-679.68"/>
<path fill="none" stroke="black" d="M1380.75,-679.68C1380.75,-674.26 1332.34,-669.86 1272.75,-669.86 1213.16,-669.86 1164.75,-674.26 1164.75,-679.68"/>
<text xml:space="preserve" text-anchor="middle" x="1272.75" y="-630.45" font-family="Times,serif" font-size="14.00">8 incoming links (columns)</text>
</a>
</g>
</g>
<!-- medicare.ps.ssa3_parent&#45;&gt;medicare.ps.ssa3 -->
<g id="edge7" class="edge">
<title>medicare.ps.ssa3_parent&#45;&gt;medicare.ps.ssa3</title>
<path fill="none" stroke="goldenrod" stroke-width="6" d="M1272.75,-581.41C1272.75,-568.38 1272.75,-554.19 1272.75,-540.34"/>
<polygon fill="goldenrod" stroke="goldenrod" stroke-width="6" points="1278,-540.79 1272.75,-530.79 1267.5,-540.79 1278,-540.79"/>
</g>
<!-- medicare.ps.fips2 -->
<g id="node9" class="node">
<title>medicare.ps.fips2</title>
<g id="a_node9"><a xlink:href="../medicare.ps/fips2.html" xlink:title="&lt;TABLE&gt;" target="_blank">
<polygon fill="none" stroke="black" points="1842.12,-544.5 1429.38,-544.5 1429.38,-384 1842.12,-384 1842.12,-544.5"/>
<text xml:space="preserve" text-anchor="start" x="1584.75" y="-523.2" font-family="Times,serif" font-weight="bold" font-size="14.00">medicare.ps.fips2</text>
<text xml:space="preserve" text-anchor="start" x="1477" y="-477.25" font-family="Times,serif" font-size="14.00">2 digit state FIPS, see https://en.wikip</text>
<text xml:space="preserve" text-anchor="start" x="1465.38" y="-460.75" font-family="Times,serif" font-size="14.00">edia.org/wiki/Federal_Information_Proces</text>
<text xml:space="preserve" text-anchor="start" x="1510.38" y="-444.25" font-family="Times,serif" font-size="14.00">sing_Standard_state_code</text>
<polygon fill="none" stroke="black" points="1440.38,-391 1440.38,-413.5 1831.12,-413.5 1831.12,-391 1440.38,-391"/>
<text xml:space="preserve" text-anchor="start" x="1443.38" y="-397.75" font-family="Times,serif" font-size="14.00">(SELECT fips2 FROM public.us_states as s WHERE s.ssa2 = &quot;state&quot;)</text>
<polygon fill="none" stroke="black" points="1437.38,-388 1437.38,-540.5 1834.12,-540.5 1834.12,-388 1437.38,-388"/>
</a>
</g>
</g>
<!-- medicare.ps.fips2&#45;&gt;medicare._ps.fips3 -->
<g id="edge8" class="edge">
<title>medicare.ps.fips2&#45;&gt;medicare._ps.fips3</title>
<path fill="none" stroke="black" d="M1435.93,-383.57C1407.69,-372.31 1380.05,-361.29 1355.78,-351.61"/>
<polygon fill="black" stroke="black" points="1357.23,-348.42 1346.64,-347.97 1354.64,-354.92 1357.23,-348.42"/>
<text xml:space="preserve" text-anchor="middle" x="1428.79" y="-360.45" font-family="Times,serif" font-size="14.00"> &#160;Transformed</text>
</g>
</g>
</svg>
