<?xml version="1.0" encoding="UTF-8" standalone="no"?>
<!DOCTYPE svg PUBLIC "-//W3C//DTD SVG 1.1//EN"
 "http://www.w3.org/Graphics/SVG/1.1/DTD/svg11.dtd">
<!-- Generated by graphviz version 10.0.1 (20240210.2158)
 -->
<!-- Pages: 1 -->
<svg width="3758pt" height="833pt"
 viewBox="0.00 0.00 3757.62 832.50" xmlns="http://www.w3.org/2000/svg" xmlns:xlink="http://www.w3.org/1999/xlink">
<g id="graph0" class="graph" transform="scale(1 1) rotate(0) translate(4 828.5)">
<polygon fill="white" stroke="none" points="-4,4 -4,-828.5 3753.62,-828.5 3753.62,4 -4,4"/>
<!-- medicare.enrollments.fips3_valdiated -->
<g id="node1" class="node">
<title>medicare.enrollments.fips3_valdiated</title>
<g id="a_node1"><a xlink:href="../medicare.enrollments/fips3_valdiated.html" xlink:title="&lt;TABLE&gt;" target="_blank">
<polygon fill="none" stroke="black" points="1812.5,-59 1435.75,-59 1435.75,0 1812.5,0 1812.5,-59"/>
<text text-anchor="start" x="1515" y="-37.7" font-family="Times,serif" font-weight="bold" font-size="14.00">medicare.enrollments.fips3_valdiated</text>
<polygon fill="none" stroke="black" points="1446.75,-7 1446.75,-29.5 1801.5,-29.5 1801.5,-7 1446.75,-7"/>
<text text-anchor="start" x="1449.75" y="-13.2" font-family="Times,serif" font-size="14.00">public.validate_zip_fips(MAX(zip), MAX(fips2), MAX(fips3))</text>
<polygon fill="none" stroke="black" points="1443.75,-4 1443.75,-55 1804.5,-55 1804.5,-4 1443.75,-4"/>
</a>
</g>
</g>
<!-- medicare._enrollments.fips3 -->
<g id="node2" class="node">
<title>medicare._enrollments.fips3</title>
<g id="a_node2"><a xlink:href="../medicare._enrollments/fips3.html" xlink:title="&lt;TABLE&gt;" target="_blank">
<polygon fill="none" stroke="black" points="1719.62,-189.25 1528.62,-189.25 1528.62,-130.25 1719.62,-130.25 1719.62,-189.25"/>
<text text-anchor="start" x="1541.62" y="-167.95" font-family="Times,serif" font-weight="bold" font-size="14.00">medicare._enrollments.fips3</text>
<polygon fill="none" stroke="black" points="1539.62,-137.25 1539.62,-159.75 1708.62,-159.75 1708.62,-137.25 1539.62,-137.25"/>
<text text-anchor="start" x="1542.62" y="-143.45" font-family="Times,serif" font-size="14.00">MAX(fips3)</text>
<polygon fill="none" stroke="black" points="1536.62,-134.25 1536.62,-185.25 1711.62,-185.25 1711.62,-134.25 1536.62,-134.25"/>
</a>
</g>
</g>
<!-- medicare._enrollments.fips3&#45;&gt;medicare.enrollments.fips3_valdiated -->
<g id="edge1" class="edge">
<title>medicare._enrollments.fips3&#45;&gt;medicare.enrollments.fips3_valdiated</title>
<path fill="none" stroke="black" d="M1624.12,-129.97C1624.12,-112.48 1624.12,-89.88 1624.12,-70.65"/>
<polygon fill="black" stroke="black" points="1627.63,-70.7 1624.13,-60.7 1620.63,-70.7 1627.63,-70.7"/>
<text text-anchor="middle" x="1643.62" y="-72.45" font-family="Times,serif" font-size="14.00">Copied</text>
</g>
<!-- medicare._ps.fips3 -->
<g id="node3" class="node">
<title>medicare._ps.fips3</title>
<g id="a_node3"><a xlink:href="../medicare._ps/fips3.html" xlink:title="&lt;TABLE&gt;" target="_blank">
<polygon fill="none" stroke="black" points="2816.38,-385.5 431.88,-385.5 431.88,-326.5 2816.38,-326.5 2816.38,-385.5"/>
<text text-anchor="start" x="1569.75" y="-364.2" font-family="Times,serif" font-weight="bold" font-size="14.00">medicare._ps.fips3</text>
<polygon fill="none" stroke="black" points="442.88,-333.5 442.88,-356 2805.38,-356 2805.38,-333.5 442.88,-333.5"/>
<text text-anchor="start" x="445.88" y="-339.7" font-family="Times,serif" font-size="14.00">CASE WHEN ssa3 is NOT NULL THEN &#160;CASE WHEN year &gt; 2010 THEN &#160;&#160;&#160;&#160;&#160;(SELECT fips3 from public.ssa as s where ps.ssa3 = s.ssa3 and ps.year = s.year and ps.fips2 = s.fips2 ORDER BY 1 DESC LIMIT 1) &#160;&#160;&#160;ELSE &#160;&#160;&#160;&#160;&#160;(SELECT fips3 from public.ssa as s where ps.ssa3 = s.ssa3 and 2003 = s.year and ps.fips2 = s.fips2 ORDER BY 1 DESC LIMIT 1) &#160;ENDELSE &#160;(SELECT public.zip_to_fips3(year, zip))END AS fips3</text>
<polygon fill="none" stroke="black" points="439.88,-330.5 439.88,-381.5 2808.38,-381.5 2808.38,-330.5 439.88,-330.5"/>
</a>
</g>
</g>
<!-- medicare._ps.fips3&#45;&gt;medicare._enrollments.fips3 -->
<g id="edge2" class="edge">
<title>medicare._ps.fips3&#45;&gt;medicare._enrollments.fips3</title>
<path fill="none" stroke="blue" stroke-width="5" d="M1624.12,-326.34C1624.12,-294.56 1624.12,-242.89 1624.12,-205.72"/>
<polygon fill="blue" stroke="blue" stroke-width="5" points="1628.5,-205.77 1624.13,-195.77 1619.75,-205.77 1628.5,-205.77"/>
<text text-anchor="middle" x="1738.5" y="-236.95" font-family="Times,serif" font-size="14.00">	 &#160;Aggregated On bene_id, year, state</text>
</g>
<!-- medicare.ps.fips2 -->
<g id="node4" class="node">
<title>medicare.ps.fips2</title>
<g id="a_node4"><a xlink:href="../medicare.ps/fips2.html" xlink:title="&lt;TABLE&gt;" target="_blank">
<polygon fill="none" stroke="black" points="1021.25,-664.25 607,-664.25 607,-503.75 1021.25,-503.75 1021.25,-664.25"/>
<text text-anchor="start" x="763.12" y="-642.95" font-family="Times,serif" font-weight="bold" font-size="14.00">medicare.ps.fips2</text>
<text text-anchor="start" x="654.62" y="-596.45" font-family="Times,serif" font-size="14.00">2 digit state FIPS, see https://en.wikip</text>
<text text-anchor="start" x="643" y="-579.95" font-family="Times,serif" font-size="14.00">edia.org/wiki/Federal_Information_Proces</text>
<text text-anchor="start" x="688" y="-563.45" font-family="Times,serif" font-size="14.00">sing_Standard_state_code</text>
<polygon fill="none" stroke="black" points="618,-510.75 618,-533.25 1010.25,-533.25 1010.25,-510.75 618,-510.75"/>
<text text-anchor="start" x="621" y="-516.95" font-family="Times,serif" font-size="14.00">(SELECT fips2 FROM public.us_states as s WHERE s.ssa2 = &quot;state&quot;)</text>
<polygon fill="none" stroke="black" points="615,-507.75 615,-660.25 1013.25,-660.25 1013.25,-507.75 615,-507.75"/>
</a>
</g>
</g>
<!-- medicare.ps.fips2&#45;&gt;medicare._ps.fips3 -->
<g id="edge3" class="edge">
<title>medicare.ps.fips2&#45;&gt;medicare._ps.fips3</title>
<path fill="none" stroke="black" d="M1021.67,-525.09C1176.75,-481.82 1382.98,-424.28 1509.49,-388.98"/>
<polygon fill="black" stroke="black" points="1510.2,-392.42 1518.89,-386.36 1508.31,-385.68 1510.2,-392.42"/>
<text text-anchor="middle" x="1257.75" y="-464.95" font-family="Times,serif" font-size="14.00"> &#160;Transformed</text>
</g>
<!-- medicare._ps.fips2 -->
<g id="node10" class="node">
<title>medicare._ps.fips2</title>
<g id="a_node10"><a xlink:href="../medicare._ps/fips2.html" xlink:title="&lt;TABLE&gt;" target="_blank">
<polygon fill="none" stroke="black" points="414.25,-436.25 0,-436.25 0,-275.75 414.25,-275.75 414.25,-436.25"/>
<text text-anchor="start" x="152.75" y="-414.95" font-family="Times,serif" font-weight="bold" font-size="14.00">medicare._ps.fips2</text>
<text text-anchor="start" x="47.62" y="-368.45" font-family="Times,serif" font-size="14.00">2 digit state FIPS, see https://en.wikip</text>
<text text-anchor="start" x="36" y="-351.95" font-family="Times,serif" font-size="14.00">edia.org/wiki/Federal_Information_Proces</text>
<text text-anchor="start" x="81" y="-335.45" font-family="Times,serif" font-size="14.00">sing_Standard_state_code</text>
<polygon fill="none" stroke="black" points="11,-282.75 11,-305.25 403.25,-305.25 403.25,-282.75 11,-282.75"/>
<text text-anchor="start" x="14" y="-288.95" font-family="Times,serif" font-size="14.00">(SELECT fips2 FROM public.us_states as s WHERE s.ssa2 = &quot;state&quot;)</text>
<polygon fill="none" stroke="black" points="8,-279.75 8,-432.25 406.25,-432.25 406.25,-279.75 8,-279.75"/>
</a>
</g>
</g>
<!-- medicare.ps.fips2&#45;&gt;medicare._ps.fips2 -->
<g id="edge10" class="edge">
<title>medicare.ps.fips2&#45;&gt;medicare._ps.fips2</title>
<path fill="none" stroke="black" d="M606.69,-517.01C547.05,-497.02 482.17,-474.29 423.12,-451.5 414.41,-448.14 405.53,-444.62 396.59,-441.01"/>
<polygon fill="black" stroke="black" points="398.06,-437.82 387.47,-437.3 395.42,-444.31 398.06,-437.82"/>
<text text-anchor="middle" x="492.62" y="-464.95" font-family="Times,serif" font-size="14.00">Copied</text>
</g>
<!-- medicare.ps.ssa3 -->
<g id="node5" class="node">
<title>medicare.ps.ssa3</title>
<g id="a_node5"><a xlink:href="../medicare.ps/ssa3.html" xlink:title="&lt;TABLE&gt;" target="_blank">
<polygon fill="none" stroke="black" points="1559.88,-643.75 1282.38,-643.75 1282.38,-524.25 1559.88,-524.25 1559.88,-643.75"/>
<text text-anchor="start" x="1372" y="-622.45" font-family="Times,serif" font-weight="bold" font-size="14.00">medicare.ps.ssa3</text>
<text text-anchor="start" x="1318.38" y="-575.95" font-family="Times,serif" font-size="14.00">Social Security Administration (SSA)</text>
<text text-anchor="start" x="1348.75" y="-559.45" font-family="Times,serif" font-size="14.00">three digit code for county</text>
<polygon fill="none" stroke="black" points="1290.38,-528.25 1290.38,-639.75 1551.88,-639.75 1551.88,-528.25 1290.38,-528.25"/>
</a>
</g>
</g>
<!-- medicare.ps.ssa3&#45;&gt;medicare._ps.fips3 -->
<g id="edge4" class="edge">
<title>medicare.ps.ssa3&#45;&gt;medicare._ps.fips3</title>
<path fill="none" stroke="black" d="M1474.2,-523.92C1511.02,-482.92 1558.94,-429.57 1590.58,-394.35"/>
<polygon fill="black" stroke="black" points="1593.17,-396.7 1597.24,-386.93 1587.96,-392.03 1593.17,-396.7"/>
<text text-anchor="middle" x="1561.75" y="-464.95" font-family="Times,serif" font-size="14.00"> &#160;Transformed</text>
</g>
<!-- medicare.ps.ssa3_parent -->
<g id="node6" class="node">
<title>medicare.ps.ssa3_parent</title>
<g id="a_node6"><a xlink:href="../medicare.ps/ssa3.html" xlink:title="8 incoming links (columns)" target="_blank">
<path fill="yellow" stroke="black" d="M1529.12,-814.68C1529.12,-820.1 1480.72,-824.5 1421.12,-824.5 1361.53,-824.5 1313.12,-820.1 1313.12,-814.68 1313.12,-814.68 1313.12,-726.32 1313.12,-726.32 1313.12,-720.9 1361.53,-716.5 1421.12,-716.5 1480.72,-716.5 1529.12,-720.9 1529.12,-726.32 1529.12,-726.32 1529.12,-814.68 1529.12,-814.68"/>
<path fill="none" stroke="black" d="M1529.12,-814.68C1529.12,-809.26 1480.72,-804.86 1421.12,-804.86 1361.53,-804.86 1313.12,-809.26 1313.12,-814.68"/>
<text text-anchor="middle" x="1421.12" y="-765.45" font-family="Times,serif" font-size="14.00">8 incoming links (columns)</text>
</a>
</g>
</g>
<!-- medicare.ps.ssa3_parent&#45;&gt;medicare.ps.ssa3 -->
<g id="edge5" class="edge">
<title>medicare.ps.ssa3_parent&#45;&gt;medicare.ps.ssa3</title>
<path fill="none" stroke="goldenrod" stroke-width="6" d="M1421.12,-716.13C1421.12,-698.77 1421.12,-679.16 1421.12,-660.5"/>
<polygon fill="goldenrod" stroke="goldenrod" stroke-width="6" points="1426.38,-660.52 1421.13,-650.52 1415.88,-660.52 1426.38,-660.52"/>
</g>
<!-- medicare.ps.year -->
<g id="node7" class="node">
<title>medicare.ps.year</title>
<g id="a_node7"><a xlink:href="../medicare.ps/year.html" xlink:title="&lt;TABLE&gt;" target="_blank">
<polygon fill="none" stroke="black" points="2696,-647.75 1578.25,-647.75 1578.25,-520.25 2696,-520.25 2696,-647.75"/>
<text text-anchor="start" x="2087.25" y="-626.45" font-family="Times,serif" font-weight="bold" font-size="14.00">medicare.ps.year</text>
<text text-anchor="start" x="1614.25" y="-579.95" font-family="Times,serif" font-size="14.00">Beneficiary Enrollment Reference Year</text>
<polygon fill="none" stroke="black" points="1589.25,-527.25 1589.25,-549.75 2685,-549.75 2685,-527.25 1589.25,-527.25"/>
<text text-anchor="start" x="1592.25" y="-533.45" font-family="Times,serif" font-size="14.00">(CASE WHEN &quot;year&quot;::int &lt; 20 THEN (2000 + &quot;year&quot;::int) WHEN (20 &lt; &quot;year&quot;::int AND &quot;year&quot;::int &lt; 100) THEN (1900 + &quot;year&quot;::int) WHEN &quot;year&quot; IS NULL THEN 2000 ELSE &quot;year&quot;::int END)</text>
<polygon fill="none" stroke="black" points="1586.25,-524.25 1586.25,-643.75 2688,-643.75 2688,-524.25 1586.25,-524.25"/>
</a>
</g>
</g>
<!-- medicare.ps.year&#45;&gt;medicare._ps.fips3 -->
<g id="edge6" class="edge">
<title>medicare.ps.year&#45;&gt;medicare._ps.fips3</title>
<path fill="none" stroke="black" d="M1993.88,-519.9C1898.56,-477.9 1777.12,-424.4 1699.97,-390.41"/>
<polygon fill="black" stroke="black" points="1701.8,-387.4 1691.24,-386.57 1698.98,-393.8 1701.8,-387.4"/>
<text text-anchor="middle" x="1919.75" y="-464.95" font-family="Times,serif" font-size="14.00"> &#160;Transformed</text>
</g>
<!-- medicare.ps.year_parent -->
<g id="node8" class="node">
<title>medicare.ps.year_parent</title>
<g id="a_node8"><a xlink:href="../medicare.ps/year.html" xlink:title="8 incoming links (columns)" target="_blank">
<path fill="yellow" stroke="black" d="M2245.12,-814.68C2245.12,-820.1 2196.72,-824.5 2137.12,-824.5 2077.53,-824.5 2029.12,-820.1 2029.12,-814.68 2029.12,-814.68 2029.12,-726.32 2029.12,-726.32 2029.12,-720.9 2077.53,-716.5 2137.12,-716.5 2196.72,-716.5 2245.12,-720.9 2245.12,-726.32 2245.12,-726.32 2245.12,-814.68 2245.12,-814.68"/>
<path fill="none" stroke="black" d="M2245.12,-814.68C2245.12,-809.26 2196.72,-804.86 2137.12,-804.86 2077.53,-804.86 2029.12,-809.26 2029.12,-814.68"/>
<text text-anchor="middle" x="2137.12" y="-765.45" font-family="Times,serif" font-size="14.00">8 incoming links (columns)</text>
</a>
</g>
</g>
<!-- medicare.ps.year_parent&#45;&gt;medicare.ps.year -->
<g id="edge7" class="edge">
<title>medicare.ps.year_parent&#45;&gt;medicare.ps.year</title>
<path fill="none" stroke="goldenrod" stroke-width="6" d="M2137.12,-716.13C2137.12,-699.92 2137.12,-681.75 2137.12,-664.21"/>
<polygon fill="goldenrod" stroke="goldenrod" stroke-width="6" points="2142.38,-664.48 2137.13,-654.48 2131.88,-664.48 2142.38,-664.48"/>
</g>
<!-- medicare._enrollments.fips2 -->
<g id="node9" class="node">
<title>medicare._enrollments.fips2</title>
<g id="a_node9"><a xlink:href="../medicare._enrollments/fips2.html" xlink:title="&lt;TABLE&gt;" target="_blank">
<polygon fill="none" stroke="black" points="1208.62,-189.25 1017.62,-189.25 1017.62,-130.25 1208.62,-130.25 1208.62,-189.25"/>
<text text-anchor="start" x="1030.62" y="-167.95" font-family="Times,serif" font-weight="bold" font-size="14.00">medicare._enrollments.fips2</text>
<polygon fill="none" stroke="black" points="1028.62,-137.25 1028.62,-159.75 1197.62,-159.75 1197.62,-137.25 1028.62,-137.25"/>
<text text-anchor="start" x="1031.62" y="-143.45" font-family="Times,serif" font-size="14.00">MAX(fips2)</text>
<polygon fill="none" stroke="black" points="1025.62,-134.25 1025.62,-185.25 1200.62,-185.25 1200.62,-134.25 1025.62,-134.25"/>
</a>
</g>
</g>
<!-- medicare._enrollments.fips2&#45;&gt;medicare.enrollments.fips3_valdiated -->
<g id="edge8" class="edge">
<title>medicare._enrollments.fips2&#45;&gt;medicare.enrollments.fips3_valdiated</title>
<path fill="none" stroke="black" d="M1208.94,-134.7C1290.5,-114.23 1408.3,-84.67 1497.6,-62.25"/>
<polygon fill="black" stroke="black" points="1498.31,-65.69 1507.16,-59.86 1496.6,-58.9 1498.31,-65.69"/>
<text text-anchor="middle" x="1456.62" y="-72.45" font-family="Times,serif" font-size="14.00">Copied</text>
</g>
<!-- medicare._ps.fips2&#45;&gt;medicare._enrollments.fips2 -->
<g id="edge9" class="edge">
<title>medicare._ps.fips2&#45;&gt;medicare._enrollments.fips2</title>
<path fill="none" stroke="blue" stroke-width="5" d="M378.02,-275.3C393.09,-269.78 408.27,-264.74 423.12,-260.5 622.27,-203.67 863.44,-178.25 1001.5,-167.63"/>
<polygon fill="blue" stroke="blue" stroke-width="5" points="1001.54,-172.02 1011.19,-166.91 1000.89,-163.29 1001.54,-172.02"/>
<text text-anchor="middle" x="608.5" y="-236.95" font-family="Times,serif" font-size="14.00">	 &#160;Aggregated On bene_id, year, state</text>
</g>
<!-- medicare._enrollments.zip -->
<g id="node11" class="node">
<title>medicare._enrollments.zip</title>
<g id="a_node11"><a xlink:href="../medicare._enrollments/zip.html" xlink:title="&lt;TABLE&gt;" target="_blank">
<polygon fill="none" stroke="black" points="2662.75,-223.5 2465.5,-223.5 2465.5,-96 2662.75,-96 2662.75,-223.5"/>
<text text-anchor="start" x="2486.88" y="-202.2" font-family="Times,serif" font-weight="bold" font-size="14.00">medicare._enrollments.zip</text>
<text text-anchor="start" x="2501.5" y="-155.7" font-family="Times,serif" font-size="14.00">Zip Code of Residence</text>
<polygon fill="none" stroke="black" points="2476.5,-103 2476.5,-125.5 2651.75,-125.5 2651.75,-103 2476.5,-103"/>
<text text-anchor="start" x="2479.5" y="-109.2" font-family="Times,serif" font-size="14.00">MAX(zip)</text>
<polygon fill="none" stroke="black" points="2473.5,-100 2473.5,-219.5 2654.75,-219.5 2654.75,-100 2473.5,-100"/>
</a>
</g>
</g>
<!-- medicare._enrollments.zip&#45;&gt;medicare.enrollments.fips3_valdiated -->
<g id="edge11" class="edge">
<title>medicare._enrollments.zip&#45;&gt;medicare.enrollments.fips3_valdiated</title>
<path fill="none" stroke="black" d="M2465.31,-145.27C2313.87,-124.61 2021.29,-84.69 1824.32,-57.81"/>
<polygon fill="black" stroke="black" points="1824.84,-54.35 1814.45,-56.47 1823.89,-61.29 1824.84,-54.35"/>
<text text-anchor="middle" x="1988.62" y="-72.45" font-family="Times,serif" font-size="14.00">Copied</text>
</g>
<!-- medicare._ps.zip -->
<g id="node12" class="node">
<title>medicare._ps.zip</title>
<g id="a_node12"><a xlink:href="../medicare._ps/zip.html" xlink:title="&lt;TABLE&gt;" target="_blank">
<polygon fill="none" stroke="black" points="3749.62,-451.5 2834.62,-451.5 2834.62,-260.5 3749.62,-260.5 3749.62,-451.5"/>
<text text-anchor="start" x="2922" y="-430.2" font-family="Times,serif" font-weight="bold" font-size="14.00">medicare._ps.zip</text>
<text text-anchor="start" x="2870.62" y="-384.2" font-family="Times,serif" font-size="14.00">US Postal ZIP code, the first 5 digits</text>
<text text-anchor="start" x="2959.88" y="-367.7" font-family="Times,serif" font-size="14.00">of it</text>
<polygon fill="none" stroke="black" points="2845.62,-315.5 2845.62,-337.5 3096.62,-337.5 3096.62,-315.5 2845.62,-315.5"/>
<text text-anchor="start" x="2848.62" y="-321.2" font-family="Times,serif" font-size="14.00">numeric →</text>
<polygon fill="none" stroke="black" points="3098.62,-315.5 3098.62,-337.5 3738.62,-337.5 3738.62,-315.5 3098.62,-315.5"/>
<text text-anchor="start" x="3101.38" y="-321.2" font-family="Times,serif" font-size="14.00">(CASE WHEN {column_name} &lt; 100000 THEN {column_name}::int ELSE ({column_name}/10000)::INT END)</text>
<polygon fill="none" stroke="black" points="2845.62,-291.5 2845.62,-313.5 3096.62,-313.5 3096.62,-291.5 2845.62,-291.5"/>
<text text-anchor="start" x="2848.62" y="-297.2" font-family="Times,serif" font-size="14.00">character varying →</text>
<polygon fill="none" stroke="black" points="3098.62,-291.5 3098.62,-313.5 3738.62,-313.5 3738.62,-291.5 3098.62,-291.5"/>
<text text-anchor="start" x="3101.62" y="-297.2" font-family="Times,serif" font-size="14.00">SUBSTRING({column_name} FROM 1 FOR 5)::INT</text>
<polygon fill="none" stroke="black" points="2845.62,-267.5 2845.62,-289.5 3096.62,-289.5 3096.62,-267.5 2845.62,-267.5"/>
<text text-anchor="start" x="2848.62" y="-273.2" font-family="Times,serif" font-size="14.00">integer →</text>
<polygon fill="none" stroke="black" points="3098.62,-267.5 3098.62,-289.5 3738.62,-289.5 3738.62,-267.5 3098.62,-267.5"/>
<text text-anchor="start" x="3101.62" y="-273.2" font-family="Times,serif" font-size="14.00">{column_name}::INT</text>
<polygon fill="none" stroke="black" points="2842.62,-264.5 2842.62,-447.5 3741.62,-447.5 3741.62,-264.5 2842.62,-264.5"/>
</a>
</g>
</g>
<!-- medicare._ps.zip&#45;&gt;medicare._enrollments.zip -->
<g id="edge12" class="edge">
<title>medicare._ps.zip&#45;&gt;medicare._enrollments.zip</title>
<path fill="none" stroke="blue" stroke-width="5" d="M2936.12,-260.01C2842.76,-235.1 2748.69,-210 2678.51,-191.27"/>
<polygon fill="blue" stroke="blue" stroke-width="5" points="2679.82,-187.09 2669.03,-188.74 2677.56,-195.55 2679.82,-187.09"/>
<text text-anchor="middle" x="2983.5" y="-236.95" font-family="Times,serif" font-size="14.00">	 &#160;Aggregated On bene_id, year, state</text>
</g>
<!-- medicare.ps.zip -->
<g id="node13" class="node">
<title>medicare.ps.zip</title>
<g id="a_node13"><a xlink:href="../medicare.ps/zip.html" xlink:title="&lt;TABLE&gt;" target="_blank">
<polygon fill="none" stroke="black" points="3749.62,-679.5 2834.62,-679.5 2834.62,-488.5 3749.62,-488.5 3749.62,-679.5"/>
<text text-anchor="start" x="2925.38" y="-658.2" font-family="Times,serif" font-weight="bold" font-size="14.00">medicare.ps.zip</text>
<text text-anchor="start" x="2870.62" y="-612.2" font-family="Times,serif" font-size="14.00">US Postal ZIP code, the first 5 digits</text>
<text text-anchor="start" x="2959.88" y="-595.7" font-family="Times,serif" font-size="14.00">of it</text>
<polygon fill="none" stroke="black" points="2845.62,-543.5 2845.62,-565.5 3096.62,-565.5 3096.62,-543.5 2845.62,-543.5"/>
<text text-anchor="start" x="2848.62" y="-549.2" font-family="Times,serif" font-size="14.00">numeric →</text>
<polygon fill="none" stroke="black" points="3098.62,-543.5 3098.62,-565.5 3738.62,-565.5 3738.62,-543.5 3098.62,-543.5"/>
<text text-anchor="start" x="3101.38" y="-549.2" font-family="Times,serif" font-size="14.00">(CASE WHEN {column_name} &lt; 100000 THEN {column_name}::int ELSE ({column_name}/10000)::INT END)</text>
<polygon fill="none" stroke="black" points="2845.62,-519.5 2845.62,-541.5 3096.62,-541.5 3096.62,-519.5 2845.62,-519.5"/>
<text text-anchor="start" x="2848.62" y="-525.2" font-family="Times,serif" font-size="14.00">character varying →</text>
<polygon fill="none" stroke="black" points="3098.62,-519.5 3098.62,-541.5 3738.62,-541.5 3738.62,-519.5 3098.62,-519.5"/>
<text text-anchor="start" x="3101.62" y="-525.2" font-family="Times,serif" font-size="14.00">SUBSTRING({column_name} FROM 1 FOR 5)::INT</text>
<polygon fill="none" stroke="black" points="2845.62,-495.5 2845.62,-517.5 3096.62,-517.5 3096.62,-495.5 2845.62,-495.5"/>
<text text-anchor="start" x="2848.62" y="-501.2" font-family="Times,serif" font-size="14.00">integer →</text>
<polygon fill="none" stroke="black" points="3098.62,-495.5 3098.62,-517.5 3738.62,-517.5 3738.62,-495.5 3098.62,-495.5"/>
<text text-anchor="start" x="3101.62" y="-501.2" font-family="Times,serif" font-size="14.00">{column_name}::INT</text>
<polygon fill="none" stroke="black" points="2842.62,-492.5 2842.62,-675.5 3741.62,-675.5 3741.62,-492.5 2842.62,-492.5"/>
</a>
</g>
</g>
<!-- medicare.ps.zip&#45;&gt;medicare._ps.zip -->
<g id="edge13" class="edge">
<title>medicare.ps.zip&#45;&gt;medicare._ps.zip</title>
<path fill="none" stroke="black" d="M3292.12,-488.14C3292.12,-479.92 3292.12,-471.56 3292.12,-463.26"/>
<polygon fill="black" stroke="black" points="3295.63,-463.5 3292.13,-453.5 3288.63,-463.5 3295.63,-463.5"/>
<text text-anchor="middle" x="3311.62" y="-464.95" font-family="Times,serif" font-size="14.00">Copied</text>
</g>
<!-- medicare.ps.zip_parent -->
<g id="node14" class="node">
<title>medicare.ps.zip_parent</title>
<g id="a_node14"><a xlink:href="../medicare.ps/zip.html" xlink:title="8 incoming links (columns)" target="_blank">
<path fill="yellow" stroke="black" d="M3400.12,-814.68C3400.12,-820.1 3351.72,-824.5 3292.12,-824.5 3232.53,-824.5 3184.12,-820.1 3184.12,-814.68 3184.12,-814.68 3184.12,-726.32 3184.12,-726.32 3184.12,-720.9 3232.53,-716.5 3292.12,-716.5 3351.72,-716.5 3400.12,-720.9 3400.12,-726.32 3400.12,-726.32 3400.12,-814.68 3400.12,-814.68"/>
<path fill="none" stroke="black" d="M3400.12,-814.68C3400.12,-809.26 3351.72,-804.86 3292.12,-804.86 3232.53,-804.86 3184.12,-809.26 3184.12,-814.68"/>
<text text-anchor="middle" x="3292.12" y="-765.45" font-family="Times,serif" font-size="14.00">8 incoming links (columns)</text>
</a>
</g>
</g>
<!-- medicare.ps.zip_parent&#45;&gt;medicare.ps.zip -->
<g id="edge14" class="edge">
<title>medicare.ps.zip_parent&#45;&gt;medicare.ps.zip</title>
<path fill="none" stroke="goldenrod" stroke-width="6" d="M3292.12,-716.13C3292.12,-709.73 3292.12,-703.02 3292.12,-696.16"/>
<polygon fill="goldenrod" stroke="goldenrod" stroke-width="6" points="3297.38,-696.43 3292.13,-686.43 3286.88,-696.43 3297.38,-696.43"/>
</g>
</g>
</svg>
