<?xml version="1.0" encoding="UTF-8" standalone="no"?>
<!DOCTYPE svg PUBLIC "-//W3C//DTD SVG 1.1//EN"
 "http://www.w3.org/Graphics/SVG/1.1/DTD/svg11.dtd">
<!-- Generated by graphviz version 10.0.1 (20240210.2158)
 -->
<!-- Pages: 1 -->
<svg width="444pt" height="462pt"
 viewBox="0.00 0.00 443.88 462.00" xmlns="http://www.w3.org/2000/svg" xmlns:xlink="http://www.w3.org/1999/xlink">
<g id="graph0" class="graph" transform="scale(1 1) rotate(0) translate(4 458)">
<polygon fill="white" stroke="none" points="-4,4 -4,-458 439.88,-458 439.88,4 -4,4"/>
<!-- medicare._enrollments.fips2 -->
<g id="node1" class="node">
<title>medicare._enrollments.fips2</title>
<g id="a_node1"><a xlink:href="../medicare._enrollments/fips2.html" xlink:title="&lt;TABLE&gt;" target="_blank">
<polygon fill="none" stroke="black" points="302.62,-59 111.62,-59 111.62,0 302.62,0 302.62,-59"/>
<text text-anchor="start" x="124.62" y="-37.7" font-family="Times,serif" font-weight="bold" font-size="14.00">medicare._enrollments.fips2</text>
<polygon fill="none" stroke="black" points="122.62,-7 122.62,-29.5 291.62,-29.5 291.62,-7 122.62,-7"/>
<text text-anchor="start" x="125.62" y="-13.2" font-family="Times,serif" font-size="14.00">MAX(fips2)</text>
<polygon fill="none" stroke="black" points="119.62,-4 119.62,-55 294.62,-55 294.62,-4 119.62,-4"/>
</a>
</g>
</g>
<!-- medicare._ps.fips2 -->
<g id="node2" class="node">
<title>medicare._ps.fips2</title>
<g id="a_node2"><a xlink:href="../medicare._ps/fips2.html" xlink:title="&lt;TABLE&gt;" target="_blank">
<polygon fill="none" stroke="black" points="414.25,-256.5 0,-256.5 0,-96 414.25,-96 414.25,-256.5"/>
<text text-anchor="start" x="152.75" y="-235.2" font-family="Times,serif" font-weight="bold" font-size="14.00">medicare._ps.fips2</text>
<text text-anchor="start" x="47.62" y="-188.7" font-family="Times,serif" font-size="14.00">2 digit state FIPS, see https://en.wikip</text>
<text text-anchor="start" x="36" y="-172.2" font-family="Times,serif" font-size="14.00">edia.org/wiki/Federal_Information_Proces</text>
<text text-anchor="start" x="81" y="-155.7" font-family="Times,serif" font-size="14.00">sing_Standard_state_code</text>
<polygon fill="none" stroke="black" points="11,-103 11,-125.5 403.25,-125.5 403.25,-103 11,-103"/>
<text text-anchor="start" x="14" y="-109.2" font-family="Times,serif" font-size="14.00">(SELECT fips2 FROM public.us_states as s WHERE s.ssa2 = &quot;state&quot;)</text>
<polygon fill="none" stroke="black" points="8,-100 8,-252.5 406.25,-252.5 406.25,-100 8,-100"/>
</a>
</g>
</g>
<!-- medicare._ps.fips2&#45;&gt;medicare._enrollments.fips2 -->
<g id="edge1" class="edge">
<title>medicare._ps.fips2&#45;&gt;medicare._enrollments.fips2</title>
<path fill="none" stroke="blue" stroke-width="5" d="M207.12,-95.68C207.12,-88.77 207.12,-81.94 207.12,-75.47"/>
<polygon fill="blue" stroke="blue" stroke-width="5" points="211.5,-75.53 207.13,-65.53 202.75,-75.53 211.5,-75.53"/>
<text text-anchor="middle" x="321.5" y="-72.45" font-family="Times,serif" font-size="14.00">	 &#160;Aggregated On bene_id, year, state</text>
</g>
<!-- medicare.ps.fips2 -->
<g id="node3" class="node">
<title>medicare.ps.fips2</title>
<g id="a_node3"><a xlink:href="../medicare.ps/fips2.html" xlink:title="&lt;TABLE&gt;" target="_blank">
<polygon fill="none" stroke="black" points="414.25,-454 0,-454 0,-293.5 414.25,-293.5 414.25,-454"/>
<text text-anchor="start" x="156.12" y="-432.7" font-family="Times,serif" font-weight="bold" font-size="14.00">medicare.ps.fips2</text>
<text text-anchor="start" x="47.62" y="-386.2" font-family="Times,serif" font-size="14.00">2 digit state FIPS, see https://en.wikip</text>
<text text-anchor="start" x="36" y="-369.7" font-family="Times,serif" font-size="14.00">edia.org/wiki/Federal_Information_Proces</text>
<text text-anchor="start" x="81" y="-353.2" font-family="Times,serif" font-size="14.00">sing_Standard_state_code</text>
<polygon fill="none" stroke="black" points="11,-300.5 11,-323 403.25,-323 403.25,-300.5 11,-300.5"/>
<text text-anchor="start" x="14" y="-306.7" font-family="Times,serif" font-size="14.00">(SELECT fips2 FROM public.us_states as s WHERE s.ssa2 = &quot;state&quot;)</text>
<polygon fill="none" stroke="black" points="8,-297.5 8,-450 406.25,-450 406.25,-297.5 8,-297.5"/>
</a>
</g>
</g>
<!-- medicare.ps.fips2&#45;&gt;medicare._ps.fips2 -->
<g id="edge2" class="edge">
<title>medicare.ps.fips2&#45;&gt;medicare._ps.fips2</title>
<path fill="none" stroke="black" d="M207.12,-293.23C207.12,-284.95 207.12,-276.48 207.12,-268.08"/>
<polygon fill="black" stroke="black" points="210.63,-268.21 207.13,-258.21 203.63,-268.21 210.63,-268.21"/>
<text text-anchor="middle" x="226.62" y="-269.95" font-family="Times,serif" font-size="14.00">Copied</text>
</g>
</g>
</svg>
