<?xml version="1.0" encoding="UTF-8" standalone="no"?>
<!DOCTYPE svg PUBLIC "-//W3C//DTD SVG 1.1//EN"
 "http://www.w3.org/Graphics/SVG/1.1/DTD/svg11.dtd">
<!-- Generated by graphviz version 10.0.1 (20240210.2158)
 -->
<!-- Pages: 1 -->
<svg width="2270pt" height="410pt"
 viewBox="0.00 0.00 2270.12 409.50" xmlns="http://www.w3.org/2000/svg" xmlns:xlink="http://www.w3.org/1999/xlink">
<g id="graph0" class="graph" transform="scale(1 1) rotate(0) translate(4 405.5)">
<polygon fill="white" stroke="none" points="-4,4 -4,-405.5 2266.12,-405.5 2266.12,4 -4,4"/>
<!-- medicare._ps.fips3_list -->
<g id="node1" class="node">
<title>medicare._ps.fips3_list</title>
<g id="a_node1"><a xlink:href="../medicare._ps/fips3_list.html" xlink:title="&lt;TABLE&gt;" target="_blank">
<polygon fill="none" stroke="black" points="1838.5,-59 0,-59 0,0 1838.5,0 1838.5,-59"/>
<text text-anchor="start" x="852.88" y="-37.7" font-family="Times,serif" font-weight="bold" font-size="14.00">medicare._ps.fips3_list</text>
<polygon fill="none" stroke="black" points="11,-7 11,-29.5 1827.5,-29.5 1827.5,-7 11,-7"/>
<text text-anchor="start" x="14" y="-13.2" font-family="Times,serif" font-size="14.00">CASE WHEN year &gt; 2010 THEN (SELECT string_agg(distinct fips3::varchar, &#39;,&#39;) from public.ssa as s where ps.ssa3 = s.ssa3 and ps.year = s.year and ps.fips2 = s.fips2) &#160;&#160;&#160;ELSE (SELECT string_agg(distinct fips3::varchar, &#39;,&#39;) from public.ssa as s where ps.ssa3 = s.ssa3 and 2003 = s.year and ps.fips2 = s.fips2) END AS fips3_list</text>
<polygon fill="none" stroke="black" points="8,-4 8,-55 1830.5,-55 1830.5,-4 8,-4"/>
</a>
</g>
</g>
<!-- medicare.ps.ssa3 -->
<g id="node2" class="node">
<title>medicare.ps.ssa3</title>
<g id="a_node2"><a xlink:href="../medicare.ps/ssa3.html" xlink:title="&lt;TABLE&gt;" target="_blank">
<polygon fill="none" stroke="black" points="694,-236 416.5,-236 416.5,-116.5 694,-116.5 694,-236"/>
<text text-anchor="start" x="506.12" y="-214.7" font-family="Times,serif" font-weight="bold" font-size="14.00">medicare.ps.ssa3</text>
<text text-anchor="start" x="452.5" y="-168.2" font-family="Times,serif" font-size="14.00">Social Security Administration (SSA)</text>
<text text-anchor="start" x="482.88" y="-151.7" font-family="Times,serif" font-size="14.00">three digit code for county</text>
<polygon fill="none" stroke="black" points="424.5,-120.5 424.5,-232 686,-232 686,-120.5 424.5,-120.5"/>
</a>
</g>
</g>
<!-- medicare.ps.ssa3&#45;&gt;medicare._ps.fips3_list -->
<g id="edge1" class="edge">
<title>medicare.ps.ssa3&#45;&gt;medicare._ps.fips3_list</title>
<path fill="none" stroke="black" d="M659.52,-116.15C674,-108.91 688.85,-101.97 703.25,-96 733.28,-83.55 766.54,-72.29 797.77,-62.75"/>
<polygon fill="black" stroke="black" points="798.71,-66.13 807.27,-59.89 796.69,-59.42 798.71,-66.13"/>
<text text-anchor="middle" x="791.88" y="-72.45" font-family="Times,serif" font-size="14.00"> &#160;Transformed</text>
</g>
<!-- medicare.ps.ssa3_parent -->
<g id="node3" class="node">
<title>medicare.ps.ssa3_parent</title>
<g id="a_node3"><a xlink:href="../medicare.ps/ssa3.html" xlink:title="8 incoming links (columns)" target="_blank">
<path fill="yellow" stroke="black" d="M663.25,-391.68C663.25,-397.1 614.84,-401.5 555.25,-401.5 495.66,-401.5 447.25,-397.1 447.25,-391.68 447.25,-391.68 447.25,-303.32 447.25,-303.32 447.25,-297.9 495.66,-293.5 555.25,-293.5 614.84,-293.5 663.25,-297.9 663.25,-303.32 663.25,-303.32 663.25,-391.68 663.25,-391.68"/>
<path fill="none" stroke="black" d="M663.25,-391.68C663.25,-386.26 614.84,-381.86 555.25,-381.86 495.66,-381.86 447.25,-386.26 447.25,-391.68"/>
<text text-anchor="middle" x="555.25" y="-342.45" font-family="Times,serif" font-size="14.00">8 incoming links (columns)</text>
</a>
</g>
</g>
<!-- medicare.ps.ssa3_parent&#45;&gt;medicare.ps.ssa3 -->
<g id="edge2" class="edge">
<title>medicare.ps.ssa3_parent&#45;&gt;medicare.ps.ssa3</title>
<path fill="none" stroke="goldenrod" stroke-width="6" d="M555.25,-293.41C555.25,-280.38 555.25,-266.19 555.25,-252.34"/>
<polygon fill="goldenrod" stroke="goldenrod" stroke-width="6" points="560.5,-252.79 555.25,-242.79 550,-252.79 560.5,-252.79"/>
</g>
<!-- medicare.ps.fips2 -->
<g id="node4" class="node">
<title>medicare.ps.fips2</title>
<g id="a_node4"><a xlink:href="../medicare.ps/fips2.html" xlink:title="&lt;TABLE&gt;" target="_blank">
<polygon fill="none" stroke="black" points="1126.38,-256.5 712.12,-256.5 712.12,-96 1126.38,-96 1126.38,-256.5"/>
<text text-anchor="start" x="868.25" y="-235.2" font-family="Times,serif" font-weight="bold" font-size="14.00">medicare.ps.fips2</text>
<text text-anchor="start" x="759.75" y="-188.7" font-family="Times,serif" font-size="14.00">2 digit state FIPS, see https://en.wikip</text>
<text text-anchor="start" x="748.12" y="-172.2" font-family="Times,serif" font-size="14.00">edia.org/wiki/Federal_Information_Proces</text>
<text text-anchor="start" x="793.12" y="-155.7" font-family="Times,serif" font-size="14.00">sing_Standard_state_code</text>
<polygon fill="none" stroke="black" points="723.12,-103 723.12,-125.5 1115.38,-125.5 1115.38,-103 723.12,-103"/>
<text text-anchor="start" x="726.12" y="-109.2" font-family="Times,serif" font-size="14.00">(SELECT fips2 FROM public.us_states as s WHERE s.ssa2 = &quot;state&quot;)</text>
<polygon fill="none" stroke="black" points="720.12,-100 720.12,-252.5 1118.38,-252.5 1118.38,-100 720.12,-100"/>
</a>
</g>
</g>
<!-- medicare.ps.fips2&#45;&gt;medicare._ps.fips3_list -->
<g id="edge3" class="edge">
<title>medicare.ps.fips2&#45;&gt;medicare._ps.fips3_list</title>
<path fill="none" stroke="black" d="M919.25,-95.68C919.25,-87.04 919.25,-78.54 919.25,-70.68"/>
<polygon fill="black" stroke="black" points="922.75,-70.81 919.25,-60.81 915.75,-70.81 922.75,-70.81"/>
<text text-anchor="middle" x="957.88" y="-72.45" font-family="Times,serif" font-size="14.00"> &#160;Transformed</text>
</g>
<!-- medicare.ps.year -->
<g id="node5" class="node">
<title>medicare.ps.year</title>
<g id="a_node5"><a xlink:href="../medicare.ps/year.html" xlink:title="&lt;TABLE&gt;" target="_blank">
<polygon fill="none" stroke="black" points="2262.12,-205.75 1144.38,-205.75 1144.38,-146.75 2262.12,-146.75 2262.12,-205.75"/>
<text text-anchor="start" x="1653.38" y="-184.45" font-family="Times,serif" font-weight="bold" font-size="14.00">medicare.ps.year</text>
<polygon fill="none" stroke="black" points="1155.38,-153.75 1155.38,-176.25 2251.12,-176.25 2251.12,-153.75 1155.38,-153.75"/>
<text text-anchor="start" x="1158.38" y="-159.95" font-family="Times,serif" font-size="14.00">(CASE WHEN &quot;year&quot;::int &lt; 20 THEN (2000 + &quot;year&quot;::int) WHEN (20 &lt; &quot;year&quot;::int AND &quot;year&quot;::int &lt; 100) THEN (1900 + &quot;year&quot;::int) WHEN &quot;year&quot; IS NULL THEN 2000 ELSE &quot;year&quot;::int END)</text>
<polygon fill="none" stroke="black" points="1152.38,-150.75 1152.38,-201.75 2254.12,-201.75 2254.12,-150.75 1152.38,-150.75"/>
</a>
</g>
</g>
<!-- medicare.ps.year&#45;&gt;medicare._ps.fips3_list -->
<g id="edge4" class="edge">
<title>medicare.ps.year&#45;&gt;medicare._ps.fips3_list</title>
<path fill="none" stroke="black" d="M1546.48,-146.31C1413.46,-121.75 1223.08,-86.6 1087.02,-61.47"/>
<polygon fill="black" stroke="black" points="1088.04,-58.1 1077.57,-59.73 1086.77,-64.99 1088.04,-58.1"/>
<text text-anchor="middle" x="1211.88" y="-72.45" font-family="Times,serif" font-size="14.00"> &#160;Transformed</text>
</g>
<!-- medicare.ps.year_parent -->
<g id="node6" class="node">
<title>medicare.ps.year_parent</title>
<g id="a_node6"><a xlink:href="../medicare.ps/year.html" xlink:title="8 incoming links (columns)" target="_blank">
<path fill="yellow" stroke="black" d="M1811.25,-391.68C1811.25,-397.1 1762.84,-401.5 1703.25,-401.5 1643.66,-401.5 1595.25,-397.1 1595.25,-391.68 1595.25,-391.68 1595.25,-303.32 1595.25,-303.32 1595.25,-297.9 1643.66,-293.5 1703.25,-293.5 1762.84,-293.5 1811.25,-297.9 1811.25,-303.32 1811.25,-303.32 1811.25,-391.68 1811.25,-391.68"/>
<path fill="none" stroke="black" d="M1811.25,-391.68C1811.25,-386.26 1762.84,-381.86 1703.25,-381.86 1643.66,-381.86 1595.25,-386.26 1595.25,-391.68"/>
<text text-anchor="middle" x="1703.25" y="-342.45" font-family="Times,serif" font-size="14.00">8 incoming links (columns)</text>
</a>
</g>
</g>
<!-- medicare.ps.year_parent&#45;&gt;medicare.ps.year -->
<g id="edge5" class="edge">
<title>medicare.ps.year_parent&#45;&gt;medicare.ps.year</title>
<path fill="none" stroke="goldenrod" stroke-width="6" d="M1703.25,-293.41C1703.25,-270.62 1703.25,-244.26 1703.25,-222.42"/>
<polygon fill="goldenrod" stroke="goldenrod" stroke-width="6" points="1708.5,-222.48 1703.25,-212.48 1698,-222.48 1708.5,-222.48"/>
</g>
</g>
</svg>
