<?xml version="1.0" encoding="UTF-8" standalone="no"?>
<!DOCTYPE svg PUBLIC "-//W3C//DTD SVG 1.1//EN"
 "http://www.w3.org/Graphics/SVG/1.1/DTD/svg11.dtd">
<!-- Generated by graphviz version 10.0.1 (20240210.2158)
 -->
<!-- Pages: 1 -->
<svg width="2393pt" height="506pt"
 viewBox="0.00 0.00 2392.50 505.50" xmlns="http://www.w3.org/2000/svg" xmlns:xlink="http://www.w3.org/1999/xlink">
<g id="graph0" class="graph" transform="scale(1 1) rotate(0) translate(4 501.5)">
<polygon fill="white" stroke="none" points="-4,4 -4,-501.5 2388.5,-501.5 2388.5,4 -4,4"/>
<!-- medicare._enrollments.fips3 -->
<g id="node1" class="node">
<title>medicare._enrollments.fips3</title>
<g id="a_node1"><a xlink:href="../medicare._enrollments/fips3.html" xlink:title="&lt;TABLE&gt;" target="_blank">
<polygon fill="none" stroke="black" points="1287.75,-59 1096.75,-59 1096.75,0 1287.75,0 1287.75,-59"/>
<text text-anchor="start" x="1109.75" y="-37.7" font-family="Times,serif" font-weight="bold" font-size="14.00">medicare._enrollments.fips3</text>
<polygon fill="none" stroke="black" points="1107.75,-7 1107.75,-29.5 1276.75,-29.5 1276.75,-7 1107.75,-7"/>
<text text-anchor="start" x="1110.75" y="-13.2" font-family="Times,serif" font-size="14.00">MAX(fips3)</text>
<polygon fill="none" stroke="black" points="1104.75,-4 1104.75,-55 1279.75,-55 1279.75,-4 1104.75,-4"/>
</a>
</g>
</g>
<!-- medicare._ps.fips3 -->
<g id="node2" class="node">
<title>medicare._ps.fips3</title>
<g id="a_node2"><a xlink:href="../medicare._ps/fips3.html" xlink:title="&lt;TABLE&gt;" target="_blank">
<polygon fill="none" stroke="black" points="2384.5,-155 0,-155 0,-96 2384.5,-96 2384.5,-155"/>
<text text-anchor="start" x="1137.88" y="-133.7" font-family="Times,serif" font-weight="bold" font-size="14.00">medicare._ps.fips3</text>
<polygon fill="none" stroke="black" points="11,-103 11,-125.5 2373.5,-125.5 2373.5,-103 11,-103"/>
<text text-anchor="start" x="14" y="-109.2" font-family="Times,serif" font-size="14.00">CASE WHEN ssa3 is NOT NULL THEN &#160;CASE WHEN year &gt; 2010 THEN &#160;&#160;&#160;&#160;&#160;(SELECT fips3 from public.ssa as s where ps.ssa3 = s.ssa3 and ps.year = s.year and ps.fips2 = s.fips2 ORDER BY 1 DESC LIMIT 1) &#160;&#160;&#160;ELSE &#160;&#160;&#160;&#160;&#160;(SELECT fips3 from public.ssa as s where ps.ssa3 = s.ssa3 and 2003 = s.year and ps.fips2 = s.fips2 ORDER BY 1 DESC LIMIT 1) &#160;ENDELSE &#160;(SELECT public.zip_to_fips3(year, zip))END AS fips3</text>
<polygon fill="none" stroke="black" points="8,-100 8,-151 2376.5,-151 2376.5,-100 8,-100"/>
</a>
</g>
</g>
<!-- medicare._ps.fips3&#45;&gt;medicare._enrollments.fips3 -->
<g id="edge1" class="edge">
<title>medicare._ps.fips3&#45;&gt;medicare._enrollments.fips3</title>
<path fill="none" stroke="blue" stroke-width="5" d="M1192.25,-95.53C1192.25,-89.13 1192.25,-82.2 1192.25,-75.33"/>
<polygon fill="blue" stroke="blue" stroke-width="5" points="1196.63,-75.45 1192.25,-65.45 1187.88,-75.45 1196.63,-75.45"/>
<text text-anchor="middle" x="1306.62" y="-72.45" font-family="Times,serif" font-size="14.00">	 &#160;Aggregated On bene_id, year, state</text>
</g>
<!-- medicare.ps.ssa3 -->
<g id="node3" class="node">
<title>medicare.ps.ssa3</title>
<g id="a_node3"><a xlink:href="../medicare.ps/ssa3.html" xlink:title="&lt;TABLE&gt;" target="_blank">
<polygon fill="none" stroke="black" points="615,-332 337.5,-332 337.5,-212.5 615,-212.5 615,-332"/>
<text text-anchor="start" x="427.12" y="-310.7" font-family="Times,serif" font-weight="bold" font-size="14.00">medicare.ps.ssa3</text>
<text text-anchor="start" x="373.5" y="-264.2" font-family="Times,serif" font-size="14.00">Social Security Administration (SSA)</text>
<text text-anchor="start" x="403.88" y="-247.7" font-family="Times,serif" font-size="14.00">three digit code for county</text>
<polygon fill="none" stroke="black" points="345.5,-216.5 345.5,-328 607,-328 607,-216.5 345.5,-216.5"/>
</a>
</g>
</g>
<!-- medicare.ps.ssa3&#45;&gt;medicare._ps.fips3 -->
<g id="edge2" class="edge">
<title>medicare.ps.ssa3&#45;&gt;medicare._ps.fips3</title>
<path fill="none" stroke="black" d="M574.73,-212.01C590.85,-204.23 607.7,-197.18 624.25,-192 670.27,-177.6 719.28,-166.31 768.48,-157.46"/>
<polygon fill="black" stroke="black" points="768.91,-160.94 778.15,-155.76 767.7,-154.05 768.91,-160.94"/>
<text text-anchor="middle" x="730.88" y="-168.45" font-family="Times,serif" font-size="14.00"> &#160;Transformed</text>
</g>
<!-- medicare.ps.ssa3_parent -->
<g id="node4" class="node">
<title>medicare.ps.ssa3_parent</title>
<g id="a_node4"><a xlink:href="../medicare.ps/ssa3.html" xlink:title="8 incoming links (columns)" target="_blank">
<path fill="yellow" stroke="black" d="M584.25,-487.68C584.25,-493.1 535.84,-497.5 476.25,-497.5 416.66,-497.5 368.25,-493.1 368.25,-487.68 368.25,-487.68 368.25,-399.32 368.25,-399.32 368.25,-393.9 416.66,-389.5 476.25,-389.5 535.84,-389.5 584.25,-393.9 584.25,-399.32 584.25,-399.32 584.25,-487.68 584.25,-487.68"/>
<path fill="none" stroke="black" d="M584.25,-487.68C584.25,-482.26 535.84,-477.86 476.25,-477.86 416.66,-477.86 368.25,-482.26 368.25,-487.68"/>
<text text-anchor="middle" x="476.25" y="-438.45" font-family="Times,serif" font-size="14.00">8 incoming links (columns)</text>
</a>
</g>
</g>
<!-- medicare.ps.ssa3_parent&#45;&gt;medicare.ps.ssa3 -->
<g id="edge3" class="edge">
<title>medicare.ps.ssa3_parent&#45;&gt;medicare.ps.ssa3</title>
<path fill="none" stroke="goldenrod" stroke-width="6" d="M476.25,-389.41C476.25,-376.38 476.25,-362.19 476.25,-348.34"/>
<polygon fill="goldenrod" stroke="goldenrod" stroke-width="6" points="481.5,-348.79 476.25,-338.79 471,-348.79 481.5,-348.79"/>
</g>
<!-- medicare.ps.year -->
<g id="node5" class="node">
<title>medicare.ps.year</title>
<g id="a_node5"><a xlink:href="../medicare.ps/year.html" xlink:title="&lt;TABLE&gt;" target="_blank">
<polygon fill="none" stroke="black" points="1751.12,-336 633.38,-336 633.38,-208.5 1751.12,-208.5 1751.12,-336"/>
<text text-anchor="start" x="1142.38" y="-314.7" font-family="Times,serif" font-weight="bold" font-size="14.00">medicare.ps.year</text>
<text text-anchor="start" x="669.38" y="-268.2" font-family="Times,serif" font-size="14.00">Beneficiary Enrollment Reference Year</text>
<polygon fill="none" stroke="black" points="644.38,-215.5 644.38,-238 1740.12,-238 1740.12,-215.5 644.38,-215.5"/>
<text text-anchor="start" x="647.38" y="-221.7" font-family="Times,serif" font-size="14.00">(CASE WHEN &quot;year&quot;::int &lt; 20 THEN (2000 + &quot;year&quot;::int) WHEN (20 &lt; &quot;year&quot;::int AND &quot;year&quot;::int &lt; 100) THEN (1900 + &quot;year&quot;::int) WHEN &quot;year&quot; IS NULL THEN 2000 ELSE &quot;year&quot;::int END)</text>
<polygon fill="none" stroke="black" points="641.38,-212.5 641.38,-332 1743.12,-332 1743.12,-212.5 641.38,-212.5"/>
</a>
</g>
</g>
<!-- medicare.ps.year&#45;&gt;medicare._ps.fips3 -->
<g id="edge4" class="edge">
<title>medicare.ps.year&#45;&gt;medicare._ps.fips3</title>
<path fill="none" stroke="black" d="M1192.25,-208.18C1192.25,-194.07 1192.25,-179.47 1192.25,-166.59"/>
<polygon fill="black" stroke="black" points="1195.75,-166.82 1192.25,-156.82 1188.75,-166.82 1195.75,-166.82"/>
<text text-anchor="middle" x="1230.88" y="-168.45" font-family="Times,serif" font-size="14.00"> &#160;Transformed</text>
</g>
<!-- medicare.ps.year_parent -->
<g id="node6" class="node">
<title>medicare.ps.year_parent</title>
<g id="a_node6"><a xlink:href="../medicare.ps/year.html" xlink:title="8 incoming links (columns)" target="_blank">
<path fill="yellow" stroke="black" d="M1300.25,-487.68C1300.25,-493.1 1251.84,-497.5 1192.25,-497.5 1132.66,-497.5 1084.25,-493.1 1084.25,-487.68 1084.25,-487.68 1084.25,-399.32 1084.25,-399.32 1084.25,-393.9 1132.66,-389.5 1192.25,-389.5 1251.84,-389.5 1300.25,-393.9 1300.25,-399.32 1300.25,-399.32 1300.25,-487.68 1300.25,-487.68"/>
<path fill="none" stroke="black" d="M1300.25,-487.68C1300.25,-482.26 1251.84,-477.86 1192.25,-477.86 1132.66,-477.86 1084.25,-482.26 1084.25,-487.68"/>
<text text-anchor="middle" x="1192.25" y="-438.45" font-family="Times,serif" font-size="14.00">8 incoming links (columns)</text>
</a>
</g>
</g>
<!-- medicare.ps.year_parent&#45;&gt;medicare.ps.year -->
<g id="edge5" class="edge">
<title>medicare.ps.year_parent&#45;&gt;medicare.ps.year</title>
<path fill="none" stroke="goldenrod" stroke-width="6" d="M1192.25,-389.41C1192.25,-377.68 1192.25,-365.01 1192.25,-352.5"/>
<polygon fill="goldenrod" stroke="goldenrod" stroke-width="6" points="1197.5,-352.68 1192.25,-342.68 1187,-352.68 1197.5,-352.68"/>
</g>
<!-- medicare.ps.fips2 -->
<g id="node7" class="node">
<title>medicare.ps.fips2</title>
<g id="a_node7"><a xlink:href="../medicare.ps/fips2.html" xlink:title="&lt;TABLE&gt;" target="_blank">
<polygon fill="none" stroke="black" points="2183.38,-352.5 1769.12,-352.5 1769.12,-192 2183.38,-192 2183.38,-352.5"/>
<text text-anchor="start" x="1925.25" y="-331.2" font-family="Times,serif" font-weight="bold" font-size="14.00">medicare.ps.fips2</text>
<text text-anchor="start" x="1816.75" y="-284.7" font-family="Times,serif" font-size="14.00">2 digit state FIPS, see https://en.wikip</text>
<text text-anchor="start" x="1805.12" y="-268.2" font-family="Times,serif" font-size="14.00">edia.org/wiki/Federal_Information_Proces</text>
<text text-anchor="start" x="1850.12" y="-251.7" font-family="Times,serif" font-size="14.00">sing_Standard_state_code</text>
<polygon fill="none" stroke="black" points="1780.12,-199 1780.12,-221.5 2172.38,-221.5 2172.38,-199 1780.12,-199"/>
<text text-anchor="start" x="1783.12" y="-205.2" font-family="Times,serif" font-size="14.00">(SELECT fips2 FROM public.us_states as s WHERE s.ssa2 = &quot;state&quot;)</text>
<polygon fill="none" stroke="black" points="1777.12,-196 1777.12,-348.5 2175.38,-348.5 2175.38,-196 1777.12,-196"/>
</a>
</g>
</g>
<!-- medicare.ps.fips2&#45;&gt;medicare._ps.fips3 -->
<g id="edge6" class="edge">
<title>medicare.ps.fips2&#45;&gt;medicare._ps.fips3</title>
<path fill="none" stroke="black" d="M1768.74,-194.08C1765.9,-193.36 1763.07,-192.67 1760.25,-192 1698.4,-177.31 1631.94,-165.87 1567.06,-156.97"/>
<polygon fill="black" stroke="black" points="1567.7,-153.52 1557.32,-155.65 1566.76,-160.46 1567.7,-153.52"/>
<text text-anchor="middle" x="1707.88" y="-168.45" font-family="Times,serif" font-size="14.00"> &#160;Transformed</text>
</g>
</g>
</svg>
