<?xml version="1.0" encoding="UTF-8" standalone="no"?>
<!DOCTYPE svg PUBLIC "-//W3C//DTD SVG 1.1//EN"
 "http://www.w3.org/Graphics/SVG/1.1/DTD/svg11.dtd">
<!-- Generated by graphviz version 10.0.1 (20240210.2158)
 -->
<!-- Pages: 1 -->
<svg width="2475pt" height="410pt"
 viewBox="0.00 0.00 2475.12 409.50" xmlns="http://www.w3.org/2000/svg" xmlns:xlink="http://www.w3.org/1999/xlink">
<g id="graph0" class="graph" transform="scale(1 1) rotate(0) translate(4 405.5)">
<polygon fill="white" stroke="none" points="-4,4 -4,-405.5 2471.12,-405.5 2471.12,4 -4,4"/>
<!-- medicare._ps.fips3 -->
<g id="node1" class="node">
<title>medicare._ps.fips3</title>
<g id="a_node1"><a xlink:href="../medicare._ps/fips3.html" xlink:title="&lt;TABLE&gt;" target="_blank">
<polygon fill="none" stroke="black" points="2467.12,-59 82.62,-59 82.62,0 2467.12,0 2467.12,-59"/>
<text text-anchor="start" x="1220.5" y="-37.7" font-family="Times,serif" font-weight="bold" font-size="14.00">medicare._ps.fips3</text>
<polygon fill="none" stroke="black" points="93.62,-7 93.62,-29.5 2456.12,-29.5 2456.12,-7 93.62,-7"/>
<text text-anchor="start" x="96.62" y="-13.2" font-family="Times,serif" font-size="14.00">CASE WHEN ssa3 is NOT NULL THEN &#160;CASE WHEN year &gt; 2010 THEN &#160;&#160;&#160;&#160;&#160;(SELECT fips3 from public.ssa as s where ps.ssa3 = s.ssa3 and ps.year = s.year and ps.fips2 = s.fips2 ORDER BY 1 DESC LIMIT 1) &#160;&#160;&#160;ELSE &#160;&#160;&#160;&#160;&#160;(SELECT fips3 from public.ssa as s where ps.ssa3 = s.ssa3 and 2003 = s.year and ps.fips2 = s.fips2 ORDER BY 1 DESC LIMIT 1) &#160;ENDELSE &#160;(SELECT public.zip_to_fips3(year, zip))END AS fips3</text>
<polygon fill="none" stroke="black" points="90.62,-4 90.62,-55 2459.12,-55 2459.12,-4 90.62,-4"/>
</a>
</g>
</g>
<!-- medicare.ps.year -->
<g id="node2" class="node">
<title>medicare.ps.year</title>
<g id="a_node2"><a xlink:href="../medicare.ps/year.html" xlink:title="&lt;TABLE&gt;" target="_blank">
<polygon fill="none" stroke="black" points="1117.75,-205.75 0,-205.75 0,-146.75 1117.75,-146.75 1117.75,-205.75"/>
<text text-anchor="start" x="509" y="-184.45" font-family="Times,serif" font-weight="bold" font-size="14.00">medicare.ps.year</text>
<polygon fill="none" stroke="black" points="11,-153.75 11,-176.25 1106.75,-176.25 1106.75,-153.75 11,-153.75"/>
<text text-anchor="start" x="14" y="-159.95" font-family="Times,serif" font-size="14.00">(CASE WHEN &quot;year&quot;::int &lt; 20 THEN (2000 + &quot;year&quot;::int) WHEN (20 &lt; &quot;year&quot;::int AND &quot;year&quot;::int &lt; 100) THEN (1900 + &quot;year&quot;::int) WHEN &quot;year&quot; IS NULL THEN 2000 ELSE &quot;year&quot;::int END)</text>
<polygon fill="none" stroke="black" points="8,-150.75 8,-201.75 1109.75,-201.75 1109.75,-150.75 8,-150.75"/>
</a>
</g>
</g>
<!-- medicare.ps.year&#45;&gt;medicare._ps.fips3 -->
<g id="edge1" class="edge">
<title>medicare.ps.year&#45;&gt;medicare._ps.fips3</title>
<path fill="none" stroke="black" d="M702.05,-146.31C823.17,-121.82 996.35,-86.81 1120.54,-61.7"/>
<polygon fill="black" stroke="black" points="1121.05,-65.17 1130.16,-59.76 1119.67,-58.31 1121.05,-65.17"/>
<text text-anchor="middle" x="1082.5" y="-72.45" font-family="Times,serif" font-size="14.00"> &#160;Transformed</text>
</g>
<!-- medicare.ps.year_parent -->
<g id="node3" class="node">
<title>medicare.ps.year_parent</title>
<g id="a_node3"><a xlink:href="../medicare.ps/year.html" xlink:title="8 incoming links (columns)" target="_blank">
<path fill="yellow" stroke="black" d="M666.88,-391.68C666.88,-397.1 618.47,-401.5 558.88,-401.5 499.28,-401.5 450.88,-397.1 450.88,-391.68 450.88,-391.68 450.88,-303.32 450.88,-303.32 450.88,-297.9 499.28,-293.5 558.88,-293.5 618.47,-293.5 666.88,-297.9 666.88,-303.32 666.88,-303.32 666.88,-391.68 666.88,-391.68"/>
<path fill="none" stroke="black" d="M666.88,-391.68C666.88,-386.26 618.47,-381.86 558.88,-381.86 499.28,-381.86 450.88,-386.26 450.88,-391.68"/>
<text text-anchor="middle" x="558.88" y="-342.45" font-family="Times,serif" font-size="14.00">8 incoming links (columns)</text>
</a>
</g>
</g>
<!-- medicare.ps.year_parent&#45;&gt;medicare.ps.year -->
<g id="edge2" class="edge">
<title>medicare.ps.year_parent&#45;&gt;medicare.ps.year</title>
<path fill="none" stroke="goldenrod" stroke-width="6" d="M558.88,-293.41C558.88,-270.62 558.88,-244.26 558.88,-222.42"/>
<polygon fill="goldenrod" stroke="goldenrod" stroke-width="6" points="564.13,-222.48 558.88,-212.48 553.63,-222.48 564.13,-222.48"/>
</g>
<!-- medicare.ps.ssa3 -->
<g id="node4" class="node">
<title>medicare.ps.ssa3</title>
<g id="a_node4"><a xlink:href="../medicare.ps/ssa3.html" xlink:title="&lt;TABLE&gt;" target="_blank">
<polygon fill="none" stroke="black" points="1413.62,-236 1136.12,-236 1136.12,-116.5 1413.62,-116.5 1413.62,-236"/>
<text text-anchor="start" x="1225.75" y="-214.7" font-family="Times,serif" font-weight="bold" font-size="14.00">medicare.ps.ssa3</text>
<text text-anchor="start" x="1172.12" y="-168.2" font-family="Times,serif" font-size="14.00">Social Security Administration (SSA)</text>
<text text-anchor="start" x="1202.5" y="-151.7" font-family="Times,serif" font-size="14.00">three digit code for county</text>
<polygon fill="none" stroke="black" points="1144.12,-120.5 1144.12,-232 1405.62,-232 1405.62,-120.5 1144.12,-120.5"/>
</a>
</g>
</g>
<!-- medicare.ps.ssa3&#45;&gt;medicare._ps.fips3 -->
<g id="edge3" class="edge">
<title>medicare.ps.ssa3&#45;&gt;medicare._ps.fips3</title>
<path fill="none" stroke="black" d="M1274.88,-116.37C1274.88,-100.97 1274.88,-84.71 1274.88,-70.54"/>
<polygon fill="black" stroke="black" points="1278.38,-70.7 1274.88,-60.7 1271.38,-70.7 1278.38,-70.7"/>
<text text-anchor="middle" x="1313.5" y="-72.45" font-family="Times,serif" font-size="14.00"> &#160;Transformed</text>
</g>
<!-- medicare.ps.ssa3_parent -->
<g id="node5" class="node">
<title>medicare.ps.ssa3_parent</title>
<g id="a_node5"><a xlink:href="../medicare.ps/ssa3.html" xlink:title="8 incoming links (columns)" target="_blank">
<path fill="yellow" stroke="black" d="M1382.88,-391.68C1382.88,-397.1 1334.47,-401.5 1274.88,-401.5 1215.28,-401.5 1166.88,-397.1 1166.88,-391.68 1166.88,-391.68 1166.88,-303.32 1166.88,-303.32 1166.88,-297.9 1215.28,-293.5 1274.88,-293.5 1334.47,-293.5 1382.88,-297.9 1382.88,-303.32 1382.88,-303.32 1382.88,-391.68 1382.88,-391.68"/>
<path fill="none" stroke="black" d="M1382.88,-391.68C1382.88,-386.26 1334.47,-381.86 1274.88,-381.86 1215.28,-381.86 1166.88,-386.26 1166.88,-391.68"/>
<text text-anchor="middle" x="1274.88" y="-342.45" font-family="Times,serif" font-size="14.00">8 incoming links (columns)</text>
</a>
</g>
</g>
<!-- medicare.ps.ssa3_parent&#45;&gt;medicare.ps.ssa3 -->
<g id="edge4" class="edge">
<title>medicare.ps.ssa3_parent&#45;&gt;medicare.ps.ssa3</title>
<path fill="none" stroke="goldenrod" stroke-width="6" d="M1274.88,-293.41C1274.88,-280.38 1274.88,-266.19 1274.88,-252.34"/>
<polygon fill="goldenrod" stroke="goldenrod" stroke-width="6" points="1280.13,-252.79 1274.88,-242.79 1269.63,-252.79 1280.13,-252.79"/>
</g>
<!-- medicare.ps.fips2 -->
<g id="node6" class="node">
<title>medicare.ps.fips2</title>
<g id="a_node6"><a xlink:href="../medicare.ps/fips2.html" xlink:title="&lt;TABLE&gt;" target="_blank">
<polygon fill="none" stroke="black" points="1846,-256.5 1431.75,-256.5 1431.75,-96 1846,-96 1846,-256.5"/>
<text text-anchor="start" x="1587.88" y="-235.2" font-family="Times,serif" font-weight="bold" font-size="14.00">medicare.ps.fips2</text>
<text text-anchor="start" x="1479.38" y="-188.7" font-family="Times,serif" font-size="14.00">2 digit state FIPS, see https://en.wikip</text>
<text text-anchor="start" x="1467.75" y="-172.2" font-family="Times,serif" font-size="14.00">edia.org/wiki/Federal_Information_Proces</text>
<text text-anchor="start" x="1512.75" y="-155.7" font-family="Times,serif" font-size="14.00">sing_Standard_state_code</text>
<polygon fill="none" stroke="black" points="1442.75,-103 1442.75,-125.5 1835,-125.5 1835,-103 1442.75,-103"/>
<text text-anchor="start" x="1445.75" y="-109.2" font-family="Times,serif" font-size="14.00">(SELECT fips2 FROM public.us_states as s WHERE s.ssa2 = &quot;state&quot;)</text>
<polygon fill="none" stroke="black" points="1439.75,-100 1439.75,-252.5 1838,-252.5 1838,-100 1439.75,-100"/>
</a>
</g>
</g>
<!-- medicare.ps.fips2&#45;&gt;medicare._ps.fips3 -->
<g id="edge5" class="edge">
<title>medicare.ps.fips2&#45;&gt;medicare._ps.fips3</title>
<path fill="none" stroke="black" d="M1438.51,-95.57C1410.19,-84.31 1382.47,-73.29 1358.14,-63.61"/>
<polygon fill="black" stroke="black" points="1359.55,-60.41 1348.97,-59.96 1356.97,-66.91 1359.55,-60.41"/>
<text text-anchor="middle" x="1431.5" y="-72.45" font-family="Times,serif" font-size="14.00"> &#160;Transformed</text>
</g>
</g>
</svg>
