<?xml version="1.0" encoding="UTF-8" standalone="no"?>
<!DOCTYPE svg PUBLIC "-//W3C//DTD SVG 1.1//EN"
 "http://www.w3.org/Graphics/SVG/1.1/DTD/svg11.dtd">
<!-- Generated by graphviz version 10.0.1 (20240210.2158)
 -->
<!-- Pages: 1 -->
<svg width="2393pt" height="410pt"
 viewBox="0.00 0.00 2392.50 409.50" xmlns="http://www.w3.org/2000/svg" xmlns:xlink="http://www.w3.org/1999/xlink">
<g id="graph0" class="graph" transform="scale(1 1) rotate(0) translate(4 405.5)">
<polygon fill="white" stroke="none" points="-4,4 -4,-405.5 2388.5,-405.5 2388.5,4 -4,4"/>
<!-- medicare._ps.fips3 -->
<g id="node1" class="node">
<title>medicare._ps.fips3</title>
<g id="a_node1"><a xlink:href="../medicare._ps/fips3.html" xlink:title="&lt;TABLE&gt;" target="_blank">
<polygon fill="none" stroke="black" points="2384.5,-59 0,-59 0,0 2384.5,0 2384.5,-59"/>
<text text-anchor="start" x="1137.88" y="-37.7" font-family="Times,serif" font-weight="bold" font-size="14.00">medicare._ps.fips3</text>
<polygon fill="none" stroke="black" points="11,-7 11,-29.5 2373.5,-29.5 2373.5,-7 11,-7"/>
<text text-anchor="start" x="14" y="-13.2" font-family="Times,serif" font-size="14.00">CASE WHEN ssa3 is NOT NULL THEN &#160;CASE WHEN year &gt; 2010 THEN &#160;&#160;&#160;&#160;&#160;(SELECT fips3 from public.ssa as s where ps.ssa3 = s.ssa3 and ps.year = s.year and ps.fips2 = s.fips2 ORDER BY 1 DESC LIMIT 1) &#160;&#160;&#160;ELSE &#160;&#160;&#160;&#160;&#160;(SELECT fips3 from public.ssa as s where ps.ssa3 = s.ssa3 and 2003 = s.year and ps.fips2 = s.fips2 ORDER BY 1 DESC LIMIT 1) &#160;ENDELSE &#160;(SELECT public.zip_to_fips3(year, zip))END AS fips3</text>
<polygon fill="none" stroke="black" points="8,-4 8,-55 2376.5,-55 2376.5,-4 8,-4"/>
</a>
</g>
</g>
<!-- medicare.ps.ssa3 -->
<g id="node2" class="node">
<title>medicare.ps.ssa3</title>
<g id="a_node2"><a xlink:href="../medicare.ps/ssa3.html" xlink:title="&lt;TABLE&gt;" target="_blank">
<polygon fill="none" stroke="black" points="615,-236 337.5,-236 337.5,-116.5 615,-116.5 615,-236"/>
<text text-anchor="start" x="427.12" y="-214.7" font-family="Times,serif" font-weight="bold" font-size="14.00">medicare.ps.ssa3</text>
<text text-anchor="start" x="373.5" y="-168.2" font-family="Times,serif" font-size="14.00">Social Security Administration (SSA)</text>
<text text-anchor="start" x="403.88" y="-151.7" font-family="Times,serif" font-size="14.00">three digit code for county</text>
<polygon fill="none" stroke="black" points="345.5,-120.5 345.5,-232 607,-232 607,-120.5 345.5,-120.5"/>
</a>
</g>
</g>
<!-- medicare.ps.ssa3&#45;&gt;medicare._ps.fips3 -->
<g id="edge1" class="edge">
<title>medicare.ps.ssa3&#45;&gt;medicare._ps.fips3</title>
<path fill="none" stroke="black" d="M574.73,-116.01C590.85,-108.23 607.7,-101.18 624.25,-96 670.27,-81.6 719.28,-70.31 768.48,-61.46"/>
<polygon fill="black" stroke="black" points="768.91,-64.94 778.15,-59.76 767.7,-58.05 768.91,-64.94"/>
<text text-anchor="middle" x="730.88" y="-72.45" font-family="Times,serif" font-size="14.00"> &#160;Transformed</text>
</g>
<!-- medicare.ps.ssa3_parent -->
<g id="node3" class="node">
<title>medicare.ps.ssa3_parent</title>
<g id="a_node3"><a xlink:href="../medicare.ps/ssa3.html" xlink:title="8 incoming links (columns)" target="_blank">
<path fill="yellow" stroke="black" d="M584.25,-391.68C584.25,-397.1 535.84,-401.5 476.25,-401.5 416.66,-401.5 368.25,-397.1 368.25,-391.68 368.25,-391.68 368.25,-303.32 368.25,-303.32 368.25,-297.9 416.66,-293.5 476.25,-293.5 535.84,-293.5 584.25,-297.9 584.25,-303.32 584.25,-303.32 584.25,-391.68 584.25,-391.68"/>
<path fill="none" stroke="black" d="M584.25,-391.68C584.25,-386.26 535.84,-381.86 476.25,-381.86 416.66,-381.86 368.25,-386.26 368.25,-391.68"/>
<text text-anchor="middle" x="476.25" y="-342.45" font-family="Times,serif" font-size="14.00">8 incoming links (columns)</text>
</a>
</g>
</g>
<!-- medicare.ps.ssa3_parent&#45;&gt;medicare.ps.ssa3 -->
<g id="edge2" class="edge">
<title>medicare.ps.ssa3_parent&#45;&gt;medicare.ps.ssa3</title>
<path fill="none" stroke="goldenrod" stroke-width="6" d="M476.25,-293.41C476.25,-280.38 476.25,-266.19 476.25,-252.34"/>
<polygon fill="goldenrod" stroke="goldenrod" stroke-width="6" points="481.5,-252.79 476.25,-242.79 471,-252.79 481.5,-252.79"/>
</g>
<!-- medicare.ps.year -->
<g id="node4" class="node">
<title>medicare.ps.year</title>
<g id="a_node4"><a xlink:href="../medicare.ps/year.html" xlink:title="&lt;TABLE&gt;" target="_blank">
<polygon fill="none" stroke="black" points="1751.12,-240 633.38,-240 633.38,-112.5 1751.12,-112.5 1751.12,-240"/>
<text text-anchor="start" x="1142.38" y="-218.7" font-family="Times,serif" font-weight="bold" font-size="14.00">medicare.ps.year</text>
<text text-anchor="start" x="669.38" y="-172.2" font-family="Times,serif" font-size="14.00">Beneficiary Enrollment Reference Year</text>
<polygon fill="none" stroke="black" points="644.38,-119.5 644.38,-142 1740.12,-142 1740.12,-119.5 644.38,-119.5"/>
<text text-anchor="start" x="647.38" y="-125.7" font-family="Times,serif" font-size="14.00">(CASE WHEN &quot;year&quot;::int &lt; 20 THEN (2000 + &quot;year&quot;::int) WHEN (20 &lt; &quot;year&quot;::int AND &quot;year&quot;::int &lt; 100) THEN (1900 + &quot;year&quot;::int) WHEN &quot;year&quot; IS NULL THEN 2000 ELSE &quot;year&quot;::int END)</text>
<polygon fill="none" stroke="black" points="641.38,-116.5 641.38,-236 1743.12,-236 1743.12,-116.5 641.38,-116.5"/>
</a>
</g>
</g>
<!-- medicare.ps.year&#45;&gt;medicare._ps.fips3 -->
<g id="edge3" class="edge">
<title>medicare.ps.year&#45;&gt;medicare._ps.fips3</title>
<path fill="none" stroke="black" d="M1192.25,-112.18C1192.25,-98.07 1192.25,-83.47 1192.25,-70.59"/>
<polygon fill="black" stroke="black" points="1195.75,-70.82 1192.25,-60.82 1188.75,-70.82 1195.75,-70.82"/>
<text text-anchor="middle" x="1230.88" y="-72.45" font-family="Times,serif" font-size="14.00"> &#160;Transformed</text>
</g>
<!-- medicare.ps.year_parent -->
<g id="node5" class="node">
<title>medicare.ps.year_parent</title>
<g id="a_node5"><a xlink:href="../medicare.ps/year.html" xlink:title="8 incoming links (columns)" target="_blank">
<path fill="yellow" stroke="black" d="M1300.25,-391.68C1300.25,-397.1 1251.84,-401.5 1192.25,-401.5 1132.66,-401.5 1084.25,-397.1 1084.25,-391.68 1084.25,-391.68 1084.25,-303.32 1084.25,-303.32 1084.25,-297.9 1132.66,-293.5 1192.25,-293.5 1251.84,-293.5 1300.25,-297.9 1300.25,-303.32 1300.25,-303.32 1300.25,-391.68 1300.25,-391.68"/>
<path fill="none" stroke="black" d="M1300.25,-391.68C1300.25,-386.26 1251.84,-381.86 1192.25,-381.86 1132.66,-381.86 1084.25,-386.26 1084.25,-391.68"/>
<text text-anchor="middle" x="1192.25" y="-342.45" font-family="Times,serif" font-size="14.00">8 incoming links (columns)</text>
</a>
</g>
</g>
<!-- medicare.ps.year_parent&#45;&gt;medicare.ps.year -->
<g id="edge4" class="edge">
<title>medicare.ps.year_parent&#45;&gt;medicare.ps.year</title>
<path fill="none" stroke="goldenrod" stroke-width="6" d="M1192.25,-293.41C1192.25,-281.68 1192.25,-269.01 1192.25,-256.5"/>
<polygon fill="goldenrod" stroke="goldenrod" stroke-width="6" points="1197.5,-256.68 1192.25,-246.68 1187,-256.68 1197.5,-256.68"/>
</g>
<!-- medicare.ps.fips2 -->
<g id="node6" class="node">
<title>medicare.ps.fips2</title>
<g id="a_node6"><a xlink:href="../medicare.ps/fips2.html" xlink:title="&lt;TABLE&gt;" target="_blank">
<polygon fill="none" stroke="black" points="2183.38,-256.5 1769.12,-256.5 1769.12,-96 2183.38,-96 2183.38,-256.5"/>
<text text-anchor="start" x="1925.25" y="-235.2" font-family="Times,serif" font-weight="bold" font-size="14.00">medicare.ps.fips2</text>
<text text-anchor="start" x="1816.75" y="-188.7" font-family="Times,serif" font-size="14.00">2 digit state FIPS, see https://en.wikip</text>
<text text-anchor="start" x="1805.12" y="-172.2" font-family="Times,serif" font-size="14.00">edia.org/wiki/Federal_Information_Proces</text>
<text text-anchor="start" x="1850.12" y="-155.7" font-family="Times,serif" font-size="14.00">sing_Standard_state_code</text>
<polygon fill="none" stroke="black" points="1780.12,-103 1780.12,-125.5 2172.38,-125.5 2172.38,-103 1780.12,-103"/>
<text text-anchor="start" x="1783.12" y="-109.2" font-family="Times,serif" font-size="14.00">(SELECT fips2 FROM public.us_states as s WHERE s.ssa2 = &quot;state&quot;)</text>
<polygon fill="none" stroke="black" points="1777.12,-100 1777.12,-252.5 2175.38,-252.5 2175.38,-100 1777.12,-100"/>
</a>
</g>
</g>
<!-- medicare.ps.fips2&#45;&gt;medicare._ps.fips3 -->
<g id="edge5" class="edge">
<title>medicare.ps.fips2&#45;&gt;medicare._ps.fips3</title>
<path fill="none" stroke="black" d="M1768.74,-98.08C1765.9,-97.36 1763.07,-96.67 1760.25,-96 1698.4,-81.31 1631.94,-69.87 1567.06,-60.97"/>
<polygon fill="black" stroke="black" points="1567.7,-57.52 1557.32,-59.65 1566.76,-64.46 1567.7,-57.52"/>
<text text-anchor="middle" x="1707.88" y="-72.45" font-family="Times,serif" font-size="14.00"> &#160;Transformed</text>
</g>
</g>
</svg>
