<?xml version="1.0" encoding="UTF-8" standalone="no"?>
<!DOCTYPE svg PUBLIC "-//W3C//DTD SVG 1.1//EN"
 "http://www.w3.org/Graphics/SVG/1.1/DTD/svg11.dtd">
<!-- Generated by graphviz version 10.0.1 (20240210.2158)
 -->
<!-- Pages: 1 -->
<svg width="838pt" height="465pt"
 viewBox="0.00 0.00 837.75 464.50" xmlns="http://www.w3.org/2000/svg" xmlns:xlink="http://www.w3.org/1999/xlink">
<g id="graph0" class="graph" transform="scale(1 1) rotate(0) translate(4 460.5)">
<polygon fill="white" stroke="none" points="-4,4 -4,-460.5 833.75,-460.5 833.75,4 -4,4"/>
<!-- medicare._enrollments.fips3_is_approximated -->
<g id="node1" class="node">
<title>medicare._enrollments.fips3_is_approximated</title>
<g id="a_node1"><a xlink:href="../medicare._enrollments/fips3_is_approximated.html" xlink:title="&lt;TABLE&gt;" target="_blank">
<polygon fill="none" stroke="black" points="562.5,-59 267.25,-59 267.25,0 562.5,0 562.5,-59"/>
<text text-anchor="start" x="280.25" y="-37.7" font-family="Times,serif" font-weight="bold" font-size="14.00">medicare._enrollments.fips3_is_approximated</text>
<polygon fill="none" stroke="black" points="278.25,-7 278.25,-29.5 551.5,-29.5 551.5,-7 278.25,-7"/>
<text text-anchor="start" x="281.25" y="-13.2" font-family="Times,serif" font-size="14.00">every(fips3_is_approximated)</text>
<polygon fill="none" stroke="black" points="275.25,-4 275.25,-55 554.5,-55 554.5,-4 275.25,-4"/>
</a>
</g>
</g>
<!-- medicare._ps.fips3_is_approximated -->
<g id="node2" class="node">
<title>medicare._ps.fips3_is_approximated</title>
<g id="a_node2"><a xlink:href="../medicare._ps/fips3_is_approximated.html" xlink:title="&lt;TABLE&gt;" target="_blank">
<polygon fill="none" stroke="black" points="829.75,-155 0,-155 0,-96 829.75,-96 829.75,-155"/>
<text text-anchor="start" x="308.38" y="-133.7" font-family="Times,serif" font-weight="bold" font-size="14.00">medicare._ps.fips3_is_approximated</text>
<polygon fill="none" stroke="black" points="11,-103 11,-125.5 818.75,-125.5 818.75,-103 11,-103"/>
<text text-anchor="start" x="14" y="-109.2" font-family="Times,serif" font-size="14.00">CASE WHEN ssa3 is NOT NULL THEN &#160;&#160;&#160;False &#160;ELSE &#160;&#160;&#160;(SELECT NOT public.is_zip_to_fips_exact(year, zip))END AS fips3_is_approximated</text>
<polygon fill="none" stroke="black" points="8,-100 8,-151 821.75,-151 821.75,-100 8,-100"/>
</a>
</g>
</g>
<!-- medicare._ps.fips3_is_approximated&#45;&gt;medicare._enrollments.fips3_is_approximated -->
<g id="edge1" class="edge">
<title>medicare._ps.fips3_is_approximated&#45;&gt;medicare._enrollments.fips3_is_approximated</title>
<path fill="none" stroke="blue" stroke-width="5" d="M414.88,-95.53C414.88,-89.13 414.88,-82.2 414.88,-75.33"/>
<polygon fill="blue" stroke="blue" stroke-width="5" points="419.25,-75.45 414.88,-65.45 410.5,-75.45 419.25,-75.45"/>
<text text-anchor="middle" x="529.25" y="-72.45" font-family="Times,serif" font-size="14.00">	 &#160;Aggregated On bene_id, year, state</text>
</g>
<!-- medicare.ps.ssa3 -->
<g id="node3" class="node">
<title>medicare.ps.ssa3</title>
<g id="a_node3"><a xlink:href="../medicare.ps/ssa3.html" xlink:title="&lt;TABLE&gt;" target="_blank">
<polygon fill="none" stroke="black" points="553.62,-311.5 276.12,-311.5 276.12,-192 553.62,-192 553.62,-311.5"/>
<text text-anchor="start" x="365.75" y="-290.2" font-family="Times,serif" font-weight="bold" font-size="14.00">medicare.ps.ssa3</text>
<text text-anchor="start" x="312.12" y="-243.7" font-family="Times,serif" font-size="14.00">Social Security Administration (SSA)</text>
<text text-anchor="start" x="342.5" y="-227.2" font-family="Times,serif" font-size="14.00">three digit code for county</text>
<polygon fill="none" stroke="black" points="284.12,-196 284.12,-307.5 545.62,-307.5 545.62,-196 284.12,-196"/>
</a>
</g>
</g>
<!-- medicare.ps.ssa3&#45;&gt;medicare._ps.fips3_is_approximated -->
<g id="edge2" class="edge">
<title>medicare.ps.ssa3&#45;&gt;medicare._ps.fips3_is_approximated</title>
<path fill="none" stroke="black" d="M414.88,-191.54C414.88,-183.05 414.88,-174.5 414.88,-166.5"/>
<polygon fill="black" stroke="black" points="418.38,-166.78 414.88,-156.78 411.38,-166.78 418.38,-166.78"/>
<text text-anchor="middle" x="453.5" y="-168.45" font-family="Times,serif" font-size="14.00"> &#160;Transformed</text>
</g>
<!-- medicare.ps.ssa3_parent -->
<g id="node4" class="node">
<title>medicare.ps.ssa3_parent</title>
<g id="a_node4"><a xlink:href="../medicare.ps/ssa3.html" xlink:title="8 incoming links (columns)" target="_blank">
<path fill="yellow" stroke="black" d="M522.88,-446.68C522.88,-452.1 474.47,-456.5 414.88,-456.5 355.28,-456.5 306.88,-452.1 306.88,-446.68 306.88,-446.68 306.88,-358.32 306.88,-358.32 306.88,-352.9 355.28,-348.5 414.88,-348.5 474.47,-348.5 522.88,-352.9 522.88,-358.32 522.88,-358.32 522.88,-446.68 522.88,-446.68"/>
<path fill="none" stroke="black" d="M522.88,-446.68C522.88,-441.26 474.47,-436.86 414.88,-436.86 355.28,-436.86 306.88,-441.26 306.88,-446.68"/>
<text text-anchor="middle" x="414.88" y="-397.45" font-family="Times,serif" font-size="14.00">8 incoming links (columns)</text>
</a>
</g>
</g>
<!-- medicare.ps.ssa3_parent&#45;&gt;medicare.ps.ssa3 -->
<g id="edge3" class="edge">
<title>medicare.ps.ssa3_parent&#45;&gt;medicare.ps.ssa3</title>
<path fill="none" stroke="goldenrod" stroke-width="6" d="M414.88,-348.22C414.88,-341.7 414.88,-334.94 414.88,-328.18"/>
<polygon fill="goldenrod" stroke="goldenrod" stroke-width="6" points="420.13,-328.42 414.88,-318.42 409.63,-328.42 420.13,-328.42"/>
</g>
</g>
</svg>
