<?xml version="1.0" encoding="UTF-8" standalone="no"?>
<!DOCTYPE svg PUBLIC "-//W3C//DTD SVG 1.1//EN"
 "http://www.w3.org/Graphics/SVG/1.1/DTD/svg11.dtd">
<!-- Generated by graphviz version 10.0.1 (20240210.2158)
 -->
<!-- Pages: 1 -->
<svg width="2824pt" height="799pt"
 viewBox="0.00 0.00 2824.38 799.00" xmlns="http://www.w3.org/2000/svg" xmlns:xlink="http://www.w3.org/1999/xlink">
<g id="graph0" class="graph" transform="scale(1 1) rotate(0) translate(4 795)">
<polygon fill="white" stroke="none" points="-4,4 -4,-795 2820.38,-795 2820.38,4 -4,4"/>
<!-- medicare.qc_enrl_bene.fips5 -->
<g id="node1" class="node">
<title>medicare.qc_enrl_bene.fips5</title>
<g id="a_node1"><a xlink:href="../medicare.qc_enrl_bene/fips5.html" xlink:title="&lt;TABLE&gt;" target="_blank">
<polygon fill="none" stroke="black" points="2300.5,-59 2108,-59 2108,0 2300.5,0 2300.5,-59"/>
<text text-anchor="start" x="2121" y="-37.7" font-family="Times,serif" font-weight="bold" font-size="14.00">medicare.qc_enrl_bene.fips5</text>
<polygon fill="none" stroke="black" points="2119,-7 2119,-29.5 2289.5,-29.5 2289.5,-7 2119,-7"/>
<text text-anchor="start" x="2122" y="-13.2" font-family="Times,serif" font-size="14.00">(MAX(fips2) || MAX(fips3))</text>
<polygon fill="none" stroke="black" points="2116,-4 2116,-55 2292.5,-55 2292.5,-4 2116,-4"/>
</a>
</g>
</g>
<!-- medicare.enrollments.fips3 -->
<g id="node2" class="node">
<title>medicare.enrollments.fips3</title>
<g id="a_node2"><a xlink:href="../medicare.enrollments/fips3.html" xlink:title="&lt;TABLE&gt;" target="_blank">
<polygon fill="none" stroke="black" points="2195.38,-155 2011.12,-155 2011.12,-96 2195.38,-96 2195.38,-155"/>
<text text-anchor="start" x="2024.12" y="-133.7" font-family="Times,serif" font-weight="bold" font-size="14.00">medicare.enrollments.fips3</text>
<polygon fill="none" stroke="black" points="2022.12,-103 2022.12,-125.5 2184.38,-125.5 2184.38,-103 2022.12,-103"/>
<text text-anchor="start" x="2025.12" y="-109.2" font-family="Times,serif" font-size="14.00">MAX(fips3)</text>
<polygon fill="none" stroke="black" points="2019.12,-100 2019.12,-151 2187.38,-151 2187.38,-100 2019.12,-100"/>
</a>
</g>
</g>
<!-- medicare.enrollments.fips3&#45;&gt;medicare.qc_enrl_bene.fips5 -->
<g id="edge1" class="edge">
<title>medicare.enrollments.fips3&#45;&gt;medicare.qc_enrl_bene.fips5</title>
<path fill="none" stroke="black" d="M2134.38,-95.53C2144.07,-86.51 2154.88,-76.45 2165.05,-66.98"/>
<polygon fill="black" stroke="black" points="2167.36,-69.62 2172.29,-60.24 2162.59,-64.49 2167.36,-69.62"/>
<text text-anchor="middle" x="2200.38" y="-72.45" font-family="Times,serif" font-size="14.00">	join natural</text>
</g>
<!-- medicare._enrollments.fips3 -->
<g id="node3" class="node">
<title>medicare._enrollments.fips3</title>
<g id="a_node3"><a xlink:href="../medicare._enrollments/fips3.html" xlink:title="&lt;TABLE&gt;" target="_blank">
<polygon fill="none" stroke="black" points="2193.75,-251 2002.75,-251 2002.75,-192 2193.75,-192 2193.75,-251"/>
<text text-anchor="start" x="2015.75" y="-229.7" font-family="Times,serif" font-weight="bold" font-size="14.00">medicare._enrollments.fips3</text>
<polygon fill="none" stroke="black" points="2013.75,-199 2013.75,-221.5 2182.75,-221.5 2182.75,-199 2013.75,-199"/>
<text text-anchor="start" x="2016.75" y="-205.2" font-family="Times,serif" font-size="14.00">MAX(fips3)</text>
<polygon fill="none" stroke="black" points="2010.75,-196 2010.75,-247 2185.75,-247 2185.75,-196 2010.75,-196"/>
</a>
</g>
</g>
<!-- medicare._enrollments.fips3&#45;&gt;medicare.enrollments.fips3 -->
<g id="edge2" class="edge">
<title>medicare._enrollments.fips3&#45;&gt;medicare.enrollments.fips3</title>
<path fill="none" stroke="black" d="M2099.79,-191.53C2100.21,-183.68 2100.67,-175.05 2101.11,-166.7"/>
<polygon fill="black" stroke="black" points="2104.61,-166.9 2101.64,-156.72 2097.62,-166.52 2104.61,-166.9"/>
<text text-anchor="middle" x="2120.75" y="-168.45" font-family="Times,serif" font-size="14.00">Copied</text>
</g>
<!-- medicare._ps.fips3 -->
<g id="node4" class="node">
<title>medicare._ps.fips3</title>
<g id="a_node4"><a xlink:href="../medicare._ps/fips3.html" xlink:title="&lt;TABLE&gt;" target="_blank">
<polygon fill="none" stroke="black" points="2384.5,-397.75 0,-397.75 0,-338.75 2384.5,-338.75 2384.5,-397.75"/>
<text text-anchor="start" x="1137.88" y="-376.45" font-family="Times,serif" font-weight="bold" font-size="14.00">medicare._ps.fips3</text>
<polygon fill="none" stroke="black" points="11,-345.75 11,-368.25 2373.5,-368.25 2373.5,-345.75 11,-345.75"/>
<text text-anchor="start" x="14" y="-351.95" font-family="Times,serif" font-size="14.00">CASE WHEN ssa3 is NOT NULL THEN &#160;CASE WHEN year &gt; 2010 THEN &#160;&#160;&#160;&#160;&#160;(SELECT fips3 from public.ssa as s where ps.ssa3 = s.ssa3 and ps.year = s.year and ps.fips2 = s.fips2 ORDER BY 1 DESC LIMIT 1) &#160;&#160;&#160;ELSE &#160;&#160;&#160;&#160;&#160;(SELECT fips3 from public.ssa as s where ps.ssa3 = s.ssa3 and 2003 = s.year and ps.fips2 = s.fips2 ORDER BY 1 DESC LIMIT 1) &#160;ENDELSE &#160;(SELECT public.zip_to_fips3(year, zip))END AS fips3</text>
<polygon fill="none" stroke="black" points="8,-342.75 8,-393.75 2376.5,-393.75 2376.5,-342.75 8,-342.75"/>
</a>
</g>
</g>
<!-- medicare._ps.fips3&#45;&gt;medicare._enrollments.fips3 -->
<g id="edge3" class="edge">
<title>medicare._ps.fips3&#45;&gt;medicare._enrollments.fips3</title>
<path fill="none" stroke="blue" stroke-width="5" d="M1373.69,-338.26C1556.76,-309.01 1833.61,-264.78 1986.66,-240.33"/>
<polygon fill="blue" stroke="blue" stroke-width="5" points="1987.09,-244.69 1996.28,-238.79 1985.71,-236.05 1987.09,-244.69"/>
<text text-anchor="middle" x="1919.62" y="-264.45" font-family="Times,serif" font-size="14.00">	 &#160;Aggregated On bene_id, year, state</text>
</g>
<!-- medicare.ps.year -->
<g id="node5" class="node">
<title>medicare.ps.year</title>
<g id="a_node5"><a xlink:href="../medicare.ps/year.html" xlink:title="&lt;TABLE&gt;" target="_blank">
<polygon fill="none" stroke="black" points="1566.12,-595.25 448.38,-595.25 448.38,-536.25 1566.12,-536.25 1566.12,-595.25"/>
<text text-anchor="start" x="957.38" y="-573.95" font-family="Times,serif" font-weight="bold" font-size="14.00">medicare.ps.year</text>
<polygon fill="none" stroke="black" points="459.38,-543.25 459.38,-565.75 1555.12,-565.75 1555.12,-543.25 459.38,-543.25"/>
<text text-anchor="start" x="462.38" y="-549.45" font-family="Times,serif" font-size="14.00">(CASE WHEN &quot;year&quot;::int &lt; 20 THEN (2000 + &quot;year&quot;::int) WHEN (20 &lt; &quot;year&quot;::int AND &quot;year&quot;::int &lt; 100) THEN (1900 + &quot;year&quot;::int) WHEN &quot;year&quot; IS NULL THEN 2000 ELSE &quot;year&quot;::int END)</text>
<polygon fill="none" stroke="black" points="456.38,-540.25 456.38,-591.25 1558.12,-591.25 1558.12,-540.25 456.38,-540.25"/>
</a>
</g>
</g>
<!-- medicare.ps.year&#45;&gt;medicare._ps.fips3 -->
<g id="edge4" class="edge">
<title>medicare.ps.year&#45;&gt;medicare._ps.fips3</title>
<path fill="none" stroke="black" d="M1034.55,-535.9C1067.07,-501.54 1121.46,-444.06 1157.09,-406.4"/>
<polygon fill="black" stroke="black" points="1159.47,-408.98 1163.8,-399.31 1154.38,-404.17 1159.47,-408.98"/>
<text text-anchor="middle" x="1138.88" y="-461.95" font-family="Times,serif" font-size="14.00"> &#160;Transformed</text>
</g>
<!-- medicare.ps.year_parent -->
<g id="node6" class="node">
<title>medicare.ps.year_parent</title>
<g id="a_node6"><a xlink:href="../medicare.ps/year.html" xlink:title="8 incoming links (columns)" target="_blank">
<path fill="yellow" stroke="black" d="M1115.25,-781.18C1115.25,-786.6 1066.84,-791 1007.25,-791 947.66,-791 899.25,-786.6 899.25,-781.18 899.25,-781.18 899.25,-692.82 899.25,-692.82 899.25,-687.4 947.66,-683 1007.25,-683 1066.84,-683 1115.25,-687.4 1115.25,-692.82 1115.25,-692.82 1115.25,-781.18 1115.25,-781.18"/>
<path fill="none" stroke="black" d="M1115.25,-781.18C1115.25,-775.76 1066.84,-771.36 1007.25,-771.36 947.66,-771.36 899.25,-775.76 899.25,-781.18"/>
<text text-anchor="middle" x="1007.25" y="-731.95" font-family="Times,serif" font-size="14.00">8 incoming links (columns)</text>
</a>
</g>
</g>
<!-- medicare.ps.year_parent&#45;&gt;medicare.ps.year -->
<g id="edge5" class="edge">
<title>medicare.ps.year_parent&#45;&gt;medicare.ps.year</title>
<path fill="none" stroke="goldenrod" stroke-width="6" d="M1007.25,-682.91C1007.25,-660.12 1007.25,-633.76 1007.25,-611.92"/>
<polygon fill="goldenrod" stroke="goldenrod" stroke-width="6" points="1012.5,-611.98 1007.25,-601.98 1002,-611.98 1012.5,-611.98"/>
</g>
<!-- medicare.ps.ssa3 -->
<g id="node7" class="node">
<title>medicare.ps.ssa3</title>
<g id="a_node7"><a xlink:href="../medicare.ps/ssa3.html" xlink:title="&lt;TABLE&gt;" target="_blank">
<polygon fill="none" stroke="black" points="1862,-625.5 1584.5,-625.5 1584.5,-506 1862,-506 1862,-625.5"/>
<text text-anchor="start" x="1674.12" y="-604.2" font-family="Times,serif" font-weight="bold" font-size="14.00">medicare.ps.ssa3</text>
<text text-anchor="start" x="1620.5" y="-557.7" font-family="Times,serif" font-size="14.00">Social Security Administration (SSA)</text>
<text text-anchor="start" x="1650.88" y="-541.2" font-family="Times,serif" font-size="14.00">three digit code for county</text>
<polygon fill="none" stroke="black" points="1592.5,-510 1592.5,-621.5 1854,-621.5 1854,-510 1592.5,-510"/>
</a>
</g>
</g>
<!-- medicare.ps.ssa3&#45;&gt;medicare._ps.fips3 -->
<g id="edge6" class="edge">
<title>medicare.ps.ssa3&#45;&gt;medicare._ps.fips3</title>
<path fill="none" stroke="black" d="M1618.98,-505.65C1604.5,-498.41 1589.65,-491.47 1575.25,-485.5 1492.2,-451.06 1395.26,-421.73 1319.69,-401.15"/>
<polygon fill="black" stroke="black" points="1320.73,-397.81 1310.16,-398.58 1318.9,-404.57 1320.73,-397.81"/>
<text text-anchor="middle" x="1565.88" y="-461.95" font-family="Times,serif" font-size="14.00"> &#160;Transformed</text>
</g>
<!-- medicare.ps.ssa3_parent -->
<g id="node8" class="node">
<title>medicare.ps.ssa3_parent</title>
<g id="a_node8"><a xlink:href="../medicare.ps/ssa3.html" xlink:title="8 incoming links (columns)" target="_blank">
<path fill="yellow" stroke="black" d="M1831.25,-781.18C1831.25,-786.6 1782.84,-791 1723.25,-791 1663.66,-791 1615.25,-786.6 1615.25,-781.18 1615.25,-781.18 1615.25,-692.82 1615.25,-692.82 1615.25,-687.4 1663.66,-683 1723.25,-683 1782.84,-683 1831.25,-687.4 1831.25,-692.82 1831.25,-692.82 1831.25,-781.18 1831.25,-781.18"/>
<path fill="none" stroke="black" d="M1831.25,-781.18C1831.25,-775.76 1782.84,-771.36 1723.25,-771.36 1663.66,-771.36 1615.25,-775.76 1615.25,-781.18"/>
<text text-anchor="middle" x="1723.25" y="-731.95" font-family="Times,serif" font-size="14.00">8 incoming links (columns)</text>
</a>
</g>
</g>
<!-- medicare.ps.ssa3_parent&#45;&gt;medicare.ps.ssa3 -->
<g id="edge7" class="edge">
<title>medicare.ps.ssa3_parent&#45;&gt;medicare.ps.ssa3</title>
<path fill="none" stroke="goldenrod" stroke-width="6" d="M1723.25,-682.91C1723.25,-669.88 1723.25,-655.69 1723.25,-641.84"/>
<polygon fill="goldenrod" stroke="goldenrod" stroke-width="6" points="1728.5,-642.29 1723.25,-632.29 1718,-642.29 1728.5,-642.29"/>
</g>
<!-- medicare.ps.fips2 -->
<g id="node9" class="node">
<title>medicare.ps.fips2</title>
<g id="a_node9"><a xlink:href="../medicare.ps/fips2.html" xlink:title="&lt;TABLE&gt;" target="_blank">
<polygon fill="none" stroke="black" points="2641.38,-646 2227.12,-646 2227.12,-485.5 2641.38,-485.5 2641.38,-646"/>
<text text-anchor="start" x="2383.25" y="-624.7" font-family="Times,serif" font-weight="bold" font-size="14.00">medicare.ps.fips2</text>
<text text-anchor="start" x="2274.75" y="-578.2" font-family="Times,serif" font-size="14.00">2 digit state FIPS, see https://en.wikip</text>
<text text-anchor="start" x="2263.12" y="-561.7" font-family="Times,serif" font-size="14.00">edia.org/wiki/Federal_Information_Proces</text>
<text text-anchor="start" x="2308.12" y="-545.2" font-family="Times,serif" font-size="14.00">sing_Standard_state_code</text>
<polygon fill="none" stroke="black" points="2238.12,-492.5 2238.12,-515 2630.38,-515 2630.38,-492.5 2238.12,-492.5"/>
<text text-anchor="start" x="2241.12" y="-498.7" font-family="Times,serif" font-size="14.00">(SELECT fips2 FROM public.us_states as s WHERE s.ssa2 = &quot;state&quot;)</text>
<polygon fill="none" stroke="black" points="2235.12,-489.5 2235.12,-642 2633.38,-642 2633.38,-489.5 2235.12,-489.5"/>
</a>
</g>
</g>
<!-- medicare.ps.fips2&#45;&gt;medicare._ps.fips3 -->
<g id="edge8" class="edge">
<title>medicare.ps.fips2&#45;&gt;medicare._ps.fips3</title>
<path fill="none" stroke="black" d="M2226.72,-532.08C1992.89,-495.28 1615.72,-435.91 1387.19,-399.94"/>
<polygon fill="black" stroke="black" points="1388,-396.52 1377.58,-398.42 1386.92,-403.44 1388,-396.52"/>
<text text-anchor="middle" x="1851.88" y="-461.95" font-family="Times,serif" font-size="14.00"> &#160;Transformed</text>
</g>
<!-- medicare._ps.fips2 -->
<g id="node12" class="node">
<title>medicare._ps.fips2</title>
<g id="a_node12"><a xlink:href="../medicare._ps/fips2.html" xlink:title="&lt;TABLE&gt;" target="_blank">
<polygon fill="none" stroke="black" points="2816.38,-448.5 2402.12,-448.5 2402.12,-288 2816.38,-288 2816.38,-448.5"/>
<text text-anchor="start" x="2554.88" y="-427.2" font-family="Times,serif" font-weight="bold" font-size="14.00">medicare._ps.fips2</text>
<text text-anchor="start" x="2449.75" y="-380.7" font-family="Times,serif" font-size="14.00">2 digit state FIPS, see https://en.wikip</text>
<text text-anchor="start" x="2438.12" y="-364.2" font-family="Times,serif" font-size="14.00">edia.org/wiki/Federal_Information_Proces</text>
<text text-anchor="start" x="2483.12" y="-347.7" font-family="Times,serif" font-size="14.00">sing_Standard_state_code</text>
<polygon fill="none" stroke="black" points="2413.12,-295 2413.12,-317.5 2805.38,-317.5 2805.38,-295 2413.12,-295"/>
<text text-anchor="start" x="2416.12" y="-301.2" font-family="Times,serif" font-size="14.00">(SELECT fips2 FROM public.us_states as s WHERE s.ssa2 = &quot;state&quot;)</text>
<polygon fill="none" stroke="black" points="2410.12,-292 2410.12,-444.5 2808.38,-444.5 2808.38,-292 2410.12,-292"/>
</a>
</g>
</g>
<!-- medicare.ps.fips2&#45;&gt;medicare._ps.fips2 -->
<g id="edge12" class="edge">
<title>medicare.ps.fips2&#45;&gt;medicare._ps.fips2</title>
<path fill="none" stroke="black" d="M2505.43,-485.23C2513.69,-476.01 2522.15,-466.55 2530.5,-457.22"/>
<polygon fill="black" stroke="black" points="2533.06,-459.61 2537.12,-449.82 2527.85,-454.94 2533.06,-459.61"/>
<text text-anchor="middle" x="2540.75" y="-461.95" font-family="Times,serif" font-size="14.00">Copied</text>
</g>
<!-- medicare.enrollments.fips2 -->
<g id="node10" class="node">
<title>medicare.enrollments.fips2</title>
<g id="a_node10"><a xlink:href="../medicare.enrollments/fips2.html" xlink:title="&lt;TABLE&gt;" target="_blank">
<polygon fill="none" stroke="black" points="2473.38,-155 2289.12,-155 2289.12,-96 2473.38,-96 2473.38,-155"/>
<text text-anchor="start" x="2302.12" y="-133.7" font-family="Times,serif" font-weight="bold" font-size="14.00">medicare.enrollments.fips2</text>
<polygon fill="none" stroke="black" points="2300.12,-103 2300.12,-125.5 2462.38,-125.5 2462.38,-103 2300.12,-103"/>
<text text-anchor="start" x="2303.12" y="-109.2" font-family="Times,serif" font-size="14.00">MAX(fips2)</text>
<polygon fill="none" stroke="black" points="2297.12,-100 2297.12,-151 2465.38,-151 2465.38,-100 2297.12,-100"/>
</a>
</g>
</g>
<!-- medicare.enrollments.fips2&#45;&gt;medicare.qc_enrl_bene.fips5 -->
<g id="edge9" class="edge">
<title>medicare.enrollments.fips2&#45;&gt;medicare.qc_enrl_bene.fips5</title>
<path fill="none" stroke="black" d="M2326.7,-95.53C2308.36,-85.79 2287.73,-74.83 2268.7,-64.73"/>
<polygon fill="black" stroke="black" points="2270.43,-61.68 2259.96,-60.08 2267.15,-67.87 2270.43,-61.68"/>
<text text-anchor="middle" x="2338.38" y="-72.45" font-family="Times,serif" font-size="14.00">	join natural</text>
</g>
<!-- medicare._enrollments.fips2 -->
<g id="node11" class="node">
<title>medicare._enrollments.fips2</title>
<g id="a_node11"><a xlink:href="../medicare._enrollments/fips2.html" xlink:title="&lt;TABLE&gt;" target="_blank">
<polygon fill="none" stroke="black" points="2553.75,-251 2362.75,-251 2362.75,-192 2553.75,-192 2553.75,-251"/>
<text text-anchor="start" x="2375.75" y="-229.7" font-family="Times,serif" font-weight="bold" font-size="14.00">medicare._enrollments.fips2</text>
<polygon fill="none" stroke="black" points="2373.75,-199 2373.75,-221.5 2542.75,-221.5 2542.75,-199 2373.75,-199"/>
<text text-anchor="start" x="2376.75" y="-205.2" font-family="Times,serif" font-size="14.00">MAX(fips2)</text>
<polygon fill="none" stroke="black" points="2370.75,-196 2370.75,-247 2545.75,-247 2545.75,-196 2370.75,-196"/>
</a>
</g>
</g>
<!-- medicare._enrollments.fips2&#45;&gt;medicare.enrollments.fips2 -->
<g id="edge10" class="edge">
<title>medicare._enrollments.fips2&#45;&gt;medicare.enrollments.fips2</title>
<path fill="none" stroke="black" d="M2434.52,-191.53C2427.35,-182.78 2419.38,-173.05 2411.84,-163.84"/>
<polygon fill="black" stroke="black" points="2414.77,-161.9 2405.73,-156.38 2409.36,-166.34 2414.77,-161.9"/>
<text text-anchor="middle" x="2438.75" y="-168.45" font-family="Times,serif" font-size="14.00">Copied</text>
</g>
<!-- medicare._ps.fips2&#45;&gt;medicare._enrollments.fips2 -->
<g id="edge11" class="edge">
<title>medicare._ps.fips2&#45;&gt;medicare._enrollments.fips2</title>
<path fill="none" stroke="blue" stroke-width="5" d="M2526.24,-287.68C2517.12,-278.94 2508.15,-270.34 2499.87,-262.4"/>
<polygon fill="blue" stroke="blue" stroke-width="5" points="2503.04,-259.37 2492.79,-255.61 2496.98,-265.69 2503.04,-259.37"/>
<text text-anchor="middle" x="2620.62" y="-264.45" font-family="Times,serif" font-size="14.00">	 &#160;Aggregated On bene_id, year, state</text>
</g>
</g>
</svg>
