<?xml version="1.0" encoding="UTF-8" standalone="no"?>
<!DOCTYPE svg PUBLIC "-//W3C//DTD SVG 1.1//EN"
 "http://www.w3.org/Graphics/SVG/1.1/DTD/svg11.dtd">
<!-- Generated by graphviz version 10.0.1 (20240210.2158)
 -->
<!-- Pages: 1 -->
<svg width="838pt" height="657pt"
 viewBox="0.00 0.00 837.75 656.50" xmlns="http://www.w3.org/2000/svg" xmlns:xlink="http://www.w3.org/1999/xlink">
<g id="graph0" class="graph" transform="scale(1 1) rotate(0) translate(4 652.5)">
<polygon fill="white" stroke="none" points="-4,4 -4,-652.5 833.75,-652.5 833.75,4 -4,4"/>
<!-- medicare.qc_enrl_bene.fips3_is_approximated -->
<g id="node1" class="node">
<title>medicare.qc_enrl_bene.fips3_is_approximated</title>
<g id="a_node1"><a xlink:href="../medicare.qc_enrl_bene/fips3_is_approximated.html" xlink:title="&lt;TABLE&gt;" target="_blank">
<polygon fill="none" stroke="black" points="563.25,-59 266.5,-59 266.5,0 563.25,0 563.25,-59"/>
<text text-anchor="start" x="279.5" y="-37.7" font-family="Times,serif" font-weight="bold" font-size="14.00">medicare.qc_enrl_bene.fips3_is_approximated</text>
<polygon fill="none" stroke="black" points="277.5,-7 277.5,-29.5 552.25,-29.5 552.25,-7 277.5,-7"/>
<text text-anchor="start" x="280.5" y="-13.2" font-family="Times,serif" font-size="14.00">every(fips3_is_approximated)</text>
<polygon fill="none" stroke="black" points="274.5,-4 274.5,-55 555.25,-55 555.25,-4 274.5,-4"/>
</a>
</g>
</g>
<!-- medicare.enrollments.fips3_is_approximated -->
<g id="node2" class="node">
<title>medicare.enrollments.fips3_is_approximated</title>
<g id="a_node2"><a xlink:href="../medicare.enrollments/fips3_is_approximated.html" xlink:title="&lt;TABLE&gt;" target="_blank">
<polygon fill="none" stroke="black" points="559.12,-155 270.62,-155 270.62,-96 559.12,-96 559.12,-155"/>
<text text-anchor="start" x="283.62" y="-133.7" font-family="Times,serif" font-weight="bold" font-size="14.00">medicare.enrollments.fips3_is_approximated</text>
<polygon fill="none" stroke="black" points="281.62,-103 281.62,-125.5 548.12,-125.5 548.12,-103 281.62,-103"/>
<text text-anchor="start" x="284.62" y="-109.2" font-family="Times,serif" font-size="14.00">every(fips3_is_approximated)</text>
<polygon fill="none" stroke="black" points="278.62,-100 278.62,-151 551.12,-151 551.12,-100 278.62,-100"/>
</a>
</g>
</g>
<!-- medicare.enrollments.fips3_is_approximated&#45;&gt;medicare.qc_enrl_bene.fips3_is_approximated -->
<g id="edge1" class="edge">
<title>medicare.enrollments.fips3_is_approximated&#45;&gt;medicare.qc_enrl_bene.fips3_is_approximated</title>
<path fill="none" stroke="black" d="M414.88,-95.53C414.88,-87.68 414.88,-79.05 414.88,-70.7"/>
<polygon fill="black" stroke="black" points="418.38,-70.73 414.88,-60.73 411.38,-70.73 418.38,-70.73"/>
<text text-anchor="middle" x="461" y="-72.45" font-family="Times,serif" font-size="14.00">	join natural</text>
</g>
<!-- medicare._enrollments.fips3_is_approximated -->
<g id="node3" class="node">
<title>medicare._enrollments.fips3_is_approximated</title>
<g id="a_node3"><a xlink:href="../medicare._enrollments/fips3_is_approximated.html" xlink:title="&lt;TABLE&gt;" target="_blank">
<polygon fill="none" stroke="black" points="562.5,-251 267.25,-251 267.25,-192 562.5,-192 562.5,-251"/>
<text text-anchor="start" x="280.25" y="-229.7" font-family="Times,serif" font-weight="bold" font-size="14.00">medicare._enrollments.fips3_is_approximated</text>
<polygon fill="none" stroke="black" points="278.25,-199 278.25,-221.5 551.5,-221.5 551.5,-199 278.25,-199"/>
<text text-anchor="start" x="281.25" y="-205.2" font-family="Times,serif" font-size="14.00">every(fips3_is_approximated)</text>
<polygon fill="none" stroke="black" points="275.25,-196 275.25,-247 554.5,-247 554.5,-196 275.25,-196"/>
</a>
</g>
</g>
<!-- medicare._enrollments.fips3_is_approximated&#45;&gt;medicare.enrollments.fips3_is_approximated -->
<g id="edge2" class="edge">
<title>medicare._enrollments.fips3_is_approximated&#45;&gt;medicare.enrollments.fips3_is_approximated</title>
<path fill="none" stroke="black" d="M414.88,-191.53C414.88,-183.68 414.88,-175.05 414.88,-166.7"/>
<polygon fill="black" stroke="black" points="418.38,-166.73 414.88,-156.73 411.38,-166.73 418.38,-166.73"/>
<text text-anchor="middle" x="434.38" y="-168.45" font-family="Times,serif" font-size="14.00">Copied</text>
</g>
<!-- medicare._ps.fips3_is_approximated -->
<g id="node4" class="node">
<title>medicare._ps.fips3_is_approximated</title>
<g id="a_node4"><a xlink:href="../medicare._ps/fips3_is_approximated.html" xlink:title="&lt;TABLE&gt;" target="_blank">
<polygon fill="none" stroke="black" points="829.75,-347 0,-347 0,-288 829.75,-288 829.75,-347"/>
<text text-anchor="start" x="308.38" y="-325.7" font-family="Times,serif" font-weight="bold" font-size="14.00">medicare._ps.fips3_is_approximated</text>
<polygon fill="none" stroke="black" points="11,-295 11,-317.5 818.75,-317.5 818.75,-295 11,-295"/>
<text text-anchor="start" x="14" y="-301.2" font-family="Times,serif" font-size="14.00">CASE WHEN ssa3 is NOT NULL THEN &#160;&#160;&#160;False &#160;ELSE &#160;&#160;&#160;(SELECT NOT public.is_zip_to_fips_exact(year, zip))END AS fips3_is_approximated</text>
<polygon fill="none" stroke="black" points="8,-292 8,-343 821.75,-343 821.75,-292 8,-292"/>
</a>
</g>
</g>
<!-- medicare._ps.fips3_is_approximated&#45;&gt;medicare._enrollments.fips3_is_approximated -->
<g id="edge3" class="edge">
<title>medicare._ps.fips3_is_approximated&#45;&gt;medicare._enrollments.fips3_is_approximated</title>
<path fill="none" stroke="blue" stroke-width="5" d="M414.88,-287.53C414.88,-281.13 414.88,-274.2 414.88,-267.33"/>
<polygon fill="blue" stroke="blue" stroke-width="5" points="419.25,-267.45 414.88,-257.45 410.5,-267.45 419.25,-267.45"/>
<text text-anchor="middle" x="529.25" y="-264.45" font-family="Times,serif" font-size="14.00">	 &#160;Aggregated On bene_id, year, state</text>
</g>
<!-- medicare.ps.ssa3 -->
<g id="node5" class="node">
<title>medicare.ps.ssa3</title>
<g id="a_node5"><a xlink:href="../medicare.ps/ssa3.html" xlink:title="&lt;TABLE&gt;" target="_blank">
<polygon fill="none" stroke="black" points="553.62,-503.5 276.12,-503.5 276.12,-384 553.62,-384 553.62,-503.5"/>
<text text-anchor="start" x="365.75" y="-482.2" font-family="Times,serif" font-weight="bold" font-size="14.00">medicare.ps.ssa3</text>
<text text-anchor="start" x="312.12" y="-435.7" font-family="Times,serif" font-size="14.00">Social Security Administration (SSA)</text>
<text text-anchor="start" x="342.5" y="-419.2" font-family="Times,serif" font-size="14.00">three digit code for county</text>
<polygon fill="none" stroke="black" points="284.12,-388 284.12,-499.5 545.62,-499.5 545.62,-388 284.12,-388"/>
</a>
</g>
</g>
<!-- medicare.ps.ssa3&#45;&gt;medicare._ps.fips3_is_approximated -->
<g id="edge4" class="edge">
<title>medicare.ps.ssa3&#45;&gt;medicare._ps.fips3_is_approximated</title>
<path fill="none" stroke="black" d="M414.88,-383.54C414.88,-375.05 414.88,-366.5 414.88,-358.5"/>
<polygon fill="black" stroke="black" points="418.38,-358.78 414.88,-348.78 411.38,-358.78 418.38,-358.78"/>
<text text-anchor="middle" x="453.5" y="-360.45" font-family="Times,serif" font-size="14.00"> &#160;Transformed</text>
</g>
<!-- medicare.ps.ssa3_parent -->
<g id="node6" class="node">
<title>medicare.ps.ssa3_parent</title>
<g id="a_node6"><a xlink:href="../medicare.ps/ssa3.html" xlink:title="8 incoming links (columns)" target="_blank">
<path fill="yellow" stroke="black" d="M522.88,-638.68C522.88,-644.1 474.47,-648.5 414.88,-648.5 355.28,-648.5 306.88,-644.1 306.88,-638.68 306.88,-638.68 306.88,-550.32 306.88,-550.32 306.88,-544.9 355.28,-540.5 414.88,-540.5 474.47,-540.5 522.88,-544.9 522.88,-550.32 522.88,-550.32 522.88,-638.68 522.88,-638.68"/>
<path fill="none" stroke="black" d="M522.88,-638.68C522.88,-633.26 474.47,-628.86 414.88,-628.86 355.28,-628.86 306.88,-633.26 306.88,-638.68"/>
<text text-anchor="middle" x="414.88" y="-589.45" font-family="Times,serif" font-size="14.00">8 incoming links (columns)</text>
</a>
</g>
</g>
<!-- medicare.ps.ssa3_parent&#45;&gt;medicare.ps.ssa3 -->
<g id="edge5" class="edge">
<title>medicare.ps.ssa3_parent&#45;&gt;medicare.ps.ssa3</title>
<path fill="none" stroke="goldenrod" stroke-width="6" d="M414.88,-540.22C414.88,-533.7 414.88,-526.94 414.88,-520.18"/>
<polygon fill="goldenrod" stroke="goldenrod" stroke-width="6" points="420.13,-520.42 414.88,-510.42 409.63,-520.42 420.13,-520.42"/>
</g>
</g>
</svg>
