<?xml version="1.0" encoding="UTF-8" standalone="no"?>
<!DOCTYPE svg PUBLIC "-//W3C//DTD SVG 1.1//EN"
 "http://www.w3.org/Graphics/SVG/1.1/DTD/svg11.dtd">
<!-- Generated by graphviz version 10.0.1 (20240210.2158)
 -->
<!-- Pages: 1 -->
<svg width="2824pt" height="799pt"
 viewBox="0.00 0.00 2824.38 799.00" xmlns="http://www.w3.org/2000/svg" xmlns:xlink="http://www.w3.org/1999/xlink">
<g id="graph0" class="graph" transform="scale(1 1) rotate(0) translate(4 795)">
<polygon fill="white" stroke="none" points="-4,4 -4,-795 2820.38,-795 2820.38,4 -4,4"/>
<!-- medicare.qc_enrl_bene.fips5 -->
<g id="node1" class="node">
<title>medicare.qc_enrl_bene.fips5</title>
<g id="a_node1"><a xlink:href="../medicare.qc_enrl_bene/fips5.html" xlink:title="&lt;TABLE&gt;" target="_blank">
<polygon fill="none" stroke="black" points="2300.5,-59 2108,-59 2108,0 2300.5,0 2300.5,-59"/>
<text text-anchor="start" x="2121" y="-37.7" font-family="Times,serif" font-weight="bold" font-size="14.00">medicare.qc_enrl_bene.fips5</text>
<polygon fill="none" stroke="black" points="2119,-7 2119,-29.5 2289.5,-29.5 2289.5,-7 2119,-7"/>
<text text-anchor="start" x="2122" y="-13.2" font-family="Times,serif" font-size="14.00">(MAX(fips2) || MAX(fips3))</text>
<polygon fill="none" stroke="black" points="2116,-4 2116,-55 2292.5,-55 2292.5,-4 2116,-4"/>
</a>
</g>
</g>
<!-- medicare.enrollments.fips3 -->
<g id="node2" class="node">
<title>medicare.enrollments.fips3</title>
<g id="a_node2"><a xlink:href="../medicare.enrollments/fips3.html" xlink:title="&lt;TABLE&gt;" target="_blank">
<polygon fill="none" stroke="black" points="2195.38,-155 2011.12,-155 2011.12,-96 2195.38,-96 2195.38,-155"/>
<text text-anchor="start" x="2024.12" y="-133.7" font-family="Times,serif" font-weight="bold" font-size="14.00">medicare.enrollments.fips3</text>
<polygon fill="none" stroke="black" points="2022.12,-103 2022.12,-125.5 2184.38,-125.5 2184.38,-103 2022.12,-103"/>
<text text-anchor="start" x="2025.12" y="-109.2" font-family="Times,serif" font-size="14.00">MAX(fips3)</text>
<polygon fill="none" stroke="black" points="2019.12,-100 2019.12,-151 2187.38,-151 2187.38,-100 2019.12,-100"/>
</a>
</g>
</g>
<!-- medicare.enrollments.fips3&#45;&gt;medicare.qc_enrl_bene.fips5 -->
<g id="edge1" class="edge">
<title>medicare.enrollments.fips3&#45;&gt;medicare.qc_enrl_bene.fips5</title>
<path fill="none" stroke="black" d="M2134.38,-95.53C2144.07,-86.51 2154.88,-76.45 2165.05,-66.98"/>
<polygon fill="black" stroke="black" points="2167.36,-69.62 2172.29,-60.24 2162.59,-64.49 2167.36,-69.62"/>
<text text-anchor="middle" x="2199.38" y="-72.45" font-family="Times,serif" font-size="14.00">	join natural</text>
</g>
<!-- medicare._enrollments.fips3 -->
<g id="node3" class="node">
<title>medicare._enrollments.fips3</title>
<g id="a_node3"><a xlink:href="../medicare._enrollments/fips3.html" xlink:title="&lt;TABLE&gt;" target="_blank">
<polygon fill="none" stroke="black" points="2193.75,-251 2002.75,-251 2002.75,-192 2193.75,-192 2193.75,-251"/>
<text text-anchor="start" x="2015.75" y="-229.7" font-family="Times,serif" font-weight="bold" font-size="14.00">medicare._enrollments.fips3</text>
<polygon fill="none" stroke="black" points="2013.75,-199 2013.75,-221.5 2182.75,-221.5 2182.75,-199 2013.75,-199"/>
<text text-anchor="start" x="2016.75" y="-205.2" font-family="Times,serif" font-size="14.00">MAX(fips3)</text>
<polygon fill="none" stroke="black" points="2010.75,-196 2010.75,-247 2185.75,-247 2185.75,-196 2010.75,-196"/>
</a>
</g>
</g>
<!-- medicare._enrollments.fips3&#45;&gt;medicare.enrollments.fips3 -->
<g id="edge2" class="edge">
<title>medicare._enrollments.fips3&#45;&gt;medicare.enrollments.fips3</title>
<path fill="none" stroke="black" d="M2099.79,-191.53C2100.21,-183.68 2100.67,-175.05 2101.11,-166.7"/>
<polygon fill="black" stroke="black" points="2104.61,-166.9 2101.64,-156.72 2097.62,-166.52 2104.61,-166.9"/>
<text text-anchor="middle" x="2119.75" y="-168.45" font-family="Times,serif" font-size="14.00">Copied</text>
</g>
<!-- medicare._ps.fips3 -->
<g id="node4" class="node">
<title>medicare._ps.fips3</title>
<g id="a_node4"><a xlink:href="../medicare._ps/fips3.html" xlink:title="&lt;TABLE&gt;" target="_blank">
<polygon fill="none" stroke="black" points="2384.5,-397.75 0,-397.75 0,-338.75 2384.5,-338.75 2384.5,-397.75"/>
<text text-anchor="start" x="1137.88" y="-376.45" font-family="Times,serif" font-weight="bold" font-size="14.00">medicare._ps.fips3</text>
<polygon fill="none" stroke="black" points="11,-345.75 11,-368.25 2373.5,-368.25 2373.5,-345.75 11,-345.75"/>
<text text-anchor="start" x="14" y="-351.95" font-family="Times,serif" font-size="14.00">CASE WHEN ssa3 is NOT NULL THEN &#160;CASE WHEN year &gt; 2010 THEN &#160;&#160;&#160;&#160;&#160;(SELECT fips3 from public.ssa as s where ps.ssa3 = s.ssa3 and ps.year = s.year and ps.fips2 = s.fips2 ORDER BY 1 DESC LIMIT 1) &#160;&#160;&#160;ELSE &#160;&#160;&#160;&#160;&#160;(SELECT fips3 from public.ssa as s where ps.ssa3 = s.ssa3 and 2003 = s.year and ps.fips2 = s.fips2 ORDER BY 1 DESC LIMIT 1) &#160;ENDELSE &#160;(SELECT public.zip_to_fips3(year, zip))END AS fips3</text>
<polygon fill="none" stroke="black" points="8,-342.75 8,-393.75 2376.5,-393.75 2376.5,-342.75 8,-342.75"/>
</a>
</g>
</g>
<!-- medicare._ps.fips3&#45;&gt;medicare._enrollments.fips3 -->
<g id="edge3" class="edge">
<title>medicare._ps.fips3&#45;&gt;medicare._enrollments.fips3</title>
<path fill="none" stroke="blue" stroke-width="5" d="M1373.69,-338.26C1556.76,-309.01 1833.61,-264.78 1986.66,-240.33"/>
<polygon fill="blue" stroke="blue" stroke-width="5" points="1987.09,-244.69 1996.28,-238.79 1985.71,-236.05 1987.09,-244.69"/>
<text text-anchor="middle" x="1918.62" y="-264.45" font-family="Times,serif" font-size="14.00">	 &#160;Aggregated On bene_id, year, state</text>
</g>
<!-- medicare.ps.ssa3 -->
<g id="node5" class="node">
<title>medicare.ps.ssa3</title>
<g id="a_node5"><a xlink:href="../medicare.ps/ssa3.html" xlink:title="&lt;TABLE&gt;" target="_blank">
<polygon fill="none" stroke="black" points="1015,-625.5 737.5,-625.5 737.5,-506 1015,-506 1015,-625.5"/>
<text text-anchor="start" x="827.12" y="-604.2" font-family="Times,serif" font-weight="bold" font-size="14.00">medicare.ps.ssa3</text>
<text text-anchor="start" x="773.5" y="-557.7" font-family="Times,serif" font-size="14.00">Social Security Administration (SSA)</text>
<text text-anchor="start" x="803.88" y="-541.2" font-family="Times,serif" font-size="14.00">three digit code for county</text>
<polygon fill="none" stroke="black" points="745.5,-510 745.5,-621.5 1007,-621.5 1007,-510 745.5,-510"/>
</a>
</g>
</g>
<!-- medicare.ps.ssa3&#45;&gt;medicare._ps.fips3 -->
<g id="edge4" class="edge">
<title>medicare.ps.ssa3&#45;&gt;medicare._ps.fips3</title>
<path fill="none" stroke="black" d="M971.92,-505.56C1025.57,-472.37 1090.63,-432.12 1136.09,-403.99"/>
<polygon fill="black" stroke="black" points="1137.82,-407.04 1144.49,-398.8 1134.14,-401.09 1137.82,-407.04"/>
<text text-anchor="middle" x="1072.88" y="-461.95" font-family="Times,serif" font-size="14.00"> &#160;Transformed</text>
</g>
<!-- medicare.ps.ssa3_parent -->
<g id="node6" class="node">
<title>medicare.ps.ssa3_parent</title>
<g id="a_node6"><a xlink:href="../medicare.ps/ssa3.html" xlink:title="8 incoming links (columns)" target="_blank">
<path fill="yellow" stroke="black" d="M984.25,-781.18C984.25,-786.6 935.84,-791 876.25,-791 816.66,-791 768.25,-786.6 768.25,-781.18 768.25,-781.18 768.25,-692.82 768.25,-692.82 768.25,-687.4 816.66,-683 876.25,-683 935.84,-683 984.25,-687.4 984.25,-692.82 984.25,-692.82 984.25,-781.18 984.25,-781.18"/>
<path fill="none" stroke="black" d="M984.25,-781.18C984.25,-775.76 935.84,-771.36 876.25,-771.36 816.66,-771.36 768.25,-775.76 768.25,-781.18"/>
<text text-anchor="middle" x="876.25" y="-731.95" font-family="Times,serif" font-size="14.00">8 incoming links (columns)</text>
</a>
</g>
</g>
<!-- medicare.ps.ssa3_parent&#45;&gt;medicare.ps.ssa3 -->
<g id="edge5" class="edge">
<title>medicare.ps.ssa3_parent&#45;&gt;medicare.ps.ssa3</title>
<path fill="none" stroke="goldenrod" stroke-width="6" d="M876.25,-682.91C876.25,-669.88 876.25,-655.69 876.25,-641.84"/>
<polygon fill="goldenrod" stroke="goldenrod" stroke-width="6" points="881.5,-642.29 876.25,-632.29 871,-642.29 881.5,-642.29"/>
</g>
<!-- medicare.ps.fips2 -->
<g id="node7" class="node">
<title>medicare.ps.fips2</title>
<g id="a_node7"><a xlink:href="../medicare.ps/fips2.html" xlink:title="&lt;TABLE&gt;" target="_blank">
<polygon fill="none" stroke="black" points="2738.38,-646 2324.12,-646 2324.12,-485.5 2738.38,-485.5 2738.38,-646"/>
<text text-anchor="start" x="2480.25" y="-624.7" font-family="Times,serif" font-weight="bold" font-size="14.00">medicare.ps.fips2</text>
<text text-anchor="start" x="2371.75" y="-578.2" font-family="Times,serif" font-size="14.00">2 digit state FIPS, see https://en.wikip</text>
<text text-anchor="start" x="2360.12" y="-561.7" font-family="Times,serif" font-size="14.00">edia.org/wiki/Federal_Information_Proces</text>
<text text-anchor="start" x="2405.12" y="-545.2" font-family="Times,serif" font-size="14.00">sing_Standard_state_code</text>
<polygon fill="none" stroke="black" points="2335.12,-492.5 2335.12,-515 2727.38,-515 2727.38,-492.5 2335.12,-492.5"/>
<text text-anchor="start" x="2338.12" y="-498.7" font-family="Times,serif" font-size="14.00">(SELECT fips2 FROM public.us_states as s WHERE s.ssa2 = &quot;state&quot;)</text>
<polygon fill="none" stroke="black" points="2332.12,-489.5 2332.12,-642 2730.38,-642 2730.38,-489.5 2332.12,-489.5"/>
</a>
</g>
</g>
<!-- medicare.ps.fips2&#45;&gt;medicare._ps.fips3 -->
<g id="edge6" class="edge">
<title>medicare.ps.fips2&#45;&gt;medicare._ps.fips3</title>
<path fill="none" stroke="black" d="M2323.89,-516.98C2270.73,-505.69 2213.52,-494.37 2160.25,-485.5 1942.01,-449.16 1694.28,-419.63 1504.06,-399.42"/>
<polygon fill="black" stroke="black" points="1504.58,-395.95 1494.27,-398.38 1503.85,-402.92 1504.58,-395.95"/>
<text text-anchor="middle" x="2080.88" y="-461.95" font-family="Times,serif" font-size="14.00"> &#160;Transformed</text>
</g>
<!-- medicare._ps.fips2 -->
<g id="node12" class="node">
<title>medicare._ps.fips2</title>
<g id="a_node12"><a xlink:href="../medicare._ps/fips2.html" xlink:title="&lt;TABLE&gt;" target="_blank">
<polygon fill="none" stroke="black" points="2816.38,-448.5 2402.12,-448.5 2402.12,-288 2816.38,-288 2816.38,-448.5"/>
<text text-anchor="start" x="2554.88" y="-427.2" font-family="Times,serif" font-weight="bold" font-size="14.00">medicare._ps.fips2</text>
<text text-anchor="start" x="2449.75" y="-380.7" font-family="Times,serif" font-size="14.00">2 digit state FIPS, see https://en.wikip</text>
<text text-anchor="start" x="2438.12" y="-364.2" font-family="Times,serif" font-size="14.00">edia.org/wiki/Federal_Information_Proces</text>
<text text-anchor="start" x="2483.12" y="-347.7" font-family="Times,serif" font-size="14.00">sing_Standard_state_code</text>
<polygon fill="none" stroke="black" points="2413.12,-295 2413.12,-317.5 2805.38,-317.5 2805.38,-295 2413.12,-295"/>
<text text-anchor="start" x="2416.12" y="-301.2" font-family="Times,serif" font-size="14.00">(SELECT fips2 FROM public.us_states as s WHERE s.ssa2 = &quot;state&quot;)</text>
<polygon fill="none" stroke="black" points="2410.12,-292 2410.12,-444.5 2808.38,-444.5 2808.38,-292 2410.12,-292"/>
</a>
</g>
</g>
<!-- medicare.ps.fips2&#45;&gt;medicare._ps.fips2 -->
<g id="edge12" class="edge">
<title>medicare.ps.fips2&#45;&gt;medicare._ps.fips2</title>
<path fill="none" stroke="black" d="M2562.98,-485.23C2566.39,-476.66 2569.89,-467.9 2573.35,-459.22"/>
<polygon fill="black" stroke="black" points="2576.54,-460.69 2576.99,-450.1 2570.04,-458.09 2576.54,-460.69"/>
<text text-anchor="middle" x="2589.75" y="-461.95" font-family="Times,serif" font-size="14.00">Copied</text>
</g>
<!-- medicare.ps.year -->
<g id="node8" class="node">
<title>medicare.ps.year</title>
<g id="a_node8"><a xlink:href="../medicare.ps/year.html" xlink:title="&lt;TABLE&gt;" target="_blank">
<polygon fill="none" stroke="black" points="2151.12,-629.5 1033.38,-629.5 1033.38,-502 2151.12,-502 2151.12,-629.5"/>
<text text-anchor="start" x="1542.38" y="-608.2" font-family="Times,serif" font-weight="bold" font-size="14.00">medicare.ps.year</text>
<text text-anchor="start" x="1069.38" y="-561.7" font-family="Times,serif" font-size="14.00">Beneficiary Enrollment Reference Year</text>
<polygon fill="none" stroke="black" points="1044.38,-509 1044.38,-531.5 2140.12,-531.5 2140.12,-509 1044.38,-509"/>
<text text-anchor="start" x="1047.38" y="-515.2" font-family="Times,serif" font-size="14.00">(CASE WHEN &quot;year&quot;::int &lt; 20 THEN (2000 + &quot;year&quot;::int) WHEN (20 &lt; &quot;year&quot;::int AND &quot;year&quot;::int &lt; 100) THEN (1900 + &quot;year&quot;::int) WHEN &quot;year&quot; IS NULL THEN 2000 ELSE &quot;year&quot;::int END)</text>
<polygon fill="none" stroke="black" points="1041.38,-506 1041.38,-625.5 2143.12,-625.5 2143.12,-506 1041.38,-506"/>
</a>
</g>
</g>
<!-- medicare.ps.year&#45;&gt;medicare._ps.fips3 -->
<g id="edge7" class="edge">
<title>medicare.ps.year&#45;&gt;medicare._ps.fips3</title>
<path fill="none" stroke="black" d="M1462.93,-501.55C1396,-468.83 1316.94,-430.19 1261.61,-403.15"/>
<polygon fill="black" stroke="black" points="1263.44,-400.15 1252.92,-398.9 1260.37,-406.44 1263.44,-400.15"/>
<text text-anchor="middle" x="1430.88" y="-461.95" font-family="Times,serif" font-size="14.00"> &#160;Transformed</text>
</g>
<!-- medicare.ps.year_parent -->
<g id="node9" class="node">
<title>medicare.ps.year_parent</title>
<g id="a_node9"><a xlink:href="../medicare.ps/year.html" xlink:title="8 incoming links (columns)" target="_blank">
<path fill="yellow" stroke="black" d="M1700.25,-781.18C1700.25,-786.6 1651.84,-791 1592.25,-791 1532.66,-791 1484.25,-786.6 1484.25,-781.18 1484.25,-781.18 1484.25,-692.82 1484.25,-692.82 1484.25,-687.4 1532.66,-683 1592.25,-683 1651.84,-683 1700.25,-687.4 1700.25,-692.82 1700.25,-692.82 1700.25,-781.18 1700.25,-781.18"/>
<path fill="none" stroke="black" d="M1700.25,-781.18C1700.25,-775.76 1651.84,-771.36 1592.25,-771.36 1532.66,-771.36 1484.25,-775.76 1484.25,-781.18"/>
<text text-anchor="middle" x="1592.25" y="-731.95" font-family="Times,serif" font-size="14.00">8 incoming links (columns)</text>
</a>
</g>
</g>
<!-- medicare.ps.year_parent&#45;&gt;medicare.ps.year -->
<g id="edge8" class="edge">
<title>medicare.ps.year_parent&#45;&gt;medicare.ps.year</title>
<path fill="none" stroke="goldenrod" stroke-width="6" d="M1592.25,-682.91C1592.25,-671.18 1592.25,-658.51 1592.25,-646"/>
<polygon fill="goldenrod" stroke="goldenrod" stroke-width="6" points="1597.5,-646.18 1592.25,-636.18 1587,-646.18 1597.5,-646.18"/>
</g>
<!-- medicare.enrollments.fips2 -->
<g id="node10" class="node">
<title>medicare.enrollments.fips2</title>
<g id="a_node10"><a xlink:href="../medicare.enrollments/fips2.html" xlink:title="&lt;TABLE&gt;" target="_blank">
<polygon fill="none" stroke="black" points="2398.38,-155 2214.12,-155 2214.12,-96 2398.38,-96 2398.38,-155"/>
<text text-anchor="start" x="2227.12" y="-133.7" font-family="Times,serif" font-weight="bold" font-size="14.00">medicare.enrollments.fips2</text>
<polygon fill="none" stroke="black" points="2225.12,-103 2225.12,-125.5 2387.38,-125.5 2387.38,-103 2225.12,-103"/>
<text text-anchor="start" x="2228.12" y="-109.2" font-family="Times,serif" font-size="14.00">MAX(fips2)</text>
<polygon fill="none" stroke="black" points="2222.12,-100 2222.12,-151 2390.38,-151 2390.38,-100 2222.12,-100"/>
</a>
</g>
</g>
<!-- medicare.enrollments.fips2&#45;&gt;medicare.qc_enrl_bene.fips5 -->
<g id="edge9" class="edge">
<title>medicare.enrollments.fips2&#45;&gt;medicare.qc_enrl_bene.fips5</title>
<path fill="none" stroke="black" d="M2274.81,-95.53C2265.03,-86.51 2254.11,-76.45 2243.84,-66.98"/>
<polygon fill="black" stroke="black" points="2246.24,-64.44 2236.52,-60.24 2241.5,-69.59 2246.24,-64.44"/>
<text text-anchor="middle" x="2301.38" y="-72.45" font-family="Times,serif" font-size="14.00">	join natural</text>
</g>
<!-- medicare._enrollments.fips2 -->
<g id="node11" class="node">
<title>medicare._enrollments.fips2</title>
<g id="a_node11"><a xlink:href="../medicare._enrollments/fips2.html" xlink:title="&lt;TABLE&gt;" target="_blank">
<polygon fill="none" stroke="black" points="2553.75,-251 2362.75,-251 2362.75,-192 2553.75,-192 2553.75,-251"/>
<text text-anchor="start" x="2375.75" y="-229.7" font-family="Times,serif" font-weight="bold" font-size="14.00">medicare._enrollments.fips2</text>
<polygon fill="none" stroke="black" points="2373.75,-199 2373.75,-221.5 2542.75,-221.5 2542.75,-199 2373.75,-199"/>
<text text-anchor="start" x="2376.75" y="-205.2" font-family="Times,serif" font-size="14.00">MAX(fips2)</text>
<polygon fill="none" stroke="black" points="2370.75,-196 2370.75,-247 2545.75,-247 2545.75,-196 2370.75,-196"/>
</a>
</g>
</g>
<!-- medicare._enrollments.fips2&#45;&gt;medicare.enrollments.fips2 -->
<g id="edge10" class="edge">
<title>medicare._enrollments.fips2&#45;&gt;medicare.enrollments.fips2</title>
<path fill="none" stroke="black" d="M2411.4,-191.53C2396.02,-182.01 2378.75,-171.34 2362.73,-161.43"/>
<polygon fill="black" stroke="black" points="2364.57,-158.45 2354.23,-156.17 2360.89,-164.41 2364.57,-158.45"/>
<text text-anchor="middle" x="2401.75" y="-168.45" font-family="Times,serif" font-size="14.00">Copied</text>
</g>
<!-- medicare._ps.fips2&#45;&gt;medicare._enrollments.fips2 -->
<g id="edge11" class="edge">
<title>medicare._ps.fips2&#45;&gt;medicare._enrollments.fips2</title>
<path fill="none" stroke="blue" stroke-width="5" d="M2526.24,-287.68C2517.12,-278.94 2508.15,-270.34 2499.87,-262.4"/>
<polygon fill="blue" stroke="blue" stroke-width="5" points="2503.04,-259.37 2492.79,-255.61 2496.98,-265.69 2503.04,-259.37"/>
<text text-anchor="middle" x="2620.62" y="-264.45" font-family="Times,serif" font-size="14.00">	 &#160;Aggregated On bene_id, year, state</text>
</g>
</g>
</svg>
