<?xml version="1.0" encoding="UTF-8" standalone="no"?>
<!DOCTYPE svg PUBLIC "-//W3C//DTD SVG 1.1//EN"
 "http://www.w3.org/Graphics/SVG/1.1/DTD/svg11.dtd">
<!-- Generated by graphviz version 10.0.1 (20240210.2158)
 -->
<!-- Pages: 1 -->
<svg width="2202pt" height="410pt"
 viewBox="0.00 0.00 2202.12 409.50" xmlns="http://www.w3.org/2000/svg" xmlns:xlink="http://www.w3.org/1999/xlink">
<g id="graph0" class="graph" transform="scale(1 1) rotate(0) translate(4 405.5)">
<polygon fill="white" stroke="none" points="-4,4 -4,-405.5 2198.12,-405.5 2198.12,4 -4,4"/>
<!-- medicare._ps.fips3_list -->
<g id="node1" class="node">
<title>medicare._ps.fips3_list</title>
<g id="a_node1"><a xlink:href="../medicare._ps/fips3_list.html" xlink:title="&lt;TABLE&gt;" target="_blank">
<polygon fill="none" stroke="black" points="1838.5,-59 0,-59 0,0 1838.5,0 1838.5,-59"/>
<text text-anchor="start" x="852.88" y="-37.7" font-family="Times,serif" font-weight="bold" font-size="14.00">medicare._ps.fips3_list</text>
<polygon fill="none" stroke="black" points="11,-7 11,-29.5 1827.5,-29.5 1827.5,-7 11,-7"/>
<text text-anchor="start" x="14" y="-13.2" font-family="Times,serif" font-size="14.00">CASE WHEN year &gt; 2010 THEN (SELECT string_agg(distinct fips3::varchar, &#39;,&#39;) from public.ssa as s where ps.ssa3 = s.ssa3 and ps.year = s.year and ps.fips2 = s.fips2) &#160;&#160;&#160;ELSE (SELECT string_agg(distinct fips3::varchar, &#39;,&#39;) from public.ssa as s where ps.ssa3 = s.ssa3 and 2003 = s.year and ps.fips2 = s.fips2) END AS fips3_list</text>
<polygon fill="none" stroke="black" points="8,-4 8,-55 1830.5,-55 1830.5,-4 8,-4"/>
</a>
</g>
</g>
<!-- medicare.ps.fips2 -->
<g id="node2" class="node">
<title>medicare.ps.fips2</title>
<g id="a_node2"><a xlink:href="../medicare.ps/fips2.html" xlink:title="&lt;TABLE&gt;" target="_blank">
<polygon fill="none" stroke="black" points="762.38,-256.5 348.12,-256.5 348.12,-96 762.38,-96 762.38,-256.5"/>
<text text-anchor="start" x="504.25" y="-235.2" font-family="Times,serif" font-weight="bold" font-size="14.00">medicare.ps.fips2</text>
<text text-anchor="start" x="395.75" y="-188.7" font-family="Times,serif" font-size="14.00">2 digit state FIPS, see https://en.wikip</text>
<text text-anchor="start" x="384.12" y="-172.2" font-family="Times,serif" font-size="14.00">edia.org/wiki/Federal_Information_Proces</text>
<text text-anchor="start" x="429.12" y="-155.7" font-family="Times,serif" font-size="14.00">sing_Standard_state_code</text>
<polygon fill="none" stroke="black" points="359.12,-103 359.12,-125.5 751.38,-125.5 751.38,-103 359.12,-103"/>
<text text-anchor="start" x="362.12" y="-109.2" font-family="Times,serif" font-size="14.00">(SELECT fips2 FROM public.us_states as s WHERE s.ssa2 = &quot;state&quot;)</text>
<polygon fill="none" stroke="black" points="356.12,-100 356.12,-252.5 754.38,-252.5 754.38,-100 356.12,-100"/>
</a>
</g>
</g>
<!-- medicare.ps.fips2&#45;&gt;medicare._ps.fips3_list -->
<g id="edge1" class="edge">
<title>medicare.ps.fips2&#45;&gt;medicare._ps.fips3_list</title>
<path fill="none" stroke="black" d="M755.62,-95.57C783.93,-84.31 811.65,-73.29 835.99,-63.61"/>
<polygon fill="black" stroke="black" points="837.16,-66.91 845.16,-59.96 834.57,-60.41 837.16,-66.91"/>
<text text-anchor="middle" x="840.88" y="-72.45" font-family="Times,serif" font-size="14.00"> &#160;Transformed</text>
</g>
<!-- medicare.ps.ssa3 -->
<g id="node3" class="node">
<title>medicare.ps.ssa3</title>
<g id="a_node3"><a xlink:href="../medicare.ps/ssa3.html" xlink:title="&lt;TABLE&gt;" target="_blank">
<polygon fill="none" stroke="black" points="1058,-236 780.5,-236 780.5,-116.5 1058,-116.5 1058,-236"/>
<text text-anchor="start" x="870.12" y="-214.7" font-family="Times,serif" font-weight="bold" font-size="14.00">medicare.ps.ssa3</text>
<text text-anchor="start" x="816.5" y="-168.2" font-family="Times,serif" font-size="14.00">Social Security Administration (SSA)</text>
<text text-anchor="start" x="846.88" y="-151.7" font-family="Times,serif" font-size="14.00">three digit code for county</text>
<polygon fill="none" stroke="black" points="788.5,-120.5 788.5,-232 1050,-232 1050,-120.5 788.5,-120.5"/>
</a>
</g>
</g>
<!-- medicare.ps.ssa3&#45;&gt;medicare._ps.fips3_list -->
<g id="edge2" class="edge">
<title>medicare.ps.ssa3&#45;&gt;medicare._ps.fips3_list</title>
<path fill="none" stroke="black" d="M919.25,-116.37C919.25,-100.97 919.25,-84.71 919.25,-70.54"/>
<polygon fill="black" stroke="black" points="922.75,-70.7 919.25,-60.7 915.75,-70.7 922.75,-70.7"/>
<text text-anchor="middle" x="957.88" y="-72.45" font-family="Times,serif" font-size="14.00"> &#160;Transformed</text>
</g>
<!-- medicare.ps.ssa3_parent -->
<g id="node4" class="node">
<title>medicare.ps.ssa3_parent</title>
<g id="a_node4"><a xlink:href="../medicare.ps/ssa3.html" xlink:title="8 incoming links (columns)" target="_blank">
<path fill="yellow" stroke="black" d="M1027.25,-391.68C1027.25,-397.1 978.84,-401.5 919.25,-401.5 859.66,-401.5 811.25,-397.1 811.25,-391.68 811.25,-391.68 811.25,-303.32 811.25,-303.32 811.25,-297.9 859.66,-293.5 919.25,-293.5 978.84,-293.5 1027.25,-297.9 1027.25,-303.32 1027.25,-303.32 1027.25,-391.68 1027.25,-391.68"/>
<path fill="none" stroke="black" d="M1027.25,-391.68C1027.25,-386.26 978.84,-381.86 919.25,-381.86 859.66,-381.86 811.25,-386.26 811.25,-391.68"/>
<text text-anchor="middle" x="919.25" y="-342.45" font-family="Times,serif" font-size="14.00">8 incoming links (columns)</text>
</a>
</g>
</g>
<!-- medicare.ps.ssa3_parent&#45;&gt;medicare.ps.ssa3 -->
<g id="edge3" class="edge">
<title>medicare.ps.ssa3_parent&#45;&gt;medicare.ps.ssa3</title>
<path fill="none" stroke="goldenrod" stroke-width="6" d="M919.25,-293.41C919.25,-280.38 919.25,-266.19 919.25,-252.34"/>
<polygon fill="goldenrod" stroke="goldenrod" stroke-width="6" points="924.5,-252.79 919.25,-242.79 914,-252.79 924.5,-252.79"/>
</g>
<!-- medicare.ps.year -->
<g id="node5" class="node">
<title>medicare.ps.year</title>
<g id="a_node5"><a xlink:href="../medicare.ps/year.html" xlink:title="&lt;TABLE&gt;" target="_blank">
<polygon fill="none" stroke="black" points="2194.12,-240 1076.38,-240 1076.38,-112.5 2194.12,-112.5 2194.12,-240"/>
<text text-anchor="start" x="1585.38" y="-218.7" font-family="Times,serif" font-weight="bold" font-size="14.00">medicare.ps.year</text>
<text text-anchor="start" x="1112.38" y="-172.2" font-family="Times,serif" font-size="14.00">Beneficiary Enrollment Reference Year</text>
<polygon fill="none" stroke="black" points="1087.38,-119.5 1087.38,-142 2183.12,-142 2183.12,-119.5 1087.38,-119.5"/>
<text text-anchor="start" x="1090.38" y="-125.7" font-family="Times,serif" font-size="14.00">(CASE WHEN &quot;year&quot;::int &lt; 20 THEN (2000 + &quot;year&quot;::int) WHEN (20 &lt; &quot;year&quot;::int AND &quot;year&quot;::int &lt; 100) THEN (1900 + &quot;year&quot;::int) WHEN &quot;year&quot; IS NULL THEN 2000 ELSE &quot;year&quot;::int END)</text>
<polygon fill="none" stroke="black" points="1084.38,-116.5 1084.38,-236 2186.12,-236 2186.12,-116.5 1084.38,-116.5"/>
</a>
</g>
</g>
<!-- medicare.ps.year&#45;&gt;medicare._ps.fips3_list -->
<g id="edge4" class="edge">
<title>medicare.ps.year&#45;&gt;medicare._ps.fips3_list</title>
<path fill="none" stroke="black" d="M1322.5,-112.02C1236.21,-94.58 1146.36,-76.41 1073.42,-61.67"/>
<polygon fill="black" stroke="black" points="1074.31,-58.28 1063.81,-59.73 1072.92,-65.14 1074.31,-58.28"/>
<text text-anchor="middle" x="1189.88" y="-72.45" font-family="Times,serif" font-size="14.00"> &#160;Transformed</text>
</g>
<!-- medicare.ps.year_parent -->
<g id="node6" class="node">
<title>medicare.ps.year_parent</title>
<g id="a_node6"><a xlink:href="../medicare.ps/year.html" xlink:title="8 incoming links (columns)" target="_blank">
<path fill="yellow" stroke="black" d="M1743.25,-391.68C1743.25,-397.1 1694.84,-401.5 1635.25,-401.5 1575.66,-401.5 1527.25,-397.1 1527.25,-391.68 1527.25,-391.68 1527.25,-303.32 1527.25,-303.32 1527.25,-297.9 1575.66,-293.5 1635.25,-293.5 1694.84,-293.5 1743.25,-297.9 1743.25,-303.32 1743.25,-303.32 1743.25,-391.68 1743.25,-391.68"/>
<path fill="none" stroke="black" d="M1743.25,-391.68C1743.25,-386.26 1694.84,-381.86 1635.25,-381.86 1575.66,-381.86 1527.25,-386.26 1527.25,-391.68"/>
<text text-anchor="middle" x="1635.25" y="-342.45" font-family="Times,serif" font-size="14.00">8 incoming links (columns)</text>
</a>
</g>
</g>
<!-- medicare.ps.year_parent&#45;&gt;medicare.ps.year -->
<g id="edge5" class="edge">
<title>medicare.ps.year_parent&#45;&gt;medicare.ps.year</title>
<path fill="none" stroke="goldenrod" stroke-width="6" d="M1635.25,-293.41C1635.25,-281.68 1635.25,-269.01 1635.25,-256.5"/>
<polygon fill="goldenrod" stroke="goldenrod" stroke-width="6" points="1640.5,-256.68 1635.25,-246.68 1630,-256.68 1640.5,-256.68"/>
</g>
</g>
</svg>
