<?xml version="1.0" encoding="UTF-8" standalone="no"?>
<!DOCTYPE svg PUBLIC "-//W3C//DTD SVG 1.1//EN"
 "http://www.w3.org/Graphics/SVG/1.1/DTD/svg11.dtd">
<!-- Generated by graphviz version 10.0.1 (20240210.2158)
 -->
<!-- Pages: 1 -->
<svg width="2475pt" height="771pt"
 viewBox="0.00 0.00 2475.12 770.50" xmlns="http://www.w3.org/2000/svg" xmlns:xlink="http://www.w3.org/1999/xlink">
<g id="graph0" class="graph" transform="scale(1 1) rotate(0) translate(4 766.5)">
<polygon fill="white" stroke="none" points="-4,4 -4,-766.5 2471.12,-766.5 2471.12,4 -4,4"/>
<!-- medicare.qc_enrollments.fips3 -->
<g id="node1" class="node">
<title>medicare.qc_enrollments.fips3</title>
<g id="a_node1"><a xlink:href="../medicare.qc_enrollments/fips3.html" xlink:title="&lt;TABLE&gt;" target="_blank">
<polygon fill="none" stroke="black" points="1377.12,-36 1172.62,-36 1172.62,0 1377.12,0 1377.12,-36"/>
<text text-anchor="start" x="1185.62" y="-13.95" font-family="Times,serif" font-weight="bold" font-size="14.00">medicare.qc_enrollments.fips3</text>
<polygon fill="none" stroke="black" points="1180.62,-4.75 1180.62,-31.25 1369.12,-31.25 1369.12,-4.75 1180.62,-4.75"/>
</a>
</g>
</g>
<!-- medicare.qc_enrl_bene.fips3 -->
<g id="node2" class="node">
<title>medicare.qc_enrl_bene.fips3</title>
<g id="a_node2"><a xlink:href="../medicare.qc_enrl_bene/fips3.html" xlink:title="&lt;TABLE&gt;" target="_blank">
<polygon fill="none" stroke="black" points="1371.12,-132 1178.62,-132 1178.62,-73 1371.12,-73 1371.12,-132"/>
<text text-anchor="start" x="1191.62" y="-110.7" font-family="Times,serif" font-weight="bold" font-size="14.00">medicare.qc_enrl_bene.fips3</text>
<polygon fill="none" stroke="black" points="1189.62,-80 1189.62,-102.5 1360.12,-102.5 1360.12,-80 1189.62,-80"/>
<text text-anchor="start" x="1192.62" y="-86.2" font-family="Times,serif" font-size="14.00">MAX(fips3)</text>
<polygon fill="none" stroke="black" points="1186.62,-77 1186.62,-128 1363.12,-128 1363.12,-77 1186.62,-77"/>
</a>
</g>
</g>
<!-- medicare.qc_enrl_bene.fips3&#45;&gt;medicare.qc_enrollments.fips3 -->
<g id="edge1" class="edge">
<title>medicare.qc_enrl_bene.fips3&#45;&gt;medicare.qc_enrollments.fips3</title>
<path fill="none" stroke="black" d="M1274.88,-72.65C1274.88,-64.62 1274.88,-55.91 1274.88,-47.89"/>
<polygon fill="black" stroke="black" points="1278.38,-47.93 1274.88,-37.93 1271.38,-47.93 1278.38,-47.93"/>
<text text-anchor="middle" x="1313.5" y="-49.45" font-family="Times,serif" font-size="14.00"> &#160;Transformed</text>
</g>
<!-- medicare.enrollments.fips3 -->
<g id="node3" class="node">
<title>medicare.enrollments.fips3</title>
<g id="a_node3"><a xlink:href="../medicare.enrollments/fips3.html" xlink:title="&lt;TABLE&gt;" target="_blank">
<polygon fill="none" stroke="black" points="1367,-228 1182.75,-228 1182.75,-169 1367,-169 1367,-228"/>
<text text-anchor="start" x="1195.75" y="-206.7" font-family="Times,serif" font-weight="bold" font-size="14.00">medicare.enrollments.fips3</text>
<polygon fill="none" stroke="black" points="1193.75,-176 1193.75,-198.5 1356,-198.5 1356,-176 1193.75,-176"/>
<text text-anchor="start" x="1196.75" y="-182.2" font-family="Times,serif" font-size="14.00">MAX(fips3)</text>
<polygon fill="none" stroke="black" points="1190.75,-173 1190.75,-224 1359,-224 1359,-173 1190.75,-173"/>
</a>
</g>
</g>
<!-- medicare.enrollments.fips3&#45;&gt;medicare.qc_enrl_bene.fips3 -->
<g id="edge2" class="edge">
<title>medicare.enrollments.fips3&#45;&gt;medicare.qc_enrl_bene.fips3</title>
<path fill="none" stroke="black" d="M1274.88,-168.53C1274.88,-160.68 1274.88,-152.05 1274.88,-143.7"/>
<polygon fill="black" stroke="black" points="1278.38,-143.73 1274.88,-133.73 1271.38,-143.73 1278.38,-143.73"/>
<text text-anchor="middle" x="1321" y="-145.45" font-family="Times,serif" font-size="14.00">	join natural</text>
</g>
<!-- medicare._enrollments.fips3 -->
<g id="node4" class="node">
<title>medicare._enrollments.fips3</title>
<g id="a_node4"><a xlink:href="../medicare._enrollments/fips3.html" xlink:title="&lt;TABLE&gt;" target="_blank">
<polygon fill="none" stroke="black" points="1370.38,-324 1179.38,-324 1179.38,-265 1370.38,-265 1370.38,-324"/>
<text text-anchor="start" x="1192.38" y="-302.7" font-family="Times,serif" font-weight="bold" font-size="14.00">medicare._enrollments.fips3</text>
<polygon fill="none" stroke="black" points="1190.38,-272 1190.38,-294.5 1359.38,-294.5 1359.38,-272 1190.38,-272"/>
<text text-anchor="start" x="1193.38" y="-278.2" font-family="Times,serif" font-size="14.00">MAX(fips3)</text>
<polygon fill="none" stroke="black" points="1187.38,-269 1187.38,-320 1362.38,-320 1362.38,-269 1187.38,-269"/>
</a>
</g>
</g>
<!-- medicare._enrollments.fips3&#45;&gt;medicare.enrollments.fips3 -->
<g id="edge3" class="edge">
<title>medicare._enrollments.fips3&#45;&gt;medicare.enrollments.fips3</title>
<path fill="none" stroke="black" d="M1274.88,-264.53C1274.88,-256.68 1274.88,-248.05 1274.88,-239.7"/>
<polygon fill="black" stroke="black" points="1278.38,-239.73 1274.88,-229.73 1271.38,-239.73 1278.38,-239.73"/>
<text text-anchor="middle" x="1294.38" y="-241.45" font-family="Times,serif" font-size="14.00">Copied</text>
</g>
<!-- medicare._ps.fips3 -->
<g id="node5" class="node">
<title>medicare._ps.fips3</title>
<g id="a_node5"><a xlink:href="../medicare._ps/fips3.html" xlink:title="&lt;TABLE&gt;" target="_blank">
<polygon fill="none" stroke="black" points="2467.12,-420 82.62,-420 82.62,-361 2467.12,-361 2467.12,-420"/>
<text text-anchor="start" x="1220.5" y="-398.7" font-family="Times,serif" font-weight="bold" font-size="14.00">medicare._ps.fips3</text>
<polygon fill="none" stroke="black" points="93.62,-368 93.62,-390.5 2456.12,-390.5 2456.12,-368 93.62,-368"/>
<text text-anchor="start" x="96.62" y="-374.2" font-family="Times,serif" font-size="14.00">CASE WHEN ssa3 is NOT NULL THEN &#160;CASE WHEN year &gt; 2010 THEN &#160;&#160;&#160;&#160;&#160;(SELECT fips3 from public.ssa as s where ps.ssa3 = s.ssa3 and ps.year = s.year and ps.fips2 = s.fips2 ORDER BY 1 DESC LIMIT 1) &#160;&#160;&#160;ELSE &#160;&#160;&#160;&#160;&#160;(SELECT fips3 from public.ssa as s where ps.ssa3 = s.ssa3 and 2003 = s.year and ps.fips2 = s.fips2 ORDER BY 1 DESC LIMIT 1) &#160;ENDELSE &#160;(SELECT public.zip_to_fips3(year, zip))END AS fips3</text>
<polygon fill="none" stroke="black" points="90.62,-365 90.62,-416 2459.12,-416 2459.12,-365 90.62,-365"/>
</a>
</g>
</g>
<!-- medicare._ps.fips3&#45;&gt;medicare._enrollments.fips3 -->
<g id="edge4" class="edge">
<title>medicare._ps.fips3&#45;&gt;medicare._enrollments.fips3</title>
<path fill="none" stroke="blue" stroke-width="5" d="M1274.88,-360.53C1274.88,-354.13 1274.88,-347.2 1274.88,-340.33"/>
<polygon fill="blue" stroke="blue" stroke-width="5" points="1279.25,-340.45 1274.88,-330.45 1270.5,-340.45 1279.25,-340.45"/>
<text text-anchor="middle" x="1389.25" y="-337.45" font-family="Times,serif" font-size="14.00">	 &#160;Aggregated On bene_id, year, state</text>
</g>
<!-- medicare.ps.year -->
<g id="node6" class="node">
<title>medicare.ps.year</title>
<g id="a_node6"><a xlink:href="../medicare.ps/year.html" xlink:title="&lt;TABLE&gt;" target="_blank">
<polygon fill="none" stroke="black" points="1117.75,-566.75 0,-566.75 0,-507.75 1117.75,-507.75 1117.75,-566.75"/>
<text text-anchor="start" x="509" y="-545.45" font-family="Times,serif" font-weight="bold" font-size="14.00">medicare.ps.year</text>
<polygon fill="none" stroke="black" points="11,-514.75 11,-537.25 1106.75,-537.25 1106.75,-514.75 11,-514.75"/>
<text text-anchor="start" x="14" y="-520.95" font-family="Times,serif" font-size="14.00">(CASE WHEN &quot;year&quot;::int &lt; 20 THEN (2000 + &quot;year&quot;::int) WHEN (20 &lt; &quot;year&quot;::int AND &quot;year&quot;::int &lt; 100) THEN (1900 + &quot;year&quot;::int) WHEN &quot;year&quot; IS NULL THEN 2000 ELSE &quot;year&quot;::int END)</text>
<polygon fill="none" stroke="black" points="8,-511.75 8,-562.75 1109.75,-562.75 1109.75,-511.75 8,-511.75"/>
</a>
</g>
</g>
<!-- medicare.ps.year&#45;&gt;medicare._ps.fips3 -->
<g id="edge5" class="edge">
<title>medicare.ps.year&#45;&gt;medicare._ps.fips3</title>
<path fill="none" stroke="black" d="M702.05,-507.31C823.17,-482.82 996.35,-447.81 1120.54,-422.7"/>
<polygon fill="black" stroke="black" points="1121.05,-426.17 1130.16,-420.76 1119.67,-419.31 1121.05,-426.17"/>
<text text-anchor="middle" x="1082.5" y="-433.45" font-family="Times,serif" font-size="14.00"> &#160;Transformed</text>
</g>
<!-- medicare.ps.year_parent -->
<g id="node7" class="node">
<title>medicare.ps.year_parent</title>
<g id="a_node7"><a xlink:href="../medicare.ps/year.html" xlink:title="8 incoming links (columns)" target="_blank">
<path fill="yellow" stroke="black" d="M666.88,-752.68C666.88,-758.1 618.47,-762.5 558.88,-762.5 499.28,-762.5 450.88,-758.1 450.88,-752.68 450.88,-752.68 450.88,-664.32 450.88,-664.32 450.88,-658.9 499.28,-654.5 558.88,-654.5 618.47,-654.5 666.88,-658.9 666.88,-664.32 666.88,-664.32 666.88,-752.68 666.88,-752.68"/>
<path fill="none" stroke="black" d="M666.88,-752.68C666.88,-747.26 618.47,-742.86 558.88,-742.86 499.28,-742.86 450.88,-747.26 450.88,-752.68"/>
<text text-anchor="middle" x="558.88" y="-703.45" font-family="Times,serif" font-size="14.00">8 incoming links (columns)</text>
</a>
</g>
</g>
<!-- medicare.ps.year_parent&#45;&gt;medicare.ps.year -->
<g id="edge6" class="edge">
<title>medicare.ps.year_parent&#45;&gt;medicare.ps.year</title>
<path fill="none" stroke="goldenrod" stroke-width="6" d="M558.88,-654.41C558.88,-631.62 558.88,-605.26 558.88,-583.42"/>
<polygon fill="goldenrod" stroke="goldenrod" stroke-width="6" points="564.13,-583.48 558.88,-573.48 553.63,-583.48 564.13,-583.48"/>
</g>
<!-- medicare.ps.ssa3 -->
<g id="node8" class="node">
<title>medicare.ps.ssa3</title>
<g id="a_node8"><a xlink:href="../medicare.ps/ssa3.html" xlink:title="&lt;TABLE&gt;" target="_blank">
<polygon fill="none" stroke="black" points="1413.62,-597 1136.12,-597 1136.12,-477.5 1413.62,-477.5 1413.62,-597"/>
<text text-anchor="start" x="1225.75" y="-575.7" font-family="Times,serif" font-weight="bold" font-size="14.00">medicare.ps.ssa3</text>
<text text-anchor="start" x="1172.12" y="-529.2" font-family="Times,serif" font-size="14.00">Social Security Administration (SSA)</text>
<text text-anchor="start" x="1202.5" y="-512.7" font-family="Times,serif" font-size="14.00">three digit code for county</text>
<polygon fill="none" stroke="black" points="1144.12,-481.5 1144.12,-593 1405.62,-593 1405.62,-481.5 1144.12,-481.5"/>
</a>
</g>
</g>
<!-- medicare.ps.ssa3&#45;&gt;medicare._ps.fips3 -->
<g id="edge7" class="edge">
<title>medicare.ps.ssa3&#45;&gt;medicare._ps.fips3</title>
<path fill="none" stroke="black" d="M1274.88,-477.37C1274.88,-461.97 1274.88,-445.71 1274.88,-431.54"/>
<polygon fill="black" stroke="black" points="1278.38,-431.7 1274.88,-421.7 1271.38,-431.7 1278.38,-431.7"/>
<text text-anchor="middle" x="1313.5" y="-433.45" font-family="Times,serif" font-size="14.00"> &#160;Transformed</text>
</g>
<!-- medicare.ps.ssa3_parent -->
<g id="node9" class="node">
<title>medicare.ps.ssa3_parent</title>
<g id="a_node9"><a xlink:href="../medicare.ps/ssa3.html" xlink:title="8 incoming links (columns)" target="_blank">
<path fill="yellow" stroke="black" d="M1382.88,-752.68C1382.88,-758.1 1334.47,-762.5 1274.88,-762.5 1215.28,-762.5 1166.88,-758.1 1166.88,-752.68 1166.88,-752.68 1166.88,-664.32 1166.88,-664.32 1166.88,-658.9 1215.28,-654.5 1274.88,-654.5 1334.47,-654.5 1382.88,-658.9 1382.88,-664.32 1382.88,-664.32 1382.88,-752.68 1382.88,-752.68"/>
<path fill="none" stroke="black" d="M1382.88,-752.68C1382.88,-747.26 1334.47,-742.86 1274.88,-742.86 1215.28,-742.86 1166.88,-747.26 1166.88,-752.68"/>
<text text-anchor="middle" x="1274.88" y="-703.45" font-family="Times,serif" font-size="14.00">8 incoming links (columns)</text>
</a>
</g>
</g>
<!-- medicare.ps.ssa3_parent&#45;&gt;medicare.ps.ssa3 -->
<g id="edge8" class="edge">
<title>medicare.ps.ssa3_parent&#45;&gt;medicare.ps.ssa3</title>
<path fill="none" stroke="goldenrod" stroke-width="6" d="M1274.88,-654.41C1274.88,-641.38 1274.88,-627.19 1274.88,-613.34"/>
<polygon fill="goldenrod" stroke="goldenrod" stroke-width="6" points="1280.13,-613.79 1274.88,-603.79 1269.63,-613.79 1280.13,-613.79"/>
</g>
<!-- medicare.ps.fips2 -->
<g id="node10" class="node">
<title>medicare.ps.fips2</title>
<g id="a_node10"><a xlink:href="../medicare.ps/fips2.html" xlink:title="&lt;TABLE&gt;" target="_blank">
<polygon fill="none" stroke="black" points="1846,-617.5 1431.75,-617.5 1431.75,-457 1846,-457 1846,-617.5"/>
<text text-anchor="start" x="1587.88" y="-596.2" font-family="Times,serif" font-weight="bold" font-size="14.00">medicare.ps.fips2</text>
<text text-anchor="start" x="1479.38" y="-549.7" font-family="Times,serif" font-size="14.00">2 digit state FIPS, see https://en.wikip</text>
<text text-anchor="start" x="1467.75" y="-533.2" font-family="Times,serif" font-size="14.00">edia.org/wiki/Federal_Information_Proces</text>
<text text-anchor="start" x="1512.75" y="-516.7" font-family="Times,serif" font-size="14.00">sing_Standard_state_code</text>
<polygon fill="none" stroke="black" points="1442.75,-464 1442.75,-486.5 1835,-486.5 1835,-464 1442.75,-464"/>
<text text-anchor="start" x="1445.75" y="-470.2" font-family="Times,serif" font-size="14.00">(SELECT fips2 FROM public.us_states as s WHERE s.ssa2 = &quot;state&quot;)</text>
<polygon fill="none" stroke="black" points="1439.75,-461 1439.75,-613.5 1838,-613.5 1838,-461 1439.75,-461"/>
</a>
</g>
</g>
<!-- medicare.ps.fips2&#45;&gt;medicare._ps.fips3 -->
<g id="edge9" class="edge">
<title>medicare.ps.fips2&#45;&gt;medicare._ps.fips3</title>
<path fill="none" stroke="black" d="M1438.51,-456.57C1410.19,-445.31 1382.47,-434.29 1358.14,-424.61"/>
<polygon fill="black" stroke="black" points="1359.55,-421.41 1348.97,-420.96 1356.97,-427.91 1359.55,-421.41"/>
<text text-anchor="middle" x="1431.5" y="-433.45" font-family="Times,serif" font-size="14.00"> &#160;Transformed</text>
</g>
</g>
</svg>
