<?xml version="1.0" encoding="UTF-8" standalone="no"?>
<!DOCTYPE svg PUBLIC "-//W3C//DTD SVG 1.1//EN"
 "http://www.w3.org/Graphics/SVG/1.1/DTD/svg11.dtd">
<!-- Generated by graphviz version 10.0.1 (20240210.2158)
 -->
<!-- Pages: 1 -->
<svg width="915pt" height="236pt"
 viewBox="0.00 0.00 915.00 236.00" xmlns="http://www.w3.org/2000/svg" xmlns:xlink="http://www.w3.org/1999/xlink">
<g id="graph0" class="graph" transform="scale(1 1) rotate(0) translate(4 232)">
<polygon fill="white" stroke="none" points="-4,4 -4,-232 911,-232 911,4 -4,4"/>
<!-- medicare.qc_enrollments.hmo -->
<g id="node1" class="node">
<title>medicare.qc_enrollments.hmo</title>
<g id="a_node1"><a xlink:href="../medicare.qc_enrollments/hmo.html" xlink:title="&lt;TABLE&gt;" target="_blank">
<polygon fill="none" stroke="black" points="555,-36 352,-36 352,0 555,0 555,-36"/>
<text text-anchor="start" x="365" y="-13.95" font-family="Times,serif" font-weight="bold" font-size="14.00">medicare.qc_enrollments.hmo</text>
<polygon fill="none" stroke="black" points="360,-4.75 360,-31.25 547,-31.25 547,-4.75 360,-4.75"/>
</a>
</g>
</g>
<!-- medicare.qc_enrl_bene.hmo -->
<g id="node2" class="node">
<title>medicare.qc_enrl_bene.hmo</title>
<g id="a_node2"><a xlink:href="../medicare.qc_enrl_bene/hmo.html" xlink:title="&lt;TABLE&gt;" target="_blank">
<polygon fill="none" stroke="black" points="907,-132 0,-132 0,-73 907,-73 907,-132"/>
<text text-anchor="start" x="371" y="-110.7" font-family="Times,serif" font-weight="bold" font-size="14.00">medicare.qc_enrl_bene.hmo</text>
<polygon fill="none" stroke="black" points="11,-80 11,-102.5 896,-102.5 896,-80 11,-80"/>
<text text-anchor="start" x="14" y="-86.2" font-family="Times,serif" font-size="14.00">GENERATED ALWAYS AS (CASE WHEN hmo_cvg_count IS NULL THEN NULL WHEN hmo_cvg_count &gt; 0 THEN TRUE ELSE FALSE END) STORED</text>
<polygon fill="none" stroke="black" points="8,-77 8,-128 899,-128 899,-77 8,-77"/>
</a>
</g>
</g>
<!-- medicare.qc_enrl_bene.hmo&#45;&gt;medicare.qc_enrollments.hmo -->
<g id="edge1" class="edge">
<title>medicare.qc_enrl_bene.hmo&#45;&gt;medicare.qc_enrollments.hmo</title>
<path fill="none" stroke="black" d="M453.5,-72.65C453.5,-64.62 453.5,-55.91 453.5,-47.89"/>
<polygon fill="black" stroke="black" points="457,-47.93 453.5,-37.93 450,-47.93 457,-47.93"/>
<text text-anchor="middle" x="492.12" y="-49.45" font-family="Times,serif" font-size="14.00"> &#160;Transformed</text>
</g>
<!-- medicare.enrollments.hmo -->
<g id="node3" class="node">
<title>medicare.enrollments.hmo</title>
<g id="a_node3"><a xlink:href="../medicare.enrollments/hmo.html" xlink:title="&lt;TABLE&gt;" target="_blank">
<polygon fill="none" stroke="black" points="907,-228 0,-228 0,-169 907,-169 907,-228"/>
<text text-anchor="start" x="375.12" y="-206.7" font-family="Times,serif" font-weight="bold" font-size="14.00">medicare.enrollments.hmo</text>
<polygon fill="none" stroke="black" points="11,-176 11,-198.5 896,-198.5 896,-176 11,-176"/>
<text text-anchor="start" x="14" y="-182.2" font-family="Times,serif" font-size="14.00">GENERATED ALWAYS AS (CASE WHEN hmo_cvg_count IS NULL THEN NULL WHEN hmo_cvg_count &gt; 0 THEN TRUE ELSE FALSE END) STORED</text>
<polygon fill="none" stroke="black" points="8,-173 8,-224 899,-224 899,-173 8,-173"/>
</a>
</g>
</g>
<!-- medicare.enrollments.hmo&#45;&gt;medicare.qc_enrl_bene.hmo -->
<g id="edge2" class="edge">
<title>medicare.enrollments.hmo&#45;&gt;medicare.qc_enrl_bene.hmo</title>
<path fill="none" stroke="black" d="M453.5,-168.53C453.5,-160.68 453.5,-152.05 453.5,-143.7"/>
<polygon fill="black" stroke="black" points="457,-143.73 453.5,-133.73 450,-143.73 457,-143.73"/>
<text text-anchor="middle" x="499.62" y="-145.45" font-family="Times,serif" font-size="14.00">	join natural</text>
</g>
</g>
</svg>
