<?xml version="1.0" encoding="UTF-8" standalone="no"?>
<!DOCTYPE svg PUBLIC "-//W3C//DTD SVG 1.1//EN"
 "http://www.w3.org/Graphics/SVG/1.1/DTD/svg11.dtd">
<!-- Generated by graphviz version 10.0.1 (20240210.2158)
 -->
<!-- Pages: 1 -->
<svg width="297pt" height="495pt"
 viewBox="0.00 0.00 296.75 495.00" xmlns="http://www.w3.org/2000/svg" xmlns:xlink="http://www.w3.org/1999/xlink">
<g id="graph0" class="graph" transform="scale(1 1) rotate(0) translate(4 491)">
<polygon fill="white" stroke="none" points="-4,4 -4,-491 292.75,-491 292.75,4 -4,4"/>
<!-- medicare._ps.hmo_cvg_count -->
<g id="node1" class="node">
<title>medicare._ps.hmo_cvg_count</title>
<g id="a_node1"><a xlink:href="../medicare._ps/hmo_cvg_count.html" xlink:title="&lt;TABLE&gt;" target="_blank">
<polygon fill="none" stroke="black" points="288.75,-152.5 0,-152.5 0,0 288.75,0 288.75,-152.5"/>
<text text-anchor="start" x="58.12" y="-131.2" font-family="Times,serif" font-weight="bold" font-size="14.00">medicare._ps.hmo_cvg_count</text>
<text text-anchor="start" x="36" y="-84.7" font-family="Times,serif" font-size="14.00">Number of months during a given year,</text>
<text text-anchor="start" x="45.75" y="-68.2" font-family="Times,serif" font-size="14.00">the beneficiary received their Part A</text>
<text text-anchor="start" x="37.88" y="-51.7" font-family="Times,serif" font-size="14.00">and Part B benefits through a managed</text>
<text text-anchor="start" x="119.62" y="-35.2" font-family="Times,serif" font-size="14.00">care plan</text>
<polygon fill="none" stroke="black" points="8,-4 8,-148.5 280.75,-148.5 280.75,-4 8,-4"/>
</a>
</g>
</g>
<!-- medicare.ps.hmo_cvg_count -->
<g id="node2" class="node">
<title>medicare.ps.hmo_cvg_count</title>
<g id="a_node2"><a xlink:href="../medicare.ps/hmo_cvg_count.html" xlink:title="&lt;TABLE&gt;" target="_blank">
<polygon fill="none" stroke="black" points="288.75,-342 0,-342 0,-189.5 288.75,-189.5 288.75,-342"/>
<text text-anchor="start" x="61.5" y="-320.7" font-family="Times,serif" font-weight="bold" font-size="14.00">medicare.ps.hmo_cvg_count</text>
<text text-anchor="start" x="36" y="-274.2" font-family="Times,serif" font-size="14.00">Number of months during a given year,</text>
<text text-anchor="start" x="45.75" y="-257.7" font-family="Times,serif" font-size="14.00">the beneficiary received their Part A</text>
<text text-anchor="start" x="37.88" y="-241.2" font-family="Times,serif" font-size="14.00">and Part B benefits through a managed</text>
<text text-anchor="start" x="119.62" y="-224.7" font-family="Times,serif" font-size="14.00">care plan</text>
<polygon fill="none" stroke="black" points="8,-193.5 8,-338 280.75,-338 280.75,-193.5 8,-193.5"/>
</a>
</g>
</g>
<!-- medicare.ps.hmo_cvg_count&#45;&gt;medicare._ps.hmo_cvg_count -->
<g id="edge1" class="edge">
<title>medicare.ps.hmo_cvg_count&#45;&gt;medicare._ps.hmo_cvg_count</title>
<path fill="none" stroke="black" d="M144.38,-189.03C144.38,-180.85 144.38,-172.49 144.38,-164.19"/>
<polygon fill="black" stroke="black" points="147.88,-164.46 144.38,-154.46 140.88,-164.46 147.88,-164.46"/>
<text text-anchor="middle" x="163.88" y="-165.95" font-family="Times,serif" font-size="14.00">Copied</text>
</g>
<!-- medicare.ps.hmo_cvg_count_parent -->
<g id="node3" class="node">
<title>medicare.ps.hmo_cvg_count_parent</title>
<g id="a_node3"><a xlink:href="../medicare.ps/hmo_cvg_count.html" xlink:title="8 incoming links (columns)" target="_blank">
<path fill="yellow" stroke="black" d="M252.38,-477.18C252.38,-482.6 203.97,-487 144.38,-487 84.78,-487 36.38,-482.6 36.38,-477.18 36.38,-477.18 36.38,-388.82 36.38,-388.82 36.38,-383.4 84.78,-379 144.38,-379 203.97,-379 252.38,-383.4 252.38,-388.82 252.38,-388.82 252.38,-477.18 252.38,-477.18"/>
<path fill="none" stroke="black" d="M252.38,-477.18C252.38,-471.76 203.97,-467.36 144.38,-467.36 84.78,-467.36 36.38,-471.76 36.38,-477.18"/>
<text text-anchor="middle" x="144.38" y="-427.95" font-family="Times,serif" font-size="14.00">8 incoming links (columns)</text>
</a>
</g>
</g>
<!-- medicare.ps.hmo_cvg_count_parent&#45;&gt;medicare.ps.hmo_cvg_count -->
<g id="edge2" class="edge">
<title>medicare.ps.hmo_cvg_count_parent&#45;&gt;medicare.ps.hmo_cvg_count</title>
<path fill="none" stroke="goldenrod" stroke-width="6" d="M144.38,-378.8C144.38,-372.37 144.38,-365.66 144.38,-358.86"/>
<polygon fill="goldenrod" stroke="goldenrod" stroke-width="6" points="149.63,-358.87 144.38,-348.87 139.13,-358.87 149.63,-358.87"/>
</g>
</g>
</svg>
