<?xml version="1.0" encoding="UTF-8" standalone="no"?>
<!DOCTYPE svg PUBLIC "-//W3C//DTD SVG 1.1//EN"
 "http://www.w3.org/Graphics/SVG/1.1/DTD/svg11.dtd">
<!-- Generated by graphviz version 10.0.1 (20240210.2158)
 -->
<!-- Pages: 1 -->
<svg width="381pt" height="591pt"
 viewBox="0.00 0.00 381.12 591.00" xmlns="http://www.w3.org/2000/svg" xmlns:xlink="http://www.w3.org/1999/xlink">
<g id="graph0" class="graph" transform="scale(1 1) rotate(0) translate(4 587)">
<polygon fill="white" stroke="none" points="-4,4 -4,-587 377.12,-587 377.12,4 -4,4"/>
<!-- medicare._enrollments.hmo_cvg_count -->
<g id="node1" class="node">
<title>medicare._enrollments.hmo_cvg_count</title>
<g id="a_node1"><a xlink:href="../medicare._enrollments/hmo_cvg_count.html" xlink:title="&lt;TABLE&gt;" target="_blank">
<polygon fill="none" stroke="black" points="271.75,-59 17,-59 17,0 271.75,0 271.75,-59"/>
<text text-anchor="start" x="30" y="-37.7" font-family="Times,serif" font-weight="bold" font-size="14.00">medicare._enrollments.hmo_cvg_count</text>
<polygon fill="none" stroke="black" points="28,-7 28,-29.5 260.75,-29.5 260.75,-7 28,-7"/>
<text text-anchor="start" x="31" y="-13.2" font-family="Times,serif" font-size="14.00">MAX(hmo_cvg_count)</text>
<polygon fill="none" stroke="black" points="25,-4 25,-55 263.75,-55 263.75,-4 25,-4"/>
</a>
</g>
</g>
<!-- medicare._ps.hmo_cvg_count -->
<g id="node2" class="node">
<title>medicare._ps.hmo_cvg_count</title>
<g id="a_node2"><a xlink:href="../medicare._ps/hmo_cvg_count.html" xlink:title="&lt;TABLE&gt;" target="_blank">
<polygon fill="none" stroke="black" points="288.75,-248.5 0,-248.5 0,-96 288.75,-96 288.75,-248.5"/>
<text text-anchor="start" x="58.12" y="-227.2" font-family="Times,serif" font-weight="bold" font-size="14.00">medicare._ps.hmo_cvg_count</text>
<text text-anchor="start" x="36" y="-180.7" font-family="Times,serif" font-size="14.00">Number of months during a given year,</text>
<text text-anchor="start" x="45.75" y="-164.2" font-family="Times,serif" font-size="14.00">the beneficiary received their Part A</text>
<text text-anchor="start" x="37.88" y="-147.7" font-family="Times,serif" font-size="14.00">and Part B benefits through a managed</text>
<text text-anchor="start" x="119.62" y="-131.2" font-family="Times,serif" font-size="14.00">care plan</text>
<polygon fill="none" stroke="black" points="8,-100 8,-244.5 280.75,-244.5 280.75,-100 8,-100"/>
</a>
</g>
</g>
<!-- medicare._ps.hmo_cvg_count&#45;&gt;medicare._enrollments.hmo_cvg_count -->
<g id="edge1" class="edge">
<title>medicare._ps.hmo_cvg_count&#45;&gt;medicare._enrollments.hmo_cvg_count</title>
<path fill="none" stroke="blue" stroke-width="5" d="M144.38,-95.52C144.38,-88.67 144.38,-81.9 144.38,-75.45"/>
<polygon fill="blue" stroke="blue" stroke-width="5" points="148.75,-75.57 144.38,-65.57 140,-75.57 148.75,-75.57"/>
<text text-anchor="middle" x="258.75" y="-72.45" font-family="Times,serif" font-size="14.00">	 &#160;Aggregated On bene_id, year, state</text>
</g>
<!-- medicare.ps.hmo_cvg_count -->
<g id="node3" class="node">
<title>medicare.ps.hmo_cvg_count</title>
<g id="a_node3"><a xlink:href="../medicare.ps/hmo_cvg_count.html" xlink:title="&lt;TABLE&gt;" target="_blank">
<polygon fill="none" stroke="black" points="288.75,-438 0,-438 0,-285.5 288.75,-285.5 288.75,-438"/>
<text text-anchor="start" x="61.5" y="-416.7" font-family="Times,serif" font-weight="bold" font-size="14.00">medicare.ps.hmo_cvg_count</text>
<text text-anchor="start" x="36" y="-370.2" font-family="Times,serif" font-size="14.00">Number of months during a given year,</text>
<text text-anchor="start" x="45.75" y="-353.7" font-family="Times,serif" font-size="14.00">the beneficiary received their Part A</text>
<text text-anchor="start" x="37.88" y="-337.2" font-family="Times,serif" font-size="14.00">and Part B benefits through a managed</text>
<text text-anchor="start" x="119.62" y="-320.7" font-family="Times,serif" font-size="14.00">care plan</text>
<polygon fill="none" stroke="black" points="8,-289.5 8,-434 280.75,-434 280.75,-289.5 8,-289.5"/>
</a>
</g>
</g>
<!-- medicare.ps.hmo_cvg_count&#45;&gt;medicare._ps.hmo_cvg_count -->
<g id="edge2" class="edge">
<title>medicare.ps.hmo_cvg_count&#45;&gt;medicare._ps.hmo_cvg_count</title>
<path fill="none" stroke="black" d="M144.38,-285.03C144.38,-276.85 144.38,-268.49 144.38,-260.19"/>
<polygon fill="black" stroke="black" points="147.88,-260.46 144.38,-250.46 140.88,-260.46 147.88,-260.46"/>
<text text-anchor="middle" x="163.88" y="-261.95" font-family="Times,serif" font-size="14.00">Copied</text>
</g>
<!-- medicare.ps.hmo_cvg_count_parent -->
<g id="node4" class="node">
<title>medicare.ps.hmo_cvg_count_parent</title>
<g id="a_node4"><a xlink:href="../medicare.ps/hmo_cvg_count.html" xlink:title="8 incoming links (columns)" target="_blank">
<path fill="yellow" stroke="black" d="M252.38,-573.18C252.38,-578.6 203.97,-583 144.38,-583 84.78,-583 36.38,-578.6 36.38,-573.18 36.38,-573.18 36.38,-484.82 36.38,-484.82 36.38,-479.4 84.78,-475 144.38,-475 203.97,-475 252.38,-479.4 252.38,-484.82 252.38,-484.82 252.38,-573.18 252.38,-573.18"/>
<path fill="none" stroke="black" d="M252.38,-573.18C252.38,-567.76 203.97,-563.36 144.38,-563.36 84.78,-563.36 36.38,-567.76 36.38,-573.18"/>
<text text-anchor="middle" x="144.38" y="-523.95" font-family="Times,serif" font-size="14.00">8 incoming links (columns)</text>
</a>
</g>
</g>
<!-- medicare.ps.hmo_cvg_count_parent&#45;&gt;medicare.ps.hmo_cvg_count -->
<g id="edge3" class="edge">
<title>medicare.ps.hmo_cvg_count_parent&#45;&gt;medicare.ps.hmo_cvg_count</title>
<path fill="none" stroke="goldenrod" stroke-width="6" d="M144.38,-474.8C144.38,-468.37 144.38,-461.66 144.38,-454.86"/>
<polygon fill="goldenrod" stroke="goldenrod" stroke-width="6" points="149.63,-454.87 144.38,-444.87 139.13,-454.87 149.63,-454.87"/>
</g>
</g>
</svg>
