<?xml version="1.0" encoding="UTF-8" standalone="no"?>
<!DOCTYPE svg PUBLIC "-//W3C//DTD SVG 1.1//EN"
 "http://www.w3.org/Graphics/SVG/1.1/DTD/svg11.dtd">
<!-- Generated by graphviz version 10.0.1 (20240210.2158)
 -->
<!-- Pages: 1 -->
<svg width="393pt" height="621pt"
 viewBox="0.00 0.00 393.12 621.00" xmlns="http://www.w3.org/2000/svg" xmlns:xlink="http://www.w3.org/1999/xlink">
<g id="graph0" class="graph" transform="scale(1 1) rotate(0) translate(4 617)">
<polygon fill="white" stroke="none" points="-4,4 -4,-617 389.12,-617 389.12,4 -4,4"/>
<!-- medicare.enrollments.hmo_indicators -->
<g id="node1" class="node">
<title>medicare.enrollments.hmo_indicators</title>
<g id="a_node1"><a xlink:href="../medicare.enrollments/hmo_indicators.html" xlink:title="&lt;TABLE&gt;" target="_blank">
<polygon fill="none" stroke="black" points="280,-59 32.75,-59 32.75,0 280,0 280,-59"/>
<text text-anchor="start" x="45.75" y="-37.7" font-family="Times,serif" font-weight="bold" font-size="14.00">medicare.enrollments.hmo_indicators</text>
<polygon fill="none" stroke="black" points="43.75,-7 43.75,-29.5 269,-29.5 269,-7 43.75,-7"/>
<text text-anchor="start" x="46.75" y="-13.2" font-family="Times,serif" font-size="14.00">MAX(hmo_indicators)</text>
<polygon fill="none" stroke="black" points="40.75,-4 40.75,-55 272,-55 272,-4 40.75,-4"/>
</a>
</g>
</g>
<!-- medicare._enrollments.hmo_indicators -->
<g id="node2" class="node">
<title>medicare._enrollments.hmo_indicators</title>
<g id="a_node2"><a xlink:href="../medicare._enrollments/hmo_indicators.html" xlink:title="&lt;TABLE&gt;" target="_blank">
<polygon fill="none" stroke="black" points="283.38,-155 29.37,-155 29.37,-96 283.38,-96 283.38,-155"/>
<text text-anchor="start" x="42.38" y="-133.7" font-family="Times,serif" font-weight="bold" font-size="14.00">medicare._enrollments.hmo_indicators</text>
<polygon fill="none" stroke="black" points="40.38,-103 40.38,-125.5 272.38,-125.5 272.38,-103 40.38,-103"/>
<text text-anchor="start" x="43.38" y="-109.2" font-family="Times,serif" font-size="14.00">MAX(hmo_indicators)</text>
<polygon fill="none" stroke="black" points="37.38,-100 37.38,-151 275.38,-151 275.38,-100 37.38,-100"/>
</a>
</g>
</g>
<!-- medicare._enrollments.hmo_indicators&#45;&gt;medicare.enrollments.hmo_indicators -->
<g id="edge1" class="edge">
<title>medicare._enrollments.hmo_indicators&#45;&gt;medicare.enrollments.hmo_indicators</title>
<path fill="none" stroke="black" d="M156.38,-95.53C156.38,-87.68 156.38,-79.05 156.38,-70.7"/>
<polygon fill="black" stroke="black" points="159.88,-70.73 156.38,-60.73 152.88,-70.73 159.88,-70.73"/>
<text text-anchor="middle" x="175.88" y="-72.45" font-family="Times,serif" font-size="14.00">Copied</text>
</g>
<!-- medicare._ps.hmo_indicators -->
<g id="node3" class="node">
<title>medicare._ps.hmo_indicators</title>
<g id="a_node3"><a xlink:href="../medicare._ps/hmo_indicators.html" xlink:title="&lt;TABLE&gt;" target="_blank">
<polygon fill="none" stroke="black" points="312.75,-311.5 0,-311.5 0,-192 312.75,-192 312.75,-311.5"/>
<text text-anchor="start" x="70.5" y="-290.2" font-family="Times,serif" font-weight="bold" font-size="14.00">medicare._ps.hmo_indicators</text>
<text text-anchor="start" x="56.25" y="-243.7" font-family="Times,serif" font-size="14.00">Array of indicators if the beneficiary</text>
<text text-anchor="start" x="36" y="-227.2" font-family="Times,serif" font-size="14.00">was enrolled in HMO during a given month</text>
<polygon fill="none" stroke="black" points="8,-196 8,-307.5 304.75,-307.5 304.75,-196 8,-196"/>
</a>
</g>
</g>
<!-- medicare._ps.hmo_indicators&#45;&gt;medicare._enrollments.hmo_indicators -->
<g id="edge2" class="edge">
<title>medicare._ps.hmo_indicators&#45;&gt;medicare._enrollments.hmo_indicators</title>
<path fill="none" stroke="blue" stroke-width="5" d="M156.38,-191.54C156.38,-184.73 156.38,-177.88 156.38,-171.31"/>
<polygon fill="blue" stroke="blue" stroke-width="5" points="160.75,-171.51 156.38,-161.51 152,-171.51 160.75,-171.51"/>
<text text-anchor="middle" x="270.75" y="-168.45" font-family="Times,serif" font-size="14.00">	 &#160;Aggregated On bene_id, year, state</text>
</g>
<!-- medicare.ps.hmo_indicators -->
<g id="node4" class="node">
<title>medicare.ps.hmo_indicators</title>
<g id="a_node4"><a xlink:href="../medicare.ps/hmo_indicators.html" xlink:title="&lt;TABLE&gt;" target="_blank">
<polygon fill="none" stroke="black" points="312.75,-468 0,-468 0,-348.5 312.75,-348.5 312.75,-468"/>
<text text-anchor="start" x="73.88" y="-446.7" font-family="Times,serif" font-weight="bold" font-size="14.00">medicare.ps.hmo_indicators</text>
<text text-anchor="start" x="56.25" y="-400.2" font-family="Times,serif" font-size="14.00">Array of indicators if the beneficiary</text>
<text text-anchor="start" x="36" y="-383.7" font-family="Times,serif" font-size="14.00">was enrolled in HMO during a given month</text>
<polygon fill="none" stroke="black" points="8,-352.5 8,-464 304.75,-464 304.75,-352.5 8,-352.5"/>
</a>
</g>
</g>
<!-- medicare.ps.hmo_indicators&#45;&gt;medicare._ps.hmo_indicators -->
<g id="edge3" class="edge">
<title>medicare.ps.hmo_indicators&#45;&gt;medicare._ps.hmo_indicators</title>
<path fill="none" stroke="black" d="M156.38,-348.4C156.38,-340.19 156.38,-331.69 156.38,-323.29"/>
<polygon fill="black" stroke="black" points="159.88,-323.46 156.38,-313.46 152.88,-323.46 159.88,-323.46"/>
<text text-anchor="middle" x="175.88" y="-324.95" font-family="Times,serif" font-size="14.00">Copied</text>
</g>
<!-- medicare.ps.hmo_indicators_parent -->
<g id="node5" class="node">
<title>medicare.ps.hmo_indicators_parent</title>
<g id="a_node5"><a xlink:href="../medicare.ps/hmo_indicators.html" xlink:title="96 incoming links (columns)" target="_blank">
<path fill="yellow" stroke="black" d="M264.38,-603.18C264.38,-608.6 215.97,-613 156.38,-613 96.78,-613 48.38,-608.6 48.38,-603.18 48.38,-603.18 48.38,-514.82 48.38,-514.82 48.38,-509.4 96.78,-505 156.38,-505 215.97,-505 264.38,-509.4 264.38,-514.82 264.38,-514.82 264.38,-603.18 264.38,-603.18"/>
<path fill="none" stroke="black" d="M264.38,-603.18C264.38,-597.76 215.97,-593.36 156.38,-593.36 96.78,-593.36 48.38,-597.76 48.38,-603.18"/>
<text text-anchor="middle" x="156.38" y="-553.95" font-family="Times,serif" font-size="14.00">96 incoming links (columns)</text>
</a>
</g>
</g>
<!-- medicare.ps.hmo_indicators_parent&#45;&gt;medicare.ps.hmo_indicators -->
<g id="edge4" class="edge">
<title>medicare.ps.hmo_indicators_parent&#45;&gt;medicare.ps.hmo_indicators</title>
<path fill="none" stroke="goldenrod" stroke-width="9.58" d="M156.38,-504.72C156.38,-498.57 156.38,-492.2 156.38,-485.82"/>
<polygon fill="goldenrod" stroke="goldenrod" stroke-width="9.58" points="164.76,-485.93 156.38,-475.93 147.99,-485.93 164.76,-485.93"/>
</g>
</g>
</svg>
