<?xml version="1.0" encoding="UTF-8" standalone="no"?>
<!DOCTYPE svg PUBLIC "-//W3C//DTD SVG 1.1//EN"
 "http://www.w3.org/Graphics/SVG/1.1/DTD/svg11.dtd">
<!-- Generated by graphviz version 10.0.1 (20240210.2158)
 -->
<!-- Pages: 1 -->
<svg width="321pt" height="429pt"
 viewBox="0.00 0.00 320.75 429.00" xmlns="http://www.w3.org/2000/svg" xmlns:xlink="http://www.w3.org/1999/xlink">
<g id="graph0" class="graph" transform="scale(1 1) rotate(0) translate(4 425)">
<polygon fill="white" stroke="none" points="-4,4 -4,-425 316.75,-425 316.75,4 -4,4"/>
<!-- medicare._ps.hmo_indicators -->
<g id="node1" class="node">
<title>medicare._ps.hmo_indicators</title>
<g id="a_node1"><a xlink:href="../medicare._ps/hmo_indicators.html" xlink:title="&lt;TABLE&gt;" target="_blank">
<polygon fill="none" stroke="black" points="312.75,-119.5 0,-119.5 0,0 312.75,0 312.75,-119.5"/>
<text text-anchor="start" x="70.5" y="-98.2" font-family="Times,serif" font-weight="bold" font-size="14.00">medicare._ps.hmo_indicators</text>
<text text-anchor="start" x="56.25" y="-51.7" font-family="Times,serif" font-size="14.00">Array of indicators if the beneficiary</text>
<text text-anchor="start" x="36" y="-35.2" font-family="Times,serif" font-size="14.00">was enrolled in HMO during a given month</text>
<polygon fill="none" stroke="black" points="8,-4 8,-115.5 304.75,-115.5 304.75,-4 8,-4"/>
</a>
</g>
</g>
<!-- medicare.ps.hmo_indicators -->
<g id="node2" class="node">
<title>medicare.ps.hmo_indicators</title>
<g id="a_node2"><a xlink:href="../medicare.ps/hmo_indicators.html" xlink:title="&lt;TABLE&gt;" target="_blank">
<polygon fill="none" stroke="black" points="312.75,-276 0,-276 0,-156.5 312.75,-156.5 312.75,-276"/>
<text text-anchor="start" x="73.88" y="-254.7" font-family="Times,serif" font-weight="bold" font-size="14.00">medicare.ps.hmo_indicators</text>
<text text-anchor="start" x="56.25" y="-208.2" font-family="Times,serif" font-size="14.00">Array of indicators if the beneficiary</text>
<text text-anchor="start" x="36" y="-191.7" font-family="Times,serif" font-size="14.00">was enrolled in HMO during a given month</text>
<polygon fill="none" stroke="black" points="8,-160.5 8,-272 304.75,-272 304.75,-160.5 8,-160.5"/>
</a>
</g>
</g>
<!-- medicare.ps.hmo_indicators&#45;&gt;medicare._ps.hmo_indicators -->
<g id="edge1" class="edge">
<title>medicare.ps.hmo_indicators&#45;&gt;medicare._ps.hmo_indicators</title>
<path fill="none" stroke="black" d="M156.38,-156.4C156.38,-148.19 156.38,-139.69 156.38,-131.29"/>
<polygon fill="black" stroke="black" points="159.88,-131.46 156.38,-121.46 152.88,-131.46 159.88,-131.46"/>
<text text-anchor="middle" x="175.88" y="-132.95" font-family="Times,serif" font-size="14.00">Copied</text>
</g>
<!-- medicare.ps.hmo_indicators_parent -->
<g id="node3" class="node">
<title>medicare.ps.hmo_indicators_parent</title>
<g id="a_node3"><a xlink:href="../medicare.ps/hmo_indicators.html" xlink:title="96 incoming links (columns)" target="_blank">
<path fill="yellow" stroke="black" d="M264.38,-411.18C264.38,-416.6 215.97,-421 156.38,-421 96.78,-421 48.38,-416.6 48.38,-411.18 48.38,-411.18 48.38,-322.82 48.38,-322.82 48.38,-317.4 96.78,-313 156.38,-313 215.97,-313 264.38,-317.4 264.38,-322.82 264.38,-322.82 264.38,-411.18 264.38,-411.18"/>
<path fill="none" stroke="black" d="M264.38,-411.18C264.38,-405.76 215.97,-401.36 156.38,-401.36 96.78,-401.36 48.38,-405.76 48.38,-411.18"/>
<text text-anchor="middle" x="156.38" y="-361.95" font-family="Times,serif" font-size="14.00">96 incoming links (columns)</text>
</a>
</g>
</g>
<!-- medicare.ps.hmo_indicators_parent&#45;&gt;medicare.ps.hmo_indicators -->
<g id="edge2" class="edge">
<title>medicare.ps.hmo_indicators_parent&#45;&gt;medicare.ps.hmo_indicators</title>
<path fill="none" stroke="goldenrod" stroke-width="9.58" d="M156.38,-312.72C156.38,-306.57 156.38,-300.2 156.38,-293.82"/>
<polygon fill="goldenrod" stroke="goldenrod" stroke-width="9.58" points="164.76,-293.93 156.38,-283.93 147.99,-293.93 164.76,-293.93"/>
</g>
</g>
</svg>
