<?xml version="1.0" encoding="UTF-8" standalone="no"?>
<!DOCTYPE svg PUBLIC "-//W3C//DTD SVG 1.1//EN"
 "http://www.w3.org/Graphics/SVG/1.1/DTD/svg11.dtd">
<!-- Generated by graphviz version 10.0.1 (20240210.2158)
 -->
<!-- Pages: 1 -->
<svg width="393pt" height="525pt"
 viewBox="0.00 0.00 393.12 525.00" xmlns="http://www.w3.org/2000/svg" xmlns:xlink="http://www.w3.org/1999/xlink">
<g id="graph0" class="graph" transform="scale(1 1) rotate(0) translate(4 521)">
<polygon fill="white" stroke="none" points="-4,4 -4,-521 389.12,-521 389.12,4 -4,4"/>
<!-- medicare._enrollments.hmo_indicators -->
<g id="node1" class="node">
<title>medicare._enrollments.hmo_indicators</title>
<g id="a_node1"><a xlink:href="../medicare._enrollments/hmo_indicators.html" xlink:title="&lt;TABLE&gt;" target="_blank">
<polygon fill="none" stroke="black" points="283.38,-59 29.37,-59 29.37,0 283.38,0 283.38,-59"/>
<text text-anchor="start" x="42.38" y="-37.7" font-family="Times,serif" font-weight="bold" font-size="14.00">medicare._enrollments.hmo_indicators</text>
<polygon fill="none" stroke="black" points="40.38,-7 40.38,-29.5 272.38,-29.5 272.38,-7 40.38,-7"/>
<text text-anchor="start" x="43.38" y="-13.2" font-family="Times,serif" font-size="14.00">MAX(hmo_indicators)</text>
<polygon fill="none" stroke="black" points="37.38,-4 37.38,-55 275.38,-55 275.38,-4 37.38,-4"/>
</a>
</g>
</g>
<!-- medicare._ps.hmo_indicators -->
<g id="node2" class="node">
<title>medicare._ps.hmo_indicators</title>
<g id="a_node2"><a xlink:href="../medicare._ps/hmo_indicators.html" xlink:title="&lt;TABLE&gt;" target="_blank">
<polygon fill="none" stroke="black" points="312.75,-215.5 0,-215.5 0,-96 312.75,-96 312.75,-215.5"/>
<text text-anchor="start" x="70.5" y="-194.2" font-family="Times,serif" font-weight="bold" font-size="14.00">medicare._ps.hmo_indicators</text>
<text text-anchor="start" x="56.25" y="-147.7" font-family="Times,serif" font-size="14.00">Array of indicators if the beneficiary</text>
<text text-anchor="start" x="36" y="-131.2" font-family="Times,serif" font-size="14.00">was enrolled in HMO during a given month</text>
<polygon fill="none" stroke="black" points="8,-100 8,-211.5 304.75,-211.5 304.75,-100 8,-100"/>
</a>
</g>
</g>
<!-- medicare._ps.hmo_indicators&#45;&gt;medicare._enrollments.hmo_indicators -->
<g id="edge1" class="edge">
<title>medicare._ps.hmo_indicators&#45;&gt;medicare._enrollments.hmo_indicators</title>
<path fill="none" stroke="blue" stroke-width="5" d="M156.38,-95.54C156.38,-88.73 156.38,-81.88 156.38,-75.31"/>
<polygon fill="blue" stroke="blue" stroke-width="5" points="160.75,-75.51 156.38,-65.51 152,-75.51 160.75,-75.51"/>
<text text-anchor="middle" x="270.75" y="-72.45" font-family="Times,serif" font-size="14.00">	 &#160;Aggregated On bene_id, year, state</text>
</g>
<!-- medicare.ps.hmo_indicators -->
<g id="node3" class="node">
<title>medicare.ps.hmo_indicators</title>
<g id="a_node3"><a xlink:href="../medicare.ps/hmo_indicators.html" xlink:title="&lt;TABLE&gt;" target="_blank">
<polygon fill="none" stroke="black" points="312.75,-372 0,-372 0,-252.5 312.75,-252.5 312.75,-372"/>
<text text-anchor="start" x="73.88" y="-350.7" font-family="Times,serif" font-weight="bold" font-size="14.00">medicare.ps.hmo_indicators</text>
<text text-anchor="start" x="56.25" y="-304.2" font-family="Times,serif" font-size="14.00">Array of indicators if the beneficiary</text>
<text text-anchor="start" x="36" y="-287.7" font-family="Times,serif" font-size="14.00">was enrolled in HMO during a given month</text>
<polygon fill="none" stroke="black" points="8,-256.5 8,-368 304.75,-368 304.75,-256.5 8,-256.5"/>
</a>
</g>
</g>
<!-- medicare.ps.hmo_indicators&#45;&gt;medicare._ps.hmo_indicators -->
<g id="edge2" class="edge">
<title>medicare.ps.hmo_indicators&#45;&gt;medicare._ps.hmo_indicators</title>
<path fill="none" stroke="black" d="M156.38,-252.4C156.38,-244.19 156.38,-235.69 156.38,-227.29"/>
<polygon fill="black" stroke="black" points="159.88,-227.46 156.38,-217.46 152.88,-227.46 159.88,-227.46"/>
<text text-anchor="middle" x="175.88" y="-228.95" font-family="Times,serif" font-size="14.00">Copied</text>
</g>
<!-- medicare.ps.hmo_indicators_parent -->
<g id="node4" class="node">
<title>medicare.ps.hmo_indicators_parent</title>
<g id="a_node4"><a xlink:href="../medicare.ps/hmo_indicators.html" xlink:title="96 incoming links (columns)" target="_blank">
<path fill="yellow" stroke="black" d="M264.38,-507.18C264.38,-512.6 215.97,-517 156.38,-517 96.78,-517 48.38,-512.6 48.38,-507.18 48.38,-507.18 48.38,-418.82 48.38,-418.82 48.38,-413.4 96.78,-409 156.38,-409 215.97,-409 264.38,-413.4 264.38,-418.82 264.38,-418.82 264.38,-507.18 264.38,-507.18"/>
<path fill="none" stroke="black" d="M264.38,-507.18C264.38,-501.76 215.97,-497.36 156.38,-497.36 96.78,-497.36 48.38,-501.76 48.38,-507.18"/>
<text text-anchor="middle" x="156.38" y="-457.95" font-family="Times,serif" font-size="14.00">96 incoming links (columns)</text>
</a>
</g>
</g>
<!-- medicare.ps.hmo_indicators_parent&#45;&gt;medicare.ps.hmo_indicators -->
<g id="edge3" class="edge">
<title>medicare.ps.hmo_indicators_parent&#45;&gt;medicare.ps.hmo_indicators</title>
<path fill="none" stroke="goldenrod" stroke-width="9.58" d="M156.38,-408.72C156.38,-402.57 156.38,-396.2 156.38,-389.82"/>
<polygon fill="goldenrod" stroke="goldenrod" stroke-width="9.58" points="164.76,-389.93 156.38,-379.93 147.99,-389.93 164.76,-389.93"/>
</g>
</g>
</svg>
