<?xml version="1.0" encoding="UTF-8" standalone="no"?>
<!DOCTYPE svg PUBLIC "-//W3C//DTD SVG 1.1//EN"
 "http://www.w3.org/Graphics/SVG/1.1/DTD/svg11.dtd">
<!-- Generated by graphviz version 10.0.1 (20240210.2158)
 -->
<!-- Pages: 1 -->
<svg width="293pt" height="429pt"
 viewBox="0.00 0.00 293.00 429.00" xmlns="http://www.w3.org/2000/svg" xmlns:xlink="http://www.w3.org/1999/xlink">
<g id="graph0" class="graph" transform="scale(1 1) rotate(0) translate(4 425)">
<polygon fill="white" stroke="none" points="-4,4 -4,-425 289,-425 289,4 -4,4"/>
<!-- medicare.admissions.los_day_cnt -->
<g id="node1" class="node">
<title>medicare.admissions.los_day_cnt</title>
<g id="a_node1"><a xlink:href="../medicare.admissions/los_day_cnt.html" xlink:title="&lt;TABLE&gt;" target="_blank">
<polygon fill="none" stroke="black" points="285,-119.5 0,-119.5 0,0 285,0 285,-119.5"/>
<text text-anchor="start" x="45.75" y="-98.2" font-family="Times,serif" font-weight="bold" font-size="14.00">medicare.admissions.los_day_cnt</text>
<text text-anchor="start" x="36" y="-51.7" font-family="Times,serif" font-size="14.00">The count in days of the total length of</text>
<text text-anchor="start" x="55.5" y="-35.2" font-family="Times,serif" font-size="14.00">a beneficiary&#39;s stay in a hospital</text>
<polygon fill="none" stroke="black" points="8,-4 8,-115.5 277,-115.5 277,-4 8,-4"/>
</a>
</g>
</g>
<!-- medicare.ip.los_day_cnt -->
<g id="node2" class="node">
<title>medicare.ip.los_day_cnt</title>
<g id="a_node2"><a xlink:href="../medicare.ip/los_day_cnt.html" xlink:title="&lt;TABLE&gt;" target="_blank">
<polygon fill="none" stroke="black" points="285,-276 0,-276 0,-156.5 285,-156.5 285,-276"/>
<text text-anchor="start" x="72" y="-254.7" font-family="Times,serif" font-weight="bold" font-size="14.00">medicare.ip.los_day_cnt</text>
<text text-anchor="start" x="36" y="-208.2" font-family="Times,serif" font-size="14.00">The count in days of the total length of</text>
<text text-anchor="start" x="55.5" y="-191.7" font-family="Times,serif" font-size="14.00">a beneficiary&#39;s stay in a hospital</text>
<polygon fill="none" stroke="black" points="8,-160.5 8,-272 277,-272 277,-160.5 8,-160.5"/>
</a>
</g>
</g>
<!-- medicare.ip.los_day_cnt&#45;&gt;medicare.admissions.los_day_cnt -->
<g id="edge1" class="edge">
<title>medicare.ip.los_day_cnt&#45;&gt;medicare.admissions.los_day_cnt</title>
<path fill="none" stroke="black" d="M142.5,-156.4C142.5,-148.19 142.5,-139.69 142.5,-131.29"/>
<polygon fill="black" stroke="black" points="146,-131.46 142.5,-121.46 139,-131.46 146,-131.46"/>
<text text-anchor="middle" x="162" y="-132.95" font-family="Times,serif" font-size="14.00">Copied</text>
</g>
<!-- medicare.ip.los_day_cnt_parent -->
<g id="node3" class="node">
<title>medicare.ip.los_day_cnt_parent</title>
<g id="a_node3"><a xlink:href="../medicare.ip/los_day_cnt.html" xlink:title="8 incoming links (columns)" target="_blank">
<path fill="yellow" stroke="black" d="M250.5,-411.18C250.5,-416.6 202.09,-421 142.5,-421 82.91,-421 34.5,-416.6 34.5,-411.18 34.5,-411.18 34.5,-322.82 34.5,-322.82 34.5,-317.4 82.91,-313 142.5,-313 202.09,-313 250.5,-317.4 250.5,-322.82 250.5,-322.82 250.5,-411.18 250.5,-411.18"/>
<path fill="none" stroke="black" d="M250.5,-411.18C250.5,-405.76 202.09,-401.36 142.5,-401.36 82.91,-401.36 34.5,-405.76 34.5,-411.18"/>
<text text-anchor="middle" x="142.5" y="-361.95" font-family="Times,serif" font-size="14.00">8 incoming links (columns)</text>
</a>
</g>
</g>
<!-- medicare.ip.los_day_cnt_parent&#45;&gt;medicare.ip.los_day_cnt -->
<g id="edge2" class="edge">
<title>medicare.ip.los_day_cnt_parent&#45;&gt;medicare.ip.los_day_cnt</title>
<path fill="none" stroke="goldenrod" stroke-width="6" d="M142.5,-312.72C142.5,-306.2 142.5,-299.44 142.5,-292.68"/>
<polygon fill="goldenrod" stroke="goldenrod" stroke-width="6" points="147.75,-292.92 142.5,-282.92 137.25,-292.92 147.75,-292.92"/>
</g>
</g>
</svg>
