<?xml version="1.0" encoding="UTF-8" standalone="no"?>
<!DOCTYPE svg PUBLIC "-//W3C//DTD SVG 1.1//EN"
 "http://www.w3.org/Graphics/SVG/1.1/DTD/svg11.dtd">
<!-- Generated by graphviz version 10.0.1 (20240210.2158)
 -->
<!-- Pages: 1 -->
<svg width="331pt" height="561pt"
 viewBox="0.00 0.00 331.25 561.00" xmlns="http://www.w3.org/2000/svg" xmlns:xlink="http://www.w3.org/1999/xlink">
<g id="graph0" class="graph" transform="scale(1 1) rotate(0) translate(4 557)">
<polygon fill="white" stroke="none" points="-4,4 -4,-557 327.25,-557 327.25,4 -4,4"/>
<!-- medicare.admissions.mdcr_pmt_amt -->
<g id="node1" class="node">
<title>medicare.admissions.mdcr_pmt_amt</title>
<g id="a_node1"><a xlink:href="../medicare.admissions/mdcr_pmt_amt.html" xlink:title="&lt;TABLE&gt;" target="_blank">
<polygon fill="none" stroke="black" points="323.25,-185.5 0,-185.5 0,0 323.25,0 323.25,-185.5"/>
<text text-anchor="start" x="52.88" y="-164.2" font-family="Times,serif" font-weight="bold" font-size="14.00">medicare.admissions.mdcr_pmt_amt</text>
<text text-anchor="start" x="36" y="-117.7" font-family="Times,serif" font-size="14.00">Amount of payment made from the Medicare</text>
<text text-anchor="start" x="60" y="-101.2" font-family="Times,serif" font-size="14.00">trust fund for the services covered by</text>
<text text-anchor="start" x="55.12" y="-84.7" font-family="Times,serif" font-size="14.00">the claim record. For hospital services,</text>
<text text-anchor="start" x="55.5" y="-68.2" font-family="Times,serif" font-size="14.00">this amount does not include the claim</text>
<text text-anchor="start" x="45" y="-51.7" font-family="Times,serif" font-size="14.00">pass&#45;through per diem payments &#160;made by</text>
<text text-anchor="start" x="133.88" y="-35.2" font-family="Times,serif" font-size="14.00">Medicare.</text>
<polygon fill="none" stroke="black" points="8,-4 8,-181.5 315.25,-181.5 315.25,-4 8,-4"/>
</a>
</g>
</g>
<!-- medicare.ip.mdcr_pmt_amt -->
<g id="node2" class="node">
<title>medicare.ip.mdcr_pmt_amt</title>
<g id="a_node2"><a xlink:href="../medicare.ip/mdcr_pmt_amt.html" xlink:title="&lt;TABLE&gt;" target="_blank">
<polygon fill="none" stroke="black" points="323.25,-408 0,-408 0,-222.5 323.25,-222.5 323.25,-408"/>
<text text-anchor="start" x="79.12" y="-386.7" font-family="Times,serif" font-weight="bold" font-size="14.00">medicare.ip.mdcr_pmt_amt</text>
<text text-anchor="start" x="36" y="-340.2" font-family="Times,serif" font-size="14.00">Amount of payment made from the Medicare</text>
<text text-anchor="start" x="60" y="-323.7" font-family="Times,serif" font-size="14.00">trust fund for the services covered by</text>
<text text-anchor="start" x="55.12" y="-307.2" font-family="Times,serif" font-size="14.00">the claim record. For hospital services,</text>
<text text-anchor="start" x="55.5" y="-290.7" font-family="Times,serif" font-size="14.00">this amount does not include the claim</text>
<text text-anchor="start" x="45" y="-274.2" font-family="Times,serif" font-size="14.00">pass&#45;through per diem payments &#160;made by</text>
<text text-anchor="start" x="133.88" y="-257.7" font-family="Times,serif" font-size="14.00">Medicare.</text>
<polygon fill="none" stroke="black" points="8,-226.5 8,-404 315.25,-404 315.25,-226.5 8,-226.5"/>
</a>
</g>
</g>
<!-- medicare.ip.mdcr_pmt_amt&#45;&gt;medicare.admissions.mdcr_pmt_amt -->
<g id="edge1" class="edge">
<title>medicare.ip.mdcr_pmt_amt&#45;&gt;medicare.admissions.mdcr_pmt_amt</title>
<path fill="none" stroke="black" d="M161.62,-222.02C161.62,-213.82 161.62,-205.49 161.62,-197.21"/>
<polygon fill="black" stroke="black" points="165.13,-197.48 161.63,-187.48 158.13,-197.48 165.13,-197.48"/>
<text text-anchor="middle" x="181.12" y="-198.95" font-family="Times,serif" font-size="14.00">Copied</text>
</g>
<!-- medicare.ip.mdcr_pmt_amt_parent -->
<g id="node3" class="node">
<title>medicare.ip.mdcr_pmt_amt_parent</title>
<g id="a_node3"><a xlink:href="../medicare.ip/mdcr_pmt_amt.html" xlink:title="8 incoming links (columns)" target="_blank">
<path fill="yellow" stroke="black" d="M269.62,-543.18C269.62,-548.6 221.22,-553 161.62,-553 102.03,-553 53.62,-548.6 53.62,-543.18 53.62,-543.18 53.62,-454.82 53.62,-454.82 53.62,-449.4 102.03,-445 161.62,-445 221.22,-445 269.62,-449.4 269.62,-454.82 269.62,-454.82 269.62,-543.18 269.62,-543.18"/>
<path fill="none" stroke="black" d="M269.62,-543.18C269.62,-537.76 221.22,-533.36 161.62,-533.36 102.03,-533.36 53.62,-537.76 53.62,-543.18"/>
<text text-anchor="middle" x="161.62" y="-493.95" font-family="Times,serif" font-size="14.00">8 incoming links (columns)</text>
</a>
</g>
</g>
<!-- medicare.ip.mdcr_pmt_amt_parent&#45;&gt;medicare.ip.mdcr_pmt_amt -->
<g id="edge2" class="edge">
<title>medicare.ip.mdcr_pmt_amt_parent&#45;&gt;medicare.ip.mdcr_pmt_amt</title>
<path fill="none" stroke="goldenrod" stroke-width="6" d="M161.62,-444.94C161.62,-438.46 161.62,-431.66 161.62,-424.73"/>
<polygon fill="goldenrod" stroke="goldenrod" stroke-width="6" points="166.88,-424.81 161.63,-414.81 156.38,-424.81 166.88,-424.81"/>
</g>
</g>
</svg>
