<?xml version="1.0" encoding="UTF-8" standalone="no"?>
<!DOCTYPE svg PUBLIC "-//W3C//DTD SVG 1.1//EN"
 "http://www.w3.org/Graphics/SVG/1.1/DTD/svg11.dtd">
<!-- Generated by graphviz version 10.0.1 (20240210.2158)
 -->
<!-- Pages: 1 -->
<svg width="758pt" height="163pt"
 viewBox="0.00 0.00 758.25 163.00" xmlns="http://www.w3.org/2000/svg" xmlns:xlink="http://www.w3.org/1999/xlink">
<g id="graph0" class="graph" transform="scale(1 1) rotate(0) translate(4 159)">
<polygon fill="white" stroke="none" points="-4,4 -4,-159 754.25,-159 754.25,4 -4,4"/>
<!-- medicare.beneficiaries.number_of_gap_years -->
<g id="node1" class="node">
<title>medicare.beneficiaries.number_of_gap_years</title>
<g id="a_node1"><a xlink:href="../medicare.beneficiaries/number_of_gap_years.html" xlink:title="&lt;TABLE&gt;" target="_blank">
<polygon fill="none" stroke="black" points="750.25,-59 0,-59 0,0 750.25,0 750.25,-59"/>
<text text-anchor="start" x="243.12" y="-37.7" font-family="Times,serif" font-weight="bold" font-size="14.00">medicare.beneficiaries.number_of_gap_years</text>
<polygon fill="none" stroke="black" points="11,-7 11,-29.5 739.25,-29.5 739.25,-7 11,-7"/>
<text text-anchor="start" x="14" y="-13.2" font-family="Times,serif" font-size="14.00">GENERATED ALWAYS AS (last_enrollment_year &#45; first_enrollment_year + 1 &#45; CARDINALITY(all_enrollment_years)) STORED</text>
<polygon fill="none" stroke="black" points="8,-4 8,-55 742.25,-55 742.25,-4 8,-4"/>
</a>
</g>
</g>
<!-- medicare._beneficiaries.all_enrollment_years -->
<g id="node2" class="node">
<title>medicare._beneficiaries.all_enrollment_years</title>
<g id="a_node2"><a xlink:href="../medicare._beneficiaries/all_enrollment_years.html" xlink:title="&lt;TABLE&gt;" target="_blank">
<polygon fill="none" stroke="black" points="528.62,-155 221.62,-155 221.62,-96 528.62,-96 528.62,-155"/>
<text text-anchor="start" x="243.5" y="-133.7" font-family="Times,serif" font-weight="bold" font-size="14.00">medicare._beneficiaries.all_enrollment_years</text>
<polygon fill="none" stroke="black" points="232.62,-103 232.62,-125.5 517.62,-125.5 517.62,-103 232.62,-103"/>
<text text-anchor="start" x="235.62" y="-109.2" font-family="Times,serif" font-size="14.00">ARRAY_AGG(DISTINCT year ORDER BY year)</text>
<polygon fill="none" stroke="black" points="229.62,-100 229.62,-151 520.62,-151 520.62,-100 229.62,-100"/>
</a>
</g>
</g>
<!-- medicare._beneficiaries.all_enrollment_years&#45;&gt;medicare.beneficiaries.number_of_gap_years -->
<g id="edge1" class="edge">
<title>medicare._beneficiaries.all_enrollment_years&#45;&gt;medicare.beneficiaries.number_of_gap_years</title>
<path fill="none" stroke="black" d="M375.12,-95.53C375.12,-87.68 375.12,-79.05 375.12,-70.7"/>
<polygon fill="black" stroke="black" points="378.63,-70.73 375.13,-60.73 371.63,-70.73 378.63,-70.73"/>
<text text-anchor="middle" x="413.75" y="-72.45" font-family="Times,serif" font-size="14.00"> &#160;Transformed</text>
</g>
</g>
</svg>
