<?xml version="1.0" encoding="UTF-8" standalone="no"?>
<!DOCTYPE svg PUBLIC "-//W3C//DTD SVG 1.1//EN"
 "http://www.w3.org/Graphics/SVG/1.1/DTD/svg11.dtd">
<!-- Generated by graphviz version 10.0.1 (20240210.2158)
 -->
<!-- Pages: 1 -->
<svg width="665pt" height="1533pt"
 viewBox="0.00 0.00 665.25 1533.00" xmlns="http://www.w3.org/2000/svg" xmlns:xlink="http://www.w3.org/1999/xlink">
<g id="graph0" class="graph" transform="scale(1 1) rotate(0) translate(4 1529)">
<polygon fill="white" stroke="none" points="-4,4 -4,-1529 661.25,-1529 661.25,4 -4,4"/>
<!-- medicare.qc_admissions.NumDistinctBeneficaries -->
<g id="node1" class="node">
<title>medicare.qc_admissions.NumDistinctBeneficaries</title>
<g id="a_node1"><a xlink:href="../medicare.qc_admissions/NumDistinctBeneficaries.html" xlink:title="&lt;TABLE&gt;" target="_blank">
<polygon fill="none" stroke="black" points="451.25,-59 135,-59 135,0 451.25,0 451.25,-59"/>
<text text-anchor="start" x="148" y="-37.7" font-family="Times,serif" font-weight="bold" font-size="14.00">medicare.qc_admissions.NumDistinctBeneficaries</text>
<polygon fill="none" stroke="black" points="146,-7 146,-29.5 440.25,-29.5 440.25,-7 146,-7"/>
<text text-anchor="start" x="149" y="-13.2" font-family="Times,serif" font-size="14.00">(#(hll_add_agg(bene)))::BIGINT</text>
<polygon fill="none" stroke="black" points="143,-4 143,-55 443.25,-55 443.25,-4 143,-4"/>
</a>
</g>
</g>
<!-- medicare.qc_adm_union.bene -->
<g id="node2" class="node">
<title>medicare.qc_adm_union.bene</title>
<g id="a_node2"><a xlink:href="../medicare.qc_adm_union/bene.html" xlink:title="&lt;TABLE&gt;" target="_blank">
<polygon fill="none" stroke="black" points="483,-322.5 103.25,-322.5 103.25,-96 483,-96 483,-322.5"/>
<text text-anchor="start" x="205.75" y="-301.2" font-family="Times,serif" font-weight="bold" font-size="14.00">medicare.qc_adm_union.bene</text>
<text text-anchor="start" x="139.25" y="-254.7" font-family="Times,serif" font-size="14.00">HLL hash (see https://en.wikipedia.org/w</text>
<text text-anchor="start" x="158.38" y="-238.2" font-family="Times,serif" font-size="14.00">iki/HyperLogLog). Can be used to</text>
<text text-anchor="start" x="161.75" y="-221.7" font-family="Times,serif" font-size="14.00">calculate number of beneficiaries</text>
<text text-anchor="start" x="144.5" y="-205.2" font-family="Times,serif" font-size="14.00">satisfying a certain given condition Use</text>
<text text-anchor="start" x="186.5" y="-188.7" font-family="Times,serif" font-size="14.00">#(hll_add_agg(bene)) or</text>
<text text-anchor="start" x="158" y="-172.2" font-family="Times,serif" font-size="14.00">hll_cardinality(hll_add_agg(bene))</text>
<text text-anchor="start" x="223.62" y="-155.7" font-family="Times,serif" font-size="14.00">aggregator</text>
<polygon fill="none" stroke="black" points="114.25,-103 114.25,-125.5 472,-125.5 472,-103 114.25,-103"/>
<text text-anchor="start" x="117.25" y="-109.2" font-family="Times,serif" font-size="14.00">GENERATED ALWAYS AS (hll_hash_text(bene_id)) STORED</text>
<polygon fill="none" stroke="black" points="111.25,-100 111.25,-318.5 475,-318.5 475,-100 111.25,-100"/>
</a>
</g>
</g>
<!-- medicare.qc_adm_union.bene&#45;&gt;medicare.qc_admissions.NumDistinctBeneficaries -->
<g id="edge1" class="edge">
<title>medicare.qc_adm_union.bene&#45;&gt;medicare.qc_admissions.NumDistinctBeneficaries</title>
<path fill="none" stroke="black" d="M293.12,-95.68C293.12,-86.91 293.12,-78.47 293.12,-70.74"/>
<polygon fill="black" stroke="black" points="296.63,-70.74 293.13,-60.74 289.63,-70.74 296.63,-70.74"/>
<text text-anchor="middle" x="331.75" y="-72.45" font-family="Times,serif" font-size="14.00"> &#160;Transformed</text>
</g>
<!-- medicare.admissions.bene_id -->
<g id="node3" class="node">
<title>medicare.admissions.bene_id</title>
<g id="a_node3"><a xlink:href="../medicare.admissions/bene_id.html" xlink:title="&lt;TABLE&gt;" target="_blank">
<polygon fill="none" stroke="black" points="435.25,-479 151,-479 151,-359.5 435.25,-359.5 435.25,-479"/>
<text text-anchor="start" x="208" y="-457.7" font-family="Times,serif" font-weight="bold" font-size="14.00">medicare.admissions.bene_id</text>
<text text-anchor="start" x="187" y="-411.2" font-family="Times,serif" font-size="14.00">Encrypted 723 Beneficiary ID (Unique</text>
<text text-anchor="start" x="279.62" y="-394.7" font-family="Times,serif" font-size="14.00">Key)</text>
<polygon fill="none" stroke="black" points="159,-363.5 159,-475 427.25,-475 427.25,-363.5 159,-363.5"/>
</a>
</g>
</g>
<!-- medicare.admissions.bene_id&#45;&gt;medicare.qc_adm_union.bene -->
<g id="edge2" class="edge">
<title>medicare.admissions.bene_id&#45;&gt;medicare.qc_adm_union.bene</title>
<path fill="none" stroke="black" d="M293.12,-359.2C293.12,-351.18 293.12,-342.73 293.12,-334.08"/>
<polygon fill="black" stroke="black" points="296.63,-334.13 293.13,-324.13 289.63,-334.13 296.63,-334.13"/>
<text text-anchor="middle" x="312.62" y="-335.95" font-family="Times,serif" font-size="14.00">Copied</text>
</g>
<!-- medicare.ip.bene_id -->
<g id="node4" class="node">
<title>medicare.ip.bene_id</title>
<g id="a_node4"><a xlink:href="../medicare.ip/bene_id.html" xlink:title="&lt;TABLE&gt;" target="_blank">
<polygon fill="none" stroke="black" points="284.25,-635.5 0,-635.5 0,-516 284.25,-516 284.25,-635.5"/>
<text text-anchor="start" x="83.25" y="-614.2" font-family="Times,serif" font-weight="bold" font-size="14.00">medicare.ip.bene_id</text>
<text text-anchor="start" x="36" y="-567.7" font-family="Times,serif" font-size="14.00">Encrypted 723 Beneficiary ID (Unique</text>
<text text-anchor="start" x="128.62" y="-551.2" font-family="Times,serif" font-size="14.00">Key)</text>
<polygon fill="none" stroke="black" points="8,-520 8,-631.5 276.25,-631.5 276.25,-520 8,-520"/>
</a>
</g>
</g>
<!-- medicare.ip.bene_id&#45;&gt;medicare.admissions.bene_id -->
<g id="edge3" class="edge">
<title>medicare.ip.bene_id&#45;&gt;medicare.admissions.bene_id</title>
<path fill="none" stroke="black" d="M199.64,-515.9C208.67,-506.67 218.06,-497.06 227.25,-487.65"/>
<polygon fill="black" stroke="black" points="229.72,-490.13 234.21,-480.53 224.72,-485.24 229.72,-490.13"/>
<text text-anchor="middle" x="236.62" y="-492.45" font-family="Times,serif" font-size="14.00">Copied</text>
</g>
<!-- medicare.ip.bene_id_parent -->
<g id="node5" class="node">
<title>medicare.ip.bene_id_parent</title>
<g id="a_node5"><a xlink:href="../medicare.ip/bene_id.html" xlink:title="8 incoming links (columns)" target="_blank">
<path fill="yellow" stroke="black" d="M250.12,-776.43C250.12,-781.85 201.72,-786.25 142.12,-786.25 82.53,-786.25 34.12,-781.85 34.12,-776.43 34.12,-776.43 34.12,-688.07 34.12,-688.07 34.12,-682.65 82.53,-678.25 142.12,-678.25 201.72,-678.25 250.12,-682.65 250.12,-688.07 250.12,-688.07 250.12,-776.43 250.12,-776.43"/>
<path fill="none" stroke="black" d="M250.12,-776.43C250.12,-771.01 201.72,-766.61 142.12,-766.61 82.53,-766.61 34.12,-771.01 34.12,-776.43"/>
<text text-anchor="middle" x="142.12" y="-727.2" font-family="Times,serif" font-size="14.00">8 incoming links (columns)</text>
</a>
</g>
</g>
<!-- medicare.ip.bene_id_parent&#45;&gt;medicare.ip.bene_id -->
<g id="edge4" class="edge">
<title>medicare.ip.bene_id_parent&#45;&gt;medicare.ip.bene_id</title>
<path fill="none" stroke="goldenrod" stroke-width="6" d="M142.12,-678.08C142.12,-669.68 142.12,-660.85 142.12,-652.06"/>
<polygon fill="goldenrod" stroke="goldenrod" stroke-width="6" points="147.38,-652.3 142.13,-642.3 136.88,-652.3 147.38,-652.3"/>
</g>
<!-- medicare.enrollments.bene_id -->
<g id="node6" class="node">
<title>medicare.enrollments.bene_id</title>
<g id="a_node6"><a xlink:href="../medicare.enrollments/bene_id.html" xlink:title="&lt;TABLE&gt;" target="_blank">
<polygon fill="none" stroke="black" points="586.25,-635.5 302,-635.5 302,-516 586.25,-516 586.25,-635.5"/>
<text text-anchor="start" x="356.38" y="-614.2" font-family="Times,serif" font-weight="bold" font-size="14.00">medicare.enrollments.bene_id</text>
<text text-anchor="start" x="338" y="-567.7" font-family="Times,serif" font-size="14.00">Encrypted 723 Beneficiary ID (Unique</text>
<text text-anchor="start" x="430.62" y="-551.2" font-family="Times,serif" font-size="14.00">Key)</text>
<polygon fill="none" stroke="black" points="310,-520 310,-631.5 578.25,-631.5 578.25,-520 310,-520"/>
</a>
</g>
</g>
<!-- medicare.enrollments.bene_id&#45;&gt;medicare.admissions.bene_id -->
<g id="edge5" class="edge">
<title>medicare.enrollments.bene_id&#45;&gt;medicare.admissions.bene_id</title>
<path fill="none" stroke="darkorchid" stroke-width="2" d="M386.61,-515.9C377.86,-506.95 368.76,-497.64 359.84,-488.51"/>
<polygon fill="darkorchid" stroke="darkorchid" stroke-width="2" points="362.59,-486.32 353.1,-481.61 357.59,-491.21 362.59,-486.32"/>
<text text-anchor="middle" x="387.62" y="-492.45" font-family="Times,serif" font-size="14.00">Copied</text>
</g>
<!-- medicare._enrollments.bene_id -->
<g id="node7" class="node">
<title>medicare._enrollments.bene_id</title>
<g id="a_node7"><a xlink:href="../medicare._enrollments/bene_id.html" xlink:title="&lt;TABLE&gt;" target="_blank">
<polygon fill="none" stroke="black" points="489.25,-929.5 205,-929.5 205,-810 489.25,-810 489.25,-929.5"/>
<text text-anchor="start" x="256" y="-908.2" font-family="Times,serif" font-weight="bold" font-size="14.00">medicare._enrollments.bene_id</text>
<text text-anchor="start" x="241" y="-861.7" font-family="Times,serif" font-size="14.00">Encrypted 723 Beneficiary ID (Unique</text>
<text text-anchor="start" x="333.62" y="-845.2" font-family="Times,serif" font-size="14.00">Key)</text>
<polygon fill="none" stroke="black" points="213,-814 213,-925.5 481.25,-925.5 481.25,-814 213,-814"/>
</a>
</g>
</g>
<!-- medicare._enrollments.bene_id&#45;&gt;medicare.enrollments.bene_id -->
<g id="edge6" class="edge">
<title>medicare._enrollments.bene_id&#45;&gt;medicare.enrollments.bene_id</title>
<path fill="none" stroke="black" d="M340.91,-809.83C338.99,-769.63 341.06,-716.01 359.12,-672.5 363.07,-663 368.36,-653.81 374.39,-645.12"/>
<polygon fill="black" stroke="black" points="377.17,-647.25 380.29,-637.12 371.54,-643.09 377.17,-647.25"/>
<text text-anchor="middle" x="378.62" y="-727.2" font-family="Times,serif" font-size="14.00">Copied</text>
</g>
<!-- medicare._ps.bene_id -->
<g id="node8" class="node">
<title>medicare._ps.bene_id</title>
<g id="a_node8"><a xlink:href="../medicare._ps/bene_id.html" xlink:title="&lt;TABLE&gt;" target="_blank">
<polygon fill="none" stroke="black" points="499.25,-1223.5 215,-1223.5 215,-1104 499.25,-1104 499.25,-1223.5"/>
<text text-anchor="start" x="294.12" y="-1202.2" font-family="Times,serif" font-weight="bold" font-size="14.00">medicare._ps.bene_id</text>
<text text-anchor="start" x="251" y="-1155.7" font-family="Times,serif" font-size="14.00">Encrypted 723 Beneficiary ID (Unique</text>
<text text-anchor="start" x="343.62" y="-1139.2" font-family="Times,serif" font-size="14.00">Key)</text>
<polygon fill="none" stroke="black" points="223,-1108 223,-1219.5 491.25,-1219.5 491.25,-1108 223,-1108"/>
</a>
</g>
</g>
<!-- medicare._ps.bene_id&#45;&gt;medicare._enrollments.bene_id -->
<g id="edge7" class="edge">
<title>medicare._ps.bene_id&#45;&gt;medicare._enrollments.bene_id</title>
<path fill="none" stroke="blue" stroke-width="5" d="M355.1,-1103.66C353.54,-1058.14 351.38,-994.91 349.7,-945.81"/>
<polygon fill="blue" stroke="blue" stroke-width="5" points="354.07,-945.83 349.36,-935.99 345.33,-946.13 354.07,-945.83"/>
<text text-anchor="middle" x="468.5" y="-1080.45" font-family="Times,serif" font-size="14.00">	 &#160;Aggregated On bene_id, year, state</text>
</g>
<!-- medicare._beneficiaries.bene_id -->
<g id="node12" class="node">
<title>medicare._beneficiaries.bene_id</title>
<g id="a_node12"><a xlink:href="../medicare._beneficiaries/bene_id.html" xlink:title="&lt;TABLE&gt;" target="_blank">
<polygon fill="none" stroke="black" points="657.25,-1067 373,-1067 373,-947.5 657.25,-947.5 657.25,-1067"/>
<text text-anchor="start" x="422.12" y="-1045.7" font-family="Times,serif" font-weight="bold" font-size="14.00">medicare._beneficiaries.bene_id</text>
<text text-anchor="start" x="409" y="-999.2" font-family="Times,serif" font-size="14.00">Encrypted 723 Beneficiary ID (Unique</text>
<text text-anchor="start" x="501.62" y="-982.7" font-family="Times,serif" font-size="14.00">Key)</text>
<polygon fill="none" stroke="black" points="381,-951.5 381,-1063 649.25,-1063 649.25,-951.5 381,-951.5"/>
</a>
</g>
</g>
<!-- medicare._ps.bene_id&#45;&gt;medicare._beneficiaries.bene_id -->
<g id="edge12" class="edge">
<title>medicare._ps.bene_id&#45;&gt;medicare._beneficiaries.bene_id</title>
<path fill="none" stroke="blue" stroke-width="5" d="M417.31,-1103.9C425.7,-1095.69 434.4,-1087.19 442.98,-1078.79"/>
<polygon fill="blue" stroke="blue" stroke-width="5" points="446.03,-1081.93 450.13,-1071.81 439.92,-1075.67 446.03,-1081.93"/>
<text text-anchor="middle" x="519.38" y="-1080.45" font-family="Times,serif" font-size="14.00">	 &#160;Aggregated On bene_id</text>
</g>
<!-- medicare.ps.bene_id -->
<g id="node9" class="node">
<title>medicare.ps.bene_id</title>
<g id="a_node9"><a xlink:href="../medicare.ps/bene_id.html" xlink:title="&lt;TABLE&gt;" target="_blank">
<polygon fill="none" stroke="black" points="499.25,-1380 215,-1380 215,-1260.5 499.25,-1260.5 499.25,-1380"/>
<text text-anchor="start" x="297.5" y="-1358.7" font-family="Times,serif" font-weight="bold" font-size="14.00">medicare.ps.bene_id</text>
<text text-anchor="start" x="251" y="-1312.2" font-family="Times,serif" font-size="14.00">Encrypted 723 Beneficiary ID (Unique</text>
<text text-anchor="start" x="343.62" y="-1295.7" font-family="Times,serif" font-size="14.00">Key)</text>
<polygon fill="none" stroke="black" points="223,-1264.5 223,-1376 491.25,-1376 491.25,-1264.5 223,-1264.5"/>
</a>
</g>
</g>
<!-- medicare.ps.bene_id&#45;&gt;medicare._ps.bene_id -->
<g id="edge8" class="edge">
<title>medicare.ps.bene_id&#45;&gt;medicare._ps.bene_id</title>
<path fill="none" stroke="black" d="M354.58,-1260.17C354.4,-1254.21 354.24,-1248.23 354.12,-1242.5 354.08,-1240.03 354.05,-1237.52 354.04,-1234.98"/>
<polygon fill="black" stroke="black" points="357.54,-1235.29 354.12,-1225.26 350.54,-1235.24 357.54,-1235.29"/>
<text text-anchor="middle" x="373.62" y="-1236.95" font-family="Times,serif" font-size="14.00">Copied</text>
</g>
<!-- medicare.ps.bene_id&#45;&gt;medicare._ps.bene_id -->
<g id="edge13" class="edge">
<title>medicare.ps.bene_id&#45;&gt;medicare._ps.bene_id</title>
<path fill="none" stroke="black" d="M357.12,-1260.4C357.12,-1252.19 357.12,-1243.69 357.12,-1235.29"/>
<polygon fill="black" stroke="black" points="360.63,-1235.46 357.13,-1225.46 353.63,-1235.46 360.63,-1235.46"/>
<text text-anchor="middle" x="376.62" y="-1236.95" font-family="Times,serif" font-size="14.00">Copied</text>
</g>
<!-- medicare.ps.bene_id_parent -->
<g id="node10" class="node">
<title>medicare.ps.bene_id_parent</title>
<g id="a_node10"><a xlink:href="../medicare.ps/bene_id.html" xlink:title="8 incoming links (columns)" target="_blank">
<path fill="yellow" stroke="black" d="M465.12,-1515.18C465.12,-1520.6 416.72,-1525 357.12,-1525 297.53,-1525 249.12,-1520.6 249.12,-1515.18 249.12,-1515.18 249.12,-1426.82 249.12,-1426.82 249.12,-1421.4 297.53,-1417 357.12,-1417 416.72,-1417 465.12,-1421.4 465.12,-1426.82 465.12,-1426.82 465.12,-1515.18 465.12,-1515.18"/>
<path fill="none" stroke="black" d="M465.12,-1515.18C465.12,-1509.76 416.72,-1505.36 357.12,-1505.36 297.53,-1505.36 249.12,-1509.76 249.12,-1515.18"/>
<text text-anchor="middle" x="357.12" y="-1465.95" font-family="Times,serif" font-size="14.00">8 incoming links (columns)</text>
</a>
</g>
</g>
<!-- medicare.ps.bene_id_parent&#45;&gt;medicare.ps.bene_id -->
<g id="edge9" class="edge">
<title>medicare.ps.bene_id_parent&#45;&gt;medicare.ps.bene_id</title>
<path fill="none" stroke="goldenrod" stroke-width="6" d="M350.62,-1416.72C350.47,-1410.2 350.38,-1403.44 350.38,-1396.68"/>
<polygon fill="goldenrod" stroke="goldenrod" stroke-width="6" points="355.62,-1396.96 350.45,-1386.92 345.12,-1396.88 355.62,-1396.96"/>
</g>
<!-- medicare.ps.bene_id_parent&#45;&gt;medicare.ps.bene_id -->
<g id="edge14" class="edge">
<title>medicare.ps.bene_id_parent&#45;&gt;medicare.ps.bene_id</title>
<path fill="none" stroke="goldenrod" stroke-width="6" d="M363.63,-1416.72C363.78,-1410.2 363.87,-1403.44 363.87,-1396.68"/>
<polygon fill="goldenrod" stroke="goldenrod" stroke-width="6" points="369.13,-1396.88 363.8,-1386.92 358.63,-1396.96 369.13,-1396.88"/>
</g>
<!-- medicare.beneficiaries.bene_id -->
<g id="node11" class="node">
<title>medicare.beneficiaries.bene_id</title>
<g id="a_node11"><a xlink:href="../medicare.beneficiaries/bene_id.html" xlink:title="&lt;TABLE&gt;" target="_blank">
<polygon fill="none" stroke="black" points="653.25,-792 369,-792 369,-672.5 653.25,-672.5 653.25,-792"/>
<text text-anchor="start" x="421.5" y="-770.7" font-family="Times,serif" font-weight="bold" font-size="14.00">medicare.beneficiaries.bene_id</text>
<text text-anchor="start" x="405" y="-724.2" font-family="Times,serif" font-size="14.00">Encrypted 723 Beneficiary ID (Unique</text>
<text text-anchor="start" x="497.62" y="-707.7" font-family="Times,serif" font-size="14.00">Key)</text>
<polygon fill="none" stroke="black" points="377,-676.5 377,-788 645.25,-788 645.25,-676.5 377,-676.5"/>
</a>
</g>
</g>
<!-- medicare.beneficiaries.bene_id&#45;&gt;medicare.enrollments.bene_id -->
<g id="edge10" class="edge">
<title>medicare.beneficiaries.bene_id&#45;&gt;medicare.enrollments.bene_id</title>
<path fill="none" stroke="darkorchid" stroke-width="2" d="M485.6,-672.4C482.13,-664.38 478.53,-656.08 474.97,-647.87"/>
<polygon fill="darkorchid" stroke="darkorchid" stroke-width="2" points="478.19,-646.51 471,-638.73 471.77,-649.29 478.19,-646.51"/>
<text text-anchor="middle" x="496.62" y="-648.95" font-family="Times,serif" font-size="14.00">Copied</text>
</g>
<!-- medicare._beneficiaries.bene_id&#45;&gt;medicare.beneficiaries.bene_id -->
<g id="edge11" class="edge">
<title>medicare._beneficiaries.bene_id&#45;&gt;medicare.beneficiaries.bene_id</title>
<path fill="none" stroke="black" d="M514.26,-947.01C513.64,-904.89 512.81,-848.13 512.16,-803.68"/>
<polygon fill="black" stroke="black" points="515.66,-803.83 512.01,-793.88 508.66,-803.93 515.66,-803.83"/>
<text text-anchor="middle" x="532.62" y="-864.7" font-family="Times,serif" font-size="14.00">Copied</text>
</g>
</g>
</svg>
