<?xml version="1.0" encoding="UTF-8" standalone="no"?>
<!DOCTYPE svg PUBLIC "-//W3C//DTD SVG 1.1//EN"
 "http://www.w3.org/Graphics/SVG/1.1/DTD/svg11.dtd">
<!-- Generated by graphviz version 10.0.1 (20240210.2158)
 -->
<!-- Pages: 1 -->
<svg width="314pt" height="725pt"
 viewBox="0.00 0.00 314.38 725.00" xmlns="http://www.w3.org/2000/svg" xmlns:xlink="http://www.w3.org/1999/xlink">
<g id="graph0" class="graph" transform="scale(1 1) rotate(0) translate(4 721)">
<polygon fill="white" stroke="none" points="-4,4 -4,-721 310.38,-721 310.38,4 -4,4"/>
<!-- medicare.beneficiaries.orec -->
<g id="node1" class="node">
<title>medicare.beneficiaries.orec</title>
<g id="a_node1"><a xlink:href="../medicare.beneficiaries/orec.html" xlink:title="&lt;TABLE&gt;" target="_blank">
<polygon fill="none" stroke="black" points="279.75,-127.5 0,-127.5 0,0 279.75,0 279.75,-127.5"/>
<text text-anchor="start" x="60.38" y="-106.2" font-family="Times,serif" font-weight="bold" font-size="14.00">medicare.beneficiaries.orec</text>
<text text-anchor="start" x="36" y="-59.7" font-family="Times,serif" font-size="14.00">Original Reason for Entitlement Code</text>
<polygon fill="none" stroke="black" points="11,-7 11,-29.5 268.75,-29.5 268.75,-7 11,-7"/>
<text text-anchor="start" x="14" y="-13.2" font-family="Times,serif" font-size="14.00">MAX(orec)</text>
<polygon fill="none" stroke="black" points="8,-4 8,-123.5 271.75,-123.5 271.75,-4 8,-4"/>
</a>
</g>
</g>
<!-- medicare._beneficiaries.orec -->
<g id="node2" class="node">
<title>medicare._beneficiaries.orec</title>
<g id="a_node2"><a xlink:href="../medicare._beneficiaries/orec.html" xlink:title="&lt;TABLE&gt;" target="_blank">
<polygon fill="none" stroke="black" points="279.75,-292 0,-292 0,-164.5 279.75,-164.5 279.75,-292"/>
<text text-anchor="start" x="57" y="-270.7" font-family="Times,serif" font-weight="bold" font-size="14.00">medicare._beneficiaries.orec</text>
<text text-anchor="start" x="36" y="-224.2" font-family="Times,serif" font-size="14.00">Original Reason for Entitlement Code</text>
<polygon fill="none" stroke="black" points="11,-171.5 11,-194 268.75,-194 268.75,-171.5 11,-171.5"/>
<text text-anchor="start" x="14" y="-177.7" font-family="Times,serif" font-size="14.00">MAX(orec)</text>
<polygon fill="none" stroke="black" points="8,-168.5 8,-288 271.75,-288 271.75,-168.5 8,-168.5"/>
</a>
</g>
</g>
<!-- medicare._beneficiaries.orec&#45;&gt;medicare.beneficiaries.orec -->
<g id="edge1" class="edge">
<title>medicare._beneficiaries.orec&#45;&gt;medicare.beneficiaries.orec</title>
<path fill="none" stroke="black" d="M139.88,-164.42C139.88,-156.2 139.88,-147.7 139.88,-139.3"/>
<polygon fill="black" stroke="black" points="143.38,-139.46 139.88,-129.46 136.38,-139.46 143.38,-139.46"/>
<text text-anchor="middle" x="159.38" y="-140.95" font-family="Times,serif" font-size="14.00">Copied</text>
</g>
<!-- medicare._ps.orec -->
<g id="node3" class="node">
<title>medicare._ps.orec</title>
<g id="a_node3"><a xlink:href="../medicare._ps/orec.html" xlink:title="&lt;TABLE&gt;" target="_blank">
<polygon fill="none" stroke="black" points="279.75,-432 0,-432 0,-329 279.75,-329 279.75,-432"/>
<text text-anchor="start" x="87" y="-410.7" font-family="Times,serif" font-weight="bold" font-size="14.00">medicare._ps.orec</text>
<text text-anchor="start" x="36" y="-364.2" font-family="Times,serif" font-size="14.00">Original Reason for Entitlement Code</text>
<polygon fill="none" stroke="black" points="8,-333 8,-428 271.75,-428 271.75,-333 8,-333"/>
</a>
</g>
</g>
<!-- medicare._ps.orec&#45;&gt;medicare._beneficiaries.orec -->
<g id="edge2" class="edge">
<title>medicare._ps.orec&#45;&gt;medicare._beneficiaries.orec</title>
<path fill="none" stroke="blue" stroke-width="5" d="M139.88,-328.63C139.88,-322.07 139.88,-315.23 139.88,-308.35"/>
<polygon fill="blue" stroke="blue" stroke-width="5" points="144.25,-308.56 139.88,-298.56 135.5,-308.56 144.25,-308.56"/>
<text text-anchor="middle" x="223.12" y="-305.45" font-family="Times,serif" font-size="14.00">	 &#160;Aggregated On bene_id</text>
</g>
<!-- medicare.ps.orec -->
<g id="node4" class="node">
<title>medicare.ps.orec</title>
<g id="a_node4"><a xlink:href="../medicare.ps/orec.html" xlink:title="&lt;TABLE&gt;" target="_blank">
<polygon fill="none" stroke="black" points="279.75,-572 0,-572 0,-469 279.75,-469 279.75,-572"/>
<text text-anchor="start" x="90.38" y="-550.7" font-family="Times,serif" font-weight="bold" font-size="14.00">medicare.ps.orec</text>
<text text-anchor="start" x="36" y="-504.2" font-family="Times,serif" font-size="14.00">Original Reason for Entitlement Code</text>
<polygon fill="none" stroke="black" points="8,-473 8,-568 271.75,-568 271.75,-473 8,-473"/>
</a>
</g>
</g>
<!-- medicare.ps.orec&#45;&gt;medicare._ps.orec -->
<g id="edge3" class="edge">
<title>medicare.ps.orec&#45;&gt;medicare._ps.orec</title>
<path fill="none" stroke="black" d="M139.88,-468.51C139.88,-460.38 139.88,-451.89 139.88,-443.54"/>
<polygon fill="black" stroke="black" points="143.38,-443.8 139.88,-433.8 136.38,-443.8 143.38,-443.8"/>
<text text-anchor="middle" x="159.38" y="-445.45" font-family="Times,serif" font-size="14.00">Copied</text>
</g>
<!-- medicare.ps.orec_parent -->
<g id="node5" class="node">
<title>medicare.ps.orec_parent</title>
<g id="a_node5"><a xlink:href="../medicare.ps/orec.html" xlink:title="8 incoming links (columns)" target="_blank">
<path fill="yellow" stroke="black" d="M247.88,-707.18C247.88,-712.6 199.47,-717 139.88,-717 80.28,-717 31.88,-712.6 31.88,-707.18 31.88,-707.18 31.88,-618.82 31.88,-618.82 31.88,-613.4 80.28,-609 139.88,-609 199.47,-609 247.88,-613.4 247.88,-618.82 247.88,-618.82 247.88,-707.18 247.88,-707.18"/>
<path fill="none" stroke="black" d="M247.88,-707.18C247.88,-701.76 199.47,-697.36 139.88,-697.36 80.28,-697.36 31.88,-701.76 31.88,-707.18"/>
<text text-anchor="middle" x="139.88" y="-657.95" font-family="Times,serif" font-size="14.00">8 incoming links (columns)</text>
</a>
</g>
</g>
<!-- medicare.ps.orec_parent&#45;&gt;medicare.ps.orec -->
<g id="edge4" class="edge">
<title>medicare.ps.orec_parent&#45;&gt;medicare.ps.orec</title>
<path fill="none" stroke="goldenrod" stroke-width="6" d="M139.88,-608.88C139.88,-602.24 139.88,-595.39 139.88,-588.57"/>
<polygon fill="goldenrod" stroke="goldenrod" stroke-width="6" points="145.13,-588.82 139.88,-578.82 134.63,-588.82 145.13,-588.82"/>
</g>
</g>
</svg>
