<?xml version="1.0" encoding="UTF-8" standalone="no"?>
<!DOCTYPE svg PUBLIC "-//W3C//DTD SVG 1.1//EN"
 "http://www.w3.org/Graphics/SVG/1.1/DTD/svg11.dtd">
<!-- Generated by graphviz version 10.0.1 (20240210.2158)
 -->
<!-- Pages: 1 -->
<svg width="454pt" height="1016pt"
 viewBox="0.00 0.00 453.75 1016.00" xmlns="http://www.w3.org/2000/svg" xmlns:xlink="http://www.w3.org/1999/xlink">
<g id="graph0" class="graph" transform="scale(1 1) rotate(0) translate(4 1012)">
<polygon fill="white" stroke="none" points="-4,4 -4,-1012 449.75,-1012 449.75,4 -4,4"/>
<!-- medicare.enrollments.orec -->
<g id="node1" class="node">
<title>medicare.enrollments.orec</title>
<g id="a_node1"><a xlink:href="../medicare.enrollments/orec.html" xlink:title="&lt;TABLE&gt;" target="_blank">
<polygon fill="none" stroke="black" points="297.75,-127.5 18,-127.5 18,0 297.75,0 297.75,-127.5"/>
<text text-anchor="start" x="80.25" y="-106.2" font-family="Times,serif" font-weight="bold" font-size="14.00">medicare.enrollments.orec</text>
<text text-anchor="start" x="54" y="-59.7" font-family="Times,serif" font-size="14.00">Original Reason for Entitlement Code</text>
<polygon fill="none" stroke="black" points="29,-7 29,-29.5 286.75,-29.5 286.75,-7 29,-7"/>
<text text-anchor="start" x="32" y="-13.2" font-family="Times,serif" font-size="14.00">MAX(orec)</text>
<polygon fill="none" stroke="black" points="26,-4 26,-123.5 289.75,-123.5 289.75,-4 26,-4"/>
</a>
</g>
</g>
<!-- medicare._enrollments.orec -->
<g id="node2" class="node">
<title>medicare._enrollments.orec</title>
<g id="a_node2"><a xlink:href="../medicare._enrollments/orec.html" xlink:title="&lt;TABLE&gt;" target="_blank">
<polygon fill="none" stroke="black" points="279.75,-437.5 0,-437.5 0,-310 279.75,-310 279.75,-437.5"/>
<text text-anchor="start" x="58.88" y="-416.2" font-family="Times,serif" font-weight="bold" font-size="14.00">medicare._enrollments.orec</text>
<text text-anchor="start" x="36" y="-369.7" font-family="Times,serif" font-size="14.00">Original Reason for Entitlement Code</text>
<polygon fill="none" stroke="black" points="11,-317 11,-339.5 268.75,-339.5 268.75,-317 11,-317"/>
<text text-anchor="start" x="14" y="-323.2" font-family="Times,serif" font-size="14.00">MAX(orec)</text>
<polygon fill="none" stroke="black" points="8,-314 8,-433.5 271.75,-433.5 271.75,-314 8,-314"/>
</a>
</g>
</g>
<!-- medicare._enrollments.orec&#45;&gt;medicare.enrollments.orec -->
<g id="edge1" class="edge">
<title>medicare._enrollments.orec&#45;&gt;medicare.enrollments.orec</title>
<path fill="none" stroke="black" d="M143.46,-309.87C145.82,-268.55 149,-213.31 151.88,-164.5 152.36,-156.25 152.87,-147.62 153.39,-139.03"/>
<polygon fill="black" stroke="black" points="156.86,-139.51 153.97,-129.31 149.88,-139.09 156.86,-139.51"/>
<text text-anchor="middle" x="171.38" y="-223.2" font-family="Times,serif" font-size="14.00">Copied</text>
</g>
<!-- medicare._ps.orec -->
<g id="node3" class="node">
<title>medicare._ps.orec</title>
<g id="a_node3"><a xlink:href="../medicare._ps/orec.html" xlink:title="&lt;TABLE&gt;" target="_blank">
<polygon fill="none" stroke="black" points="289.75,-723 10,-723 10,-620 289.75,-620 289.75,-723"/>
<text text-anchor="start" x="97" y="-701.7" font-family="Times,serif" font-weight="bold" font-size="14.00">medicare._ps.orec</text>
<text text-anchor="start" x="46" y="-655.2" font-family="Times,serif" font-size="14.00">Original Reason for Entitlement Code</text>
<polygon fill="none" stroke="black" points="18,-624 18,-719 281.75,-719 281.75,-624 18,-624"/>
</a>
</g>
</g>
<!-- medicare._ps.orec&#45;&gt;medicare._enrollments.orec -->
<g id="edge2" class="edge">
<title>medicare._ps.orec&#45;&gt;medicare._enrollments.orec</title>
<path fill="none" stroke="blue" stroke-width="5" d="M148.16,-619.66C146.62,-574.11 144.33,-506.56 142.55,-453.94"/>
<polygon fill="blue" stroke="blue" stroke-width="5" points="146.93,-453.86 142.22,-444.01 138.18,-454.15 146.93,-453.86"/>
<text text-anchor="middle" x="262.25" y="-596.45" font-family="Times,serif" font-size="14.00">	 &#160;Aggregated On bene_id, year, state</text>
</g>
<!-- medicare._beneficiaries.orec -->
<g id="node7" class="node">
<title>medicare._beneficiaries.orec</title>
<g id="a_node7"><a xlink:href="../medicare._beneficiaries/orec.html" xlink:title="&lt;TABLE&gt;" target="_blank">
<polygon fill="none" stroke="black" points="445.75,-583 166,-583 166,-455.5 445.75,-455.5 445.75,-583"/>
<text text-anchor="start" x="223" y="-561.7" font-family="Times,serif" font-weight="bold" font-size="14.00">medicare._beneficiaries.orec</text>
<text text-anchor="start" x="202" y="-515.2" font-family="Times,serif" font-size="14.00">Original Reason for Entitlement Code</text>
<polygon fill="none" stroke="black" points="177,-462.5 177,-485 434.75,-485 434.75,-462.5 177,-462.5"/>
<text text-anchor="start" x="180" y="-468.7" font-family="Times,serif" font-size="14.00">MAX(orec)</text>
<polygon fill="none" stroke="black" points="174,-459.5 174,-579 437.75,-579 437.75,-459.5 174,-459.5"/>
</a>
</g>
</g>
<!-- medicare._ps.orec&#45;&gt;medicare._beneficiaries.orec -->
<g id="edge7" class="edge">
<title>medicare._ps.orec&#45;&gt;medicare._beneficiaries.orec</title>
<path fill="none" stroke="blue" stroke-width="5" d="M202.69,-619.63C211.11,-611.52 219.97,-602.99 228.81,-594.47"/>
<polygon fill="blue" stroke="blue" stroke-width="5" points="231.73,-597.74 235.9,-587.65 225.66,-591.44 231.73,-597.74"/>
<text text-anchor="middle" x="305.12" y="-596.45" font-family="Times,serif" font-size="14.00">	 &#160;Aggregated On bene_id</text>
</g>
<!-- medicare.ps.orec -->
<g id="node4" class="node">
<title>medicare.ps.orec</title>
<g id="a_node4"><a xlink:href="../medicare.ps/orec.html" xlink:title="&lt;TABLE&gt;" target="_blank">
<polygon fill="none" stroke="black" points="289.75,-863 10,-863 10,-760 289.75,-760 289.75,-863"/>
<text text-anchor="start" x="100.38" y="-841.7" font-family="Times,serif" font-weight="bold" font-size="14.00">medicare.ps.orec</text>
<text text-anchor="start" x="46" y="-795.2" font-family="Times,serif" font-size="14.00">Original Reason for Entitlement Code</text>
<polygon fill="none" stroke="black" points="18,-764 18,-859 281.75,-859 281.75,-764 18,-764"/>
</a>
</g>
</g>
<!-- medicare.ps.orec&#45;&gt;medicare._ps.orec -->
<g id="edge3" class="edge">
<title>medicare.ps.orec&#45;&gt;medicare._ps.orec</title>
<path fill="none" stroke="black" d="M147.4,-759.63C147.18,-753.69 147,-747.71 146.88,-742 146.82,-739.64 146.8,-737.24 146.79,-734.81"/>
<polygon fill="black" stroke="black" points="150.29,-734.91 146.9,-724.87 143.29,-734.83 150.29,-734.91"/>
<text text-anchor="middle" x="166.38" y="-736.45" font-family="Times,serif" font-size="14.00">Copied</text>
</g>
<!-- medicare.ps.orec&#45;&gt;medicare._ps.orec -->
<g id="edge8" class="edge">
<title>medicare.ps.orec&#45;&gt;medicare._ps.orec</title>
<path fill="none" stroke="black" d="M149.88,-759.51C149.88,-751.38 149.88,-742.89 149.88,-734.54"/>
<polygon fill="black" stroke="black" points="153.38,-734.8 149.88,-724.8 146.38,-734.8 153.38,-734.8"/>
<text text-anchor="middle" x="169.38" y="-736.45" font-family="Times,serif" font-size="14.00">Copied</text>
</g>
<!-- medicare.ps.orec_parent -->
<g id="node5" class="node">
<title>medicare.ps.orec_parent</title>
<g id="a_node5"><a xlink:href="../medicare.ps/orec.html" xlink:title="8 incoming links (columns)" target="_blank">
<path fill="yellow" stroke="black" d="M257.88,-998.18C257.88,-1003.6 209.47,-1008 149.88,-1008 90.28,-1008 41.88,-1003.6 41.88,-998.18 41.88,-998.18 41.88,-909.82 41.88,-909.82 41.88,-904.4 90.28,-900 149.88,-900 209.47,-900 257.88,-904.4 257.88,-909.82 257.88,-909.82 257.88,-998.18 257.88,-998.18"/>
<path fill="none" stroke="black" d="M257.88,-998.18C257.88,-992.76 209.47,-988.36 149.88,-988.36 90.28,-988.36 41.88,-992.76 41.88,-998.18"/>
<text text-anchor="middle" x="149.88" y="-948.95" font-family="Times,serif" font-size="14.00">8 incoming links (columns)</text>
</a>
</g>
</g>
<!-- medicare.ps.orec_parent&#45;&gt;medicare.ps.orec -->
<g id="edge4" class="edge">
<title>medicare.ps.orec_parent&#45;&gt;medicare.ps.orec</title>
<path fill="none" stroke="goldenrod" stroke-width="6" d="M143.31,-899.88C143.16,-893.24 143.1,-886.39 143.13,-879.57"/>
<polygon fill="goldenrod" stroke="goldenrod" stroke-width="6" points="148.38,-879.9 143.27,-869.82 137.88,-879.75 148.38,-879.9"/>
</g>
<!-- medicare.ps.orec_parent&#45;&gt;medicare.ps.orec -->
<g id="edge9" class="edge">
<title>medicare.ps.orec_parent&#45;&gt;medicare.ps.orec</title>
<path fill="none" stroke="goldenrod" stroke-width="6" d="M156.44,-899.88C156.59,-893.24 156.65,-886.39 156.62,-879.57"/>
<polygon fill="goldenrod" stroke="goldenrod" stroke-width="6" points="161.87,-879.75 156.48,-869.82 151.37,-879.9 161.87,-879.75"/>
</g>
<!-- medicare.beneficiaries.orec -->
<g id="node6" class="node">
<title>medicare.beneficiaries.orec</title>
<g id="a_node6"><a xlink:href="../medicare.beneficiaries/orec.html" xlink:title="&lt;TABLE&gt;" target="_blank">
<polygon fill="none" stroke="black" points="441.75,-292 162,-292 162,-164.5 441.75,-164.5 441.75,-292"/>
<text text-anchor="start" x="222.38" y="-270.7" font-family="Times,serif" font-weight="bold" font-size="14.00">medicare.beneficiaries.orec</text>
<text text-anchor="start" x="198" y="-224.2" font-family="Times,serif" font-size="14.00">Original Reason for Entitlement Code</text>
<polygon fill="none" stroke="black" points="173,-171.5 173,-194 430.75,-194 430.75,-171.5 173,-171.5"/>
<text text-anchor="start" x="176" y="-177.7" font-family="Times,serif" font-size="14.00">MAX(orec)</text>
<polygon fill="none" stroke="black" points="170,-168.5 170,-288 433.75,-288 433.75,-168.5 170,-168.5"/>
</a>
</g>
</g>
<!-- medicare.beneficiaries.orec&#45;&gt;medicare.enrollments.orec -->
<g id="edge5" class="edge">
<title>medicare.beneficiaries.orec&#45;&gt;medicare.enrollments.orec</title>
<path fill="none" stroke="darkorchid" stroke-width="2" d="M246.2,-164.42C238.41,-155.63 230.36,-146.54 222.42,-137.59"/>
<polygon fill="darkorchid" stroke="darkorchid" stroke-width="2" points="225.14,-135.37 215.88,-130.21 219.9,-140.02 225.14,-135.37"/>
<text text-anchor="middle" x="249.38" y="-140.95" font-family="Times,serif" font-size="14.00">Copied</text>
</g>
<!-- medicare._beneficiaries.orec&#45;&gt;medicare.beneficiaries.orec -->
<g id="edge6" class="edge">
<title>medicare._beneficiaries.orec&#45;&gt;medicare.beneficiaries.orec</title>
<path fill="none" stroke="black" d="M305,-455.18C304.38,-410.54 303.55,-350.49 302.9,-303.52"/>
<polygon fill="black" stroke="black" points="306.41,-303.64 302.77,-293.69 299.41,-303.74 306.41,-303.64"/>
<text text-anchor="middle" x="323.38" y="-368.7" font-family="Times,serif" font-size="14.00">Copied</text>
</g>
</g>
</svg>
