<?xml version="1.0" encoding="UTF-8" standalone="no"?>
<!DOCTYPE svg PUBLIC "-//W3C//DTD SVG 1.1//EN"
 "http://www.w3.org/Graphics/SVG/1.1/DTD/svg11.dtd">
<!-- Generated by graphviz version 10.0.1 (20240210.2158)
 -->
<!-- Pages: 1 -->
<svg width="288pt" height="396pt"
 viewBox="0.00 0.00 287.75 396.00" xmlns="http://www.w3.org/2000/svg" xmlns:xlink="http://www.w3.org/1999/xlink">
<g id="graph0" class="graph" transform="scale(1 1) rotate(0) translate(4 392)">
<polygon fill="white" stroke="none" points="-4,4 -4,-392 283.75,-392 283.75,4 -4,4"/>
<!-- medicare._ps.orec -->
<g id="node1" class="node">
<title>medicare._ps.orec</title>
<g id="a_node1"><a xlink:href="../medicare._ps/orec.html" xlink:title="&lt;TABLE&gt;" target="_blank">
<polygon fill="none" stroke="black" points="279.75,-103 0,-103 0,0 279.75,0 279.75,-103"/>
<text text-anchor="start" x="87" y="-81.7" font-family="Times,serif" font-weight="bold" font-size="14.00">medicare._ps.orec</text>
<text text-anchor="start" x="36" y="-35.2" font-family="Times,serif" font-size="14.00">Original Reason for Entitlement Code</text>
<polygon fill="none" stroke="black" points="8,-4 8,-99 271.75,-99 271.75,-4 8,-4"/>
</a>
</g>
</g>
<!-- medicare.ps.orec -->
<g id="node2" class="node">
<title>medicare.ps.orec</title>
<g id="a_node2"><a xlink:href="../medicare.ps/orec.html" xlink:title="&lt;TABLE&gt;" target="_blank">
<polygon fill="none" stroke="black" points="279.75,-243 0,-243 0,-140 279.75,-140 279.75,-243"/>
<text text-anchor="start" x="90.38" y="-221.7" font-family="Times,serif" font-weight="bold" font-size="14.00">medicare.ps.orec</text>
<text text-anchor="start" x="36" y="-175.2" font-family="Times,serif" font-size="14.00">Original Reason for Entitlement Code</text>
<polygon fill="none" stroke="black" points="8,-144 8,-239 271.75,-239 271.75,-144 8,-144"/>
</a>
</g>
</g>
<!-- medicare.ps.orec&#45;&gt;medicare._ps.orec -->
<g id="edge1" class="edge">
<title>medicare.ps.orec&#45;&gt;medicare._ps.orec</title>
<path fill="none" stroke="black" d="M139.88,-139.51C139.88,-131.38 139.88,-122.89 139.88,-114.54"/>
<polygon fill="black" stroke="black" points="143.38,-114.8 139.88,-104.8 136.38,-114.8 143.38,-114.8"/>
<text text-anchor="middle" x="159.38" y="-116.45" font-family="Times,serif" font-size="14.00">Copied</text>
</g>
<!-- medicare.ps.orec_parent -->
<g id="node3" class="node">
<title>medicare.ps.orec_parent</title>
<g id="a_node3"><a xlink:href="../medicare.ps/orec.html" xlink:title="8 incoming links (columns)" target="_blank">
<path fill="yellow" stroke="black" d="M247.88,-378.18C247.88,-383.6 199.47,-388 139.88,-388 80.28,-388 31.88,-383.6 31.88,-378.18 31.88,-378.18 31.88,-289.82 31.88,-289.82 31.88,-284.4 80.28,-280 139.88,-280 199.47,-280 247.88,-284.4 247.88,-289.82 247.88,-289.82 247.88,-378.18 247.88,-378.18"/>
<path fill="none" stroke="black" d="M247.88,-378.18C247.88,-372.76 199.47,-368.36 139.88,-368.36 80.28,-368.36 31.88,-372.76 31.88,-378.18"/>
<text text-anchor="middle" x="139.88" y="-328.95" font-family="Times,serif" font-size="14.00">8 incoming links (columns)</text>
</a>
</g>
</g>
<!-- medicare.ps.orec_parent&#45;&gt;medicare.ps.orec -->
<g id="edge2" class="edge">
<title>medicare.ps.orec_parent&#45;&gt;medicare.ps.orec</title>
<path fill="none" stroke="goldenrod" stroke-width="6" d="M139.88,-279.88C139.88,-273.24 139.88,-266.39 139.88,-259.57"/>
<polygon fill="goldenrod" stroke="goldenrod" stroke-width="6" points="145.13,-259.82 139.88,-249.82 134.63,-259.82 145.13,-259.82"/>
</g>
</g>
</svg>
