<?xml version="1.0" encoding="UTF-8" standalone="no"?>
<!DOCTYPE svg PUBLIC "-//W3C//DTD SVG 1.1//EN"
 "http://www.w3.org/Graphics/SVG/1.1/DTD/svg11.dtd">
<!-- Generated by graphviz version 10.0.1 (20240210.2158)
 -->
<!-- Pages: 1 -->
<svg width="314pt" height="561pt"
 viewBox="0.00 0.00 314.38 560.50" xmlns="http://www.w3.org/2000/svg" xmlns:xlink="http://www.w3.org/1999/xlink">
<g id="graph0" class="graph" transform="scale(1 1) rotate(0) translate(4 556.5)">
<polygon fill="white" stroke="none" points="-4,4 -4,-556.5 310.38,-556.5 310.38,4 -4,4"/>
<!-- medicare._beneficiaries.orec -->
<g id="node1" class="node">
<title>medicare._beneficiaries.orec</title>
<g id="a_node1"><a xlink:href="../medicare._beneficiaries/orec.html" xlink:title="&lt;TABLE&gt;" target="_blank">
<polygon fill="none" stroke="black" points="279.75,-127.5 0,-127.5 0,0 279.75,0 279.75,-127.5"/>
<text text-anchor="start" x="57" y="-106.2" font-family="Times,serif" font-weight="bold" font-size="14.00">medicare._beneficiaries.orec</text>
<text text-anchor="start" x="36" y="-59.7" font-family="Times,serif" font-size="14.00">Original Reason for Entitlement Code</text>
<polygon fill="none" stroke="black" points="11,-7 11,-29.5 268.75,-29.5 268.75,-7 11,-7"/>
<text text-anchor="start" x="14" y="-13.2" font-family="Times,serif" font-size="14.00">MAX(orec)</text>
<polygon fill="none" stroke="black" points="8,-4 8,-123.5 271.75,-123.5 271.75,-4 8,-4"/>
</a>
</g>
</g>
<!-- medicare._ps.orec -->
<g id="node2" class="node">
<title>medicare._ps.orec</title>
<g id="a_node2"><a xlink:href="../medicare._ps/orec.html" xlink:title="&lt;TABLE&gt;" target="_blank">
<polygon fill="none" stroke="black" points="279.75,-267.5 0,-267.5 0,-164.5 279.75,-164.5 279.75,-267.5"/>
<text text-anchor="start" x="87" y="-246.2" font-family="Times,serif" font-weight="bold" font-size="14.00">medicare._ps.orec</text>
<text text-anchor="start" x="36" y="-199.7" font-family="Times,serif" font-size="14.00">Original Reason for Entitlement Code</text>
<polygon fill="none" stroke="black" points="8,-168.5 8,-263.5 271.75,-263.5 271.75,-168.5 8,-168.5"/>
</a>
</g>
</g>
<!-- medicare._ps.orec&#45;&gt;medicare._beneficiaries.orec -->
<g id="edge1" class="edge">
<title>medicare._ps.orec&#45;&gt;medicare._beneficiaries.orec</title>
<path fill="none" stroke="blue" stroke-width="5" d="M139.88,-164.13C139.88,-157.57 139.88,-150.73 139.88,-143.85"/>
<polygon fill="blue" stroke="blue" stroke-width="5" points="144.25,-144.06 139.88,-134.06 135.5,-144.06 144.25,-144.06"/>
<text text-anchor="middle" x="223.12" y="-140.95" font-family="Times,serif" font-size="14.00">	 &#160;Aggregated On bene_id</text>
</g>
<!-- medicare.ps.orec -->
<g id="node3" class="node">
<title>medicare.ps.orec</title>
<g id="a_node3"><a xlink:href="../medicare.ps/orec.html" xlink:title="&lt;TABLE&gt;" target="_blank">
<polygon fill="none" stroke="black" points="279.75,-407.5 0,-407.5 0,-304.5 279.75,-304.5 279.75,-407.5"/>
<text text-anchor="start" x="90.38" y="-386.2" font-family="Times,serif" font-weight="bold" font-size="14.00">medicare.ps.orec</text>
<text text-anchor="start" x="36" y="-339.7" font-family="Times,serif" font-size="14.00">Original Reason for Entitlement Code</text>
<polygon fill="none" stroke="black" points="8,-308.5 8,-403.5 271.75,-403.5 271.75,-308.5 8,-308.5"/>
</a>
</g>
</g>
<!-- medicare.ps.orec&#45;&gt;medicare._ps.orec -->
<g id="edge2" class="edge">
<title>medicare.ps.orec&#45;&gt;medicare._ps.orec</title>
<path fill="none" stroke="black" d="M139.88,-304.01C139.88,-295.88 139.88,-287.39 139.88,-279.04"/>
<polygon fill="black" stroke="black" points="143.38,-279.3 139.88,-269.3 136.38,-279.3 143.38,-279.3"/>
<text text-anchor="middle" x="159.38" y="-280.95" font-family="Times,serif" font-size="14.00">Copied</text>
</g>
<!-- medicare.ps.orec_parent -->
<g id="node4" class="node">
<title>medicare.ps.orec_parent</title>
<g id="a_node4"><a xlink:href="../medicare.ps/orec.html" xlink:title="8 incoming links (columns)" target="_blank">
<path fill="yellow" stroke="black" d="M247.88,-542.68C247.88,-548.1 199.47,-552.5 139.88,-552.5 80.28,-552.5 31.88,-548.1 31.88,-542.68 31.88,-542.68 31.88,-454.32 31.88,-454.32 31.88,-448.9 80.28,-444.5 139.88,-444.5 199.47,-444.5 247.88,-448.9 247.88,-454.32 247.88,-454.32 247.88,-542.68 247.88,-542.68"/>
<path fill="none" stroke="black" d="M247.88,-542.68C247.88,-537.26 199.47,-532.86 139.88,-532.86 80.28,-532.86 31.88,-537.26 31.88,-542.68"/>
<text text-anchor="middle" x="139.88" y="-493.45" font-family="Times,serif" font-size="14.00">8 incoming links (columns)</text>
</a>
</g>
</g>
<!-- medicare.ps.orec_parent&#45;&gt;medicare.ps.orec -->
<g id="edge3" class="edge">
<title>medicare.ps.orec_parent&#45;&gt;medicare.ps.orec</title>
<path fill="none" stroke="goldenrod" stroke-width="6" d="M139.88,-444.38C139.88,-437.74 139.88,-430.89 139.88,-424.07"/>
<polygon fill="goldenrod" stroke="goldenrod" stroke-width="6" points="145.13,-424.32 139.88,-414.32 134.63,-424.32 145.13,-424.32"/>
</g>
</g>
</svg>
