<?xml version="1.0" encoding="UTF-8" standalone="no"?>
<!DOCTYPE svg PUBLIC "-//W3C//DTD SVG 1.1//EN"
 "http://www.w3.org/Graphics/SVG/1.1/DTD/svg11.dtd">
<!-- Generated by graphviz version 10.0.1 (20240210.2158)
 -->
<!-- Pages: 1 -->
<svg width="1852pt" height="391pt"
 viewBox="0.00 0.00 1851.75 391.00" xmlns="http://www.w3.org/2000/svg" xmlns:xlink="http://www.w3.org/1999/xlink">
<g id="graph0" class="graph" transform="scale(1 1) rotate(0) translate(4 387)">
<polygon fill="white" stroke="none" points="-4,4 -4,-387 1847.75,-387 1847.75,4 -4,4"/>
<!-- medicare.ps.orec -->
<g id="node1" class="node">
<title>medicare.ps.orec</title>
<g id="a_node1"><a xlink:href="../medicare.ps/orec.html" xlink:title="&lt;TABLE&gt;" target="_blank">
<polygon fill="none" stroke="black" points="893.75,-103 614,-103 614,0 893.75,0 893.75,-103"/>
<text text-anchor="start" x="704.38" y="-81.7" font-family="Times,serif" font-weight="bold" font-size="14.00">medicare.ps.orec</text>
<text text-anchor="start" x="650" y="-35.2" font-family="Times,serif" font-size="14.00">Original Reason for Entitlement Code</text>
<polygon fill="none" stroke="black" points="622,-4 622,-99 885.75,-99 885.75,-4 622,-4"/>
</a>
</g>
</g>
<!-- cms.mbsf_ab_2011.OREC -->
<g id="node2" class="node">
<title>cms.mbsf_ab_2011.OREC</title>
<g id="a_node2"><a xlink:href="../cms.mbsf_ab_2011/OREC.html" xlink:title="&lt;TABLE&gt;" target="_blank">
<polygon fill="none" stroke="black" points="279.75,-383 0,-383 0,-280 279.75,-280 279.75,-383"/>
<text text-anchor="start" x="63" y="-361.7" font-family="Times,serif" font-weight="bold" font-size="14.00">cms.mbsf_ab_2011.OREC</text>
<text text-anchor="start" x="36" y="-315.2" font-family="Times,serif" font-size="14.00">Original Reason for Entitlement Code</text>
<polygon fill="none" stroke="black" points="8,-284 8,-379 271.75,-379 271.75,-284 8,-284"/>
</a>
</g>
</g>
<!-- cms.mbsf_ab_2011.OREC&#45;&gt;medicare.ps.orec -->
<g id="edge5" class="edge">
<title>cms.mbsf_ab_2011.OREC&#45;&gt;medicare.ps.orec</title>
<path fill="none" stroke="chocolate" stroke-width="2" d="M199.76,-279.54C263.5,-228.76 369.62,-153.76 475.88,-121 516.12,-108.59 560.19,-96.89 601.13,-86.79"/>
<polygon fill="chocolate" stroke="chocolate" stroke-width="2" points="601.9,-90.2 610.78,-84.43 600.24,-83.4 601.9,-90.2"/>
<text text-anchor="middle" x="438.25" y="-186.45" font-family="Times,serif" font-size="14.00">union</text>
</g>
<!-- cms.mbsf_ab_2012.OREC -->
<g id="node3" class="node">
<title>cms.mbsf_ab_2012.OREC</title>
<g id="a_node3"><a xlink:href="../cms.mbsf_ab_2012/OREC.html" xlink:title="&lt;TABLE&gt;" target="_blank">
<polygon fill="none" stroke="black" points="577.75,-383 298,-383 298,-280 577.75,-280 577.75,-383"/>
<text text-anchor="start" x="360.62" y="-361.7" font-family="Times,serif" font-weight="bold" font-size="14.00">cms.mbsf_ab_2012.OREC</text>
<text text-anchor="start" x="334" y="-315.2" font-family="Times,serif" font-size="14.00">Original Reason for Entitlement Code</text>
<polygon fill="none" stroke="black" points="306,-284 306,-379 569.75,-379 569.75,-284 306,-284"/>
</a>
</g>
</g>
<!-- cms.mbsf_ab_2012.OREC&#45;&gt;medicare.ps.orec -->
<g id="edge6" class="edge">
<title>cms.mbsf_ab_2012.OREC&#45;&gt;medicare.ps.orec</title>
<path fill="none" stroke="chocolate" stroke-width="2" d="M430.54,-279.75C427.34,-238.46 429.45,-180.58 457.88,-140 475.71,-114.54 538.17,-94.19 601.15,-79.54"/>
<polygon fill="chocolate" stroke="chocolate" stroke-width="2" points="601.81,-82.98 610.78,-77.35 600.26,-76.15 601.81,-82.98"/>
<text text-anchor="middle" x="473.25" y="-186.45" font-family="Times,serif" font-size="14.00">union</text>
</g>
<!-- cms.mbsf_ab_2013.OREC -->
<g id="node4" class="node">
<title>cms.mbsf_ab_2013.OREC</title>
<g id="a_node4"><a xlink:href="../cms.mbsf_ab_2013/OREC.html" xlink:title="&lt;TABLE&gt;" target="_blank">
<polygon fill="none" stroke="black" points="1071.75,-383 792,-383 792,-280 1071.75,-280 1071.75,-383"/>
<text text-anchor="start" x="854.62" y="-361.7" font-family="Times,serif" font-weight="bold" font-size="14.00">cms.mbsf_ab_2013.OREC</text>
<text text-anchor="start" x="828" y="-315.2" font-family="Times,serif" font-size="14.00">Original Reason for Entitlement Code</text>
<polygon fill="none" stroke="black" points="800,-284 800,-379 1063.75,-379 1063.75,-284 800,-284"/>
</a>
</g>
</g>
<!-- cms.mbsf_ab_2013.OREC&#45;&gt;medicare.ps.orec -->
<g id="edge7" class="edge">
<title>cms.mbsf_ab_2013.OREC&#45;&gt;medicare.ps.orec</title>
<path fill="none" stroke="chocolate" stroke-width="2" d="M791.57,-312.14C667.67,-294.48 503.65,-267.01 483.88,-243 454.77,-207.66 456.95,-177.02 483.88,-140 511.55,-101.94 556.15,-80.1 601.19,-67.68"/>
<polygon fill="chocolate" stroke="chocolate" stroke-width="2" points="601.83,-71.12 610.65,-65.24 600.09,-64.35 601.83,-71.12"/>
<text text-anchor="middle" x="499.25" y="-186.45" font-family="Times,serif" font-size="14.00">union</text>
</g>
<!-- cms.mbsf_abcd_2015.OREC -->
<g id="node6" class="node">
<title>cms.mbsf_abcd_2015.OREC</title>
<g id="a_node6"><a xlink:href="../cms.mbsf_abcd_2015/OREC.html" xlink:title="&lt;TABLE&gt;" target="_blank">
<polygon fill="none" stroke="black" points="773.75,-243 494,-243 494,-140 773.75,-140 773.75,-243"/>
<text text-anchor="start" x="549.88" y="-221.7" font-family="Times,serif" font-weight="bold" font-size="14.00">cms.mbsf_abcd_2015.OREC</text>
<text text-anchor="start" x="530" y="-175.2" font-family="Times,serif" font-size="14.00">Original Reason for Entitlement Code</text>
<polygon fill="none" stroke="black" points="502,-144 502,-239 765.75,-239 765.75,-144 502,-144"/>
</a>
</g>
</g>
<!-- cms.mbsf_ab_2013.OREC&#45;&gt;cms.mbsf_abcd_2015.OREC -->
<!-- cms.mbsf_abcd_2016.OREC -->
<g id="node7" class="node">
<title>cms.mbsf_abcd_2016.OREC</title>
<g id="a_node7"><a xlink:href="../cms.mbsf_abcd_2016/OREC.html" xlink:title="&lt;TABLE&gt;" target="_blank">
<polygon fill="none" stroke="black" points="1071.75,-243 792,-243 792,-140 1071.75,-140 1071.75,-243"/>
<text text-anchor="start" x="847.88" y="-221.7" font-family="Times,serif" font-weight="bold" font-size="14.00">cms.mbsf_abcd_2016.OREC</text>
<text text-anchor="start" x="828" y="-175.2" font-family="Times,serif" font-size="14.00">Original Reason for Entitlement Code</text>
<polygon fill="none" stroke="black" points="800,-144 800,-239 1063.75,-239 1063.75,-144 800,-144"/>
</a>
</g>
</g>
<!-- cms.mbsf_ab_2013.OREC&#45;&gt;cms.mbsf_abcd_2016.OREC -->
<!-- cms.mbsf_abcd_2017.OREC -->
<g id="node8" class="node">
<title>cms.mbsf_abcd_2017.OREC</title>
<g id="a_node8"><a xlink:href="../cms.mbsf_abcd_2017/OREC.html" xlink:title="&lt;TABLE&gt;" target="_blank">
<polygon fill="none" stroke="black" points="1369.75,-243 1090,-243 1090,-140 1369.75,-140 1369.75,-243"/>
<text text-anchor="start" x="1145.88" y="-221.7" font-family="Times,serif" font-weight="bold" font-size="14.00">cms.mbsf_abcd_2017.OREC</text>
<text text-anchor="start" x="1126" y="-175.2" font-family="Times,serif" font-size="14.00">Original Reason for Entitlement Code</text>
<polygon fill="none" stroke="black" points="1098,-144 1098,-239 1361.75,-239 1361.75,-144 1098,-144"/>
</a>
</g>
</g>
<!-- cms.mbsf_ab_2013.OREC&#45;&gt;cms.mbsf_abcd_2017.OREC -->
<!-- cms.mbsf_abcd_2018.OREC -->
<g id="node9" class="node">
<title>cms.mbsf_abcd_2018.OREC</title>
<g id="a_node9"><a xlink:href="../cms.mbsf_abcd_2018/OREC.html" xlink:title="&lt;TABLE&gt;" target="_blank">
<polygon fill="none" stroke="black" points="1667.75,-243 1388,-243 1388,-140 1667.75,-140 1667.75,-243"/>
<text text-anchor="start" x="1443.88" y="-221.7" font-family="Times,serif" font-weight="bold" font-size="14.00">cms.mbsf_abcd_2018.OREC</text>
<text text-anchor="start" x="1424" y="-175.2" font-family="Times,serif" font-size="14.00">Original Reason for Entitlement Code</text>
<polygon fill="none" stroke="black" points="1396,-144 1396,-239 1659.75,-239 1659.75,-144 1396,-144"/>
</a>
</g>
</g>
<!-- cms.mbsf_ab_2013.OREC&#45;&gt;cms.mbsf_abcd_2018.OREC -->
<!-- cms.mbsf_ab_2014.OREC -->
<g id="node5" class="node">
<title>cms.mbsf_ab_2014.OREC</title>
<g id="a_node5"><a xlink:href="../cms.mbsf_ab_2014/OREC.html" xlink:title="&lt;TABLE&gt;" target="_blank">
<polygon fill="none" stroke="black" points="1843.75,-383 1564,-383 1564,-280 1843.75,-280 1843.75,-383"/>
<text text-anchor="start" x="1626.62" y="-361.7" font-family="Times,serif" font-weight="bold" font-size="14.00">cms.mbsf_ab_2014.OREC</text>
<text text-anchor="start" x="1600" y="-315.2" font-family="Times,serif" font-size="14.00">Original Reason for Entitlement Code</text>
<polygon fill="none" stroke="black" points="1572,-284 1572,-379 1835.75,-379 1835.75,-284 1572,-284"/>
</a>
</g>
</g>
<!-- cms.mbsf_ab_2014.OREC&#45;&gt;medicare.ps.orec -->
<g id="edge8" class="edge">
<title>cms.mbsf_ab_2014.OREC&#45;&gt;medicare.ps.orec</title>
<path fill="none" stroke="chocolate" stroke-width="2" d="M1712.27,-279.51C1716.25,-236.05 1713.72,-175.18 1676.88,-140 1622.41,-88 1154.43,-65.27 906.54,-56.8"/>
<polygon fill="chocolate" stroke="chocolate" stroke-width="2" points="906.95,-53.31 896.84,-56.47 906.72,-60.31 906.95,-53.31"/>
<text text-anchor="middle" x="1728.25" y="-186.45" font-family="Times,serif" font-size="14.00">union</text>
</g>
<!-- cms.mbsf_abcd_2015.OREC&#45;&gt;medicare.ps.orec -->
<g id="edge9" class="edge">
<title>cms.mbsf_abcd_2015.OREC&#45;&gt;medicare.ps.orec</title>
<path fill="none" stroke="chocolate" stroke-width="2" d="M678.22,-139.51C685.77,-130.82 693.67,-121.73 701.41,-112.83"/>
<polygon fill="chocolate" stroke="chocolate" stroke-width="2" points="703.81,-115.41 707.73,-105.57 698.53,-110.82 703.81,-115.41"/>
<text text-anchor="middle" x="709.25" y="-116.45" font-family="Times,serif" font-size="14.00">union</text>
</g>
<!-- cms.mbsf_abcd_2016.OREC&#45;&gt;medicare.ps.orec -->
<g id="edge10" class="edge">
<title>cms.mbsf_abcd_2016.OREC&#45;&gt;medicare.ps.orec</title>
<path fill="none" stroke="chocolate" stroke-width="2" d="M866.1,-139.51C854.19,-130.27 841.67,-120.57 829.5,-111.13"/>
<polygon fill="chocolate" stroke="chocolate" stroke-width="2" points="831.82,-108.5 821.77,-105.14 827.53,-114.03 831.82,-108.5"/>
<text text-anchor="middle" x="858.25" y="-116.45" font-family="Times,serif" font-size="14.00">union</text>
</g>
<!-- cms.mbsf_abcd_2017.OREC&#45;&gt;medicare.ps.orec -->
<g id="edge11" class="edge">
<title>cms.mbsf_abcd_2017.OREC&#45;&gt;medicare.ps.orec</title>
<path fill="none" stroke="chocolate" stroke-width="2" d="M1089.58,-142.66C1086.65,-141.76 1083.75,-140.87 1080.88,-140 1024.27,-122.85 961.64,-105.67 906.46,-91.12"/>
<polygon fill="chocolate" stroke="chocolate" stroke-width="2" points="907.56,-87.79 897,-88.64 905.78,-94.56 907.56,-87.79"/>
<text text-anchor="middle" x="1034.25" y="-116.45" font-family="Times,serif" font-size="14.00">union</text>
</g>
<!-- cms.mbsf_abcd_2018.OREC&#45;&gt;medicare.ps.orec -->
<g id="edge12" class="edge">
<title>cms.mbsf_abcd_2018.OREC&#45;&gt;medicare.ps.orec</title>
<path fill="none" stroke="chocolate" stroke-width="2" d="M1387.71,-142.18C1384.75,-141.42 1381.8,-140.69 1378.88,-140 1220.02,-102.31 1034.35,-78.85 906.89,-65.83"/>
<polygon fill="chocolate" stroke="chocolate" stroke-width="2" points="907.28,-62.35 896.98,-64.83 906.58,-69.31 907.28,-62.35"/>
<text text-anchor="middle" x="1311.25" y="-116.45" font-family="Times,serif" font-size="14.00">union</text>
</g>
</g>
</svg>
