<?xml version="1.0" encoding="UTF-8" standalone="no"?>
<!DOCTYPE svg PUBLIC "-//W3C//DTD SVG 1.1//EN"
 "http://www.w3.org/Graphics/SVG/1.1/DTD/svg11.dtd">
<!-- Generated by graphviz version 10.0.1 (20240210.2158)
 -->
<!-- Pages: 1 -->
<svg width="470pt" height="1321pt"
 viewBox="0.00 0.00 470.38 1320.50" xmlns="http://www.w3.org/2000/svg" xmlns:xlink="http://www.w3.org/1999/xlink">
<g id="graph0" class="graph" transform="scale(1 1) rotate(0) translate(4 1316.5)">
<polygon fill="white" stroke="none" points="-4,4 -4,-1316.5 466.38,-1316.5 466.38,4 -4,4"/>
<!-- medicare.qc_enrollments.orec -->
<g id="node1" class="node">
<title>medicare.qc_enrollments.orec</title>
<g id="a_node1"><a xlink:href="../medicare.qc_enrollments/orec.html" xlink:title="&lt;TABLE&gt;" target="_blank">
<polygon fill="none" stroke="black" points="367.75,-103 88,-103 88,0 367.75,0 367.75,-103"/>
<text text-anchor="start" x="140.12" y="-81.7" font-family="Times,serif" font-weight="bold" font-size="14.00">medicare.qc_enrollments.orec</text>
<text text-anchor="start" x="124" y="-35.2" font-family="Times,serif" font-size="14.00">Original Reason for Entitlement Code</text>
<polygon fill="none" stroke="black" points="96,-4 96,-99 359.75,-99 359.75,-4 96,-4"/>
</a>
</g>
</g>
<!-- medicare.qc_enrl_bene.orec -->
<g id="node2" class="node">
<title>medicare.qc_enrl_bene.orec</title>
<g id="a_node2"><a xlink:href="../medicare.qc_enrl_bene/orec.html" xlink:title="&lt;TABLE&gt;" target="_blank">
<polygon fill="none" stroke="black" points="367.75,-267.5 88,-267.5 88,-140 367.75,-140 367.75,-267.5"/>
<text text-anchor="start" x="146.12" y="-246.2" font-family="Times,serif" font-weight="bold" font-size="14.00">medicare.qc_enrl_bene.orec</text>
<text text-anchor="start" x="124" y="-199.7" font-family="Times,serif" font-size="14.00">Original Reason for Entitlement Code</text>
<polygon fill="none" stroke="black" points="99,-147 99,-169.5 356.75,-169.5 356.75,-147 99,-147"/>
<text text-anchor="start" x="102" y="-153.2" font-family="Times,serif" font-size="14.00">MAX(orec)</text>
<polygon fill="none" stroke="black" points="96,-144 96,-263.5 359.75,-263.5 359.75,-144 96,-144"/>
</a>
</g>
</g>
<!-- medicare.qc_enrl_bene.orec&#45;&gt;medicare.qc_enrollments.orec -->
<g id="edge1" class="edge">
<title>medicare.qc_enrl_bene.orec&#45;&gt;medicare.qc_enrollments.orec</title>
<path fill="none" stroke="black" d="M227.88,-139.9C227.88,-131.5 227.88,-122.88 227.88,-114.5"/>
<polygon fill="black" stroke="black" points="231.38,-114.75 227.88,-104.75 224.38,-114.75 231.38,-114.75"/>
<text text-anchor="middle" x="266.5" y="-116.45" font-family="Times,serif" font-size="14.00"> &#160;Transformed</text>
</g>
<!-- medicare.enrollments.orec -->
<g id="node3" class="node">
<title>medicare.enrollments.orec</title>
<g id="a_node3"><a xlink:href="../medicare.enrollments/orec.html" xlink:title="&lt;TABLE&gt;" target="_blank">
<polygon fill="none" stroke="black" points="279.75,-432 0,-432 0,-304.5 279.75,-304.5 279.75,-432"/>
<text text-anchor="start" x="62.25" y="-410.7" font-family="Times,serif" font-weight="bold" font-size="14.00">medicare.enrollments.orec</text>
<text text-anchor="start" x="36" y="-364.2" font-family="Times,serif" font-size="14.00">Original Reason for Entitlement Code</text>
<polygon fill="none" stroke="black" points="11,-311.5 11,-334 268.75,-334 268.75,-311.5 11,-311.5"/>
<text text-anchor="start" x="14" y="-317.7" font-family="Times,serif" font-size="14.00">MAX(orec)</text>
<polygon fill="none" stroke="black" points="8,-308.5 8,-428 271.75,-428 271.75,-308.5 8,-308.5"/>
</a>
</g>
</g>
<!-- medicare.enrollments.orec&#45;&gt;medicare.qc_enrl_bene.orec -->
<g id="edge2" class="edge">
<title>medicare.enrollments.orec&#45;&gt;medicare.qc_enrl_bene.orec</title>
<path fill="none" stroke="black" d="M173.9,-304.42C178.61,-295.73 183.48,-286.74 188.28,-277.87"/>
<polygon fill="black" stroke="black" points="191.25,-279.74 192.93,-269.28 185.09,-276.4 191.25,-279.74"/>
<text text-anchor="middle" x="230" y="-280.95" font-family="Times,serif" font-size="14.00">	join natural</text>
</g>
<!-- medicare._enrollments.orec -->
<g id="node4" class="node">
<title>medicare._enrollments.orec</title>
<g id="a_node4"><a xlink:href="../medicare._enrollments/orec.html" xlink:title="&lt;TABLE&gt;" target="_blank">
<polygon fill="none" stroke="black" points="279.75,-742 0,-742 0,-614.5 279.75,-614.5 279.75,-742"/>
<text text-anchor="start" x="58.88" y="-720.7" font-family="Times,serif" font-weight="bold" font-size="14.00">medicare._enrollments.orec</text>
<text text-anchor="start" x="36" y="-674.2" font-family="Times,serif" font-size="14.00">Original Reason for Entitlement Code</text>
<polygon fill="none" stroke="black" points="11,-621.5 11,-644 268.75,-644 268.75,-621.5 11,-621.5"/>
<text text-anchor="start" x="14" y="-627.7" font-family="Times,serif" font-size="14.00">MAX(orec)</text>
<polygon fill="none" stroke="black" points="8,-618.5 8,-738 271.75,-738 271.75,-618.5 8,-618.5"/>
</a>
</g>
</g>
<!-- medicare._enrollments.orec&#45;&gt;medicare.enrollments.orec -->
<g id="edge3" class="edge">
<title>medicare._enrollments.orec&#45;&gt;medicare.enrollments.orec</title>
<path fill="none" stroke="black" d="M139.88,-614.18C139.88,-564.66 139.88,-495.6 139.88,-443.43"/>
<polygon fill="black" stroke="black" points="143.38,-443.75 139.88,-433.75 136.38,-443.75 143.38,-443.75"/>
<text text-anchor="middle" x="159.38" y="-527.7" font-family="Times,serif" font-size="14.00">Copied</text>
</g>
<!-- medicare._ps.orec -->
<g id="node5" class="node">
<title>medicare._ps.orec</title>
<g id="a_node5"><a xlink:href="../medicare._ps/orec.html" xlink:title="&lt;TABLE&gt;" target="_blank">
<polygon fill="none" stroke="black" points="423.75,-1027.5 144,-1027.5 144,-924.5 423.75,-924.5 423.75,-1027.5"/>
<text text-anchor="start" x="231" y="-1006.2" font-family="Times,serif" font-weight="bold" font-size="14.00">medicare._ps.orec</text>
<text text-anchor="start" x="180" y="-959.7" font-family="Times,serif" font-size="14.00">Original Reason for Entitlement Code</text>
<polygon fill="none" stroke="black" points="152,-928.5 152,-1023.5 415.75,-1023.5 415.75,-928.5 152,-928.5"/>
</a>
</g>
</g>
<!-- medicare._ps.orec&#45;&gt;medicare._enrollments.orec -->
<g id="edge4" class="edge">
<title>medicare._ps.orec&#45;&gt;medicare._enrollments.orec</title>
<path fill="none" stroke="blue" stroke-width="5" d="M190.59,-924.11C178.14,-913.56 166.91,-901.36 158.88,-887.5 136.49,-848.91 131.22,-799.38 131.79,-758.31"/>
<polygon fill="blue" stroke="blue" stroke-width="5" points="136.16,-758.53 132.11,-748.4 127.41,-758.25 136.16,-758.53"/>
<text text-anchor="middle" x="287.25" y="-900.95" font-family="Times,serif" font-size="14.00">	 &#160;Aggregated On bene_id, year, state</text>
</g>
<!-- medicare._beneficiaries.orec -->
<g id="node9" class="node">
<title>medicare._beneficiaries.orec</title>
<g id="a_node9"><a xlink:href="../medicare._beneficiaries/orec.html" xlink:title="&lt;TABLE&gt;" target="_blank">
<polygon fill="none" stroke="black" points="447.75,-887.5 168,-887.5 168,-760 447.75,-760 447.75,-887.5"/>
<text text-anchor="start" x="225" y="-866.2" font-family="Times,serif" font-weight="bold" font-size="14.00">medicare._beneficiaries.orec</text>
<text text-anchor="start" x="204" y="-819.7" font-family="Times,serif" font-size="14.00">Original Reason for Entitlement Code</text>
<polygon fill="none" stroke="black" points="179,-767 179,-789.5 436.75,-789.5 436.75,-767 179,-767"/>
<text text-anchor="start" x="182" y="-773.2" font-family="Times,serif" font-size="14.00">MAX(orec)</text>
<polygon fill="none" stroke="black" points="176,-764 176,-883.5 439.75,-883.5 439.75,-764 176,-764"/>
</a>
</g>
</g>
<!-- medicare._ps.orec&#45;&gt;medicare._beneficiaries.orec -->
<g id="edge9" class="edge">
<title>medicare._ps.orec&#45;&gt;medicare._beneficiaries.orec</title>
<path fill="none" stroke="blue" stroke-width="5" d="M290.14,-924.09C291.01,-917.82 291.93,-911.51 292.88,-905.5 292.97,-904.87 293.08,-904.23 293.18,-903.6"/>
<polygon fill="blue" stroke="blue" stroke-width="5" points="297.47,-904.47 294.8,-893.88 288.84,-903.02 297.47,-904.47"/>
<text text-anchor="middle" x="376.12" y="-900.95" font-family="Times,serif" font-size="14.00">	 &#160;Aggregated On bene_id</text>
</g>
<!-- medicare._ps.orec&#45;&gt;medicare._beneficiaries.orec -->
<g id="edge14" class="edge">
<title>medicare._ps.orec&#45;&gt;medicare._beneficiaries.orec</title>
<path fill="none" stroke="blue" stroke-width="5" d="M292,-924.13C293.05,-917.57 294.14,-910.73 295.24,-903.85"/>
<polygon fill="blue" stroke="blue" stroke-width="5" points="299.56,-904.55 296.82,-893.98 290.92,-903.17 299.56,-904.55"/>
<text text-anchor="middle" x="379.12" y="-900.95" font-family="Times,serif" font-size="14.00">	 &#160;Aggregated On bene_id</text>
</g>
<!-- medicare.ps.orec -->
<g id="node6" class="node">
<title>medicare.ps.orec</title>
<g id="a_node6"><a xlink:href="../medicare.ps/orec.html" xlink:title="&lt;TABLE&gt;" target="_blank">
<polygon fill="none" stroke="black" points="423.75,-1167.5 144,-1167.5 144,-1064.5 423.75,-1064.5 423.75,-1167.5"/>
<text text-anchor="start" x="234.38" y="-1146.2" font-family="Times,serif" font-weight="bold" font-size="14.00">medicare.ps.orec</text>
<text text-anchor="start" x="180" y="-1099.7" font-family="Times,serif" font-size="14.00">Original Reason for Entitlement Code</text>
<polygon fill="none" stroke="black" points="152,-1068.5 152,-1163.5 415.75,-1163.5 415.75,-1068.5 152,-1068.5"/>
</a>
</g>
</g>
<!-- medicare.ps.orec&#45;&gt;medicare._ps.orec -->
<g id="edge5" class="edge">
<title>medicare.ps.orec&#45;&gt;medicare._ps.orec</title>
<path fill="none" stroke="black" d="M271.5,-1064.33C270.42,-1058.35 269.5,-1052.31 268.88,-1046.5 268.61,-1044.01 268.47,-1041.47 268.46,-1038.92"/>
<polygon fill="black" stroke="black" points="271.94,-1039.35 268.99,-1029.17 264.95,-1038.97 271.94,-1039.35"/>
<text text-anchor="middle" x="288.38" y="-1040.95" font-family="Times,serif" font-size="14.00">Copied</text>
</g>
<!-- medicare.ps.orec&#45;&gt;medicare._ps.orec -->
<g id="edge10" class="edge">
<title>medicare.ps.orec&#45;&gt;medicare._ps.orec</title>
<path fill="none" stroke="black" d="M283.88,-1064.01C283.88,-1055.88 283.88,-1047.39 283.88,-1039.04"/>
<polygon fill="black" stroke="black" points="287.38,-1039.3 283.88,-1029.3 280.38,-1039.3 287.38,-1039.3"/>
<text text-anchor="middle" x="303.38" y="-1040.95" font-family="Times,serif" font-size="14.00">Copied</text>
</g>
<!-- medicare.ps.orec&#45;&gt;medicare._ps.orec -->
<g id="edge15" class="edge">
<title>medicare.ps.orec&#45;&gt;medicare._ps.orec</title>
<path fill="none" stroke="black" d="M285.85,-1064.14C285.94,-1057.86 285.96,-1051.53 285.88,-1045.5 285.85,-1043.45 285.81,-1041.36 285.77,-1039.25"/>
<polygon fill="black" stroke="black" points="289.27,-1039.31 285.56,-1029.38 282.27,-1039.46 289.27,-1039.31"/>
<text text-anchor="middle" x="305.38" y="-1040.95" font-family="Times,serif" font-size="14.00">Copied</text>
</g>
<!-- medicare.ps.orec_parent -->
<g id="node7" class="node">
<title>medicare.ps.orec_parent</title>
<g id="a_node7"><a xlink:href="../medicare.ps/orec.html" xlink:title="8 incoming links (columns)" target="_blank">
<path fill="yellow" stroke="black" d="M391.88,-1302.68C391.88,-1308.1 343.47,-1312.5 283.88,-1312.5 224.28,-1312.5 175.88,-1308.1 175.88,-1302.68 175.88,-1302.68 175.88,-1214.32 175.88,-1214.32 175.88,-1208.9 224.28,-1204.5 283.88,-1204.5 343.47,-1204.5 391.88,-1208.9 391.88,-1214.32 391.88,-1214.32 391.88,-1302.68 391.88,-1302.68"/>
<path fill="none" stroke="black" d="M391.88,-1302.68C391.88,-1297.26 343.47,-1292.86 283.88,-1292.86 224.28,-1292.86 175.88,-1297.26 175.88,-1302.68"/>
<text text-anchor="middle" x="283.88" y="-1253.45" font-family="Times,serif" font-size="14.00">8 incoming links (columns)</text>
</a>
</g>
</g>
<!-- medicare.ps.orec_parent&#45;&gt;medicare.ps.orec -->
<g id="edge6" class="edge">
<title>medicare.ps.orec_parent&#45;&gt;medicare.ps.orec</title>
<path fill="none" stroke="goldenrod" stroke-width="6" d="M270.74,-1204.38C270.45,-1197.74 270.33,-1190.89 270.39,-1184.07"/>
<polygon fill="goldenrod" stroke="goldenrod" stroke-width="6" points="275.63,-1184.46 270.66,-1174.32 265.13,-1184.17 275.63,-1184.46"/>
</g>
<!-- medicare.ps.orec_parent&#45;&gt;medicare.ps.orec -->
<g id="edge11" class="edge">
<title>medicare.ps.orec_parent&#45;&gt;medicare.ps.orec</title>
<path fill="none" stroke="goldenrod" stroke-width="6" d="M283.88,-1204.38C283.88,-1197.74 283.88,-1190.89 283.88,-1184.07"/>
<polygon fill="goldenrod" stroke="goldenrod" stroke-width="6" points="289.13,-1184.32 283.88,-1174.32 278.63,-1184.32 289.13,-1184.32"/>
</g>
<!-- medicare.ps.orec_parent&#45;&gt;medicare.ps.orec -->
<g id="edge16" class="edge">
<title>medicare.ps.orec_parent&#45;&gt;medicare.ps.orec</title>
<path fill="none" stroke="goldenrod" stroke-width="6" d="M297.01,-1204.38C297.3,-1197.74 297.42,-1190.89 297.36,-1184.07"/>
<polygon fill="goldenrod" stroke="goldenrod" stroke-width="6" points="302.62,-1184.17 297.09,-1174.32 292.12,-1184.46 302.62,-1184.17"/>
</g>
<!-- medicare.beneficiaries.orec -->
<g id="node8" class="node">
<title>medicare.beneficiaries.orec</title>
<g id="a_node8"><a xlink:href="../medicare.beneficiaries/orec.html" xlink:title="&lt;TABLE&gt;" target="_blank">
<polygon fill="none" stroke="black" points="450.75,-596.5 171,-596.5 171,-469 450.75,-469 450.75,-596.5"/>
<text text-anchor="start" x="231.38" y="-575.2" font-family="Times,serif" font-weight="bold" font-size="14.00">medicare.beneficiaries.orec</text>
<text text-anchor="start" x="207" y="-528.7" font-family="Times,serif" font-size="14.00">Original Reason for Entitlement Code</text>
<polygon fill="none" stroke="black" points="182,-476 182,-498.5 439.75,-498.5 439.75,-476 182,-476"/>
<text text-anchor="start" x="185" y="-482.2" font-family="Times,serif" font-size="14.00">MAX(orec)</text>
<polygon fill="none" stroke="black" points="179,-473 179,-592.5 442.75,-592.5 442.75,-473 179,-473"/>
</a>
</g>
</g>
<!-- medicare.beneficiaries.orec&#45;&gt;medicare.qc_enrl_bene.orec -->
<g id="edge12" class="edge">
<title>medicare.beneficiaries.orec&#45;&gt;medicare.qc_enrl_bene.orec</title>
<path fill="none" stroke="black" d="M312.3,-468.94C311.57,-422.41 306.79,-358.07 288.88,-304.5 285.89,-295.58 281.99,-286.61 277.59,-277.92"/>
<polygon fill="black" stroke="black" points="280.74,-276.37 272.95,-269.19 274.56,-279.66 280.74,-276.37"/>
<text text-anchor="middle" x="358" y="-363.2" font-family="Times,serif" font-size="14.00">	join natural</text>
</g>
<!-- medicare.beneficiaries.orec&#45;&gt;medicare.enrollments.orec -->
<g id="edge7" class="edge">
<title>medicare.beneficiaries.orec&#45;&gt;medicare.enrollments.orec</title>
<path fill="none" stroke="darkorchid" stroke-width="2" d="M244.76,-468.92C235.22,-459.85 225.33,-450.46 215.62,-441.23"/>
<polygon fill="darkorchid" stroke="darkorchid" stroke-width="2" points="218.23,-438.88 208.57,-434.53 213.41,-443.96 218.23,-438.88"/>
<text text-anchor="middle" x="245.38" y="-445.45" font-family="Times,serif" font-size="14.00">Copied</text>
</g>
<!-- medicare._beneficiaries.orec&#45;&gt;medicare.beneficiaries.orec -->
<g id="edge8" class="edge">
<title>medicare._beneficiaries.orec&#45;&gt;medicare.beneficiaries.orec</title>
<path fill="none" stroke="black" d="M308.53,-759.68C308.99,-715.04 309.62,-654.99 310.1,-608.02"/>
<polygon fill="black" stroke="black" points="313.6,-608.23 310.21,-598.19 306.6,-608.16 313.6,-608.23"/>
<text text-anchor="middle" x="330.38" y="-673.2" font-family="Times,serif" font-size="14.00">Copied</text>
</g>
<!-- medicare._beneficiaries.orec&#45;&gt;medicare.beneficiaries.orec -->
<g id="edge13" class="edge">
<title>medicare._beneficiaries.orec&#45;&gt;medicare.beneficiaries.orec</title>
<path fill="none" stroke="black" d="M308.53,-759.68C308.99,-715.04 309.62,-654.99 310.1,-608.02"/>
<polygon fill="black" stroke="black" points="313.6,-608.23 310.21,-598.19 306.6,-608.16 313.6,-608.23"/>
<text text-anchor="middle" x="330.38" y="-673.2" font-family="Times,serif" font-size="14.00">Copied</text>
</g>
</g>
</svg>
