<?xml version="1.0" encoding="UTF-8" standalone="no"?>
<!DOCTYPE svg PUBLIC "-//W3C//DTD SVG 1.1//EN"
 "http://www.w3.org/Graphics/SVG/1.1/DTD/svg11.dtd">
<!-- Generated by graphviz version 10.0.1 (20240210.2158)
 -->
<!-- Pages: 1 -->
<svg width="307pt" height="462pt"
 viewBox="0.00 0.00 306.50 462.00" xmlns="http://www.w3.org/2000/svg" xmlns:xlink="http://www.w3.org/1999/xlink">
<g id="graph0" class="graph" transform="scale(1 1) rotate(0) translate(4 458)">
<polygon fill="white" stroke="none" points="-4,4 -4,-458 302.5,-458 302.5,4 -4,4"/>
<!-- medicare.admissions.pass_thru_amt -->
<g id="node1" class="node">
<title>medicare.admissions.pass_thru_amt</title>
<g id="a_node1"><a xlink:href="../medicare.admissions/pass_thru_amt.html" xlink:title="&lt;TABLE&gt;" target="_blank">
<polygon fill="none" stroke="black" points="298.5,-136 0,-136 0,0 298.5,0 298.5,-136"/>
<text text-anchor="start" x="43.12" y="-114.7" font-family="Times,serif" font-weight="bold" font-size="14.00">medicare.admissions.pass_thru_amt</text>
<text text-anchor="start" x="44.62" y="-68.2" font-family="Times,serif" font-size="14.00">The total of all claim pass through per</text>
<text text-anchor="start" x="36" y="-51.7" font-family="Times,serif" font-size="14.00">diem amounts (rounded to whole dollars)</text>
<text text-anchor="start" x="117" y="-35.2" font-family="Times,serif" font-size="14.00">for the stay.</text>
<polygon fill="none" stroke="black" points="8,-4 8,-132 290.5,-132 290.5,-4 8,-4"/>
</a>
</g>
</g>
<!-- medicare.ip.pass_thru_amt -->
<g id="node2" class="node">
<title>medicare.ip.pass_thru_amt</title>
<g id="a_node2"><a xlink:href="../medicare.ip/pass_thru_amt.html" xlink:title="&lt;TABLE&gt;" target="_blank">
<polygon fill="none" stroke="black" points="298.5,-309 0,-309 0,-173 298.5,-173 298.5,-309"/>
<text text-anchor="start" x="69.38" y="-287.7" font-family="Times,serif" font-weight="bold" font-size="14.00">medicare.ip.pass_thru_amt</text>
<text text-anchor="start" x="44.62" y="-241.2" font-family="Times,serif" font-size="14.00">The total of all claim pass through per</text>
<text text-anchor="start" x="36" y="-224.7" font-family="Times,serif" font-size="14.00">diem amounts (rounded to whole dollars)</text>
<text text-anchor="start" x="117" y="-208.2" font-family="Times,serif" font-size="14.00">for the stay.</text>
<polygon fill="none" stroke="black" points="8,-177 8,-305 290.5,-305 290.5,-177 8,-177"/>
</a>
</g>
</g>
<!-- medicare.ip.pass_thru_amt&#45;&gt;medicare.admissions.pass_thru_amt -->
<g id="edge1" class="edge">
<title>medicare.ip.pass_thru_amt&#45;&gt;medicare.admissions.pass_thru_amt</title>
<path fill="none" stroke="black" d="M149.25,-172.91C149.25,-164.67 149.25,-156.2 149.25,-147.81"/>
<polygon fill="black" stroke="black" points="152.75,-147.97 149.25,-137.97 145.75,-147.97 152.75,-147.97"/>
<text text-anchor="middle" x="168.75" y="-149.45" font-family="Times,serif" font-size="14.00">Copied</text>
</g>
<!-- medicare.ip.pass_thru_amt_parent -->
<g id="node3" class="node">
<title>medicare.ip.pass_thru_amt_parent</title>
<g id="a_node3"><a xlink:href="../medicare.ip/pass_thru_amt.html" xlink:title="8 incoming links (columns)" target="_blank">
<path fill="yellow" stroke="black" d="M257.25,-444.18C257.25,-449.6 208.84,-454 149.25,-454 89.66,-454 41.25,-449.6 41.25,-444.18 41.25,-444.18 41.25,-355.82 41.25,-355.82 41.25,-350.4 89.66,-346 149.25,-346 208.84,-346 257.25,-350.4 257.25,-355.82 257.25,-355.82 257.25,-444.18 257.25,-444.18"/>
<path fill="none" stroke="black" d="M257.25,-444.18C257.25,-438.76 208.84,-434.36 149.25,-434.36 89.66,-434.36 41.25,-438.76 41.25,-444.18"/>
<text text-anchor="middle" x="149.25" y="-394.95" font-family="Times,serif" font-size="14.00">8 incoming links (columns)</text>
</a>
</g>
</g>
<!-- medicare.ip.pass_thru_amt_parent&#45;&gt;medicare.ip.pass_thru_amt -->
<g id="edge2" class="edge">
<title>medicare.ip.pass_thru_amt_parent&#45;&gt;medicare.ip.pass_thru_amt</title>
<path fill="none" stroke="goldenrod" stroke-width="6" d="M149.25,-345.85C149.25,-339.33 149.25,-332.56 149.25,-325.73"/>
<polygon fill="goldenrod" stroke="goldenrod" stroke-width="6" points="154.5,-325.75 149.25,-315.75 144,-325.75 154.5,-325.75"/>
</g>
</g>
</svg>
