<?xml version="1.0" encoding="UTF-8" standalone="no"?>
<!DOCTYPE svg PUBLIC "-//W3C//DTD SVG 1.1//EN"
 "http://www.w3.org/Graphics/SVG/1.1/DTD/svg11.dtd">
<!-- Generated by graphviz version 10.0.1 (20240210.2158)
 -->
<!-- Pages: 1 -->
<svg width="1756pt" height="457pt"
 viewBox="0.00 0.00 1756.00 457.00" xmlns="http://www.w3.org/2000/svg" xmlns:xlink="http://www.w3.org/1999/xlink">
<g id="graph0" class="graph" transform="scale(1 1) rotate(0) translate(4 453)">
<polygon fill="white" stroke="none" points="-4,4 -4,-453 1752,-453 1752,4 -4,4"/>
<!-- medicare.ip.pass_thru_amt -->
<g id="node1" class="node">
<title>medicare.ip.pass_thru_amt</title>
<g id="a_node1"><a xlink:href="../medicare.ip/pass_thru_amt.html" xlink:title="&lt;TABLE&gt;" target="_blank">
<polygon fill="none" stroke="black" points="962.25,-136 663.75,-136 663.75,0 962.25,0 962.25,-136"/>
<text text-anchor="start" x="733.12" y="-114.7" font-family="Times,serif" font-weight="bold" font-size="14.00">medicare.ip.pass_thru_amt</text>
<text text-anchor="start" x="708.38" y="-68.2" font-family="Times,serif" font-size="14.00">The total of all claim pass through per</text>
<text text-anchor="start" x="699.75" y="-51.7" font-family="Times,serif" font-size="14.00">diem amounts (rounded to whole dollars)</text>
<text text-anchor="start" x="780.75" y="-35.2" font-family="Times,serif" font-size="14.00">for the stay.</text>
<polygon fill="none" stroke="black" points="671.75,-4 671.75,-132 954.25,-132 954.25,-4 671.75,-4"/>
</a>
</g>
</g>
<!-- cms.medpar_2011.PASSTHRU -->
<g id="node2" class="node">
<title>cms.medpar_2011.PASSTHRU</title>
<g id="a_node2"><a xlink:href="../cms.medpar_2011/PASSTHRU.html" xlink:title="&lt;TABLE&gt;" target="_blank">
<polygon fill="none" stroke="black" points="264,-449 0,-449 0,-329.5 264,-329.5 264,-449"/>
<text text-anchor="start" x="41.25" y="-427.7" font-family="Times,serif" font-weight="bold" font-size="14.00">cms.medpar_2011.PASSTHRU</text>
<text text-anchor="start" x="36" y="-381.2" font-family="Times,serif" font-size="14.00">Total of all claim pass thru for stay</text>
<text text-anchor="start" x="124.12" y="-364.7" font-family="Times,serif" font-size="14.00">($)</text>
<polygon fill="none" stroke="black" points="8,-333.5 8,-445 256,-445 256,-333.5 8,-333.5"/>
</a>
</g>
</g>
<!-- cms.medpar_2011.PASSTHRU&#45;&gt;medicare.ip.pass_thru_amt -->
<g id="edge5" class="edge">
<title>cms.medpar_2011.PASSTHRU&#45;&gt;medicare.ip.pass_thru_amt</title>
<path fill="none" stroke="chocolate" stroke-width="2" d="M192.18,-329.23C243.06,-281.9 319.67,-216.42 396,-173 473.72,-128.79 570.06,-103.18 650.55,-88.45"/>
<polygon fill="chocolate" stroke="chocolate" stroke-width="2" points="651.11,-91.9 660.34,-86.7 649.89,-85.01 651.11,-91.9"/>
<text text-anchor="middle" x="411.38" y="-227.7" font-family="Times,serif" font-size="14.00">union</text>
</g>
<!-- cms.medpar_2012.PASSTHRU -->
<g id="node3" class="node">
<title>cms.medpar_2012.PASSTHRU</title>
<g id="a_node3"><a xlink:href="../cms.medpar_2012/PASSTHRU.html" xlink:title="&lt;TABLE&gt;" target="_blank">
<polygon fill="none" stroke="black" points="546,-449 282,-449 282,-329.5 546,-329.5 546,-449"/>
<text text-anchor="start" x="322.88" y="-427.7" font-family="Times,serif" font-weight="bold" font-size="14.00">cms.medpar_2012.PASSTHRU</text>
<text text-anchor="start" x="318" y="-381.2" font-family="Times,serif" font-size="14.00">Total of all claim pass thru for stay</text>
<text text-anchor="start" x="406.12" y="-364.7" font-family="Times,serif" font-size="14.00">($)</text>
<polygon fill="none" stroke="black" points="290,-333.5 290,-445 538,-445 538,-333.5 290,-333.5"/>
</a>
</g>
</g>
<!-- cms.medpar_2012.PASSTHRU&#45;&gt;medicare.ip.pass_thru_amt -->
<g id="edge6" class="edge">
<title>cms.medpar_2012.PASSTHRU&#45;&gt;medicare.ip.pass_thru_amt</title>
<path fill="none" stroke="chocolate" stroke-width="2" d="M402.95,-329.06C397.64,-282.25 398.3,-217.59 431,-173 457.93,-136.27 559.36,-109.7 650.94,-92.61"/>
<polygon fill="chocolate" stroke="chocolate" stroke-width="2" points="651.31,-96.1 660.52,-90.86 650.05,-89.21 651.31,-96.1"/>
<text text-anchor="middle" x="446.38" y="-227.7" font-family="Times,serif" font-size="14.00">union</text>
</g>
<!-- cms.medpar_2013.PASSTHRU -->
<g id="node4" class="node">
<title>cms.medpar_2013.PASSTHRU</title>
<g id="a_node4"><a xlink:href="../cms.medpar_2013/PASSTHRU.html" xlink:title="&lt;TABLE&gt;" target="_blank">
<polygon fill="none" stroke="black" points="1016,-449 752,-449 752,-329.5 1016,-329.5 1016,-449"/>
<text text-anchor="start" x="792.88" y="-427.7" font-family="Times,serif" font-weight="bold" font-size="14.00">cms.medpar_2013.PASSTHRU</text>
<text text-anchor="start" x="788" y="-381.2" font-family="Times,serif" font-size="14.00">Total of all claim pass thru for stay</text>
<text text-anchor="start" x="876.12" y="-364.7" font-family="Times,serif" font-size="14.00">($)</text>
<polygon fill="none" stroke="black" points="760,-333.5 760,-445 1008,-445 1008,-333.5 760,-333.5"/>
</a>
</g>
</g>
<!-- cms.medpar_2013.PASSTHRU&#45;&gt;medicare.ip.pass_thru_amt -->
<g id="edge7" class="edge">
<title>cms.medpar_2013.PASSTHRU&#45;&gt;medicare.ip.pass_thru_amt</title>
<path fill="none" stroke="chocolate" stroke-width="2" d="M751.67,-366.84C634.27,-346.51 478.52,-315.67 460,-292.5 426.84,-251.01 428.19,-215.53 460,-173 484.11,-140.76 570.04,-115.06 651.07,-97.27"/>
<polygon fill="chocolate" stroke="chocolate" stroke-width="2" points="651.5,-100.76 660.54,-95.23 650.03,-93.91 651.5,-100.76"/>
<text text-anchor="middle" x="475.38" y="-227.7" font-family="Times,serif" font-size="14.00">union</text>
</g>
<!-- cms.medpar_2015.PASSTHRU -->
<g id="node6" class="node">
<title>cms.medpar_2015.PASSTHRU</title>
<g id="a_node6"><a xlink:href="../cms.medpar_2015/PASSTHRU.html" xlink:title="&lt;TABLE&gt;" target="_blank">
<polygon fill="none" stroke="black" points="734,-292.5 470,-292.5 470,-173 734,-173 734,-292.5"/>
<text text-anchor="start" x="510.88" y="-271.2" font-family="Times,serif" font-weight="bold" font-size="14.00">cms.medpar_2015.PASSTHRU</text>
<text text-anchor="start" x="506" y="-224.7" font-family="Times,serif" font-size="14.00">Total of all claim pass thru for stay</text>
<text text-anchor="start" x="594.12" y="-208.2" font-family="Times,serif" font-size="14.00">($)</text>
<polygon fill="none" stroke="black" points="478,-177 478,-288.5 726,-288.5 726,-177 478,-177"/>
</a>
</g>
</g>
<!-- cms.medpar_2013.PASSTHRU&#45;&gt;cms.medpar_2015.PASSTHRU -->
<!-- cms.medpar_2016.PASSTHRU -->
<g id="node7" class="node">
<title>cms.medpar_2016.PASSTHRU</title>
<g id="a_node7"><a xlink:href="../cms.medpar_2016/PASSTHRU.html" xlink:title="&lt;TABLE&gt;" target="_blank">
<polygon fill="none" stroke="black" points="1016,-292.5 752,-292.5 752,-173 1016,-173 1016,-292.5"/>
<text text-anchor="start" x="792.88" y="-271.2" font-family="Times,serif" font-weight="bold" font-size="14.00">cms.medpar_2016.PASSTHRU</text>
<text text-anchor="start" x="788" y="-224.7" font-family="Times,serif" font-size="14.00">Total of all claim pass thru for stay</text>
<text text-anchor="start" x="876.12" y="-208.2" font-family="Times,serif" font-size="14.00">($)</text>
<polygon fill="none" stroke="black" points="760,-177 760,-288.5 1008,-288.5 1008,-177 760,-177"/>
</a>
</g>
</g>
<!-- cms.medpar_2013.PASSTHRU&#45;&gt;cms.medpar_2016.PASSTHRU -->
<!-- cms.medpar_2017.PASSTHRU -->
<g id="node8" class="node">
<title>cms.medpar_2017.PASSTHRU</title>
<g id="a_node8"><a xlink:href="../cms.medpar_2017/PASSTHRU.html" xlink:title="&lt;TABLE&gt;" target="_blank">
<polygon fill="none" stroke="black" points="1298,-292.5 1034,-292.5 1034,-173 1298,-173 1298,-292.5"/>
<text text-anchor="start" x="1074.88" y="-271.2" font-family="Times,serif" font-weight="bold" font-size="14.00">cms.medpar_2017.PASSTHRU</text>
<text text-anchor="start" x="1070" y="-224.7" font-family="Times,serif" font-size="14.00">Total of all claim pass thru for stay</text>
<text text-anchor="start" x="1158.12" y="-208.2" font-family="Times,serif" font-size="14.00">($)</text>
<polygon fill="none" stroke="black" points="1042,-177 1042,-288.5 1290,-288.5 1290,-177 1042,-177"/>
</a>
</g>
</g>
<!-- cms.medpar_2013.PASSTHRU&#45;&gt;cms.medpar_2017.PASSTHRU -->
<!-- cms.medpar_2018.PASSTHRU -->
<g id="node9" class="node">
<title>cms.medpar_2018.PASSTHRU</title>
<g id="a_node9"><a xlink:href="../cms.medpar_2018/PASSTHRU.html" xlink:title="&lt;TABLE&gt;" target="_blank">
<polygon fill="none" stroke="black" points="1580,-292.5 1316,-292.5 1316,-173 1580,-173 1580,-292.5"/>
<text text-anchor="start" x="1356.88" y="-271.2" font-family="Times,serif" font-weight="bold" font-size="14.00">cms.medpar_2018.PASSTHRU</text>
<text text-anchor="start" x="1352" y="-224.7" font-family="Times,serif" font-size="14.00">Total of all claim pass thru for stay</text>
<text text-anchor="start" x="1440.12" y="-208.2" font-family="Times,serif" font-size="14.00">($)</text>
<polygon fill="none" stroke="black" points="1324,-177 1324,-288.5 1572,-288.5 1572,-177 1324,-177"/>
</a>
</g>
</g>
<!-- cms.medpar_2013.PASSTHRU&#45;&gt;cms.medpar_2018.PASSTHRU -->
<!-- cms.medpar_2014.PASSTHRU -->
<g id="node5" class="node">
<title>cms.medpar_2014.PASSTHRU</title>
<g id="a_node5"><a xlink:href="../cms.medpar_2014/PASSTHRU.html" xlink:title="&lt;TABLE&gt;" target="_blank">
<polygon fill="none" stroke="black" points="1748,-449 1484,-449 1484,-329.5 1748,-329.5 1748,-449"/>
<text text-anchor="start" x="1524.88" y="-427.7" font-family="Times,serif" font-weight="bold" font-size="14.00">cms.medpar_2014.PASSTHRU</text>
<text text-anchor="start" x="1520" y="-381.2" font-family="Times,serif" font-size="14.00">Total of all claim pass thru for stay</text>
<text text-anchor="start" x="1608.12" y="-364.7" font-family="Times,serif" font-size="14.00">($)</text>
<polygon fill="none" stroke="black" points="1492,-333.5 1492,-445 1740,-445 1740,-333.5 1492,-333.5"/>
</a>
</g>
</g>
<!-- cms.medpar_2014.PASSTHRU&#45;&gt;medicare.ip.pass_thru_amt -->
<g id="edge8" class="edge">
<title>cms.medpar_2014.PASSTHRU&#45;&gt;medicare.ip.pass_thru_amt</title>
<path fill="none" stroke="chocolate" stroke-width="2" d="M1626.36,-329.22C1631.23,-280.57 1628.91,-213.25 1589,-173 1546.56,-130.2 1190.39,-96.78 975.62,-80.29"/>
<polygon fill="chocolate" stroke="chocolate" stroke-width="2" points="975.89,-76.8 965.65,-79.53 975.36,-83.78 975.89,-76.8"/>
<text text-anchor="middle" x="1643.38" y="-227.7" font-family="Times,serif" font-size="14.00">union</text>
</g>
<!-- cms.medpar_2015.PASSTHRU&#45;&gt;medicare.ip.pass_thru_amt -->
<g id="edge9" class="edge">
<title>cms.medpar_2015.PASSTHRU&#45;&gt;medicare.ip.pass_thru_amt</title>
<path fill="none" stroke="chocolate" stroke-width="2" d="M678.77,-172.53C690.65,-163.37 703.05,-153.81 715.31,-144.35"/>
<polygon fill="chocolate" stroke="chocolate" stroke-width="2" points="717.38,-147.17 723.16,-138.29 713.11,-141.63 717.38,-147.17"/>
<text text-anchor="middle" x="718.38" y="-149.45" font-family="Times,serif" font-size="14.00">union</text>
</g>
<!-- cms.medpar_2016.PASSTHRU&#45;&gt;medicare.ip.pass_thru_amt -->
<g id="edge10" class="edge">
<title>cms.medpar_2016.PASSTHRU&#45;&gt;medicare.ip.pass_thru_amt</title>
<path fill="none" stroke="chocolate" stroke-width="2" d="M858.17,-172.53C854.73,-164.66 851.16,-156.48 847.61,-148.33"/>
<polygon fill="chocolate" stroke="chocolate" stroke-width="2" points="850.84,-146.99 843.63,-139.22 844.42,-149.79 850.84,-146.99"/>
<text text-anchor="middle" x="866.38" y="-149.45" font-family="Times,serif" font-size="14.00">union</text>
</g>
<!-- cms.medpar_2017.PASSTHRU&#45;&gt;medicare.ip.pass_thru_amt -->
<g id="edge11" class="edge">
<title>cms.medpar_2017.PASSTHRU&#45;&gt;medicare.ip.pass_thru_amt</title>
<path fill="none" stroke="chocolate" stroke-width="2" d="M1037.56,-172.53C1015.91,-162.55 993.21,-152.08 970.91,-141.8"/>
<polygon fill="chocolate" stroke="chocolate" stroke-width="2" points="972.58,-138.72 962.04,-137.71 969.65,-145.08 972.58,-138.72"/>
<text text-anchor="middle" x="1013.38" y="-149.45" font-family="Times,serif" font-size="14.00">union</text>
</g>
<!-- cms.medpar_2018.PASSTHRU&#45;&gt;medicare.ip.pass_thru_amt -->
<g id="edge12" class="edge">
<title>cms.medpar_2018.PASSTHRU&#45;&gt;medicare.ip.pass_thru_amt</title>
<path fill="none" stroke="chocolate" stroke-width="2" d="M1315.8,-175.82C1312.85,-174.85 1309.91,-173.9 1307,-173 1198.25,-139.22 1072.64,-112.94 975.29,-95.25"/>
<polygon fill="chocolate" stroke="chocolate" stroke-width="2" points="976.1,-91.84 965.64,-93.51 974.86,-98.73 976.1,-91.84"/>
<text text-anchor="middle" x="1260.38" y="-149.45" font-family="Times,serif" font-size="14.00">union</text>
</g>
</g>
</svg>
