<?xml version="1.0" encoding="UTF-8" standalone="no"?>
<!DOCTYPE svg PUBLIC "-//W3C//DTD SVG 1.1//EN"
 "http://www.w3.org/Graphics/SVG/1.1/DTD/svg11.dtd">
<!-- Generated by graphviz version 10.0.1 (20240210.2158)
 -->
<!-- Pages: 1 -->
<svg width="446pt" height="381pt"
 viewBox="0.00 0.00 446.25 381.00" xmlns="http://www.w3.org/2000/svg" xmlns:xlink="http://www.w3.org/1999/xlink">
<g id="graph0" class="graph" transform="scale(1 1) rotate(0) translate(4 377)">
<polygon fill="white" stroke="none" points="-4,4 -4,-377 442.25,-377 442.25,4 -4,4"/>
<!-- medicare.qc_adm_union.pd_hll_hash -->
<g id="node1" class="node">
<title>medicare.qc_adm_union.pd_hll_hash</title>
<g id="a_node1"><a xlink:href="../medicare.qc_adm_union/pd_hll_hash.html" xlink:title="&lt;TABLE&gt;" target="_blank">
<polygon fill="none" stroke="black" points="438.25,-59 0,-59 0,0 438.25,0 438.25,-59"/>
<text text-anchor="start" x="110" y="-37.7" font-family="Times,serif" font-weight="bold" font-size="14.00">medicare.qc_adm_union.pd_hll_hash</text>
<polygon fill="none" stroke="black" points="11,-7 11,-29.5 427.25,-29.5 427.25,-7 11,-7"/>
<text text-anchor="start" x="14" y="-13.2" font-family="Times,serif" font-size="14.00">GENERATED ALWAYS AS (hll_hash_text(primary_diagnosis)) STORED</text>
<polygon fill="none" stroke="black" points="8,-4 8,-55 430.25,-55 430.25,-4 8,-4"/>
</a>
</g>
</g>
<!-- medicare.admissions.primary_diagnosis -->
<g id="node2" class="node">
<title>medicare.admissions.primary_diagnosis</title>
<g id="a_node2"><a xlink:href="../medicare.admissions/primary_diagnosis.html" xlink:title="&lt;TABLE&gt;" target="_blank">
<polygon fill="none" stroke="black" points="349.12,-155 89.12,-155 89.12,-96 349.12,-96 349.12,-155"/>
<text text-anchor="start" x="102.12" y="-133.7" font-family="Times,serif" font-weight="bold" font-size="14.00">medicare.admissions.primary_diagnosis</text>
<polygon fill="none" stroke="black" points="100.12,-103 100.12,-125.5 338.12,-125.5 338.12,-103 100.12,-103"/>
<text text-anchor="start" x="103.12" y="-109.2" font-family="Times,serif" font-size="14.00">btrim(diag1) As primary_diagnosis</text>
<polygon fill="none" stroke="black" points="97.12,-100 97.12,-151 341.12,-151 341.12,-100 97.12,-100"/>
</a>
</g>
</g>
<!-- medicare.admissions.primary_diagnosis&#45;&gt;medicare.qc_adm_union.pd_hll_hash -->
<g id="edge1" class="edge">
<title>medicare.admissions.primary_diagnosis&#45;&gt;medicare.qc_adm_union.pd_hll_hash</title>
<path fill="none" stroke="black" d="M219.12,-95.53C219.12,-87.68 219.12,-79.05 219.12,-70.7"/>
<polygon fill="black" stroke="black" points="222.63,-70.73 219.13,-60.73 215.63,-70.73 222.63,-70.73"/>
<text text-anchor="middle" x="238.62" y="-72.45" font-family="Times,serif" font-size="14.00">Copied</text>
</g>
<!-- medicare.ip.diag1 -->
<g id="node3" class="node">
<title>medicare.ip.diag1</title>
<g id="a_node3"><a xlink:href="../medicare.ip/diag1.html" xlink:title="&lt;TABLE&gt;" target="_blank">
<polygon fill="none" stroke="black" points="284.25,-228 154,-228 154,-192 284.25,-192 284.25,-228"/>
<text text-anchor="start" x="167" y="-205.95" font-family="Times,serif" font-weight="bold" font-size="14.00">medicare.ip.diag1</text>
<polygon fill="none" stroke="black" points="162,-196.75 162,-223.25 276.25,-223.25 276.25,-196.75 162,-196.75"/>
</a>
</g>
</g>
<!-- medicare.ip.diag1&#45;&gt;medicare.admissions.primary_diagnosis -->
<g id="edge2" class="edge">
<title>medicare.ip.diag1&#45;&gt;medicare.admissions.primary_diagnosis</title>
<path fill="none" stroke="black" d="M219.12,-191.5C219.12,-184.2 219.12,-175.4 219.12,-166.65"/>
<polygon fill="black" stroke="black" points="222.63,-166.85 219.13,-156.85 215.63,-166.85 222.63,-166.85"/>
<text text-anchor="middle" x="257.75" y="-168.45" font-family="Times,serif" font-size="14.00"> &#160;Transformed</text>
</g>
<!-- medicare.ip.diag1_parent -->
<g id="node4" class="node">
<title>medicare.ip.diag1_parent</title>
<g id="a_node4"><a xlink:href="../medicare.ip/diag1.html" xlink:title="8 incoming links (columns)" target="_blank">
<path fill="yellow" stroke="black" d="M327.12,-363.18C327.12,-368.6 278.72,-373 219.12,-373 159.53,-373 111.12,-368.6 111.12,-363.18 111.12,-363.18 111.12,-274.82 111.12,-274.82 111.12,-269.4 159.53,-265 219.12,-265 278.72,-265 327.12,-269.4 327.12,-274.82 327.12,-274.82 327.12,-363.18 327.12,-363.18"/>
<path fill="none" stroke="black" d="M327.12,-363.18C327.12,-357.76 278.72,-353.36 219.12,-353.36 159.53,-353.36 111.12,-357.76 111.12,-363.18"/>
<text text-anchor="middle" x="219.12" y="-313.95" font-family="Times,serif" font-size="14.00">8 incoming links (columns)</text>
</a>
</g>
</g>
<!-- medicare.ip.diag1_parent&#45;&gt;medicare.ip.diag1 -->
<g id="edge3" class="edge">
<title>medicare.ip.diag1_parent&#45;&gt;medicare.ip.diag1</title>
<path fill="none" stroke="goldenrod" stroke-width="6" d="M219.12,-264.5C219.12,-257.71 219.12,-250.92 219.12,-244.57"/>
<polygon fill="goldenrod" stroke="goldenrod" stroke-width="6" points="224.38,-244.65 219.13,-234.65 213.88,-244.65 224.38,-244.65"/>
</g>
</g>
</svg>
