<?xml version="1.0" encoding="UTF-8" standalone="no"?>
<!DOCTYPE svg PUBLIC "-//W3C//DTD SVG 1.1//EN"
 "http://www.w3.org/Graphics/SVG/1.1/DTD/svg11.dtd">
<!-- Generated by graphviz version 10.0.1 (20240210.2158)
 -->
<!-- Pages: 1 -->
<svg width="268pt" height="285pt"
 viewBox="0.00 0.00 268.00 285.00" xmlns="http://www.w3.org/2000/svg" xmlns:xlink="http://www.w3.org/1999/xlink">
<g id="graph0" class="graph" transform="scale(1 1) rotate(0) translate(4 281)">
<polygon fill="white" stroke="none" points="-4,4 -4,-281 264,-281 264,4 -4,4"/>
<!-- medicare.admissions.primary_diagnosis -->
<g id="node1" class="node">
<title>medicare.admissions.primary_diagnosis</title>
<g id="a_node1"><a xlink:href="../medicare.admissions/primary_diagnosis.html" xlink:title="&lt;TABLE&gt;" target="_blank">
<polygon fill="none" stroke="black" points="260,-59 0,-59 0,0 260,0 260,-59"/>
<text text-anchor="start" x="13" y="-37.7" font-family="Times,serif" font-weight="bold" font-size="14.00">medicare.admissions.primary_diagnosis</text>
<polygon fill="none" stroke="black" points="11,-7 11,-29.5 249,-29.5 249,-7 11,-7"/>
<text text-anchor="start" x="14" y="-13.2" font-family="Times,serif" font-size="14.00">btrim(diag1) As primary_diagnosis</text>
<polygon fill="none" stroke="black" points="8,-4 8,-55 252,-55 252,-4 8,-4"/>
</a>
</g>
</g>
<!-- medicare.ip.diag1 -->
<g id="node2" class="node">
<title>medicare.ip.diag1</title>
<g id="a_node2"><a xlink:href="../medicare.ip/diag1.html" xlink:title="&lt;TABLE&gt;" target="_blank">
<polygon fill="none" stroke="black" points="195.12,-132 64.88,-132 64.88,-96 195.12,-96 195.12,-132"/>
<text text-anchor="start" x="77.88" y="-109.95" font-family="Times,serif" font-weight="bold" font-size="14.00">medicare.ip.diag1</text>
<polygon fill="none" stroke="black" points="72.88,-100.75 72.88,-127.25 187.12,-127.25 187.12,-100.75 72.88,-100.75"/>
</a>
</g>
</g>
<!-- medicare.ip.diag1&#45;&gt;medicare.admissions.primary_diagnosis -->
<g id="edge1" class="edge">
<title>medicare.ip.diag1&#45;&gt;medicare.admissions.primary_diagnosis</title>
<path fill="none" stroke="black" d="M130,-95.5C130,-88.2 130,-79.4 130,-70.65"/>
<polygon fill="black" stroke="black" points="133.5,-70.85 130,-60.85 126.5,-70.85 133.5,-70.85"/>
<text text-anchor="middle" x="168.62" y="-72.45" font-family="Times,serif" font-size="14.00"> &#160;Transformed</text>
</g>
<!-- medicare.ip.diag1_parent -->
<g id="node3" class="node">
<title>medicare.ip.diag1_parent</title>
<g id="a_node3"><a xlink:href="../medicare.ip/diag1.html" xlink:title="8 incoming links (columns)" target="_blank">
<path fill="yellow" stroke="black" d="M238,-267.18C238,-272.6 189.59,-277 130,-277 70.41,-277 22,-272.6 22,-267.18 22,-267.18 22,-178.82 22,-178.82 22,-173.4 70.41,-169 130,-169 189.59,-169 238,-173.4 238,-178.82 238,-178.82 238,-267.18 238,-267.18"/>
<path fill="none" stroke="black" d="M238,-267.18C238,-261.76 189.59,-257.36 130,-257.36 70.41,-257.36 22,-261.76 22,-267.18"/>
<text text-anchor="middle" x="130" y="-217.95" font-family="Times,serif" font-size="14.00">8 incoming links (columns)</text>
</a>
</g>
</g>
<!-- medicare.ip.diag1_parent&#45;&gt;medicare.ip.diag1 -->
<g id="edge2" class="edge">
<title>medicare.ip.diag1_parent&#45;&gt;medicare.ip.diag1</title>
<path fill="none" stroke="goldenrod" stroke-width="6" d="M130,-168.5C130,-161.71 130,-154.92 130,-148.57"/>
<polygon fill="goldenrod" stroke="goldenrod" stroke-width="6" points="135.25,-148.65 130,-138.65 124.75,-148.65 135.25,-148.65"/>
</g>
</g>
</svg>
