<?xml version="1.0" encoding="UTF-8" standalone="no"?>
<!DOCTYPE svg PUBLIC "-//W3C//DTD SVG 1.1//EN"
 "http://www.w3.org/Graphics/SVG/1.1/DTD/svg11.dtd">
<!-- Generated by graphviz version 10.0.1 (20240210.2158)
 -->
<!-- Pages: 1 -->
<svg width="291pt" height="358pt"
 viewBox="0.00 0.00 290.50 358.00" xmlns="http://www.w3.org/2000/svg" xmlns:xlink="http://www.w3.org/1999/xlink">
<g id="graph0" class="graph" transform="scale(1 1) rotate(0) translate(4 354)">
<polygon fill="white" stroke="none" points="-4,4 -4,-354 286.5,-354 286.5,4 -4,4"/>
<!-- medicare.qc_adm_union.primary_diagnosis -->
<g id="node1" class="node">
<title>medicare.qc_adm_union.primary_diagnosis</title>
<g id="a_node1"><a xlink:href="../medicare.qc_adm_union/primary_diagnosis.html" xlink:title="&lt;TABLE&gt;" target="_blank">
<polygon fill="none" stroke="black" points="282.5,-36 0,-36 0,0 282.5,0 282.5,-36"/>
<text text-anchor="start" x="13" y="-13.95" font-family="Times,serif" font-weight="bold" font-size="14.00">medicare.qc_adm_union.primary_diagnosis</text>
<polygon fill="none" stroke="black" points="8,-4.75 8,-31.25 274.5,-31.25 274.5,-4.75 8,-4.75"/>
</a>
</g>
</g>
<!-- medicare.admissions.primary_diagnosis -->
<g id="node2" class="node">
<title>medicare.admissions.primary_diagnosis</title>
<g id="a_node2"><a xlink:href="../medicare.admissions/primary_diagnosis.html" xlink:title="&lt;TABLE&gt;" target="_blank">
<polygon fill="none" stroke="black" points="271.25,-132 11.25,-132 11.25,-73 271.25,-73 271.25,-132"/>
<text text-anchor="start" x="24.25" y="-110.7" font-family="Times,serif" font-weight="bold" font-size="14.00">medicare.admissions.primary_diagnosis</text>
<polygon fill="none" stroke="black" points="22.25,-80 22.25,-102.5 260.25,-102.5 260.25,-80 22.25,-80"/>
<text text-anchor="start" x="25.25" y="-86.2" font-family="Times,serif" font-size="14.00">btrim(diag1) As primary_diagnosis</text>
<polygon fill="none" stroke="black" points="19.25,-77 19.25,-128 263.25,-128 263.25,-77 19.25,-77"/>
</a>
</g>
</g>
<!-- medicare.admissions.primary_diagnosis&#45;&gt;medicare.qc_adm_union.primary_diagnosis -->
<g id="edge1" class="edge">
<title>medicare.admissions.primary_diagnosis&#45;&gt;medicare.qc_adm_union.primary_diagnosis</title>
<path fill="none" stroke="black" d="M141.25,-72.65C141.25,-64.62 141.25,-55.91 141.25,-47.89"/>
<polygon fill="black" stroke="black" points="144.75,-47.93 141.25,-37.93 137.75,-47.93 144.75,-47.93"/>
<text text-anchor="middle" x="160.75" y="-49.45" font-family="Times,serif" font-size="14.00">Copied</text>
</g>
<!-- medicare.ip.diag1 -->
<g id="node3" class="node">
<title>medicare.ip.diag1</title>
<g id="a_node3"><a xlink:href="../medicare.ip/diag1.html" xlink:title="&lt;TABLE&gt;" target="_blank">
<polygon fill="none" stroke="black" points="206.38,-205 76.12,-205 76.12,-169 206.38,-169 206.38,-205"/>
<text text-anchor="start" x="89.12" y="-182.95" font-family="Times,serif" font-weight="bold" font-size="14.00">medicare.ip.diag1</text>
<polygon fill="none" stroke="black" points="84.12,-173.75 84.12,-200.25 198.38,-200.25 198.38,-173.75 84.12,-173.75"/>
</a>
</g>
</g>
<!-- medicare.ip.diag1&#45;&gt;medicare.admissions.primary_diagnosis -->
<g id="edge2" class="edge">
<title>medicare.ip.diag1&#45;&gt;medicare.admissions.primary_diagnosis</title>
<path fill="none" stroke="black" d="M141.25,-168.5C141.25,-161.2 141.25,-152.4 141.25,-143.65"/>
<polygon fill="black" stroke="black" points="144.75,-143.85 141.25,-133.85 137.75,-143.85 144.75,-143.85"/>
<text text-anchor="middle" x="179.88" y="-145.45" font-family="Times,serif" font-size="14.00"> &#160;Transformed</text>
</g>
<!-- medicare.ip.diag1_parent -->
<g id="node4" class="node">
<title>medicare.ip.diag1_parent</title>
<g id="a_node4"><a xlink:href="../medicare.ip/diag1.html" xlink:title="8 incoming links (columns)" target="_blank">
<path fill="yellow" stroke="black" d="M249.25,-340.18C249.25,-345.6 200.84,-350 141.25,-350 81.66,-350 33.25,-345.6 33.25,-340.18 33.25,-340.18 33.25,-251.82 33.25,-251.82 33.25,-246.4 81.66,-242 141.25,-242 200.84,-242 249.25,-246.4 249.25,-251.82 249.25,-251.82 249.25,-340.18 249.25,-340.18"/>
<path fill="none" stroke="black" d="M249.25,-340.18C249.25,-334.76 200.84,-330.36 141.25,-330.36 81.66,-330.36 33.25,-334.76 33.25,-340.18"/>
<text text-anchor="middle" x="141.25" y="-290.95" font-family="Times,serif" font-size="14.00">8 incoming links (columns)</text>
</a>
</g>
</g>
<!-- medicare.ip.diag1_parent&#45;&gt;medicare.ip.diag1 -->
<g id="edge3" class="edge">
<title>medicare.ip.diag1_parent&#45;&gt;medicare.ip.diag1</title>
<path fill="none" stroke="goldenrod" stroke-width="6" d="M141.25,-241.5C141.25,-234.71 141.25,-227.92 141.25,-221.57"/>
<polygon fill="goldenrod" stroke="goldenrod" stroke-width="6" points="146.5,-221.65 141.25,-211.65 136,-221.65 146.5,-221.65"/>
</g>
</g>
</svg>
