<?xml version="1.0" encoding="UTF-8" standalone="no"?>
<!DOCTYPE svg PUBLIC "-//W3C//DTD SVG 1.1//EN"
 "http://www.w3.org/Graphics/SVG/1.1/DTD/svg11.dtd">
<!-- Generated by graphviz version 10.0.1 (20240210.2158)
 -->
<!-- Pages: 1 -->
<svg width="316pt" height="429pt"
 viewBox="0.00 0.00 315.88 429.00" xmlns="http://www.w3.org/2000/svg" xmlns:xlink="http://www.w3.org/1999/xlink">
<g id="graph0" class="graph" transform="scale(1 1) rotate(0) translate(4 425)">
<polygon fill="white" stroke="none" points="-4,4 -4,-425 311.88,-425 311.88,4 -4,4"/>
<!-- medicare._beneficiaries.race_rti -->
<g id="node1" class="node">
<title>medicare._beneficiaries.race_rti</title>
<g id="a_node1"><a xlink:href="../medicare._beneficiaries/race_rti.html" xlink:title="&lt;TABLE&gt;" target="_blank">
<polygon fill="none" stroke="black" points="247.75,-59 35,-59 35,0 247.75,0 247.75,-59"/>
<text text-anchor="start" x="48" y="-37.7" font-family="Times,serif" font-weight="bold" font-size="14.00">medicare._beneficiaries.race_rti</text>
<polygon fill="none" stroke="black" points="46,-7 46,-29.5 236.75,-29.5 236.75,-7 46,-7"/>
<text text-anchor="start" x="49" y="-13.2" font-family="Times,serif" font-size="14.00">string_agg(distinct race_rti, &#39;,&#39;)</text>
<polygon fill="none" stroke="black" points="43,-4 43,-55 239.75,-55 239.75,-4 43,-4"/>
</a>
</g>
</g>
<!-- medicare._ps.race_rti -->
<g id="node2" class="node">
<title>medicare._ps.race_rti</title>
<g id="a_node2"><a xlink:href="../medicare._ps/race_rti.html" xlink:title="&lt;TABLE&gt;" target="_blank">
<polygon fill="none" stroke="black" points="282.75,-240 0,-240 0,-96 282.75,-96 282.75,-240"/>
<text text-anchor="start" x="78" y="-218.7" font-family="Times,serif" font-weight="bold" font-size="14.00">medicare._ps.race_rti</text>
<text text-anchor="start" x="36" y="-172.2" font-family="Times,serif" font-size="14.00">Research Triangle Institute (RTI) Race</text>
<text text-anchor="start" x="127.12" y="-155.7" font-family="Times,serif" font-size="14.00">Code</text>
<polygon fill="none" stroke="black" points="11,-103 11,-125.5 271.75,-125.5 271.75,-103 11,-103"/>
<text text-anchor="start" x="14" y="-109.2" font-family="Times,serif" font-size="14.00">rti_race_cd</text>
<polygon fill="none" stroke="black" points="8,-100 8,-236 274.75,-236 274.75,-100 8,-100"/>
</a>
</g>
</g>
<!-- medicare._ps.race_rti&#45;&gt;medicare._beneficiaries.race_rti -->
<g id="edge1" class="edge">
<title>medicare._ps.race_rti&#45;&gt;medicare._beneficiaries.race_rti</title>
<path fill="none" stroke="blue" stroke-width="5" d="M141.38,-95.55C141.38,-88.77 141.38,-82.02 141.38,-75.59"/>
<polygon fill="blue" stroke="blue" stroke-width="5" points="145.75,-75.72 141.38,-65.72 137,-75.72 145.75,-75.72"/>
<text text-anchor="middle" x="224.62" y="-72.45" font-family="Times,serif" font-size="14.00">	 &#160;Aggregated On bene_id</text>
</g>
<!-- medicare.ps.race_rti -->
<g id="node3" class="node">
<title>medicare.ps.race_rti</title>
<g id="a_node3"><a xlink:href="../medicare.ps/race_rti.html" xlink:title="&lt;TABLE&gt;" target="_blank">
<polygon fill="none" stroke="black" points="282.75,-421 0,-421 0,-277 282.75,-277 282.75,-421"/>
<text text-anchor="start" x="81.38" y="-399.7" font-family="Times,serif" font-weight="bold" font-size="14.00">medicare.ps.race_rti</text>
<text text-anchor="start" x="36" y="-353.2" font-family="Times,serif" font-size="14.00">Research Triangle Institute (RTI) Race</text>
<text text-anchor="start" x="127.12" y="-336.7" font-family="Times,serif" font-size="14.00">Code</text>
<polygon fill="none" stroke="black" points="11,-284 11,-306.5 271.75,-306.5 271.75,-284 11,-284"/>
<text text-anchor="start" x="14" y="-290.2" font-family="Times,serif" font-size="14.00">rti_race_cd</text>
<polygon fill="none" stroke="black" points="8,-281 8,-417 274.75,-417 274.75,-281 8,-281"/>
</a>
</g>
</g>
<!-- medicare.ps.race_rti&#45;&gt;medicare._ps.race_rti -->
<g id="edge2" class="edge">
<title>medicare.ps.race_rti&#45;&gt;medicare._ps.race_rti</title>
<path fill="none" stroke="black" d="M141.38,-276.74C141.38,-268.5 141.38,-260.04 141.38,-251.66"/>
<polygon fill="black" stroke="black" points="144.88,-251.82 141.38,-241.82 137.88,-251.82 144.88,-251.82"/>
<text text-anchor="middle" x="160.88" y="-253.45" font-family="Times,serif" font-size="14.00">Copied</text>
</g>
</g>
</svg>
