<?xml version="1.0" encoding="UTF-8" standalone="no"?>
<!DOCTYPE svg PUBLIC "-//W3C//DTD SVG 1.1//EN"
 "http://www.w3.org/Graphics/SVG/1.1/DTD/svg11.dtd">
<!-- Generated by graphviz version 10.0.1 (20240210.2158)
 -->
<!-- Pages: 1 -->
<svg width="316pt" height="621pt"
 viewBox="0.00 0.00 315.88 621.00" xmlns="http://www.w3.org/2000/svg" xmlns:xlink="http://www.w3.org/1999/xlink">
<g id="graph0" class="graph" transform="scale(1 1) rotate(0) translate(4 617)">
<polygon fill="white" stroke="none" points="-4,4 -4,-617 311.88,-617 311.88,4 -4,4"/>
<!-- medicare.qc_enrl_bene.race_rti -->
<g id="node1" class="node">
<title>medicare.qc_enrl_bene.race_rti</title>
<g id="a_node1"><a xlink:href="../medicare.qc_enrl_bene/race_rti.html" xlink:title="&lt;TABLE&gt;" target="_blank">
<polygon fill="none" stroke="black" points="246.62,-59 36.12,-59 36.12,0 246.62,0 246.62,-59"/>
<text text-anchor="start" x="49.12" y="-37.7" font-family="Times,serif" font-weight="bold" font-size="14.00">medicare.qc_enrl_bene.race_rti</text>
<polygon fill="none" stroke="black" points="47.12,-7 47.12,-29.5 235.62,-29.5 235.62,-7 47.12,-7"/>
<text text-anchor="start" x="50.12" y="-13.2" font-family="Times,serif" font-size="14.00">string_agg(distinct race_rti, &#39;,&#39;)</text>
<polygon fill="none" stroke="black" points="44.12,-4 44.12,-55 238.62,-55 238.62,-4 44.12,-4"/>
</a>
</g>
</g>
<!-- medicare.beneficiaries.race_rti -->
<g id="node2" class="node">
<title>medicare.beneficiaries.race_rti</title>
<g id="a_node2"><a xlink:href="../medicare.beneficiaries/race_rti.html" xlink:title="&lt;TABLE&gt;" target="_blank">
<polygon fill="none" stroke="black" points="244.38,-155 38.38,-155 38.38,-96 244.38,-96 244.38,-155"/>
<text text-anchor="start" x="51.38" y="-133.7" font-family="Times,serif" font-weight="bold" font-size="14.00">medicare.beneficiaries.race_rti</text>
<polygon fill="none" stroke="black" points="49.38,-103 49.38,-125.5 233.38,-125.5 233.38,-103 49.38,-103"/>
<text text-anchor="start" x="52.38" y="-109.2" font-family="Times,serif" font-size="14.00">string_agg(distinct race_rti, &#39;,&#39;)</text>
<polygon fill="none" stroke="black" points="46.38,-100 46.38,-151 236.38,-151 236.38,-100 46.38,-100"/>
</a>
</g>
</g>
<!-- medicare.beneficiaries.race_rti&#45;&gt;medicare.qc_enrl_bene.race_rti -->
<g id="edge1" class="edge">
<title>medicare.beneficiaries.race_rti&#45;&gt;medicare.qc_enrl_bene.race_rti</title>
<path fill="none" stroke="black" d="M141.38,-95.53C141.38,-87.68 141.38,-79.05 141.38,-70.7"/>
<polygon fill="black" stroke="black" points="144.88,-70.73 141.38,-60.73 137.88,-70.73 144.88,-70.73"/>
<text text-anchor="middle" x="187.5" y="-72.45" font-family="Times,serif" font-size="14.00">	join natural</text>
</g>
<!-- medicare._beneficiaries.race_rti -->
<g id="node3" class="node">
<title>medicare._beneficiaries.race_rti</title>
<g id="a_node3"><a xlink:href="../medicare._beneficiaries/race_rti.html" xlink:title="&lt;TABLE&gt;" target="_blank">
<polygon fill="none" stroke="black" points="247.75,-251 35,-251 35,-192 247.75,-192 247.75,-251"/>
<text text-anchor="start" x="48" y="-229.7" font-family="Times,serif" font-weight="bold" font-size="14.00">medicare._beneficiaries.race_rti</text>
<polygon fill="none" stroke="black" points="46,-199 46,-221.5 236.75,-221.5 236.75,-199 46,-199"/>
<text text-anchor="start" x="49" y="-205.2" font-family="Times,serif" font-size="14.00">string_agg(distinct race_rti, &#39;,&#39;)</text>
<polygon fill="none" stroke="black" points="43,-196 43,-247 239.75,-247 239.75,-196 43,-196"/>
</a>
</g>
</g>
<!-- medicare._beneficiaries.race_rti&#45;&gt;medicare.beneficiaries.race_rti -->
<g id="edge2" class="edge">
<title>medicare._beneficiaries.race_rti&#45;&gt;medicare.beneficiaries.race_rti</title>
<path fill="none" stroke="black" d="M141.38,-191.53C141.38,-183.68 141.38,-175.05 141.38,-166.7"/>
<polygon fill="black" stroke="black" points="144.88,-166.73 141.38,-156.73 137.88,-166.73 144.88,-166.73"/>
<text text-anchor="middle" x="160.88" y="-168.45" font-family="Times,serif" font-size="14.00">Copied</text>
</g>
<!-- medicare._ps.race_rti -->
<g id="node4" class="node">
<title>medicare._ps.race_rti</title>
<g id="a_node4"><a xlink:href="../medicare._ps/race_rti.html" xlink:title="&lt;TABLE&gt;" target="_blank">
<polygon fill="none" stroke="black" points="282.75,-432 0,-432 0,-288 282.75,-288 282.75,-432"/>
<text text-anchor="start" x="78" y="-410.7" font-family="Times,serif" font-weight="bold" font-size="14.00">medicare._ps.race_rti</text>
<text text-anchor="start" x="36" y="-364.2" font-family="Times,serif" font-size="14.00">Research Triangle Institute (RTI) Race</text>
<text text-anchor="start" x="127.12" y="-347.7" font-family="Times,serif" font-size="14.00">Code</text>
<polygon fill="none" stroke="black" points="11,-295 11,-317.5 271.75,-317.5 271.75,-295 11,-295"/>
<text text-anchor="start" x="14" y="-301.2" font-family="Times,serif" font-size="14.00">rti_race_cd</text>
<polygon fill="none" stroke="black" points="8,-292 8,-428 274.75,-428 274.75,-292 8,-292"/>
</a>
</g>
</g>
<!-- medicare._ps.race_rti&#45;&gt;medicare._beneficiaries.race_rti -->
<g id="edge3" class="edge">
<title>medicare._ps.race_rti&#45;&gt;medicare._beneficiaries.race_rti</title>
<path fill="none" stroke="blue" stroke-width="5" d="M141.38,-287.55C141.38,-280.77 141.38,-274.02 141.38,-267.59"/>
<polygon fill="blue" stroke="blue" stroke-width="5" points="145.75,-267.72 141.38,-257.72 137,-267.72 145.75,-267.72"/>
<text text-anchor="middle" x="224.62" y="-264.45" font-family="Times,serif" font-size="14.00">	 &#160;Aggregated On bene_id</text>
</g>
<!-- medicare.ps.race_rti -->
<g id="node5" class="node">
<title>medicare.ps.race_rti</title>
<g id="a_node5"><a xlink:href="../medicare.ps/race_rti.html" xlink:title="&lt;TABLE&gt;" target="_blank">
<polygon fill="none" stroke="black" points="282.75,-613 0,-613 0,-469 282.75,-469 282.75,-613"/>
<text text-anchor="start" x="81.38" y="-591.7" font-family="Times,serif" font-weight="bold" font-size="14.00">medicare.ps.race_rti</text>
<text text-anchor="start" x="36" y="-545.2" font-family="Times,serif" font-size="14.00">Research Triangle Institute (RTI) Race</text>
<text text-anchor="start" x="127.12" y="-528.7" font-family="Times,serif" font-size="14.00">Code</text>
<polygon fill="none" stroke="black" points="11,-476 11,-498.5 271.75,-498.5 271.75,-476 11,-476"/>
<text text-anchor="start" x="14" y="-482.2" font-family="Times,serif" font-size="14.00">rti_race_cd</text>
<polygon fill="none" stroke="black" points="8,-473 8,-609 274.75,-609 274.75,-473 8,-473"/>
</a>
</g>
</g>
<!-- medicare.ps.race_rti&#45;&gt;medicare._ps.race_rti -->
<g id="edge4" class="edge">
<title>medicare.ps.race_rti&#45;&gt;medicare._ps.race_rti</title>
<path fill="none" stroke="black" d="M141.38,-468.74C141.38,-460.5 141.38,-452.04 141.38,-443.66"/>
<polygon fill="black" stroke="black" points="144.88,-443.82 141.38,-433.82 137.88,-443.82 144.88,-443.82"/>
<text text-anchor="middle" x="160.88" y="-445.45" font-family="Times,serif" font-size="14.00">Copied</text>
</g>
</g>
</svg>
