<?xml version="1.0" encoding="UTF-8" standalone="no"?>
<!DOCTYPE svg PUBLIC "-//W3C//DTD SVG 1.1//EN"
 "http://www.w3.org/Graphics/SVG/1.1/DTD/svg11.dtd">
<!-- Generated by graphviz version 10.0.1 (20240210.2158)
 -->
<!-- Pages: 1 -->
<svg width="283pt" height="358pt"
 viewBox="0.00 0.00 282.50 358.00" xmlns="http://www.w3.org/2000/svg" xmlns:xlink="http://www.w3.org/1999/xlink">
<g id="graph0" class="graph" transform="scale(1 1) rotate(0) translate(4 354)">
<polygon fill="white" stroke="none" points="-4,4 -4,-354 278.5,-354 278.5,4 -4,4"/>
<!-- medicare._beneficiaries.race -->
<g id="node1" class="node">
<title>medicare._beneficiaries.race</title>
<g id="a_node1"><a xlink:href="../medicare._beneficiaries/race.html" xlink:title="&lt;TABLE&gt;" target="_blank">
<polygon fill="none" stroke="black" points="203.88,-59 12.12,-59 12.12,0 203.88,0 203.88,-59"/>
<text text-anchor="start" x="25.12" y="-37.7" font-family="Times,serif" font-weight="bold" font-size="14.00">medicare._beneficiaries.race</text>
<polygon fill="none" stroke="black" points="23.12,-7 23.12,-29.5 192.88,-29.5 192.88,-7 23.12,-7"/>
<text text-anchor="start" x="26.12" y="-13.2" font-family="Times,serif" font-size="14.00">string_agg(distinct race, &#39;,&#39;)</text>
<polygon fill="none" stroke="black" points="20.12,-4 20.12,-55 195.88,-55 195.88,-4 20.12,-4"/>
</a>
</g>
</g>
<!-- medicare._ps.race -->
<g id="node2" class="node">
<title>medicare._ps.race</title>
<g id="a_node2"><a xlink:href="../medicare._ps/race.html" xlink:title="&lt;TABLE&gt;" target="_blank">
<polygon fill="none" stroke="black" points="173.88,-132 42.12,-132 42.12,-96 173.88,-96 173.88,-132"/>
<text text-anchor="start" x="55.12" y="-109.95" font-family="Times,serif" font-weight="bold" font-size="14.00">medicare._ps.race</text>
<polygon fill="none" stroke="black" points="50.12,-100.75 50.12,-127.25 165.88,-127.25 165.88,-100.75 50.12,-100.75"/>
</a>
</g>
</g>
<!-- medicare._ps.race&#45;&gt;medicare._beneficiaries.race -->
<g id="edge1" class="edge">
<title>medicare._ps.race&#45;&gt;medicare._beneficiaries.race</title>
<path fill="none" stroke="blue" stroke-width="5" d="M108,-95.5C108,-89.52 108,-82.51 108,-75.37"/>
<polygon fill="blue" stroke="blue" stroke-width="5" points="112.38,-75.57 108,-65.57 103.63,-75.57 112.38,-75.57"/>
<text text-anchor="middle" x="191.25" y="-72.45" font-family="Times,serif" font-size="14.00">	 &#160;Aggregated On bene_id</text>
</g>
<!-- medicare.ps.race -->
<g id="node3" class="node">
<title>medicare.ps.race</title>
<g id="a_node3"><a xlink:href="../medicare.ps/race.html" xlink:title="&lt;TABLE&gt;" target="_blank">
<polygon fill="none" stroke="black" points="170.5,-205 45.5,-205 45.5,-169 170.5,-169 170.5,-205"/>
<text text-anchor="start" x="58.5" y="-182.95" font-family="Times,serif" font-weight="bold" font-size="14.00">medicare.ps.race</text>
<polygon fill="none" stroke="black" points="53.5,-173.75 53.5,-200.25 162.5,-200.25 162.5,-173.75 53.5,-173.75"/>
</a>
</g>
</g>
<!-- medicare.ps.race&#45;&gt;medicare._ps.race -->
<g id="edge2" class="edge">
<title>medicare.ps.race&#45;&gt;medicare._ps.race</title>
<path fill="none" stroke="black" d="M108,-168.81C108,-161.23 108,-152.1 108,-143.54"/>
<polygon fill="black" stroke="black" points="111.5,-143.54 108,-133.54 104.5,-143.54 111.5,-143.54"/>
<text text-anchor="middle" x="127.5" y="-145.45" font-family="Times,serif" font-size="14.00">Copied</text>
</g>
<!-- medicare.ps.race_parent -->
<g id="node4" class="node">
<title>medicare.ps.race_parent</title>
<g id="a_node4"><a xlink:href="../medicare.ps/race.html" xlink:title="8 incoming links (columns)" target="_blank">
<path fill="yellow" stroke="black" d="M216,-340.18C216,-345.6 167.59,-350 108,-350 48.41,-350 0,-345.6 0,-340.18 0,-340.18 0,-251.82 0,-251.82 0,-246.4 48.41,-242 108,-242 167.59,-242 216,-246.4 216,-251.82 216,-251.82 216,-340.18 216,-340.18"/>
<path fill="none" stroke="black" d="M216,-340.18C216,-334.76 167.59,-330.36 108,-330.36 48.41,-330.36 0,-334.76 0,-340.18"/>
<text text-anchor="middle" x="108" y="-290.95" font-family="Times,serif" font-size="14.00">8 incoming links (columns)</text>
</a>
</g>
</g>
<!-- medicare.ps.race_parent&#45;&gt;medicare.ps.race -->
<g id="edge3" class="edge">
<title>medicare.ps.race_parent&#45;&gt;medicare.ps.race</title>
<path fill="none" stroke="goldenrod" stroke-width="6" d="M108,-241.5C108,-234.71 108,-227.92 108,-221.57"/>
<polygon fill="goldenrod" stroke="goldenrod" stroke-width="6" points="113.25,-221.65 108,-211.65 102.75,-221.65 113.25,-221.65"/>
</g>
</g>
</svg>
