<?xml version="1.0" encoding="UTF-8" standalone="no"?>
<!DOCTYPE svg PUBLIC "-//W3C//DTD SVG 1.1//EN"
 "http://www.w3.org/Graphics/SVG/1.1/DTD/svg11.dtd">
<!-- Generated by graphviz version 10.0.1 (20240210.2158)
 -->
<!-- Pages: 1 -->
<svg width="220pt" height="140pt"
 viewBox="0.00 0.00 220.00 140.00" xmlns="http://www.w3.org/2000/svg" xmlns:xlink="http://www.w3.org/1999/xlink">
<g id="graph0" class="graph" transform="scale(1 1) rotate(0) translate(4 136)">
<polygon fill="white" stroke="none" points="-4,4 -4,-136 216,-136 216,4 -4,4"/>
<!-- medicare.qc_admissions.reason -->
<g id="node1" class="node">
<title>medicare.qc_admissions.reason</title>
<g id="a_node1"><a xlink:href="../medicare.qc_admissions/reason.html" xlink:title="&lt;TABLE&gt;" target="_blank">
<polygon fill="none" stroke="black" points="210.88,-36 1.12,-36 1.12,0 210.88,0 210.88,-36"/>
<text text-anchor="start" x="14.12" y="-13.95" font-family="Times,serif" font-weight="bold" font-size="14.00">medicare.qc_admissions.reason</text>
<polygon fill="none" stroke="black" points="9.12,-4.75 9.12,-31.25 202.88,-31.25 202.88,-4.75 9.12,-4.75"/>
</a>
</g>
</g>
<!-- medicare.qc_adm_union.reason -->
<g id="node2" class="node">
<title>medicare.qc_adm_union.reason</title>
<g id="a_node2"><a xlink:href="../medicare.qc_adm_union/reason.html" xlink:title="&lt;TABLE&gt;" target="_blank">
<polygon fill="none" stroke="black" points="212,-132 0,-132 0,-73 212,-73 212,-132"/>
<text text-anchor="start" x="13" y="-110.7" font-family="Times,serif" font-weight="bold" font-size="14.00">medicare.qc_adm_union.reason</text>
<polygon fill="none" stroke="black" points="11,-80 11,-102.5 201,-102.5 201,-80 11,-80"/>
<text text-anchor="start" x="14" y="-86.2" font-family="Times,serif" font-size="14.00">reason</text>
<polygon fill="none" stroke="black" points="8,-77 8,-128 204,-128 204,-77 8,-77"/>
</a>
</g>
</g>
<!-- medicare.qc_adm_union.reason&#45;&gt;medicare.qc_admissions.reason -->
<g id="edge1" class="edge">
<title>medicare.qc_adm_union.reason&#45;&gt;medicare.qc_admissions.reason</title>
<path fill="none" stroke="black" d="M106,-72.65C106,-64.62 106,-55.91 106,-47.89"/>
<polygon fill="black" stroke="black" points="109.5,-47.93 106,-37.93 102.5,-47.93 109.5,-47.93"/>
<text text-anchor="middle" x="144.62" y="-49.45" font-family="Times,serif" font-size="14.00"> &#160;Transformed</text>
</g>
</g>
</svg>
