<?xml version="1.0" encoding="UTF-8" standalone="no"?>
<!DOCTYPE svg PUBLIC "-//W3C//DTD SVG 1.1//EN"
 "http://www.w3.org/Graphics/SVG/1.1/DTD/svg11.dtd">
<!-- Generated by graphviz version 10.0.1 (20240210.2158)
 -->
<!-- Pages: 1 -->
<svg width="377pt" height="561pt"
 viewBox="0.00 0.00 376.75 560.50" xmlns="http://www.w3.org/2000/svg" xmlns:xlink="http://www.w3.org/1999/xlink">
<g id="graph0" class="graph" transform="scale(1 1) rotate(0) translate(4 556.5)">
<polygon fill="white" stroke="none" points="-4,4 -4,-556.5 372.75,-556.5 372.75,4 -4,4"/>
<!-- medicare._enrollments.record -->
<g id="node1" class="node">
<title>medicare._enrollments.record</title>
<g id="a_node1"><a xlink:href="../medicare._enrollments/record.html" xlink:title="&lt;TABLE&gt;" target="_blank">
<polygon fill="none" stroke="black" points="280,-127.5 0,-127.5 0,0 280,0 280,-127.5"/>
<text text-anchor="start" x="52.25" y="-106.2" font-family="Times,serif" font-weight="bold" font-size="14.00">medicare._enrollments.record</text>
<text text-anchor="start" x="36" y="-59.7" font-family="Times,serif" font-size="14.00">Record number in the file</text>
<polygon fill="none" stroke="black" points="11,-7 11,-29.5 269,-29.5 269,-7 11,-7"/>
<text text-anchor="start" x="14" y="-13.2" font-family="Times,serif" font-size="14.00">string_agg(distinct RECORD::VARCHAR, &#39;,&#39;)</text>
<polygon fill="none" stroke="black" points="8,-4 8,-123.5 272,-123.5 272,-4 8,-4"/>
</a>
</g>
</g>
<!-- medicare._ps.record -->
<g id="node2" class="node">
<title>medicare._ps.record</title>
<g id="a_node2"><a xlink:href="../medicare._ps/record.html" xlink:title="&lt;TABLE&gt;" target="_blank">
<polygon fill="none" stroke="black" points="246.5,-267.5 33.5,-267.5 33.5,-164.5 246.5,-164.5 246.5,-267.5"/>
<text text-anchor="start" x="80.38" y="-246.2" font-family="Times,serif" font-weight="bold" font-size="14.00">medicare._ps.record</text>
<text text-anchor="start" x="69.5" y="-199.7" font-family="Times,serif" font-size="14.00">Record number in the file</text>
<polygon fill="none" stroke="black" points="41.5,-168.5 41.5,-263.5 238.5,-263.5 238.5,-168.5 41.5,-168.5"/>
</a>
</g>
</g>
<!-- medicare._ps.record&#45;&gt;medicare._enrollments.record -->
<g id="edge1" class="edge">
<title>medicare._ps.record&#45;&gt;medicare._enrollments.record</title>
<path fill="none" stroke="blue" stroke-width="5" d="M140,-164.13C140,-157.57 140,-150.73 140,-143.85"/>
<polygon fill="blue" stroke="blue" stroke-width="5" points="144.38,-144.06 140,-134.06 135.63,-144.06 144.38,-144.06"/>
<text text-anchor="middle" x="254.38" y="-140.95" font-family="Times,serif" font-size="14.00">	 &#160;Aggregated On bene_id, year, state</text>
</g>
<!-- medicare.ps.record -->
<g id="node3" class="node">
<title>medicare.ps.record</title>
<g id="a_node3"><a xlink:href="../medicare.ps/record.html" xlink:title="&lt;TABLE&gt;" target="_blank">
<polygon fill="none" stroke="black" points="246.5,-407.5 33.5,-407.5 33.5,-304.5 246.5,-304.5 246.5,-407.5"/>
<text text-anchor="start" x="83.75" y="-386.2" font-family="Times,serif" font-weight="bold" font-size="14.00">medicare.ps.record</text>
<text text-anchor="start" x="69.5" y="-339.7" font-family="Times,serif" font-size="14.00">Record number in the file</text>
<polygon fill="none" stroke="black" points="41.5,-308.5 41.5,-403.5 238.5,-403.5 238.5,-308.5 41.5,-308.5"/>
</a>
</g>
</g>
<!-- medicare.ps.record&#45;&gt;medicare._ps.record -->
<g id="edge2" class="edge">
<title>medicare.ps.record&#45;&gt;medicare._ps.record</title>
<path fill="none" stroke="black" d="M140,-304.01C140,-295.88 140,-287.39 140,-279.04"/>
<polygon fill="black" stroke="black" points="143.5,-279.3 140,-269.3 136.5,-279.3 143.5,-279.3"/>
<text text-anchor="middle" x="159.5" y="-280.95" font-family="Times,serif" font-size="14.00">Copied</text>
</g>
<!-- medicare.ps.record_parent -->
<g id="node4" class="node">
<title>medicare.ps.record_parent</title>
<g id="a_node4"><a xlink:href="../medicare.ps/record.html" xlink:title="8 incoming links (columns)" target="_blank">
<path fill="yellow" stroke="black" d="M248,-542.68C248,-548.1 199.59,-552.5 140,-552.5 80.41,-552.5 32,-548.1 32,-542.68 32,-542.68 32,-454.32 32,-454.32 32,-448.9 80.41,-444.5 140,-444.5 199.59,-444.5 248,-448.9 248,-454.32 248,-454.32 248,-542.68 248,-542.68"/>
<path fill="none" stroke="black" d="M248,-542.68C248,-537.26 199.59,-532.86 140,-532.86 80.41,-532.86 32,-537.26 32,-542.68"/>
<text text-anchor="middle" x="140" y="-493.45" font-family="Times,serif" font-size="14.00">8 incoming links (columns)</text>
</a>
</g>
</g>
<!-- medicare.ps.record_parent&#45;&gt;medicare.ps.record -->
<g id="edge3" class="edge">
<title>medicare.ps.record_parent&#45;&gt;medicare.ps.record</title>
<path fill="none" stroke="goldenrod" stroke-width="6" d="M140,-444.38C140,-437.74 140,-430.89 140,-424.07"/>
<polygon fill="goldenrod" stroke="goldenrod" stroke-width="6" points="145.25,-424.32 140,-414.32 134.75,-424.32 145.25,-424.32"/>
</g>
</g>
</svg>
