<?xml version="1.0" encoding="UTF-8" standalone="no"?>
<!DOCTYPE svg PUBLIC "-//W3C//DTD SVG 1.1//EN"
 "http://www.w3.org/Graphics/SVG/1.1/DTD/svg11.dtd">
<!-- Generated by graphviz version 10.0.1 (20240210.2158)
 -->
<!-- Pages: 1 -->
<svg width="377pt" height="358pt"
 viewBox="0.00 0.00 376.75 358.00" xmlns="http://www.w3.org/2000/svg" xmlns:xlink="http://www.w3.org/1999/xlink">
<g id="graph0" class="graph" transform="scale(1 1) rotate(0) translate(4 354)">
<polygon fill="white" stroke="none" points="-4,4 -4,-354 372.75,-354 372.75,4 -4,4"/>
<!-- medicare._enrollments.record -->
<g id="node1" class="node">
<title>medicare._enrollments.record</title>
<g id="a_node1"><a xlink:href="../medicare._enrollments/record.html" xlink:title="&lt;TABLE&gt;" target="_blank">
<polygon fill="none" stroke="black" points="280,-59 0,-59 0,0 280,0 280,-59"/>
<text text-anchor="start" x="52.25" y="-37.7" font-family="Times,serif" font-weight="bold" font-size="14.00">medicare._enrollments.record</text>
<polygon fill="none" stroke="black" points="11,-7 11,-29.5 269,-29.5 269,-7 11,-7"/>
<text text-anchor="start" x="14" y="-13.2" font-family="Times,serif" font-size="14.00">string_agg(distinct RECORD::VARCHAR, &#39;,&#39;)</text>
<polygon fill="none" stroke="black" points="8,-4 8,-55 272,-55 272,-4 8,-4"/>
</a>
</g>
</g>
<!-- medicare._ps.record -->
<g id="node2" class="node">
<title>medicare._ps.record</title>
<g id="a_node2"><a xlink:href="../medicare._ps/record.html" xlink:title="&lt;TABLE&gt;" target="_blank">
<polygon fill="none" stroke="black" points="212.62,-132 67.38,-132 67.38,-96 212.62,-96 212.62,-132"/>
<text text-anchor="start" x="80.38" y="-109.95" font-family="Times,serif" font-weight="bold" font-size="14.00">medicare._ps.record</text>
<polygon fill="none" stroke="black" points="75.38,-100.75 75.38,-127.25 204.62,-127.25 204.62,-100.75 75.38,-100.75"/>
</a>
</g>
</g>
<!-- medicare._ps.record&#45;&gt;medicare._enrollments.record -->
<g id="edge1" class="edge">
<title>medicare._ps.record&#45;&gt;medicare._enrollments.record</title>
<path fill="none" stroke="blue" stroke-width="5" d="M140,-95.5C140,-89.52 140,-82.51 140,-75.37"/>
<polygon fill="blue" stroke="blue" stroke-width="5" points="144.38,-75.57 140,-65.57 135.63,-75.57 144.38,-75.57"/>
<text text-anchor="middle" x="254.38" y="-72.45" font-family="Times,serif" font-size="14.00">	 &#160;Aggregated On bene_id, year, state</text>
</g>
<!-- medicare.ps.record -->
<g id="node3" class="node">
<title>medicare.ps.record</title>
<g id="a_node3"><a xlink:href="../medicare.ps/record.html" xlink:title="&lt;TABLE&gt;" target="_blank">
<polygon fill="none" stroke="black" points="209.25,-205 70.75,-205 70.75,-169 209.25,-169 209.25,-205"/>
<text text-anchor="start" x="83.75" y="-182.95" font-family="Times,serif" font-weight="bold" font-size="14.00">medicare.ps.record</text>
<polygon fill="none" stroke="black" points="78.75,-173.75 78.75,-200.25 201.25,-200.25 201.25,-173.75 78.75,-173.75"/>
</a>
</g>
</g>
<!-- medicare.ps.record&#45;&gt;medicare._ps.record -->
<g id="edge2" class="edge">
<title>medicare.ps.record&#45;&gt;medicare._ps.record</title>
<path fill="none" stroke="black" d="M140,-168.81C140,-161.23 140,-152.1 140,-143.54"/>
<polygon fill="black" stroke="black" points="143.5,-143.54 140,-133.54 136.5,-143.54 143.5,-143.54"/>
<text text-anchor="middle" x="159.5" y="-145.45" font-family="Times,serif" font-size="14.00">Copied</text>
</g>
<!-- medicare.ps.record_parent -->
<g id="node4" class="node">
<title>medicare.ps.record_parent</title>
<g id="a_node4"><a xlink:href="../medicare.ps/record.html" xlink:title="8 incoming links (columns)" target="_blank">
<path fill="yellow" stroke="black" d="M248,-340.18C248,-345.6 199.59,-350 140,-350 80.41,-350 32,-345.6 32,-340.18 32,-340.18 32,-251.82 32,-251.82 32,-246.4 80.41,-242 140,-242 199.59,-242 248,-246.4 248,-251.82 248,-251.82 248,-340.18 248,-340.18"/>
<path fill="none" stroke="black" d="M248,-340.18C248,-334.76 199.59,-330.36 140,-330.36 80.41,-330.36 32,-334.76 32,-340.18"/>
<text text-anchor="middle" x="140" y="-290.95" font-family="Times,serif" font-size="14.00">8 incoming links (columns)</text>
</a>
</g>
</g>
<!-- medicare.ps.record_parent&#45;&gt;medicare.ps.record -->
<g id="edge3" class="edge">
<title>medicare.ps.record_parent&#45;&gt;medicare.ps.record</title>
<path fill="none" stroke="goldenrod" stroke-width="6" d="M140,-241.5C140,-234.71 140,-227.92 140,-221.57"/>
<polygon fill="goldenrod" stroke="goldenrod" stroke-width="6" points="145.25,-221.65 140,-211.65 134.75,-221.65 145.25,-221.65"/>
</g>
</g>
</svg>
