<?xml version="1.0" encoding="UTF-8" standalone="no"?>
<!DOCTYPE svg PUBLIC "-//W3C//DTD SVG 1.1//EN"
 "http://www.w3.org/Graphics/SVG/1.1/DTD/svg11.dtd">
<!-- Generated by graphviz version 10.0.1 (20240210.2158)
 -->
<!-- Pages: 1 -->
<svg width="377pt" height="454pt"
 viewBox="0.00 0.00 376.75 454.00" xmlns="http://www.w3.org/2000/svg" xmlns:xlink="http://www.w3.org/1999/xlink">
<g id="graph0" class="graph" transform="scale(1 1) rotate(0) translate(4 450)">
<polygon fill="white" stroke="none" points="-4,4 -4,-450 372.75,-450 372.75,4 -4,4"/>
<!-- medicare.enrollments.record -->
<g id="node1" class="node">
<title>medicare.enrollments.record</title>
<g id="a_node1"><a xlink:href="../medicare.enrollments/record.html" xlink:title="&lt;TABLE&gt;" target="_blank">
<polygon fill="none" stroke="black" points="280,-59 0,-59 0,0 280,0 280,-59"/>
<text text-anchor="start" x="55.62" y="-37.7" font-family="Times,serif" font-weight="bold" font-size="14.00">medicare.enrollments.record</text>
<polygon fill="none" stroke="black" points="11,-7 11,-29.5 269,-29.5 269,-7 11,-7"/>
<text text-anchor="start" x="14" y="-13.2" font-family="Times,serif" font-size="14.00">string_agg(distinct RECORD::VARCHAR, &#39;,&#39;)</text>
<polygon fill="none" stroke="black" points="8,-4 8,-55 272,-55 272,-4 8,-4"/>
</a>
</g>
</g>
<!-- medicare._enrollments.record -->
<g id="node2" class="node">
<title>medicare._enrollments.record</title>
<g id="a_node2"><a xlink:href="../medicare._enrollments/record.html" xlink:title="&lt;TABLE&gt;" target="_blank">
<polygon fill="none" stroke="black" points="280,-155 0,-155 0,-96 280,-96 280,-155"/>
<text text-anchor="start" x="52.25" y="-133.7" font-family="Times,serif" font-weight="bold" font-size="14.00">medicare._enrollments.record</text>
<polygon fill="none" stroke="black" points="11,-103 11,-125.5 269,-125.5 269,-103 11,-103"/>
<text text-anchor="start" x="14" y="-109.2" font-family="Times,serif" font-size="14.00">string_agg(distinct RECORD::VARCHAR, &#39;,&#39;)</text>
<polygon fill="none" stroke="black" points="8,-100 8,-151 272,-151 272,-100 8,-100"/>
</a>
</g>
</g>
<!-- medicare._enrollments.record&#45;&gt;medicare.enrollments.record -->
<g id="edge1" class="edge">
<title>medicare._enrollments.record&#45;&gt;medicare.enrollments.record</title>
<path fill="none" stroke="black" d="M140,-95.53C140,-87.68 140,-79.05 140,-70.7"/>
<polygon fill="black" stroke="black" points="143.5,-70.73 140,-60.73 136.5,-70.73 143.5,-70.73"/>
<text text-anchor="middle" x="159.5" y="-72.45" font-family="Times,serif" font-size="14.00">Copied</text>
</g>
<!-- medicare._ps.record -->
<g id="node3" class="node">
<title>medicare._ps.record</title>
<g id="a_node3"><a xlink:href="../medicare._ps/record.html" xlink:title="&lt;TABLE&gt;" target="_blank">
<polygon fill="none" stroke="black" points="212.62,-228 67.38,-228 67.38,-192 212.62,-192 212.62,-228"/>
<text text-anchor="start" x="80.38" y="-205.95" font-family="Times,serif" font-weight="bold" font-size="14.00">medicare._ps.record</text>
<polygon fill="none" stroke="black" points="75.38,-196.75 75.38,-223.25 204.62,-223.25 204.62,-196.75 75.38,-196.75"/>
</a>
</g>
</g>
<!-- medicare._ps.record&#45;&gt;medicare._enrollments.record -->
<g id="edge2" class="edge">
<title>medicare._ps.record&#45;&gt;medicare._enrollments.record</title>
<path fill="none" stroke="blue" stroke-width="5" d="M140,-191.5C140,-185.52 140,-178.51 140,-171.37"/>
<polygon fill="blue" stroke="blue" stroke-width="5" points="144.38,-171.57 140,-161.57 135.63,-171.57 144.38,-171.57"/>
<text text-anchor="middle" x="254.38" y="-168.45" font-family="Times,serif" font-size="14.00">	 &#160;Aggregated On bene_id, year, state</text>
</g>
<!-- medicare.ps.record -->
<g id="node4" class="node">
<title>medicare.ps.record</title>
<g id="a_node4"><a xlink:href="../medicare.ps/record.html" xlink:title="&lt;TABLE&gt;" target="_blank">
<polygon fill="none" stroke="black" points="209.25,-301 70.75,-301 70.75,-265 209.25,-265 209.25,-301"/>
<text text-anchor="start" x="83.75" y="-278.95" font-family="Times,serif" font-weight="bold" font-size="14.00">medicare.ps.record</text>
<polygon fill="none" stroke="black" points="78.75,-269.75 78.75,-296.25 201.25,-296.25 201.25,-269.75 78.75,-269.75"/>
</a>
</g>
</g>
<!-- medicare.ps.record&#45;&gt;medicare._ps.record -->
<g id="edge3" class="edge">
<title>medicare.ps.record&#45;&gt;medicare._ps.record</title>
<path fill="none" stroke="black" d="M140,-264.81C140,-257.23 140,-248.1 140,-239.54"/>
<polygon fill="black" stroke="black" points="143.5,-239.54 140,-229.54 136.5,-239.54 143.5,-239.54"/>
<text text-anchor="middle" x="159.5" y="-241.45" font-family="Times,serif" font-size="14.00">Copied</text>
</g>
<!-- medicare.ps.record_parent -->
<g id="node5" class="node">
<title>medicare.ps.record_parent</title>
<g id="a_node5"><a xlink:href="../medicare.ps/record.html" xlink:title="8 incoming links (columns)" target="_blank">
<path fill="yellow" stroke="black" d="M248,-436.18C248,-441.6 199.59,-446 140,-446 80.41,-446 32,-441.6 32,-436.18 32,-436.18 32,-347.82 32,-347.82 32,-342.4 80.41,-338 140,-338 199.59,-338 248,-342.4 248,-347.82 248,-347.82 248,-436.18 248,-436.18"/>
<path fill="none" stroke="black" d="M248,-436.18C248,-430.76 199.59,-426.36 140,-426.36 80.41,-426.36 32,-430.76 32,-436.18"/>
<text text-anchor="middle" x="140" y="-386.95" font-family="Times,serif" font-size="14.00">8 incoming links (columns)</text>
</a>
</g>
</g>
<!-- medicare.ps.record_parent&#45;&gt;medicare.ps.record -->
<g id="edge4" class="edge">
<title>medicare.ps.record_parent&#45;&gt;medicare.ps.record</title>
<path fill="none" stroke="goldenrod" stroke-width="6" d="M140,-337.5C140,-330.71 140,-323.92 140,-317.57"/>
<polygon fill="goldenrod" stroke="goldenrod" stroke-width="6" points="145.25,-317.65 140,-307.65 134.75,-317.65 145.25,-317.65"/>
</g>
</g>
</svg>
