<?xml version="1.0" encoding="UTF-8" standalone="no"?>
<!DOCTYPE svg PUBLIC "-//W3C//DTD SVG 1.1//EN"
 "http://www.w3.org/Graphics/SVG/1.1/DTD/svg11.dtd">
<!-- Generated by graphviz version 10.0.1 (20240210.2158)
 -->
<!-- Pages: 1 -->
<svg width="377pt" height="725pt"
 viewBox="0.00 0.00 376.75 725.00" xmlns="http://www.w3.org/2000/svg" xmlns:xlink="http://www.w3.org/1999/xlink">
<g id="graph0" class="graph" transform="scale(1 1) rotate(0) translate(4 721)">
<polygon fill="white" stroke="none" points="-4,4 -4,-721 372.75,-721 372.75,4 -4,4"/>
<!-- medicare.enrollments.record -->
<g id="node1" class="node">
<title>medicare.enrollments.record</title>
<g id="a_node1"><a xlink:href="../medicare.enrollments/record.html" xlink:title="&lt;TABLE&gt;" target="_blank">
<polygon fill="none" stroke="black" points="280,-127.5 0,-127.5 0,0 280,0 280,-127.5"/>
<text text-anchor="start" x="55.62" y="-106.2" font-family="Times,serif" font-weight="bold" font-size="14.00">medicare.enrollments.record</text>
<text text-anchor="start" x="36" y="-59.7" font-family="Times,serif" font-size="14.00">Record number in the file</text>
<polygon fill="none" stroke="black" points="11,-7 11,-29.5 269,-29.5 269,-7 11,-7"/>
<text text-anchor="start" x="14" y="-13.2" font-family="Times,serif" font-size="14.00">string_agg(distinct RECORD::VARCHAR, &#39;,&#39;)</text>
<polygon fill="none" stroke="black" points="8,-4 8,-123.5 272,-123.5 272,-4 8,-4"/>
</a>
</g>
</g>
<!-- medicare._enrollments.record -->
<g id="node2" class="node">
<title>medicare._enrollments.record</title>
<g id="a_node2"><a xlink:href="../medicare._enrollments/record.html" xlink:title="&lt;TABLE&gt;" target="_blank">
<polygon fill="none" stroke="black" points="280,-292 0,-292 0,-164.5 280,-164.5 280,-292"/>
<text text-anchor="start" x="52.25" y="-270.7" font-family="Times,serif" font-weight="bold" font-size="14.00">medicare._enrollments.record</text>
<text text-anchor="start" x="36" y="-224.2" font-family="Times,serif" font-size="14.00">Record number in the file</text>
<polygon fill="none" stroke="black" points="11,-171.5 11,-194 269,-194 269,-171.5 11,-171.5"/>
<text text-anchor="start" x="14" y="-177.7" font-family="Times,serif" font-size="14.00">string_agg(distinct RECORD::VARCHAR, &#39;,&#39;)</text>
<polygon fill="none" stroke="black" points="8,-168.5 8,-288 272,-288 272,-168.5 8,-168.5"/>
</a>
</g>
</g>
<!-- medicare._enrollments.record&#45;&gt;medicare.enrollments.record -->
<g id="edge1" class="edge">
<title>medicare._enrollments.record&#45;&gt;medicare.enrollments.record</title>
<path fill="none" stroke="black" d="M140,-164.42C140,-156.2 140,-147.7 140,-139.3"/>
<polygon fill="black" stroke="black" points="143.5,-139.46 140,-129.46 136.5,-139.46 143.5,-139.46"/>
<text text-anchor="middle" x="159.5" y="-140.95" font-family="Times,serif" font-size="14.00">Copied</text>
</g>
<!-- medicare._ps.record -->
<g id="node3" class="node">
<title>medicare._ps.record</title>
<g id="a_node3"><a xlink:href="../medicare._ps/record.html" xlink:title="&lt;TABLE&gt;" target="_blank">
<polygon fill="none" stroke="black" points="246.5,-432 33.5,-432 33.5,-329 246.5,-329 246.5,-432"/>
<text text-anchor="start" x="80.38" y="-410.7" font-family="Times,serif" font-weight="bold" font-size="14.00">medicare._ps.record</text>
<text text-anchor="start" x="69.5" y="-364.2" font-family="Times,serif" font-size="14.00">Record number in the file</text>
<polygon fill="none" stroke="black" points="41.5,-333 41.5,-428 238.5,-428 238.5,-333 41.5,-333"/>
</a>
</g>
</g>
<!-- medicare._ps.record&#45;&gt;medicare._enrollments.record -->
<g id="edge2" class="edge">
<title>medicare._ps.record&#45;&gt;medicare._enrollments.record</title>
<path fill="none" stroke="blue" stroke-width="5" d="M140,-328.63C140,-322.07 140,-315.23 140,-308.35"/>
<polygon fill="blue" stroke="blue" stroke-width="5" points="144.38,-308.56 140,-298.56 135.63,-308.56 144.38,-308.56"/>
<text text-anchor="middle" x="254.38" y="-305.45" font-family="Times,serif" font-size="14.00">	 &#160;Aggregated On bene_id, year, state</text>
</g>
<!-- medicare.ps.record -->
<g id="node4" class="node">
<title>medicare.ps.record</title>
<g id="a_node4"><a xlink:href="../medicare.ps/record.html" xlink:title="&lt;TABLE&gt;" target="_blank">
<polygon fill="none" stroke="black" points="246.5,-572 33.5,-572 33.5,-469 246.5,-469 246.5,-572"/>
<text text-anchor="start" x="83.75" y="-550.7" font-family="Times,serif" font-weight="bold" font-size="14.00">medicare.ps.record</text>
<text text-anchor="start" x="69.5" y="-504.2" font-family="Times,serif" font-size="14.00">Record number in the file</text>
<polygon fill="none" stroke="black" points="41.5,-473 41.5,-568 238.5,-568 238.5,-473 41.5,-473"/>
</a>
</g>
</g>
<!-- medicare.ps.record&#45;&gt;medicare._ps.record -->
<g id="edge3" class="edge">
<title>medicare.ps.record&#45;&gt;medicare._ps.record</title>
<path fill="none" stroke="black" d="M140,-468.51C140,-460.38 140,-451.89 140,-443.54"/>
<polygon fill="black" stroke="black" points="143.5,-443.8 140,-433.8 136.5,-443.8 143.5,-443.8"/>
<text text-anchor="middle" x="159.5" y="-445.45" font-family="Times,serif" font-size="14.00">Copied</text>
</g>
<!-- medicare.ps.record_parent -->
<g id="node5" class="node">
<title>medicare.ps.record_parent</title>
<g id="a_node5"><a xlink:href="../medicare.ps/record.html" xlink:title="8 incoming links (columns)" target="_blank">
<path fill="yellow" stroke="black" d="M248,-707.18C248,-712.6 199.59,-717 140,-717 80.41,-717 32,-712.6 32,-707.18 32,-707.18 32,-618.82 32,-618.82 32,-613.4 80.41,-609 140,-609 199.59,-609 248,-613.4 248,-618.82 248,-618.82 248,-707.18 248,-707.18"/>
<path fill="none" stroke="black" d="M248,-707.18C248,-701.76 199.59,-697.36 140,-697.36 80.41,-697.36 32,-701.76 32,-707.18"/>
<text text-anchor="middle" x="140" y="-657.95" font-family="Times,serif" font-size="14.00">8 incoming links (columns)</text>
</a>
</g>
</g>
<!-- medicare.ps.record_parent&#45;&gt;medicare.ps.record -->
<g id="edge4" class="edge">
<title>medicare.ps.record_parent&#45;&gt;medicare.ps.record</title>
<path fill="none" stroke="goldenrod" stroke-width="6" d="M140,-608.88C140,-602.24 140,-595.39 140,-588.57"/>
<polygon fill="goldenrod" stroke="goldenrod" stroke-width="6" points="145.25,-588.82 140,-578.82 134.75,-588.82 145.25,-588.82"/>
</g>
</g>
</svg>
