<?xml version="1.0" encoding="UTF-8" standalone="no"?>
<!DOCTYPE svg PUBLIC "-//W3C//DTD SVG 1.1//EN"
 "http://www.w3.org/Graphics/SVG/1.1/DTD/svg11.dtd">
<!-- Generated by graphviz version 10.0.1 (20240210.2158)
 -->
<!-- Pages: 1 -->
<svg width="377pt" height="550pt"
 viewBox="0.00 0.00 376.75 550.00" xmlns="http://www.w3.org/2000/svg" xmlns:xlink="http://www.w3.org/1999/xlink">
<g id="graph0" class="graph" transform="scale(1 1) rotate(0) translate(4 546)">
<polygon fill="white" stroke="none" points="-4,4 -4,-546 372.75,-546 372.75,4 -4,4"/>
<!-- medicare.qc_enrl_bene.record -->
<g id="node1" class="node">
<title>medicare.qc_enrl_bene.record</title>
<g id="a_node1"><a xlink:href="../medicare.qc_enrl_bene/record.html" xlink:title="&lt;TABLE&gt;" target="_blank">
<polygon fill="none" stroke="black" points="280,-59 0,-59 0,0 280,0 280,-59"/>
<text text-anchor="start" x="51.5" y="-37.7" font-family="Times,serif" font-weight="bold" font-size="14.00">medicare.qc_enrl_bene.record</text>
<polygon fill="none" stroke="black" points="11,-7 11,-29.5 269,-29.5 269,-7 11,-7"/>
<text text-anchor="start" x="14" y="-13.2" font-family="Times,serif" font-size="14.00">string_agg(distinct RECORD::VARCHAR, &#39;,&#39;)</text>
<polygon fill="none" stroke="black" points="8,-4 8,-55 272,-55 272,-4 8,-4"/>
</a>
</g>
</g>
<!-- medicare.enrollments.record -->
<g id="node2" class="node">
<title>medicare.enrollments.record</title>
<g id="a_node2"><a xlink:href="../medicare.enrollments/record.html" xlink:title="&lt;TABLE&gt;" target="_blank">
<polygon fill="none" stroke="black" points="280,-155 0,-155 0,-96 280,-96 280,-155"/>
<text text-anchor="start" x="55.62" y="-133.7" font-family="Times,serif" font-weight="bold" font-size="14.00">medicare.enrollments.record</text>
<polygon fill="none" stroke="black" points="11,-103 11,-125.5 269,-125.5 269,-103 11,-103"/>
<text text-anchor="start" x="14" y="-109.2" font-family="Times,serif" font-size="14.00">string_agg(distinct RECORD::VARCHAR, &#39;,&#39;)</text>
<polygon fill="none" stroke="black" points="8,-100 8,-151 272,-151 272,-100 8,-100"/>
</a>
</g>
</g>
<!-- medicare.enrollments.record&#45;&gt;medicare.qc_enrl_bene.record -->
<g id="edge1" class="edge">
<title>medicare.enrollments.record&#45;&gt;medicare.qc_enrl_bene.record</title>
<path fill="none" stroke="black" d="M140,-95.53C140,-87.68 140,-79.05 140,-70.7"/>
<polygon fill="black" stroke="black" points="143.5,-70.73 140,-60.73 136.5,-70.73 143.5,-70.73"/>
<text text-anchor="middle" x="186.12" y="-72.45" font-family="Times,serif" font-size="14.00">	join natural</text>
</g>
<!-- medicare._enrollments.record -->
<g id="node3" class="node">
<title>medicare._enrollments.record</title>
<g id="a_node3"><a xlink:href="../medicare._enrollments/record.html" xlink:title="&lt;TABLE&gt;" target="_blank">
<polygon fill="none" stroke="black" points="280,-251 0,-251 0,-192 280,-192 280,-251"/>
<text text-anchor="start" x="52.25" y="-229.7" font-family="Times,serif" font-weight="bold" font-size="14.00">medicare._enrollments.record</text>
<polygon fill="none" stroke="black" points="11,-199 11,-221.5 269,-221.5 269,-199 11,-199"/>
<text text-anchor="start" x="14" y="-205.2" font-family="Times,serif" font-size="14.00">string_agg(distinct RECORD::VARCHAR, &#39;,&#39;)</text>
<polygon fill="none" stroke="black" points="8,-196 8,-247 272,-247 272,-196 8,-196"/>
</a>
</g>
</g>
<!-- medicare._enrollments.record&#45;&gt;medicare.enrollments.record -->
<g id="edge2" class="edge">
<title>medicare._enrollments.record&#45;&gt;medicare.enrollments.record</title>
<path fill="none" stroke="black" d="M140,-191.53C140,-183.68 140,-175.05 140,-166.7"/>
<polygon fill="black" stroke="black" points="143.5,-166.73 140,-156.73 136.5,-166.73 143.5,-166.73"/>
<text text-anchor="middle" x="159.5" y="-168.45" font-family="Times,serif" font-size="14.00">Copied</text>
</g>
<!-- medicare._ps.record -->
<g id="node4" class="node">
<title>medicare._ps.record</title>
<g id="a_node4"><a xlink:href="../medicare._ps/record.html" xlink:title="&lt;TABLE&gt;" target="_blank">
<polygon fill="none" stroke="black" points="212.62,-324 67.38,-324 67.38,-288 212.62,-288 212.62,-324"/>
<text text-anchor="start" x="80.38" y="-301.95" font-family="Times,serif" font-weight="bold" font-size="14.00">medicare._ps.record</text>
<polygon fill="none" stroke="black" points="75.38,-292.75 75.38,-319.25 204.62,-319.25 204.62,-292.75 75.38,-292.75"/>
</a>
</g>
</g>
<!-- medicare._ps.record&#45;&gt;medicare._enrollments.record -->
<g id="edge3" class="edge">
<title>medicare._ps.record&#45;&gt;medicare._enrollments.record</title>
<path fill="none" stroke="blue" stroke-width="5" d="M140,-287.5C140,-281.52 140,-274.51 140,-267.37"/>
<polygon fill="blue" stroke="blue" stroke-width="5" points="144.38,-267.57 140,-257.57 135.63,-267.57 144.38,-267.57"/>
<text text-anchor="middle" x="254.38" y="-264.45" font-family="Times,serif" font-size="14.00">	 &#160;Aggregated On bene_id, year, state</text>
</g>
<!-- medicare.ps.record -->
<g id="node5" class="node">
<title>medicare.ps.record</title>
<g id="a_node5"><a xlink:href="../medicare.ps/record.html" xlink:title="&lt;TABLE&gt;" target="_blank">
<polygon fill="none" stroke="black" points="209.25,-397 70.75,-397 70.75,-361 209.25,-361 209.25,-397"/>
<text text-anchor="start" x="83.75" y="-374.95" font-family="Times,serif" font-weight="bold" font-size="14.00">medicare.ps.record</text>
<polygon fill="none" stroke="black" points="78.75,-365.75 78.75,-392.25 201.25,-392.25 201.25,-365.75 78.75,-365.75"/>
</a>
</g>
</g>
<!-- medicare.ps.record&#45;&gt;medicare._ps.record -->
<g id="edge4" class="edge">
<title>medicare.ps.record&#45;&gt;medicare._ps.record</title>
<path fill="none" stroke="black" d="M140,-360.81C140,-353.23 140,-344.1 140,-335.54"/>
<polygon fill="black" stroke="black" points="143.5,-335.54 140,-325.54 136.5,-335.54 143.5,-335.54"/>
<text text-anchor="middle" x="159.5" y="-337.45" font-family="Times,serif" font-size="14.00">Copied</text>
</g>
<!-- medicare.ps.record_parent -->
<g id="node6" class="node">
<title>medicare.ps.record_parent</title>
<g id="a_node6"><a xlink:href="../medicare.ps/record.html" xlink:title="8 incoming links (columns)" target="_blank">
<path fill="yellow" stroke="black" d="M248,-532.18C248,-537.6 199.59,-542 140,-542 80.41,-542 32,-537.6 32,-532.18 32,-532.18 32,-443.82 32,-443.82 32,-438.4 80.41,-434 140,-434 199.59,-434 248,-438.4 248,-443.82 248,-443.82 248,-532.18 248,-532.18"/>
<path fill="none" stroke="black" d="M248,-532.18C248,-526.76 199.59,-522.36 140,-522.36 80.41,-522.36 32,-526.76 32,-532.18"/>
<text text-anchor="middle" x="140" y="-482.95" font-family="Times,serif" font-size="14.00">8 incoming links (columns)</text>
</a>
</g>
</g>
<!-- medicare.ps.record_parent&#45;&gt;medicare.ps.record -->
<g id="edge5" class="edge">
<title>medicare.ps.record_parent&#45;&gt;medicare.ps.record</title>
<path fill="none" stroke="goldenrod" stroke-width="6" d="M140,-433.5C140,-426.71 140,-419.92 140,-413.57"/>
<polygon fill="goldenrod" stroke="goldenrod" stroke-width="6" points="145.25,-413.65 140,-403.65 134.75,-413.65 145.25,-413.65"/>
</g>
</g>
</svg>
