<?xml version="1.0" encoding="UTF-8" standalone="no"?>
<!DOCTYPE svg PUBLIC "-//W3C//DTD SVG 1.1//EN"
 "http://www.w3.org/Graphics/SVG/1.1/DTD/svg11.dtd">
<!-- Generated by graphviz version 10.0.1 (20240210.2158)
 -->
<!-- Pages: 1 -->
<svg width="377pt" height="890pt"
 viewBox="0.00 0.00 376.75 889.50" xmlns="http://www.w3.org/2000/svg" xmlns:xlink="http://www.w3.org/1999/xlink">
<g id="graph0" class="graph" transform="scale(1 1) rotate(0) translate(4 885.5)">
<polygon fill="white" stroke="none" points="-4,4 -4,-885.5 372.75,-885.5 372.75,4 -4,4"/>
<!-- medicare.qc_enrl_bene.record -->
<g id="node1" class="node">
<title>medicare.qc_enrl_bene.record</title>
<g id="a_node1"><a xlink:href="../medicare.qc_enrl_bene/record.html" xlink:title="&lt;TABLE&gt;" target="_blank">
<polygon fill="none" stroke="black" points="280,-127.5 0,-127.5 0,0 280,0 280,-127.5"/>
<text text-anchor="start" x="51.5" y="-106.2" font-family="Times,serif" font-weight="bold" font-size="14.00">medicare.qc_enrl_bene.record</text>
<text text-anchor="start" x="36" y="-59.7" font-family="Times,serif" font-size="14.00">Record number in the file</text>
<polygon fill="none" stroke="black" points="11,-7 11,-29.5 269,-29.5 269,-7 11,-7"/>
<text text-anchor="start" x="14" y="-13.2" font-family="Times,serif" font-size="14.00">string_agg(distinct RECORD::VARCHAR, &#39;,&#39;)</text>
<polygon fill="none" stroke="black" points="8,-4 8,-123.5 272,-123.5 272,-4 8,-4"/>
</a>
</g>
</g>
<!-- medicare.enrollments.record -->
<g id="node2" class="node">
<title>medicare.enrollments.record</title>
<g id="a_node2"><a xlink:href="../medicare.enrollments/record.html" xlink:title="&lt;TABLE&gt;" target="_blank">
<polygon fill="none" stroke="black" points="280,-292 0,-292 0,-164.5 280,-164.5 280,-292"/>
<text text-anchor="start" x="55.62" y="-270.7" font-family="Times,serif" font-weight="bold" font-size="14.00">medicare.enrollments.record</text>
<text text-anchor="start" x="36" y="-224.2" font-family="Times,serif" font-size="14.00">Record number in the file</text>
<polygon fill="none" stroke="black" points="11,-171.5 11,-194 269,-194 269,-171.5 11,-171.5"/>
<text text-anchor="start" x="14" y="-177.7" font-family="Times,serif" font-size="14.00">string_agg(distinct RECORD::VARCHAR, &#39;,&#39;)</text>
<polygon fill="none" stroke="black" points="8,-168.5 8,-288 272,-288 272,-168.5 8,-168.5"/>
</a>
</g>
</g>
<!-- medicare.enrollments.record&#45;&gt;medicare.qc_enrl_bene.record -->
<g id="edge1" class="edge">
<title>medicare.enrollments.record&#45;&gt;medicare.qc_enrl_bene.record</title>
<path fill="none" stroke="black" d="M140,-164.42C140,-156.2 140,-147.7 140,-139.3"/>
<polygon fill="black" stroke="black" points="143.5,-139.46 140,-129.46 136.5,-139.46 143.5,-139.46"/>
<text text-anchor="middle" x="186.12" y="-140.95" font-family="Times,serif" font-size="14.00">	join natural</text>
</g>
<!-- medicare._enrollments.record -->
<g id="node3" class="node">
<title>medicare._enrollments.record</title>
<g id="a_node3"><a xlink:href="../medicare._enrollments/record.html" xlink:title="&lt;TABLE&gt;" target="_blank">
<polygon fill="none" stroke="black" points="280,-456.5 0,-456.5 0,-329 280,-329 280,-456.5"/>
<text text-anchor="start" x="52.25" y="-435.2" font-family="Times,serif" font-weight="bold" font-size="14.00">medicare._enrollments.record</text>
<text text-anchor="start" x="36" y="-388.7" font-family="Times,serif" font-size="14.00">Record number in the file</text>
<polygon fill="none" stroke="black" points="11,-336 11,-358.5 269,-358.5 269,-336 11,-336"/>
<text text-anchor="start" x="14" y="-342.2" font-family="Times,serif" font-size="14.00">string_agg(distinct RECORD::VARCHAR, &#39;,&#39;)</text>
<polygon fill="none" stroke="black" points="8,-333 8,-452.5 272,-452.5 272,-333 8,-333"/>
</a>
</g>
</g>
<!-- medicare._enrollments.record&#45;&gt;medicare.enrollments.record -->
<g id="edge2" class="edge">
<title>medicare._enrollments.record&#45;&gt;medicare.enrollments.record</title>
<path fill="none" stroke="black" d="M140,-328.92C140,-320.7 140,-312.2 140,-303.8"/>
<polygon fill="black" stroke="black" points="143.5,-303.96 140,-293.96 136.5,-303.96 143.5,-303.96"/>
<text text-anchor="middle" x="159.5" y="-305.45" font-family="Times,serif" font-size="14.00">Copied</text>
</g>
<!-- medicare._ps.record -->
<g id="node4" class="node">
<title>medicare._ps.record</title>
<g id="a_node4"><a xlink:href="../medicare._ps/record.html" xlink:title="&lt;TABLE&gt;" target="_blank">
<polygon fill="none" stroke="black" points="246.5,-596.5 33.5,-596.5 33.5,-493.5 246.5,-493.5 246.5,-596.5"/>
<text text-anchor="start" x="80.38" y="-575.2" font-family="Times,serif" font-weight="bold" font-size="14.00">medicare._ps.record</text>
<text text-anchor="start" x="69.5" y="-528.7" font-family="Times,serif" font-size="14.00">Record number in the file</text>
<polygon fill="none" stroke="black" points="41.5,-497.5 41.5,-592.5 238.5,-592.5 238.5,-497.5 41.5,-497.5"/>
</a>
</g>
</g>
<!-- medicare._ps.record&#45;&gt;medicare._enrollments.record -->
<g id="edge3" class="edge">
<title>medicare._ps.record&#45;&gt;medicare._enrollments.record</title>
<path fill="none" stroke="blue" stroke-width="5" d="M140,-493.13C140,-486.57 140,-479.73 140,-472.85"/>
<polygon fill="blue" stroke="blue" stroke-width="5" points="144.38,-473.06 140,-463.06 135.63,-473.06 144.38,-473.06"/>
<text text-anchor="middle" x="254.38" y="-469.95" font-family="Times,serif" font-size="14.00">	 &#160;Aggregated On bene_id, year, state</text>
</g>
<!-- medicare.ps.record -->
<g id="node5" class="node">
<title>medicare.ps.record</title>
<g id="a_node5"><a xlink:href="../medicare.ps/record.html" xlink:title="&lt;TABLE&gt;" target="_blank">
<polygon fill="none" stroke="black" points="246.5,-736.5 33.5,-736.5 33.5,-633.5 246.5,-633.5 246.5,-736.5"/>
<text text-anchor="start" x="83.75" y="-715.2" font-family="Times,serif" font-weight="bold" font-size="14.00">medicare.ps.record</text>
<text text-anchor="start" x="69.5" y="-668.7" font-family="Times,serif" font-size="14.00">Record number in the file</text>
<polygon fill="none" stroke="black" points="41.5,-637.5 41.5,-732.5 238.5,-732.5 238.5,-637.5 41.5,-637.5"/>
</a>
</g>
</g>
<!-- medicare.ps.record&#45;&gt;medicare._ps.record -->
<g id="edge4" class="edge">
<title>medicare.ps.record&#45;&gt;medicare._ps.record</title>
<path fill="none" stroke="black" d="M140,-633.01C140,-624.88 140,-616.39 140,-608.04"/>
<polygon fill="black" stroke="black" points="143.5,-608.3 140,-598.3 136.5,-608.3 143.5,-608.3"/>
<text text-anchor="middle" x="159.5" y="-609.95" font-family="Times,serif" font-size="14.00">Copied</text>
</g>
<!-- medicare.ps.record_parent -->
<g id="node6" class="node">
<title>medicare.ps.record_parent</title>
<g id="a_node6"><a xlink:href="../medicare.ps/record.html" xlink:title="8 incoming links (columns)" target="_blank">
<path fill="yellow" stroke="black" d="M248,-871.68C248,-877.1 199.59,-881.5 140,-881.5 80.41,-881.5 32,-877.1 32,-871.68 32,-871.68 32,-783.32 32,-783.32 32,-777.9 80.41,-773.5 140,-773.5 199.59,-773.5 248,-777.9 248,-783.32 248,-783.32 248,-871.68 248,-871.68"/>
<path fill="none" stroke="black" d="M248,-871.68C248,-866.26 199.59,-861.86 140,-861.86 80.41,-861.86 32,-866.26 32,-871.68"/>
<text text-anchor="middle" x="140" y="-822.45" font-family="Times,serif" font-size="14.00">8 incoming links (columns)</text>
</a>
</g>
</g>
<!-- medicare.ps.record_parent&#45;&gt;medicare.ps.record -->
<g id="edge5" class="edge">
<title>medicare.ps.record_parent&#45;&gt;medicare.ps.record</title>
<path fill="none" stroke="goldenrod" stroke-width="6" d="M140,-773.38C140,-766.74 140,-759.89 140,-753.07"/>
<polygon fill="goldenrod" stroke="goldenrod" stroke-width="6" points="145.25,-753.32 140,-743.32 134.75,-753.32 145.25,-753.32"/>
</g>
</g>
</svg>
