<?xml version="1.0" encoding="UTF-8" standalone="no"?>
<!DOCTYPE svg PUBLIC "-//W3C//DTD SVG 1.1//EN"
 "http://www.w3.org/Graphics/SVG/1.1/DTD/svg11.dtd">
<!-- Generated by graphviz version 10.0.1 (20240210.2158)
 -->
<!-- Pages: 1 -->
<svg width="1918pt" height="698pt"
 viewBox="0.00 0.00 1918.38 697.50" xmlns="http://www.w3.org/2000/svg" xmlns:xlink="http://www.w3.org/1999/xlink">
<g id="graph0" class="graph" transform="scale(1 1) rotate(0) translate(4 693.5)">
<polygon fill="white" stroke="none" points="-4,4 -4,-693.5 1914.38,-693.5 1914.38,4 -4,4"/>
<!-- medicare.qc_enrl_bene.residence_counties -->
<g id="node1" class="node">
<title>medicare.qc_enrl_bene.residence_counties</title>
<g id="a_node1"><a xlink:href="../medicare.qc_enrl_bene/residence_counties.html" xlink:title="&lt;TABLE&gt;" target="_blank">
<polygon fill="none" stroke="black" points="1055.62,-59 782.88,-59 782.88,0 1055.62,0 1055.62,-59"/>
<text text-anchor="start" x="795.88" y="-37.7" font-family="Times,serif" font-weight="bold" font-size="14.00">medicare.qc_enrl_bene.residence_counties</text>
<polygon fill="none" stroke="black" points="793.88,-7 793.88,-29.5 1044.62,-29.5 1044.62,-7 793.88,-7"/>
<text text-anchor="start" x="796.88" y="-13.2" font-family="Times,serif" font-size="14.00">string_agg(distinct fips3_list, &#39;,&#39;)</text>
<polygon fill="none" stroke="black" points="790.88,-4 790.88,-55 1047.62,-55 1047.62,-4 790.88,-4"/>
</a>
</g>
</g>
<!-- medicare.enrollments.residence_counties -->
<g id="node2" class="node">
<title>medicare.enrollments.residence_counties</title>
<g id="a_node2"><a xlink:href="../medicare.enrollments/residence_counties.html" xlink:title="&lt;TABLE&gt;" target="_blank">
<polygon fill="none" stroke="black" points="1051.5,-155 787,-155 787,-96 1051.5,-96 1051.5,-155"/>
<text text-anchor="start" x="800" y="-133.7" font-family="Times,serif" font-weight="bold" font-size="14.00">medicare.enrollments.residence_counties</text>
<polygon fill="none" stroke="black" points="798,-103 798,-125.5 1040.5,-125.5 1040.5,-103 798,-103"/>
<text text-anchor="start" x="801" y="-109.2" font-family="Times,serif" font-size="14.00">string_agg(distinct fips3_list, &#39;,&#39;)</text>
<polygon fill="none" stroke="black" points="795,-100 795,-151 1043.5,-151 1043.5,-100 795,-100"/>
</a>
</g>
</g>
<!-- medicare.enrollments.residence_counties&#45;&gt;medicare.qc_enrl_bene.residence_counties -->
<g id="edge1" class="edge">
<title>medicare.enrollments.residence_counties&#45;&gt;medicare.qc_enrl_bene.residence_counties</title>
<path fill="none" stroke="black" d="M919.25,-95.53C919.25,-87.68 919.25,-79.05 919.25,-70.7"/>
<polygon fill="black" stroke="black" points="922.75,-70.73 919.25,-60.73 915.75,-70.73 922.75,-70.73"/>
<text text-anchor="middle" x="965.38" y="-72.45" font-family="Times,serif" font-size="14.00">	join natural</text>
</g>
<!-- medicare._enrollments.residence_counties -->
<g id="node3" class="node">
<title>medicare._enrollments.residence_counties</title>
<g id="a_node3"><a xlink:href="../medicare._enrollments/residence_counties.html" xlink:title="&lt;TABLE&gt;" target="_blank">
<polygon fill="none" stroke="black" points="1054.88,-251 783.62,-251 783.62,-192 1054.88,-192 1054.88,-251"/>
<text text-anchor="start" x="796.62" y="-229.7" font-family="Times,serif" font-weight="bold" font-size="14.00">medicare._enrollments.residence_counties</text>
<polygon fill="none" stroke="black" points="794.62,-199 794.62,-221.5 1043.88,-221.5 1043.88,-199 794.62,-199"/>
<text text-anchor="start" x="797.62" y="-205.2" font-family="Times,serif" font-size="14.00">string_agg(distinct fips3_list, &#39;,&#39;)</text>
<polygon fill="none" stroke="black" points="791.62,-196 791.62,-247 1046.88,-247 1046.88,-196 791.62,-196"/>
</a>
</g>
</g>
<!-- medicare._enrollments.residence_counties&#45;&gt;medicare.enrollments.residence_counties -->
<g id="edge2" class="edge">
<title>medicare._enrollments.residence_counties&#45;&gt;medicare.enrollments.residence_counties</title>
<path fill="none" stroke="black" d="M919.25,-191.53C919.25,-183.68 919.25,-175.05 919.25,-166.7"/>
<polygon fill="black" stroke="black" points="922.75,-166.73 919.25,-156.73 915.75,-166.73 922.75,-166.73"/>
<text text-anchor="middle" x="938.75" y="-168.45" font-family="Times,serif" font-size="14.00">Copied</text>
</g>
<!-- medicare._ps.fips3_list -->
<g id="node4" class="node">
<title>medicare._ps.fips3_list</title>
<g id="a_node4"><a xlink:href="../medicare._ps/fips3_list.html" xlink:title="&lt;TABLE&gt;" target="_blank">
<polygon fill="none" stroke="black" points="1838.5,-347 0,-347 0,-288 1838.5,-288 1838.5,-347"/>
<text text-anchor="start" x="852.88" y="-325.7" font-family="Times,serif" font-weight="bold" font-size="14.00">medicare._ps.fips3_list</text>
<polygon fill="none" stroke="black" points="11,-295 11,-317.5 1827.5,-317.5 1827.5,-295 11,-295"/>
<text text-anchor="start" x="14" y="-301.2" font-family="Times,serif" font-size="14.00">CASE WHEN year &gt; 2010 THEN (SELECT string_agg(distinct fips3::varchar, &#39;,&#39;) from public.ssa as s where ps.ssa3 = s.ssa3 and ps.year = s.year and ps.fips2 = s.fips2) &#160;&#160;&#160;ELSE (SELECT string_agg(distinct fips3::varchar, &#39;,&#39;) from public.ssa as s where ps.ssa3 = s.ssa3 and 2003 = s.year and ps.fips2 = s.fips2) END AS fips3_list</text>
<polygon fill="none" stroke="black" points="8,-292 8,-343 1830.5,-343 1830.5,-292 8,-292"/>
</a>
</g>
</g>
<!-- medicare._ps.fips3_list&#45;&gt;medicare._enrollments.residence_counties -->
<g id="edge3" class="edge">
<title>medicare._ps.fips3_list&#45;&gt;medicare._enrollments.residence_counties</title>
<path fill="none" stroke="blue" stroke-width="5" d="M919.25,-287.53C919.25,-281.13 919.25,-274.2 919.25,-267.33"/>
<polygon fill="blue" stroke="blue" stroke-width="5" points="923.63,-267.45 919.25,-257.45 914.88,-267.45 923.63,-267.45"/>
<text text-anchor="middle" x="1033.62" y="-264.45" font-family="Times,serif" font-size="14.00">	 &#160;Aggregated On bene_id, year, state</text>
</g>
<!-- medicare.ps.ssa3 -->
<g id="node5" class="node">
<title>medicare.ps.ssa3</title>
<g id="a_node5"><a xlink:href="../medicare.ps/ssa3.html" xlink:title="&lt;TABLE&gt;" target="_blank">
<polygon fill="none" stroke="black" points="342,-524 64.5,-524 64.5,-404.5 342,-404.5 342,-524"/>
<text text-anchor="start" x="154.12" y="-502.7" font-family="Times,serif" font-weight="bold" font-size="14.00">medicare.ps.ssa3</text>
<text text-anchor="start" x="100.5" y="-456.2" font-family="Times,serif" font-size="14.00">Social Security Administration (SSA)</text>
<text text-anchor="start" x="130.88" y="-439.7" font-family="Times,serif" font-size="14.00">three digit code for county</text>
<polygon fill="none" stroke="black" points="72.5,-408.5 72.5,-520 334,-520 334,-408.5 72.5,-408.5"/>
</a>
</g>
</g>
<!-- medicare.ps.ssa3&#45;&gt;medicare._ps.fips3_list -->
<g id="edge4" class="edge">
<title>medicare.ps.ssa3&#45;&gt;medicare._ps.fips3_list</title>
<path fill="none" stroke="black" d="M301.73,-404.01C317.85,-396.23 334.7,-389.18 351.25,-384 397.27,-369.6 446.28,-358.31 495.48,-349.46"/>
<polygon fill="black" stroke="black" points="495.91,-352.94 505.15,-347.76 494.7,-346.05 495.91,-352.94"/>
<text text-anchor="middle" x="457.88" y="-360.45" font-family="Times,serif" font-size="14.00"> &#160;Transformed</text>
</g>
<!-- medicare.ps.ssa3_parent -->
<g id="node6" class="node">
<title>medicare.ps.ssa3_parent</title>
<g id="a_node6"><a xlink:href="../medicare.ps/ssa3.html" xlink:title="8 incoming links (columns)" target="_blank">
<path fill="yellow" stroke="black" d="M311.25,-679.68C311.25,-685.1 262.84,-689.5 203.25,-689.5 143.66,-689.5 95.25,-685.1 95.25,-679.68 95.25,-679.68 95.25,-591.32 95.25,-591.32 95.25,-585.9 143.66,-581.5 203.25,-581.5 262.84,-581.5 311.25,-585.9 311.25,-591.32 311.25,-591.32 311.25,-679.68 311.25,-679.68"/>
<path fill="none" stroke="black" d="M311.25,-679.68C311.25,-674.26 262.84,-669.86 203.25,-669.86 143.66,-669.86 95.25,-674.26 95.25,-679.68"/>
<text text-anchor="middle" x="203.25" y="-630.45" font-family="Times,serif" font-size="14.00">8 incoming links (columns)</text>
</a>
</g>
</g>
<!-- medicare.ps.ssa3_parent&#45;&gt;medicare.ps.ssa3 -->
<g id="edge5" class="edge">
<title>medicare.ps.ssa3_parent&#45;&gt;medicare.ps.ssa3</title>
<path fill="none" stroke="goldenrod" stroke-width="6" d="M203.25,-581.41C203.25,-568.38 203.25,-554.19 203.25,-540.34"/>
<polygon fill="goldenrod" stroke="goldenrod" stroke-width="6" points="208.5,-540.79 203.25,-530.79 198,-540.79 208.5,-540.79"/>
</g>
<!-- medicare.ps.year -->
<g id="node7" class="node">
<title>medicare.ps.year</title>
<g id="a_node7"><a xlink:href="../medicare.ps/year.html" xlink:title="&lt;TABLE&gt;" target="_blank">
<polygon fill="none" stroke="black" points="1478.12,-528 360.38,-528 360.38,-400.5 1478.12,-400.5 1478.12,-528"/>
<text text-anchor="start" x="869.38" y="-506.7" font-family="Times,serif" font-weight="bold" font-size="14.00">medicare.ps.year</text>
<text text-anchor="start" x="396.38" y="-460.2" font-family="Times,serif" font-size="14.00">Beneficiary Enrollment Reference Year</text>
<polygon fill="none" stroke="black" points="371.38,-407.5 371.38,-430 1467.12,-430 1467.12,-407.5 371.38,-407.5"/>
<text text-anchor="start" x="374.38" y="-413.7" font-family="Times,serif" font-size="14.00">(CASE WHEN &quot;year&quot;::int &lt; 20 THEN (2000 + &quot;year&quot;::int) WHEN (20 &lt; &quot;year&quot;::int AND &quot;year&quot;::int &lt; 100) THEN (1900 + &quot;year&quot;::int) WHEN &quot;year&quot; IS NULL THEN 2000 ELSE &quot;year&quot;::int END)</text>
<polygon fill="none" stroke="black" points="368.38,-404.5 368.38,-524 1470.12,-524 1470.12,-404.5 368.38,-404.5"/>
</a>
</g>
</g>
<!-- medicare.ps.year&#45;&gt;medicare._ps.fips3_list -->
<g id="edge6" class="edge">
<title>medicare.ps.year&#45;&gt;medicare._ps.fips3_list</title>
<path fill="none" stroke="black" d="M919.25,-400.18C919.25,-386.07 919.25,-371.47 919.25,-358.59"/>
<polygon fill="black" stroke="black" points="922.75,-358.82 919.25,-348.82 915.75,-358.82 922.75,-358.82"/>
<text text-anchor="middle" x="957.88" y="-360.45" font-family="Times,serif" font-size="14.00"> &#160;Transformed</text>
</g>
<!-- medicare.ps.year_parent -->
<g id="node8" class="node">
<title>medicare.ps.year_parent</title>
<g id="a_node8"><a xlink:href="../medicare.ps/year.html" xlink:title="8 incoming links (columns)" target="_blank">
<path fill="yellow" stroke="black" d="M1027.25,-679.68C1027.25,-685.1 978.84,-689.5 919.25,-689.5 859.66,-689.5 811.25,-685.1 811.25,-679.68 811.25,-679.68 811.25,-591.32 811.25,-591.32 811.25,-585.9 859.66,-581.5 919.25,-581.5 978.84,-581.5 1027.25,-585.9 1027.25,-591.32 1027.25,-591.32 1027.25,-679.68 1027.25,-679.68"/>
<path fill="none" stroke="black" d="M1027.25,-679.68C1027.25,-674.26 978.84,-669.86 919.25,-669.86 859.66,-669.86 811.25,-674.26 811.25,-679.68"/>
<text text-anchor="middle" x="919.25" y="-630.45" font-family="Times,serif" font-size="14.00">8 incoming links (columns)</text>
</a>
</g>
</g>
<!-- medicare.ps.year_parent&#45;&gt;medicare.ps.year -->
<g id="edge7" class="edge">
<title>medicare.ps.year_parent&#45;&gt;medicare.ps.year</title>
<path fill="none" stroke="goldenrod" stroke-width="6" d="M919.25,-581.41C919.25,-569.68 919.25,-557.01 919.25,-544.5"/>
<polygon fill="goldenrod" stroke="goldenrod" stroke-width="6" points="924.5,-544.68 919.25,-534.68 914,-544.68 924.5,-544.68"/>
</g>
<!-- medicare.ps.fips2 -->
<g id="node9" class="node">
<title>medicare.ps.fips2</title>
<g id="a_node9"><a xlink:href="../medicare.ps/fips2.html" xlink:title="&lt;TABLE&gt;" target="_blank">
<polygon fill="none" stroke="black" points="1910.38,-544.5 1496.12,-544.5 1496.12,-384 1910.38,-384 1910.38,-544.5"/>
<text text-anchor="start" x="1652.25" y="-523.2" font-family="Times,serif" font-weight="bold" font-size="14.00">medicare.ps.fips2</text>
<text text-anchor="start" x="1543.75" y="-476.7" font-family="Times,serif" font-size="14.00">2 digit state FIPS, see https://en.wikip</text>
<text text-anchor="start" x="1532.12" y="-460.2" font-family="Times,serif" font-size="14.00">edia.org/wiki/Federal_Information_Proces</text>
<text text-anchor="start" x="1577.12" y="-443.7" font-family="Times,serif" font-size="14.00">sing_Standard_state_code</text>
<polygon fill="none" stroke="black" points="1507.12,-391 1507.12,-413.5 1899.38,-413.5 1899.38,-391 1507.12,-391"/>
<text text-anchor="start" x="1510.12" y="-397.2" font-family="Times,serif" font-size="14.00">(SELECT fips2 FROM public.us_states as s WHERE s.ssa2 = &quot;state&quot;)</text>
<polygon fill="none" stroke="black" points="1504.12,-388 1504.12,-540.5 1902.38,-540.5 1902.38,-388 1504.12,-388"/>
</a>
</g>
</g>
<!-- medicare.ps.fips2&#45;&gt;medicare._ps.fips3_list -->
<g id="edge8" class="edge">
<title>medicare.ps.fips2&#45;&gt;medicare._ps.fips3_list</title>
<path fill="none" stroke="black" d="M1495.74,-386.08C1492.9,-385.36 1490.07,-384.67 1487.25,-384 1425.4,-369.31 1358.94,-357.87 1294.06,-348.97"/>
<polygon fill="black" stroke="black" points="1294.7,-345.52 1284.32,-347.65 1293.76,-352.46 1294.7,-345.52"/>
<text text-anchor="middle" x="1434.88" y="-360.45" font-family="Times,serif" font-size="14.00"> &#160;Transformed</text>
</g>
</g>
</svg>
