<?xml version="1.0" encoding="UTF-8" standalone="no"?>
<!DOCTYPE svg PUBLIC "-//W3C//DTD SVG 1.1//EN"
 "http://www.w3.org/Graphics/SVG/1.1/DTD/svg11.dtd">
<!-- Generated by graphviz version 10.0.1 (20240210.2158)
 -->
<!-- Pages: 1 -->
<svg width="2270pt" height="698pt"
 viewBox="0.00 0.00 2270.12 697.50" xmlns="http://www.w3.org/2000/svg" xmlns:xlink="http://www.w3.org/1999/xlink">
<g id="graph0" class="graph" transform="scale(1 1) rotate(0) translate(4 693.5)">
<polygon fill="white" stroke="none" points="-4,4 -4,-693.5 2266.12,-693.5 2266.12,4 -4,4"/>
<!-- medicare.qc_enrl_bene.residence_counties -->
<g id="node1" class="node">
<title>medicare.qc_enrl_bene.residence_counties</title>
<g id="a_node1"><a xlink:href="../medicare.qc_enrl_bene/residence_counties.html" xlink:title="&lt;TABLE&gt;" target="_blank">
<polygon fill="none" stroke="black" points="1479.25,-59 1206.5,-59 1206.5,0 1479.25,0 1479.25,-59"/>
<text text-anchor="start" x="1219.5" y="-37.7" font-family="Times,serif" font-weight="bold" font-size="14.00">medicare.qc_enrl_bene.residence_counties</text>
<polygon fill="none" stroke="black" points="1217.5,-7 1217.5,-29.5 1468.25,-29.5 1468.25,-7 1217.5,-7"/>
<text text-anchor="start" x="1220.5" y="-13.2" font-family="Times,serif" font-size="14.00">string_agg(distinct fips3_list, &#39;,&#39;)</text>
<polygon fill="none" stroke="black" points="1214.5,-4 1214.5,-55 1471.25,-55 1471.25,-4 1214.5,-4"/>
</a>
</g>
</g>
<!-- medicare.enrollments.residence_counties -->
<g id="node2" class="node">
<title>medicare.enrollments.residence_counties</title>
<g id="a_node2"><a xlink:href="../medicare.enrollments/residence_counties.html" xlink:title="&lt;TABLE&gt;" target="_blank">
<polygon fill="none" stroke="black" points="1475.12,-155 1210.62,-155 1210.62,-96 1475.12,-96 1475.12,-155"/>
<text text-anchor="start" x="1223.62" y="-133.7" font-family="Times,serif" font-weight="bold" font-size="14.00">medicare.enrollments.residence_counties</text>
<polygon fill="none" stroke="black" points="1221.62,-103 1221.62,-125.5 1464.12,-125.5 1464.12,-103 1221.62,-103"/>
<text text-anchor="start" x="1224.62" y="-109.2" font-family="Times,serif" font-size="14.00">string_agg(distinct fips3_list, &#39;,&#39;)</text>
<polygon fill="none" stroke="black" points="1218.62,-100 1218.62,-151 1467.12,-151 1467.12,-100 1218.62,-100"/>
</a>
</g>
</g>
<!-- medicare.enrollments.residence_counties&#45;&gt;medicare.qc_enrl_bene.residence_counties -->
<g id="edge1" class="edge">
<title>medicare.enrollments.residence_counties&#45;&gt;medicare.qc_enrl_bene.residence_counties</title>
<path fill="none" stroke="black" d="M1342.88,-95.53C1342.88,-87.68 1342.88,-79.05 1342.88,-70.7"/>
<polygon fill="black" stroke="black" points="1346.38,-70.73 1342.88,-60.73 1339.38,-70.73 1346.38,-70.73"/>
<text text-anchor="middle" x="1389" y="-72.45" font-family="Times,serif" font-size="14.00">	join natural</text>
</g>
<!-- medicare._enrollments.residence_counties -->
<g id="node3" class="node">
<title>medicare._enrollments.residence_counties</title>
<g id="a_node3"><a xlink:href="../medicare._enrollments/residence_counties.html" xlink:title="&lt;TABLE&gt;" target="_blank">
<polygon fill="none" stroke="black" points="1478.5,-251 1207.25,-251 1207.25,-192 1478.5,-192 1478.5,-251"/>
<text text-anchor="start" x="1220.25" y="-229.7" font-family="Times,serif" font-weight="bold" font-size="14.00">medicare._enrollments.residence_counties</text>
<polygon fill="none" stroke="black" points="1218.25,-199 1218.25,-221.5 1467.5,-221.5 1467.5,-199 1218.25,-199"/>
<text text-anchor="start" x="1221.25" y="-205.2" font-family="Times,serif" font-size="14.00">string_agg(distinct fips3_list, &#39;,&#39;)</text>
<polygon fill="none" stroke="black" points="1215.25,-196 1215.25,-247 1470.5,-247 1470.5,-196 1215.25,-196"/>
</a>
</g>
</g>
<!-- medicare._enrollments.residence_counties&#45;&gt;medicare.enrollments.residence_counties -->
<g id="edge2" class="edge">
<title>medicare._enrollments.residence_counties&#45;&gt;medicare.enrollments.residence_counties</title>
<path fill="none" stroke="black" d="M1342.88,-191.53C1342.88,-183.68 1342.88,-175.05 1342.88,-166.7"/>
<polygon fill="black" stroke="black" points="1346.38,-166.73 1342.88,-156.73 1339.38,-166.73 1346.38,-166.73"/>
<text text-anchor="middle" x="1362.38" y="-168.45" font-family="Times,serif" font-size="14.00">Copied</text>
</g>
<!-- medicare._ps.fips3_list -->
<g id="node4" class="node">
<title>medicare._ps.fips3_list</title>
<g id="a_node4"><a xlink:href="../medicare._ps/fips3_list.html" xlink:title="&lt;TABLE&gt;" target="_blank">
<polygon fill="none" stroke="black" points="2262.12,-347 423.62,-347 423.62,-288 2262.12,-288 2262.12,-347"/>
<text text-anchor="start" x="1276.5" y="-325.7" font-family="Times,serif" font-weight="bold" font-size="14.00">medicare._ps.fips3_list</text>
<polygon fill="none" stroke="black" points="434.62,-295 434.62,-317.5 2251.12,-317.5 2251.12,-295 434.62,-295"/>
<text text-anchor="start" x="437.62" y="-301.2" font-family="Times,serif" font-size="14.00">CASE WHEN year &gt; 2010 THEN (SELECT string_agg(distinct fips3::varchar, &#39;,&#39;) from public.ssa as s where ps.ssa3 = s.ssa3 and ps.year = s.year and ps.fips2 = s.fips2) &#160;&#160;&#160;ELSE (SELECT string_agg(distinct fips3::varchar, &#39;,&#39;) from public.ssa as s where ps.ssa3 = s.ssa3 and 2003 = s.year and ps.fips2 = s.fips2) END AS fips3_list</text>
<polygon fill="none" stroke="black" points="431.62,-292 431.62,-343 2254.12,-343 2254.12,-292 431.62,-292"/>
</a>
</g>
</g>
<!-- medicare._ps.fips3_list&#45;&gt;medicare._enrollments.residence_counties -->
<g id="edge3" class="edge">
<title>medicare._ps.fips3_list&#45;&gt;medicare._enrollments.residence_counties</title>
<path fill="none" stroke="blue" stroke-width="5" d="M1342.88,-287.53C1342.88,-281.13 1342.88,-274.2 1342.88,-267.33"/>
<polygon fill="blue" stroke="blue" stroke-width="5" points="1347.25,-267.45 1342.88,-257.45 1338.5,-267.45 1347.25,-267.45"/>
<text text-anchor="middle" x="1457.25" y="-264.45" font-family="Times,serif" font-size="14.00">	 &#160;Aggregated On bene_id, year, state</text>
</g>
<!-- medicare.ps.year -->
<g id="node5" class="node">
<title>medicare.ps.year</title>
<g id="a_node5"><a xlink:href="../medicare.ps/year.html" xlink:title="&lt;TABLE&gt;" target="_blank">
<polygon fill="none" stroke="black" points="1117.75,-493.75 0,-493.75 0,-434.75 1117.75,-434.75 1117.75,-493.75"/>
<text text-anchor="start" x="509" y="-472.45" font-family="Times,serif" font-weight="bold" font-size="14.00">medicare.ps.year</text>
<polygon fill="none" stroke="black" points="11,-441.75 11,-464.25 1106.75,-464.25 1106.75,-441.75 11,-441.75"/>
<text text-anchor="start" x="14" y="-447.95" font-family="Times,serif" font-size="14.00">(CASE WHEN &quot;year&quot;::int &lt; 20 THEN (2000 + &quot;year&quot;::int) WHEN (20 &lt; &quot;year&quot;::int AND &quot;year&quot;::int &lt; 100) THEN (1900 + &quot;year&quot;::int) WHEN &quot;year&quot; IS NULL THEN 2000 ELSE &quot;year&quot;::int END)</text>
<polygon fill="none" stroke="black" points="8,-438.75 8,-489.75 1109.75,-489.75 1109.75,-438.75 8,-438.75"/>
</a>
</g>
</g>
<!-- medicare.ps.year&#45;&gt;medicare._ps.fips3_list -->
<g id="edge4" class="edge">
<title>medicare.ps.year&#45;&gt;medicare._ps.fips3_list</title>
<path fill="none" stroke="black" d="M715.64,-434.31C848.67,-409.75 1039.04,-374.6 1175.11,-349.47"/>
<polygon fill="black" stroke="black" points="1175.36,-352.99 1184.55,-347.73 1174.08,-346.1 1175.36,-352.99"/>
<text text-anchor="middle" x="1128.5" y="-360.45" font-family="Times,serif" font-size="14.00"> &#160;Transformed</text>
</g>
<!-- medicare.ps.year_parent -->
<g id="node6" class="node">
<title>medicare.ps.year_parent</title>
<g id="a_node6"><a xlink:href="../medicare.ps/year.html" xlink:title="8 incoming links (columns)" target="_blank">
<path fill="yellow" stroke="black" d="M666.88,-679.68C666.88,-685.1 618.47,-689.5 558.88,-689.5 499.28,-689.5 450.88,-685.1 450.88,-679.68 450.88,-679.68 450.88,-591.32 450.88,-591.32 450.88,-585.9 499.28,-581.5 558.88,-581.5 618.47,-581.5 666.88,-585.9 666.88,-591.32 666.88,-591.32 666.88,-679.68 666.88,-679.68"/>
<path fill="none" stroke="black" d="M666.88,-679.68C666.88,-674.26 618.47,-669.86 558.88,-669.86 499.28,-669.86 450.88,-674.26 450.88,-679.68"/>
<text text-anchor="middle" x="558.88" y="-630.45" font-family="Times,serif" font-size="14.00">8 incoming links (columns)</text>
</a>
</g>
</g>
<!-- medicare.ps.year_parent&#45;&gt;medicare.ps.year -->
<g id="edge5" class="edge">
<title>medicare.ps.year_parent&#45;&gt;medicare.ps.year</title>
<path fill="none" stroke="goldenrod" stroke-width="6" d="M558.88,-581.41C558.88,-558.62 558.88,-532.26 558.88,-510.42"/>
<polygon fill="goldenrod" stroke="goldenrod" stroke-width="6" points="564.13,-510.48 558.88,-500.48 553.63,-510.48 564.13,-510.48"/>
</g>
<!-- medicare.ps.fips2 -->
<g id="node7" class="node">
<title>medicare.ps.fips2</title>
<g id="a_node7"><a xlink:href="../medicare.ps/fips2.html" xlink:title="&lt;TABLE&gt;" target="_blank">
<polygon fill="none" stroke="black" points="1550,-544.5 1135.75,-544.5 1135.75,-384 1550,-384 1550,-544.5"/>
<text text-anchor="start" x="1291.88" y="-523.2" font-family="Times,serif" font-weight="bold" font-size="14.00">medicare.ps.fips2</text>
<text text-anchor="start" x="1183.38" y="-476.7" font-family="Times,serif" font-size="14.00">2 digit state FIPS, see https://en.wikip</text>
<text text-anchor="start" x="1171.75" y="-460.2" font-family="Times,serif" font-size="14.00">edia.org/wiki/Federal_Information_Proces</text>
<text text-anchor="start" x="1216.75" y="-443.7" font-family="Times,serif" font-size="14.00">sing_Standard_state_code</text>
<polygon fill="none" stroke="black" points="1146.75,-391 1146.75,-413.5 1539,-413.5 1539,-391 1146.75,-391"/>
<text text-anchor="start" x="1149.75" y="-397.2" font-family="Times,serif" font-size="14.00">(SELECT fips2 FROM public.us_states as s WHERE s.ssa2 = &quot;state&quot;)</text>
<polygon fill="none" stroke="black" points="1143.75,-388 1143.75,-540.5 1542,-540.5 1542,-388 1143.75,-388"/>
</a>
</g>
</g>
<!-- medicare.ps.fips2&#45;&gt;medicare._ps.fips3_list -->
<g id="edge6" class="edge">
<title>medicare.ps.fips2&#45;&gt;medicare._ps.fips3_list</title>
<path fill="none" stroke="black" d="M1342.88,-383.68C1342.88,-375.04 1342.88,-366.54 1342.88,-358.68"/>
<polygon fill="black" stroke="black" points="1346.38,-358.81 1342.88,-348.81 1339.38,-358.81 1346.38,-358.81"/>
<text text-anchor="middle" x="1381.5" y="-360.45" font-family="Times,serif" font-size="14.00"> &#160;Transformed</text>
</g>
<!-- medicare.ps.ssa3 -->
<g id="node8" class="node">
<title>medicare.ps.ssa3</title>
<g id="a_node8"><a xlink:href="../medicare.ps/ssa3.html" xlink:title="&lt;TABLE&gt;" target="_blank">
<polygon fill="none" stroke="black" points="1845.62,-524 1568.12,-524 1568.12,-404.5 1845.62,-404.5 1845.62,-524"/>
<text text-anchor="start" x="1657.75" y="-502.7" font-family="Times,serif" font-weight="bold" font-size="14.00">medicare.ps.ssa3</text>
<text text-anchor="start" x="1604.12" y="-456.2" font-family="Times,serif" font-size="14.00">Social Security Administration (SSA)</text>
<text text-anchor="start" x="1634.5" y="-439.7" font-family="Times,serif" font-size="14.00">three digit code for county</text>
<polygon fill="none" stroke="black" points="1576.12,-408.5 1576.12,-520 1837.62,-520 1837.62,-408.5 1576.12,-408.5"/>
</a>
</g>
</g>
<!-- medicare.ps.ssa3&#45;&gt;medicare._ps.fips3_list -->
<g id="edge7" class="edge">
<title>medicare.ps.ssa3&#45;&gt;medicare._ps.fips3_list</title>
<path fill="none" stroke="black" d="M1602.6,-404.15C1588.13,-396.91 1573.28,-389.97 1558.88,-384 1528.84,-371.55 1495.59,-360.29 1464.36,-350.75"/>
<polygon fill="black" stroke="black" points="1465.43,-347.42 1454.85,-347.89 1463.42,-354.13 1465.43,-347.42"/>
<text text-anchor="middle" x="1548.5" y="-360.45" font-family="Times,serif" font-size="14.00"> &#160;Transformed</text>
</g>
<!-- medicare.ps.ssa3_parent -->
<g id="node9" class="node">
<title>medicare.ps.ssa3_parent</title>
<g id="a_node9"><a xlink:href="../medicare.ps/ssa3.html" xlink:title="8 incoming links (columns)" target="_blank">
<path fill="yellow" stroke="black" d="M1814.88,-679.68C1814.88,-685.1 1766.47,-689.5 1706.88,-689.5 1647.28,-689.5 1598.88,-685.1 1598.88,-679.68 1598.88,-679.68 1598.88,-591.32 1598.88,-591.32 1598.88,-585.9 1647.28,-581.5 1706.88,-581.5 1766.47,-581.5 1814.88,-585.9 1814.88,-591.32 1814.88,-591.32 1814.88,-679.68 1814.88,-679.68"/>
<path fill="none" stroke="black" d="M1814.88,-679.68C1814.88,-674.26 1766.47,-669.86 1706.88,-669.86 1647.28,-669.86 1598.88,-674.26 1598.88,-679.68"/>
<text text-anchor="middle" x="1706.88" y="-630.45" font-family="Times,serif" font-size="14.00">8 incoming links (columns)</text>
</a>
</g>
</g>
<!-- medicare.ps.ssa3_parent&#45;&gt;medicare.ps.ssa3 -->
<g id="edge8" class="edge">
<title>medicare.ps.ssa3_parent&#45;&gt;medicare.ps.ssa3</title>
<path fill="none" stroke="goldenrod" stroke-width="6" d="M1706.88,-581.41C1706.88,-568.38 1706.88,-554.19 1706.88,-540.34"/>
<polygon fill="goldenrod" stroke="goldenrod" stroke-width="6" points="1712.13,-540.79 1706.88,-530.79 1701.63,-540.79 1712.13,-540.79"/>
</g>
</g>
</svg>
