<?xml version="1.0" encoding="UTF-8" standalone="no"?>
<!DOCTYPE svg PUBLIC "-//W3C//DTD SVG 1.1//EN"
 "http://www.w3.org/Graphics/SVG/1.1/DTD/svg11.dtd">
<!-- Generated by graphviz version 10.0.1 (20240210.2158)
 -->
<!-- Pages: 1 -->
<svg width="2270pt" height="698pt"
 viewBox="0.00 0.00 2270.12 697.50" xmlns="http://www.w3.org/2000/svg" xmlns:xlink="http://www.w3.org/1999/xlink">
<g id="graph0" class="graph" transform="scale(1 1) rotate(0) translate(4 693.5)">
<polygon fill="white" stroke="none" points="-4,4 -4,-693.5 2266.12,-693.5 2266.12,4 -4,4"/>
<!-- medicare.qc_enrl_bene.residence_counties -->
<g id="node1" class="node">
<title>medicare.qc_enrl_bene.residence_counties</title>
<g id="a_node1"><a xlink:href="../medicare.qc_enrl_bene/residence_counties.html" xlink:title="&lt;TABLE&gt;" target="_blank">
<polygon fill="none" stroke="black" points="1055.62,-59 782.88,-59 782.88,0 1055.62,0 1055.62,-59"/>
<text text-anchor="start" x="795.88" y="-37.7" font-family="Times,serif" font-weight="bold" font-size="14.00">medicare.qc_enrl_bene.residence_counties</text>
<polygon fill="none" stroke="black" points="793.88,-7 793.88,-29.5 1044.62,-29.5 1044.62,-7 793.88,-7"/>
<text text-anchor="start" x="796.88" y="-13.2" font-family="Times,serif" font-size="14.00">string_agg(distinct fips3_list, &#39;,&#39;)</text>
<polygon fill="none" stroke="black" points="790.88,-4 790.88,-55 1047.62,-55 1047.62,-4 790.88,-4"/>
</a>
</g>
</g>
<!-- medicare.enrollments.residence_counties -->
<g id="node2" class="node">
<title>medicare.enrollments.residence_counties</title>
<g id="a_node2"><a xlink:href="../medicare.enrollments/residence_counties.html" xlink:title="&lt;TABLE&gt;" target="_blank">
<polygon fill="none" stroke="black" points="1051.5,-155 787,-155 787,-96 1051.5,-96 1051.5,-155"/>
<text text-anchor="start" x="800" y="-133.7" font-family="Times,serif" font-weight="bold" font-size="14.00">medicare.enrollments.residence_counties</text>
<polygon fill="none" stroke="black" points="798,-103 798,-125.5 1040.5,-125.5 1040.5,-103 798,-103"/>
<text text-anchor="start" x="801" y="-109.2" font-family="Times,serif" font-size="14.00">string_agg(distinct fips3_list, &#39;,&#39;)</text>
<polygon fill="none" stroke="black" points="795,-100 795,-151 1043.5,-151 1043.5,-100 795,-100"/>
</a>
</g>
</g>
<!-- medicare.enrollments.residence_counties&#45;&gt;medicare.qc_enrl_bene.residence_counties -->
<g id="edge1" class="edge">
<title>medicare.enrollments.residence_counties&#45;&gt;medicare.qc_enrl_bene.residence_counties</title>
<path fill="none" stroke="black" d="M919.25,-95.53C919.25,-87.68 919.25,-79.05 919.25,-70.7"/>
<polygon fill="black" stroke="black" points="922.75,-70.73 919.25,-60.73 915.75,-70.73 922.75,-70.73"/>
<text text-anchor="middle" x="965.38" y="-72.45" font-family="Times,serif" font-size="14.00">	join natural</text>
</g>
<!-- medicare._enrollments.residence_counties -->
<g id="node3" class="node">
<title>medicare._enrollments.residence_counties</title>
<g id="a_node3"><a xlink:href="../medicare._enrollments/residence_counties.html" xlink:title="&lt;TABLE&gt;" target="_blank">
<polygon fill="none" stroke="black" points="1054.88,-251 783.62,-251 783.62,-192 1054.88,-192 1054.88,-251"/>
<text text-anchor="start" x="796.62" y="-229.7" font-family="Times,serif" font-weight="bold" font-size="14.00">medicare._enrollments.residence_counties</text>
<polygon fill="none" stroke="black" points="794.62,-199 794.62,-221.5 1043.88,-221.5 1043.88,-199 794.62,-199"/>
<text text-anchor="start" x="797.62" y="-205.2" font-family="Times,serif" font-size="14.00">string_agg(distinct fips3_list, &#39;,&#39;)</text>
<polygon fill="none" stroke="black" points="791.62,-196 791.62,-247 1046.88,-247 1046.88,-196 791.62,-196"/>
</a>
</g>
</g>
<!-- medicare._enrollments.residence_counties&#45;&gt;medicare.enrollments.residence_counties -->
<g id="edge2" class="edge">
<title>medicare._enrollments.residence_counties&#45;&gt;medicare.enrollments.residence_counties</title>
<path fill="none" stroke="black" d="M919.25,-191.53C919.25,-183.68 919.25,-175.05 919.25,-166.7"/>
<polygon fill="black" stroke="black" points="922.75,-166.73 919.25,-156.73 915.75,-166.73 922.75,-166.73"/>
<text text-anchor="middle" x="938.75" y="-168.45" font-family="Times,serif" font-size="14.00">Copied</text>
</g>
<!-- medicare._ps.fips3_list -->
<g id="node4" class="node">
<title>medicare._ps.fips3_list</title>
<g id="a_node4"><a xlink:href="../medicare._ps/fips3_list.html" xlink:title="&lt;TABLE&gt;" target="_blank">
<polygon fill="none" stroke="black" points="1838.5,-347 0,-347 0,-288 1838.5,-288 1838.5,-347"/>
<text text-anchor="start" x="852.88" y="-325.7" font-family="Times,serif" font-weight="bold" font-size="14.00">medicare._ps.fips3_list</text>
<polygon fill="none" stroke="black" points="11,-295 11,-317.5 1827.5,-317.5 1827.5,-295 11,-295"/>
<text text-anchor="start" x="14" y="-301.2" font-family="Times,serif" font-size="14.00">CASE WHEN year &gt; 2010 THEN (SELECT string_agg(distinct fips3::varchar, &#39;,&#39;) from public.ssa as s where ps.ssa3 = s.ssa3 and ps.year = s.year and ps.fips2 = s.fips2) &#160;&#160;&#160;ELSE (SELECT string_agg(distinct fips3::varchar, &#39;,&#39;) from public.ssa as s where ps.ssa3 = s.ssa3 and 2003 = s.year and ps.fips2 = s.fips2) END AS fips3_list</text>
<polygon fill="none" stroke="black" points="8,-292 8,-343 1830.5,-343 1830.5,-292 8,-292"/>
</a>
</g>
</g>
<!-- medicare._ps.fips3_list&#45;&gt;medicare._enrollments.residence_counties -->
<g id="edge3" class="edge">
<title>medicare._ps.fips3_list&#45;&gt;medicare._enrollments.residence_counties</title>
<path fill="none" stroke="blue" stroke-width="5" d="M919.25,-287.53C919.25,-281.13 919.25,-274.2 919.25,-267.33"/>
<polygon fill="blue" stroke="blue" stroke-width="5" points="923.63,-267.45 919.25,-257.45 914.88,-267.45 923.63,-267.45"/>
<text text-anchor="middle" x="1033.62" y="-264.45" font-family="Times,serif" font-size="14.00">	 &#160;Aggregated On bene_id, year, state</text>
</g>
<!-- medicare.ps.ssa3 -->
<g id="node5" class="node">
<title>medicare.ps.ssa3</title>
<g id="a_node5"><a xlink:href="../medicare.ps/ssa3.html" xlink:title="&lt;TABLE&gt;" target="_blank">
<polygon fill="none" stroke="black" points="694,-524 416.5,-524 416.5,-404.5 694,-404.5 694,-524"/>
<text text-anchor="start" x="506.12" y="-502.7" font-family="Times,serif" font-weight="bold" font-size="14.00">medicare.ps.ssa3</text>
<text text-anchor="start" x="452.5" y="-456.2" font-family="Times,serif" font-size="14.00">Social Security Administration (SSA)</text>
<text text-anchor="start" x="482.88" y="-439.7" font-family="Times,serif" font-size="14.00">three digit code for county</text>
<polygon fill="none" stroke="black" points="424.5,-408.5 424.5,-520 686,-520 686,-408.5 424.5,-408.5"/>
</a>
</g>
</g>
<!-- medicare.ps.ssa3&#45;&gt;medicare._ps.fips3_list -->
<g id="edge4" class="edge">
<title>medicare.ps.ssa3&#45;&gt;medicare._ps.fips3_list</title>
<path fill="none" stroke="black" d="M659.52,-404.15C674,-396.91 688.85,-389.97 703.25,-384 733.28,-371.55 766.54,-360.29 797.77,-350.75"/>
<polygon fill="black" stroke="black" points="798.71,-354.13 807.27,-347.89 796.69,-347.42 798.71,-354.13"/>
<text text-anchor="middle" x="791.88" y="-360.45" font-family="Times,serif" font-size="14.00"> &#160;Transformed</text>
</g>
<!-- medicare.ps.ssa3_parent -->
<g id="node6" class="node">
<title>medicare.ps.ssa3_parent</title>
<g id="a_node6"><a xlink:href="../medicare.ps/ssa3.html" xlink:title="8 incoming links (columns)" target="_blank">
<path fill="yellow" stroke="black" d="M663.25,-679.68C663.25,-685.1 614.84,-689.5 555.25,-689.5 495.66,-689.5 447.25,-685.1 447.25,-679.68 447.25,-679.68 447.25,-591.32 447.25,-591.32 447.25,-585.9 495.66,-581.5 555.25,-581.5 614.84,-581.5 663.25,-585.9 663.25,-591.32 663.25,-591.32 663.25,-679.68 663.25,-679.68"/>
<path fill="none" stroke="black" d="M663.25,-679.68C663.25,-674.26 614.84,-669.86 555.25,-669.86 495.66,-669.86 447.25,-674.26 447.25,-679.68"/>
<text text-anchor="middle" x="555.25" y="-630.45" font-family="Times,serif" font-size="14.00">8 incoming links (columns)</text>
</a>
</g>
</g>
<!-- medicare.ps.ssa3_parent&#45;&gt;medicare.ps.ssa3 -->
<g id="edge5" class="edge">
<title>medicare.ps.ssa3_parent&#45;&gt;medicare.ps.ssa3</title>
<path fill="none" stroke="goldenrod" stroke-width="6" d="M555.25,-581.41C555.25,-568.38 555.25,-554.19 555.25,-540.34"/>
<polygon fill="goldenrod" stroke="goldenrod" stroke-width="6" points="560.5,-540.79 555.25,-530.79 550,-540.79 560.5,-540.79"/>
</g>
<!-- medicare.ps.fips2 -->
<g id="node7" class="node">
<title>medicare.ps.fips2</title>
<g id="a_node7"><a xlink:href="../medicare.ps/fips2.html" xlink:title="&lt;TABLE&gt;" target="_blank">
<polygon fill="none" stroke="black" points="1126.38,-544.5 712.12,-544.5 712.12,-384 1126.38,-384 1126.38,-544.5"/>
<text text-anchor="start" x="868.25" y="-523.2" font-family="Times,serif" font-weight="bold" font-size="14.00">medicare.ps.fips2</text>
<text text-anchor="start" x="759.75" y="-476.7" font-family="Times,serif" font-size="14.00">2 digit state FIPS, see https://en.wikip</text>
<text text-anchor="start" x="748.12" y="-460.2" font-family="Times,serif" font-size="14.00">edia.org/wiki/Federal_Information_Proces</text>
<text text-anchor="start" x="793.12" y="-443.7" font-family="Times,serif" font-size="14.00">sing_Standard_state_code</text>
<polygon fill="none" stroke="black" points="723.12,-391 723.12,-413.5 1115.38,-413.5 1115.38,-391 723.12,-391"/>
<text text-anchor="start" x="726.12" y="-397.2" font-family="Times,serif" font-size="14.00">(SELECT fips2 FROM public.us_states as s WHERE s.ssa2 = &quot;state&quot;)</text>
<polygon fill="none" stroke="black" points="720.12,-388 720.12,-540.5 1118.38,-540.5 1118.38,-388 720.12,-388"/>
</a>
</g>
</g>
<!-- medicare.ps.fips2&#45;&gt;medicare._ps.fips3_list -->
<g id="edge6" class="edge">
<title>medicare.ps.fips2&#45;&gt;medicare._ps.fips3_list</title>
<path fill="none" stroke="black" d="M919.25,-383.68C919.25,-375.04 919.25,-366.54 919.25,-358.68"/>
<polygon fill="black" stroke="black" points="922.75,-358.81 919.25,-348.81 915.75,-358.81 922.75,-358.81"/>
<text text-anchor="middle" x="957.88" y="-360.45" font-family="Times,serif" font-size="14.00"> &#160;Transformed</text>
</g>
<!-- medicare.ps.year -->
<g id="node8" class="node">
<title>medicare.ps.year</title>
<g id="a_node8"><a xlink:href="../medicare.ps/year.html" xlink:title="&lt;TABLE&gt;" target="_blank">
<polygon fill="none" stroke="black" points="2262.12,-493.75 1144.38,-493.75 1144.38,-434.75 2262.12,-434.75 2262.12,-493.75"/>
<text text-anchor="start" x="1653.38" y="-472.45" font-family="Times,serif" font-weight="bold" font-size="14.00">medicare.ps.year</text>
<polygon fill="none" stroke="black" points="1155.38,-441.75 1155.38,-464.25 2251.12,-464.25 2251.12,-441.75 1155.38,-441.75"/>
<text text-anchor="start" x="1158.38" y="-447.95" font-family="Times,serif" font-size="14.00">(CASE WHEN &quot;year&quot;::int &lt; 20 THEN (2000 + &quot;year&quot;::int) WHEN (20 &lt; &quot;year&quot;::int AND &quot;year&quot;::int &lt; 100) THEN (1900 + &quot;year&quot;::int) WHEN &quot;year&quot; IS NULL THEN 2000 ELSE &quot;year&quot;::int END)</text>
<polygon fill="none" stroke="black" points="1152.38,-438.75 1152.38,-489.75 2254.12,-489.75 2254.12,-438.75 1152.38,-438.75"/>
</a>
</g>
</g>
<!-- medicare.ps.year&#45;&gt;medicare._ps.fips3_list -->
<g id="edge7" class="edge">
<title>medicare.ps.year&#45;&gt;medicare._ps.fips3_list</title>
<path fill="none" stroke="black" d="M1546.48,-434.31C1413.46,-409.75 1223.08,-374.6 1087.02,-349.47"/>
<polygon fill="black" stroke="black" points="1088.04,-346.1 1077.57,-347.73 1086.77,-352.99 1088.04,-346.1"/>
<text text-anchor="middle" x="1211.88" y="-360.45" font-family="Times,serif" font-size="14.00"> &#160;Transformed</text>
</g>
<!-- medicare.ps.year_parent -->
<g id="node9" class="node">
<title>medicare.ps.year_parent</title>
<g id="a_node9"><a xlink:href="../medicare.ps/year.html" xlink:title="8 incoming links (columns)" target="_blank">
<path fill="yellow" stroke="black" d="M1811.25,-679.68C1811.25,-685.1 1762.84,-689.5 1703.25,-689.5 1643.66,-689.5 1595.25,-685.1 1595.25,-679.68 1595.25,-679.68 1595.25,-591.32 1595.25,-591.32 1595.25,-585.9 1643.66,-581.5 1703.25,-581.5 1762.84,-581.5 1811.25,-585.9 1811.25,-591.32 1811.25,-591.32 1811.25,-679.68 1811.25,-679.68"/>
<path fill="none" stroke="black" d="M1811.25,-679.68C1811.25,-674.26 1762.84,-669.86 1703.25,-669.86 1643.66,-669.86 1595.25,-674.26 1595.25,-679.68"/>
<text text-anchor="middle" x="1703.25" y="-630.45" font-family="Times,serif" font-size="14.00">8 incoming links (columns)</text>
</a>
</g>
</g>
<!-- medicare.ps.year_parent&#45;&gt;medicare.ps.year -->
<g id="edge8" class="edge">
<title>medicare.ps.year_parent&#45;&gt;medicare.ps.year</title>
<path fill="none" stroke="goldenrod" stroke-width="6" d="M1703.25,-581.41C1703.25,-558.62 1703.25,-532.26 1703.25,-510.42"/>
<polygon fill="goldenrod" stroke="goldenrod" stroke-width="6" points="1708.5,-510.48 1703.25,-500.48 1698,-510.48 1708.5,-510.48"/>
</g>
</g>
</svg>
