<?xml version="1.0" encoding="UTF-8" standalone="no"?>
<!DOCTYPE svg PUBLIC "-//W3C//DTD SVG 1.1//EN"
 "http://www.w3.org/Graphics/SVG/1.1/DTD/svg11.dtd">
<!-- Generated by graphviz version 10.0.1 (20240210.2158)
 -->
<!-- Pages: 1 -->
<svg width="2202pt" height="602pt"
 viewBox="0.00 0.00 2202.12 601.50" xmlns="http://www.w3.org/2000/svg" xmlns:xlink="http://www.w3.org/1999/xlink">
<g id="graph0" class="graph" transform="scale(1 1) rotate(0) translate(4 597.5)">
<polygon fill="white" stroke="none" points="-4,4 -4,-597.5 2198.12,-597.5 2198.12,4 -4,4"/>
<!-- medicare.enrollments.residence_counties -->
<g id="node1" class="node">
<title>medicare.enrollments.residence_counties</title>
<g id="a_node1"><a xlink:href="../medicare.enrollments/residence_counties.html" xlink:title="&lt;TABLE&gt;" target="_blank">
<polygon fill="none" stroke="black" points="1051.5,-59 787,-59 787,0 1051.5,0 1051.5,-59"/>
<text text-anchor="start" x="800" y="-37.7" font-family="Times,serif" font-weight="bold" font-size="14.00">medicare.enrollments.residence_counties</text>
<polygon fill="none" stroke="black" points="798,-7 798,-29.5 1040.5,-29.5 1040.5,-7 798,-7"/>
<text text-anchor="start" x="801" y="-13.2" font-family="Times,serif" font-size="14.00">string_agg(distinct fips3_list, &#39;,&#39;)</text>
<polygon fill="none" stroke="black" points="795,-4 795,-55 1043.5,-55 1043.5,-4 795,-4"/>
</a>
</g>
</g>
<!-- medicare._enrollments.residence_counties -->
<g id="node2" class="node">
<title>medicare._enrollments.residence_counties</title>
<g id="a_node2"><a xlink:href="../medicare._enrollments/residence_counties.html" xlink:title="&lt;TABLE&gt;" target="_blank">
<polygon fill="none" stroke="black" points="1054.88,-155 783.62,-155 783.62,-96 1054.88,-96 1054.88,-155"/>
<text text-anchor="start" x="796.62" y="-133.7" font-family="Times,serif" font-weight="bold" font-size="14.00">medicare._enrollments.residence_counties</text>
<polygon fill="none" stroke="black" points="794.62,-103 794.62,-125.5 1043.88,-125.5 1043.88,-103 794.62,-103"/>
<text text-anchor="start" x="797.62" y="-109.2" font-family="Times,serif" font-size="14.00">string_agg(distinct fips3_list, &#39;,&#39;)</text>
<polygon fill="none" stroke="black" points="791.62,-100 791.62,-151 1046.88,-151 1046.88,-100 791.62,-100"/>
</a>
</g>
</g>
<!-- medicare._enrollments.residence_counties&#45;&gt;medicare.enrollments.residence_counties -->
<g id="edge1" class="edge">
<title>medicare._enrollments.residence_counties&#45;&gt;medicare.enrollments.residence_counties</title>
<path fill="none" stroke="black" d="M919.25,-95.53C919.25,-87.68 919.25,-79.05 919.25,-70.7"/>
<polygon fill="black" stroke="black" points="922.75,-70.73 919.25,-60.73 915.75,-70.73 922.75,-70.73"/>
<text text-anchor="middle" x="938.75" y="-72.45" font-family="Times,serif" font-size="14.00">Copied</text>
</g>
<!-- medicare._ps.fips3_list -->
<g id="node3" class="node">
<title>medicare._ps.fips3_list</title>
<g id="a_node3"><a xlink:href="../medicare._ps/fips3_list.html" xlink:title="&lt;TABLE&gt;" target="_blank">
<polygon fill="none" stroke="black" points="1838.5,-251 0,-251 0,-192 1838.5,-192 1838.5,-251"/>
<text text-anchor="start" x="852.88" y="-229.7" font-family="Times,serif" font-weight="bold" font-size="14.00">medicare._ps.fips3_list</text>
<polygon fill="none" stroke="black" points="11,-199 11,-221.5 1827.5,-221.5 1827.5,-199 11,-199"/>
<text text-anchor="start" x="14" y="-205.2" font-family="Times,serif" font-size="14.00">CASE WHEN year &gt; 2010 THEN (SELECT string_agg(distinct fips3::varchar, &#39;,&#39;) from public.ssa as s where ps.ssa3 = s.ssa3 and ps.year = s.year and ps.fips2 = s.fips2) &#160;&#160;&#160;ELSE (SELECT string_agg(distinct fips3::varchar, &#39;,&#39;) from public.ssa as s where ps.ssa3 = s.ssa3 and 2003 = s.year and ps.fips2 = s.fips2) END AS fips3_list</text>
<polygon fill="none" stroke="black" points="8,-196 8,-247 1830.5,-247 1830.5,-196 8,-196"/>
</a>
</g>
</g>
<!-- medicare._ps.fips3_list&#45;&gt;medicare._enrollments.residence_counties -->
<g id="edge2" class="edge">
<title>medicare._ps.fips3_list&#45;&gt;medicare._enrollments.residence_counties</title>
<path fill="none" stroke="blue" stroke-width="5" d="M919.25,-191.53C919.25,-185.13 919.25,-178.2 919.25,-171.33"/>
<polygon fill="blue" stroke="blue" stroke-width="5" points="923.63,-171.45 919.25,-161.45 914.88,-171.45 923.63,-171.45"/>
<text text-anchor="middle" x="1033.62" y="-168.45" font-family="Times,serif" font-size="14.00">	 &#160;Aggregated On bene_id, year, state</text>
</g>
<!-- medicare.ps.fips2 -->
<g id="node4" class="node">
<title>medicare.ps.fips2</title>
<g id="a_node4"><a xlink:href="../medicare.ps/fips2.html" xlink:title="&lt;TABLE&gt;" target="_blank">
<polygon fill="none" stroke="black" points="762.38,-448.5 348.12,-448.5 348.12,-288 762.38,-288 762.38,-448.5"/>
<text text-anchor="start" x="504.25" y="-427.2" font-family="Times,serif" font-weight="bold" font-size="14.00">medicare.ps.fips2</text>
<text text-anchor="start" x="395.75" y="-380.7" font-family="Times,serif" font-size="14.00">2 digit state FIPS, see https://en.wikip</text>
<text text-anchor="start" x="384.12" y="-364.2" font-family="Times,serif" font-size="14.00">edia.org/wiki/Federal_Information_Proces</text>
<text text-anchor="start" x="429.12" y="-347.7" font-family="Times,serif" font-size="14.00">sing_Standard_state_code</text>
<polygon fill="none" stroke="black" points="359.12,-295 359.12,-317.5 751.38,-317.5 751.38,-295 359.12,-295"/>
<text text-anchor="start" x="362.12" y="-301.2" font-family="Times,serif" font-size="14.00">(SELECT fips2 FROM public.us_states as s WHERE s.ssa2 = &quot;state&quot;)</text>
<polygon fill="none" stroke="black" points="356.12,-292 356.12,-444.5 754.38,-444.5 754.38,-292 356.12,-292"/>
</a>
</g>
</g>
<!-- medicare.ps.fips2&#45;&gt;medicare._ps.fips3_list -->
<g id="edge3" class="edge">
<title>medicare.ps.fips2&#45;&gt;medicare._ps.fips3_list</title>
<path fill="none" stroke="black" d="M755.62,-287.57C783.93,-276.31 811.65,-265.29 835.99,-255.61"/>
<polygon fill="black" stroke="black" points="837.16,-258.91 845.16,-251.96 834.57,-252.41 837.16,-258.91"/>
<text text-anchor="middle" x="840.88" y="-264.45" font-family="Times,serif" font-size="14.00"> &#160;Transformed</text>
</g>
<!-- medicare.ps.ssa3 -->
<g id="node5" class="node">
<title>medicare.ps.ssa3</title>
<g id="a_node5"><a xlink:href="../medicare.ps/ssa3.html" xlink:title="&lt;TABLE&gt;" target="_blank">
<polygon fill="none" stroke="black" points="1058,-428 780.5,-428 780.5,-308.5 1058,-308.5 1058,-428"/>
<text text-anchor="start" x="870.12" y="-406.7" font-family="Times,serif" font-weight="bold" font-size="14.00">medicare.ps.ssa3</text>
<text text-anchor="start" x="816.5" y="-360.2" font-family="Times,serif" font-size="14.00">Social Security Administration (SSA)</text>
<text text-anchor="start" x="846.88" y="-343.7" font-family="Times,serif" font-size="14.00">three digit code for county</text>
<polygon fill="none" stroke="black" points="788.5,-312.5 788.5,-424 1050,-424 1050,-312.5 788.5,-312.5"/>
</a>
</g>
</g>
<!-- medicare.ps.ssa3&#45;&gt;medicare._ps.fips3_list -->
<g id="edge4" class="edge">
<title>medicare.ps.ssa3&#45;&gt;medicare._ps.fips3_list</title>
<path fill="none" stroke="black" d="M919.25,-308.37C919.25,-292.97 919.25,-276.71 919.25,-262.54"/>
<polygon fill="black" stroke="black" points="922.75,-262.7 919.25,-252.7 915.75,-262.7 922.75,-262.7"/>
<text text-anchor="middle" x="957.88" y="-264.45" font-family="Times,serif" font-size="14.00"> &#160;Transformed</text>
</g>
<!-- medicare.ps.ssa3_parent -->
<g id="node6" class="node">
<title>medicare.ps.ssa3_parent</title>
<g id="a_node6"><a xlink:href="../medicare.ps/ssa3.html" xlink:title="8 incoming links (columns)" target="_blank">
<path fill="yellow" stroke="black" d="M1027.25,-583.68C1027.25,-589.1 978.84,-593.5 919.25,-593.5 859.66,-593.5 811.25,-589.1 811.25,-583.68 811.25,-583.68 811.25,-495.32 811.25,-495.32 811.25,-489.9 859.66,-485.5 919.25,-485.5 978.84,-485.5 1027.25,-489.9 1027.25,-495.32 1027.25,-495.32 1027.25,-583.68 1027.25,-583.68"/>
<path fill="none" stroke="black" d="M1027.25,-583.68C1027.25,-578.26 978.84,-573.86 919.25,-573.86 859.66,-573.86 811.25,-578.26 811.25,-583.68"/>
<text text-anchor="middle" x="919.25" y="-534.45" font-family="Times,serif" font-size="14.00">8 incoming links (columns)</text>
</a>
</g>
</g>
<!-- medicare.ps.ssa3_parent&#45;&gt;medicare.ps.ssa3 -->
<g id="edge5" class="edge">
<title>medicare.ps.ssa3_parent&#45;&gt;medicare.ps.ssa3</title>
<path fill="none" stroke="goldenrod" stroke-width="6" d="M919.25,-485.41C919.25,-472.38 919.25,-458.19 919.25,-444.34"/>
<polygon fill="goldenrod" stroke="goldenrod" stroke-width="6" points="924.5,-444.79 919.25,-434.79 914,-444.79 924.5,-444.79"/>
</g>
<!-- medicare.ps.year -->
<g id="node7" class="node">
<title>medicare.ps.year</title>
<g id="a_node7"><a xlink:href="../medicare.ps/year.html" xlink:title="&lt;TABLE&gt;" target="_blank">
<polygon fill="none" stroke="black" points="2194.12,-432 1076.38,-432 1076.38,-304.5 2194.12,-304.5 2194.12,-432"/>
<text text-anchor="start" x="1585.38" y="-410.7" font-family="Times,serif" font-weight="bold" font-size="14.00">medicare.ps.year</text>
<text text-anchor="start" x="1112.38" y="-364.2" font-family="Times,serif" font-size="14.00">Beneficiary Enrollment Reference Year</text>
<polygon fill="none" stroke="black" points="1087.38,-311.5 1087.38,-334 2183.12,-334 2183.12,-311.5 1087.38,-311.5"/>
<text text-anchor="start" x="1090.38" y="-317.7" font-family="Times,serif" font-size="14.00">(CASE WHEN &quot;year&quot;::int &lt; 20 THEN (2000 + &quot;year&quot;::int) WHEN (20 &lt; &quot;year&quot;::int AND &quot;year&quot;::int &lt; 100) THEN (1900 + &quot;year&quot;::int) WHEN &quot;year&quot; IS NULL THEN 2000 ELSE &quot;year&quot;::int END)</text>
<polygon fill="none" stroke="black" points="1084.38,-308.5 1084.38,-428 2186.12,-428 2186.12,-308.5 1084.38,-308.5"/>
</a>
</g>
</g>
<!-- medicare.ps.year&#45;&gt;medicare._ps.fips3_list -->
<g id="edge6" class="edge">
<title>medicare.ps.year&#45;&gt;medicare._ps.fips3_list</title>
<path fill="none" stroke="black" d="M1322.5,-304.02C1236.21,-286.58 1146.36,-268.41 1073.42,-253.67"/>
<polygon fill="black" stroke="black" points="1074.31,-250.28 1063.81,-251.73 1072.92,-257.14 1074.31,-250.28"/>
<text text-anchor="middle" x="1189.88" y="-264.45" font-family="Times,serif" font-size="14.00"> &#160;Transformed</text>
</g>
<!-- medicare.ps.year_parent -->
<g id="node8" class="node">
<title>medicare.ps.year_parent</title>
<g id="a_node8"><a xlink:href="../medicare.ps/year.html" xlink:title="8 incoming links (columns)" target="_blank">
<path fill="yellow" stroke="black" d="M1743.25,-583.68C1743.25,-589.1 1694.84,-593.5 1635.25,-593.5 1575.66,-593.5 1527.25,-589.1 1527.25,-583.68 1527.25,-583.68 1527.25,-495.32 1527.25,-495.32 1527.25,-489.9 1575.66,-485.5 1635.25,-485.5 1694.84,-485.5 1743.25,-489.9 1743.25,-495.32 1743.25,-495.32 1743.25,-583.68 1743.25,-583.68"/>
<path fill="none" stroke="black" d="M1743.25,-583.68C1743.25,-578.26 1694.84,-573.86 1635.25,-573.86 1575.66,-573.86 1527.25,-578.26 1527.25,-583.68"/>
<text text-anchor="middle" x="1635.25" y="-534.45" font-family="Times,serif" font-size="14.00">8 incoming links (columns)</text>
</a>
</g>
</g>
<!-- medicare.ps.year_parent&#45;&gt;medicare.ps.year -->
<g id="edge7" class="edge">
<title>medicare.ps.year_parent&#45;&gt;medicare.ps.year</title>
<path fill="none" stroke="goldenrod" stroke-width="6" d="M1635.25,-485.41C1635.25,-473.68 1635.25,-461.01 1635.25,-448.5"/>
<polygon fill="goldenrod" stroke="goldenrod" stroke-width="6" points="1640.5,-448.68 1635.25,-438.68 1630,-448.68 1640.5,-448.68"/>
</g>
</g>
</svg>
