<?xml version="1.0" encoding="UTF-8" standalone="no"?>
<!DOCTYPE svg PUBLIC "-//W3C//DTD SVG 1.1//EN"
 "http://www.w3.org/Graphics/SVG/1.1/DTD/svg11.dtd">
<!-- Generated by graphviz version 10.0.1 (20240210.2158)
 -->
<!-- Pages: 1 -->
<svg width="2202pt" height="506pt"
 viewBox="0.00 0.00 2202.12 505.50" xmlns="http://www.w3.org/2000/svg" xmlns:xlink="http://www.w3.org/1999/xlink">
<g id="graph0" class="graph" transform="scale(1 1) rotate(0) translate(4 501.5)">
<polygon fill="white" stroke="none" points="-4,4 -4,-501.5 2198.12,-501.5 2198.12,4 -4,4"/>
<!-- medicare._enrollments.residence_counties -->
<g id="node1" class="node">
<title>medicare._enrollments.residence_counties</title>
<g id="a_node1"><a xlink:href="../medicare._enrollments/residence_counties.html" xlink:title="&lt;TABLE&gt;" target="_blank">
<polygon fill="none" stroke="black" points="1054.88,-59 783.62,-59 783.62,0 1054.88,0 1054.88,-59"/>
<text text-anchor="start" x="796.62" y="-37.7" font-family="Times,serif" font-weight="bold" font-size="14.00">medicare._enrollments.residence_counties</text>
<polygon fill="none" stroke="black" points="794.62,-7 794.62,-29.5 1043.88,-29.5 1043.88,-7 794.62,-7"/>
<text text-anchor="start" x="797.62" y="-13.2" font-family="Times,serif" font-size="14.00">string_agg(distinct fips3_list, &#39;,&#39;)</text>
<polygon fill="none" stroke="black" points="791.62,-4 791.62,-55 1046.88,-55 1046.88,-4 791.62,-4"/>
</a>
</g>
</g>
<!-- medicare._ps.fips3_list -->
<g id="node2" class="node">
<title>medicare._ps.fips3_list</title>
<g id="a_node2"><a xlink:href="../medicare._ps/fips3_list.html" xlink:title="&lt;TABLE&gt;" target="_blank">
<polygon fill="none" stroke="black" points="1838.5,-155 0,-155 0,-96 1838.5,-96 1838.5,-155"/>
<text text-anchor="start" x="852.88" y="-133.7" font-family="Times,serif" font-weight="bold" font-size="14.00">medicare._ps.fips3_list</text>
<polygon fill="none" stroke="black" points="11,-103 11,-125.5 1827.5,-125.5 1827.5,-103 11,-103"/>
<text text-anchor="start" x="14" y="-109.2" font-family="Times,serif" font-size="14.00">CASE WHEN year &gt; 2010 THEN (SELECT string_agg(distinct fips3::varchar, &#39;,&#39;) from public.ssa as s where ps.ssa3 = s.ssa3 and ps.year = s.year and ps.fips2 = s.fips2) &#160;&#160;&#160;ELSE (SELECT string_agg(distinct fips3::varchar, &#39;,&#39;) from public.ssa as s where ps.ssa3 = s.ssa3 and 2003 = s.year and ps.fips2 = s.fips2) END AS fips3_list</text>
<polygon fill="none" stroke="black" points="8,-100 8,-151 1830.5,-151 1830.5,-100 8,-100"/>
</a>
</g>
</g>
<!-- medicare._ps.fips3_list&#45;&gt;medicare._enrollments.residence_counties -->
<g id="edge1" class="edge">
<title>medicare._ps.fips3_list&#45;&gt;medicare._enrollments.residence_counties</title>
<path fill="none" stroke="blue" stroke-width="5" d="M919.25,-95.53C919.25,-89.13 919.25,-82.2 919.25,-75.33"/>
<polygon fill="blue" stroke="blue" stroke-width="5" points="923.63,-75.45 919.25,-65.45 914.88,-75.45 923.63,-75.45"/>
<text text-anchor="middle" x="1033.62" y="-72.45" font-family="Times,serif" font-size="14.00">	 &#160;Aggregated On bene_id, year, state</text>
</g>
<!-- medicare.ps.fips2 -->
<g id="node3" class="node">
<title>medicare.ps.fips2</title>
<g id="a_node3"><a xlink:href="../medicare.ps/fips2.html" xlink:title="&lt;TABLE&gt;" target="_blank">
<polygon fill="none" stroke="black" points="762.38,-352.5 348.12,-352.5 348.12,-192 762.38,-192 762.38,-352.5"/>
<text text-anchor="start" x="504.25" y="-331.2" font-family="Times,serif" font-weight="bold" font-size="14.00">medicare.ps.fips2</text>
<text text-anchor="start" x="395.75" y="-284.7" font-family="Times,serif" font-size="14.00">2 digit state FIPS, see https://en.wikip</text>
<text text-anchor="start" x="384.12" y="-268.2" font-family="Times,serif" font-size="14.00">edia.org/wiki/Federal_Information_Proces</text>
<text text-anchor="start" x="429.12" y="-251.7" font-family="Times,serif" font-size="14.00">sing_Standard_state_code</text>
<polygon fill="none" stroke="black" points="359.12,-199 359.12,-221.5 751.38,-221.5 751.38,-199 359.12,-199"/>
<text text-anchor="start" x="362.12" y="-205.2" font-family="Times,serif" font-size="14.00">(SELECT fips2 FROM public.us_states as s WHERE s.ssa2 = &quot;state&quot;)</text>
<polygon fill="none" stroke="black" points="356.12,-196 356.12,-348.5 754.38,-348.5 754.38,-196 356.12,-196"/>
</a>
</g>
</g>
<!-- medicare.ps.fips2&#45;&gt;medicare._ps.fips3_list -->
<g id="edge2" class="edge">
<title>medicare.ps.fips2&#45;&gt;medicare._ps.fips3_list</title>
<path fill="none" stroke="black" d="M755.62,-191.57C783.93,-180.31 811.65,-169.29 835.99,-159.61"/>
<polygon fill="black" stroke="black" points="837.16,-162.91 845.16,-155.96 834.57,-156.41 837.16,-162.91"/>
<text text-anchor="middle" x="840.88" y="-168.45" font-family="Times,serif" font-size="14.00"> &#160;Transformed</text>
</g>
<!-- medicare.ps.ssa3 -->
<g id="node4" class="node">
<title>medicare.ps.ssa3</title>
<g id="a_node4"><a xlink:href="../medicare.ps/ssa3.html" xlink:title="&lt;TABLE&gt;" target="_blank">
<polygon fill="none" stroke="black" points="1058,-332 780.5,-332 780.5,-212.5 1058,-212.5 1058,-332"/>
<text text-anchor="start" x="870.12" y="-310.7" font-family="Times,serif" font-weight="bold" font-size="14.00">medicare.ps.ssa3</text>
<text text-anchor="start" x="816.5" y="-264.2" font-family="Times,serif" font-size="14.00">Social Security Administration (SSA)</text>
<text text-anchor="start" x="846.88" y="-247.7" font-family="Times,serif" font-size="14.00">three digit code for county</text>
<polygon fill="none" stroke="black" points="788.5,-216.5 788.5,-328 1050,-328 1050,-216.5 788.5,-216.5"/>
</a>
</g>
</g>
<!-- medicare.ps.ssa3&#45;&gt;medicare._ps.fips3_list -->
<g id="edge3" class="edge">
<title>medicare.ps.ssa3&#45;&gt;medicare._ps.fips3_list</title>
<path fill="none" stroke="black" d="M919.25,-212.37C919.25,-196.97 919.25,-180.71 919.25,-166.54"/>
<polygon fill="black" stroke="black" points="922.75,-166.7 919.25,-156.7 915.75,-166.7 922.75,-166.7"/>
<text text-anchor="middle" x="957.88" y="-168.45" font-family="Times,serif" font-size="14.00"> &#160;Transformed</text>
</g>
<!-- medicare.ps.ssa3_parent -->
<g id="node5" class="node">
<title>medicare.ps.ssa3_parent</title>
<g id="a_node5"><a xlink:href="../medicare.ps/ssa3.html" xlink:title="8 incoming links (columns)" target="_blank">
<path fill="yellow" stroke="black" d="M1027.25,-487.68C1027.25,-493.1 978.84,-497.5 919.25,-497.5 859.66,-497.5 811.25,-493.1 811.25,-487.68 811.25,-487.68 811.25,-399.32 811.25,-399.32 811.25,-393.9 859.66,-389.5 919.25,-389.5 978.84,-389.5 1027.25,-393.9 1027.25,-399.32 1027.25,-399.32 1027.25,-487.68 1027.25,-487.68"/>
<path fill="none" stroke="black" d="M1027.25,-487.68C1027.25,-482.26 978.84,-477.86 919.25,-477.86 859.66,-477.86 811.25,-482.26 811.25,-487.68"/>
<text text-anchor="middle" x="919.25" y="-438.45" font-family="Times,serif" font-size="14.00">8 incoming links (columns)</text>
</a>
</g>
</g>
<!-- medicare.ps.ssa3_parent&#45;&gt;medicare.ps.ssa3 -->
<g id="edge4" class="edge">
<title>medicare.ps.ssa3_parent&#45;&gt;medicare.ps.ssa3</title>
<path fill="none" stroke="goldenrod" stroke-width="6" d="M919.25,-389.41C919.25,-376.38 919.25,-362.19 919.25,-348.34"/>
<polygon fill="goldenrod" stroke="goldenrod" stroke-width="6" points="924.5,-348.79 919.25,-338.79 914,-348.79 924.5,-348.79"/>
</g>
<!-- medicare.ps.year -->
<g id="node6" class="node">
<title>medicare.ps.year</title>
<g id="a_node6"><a xlink:href="../medicare.ps/year.html" xlink:title="&lt;TABLE&gt;" target="_blank">
<polygon fill="none" stroke="black" points="2194.12,-336 1076.38,-336 1076.38,-208.5 2194.12,-208.5 2194.12,-336"/>
<text text-anchor="start" x="1585.38" y="-314.7" font-family="Times,serif" font-weight="bold" font-size="14.00">medicare.ps.year</text>
<text text-anchor="start" x="1112.38" y="-268.2" font-family="Times,serif" font-size="14.00">Beneficiary Enrollment Reference Year</text>
<polygon fill="none" stroke="black" points="1087.38,-215.5 1087.38,-238 2183.12,-238 2183.12,-215.5 1087.38,-215.5"/>
<text text-anchor="start" x="1090.38" y="-221.7" font-family="Times,serif" font-size="14.00">(CASE WHEN &quot;year&quot;::int &lt; 20 THEN (2000 + &quot;year&quot;::int) WHEN (20 &lt; &quot;year&quot;::int AND &quot;year&quot;::int &lt; 100) THEN (1900 + &quot;year&quot;::int) WHEN &quot;year&quot; IS NULL THEN 2000 ELSE &quot;year&quot;::int END)</text>
<polygon fill="none" stroke="black" points="1084.38,-212.5 1084.38,-332 2186.12,-332 2186.12,-212.5 1084.38,-212.5"/>
</a>
</g>
</g>
<!-- medicare.ps.year&#45;&gt;medicare._ps.fips3_list -->
<g id="edge5" class="edge">
<title>medicare.ps.year&#45;&gt;medicare._ps.fips3_list</title>
<path fill="none" stroke="black" d="M1322.5,-208.02C1236.21,-190.58 1146.36,-172.41 1073.42,-157.67"/>
<polygon fill="black" stroke="black" points="1074.31,-154.28 1063.81,-155.73 1072.92,-161.14 1074.31,-154.28"/>
<text text-anchor="middle" x="1189.88" y="-168.45" font-family="Times,serif" font-size="14.00"> &#160;Transformed</text>
</g>
<!-- medicare.ps.year_parent -->
<g id="node7" class="node">
<title>medicare.ps.year_parent</title>
<g id="a_node7"><a xlink:href="../medicare.ps/year.html" xlink:title="8 incoming links (columns)" target="_blank">
<path fill="yellow" stroke="black" d="M1743.25,-487.68C1743.25,-493.1 1694.84,-497.5 1635.25,-497.5 1575.66,-497.5 1527.25,-493.1 1527.25,-487.68 1527.25,-487.68 1527.25,-399.32 1527.25,-399.32 1527.25,-393.9 1575.66,-389.5 1635.25,-389.5 1694.84,-389.5 1743.25,-393.9 1743.25,-399.32 1743.25,-399.32 1743.25,-487.68 1743.25,-487.68"/>
<path fill="none" stroke="black" d="M1743.25,-487.68C1743.25,-482.26 1694.84,-477.86 1635.25,-477.86 1575.66,-477.86 1527.25,-482.26 1527.25,-487.68"/>
<text text-anchor="middle" x="1635.25" y="-438.45" font-family="Times,serif" font-size="14.00">8 incoming links (columns)</text>
</a>
</g>
</g>
<!-- medicare.ps.year_parent&#45;&gt;medicare.ps.year -->
<g id="edge6" class="edge">
<title>medicare.ps.year_parent&#45;&gt;medicare.ps.year</title>
<path fill="none" stroke="goldenrod" stroke-width="6" d="M1635.25,-389.41C1635.25,-377.68 1635.25,-365.01 1635.25,-352.5"/>
<polygon fill="goldenrod" stroke="goldenrod" stroke-width="6" points="1640.5,-352.68 1635.25,-342.68 1630,-352.68 1640.5,-352.68"/>
</g>
</g>
</svg>
