<?xml version="1.0" encoding="UTF-8" standalone="no"?>
<!DOCTYPE svg PUBLIC "-//W3C//DTD SVG 1.1//EN"
 "http://www.w3.org/Graphics/SVG/1.1/DTD/svg11.dtd">
<!-- Generated by graphviz version 10.0.1 (20240210.2158)
 -->
<!-- Pages: 1 -->
<svg width="2270pt" height="506pt"
 viewBox="0.00 0.00 2270.12 505.50" xmlns="http://www.w3.org/2000/svg" xmlns:xlink="http://www.w3.org/1999/xlink">
<g id="graph0" class="graph" transform="scale(1 1) rotate(0) translate(4 501.5)">
<polygon fill="white" stroke="none" points="-4,4 -4,-501.5 2266.12,-501.5 2266.12,4 -4,4"/>
<!-- medicare._enrollments.residence_counties -->
<g id="node1" class="node">
<title>medicare._enrollments.residence_counties</title>
<g id="a_node1"><a xlink:href="../medicare._enrollments/residence_counties.html" xlink:title="&lt;TABLE&gt;" target="_blank">
<polygon fill="none" stroke="black" points="1054.88,-59 783.62,-59 783.62,0 1054.88,0 1054.88,-59"/>
<text text-anchor="start" x="796.62" y="-37.7" font-family="Times,serif" font-weight="bold" font-size="14.00">medicare._enrollments.residence_counties</text>
<polygon fill="none" stroke="black" points="794.62,-7 794.62,-29.5 1043.88,-29.5 1043.88,-7 794.62,-7"/>
<text text-anchor="start" x="797.62" y="-13.2" font-family="Times,serif" font-size="14.00">string_agg(distinct fips3_list, &#39;,&#39;)</text>
<polygon fill="none" stroke="black" points="791.62,-4 791.62,-55 1046.88,-55 1046.88,-4 791.62,-4"/>
</a>
</g>
</g>
<!-- medicare._ps.fips3_list -->
<g id="node2" class="node">
<title>medicare._ps.fips3_list</title>
<g id="a_node2"><a xlink:href="../medicare._ps/fips3_list.html" xlink:title="&lt;TABLE&gt;" target="_blank">
<polygon fill="none" stroke="black" points="1838.5,-155 0,-155 0,-96 1838.5,-96 1838.5,-155"/>
<text text-anchor="start" x="852.88" y="-133.7" font-family="Times,serif" font-weight="bold" font-size="14.00">medicare._ps.fips3_list</text>
<polygon fill="none" stroke="black" points="11,-103 11,-125.5 1827.5,-125.5 1827.5,-103 11,-103"/>
<text text-anchor="start" x="14" y="-109.2" font-family="Times,serif" font-size="14.00">CASE WHEN year &gt; 2010 THEN (SELECT string_agg(distinct fips3::varchar, &#39;,&#39;) from public.ssa as s where ps.ssa3 = s.ssa3 and ps.year = s.year and ps.fips2 = s.fips2) &#160;&#160;&#160;ELSE (SELECT string_agg(distinct fips3::varchar, &#39;,&#39;) from public.ssa as s where ps.ssa3 = s.ssa3 and 2003 = s.year and ps.fips2 = s.fips2) END AS fips3_list</text>
<polygon fill="none" stroke="black" points="8,-100 8,-151 1830.5,-151 1830.5,-100 8,-100"/>
</a>
</g>
</g>
<!-- medicare._ps.fips3_list&#45;&gt;medicare._enrollments.residence_counties -->
<g id="edge1" class="edge">
<title>medicare._ps.fips3_list&#45;&gt;medicare._enrollments.residence_counties</title>
<path fill="none" stroke="blue" stroke-width="5" d="M919.25,-95.53C919.25,-89.13 919.25,-82.2 919.25,-75.33"/>
<polygon fill="blue" stroke="blue" stroke-width="5" points="923.63,-75.45 919.25,-65.45 914.88,-75.45 923.63,-75.45"/>
<text text-anchor="middle" x="1033.62" y="-72.45" font-family="Times,serif" font-size="14.00">	 &#160;Aggregated On bene_id, year, state</text>
</g>
<!-- medicare.ps.ssa3 -->
<g id="node3" class="node">
<title>medicare.ps.ssa3</title>
<g id="a_node3"><a xlink:href="../medicare.ps/ssa3.html" xlink:title="&lt;TABLE&gt;" target="_blank">
<polygon fill="none" stroke="black" points="694,-332 416.5,-332 416.5,-212.5 694,-212.5 694,-332"/>
<text text-anchor="start" x="506.12" y="-310.7" font-family="Times,serif" font-weight="bold" font-size="14.00">medicare.ps.ssa3</text>
<text text-anchor="start" x="452.5" y="-264.2" font-family="Times,serif" font-size="14.00">Social Security Administration (SSA)</text>
<text text-anchor="start" x="482.88" y="-247.7" font-family="Times,serif" font-size="14.00">three digit code for county</text>
<polygon fill="none" stroke="black" points="424.5,-216.5 424.5,-328 686,-328 686,-216.5 424.5,-216.5"/>
</a>
</g>
</g>
<!-- medicare.ps.ssa3&#45;&gt;medicare._ps.fips3_list -->
<g id="edge2" class="edge">
<title>medicare.ps.ssa3&#45;&gt;medicare._ps.fips3_list</title>
<path fill="none" stroke="black" d="M659.52,-212.15C674,-204.91 688.85,-197.97 703.25,-192 733.28,-179.55 766.54,-168.29 797.77,-158.75"/>
<polygon fill="black" stroke="black" points="798.71,-162.13 807.27,-155.89 796.69,-155.42 798.71,-162.13"/>
<text text-anchor="middle" x="791.88" y="-168.45" font-family="Times,serif" font-size="14.00"> &#160;Transformed</text>
</g>
<!-- medicare.ps.ssa3_parent -->
<g id="node4" class="node">
<title>medicare.ps.ssa3_parent</title>
<g id="a_node4"><a xlink:href="../medicare.ps/ssa3.html" xlink:title="8 incoming links (columns)" target="_blank">
<path fill="yellow" stroke="black" d="M663.25,-487.68C663.25,-493.1 614.84,-497.5 555.25,-497.5 495.66,-497.5 447.25,-493.1 447.25,-487.68 447.25,-487.68 447.25,-399.32 447.25,-399.32 447.25,-393.9 495.66,-389.5 555.25,-389.5 614.84,-389.5 663.25,-393.9 663.25,-399.32 663.25,-399.32 663.25,-487.68 663.25,-487.68"/>
<path fill="none" stroke="black" d="M663.25,-487.68C663.25,-482.26 614.84,-477.86 555.25,-477.86 495.66,-477.86 447.25,-482.26 447.25,-487.68"/>
<text text-anchor="middle" x="555.25" y="-438.45" font-family="Times,serif" font-size="14.00">8 incoming links (columns)</text>
</a>
</g>
</g>
<!-- medicare.ps.ssa3_parent&#45;&gt;medicare.ps.ssa3 -->
<g id="edge3" class="edge">
<title>medicare.ps.ssa3_parent&#45;&gt;medicare.ps.ssa3</title>
<path fill="none" stroke="goldenrod" stroke-width="6" d="M555.25,-389.41C555.25,-376.38 555.25,-362.19 555.25,-348.34"/>
<polygon fill="goldenrod" stroke="goldenrod" stroke-width="6" points="560.5,-348.79 555.25,-338.79 550,-348.79 560.5,-348.79"/>
</g>
<!-- medicare.ps.fips2 -->
<g id="node5" class="node">
<title>medicare.ps.fips2</title>
<g id="a_node5"><a xlink:href="../medicare.ps/fips2.html" xlink:title="&lt;TABLE&gt;" target="_blank">
<polygon fill="none" stroke="black" points="1126.38,-352.5 712.12,-352.5 712.12,-192 1126.38,-192 1126.38,-352.5"/>
<text text-anchor="start" x="868.25" y="-331.2" font-family="Times,serif" font-weight="bold" font-size="14.00">medicare.ps.fips2</text>
<text text-anchor="start" x="759.75" y="-284.7" font-family="Times,serif" font-size="14.00">2 digit state FIPS, see https://en.wikip</text>
<text text-anchor="start" x="748.12" y="-268.2" font-family="Times,serif" font-size="14.00">edia.org/wiki/Federal_Information_Proces</text>
<text text-anchor="start" x="793.12" y="-251.7" font-family="Times,serif" font-size="14.00">sing_Standard_state_code</text>
<polygon fill="none" stroke="black" points="723.12,-199 723.12,-221.5 1115.38,-221.5 1115.38,-199 723.12,-199"/>
<text text-anchor="start" x="726.12" y="-205.2" font-family="Times,serif" font-size="14.00">(SELECT fips2 FROM public.us_states as s WHERE s.ssa2 = &quot;state&quot;)</text>
<polygon fill="none" stroke="black" points="720.12,-196 720.12,-348.5 1118.38,-348.5 1118.38,-196 720.12,-196"/>
</a>
</g>
</g>
<!-- medicare.ps.fips2&#45;&gt;medicare._ps.fips3_list -->
<g id="edge4" class="edge">
<title>medicare.ps.fips2&#45;&gt;medicare._ps.fips3_list</title>
<path fill="none" stroke="black" d="M919.25,-191.68C919.25,-183.04 919.25,-174.54 919.25,-166.68"/>
<polygon fill="black" stroke="black" points="922.75,-166.81 919.25,-156.81 915.75,-166.81 922.75,-166.81"/>
<text text-anchor="middle" x="957.88" y="-168.45" font-family="Times,serif" font-size="14.00"> &#160;Transformed</text>
</g>
<!-- medicare.ps.year -->
<g id="node6" class="node">
<title>medicare.ps.year</title>
<g id="a_node6"><a xlink:href="../medicare.ps/year.html" xlink:title="&lt;TABLE&gt;" target="_blank">
<polygon fill="none" stroke="black" points="2262.12,-301.75 1144.38,-301.75 1144.38,-242.75 2262.12,-242.75 2262.12,-301.75"/>
<text text-anchor="start" x="1653.38" y="-280.45" font-family="Times,serif" font-weight="bold" font-size="14.00">medicare.ps.year</text>
<polygon fill="none" stroke="black" points="1155.38,-249.75 1155.38,-272.25 2251.12,-272.25 2251.12,-249.75 1155.38,-249.75"/>
<text text-anchor="start" x="1158.38" y="-255.95" font-family="Times,serif" font-size="14.00">(CASE WHEN &quot;year&quot;::int &lt; 20 THEN (2000 + &quot;year&quot;::int) WHEN (20 &lt; &quot;year&quot;::int AND &quot;year&quot;::int &lt; 100) THEN (1900 + &quot;year&quot;::int) WHEN &quot;year&quot; IS NULL THEN 2000 ELSE &quot;year&quot;::int END)</text>
<polygon fill="none" stroke="black" points="1152.38,-246.75 1152.38,-297.75 2254.12,-297.75 2254.12,-246.75 1152.38,-246.75"/>
</a>
</g>
</g>
<!-- medicare.ps.year&#45;&gt;medicare._ps.fips3_list -->
<g id="edge5" class="edge">
<title>medicare.ps.year&#45;&gt;medicare._ps.fips3_list</title>
<path fill="none" stroke="black" d="M1546.48,-242.31C1413.46,-217.75 1223.08,-182.6 1087.02,-157.47"/>
<polygon fill="black" stroke="black" points="1088.04,-154.1 1077.57,-155.73 1086.77,-160.99 1088.04,-154.1"/>
<text text-anchor="middle" x="1211.88" y="-168.45" font-family="Times,serif" font-size="14.00"> &#160;Transformed</text>
</g>
<!-- medicare.ps.year_parent -->
<g id="node7" class="node">
<title>medicare.ps.year_parent</title>
<g id="a_node7"><a xlink:href="../medicare.ps/year.html" xlink:title="8 incoming links (columns)" target="_blank">
<path fill="yellow" stroke="black" d="M1811.25,-487.68C1811.25,-493.1 1762.84,-497.5 1703.25,-497.5 1643.66,-497.5 1595.25,-493.1 1595.25,-487.68 1595.25,-487.68 1595.25,-399.32 1595.25,-399.32 1595.25,-393.9 1643.66,-389.5 1703.25,-389.5 1762.84,-389.5 1811.25,-393.9 1811.25,-399.32 1811.25,-399.32 1811.25,-487.68 1811.25,-487.68"/>
<path fill="none" stroke="black" d="M1811.25,-487.68C1811.25,-482.26 1762.84,-477.86 1703.25,-477.86 1643.66,-477.86 1595.25,-482.26 1595.25,-487.68"/>
<text text-anchor="middle" x="1703.25" y="-438.45" font-family="Times,serif" font-size="14.00">8 incoming links (columns)</text>
</a>
</g>
</g>
<!-- medicare.ps.year_parent&#45;&gt;medicare.ps.year -->
<g id="edge6" class="edge">
<title>medicare.ps.year_parent&#45;&gt;medicare.ps.year</title>
<path fill="none" stroke="goldenrod" stroke-width="6" d="M1703.25,-389.41C1703.25,-366.62 1703.25,-340.26 1703.25,-318.42"/>
<polygon fill="goldenrod" stroke="goldenrod" stroke-width="6" points="1708.5,-318.48 1703.25,-308.48 1698,-318.48 1708.5,-318.48"/>
</g>
</g>
</svg>
