<?xml version="1.0" encoding="UTF-8" standalone="no"?>
<!DOCTYPE svg PUBLIC "-//W3C//DTD SVG 1.1//EN"
 "http://www.w3.org/Graphics/SVG/1.1/DTD/svg11.dtd">
<!-- Generated by graphviz version 10.0.1 (20240210.2158)
 -->
<!-- Pages: 1 -->
<svg width="2270pt" height="602pt"
 viewBox="0.00 0.00 2270.12 601.50" xmlns="http://www.w3.org/2000/svg" xmlns:xlink="http://www.w3.org/1999/xlink">
<g id="graph0" class="graph" transform="scale(1 1) rotate(0) translate(4 597.5)">
<polygon fill="white" stroke="none" points="-4,4 -4,-597.5 2266.12,-597.5 2266.12,4 -4,4"/>
<!-- medicare.enrollments.residence_counties -->
<g id="node1" class="node">
<title>medicare.enrollments.residence_counties</title>
<g id="a_node1"><a xlink:href="../medicare.enrollments/residence_counties.html" xlink:title="&lt;TABLE&gt;" target="_blank">
<polygon fill="none" stroke="black" points="1475.12,-59 1210.62,-59 1210.62,0 1475.12,0 1475.12,-59"/>
<text text-anchor="start" x="1223.62" y="-37.7" font-family="Times,serif" font-weight="bold" font-size="14.00">medicare.enrollments.residence_counties</text>
<polygon fill="none" stroke="black" points="1221.62,-7 1221.62,-29.5 1464.12,-29.5 1464.12,-7 1221.62,-7"/>
<text text-anchor="start" x="1224.62" y="-13.2" font-family="Times,serif" font-size="14.00">string_agg(distinct fips3_list, &#39;,&#39;)</text>
<polygon fill="none" stroke="black" points="1218.62,-4 1218.62,-55 1467.12,-55 1467.12,-4 1218.62,-4"/>
</a>
</g>
</g>
<!-- medicare._enrollments.residence_counties -->
<g id="node2" class="node">
<title>medicare._enrollments.residence_counties</title>
<g id="a_node2"><a xlink:href="../medicare._enrollments/residence_counties.html" xlink:title="&lt;TABLE&gt;" target="_blank">
<polygon fill="none" stroke="black" points="1478.5,-155 1207.25,-155 1207.25,-96 1478.5,-96 1478.5,-155"/>
<text text-anchor="start" x="1220.25" y="-133.7" font-family="Times,serif" font-weight="bold" font-size="14.00">medicare._enrollments.residence_counties</text>
<polygon fill="none" stroke="black" points="1218.25,-103 1218.25,-125.5 1467.5,-125.5 1467.5,-103 1218.25,-103"/>
<text text-anchor="start" x="1221.25" y="-109.2" font-family="Times,serif" font-size="14.00">string_agg(distinct fips3_list, &#39;,&#39;)</text>
<polygon fill="none" stroke="black" points="1215.25,-100 1215.25,-151 1470.5,-151 1470.5,-100 1215.25,-100"/>
</a>
</g>
</g>
<!-- medicare._enrollments.residence_counties&#45;&gt;medicare.enrollments.residence_counties -->
<g id="edge1" class="edge">
<title>medicare._enrollments.residence_counties&#45;&gt;medicare.enrollments.residence_counties</title>
<path fill="none" stroke="black" d="M1342.88,-95.53C1342.88,-87.68 1342.88,-79.05 1342.88,-70.7"/>
<polygon fill="black" stroke="black" points="1346.38,-70.73 1342.88,-60.73 1339.38,-70.73 1346.38,-70.73"/>
<text text-anchor="middle" x="1362.38" y="-72.45" font-family="Times,serif" font-size="14.00">Copied</text>
</g>
<!-- medicare._ps.fips3_list -->
<g id="node3" class="node">
<title>medicare._ps.fips3_list</title>
<g id="a_node3"><a xlink:href="../medicare._ps/fips3_list.html" xlink:title="&lt;TABLE&gt;" target="_blank">
<polygon fill="none" stroke="black" points="2262.12,-251 423.62,-251 423.62,-192 2262.12,-192 2262.12,-251"/>
<text text-anchor="start" x="1276.5" y="-229.7" font-family="Times,serif" font-weight="bold" font-size="14.00">medicare._ps.fips3_list</text>
<polygon fill="none" stroke="black" points="434.62,-199 434.62,-221.5 2251.12,-221.5 2251.12,-199 434.62,-199"/>
<text text-anchor="start" x="437.62" y="-205.2" font-family="Times,serif" font-size="14.00">CASE WHEN year &gt; 2010 THEN (SELECT string_agg(distinct fips3::varchar, &#39;,&#39;) from public.ssa as s where ps.ssa3 = s.ssa3 and ps.year = s.year and ps.fips2 = s.fips2) &#160;&#160;&#160;ELSE (SELECT string_agg(distinct fips3::varchar, &#39;,&#39;) from public.ssa as s where ps.ssa3 = s.ssa3 and 2003 = s.year and ps.fips2 = s.fips2) END AS fips3_list</text>
<polygon fill="none" stroke="black" points="431.62,-196 431.62,-247 2254.12,-247 2254.12,-196 431.62,-196"/>
</a>
</g>
</g>
<!-- medicare._ps.fips3_list&#45;&gt;medicare._enrollments.residence_counties -->
<g id="edge2" class="edge">
<title>medicare._ps.fips3_list&#45;&gt;medicare._enrollments.residence_counties</title>
<path fill="none" stroke="blue" stroke-width="5" d="M1342.88,-191.53C1342.88,-185.13 1342.88,-178.2 1342.88,-171.33"/>
<polygon fill="blue" stroke="blue" stroke-width="5" points="1347.25,-171.45 1342.88,-161.45 1338.5,-171.45 1347.25,-171.45"/>
<text text-anchor="middle" x="1457.25" y="-168.45" font-family="Times,serif" font-size="14.00">	 &#160;Aggregated On bene_id, year, state</text>
</g>
<!-- medicare.ps.year -->
<g id="node4" class="node">
<title>medicare.ps.year</title>
<g id="a_node4"><a xlink:href="../medicare.ps/year.html" xlink:title="&lt;TABLE&gt;" target="_blank">
<polygon fill="none" stroke="black" points="1117.75,-397.75 0,-397.75 0,-338.75 1117.75,-338.75 1117.75,-397.75"/>
<text text-anchor="start" x="509" y="-376.45" font-family="Times,serif" font-weight="bold" font-size="14.00">medicare.ps.year</text>
<polygon fill="none" stroke="black" points="11,-345.75 11,-368.25 1106.75,-368.25 1106.75,-345.75 11,-345.75"/>
<text text-anchor="start" x="14" y="-351.95" font-family="Times,serif" font-size="14.00">(CASE WHEN &quot;year&quot;::int &lt; 20 THEN (2000 + &quot;year&quot;::int) WHEN (20 &lt; &quot;year&quot;::int AND &quot;year&quot;::int &lt; 100) THEN (1900 + &quot;year&quot;::int) WHEN &quot;year&quot; IS NULL THEN 2000 ELSE &quot;year&quot;::int END)</text>
<polygon fill="none" stroke="black" points="8,-342.75 8,-393.75 1109.75,-393.75 1109.75,-342.75 8,-342.75"/>
</a>
</g>
</g>
<!-- medicare.ps.year&#45;&gt;medicare._ps.fips3_list -->
<g id="edge3" class="edge">
<title>medicare.ps.year&#45;&gt;medicare._ps.fips3_list</title>
<path fill="none" stroke="black" d="M715.64,-338.31C848.67,-313.75 1039.04,-278.6 1175.11,-253.47"/>
<polygon fill="black" stroke="black" points="1175.36,-256.99 1184.55,-251.73 1174.08,-250.1 1175.36,-256.99"/>
<text text-anchor="middle" x="1128.5" y="-264.45" font-family="Times,serif" font-size="14.00"> &#160;Transformed</text>
</g>
<!-- medicare.ps.year_parent -->
<g id="node5" class="node">
<title>medicare.ps.year_parent</title>
<g id="a_node5"><a xlink:href="../medicare.ps/year.html" xlink:title="8 incoming links (columns)" target="_blank">
<path fill="yellow" stroke="black" d="M666.88,-583.68C666.88,-589.1 618.47,-593.5 558.88,-593.5 499.28,-593.5 450.88,-589.1 450.88,-583.68 450.88,-583.68 450.88,-495.32 450.88,-495.32 450.88,-489.9 499.28,-485.5 558.88,-485.5 618.47,-485.5 666.88,-489.9 666.88,-495.32 666.88,-495.32 666.88,-583.68 666.88,-583.68"/>
<path fill="none" stroke="black" d="M666.88,-583.68C666.88,-578.26 618.47,-573.86 558.88,-573.86 499.28,-573.86 450.88,-578.26 450.88,-583.68"/>
<text text-anchor="middle" x="558.88" y="-534.45" font-family="Times,serif" font-size="14.00">8 incoming links (columns)</text>
</a>
</g>
</g>
<!-- medicare.ps.year_parent&#45;&gt;medicare.ps.year -->
<g id="edge4" class="edge">
<title>medicare.ps.year_parent&#45;&gt;medicare.ps.year</title>
<path fill="none" stroke="goldenrod" stroke-width="6" d="M558.88,-485.41C558.88,-462.62 558.88,-436.26 558.88,-414.42"/>
<polygon fill="goldenrod" stroke="goldenrod" stroke-width="6" points="564.13,-414.48 558.88,-404.48 553.63,-414.48 564.13,-414.48"/>
</g>
<!-- medicare.ps.fips2 -->
<g id="node6" class="node">
<title>medicare.ps.fips2</title>
<g id="a_node6"><a xlink:href="../medicare.ps/fips2.html" xlink:title="&lt;TABLE&gt;" target="_blank">
<polygon fill="none" stroke="black" points="1550,-448.5 1135.75,-448.5 1135.75,-288 1550,-288 1550,-448.5"/>
<text text-anchor="start" x="1291.88" y="-427.2" font-family="Times,serif" font-weight="bold" font-size="14.00">medicare.ps.fips2</text>
<text text-anchor="start" x="1183.38" y="-380.7" font-family="Times,serif" font-size="14.00">2 digit state FIPS, see https://en.wikip</text>
<text text-anchor="start" x="1171.75" y="-364.2" font-family="Times,serif" font-size="14.00">edia.org/wiki/Federal_Information_Proces</text>
<text text-anchor="start" x="1216.75" y="-347.7" font-family="Times,serif" font-size="14.00">sing_Standard_state_code</text>
<polygon fill="none" stroke="black" points="1146.75,-295 1146.75,-317.5 1539,-317.5 1539,-295 1146.75,-295"/>
<text text-anchor="start" x="1149.75" y="-301.2" font-family="Times,serif" font-size="14.00">(SELECT fips2 FROM public.us_states as s WHERE s.ssa2 = &quot;state&quot;)</text>
<polygon fill="none" stroke="black" points="1143.75,-292 1143.75,-444.5 1542,-444.5 1542,-292 1143.75,-292"/>
</a>
</g>
</g>
<!-- medicare.ps.fips2&#45;&gt;medicare._ps.fips3_list -->
<g id="edge5" class="edge">
<title>medicare.ps.fips2&#45;&gt;medicare._ps.fips3_list</title>
<path fill="none" stroke="black" d="M1342.88,-287.68C1342.88,-279.04 1342.88,-270.54 1342.88,-262.68"/>
<polygon fill="black" stroke="black" points="1346.38,-262.81 1342.88,-252.81 1339.38,-262.81 1346.38,-262.81"/>
<text text-anchor="middle" x="1381.5" y="-264.45" font-family="Times,serif" font-size="14.00"> &#160;Transformed</text>
</g>
<!-- medicare.ps.ssa3 -->
<g id="node7" class="node">
<title>medicare.ps.ssa3</title>
<g id="a_node7"><a xlink:href="../medicare.ps/ssa3.html" xlink:title="&lt;TABLE&gt;" target="_blank">
<polygon fill="none" stroke="black" points="1845.62,-428 1568.12,-428 1568.12,-308.5 1845.62,-308.5 1845.62,-428"/>
<text text-anchor="start" x="1657.75" y="-406.7" font-family="Times,serif" font-weight="bold" font-size="14.00">medicare.ps.ssa3</text>
<text text-anchor="start" x="1604.12" y="-360.2" font-family="Times,serif" font-size="14.00">Social Security Administration (SSA)</text>
<text text-anchor="start" x="1634.5" y="-343.7" font-family="Times,serif" font-size="14.00">three digit code for county</text>
<polygon fill="none" stroke="black" points="1576.12,-312.5 1576.12,-424 1837.62,-424 1837.62,-312.5 1576.12,-312.5"/>
</a>
</g>
</g>
<!-- medicare.ps.ssa3&#45;&gt;medicare._ps.fips3_list -->
<g id="edge6" class="edge">
<title>medicare.ps.ssa3&#45;&gt;medicare._ps.fips3_list</title>
<path fill="none" stroke="black" d="M1602.6,-308.15C1588.13,-300.91 1573.28,-293.97 1558.88,-288 1528.84,-275.55 1495.59,-264.29 1464.36,-254.75"/>
<polygon fill="black" stroke="black" points="1465.43,-251.42 1454.85,-251.89 1463.42,-258.13 1465.43,-251.42"/>
<text text-anchor="middle" x="1548.5" y="-264.45" font-family="Times,serif" font-size="14.00"> &#160;Transformed</text>
</g>
<!-- medicare.ps.ssa3_parent -->
<g id="node8" class="node">
<title>medicare.ps.ssa3_parent</title>
<g id="a_node8"><a xlink:href="../medicare.ps/ssa3.html" xlink:title="8 incoming links (columns)" target="_blank">
<path fill="yellow" stroke="black" d="M1814.88,-583.68C1814.88,-589.1 1766.47,-593.5 1706.88,-593.5 1647.28,-593.5 1598.88,-589.1 1598.88,-583.68 1598.88,-583.68 1598.88,-495.32 1598.88,-495.32 1598.88,-489.9 1647.28,-485.5 1706.88,-485.5 1766.47,-485.5 1814.88,-489.9 1814.88,-495.32 1814.88,-495.32 1814.88,-583.68 1814.88,-583.68"/>
<path fill="none" stroke="black" d="M1814.88,-583.68C1814.88,-578.26 1766.47,-573.86 1706.88,-573.86 1647.28,-573.86 1598.88,-578.26 1598.88,-583.68"/>
<text text-anchor="middle" x="1706.88" y="-534.45" font-family="Times,serif" font-size="14.00">8 incoming links (columns)</text>
</a>
</g>
</g>
<!-- medicare.ps.ssa3_parent&#45;&gt;medicare.ps.ssa3 -->
<g id="edge7" class="edge">
<title>medicare.ps.ssa3_parent&#45;&gt;medicare.ps.ssa3</title>
<path fill="none" stroke="goldenrod" stroke-width="6" d="M1706.88,-485.41C1706.88,-472.38 1706.88,-458.19 1706.88,-444.34"/>
<polygon fill="goldenrod" stroke="goldenrod" stroke-width="6" points="1712.13,-444.79 1706.88,-434.79 1701.63,-444.79 1712.13,-444.79"/>
</g>
</g>
</svg>
