<?xml version="1.0" encoding="UTF-8" standalone="no"?>
<!DOCTYPE svg PUBLIC "-//W3C//DTD SVG 1.1//EN"
 "http://www.w3.org/Graphics/SVG/1.1/DTD/svg11.dtd">
<!-- Generated by graphviz version 10.0.1 (20240210.2158)
 -->
<!-- Pages: 1 -->
<svg width="2475pt" height="506pt"
 viewBox="0.00 0.00 2475.12 505.50" xmlns="http://www.w3.org/2000/svg" xmlns:xlink="http://www.w3.org/1999/xlink">
<g id="graph0" class="graph" transform="scale(1 1) rotate(0) translate(4 501.5)">
<polygon fill="white" stroke="none" points="-4,4 -4,-501.5 2471.12,-501.5 2471.12,4 -4,4"/>
<!-- medicare._enrollments.residence_county -->
<g id="node1" class="node">
<title>medicare._enrollments.residence_county</title>
<g id="a_node1"><a xlink:href="../medicare._enrollments/residence_county.html" xlink:title="&lt;TABLE&gt;" target="_blank">
<polygon fill="none" stroke="black" points="1406.38,-59 1143.38,-59 1143.38,0 1406.38,0 1406.38,-59"/>
<text text-anchor="start" x="1156.38" y="-37.7" font-family="Times,serif" font-weight="bold" font-size="14.00">medicare._enrollments.residence_county</text>
<polygon fill="none" stroke="black" points="1154.38,-7 1154.38,-29.5 1395.38,-29.5 1395.38,-7 1154.38,-7"/>
<text text-anchor="start" x="1157.38" y="-13.2" font-family="Times,serif" font-size="14.00">MAX(fips3)</text>
<polygon fill="none" stroke="black" points="1151.38,-4 1151.38,-55 1398.38,-55 1398.38,-4 1151.38,-4"/>
</a>
</g>
</g>
<!-- medicare._ps.fips3 -->
<g id="node2" class="node">
<title>medicare._ps.fips3</title>
<g id="a_node2"><a xlink:href="../medicare._ps/fips3.html" xlink:title="&lt;TABLE&gt;" target="_blank">
<polygon fill="none" stroke="black" points="2467.12,-155 82.62,-155 82.62,-96 2467.12,-96 2467.12,-155"/>
<text text-anchor="start" x="1220.5" y="-133.7" font-family="Times,serif" font-weight="bold" font-size="14.00">medicare._ps.fips3</text>
<polygon fill="none" stroke="black" points="93.62,-103 93.62,-125.5 2456.12,-125.5 2456.12,-103 93.62,-103"/>
<text text-anchor="start" x="96.62" y="-109.2" font-family="Times,serif" font-size="14.00">CASE WHEN ssa3 is NOT NULL THEN &#160;CASE WHEN year &gt; 2010 THEN &#160;&#160;&#160;&#160;&#160;(SELECT fips3 from public.ssa as s where ps.ssa3 = s.ssa3 and ps.year = s.year and ps.fips2 = s.fips2 ORDER BY 1 DESC LIMIT 1) &#160;&#160;&#160;ELSE &#160;&#160;&#160;&#160;&#160;(SELECT fips3 from public.ssa as s where ps.ssa3 = s.ssa3 and 2003 = s.year and ps.fips2 = s.fips2 ORDER BY 1 DESC LIMIT 1) &#160;ENDELSE &#160;(SELECT public.zip_to_fips3(year, zip))END AS fips3</text>
<polygon fill="none" stroke="black" points="90.62,-100 90.62,-151 2459.12,-151 2459.12,-100 90.62,-100"/>
</a>
</g>
</g>
<!-- medicare._ps.fips3&#45;&gt;medicare._enrollments.residence_county -->
<g id="edge1" class="edge">
<title>medicare._ps.fips3&#45;&gt;medicare._enrollments.residence_county</title>
<path fill="none" stroke="blue" stroke-width="5" d="M1274.88,-95.53C1274.88,-89.13 1274.88,-82.2 1274.88,-75.33"/>
<polygon fill="blue" stroke="blue" stroke-width="5" points="1279.25,-75.45 1274.88,-65.45 1270.5,-75.45 1279.25,-75.45"/>
<text text-anchor="middle" x="1389.25" y="-72.45" font-family="Times,serif" font-size="14.00">	 &#160;Aggregated On bene_id, year, state</text>
</g>
<!-- medicare.ps.year -->
<g id="node3" class="node">
<title>medicare.ps.year</title>
<g id="a_node3"><a xlink:href="../medicare.ps/year.html" xlink:title="&lt;TABLE&gt;" target="_blank">
<polygon fill="none" stroke="black" points="1117.75,-301.75 0,-301.75 0,-242.75 1117.75,-242.75 1117.75,-301.75"/>
<text text-anchor="start" x="509" y="-280.45" font-family="Times,serif" font-weight="bold" font-size="14.00">medicare.ps.year</text>
<polygon fill="none" stroke="black" points="11,-249.75 11,-272.25 1106.75,-272.25 1106.75,-249.75 11,-249.75"/>
<text text-anchor="start" x="14" y="-255.95" font-family="Times,serif" font-size="14.00">(CASE WHEN &quot;year&quot;::int &lt; 20 THEN (2000 + &quot;year&quot;::int) WHEN (20 &lt; &quot;year&quot;::int AND &quot;year&quot;::int &lt; 100) THEN (1900 + &quot;year&quot;::int) WHEN &quot;year&quot; IS NULL THEN 2000 ELSE &quot;year&quot;::int END)</text>
<polygon fill="none" stroke="black" points="8,-246.75 8,-297.75 1109.75,-297.75 1109.75,-246.75 8,-246.75"/>
</a>
</g>
</g>
<!-- medicare.ps.year&#45;&gt;medicare._ps.fips3 -->
<g id="edge2" class="edge">
<title>medicare.ps.year&#45;&gt;medicare._ps.fips3</title>
<path fill="none" stroke="black" d="M702.05,-242.31C823.17,-217.82 996.35,-182.81 1120.54,-157.7"/>
<polygon fill="black" stroke="black" points="1121.05,-161.17 1130.16,-155.76 1119.67,-154.31 1121.05,-161.17"/>
<text text-anchor="middle" x="1082.5" y="-168.45" font-family="Times,serif" font-size="14.00"> &#160;Transformed</text>
</g>
<!-- medicare.ps.year_parent -->
<g id="node4" class="node">
<title>medicare.ps.year_parent</title>
<g id="a_node4"><a xlink:href="../medicare.ps/year.html" xlink:title="8 incoming links (columns)" target="_blank">
<path fill="yellow" stroke="black" d="M666.88,-487.68C666.88,-493.1 618.47,-497.5 558.88,-497.5 499.28,-497.5 450.88,-493.1 450.88,-487.68 450.88,-487.68 450.88,-399.32 450.88,-399.32 450.88,-393.9 499.28,-389.5 558.88,-389.5 618.47,-389.5 666.88,-393.9 666.88,-399.32 666.88,-399.32 666.88,-487.68 666.88,-487.68"/>
<path fill="none" stroke="black" d="M666.88,-487.68C666.88,-482.26 618.47,-477.86 558.88,-477.86 499.28,-477.86 450.88,-482.26 450.88,-487.68"/>
<text text-anchor="middle" x="558.88" y="-438.45" font-family="Times,serif" font-size="14.00">8 incoming links (columns)</text>
</a>
</g>
</g>
<!-- medicare.ps.year_parent&#45;&gt;medicare.ps.year -->
<g id="edge3" class="edge">
<title>medicare.ps.year_parent&#45;&gt;medicare.ps.year</title>
<path fill="none" stroke="goldenrod" stroke-width="6" d="M558.88,-389.41C558.88,-366.62 558.88,-340.26 558.88,-318.42"/>
<polygon fill="goldenrod" stroke="goldenrod" stroke-width="6" points="564.13,-318.48 558.88,-308.48 553.63,-318.48 564.13,-318.48"/>
</g>
<!-- medicare.ps.ssa3 -->
<g id="node5" class="node">
<title>medicare.ps.ssa3</title>
<g id="a_node5"><a xlink:href="../medicare.ps/ssa3.html" xlink:title="&lt;TABLE&gt;" target="_blank">
<polygon fill="none" stroke="black" points="1413.62,-332 1136.12,-332 1136.12,-212.5 1413.62,-212.5 1413.62,-332"/>
<text text-anchor="start" x="1225.75" y="-310.7" font-family="Times,serif" font-weight="bold" font-size="14.00">medicare.ps.ssa3</text>
<text text-anchor="start" x="1172.12" y="-264.2" font-family="Times,serif" font-size="14.00">Social Security Administration (SSA)</text>
<text text-anchor="start" x="1202.5" y="-247.7" font-family="Times,serif" font-size="14.00">three digit code for county</text>
<polygon fill="none" stroke="black" points="1144.12,-216.5 1144.12,-328 1405.62,-328 1405.62,-216.5 1144.12,-216.5"/>
</a>
</g>
</g>
<!-- medicare.ps.ssa3&#45;&gt;medicare._ps.fips3 -->
<g id="edge4" class="edge">
<title>medicare.ps.ssa3&#45;&gt;medicare._ps.fips3</title>
<path fill="none" stroke="black" d="M1274.88,-212.37C1274.88,-196.97 1274.88,-180.71 1274.88,-166.54"/>
<polygon fill="black" stroke="black" points="1278.38,-166.7 1274.88,-156.7 1271.38,-166.7 1278.38,-166.7"/>
<text text-anchor="middle" x="1313.5" y="-168.45" font-family="Times,serif" font-size="14.00"> &#160;Transformed</text>
</g>
<!-- medicare.ps.ssa3_parent -->
<g id="node6" class="node">
<title>medicare.ps.ssa3_parent</title>
<g id="a_node6"><a xlink:href="../medicare.ps/ssa3.html" xlink:title="8 incoming links (columns)" target="_blank">
<path fill="yellow" stroke="black" d="M1382.88,-487.68C1382.88,-493.1 1334.47,-497.5 1274.88,-497.5 1215.28,-497.5 1166.88,-493.1 1166.88,-487.68 1166.88,-487.68 1166.88,-399.32 1166.88,-399.32 1166.88,-393.9 1215.28,-389.5 1274.88,-389.5 1334.47,-389.5 1382.88,-393.9 1382.88,-399.32 1382.88,-399.32 1382.88,-487.68 1382.88,-487.68"/>
<path fill="none" stroke="black" d="M1382.88,-487.68C1382.88,-482.26 1334.47,-477.86 1274.88,-477.86 1215.28,-477.86 1166.88,-482.26 1166.88,-487.68"/>
<text text-anchor="middle" x="1274.88" y="-438.45" font-family="Times,serif" font-size="14.00">8 incoming links (columns)</text>
</a>
</g>
</g>
<!-- medicare.ps.ssa3_parent&#45;&gt;medicare.ps.ssa3 -->
<g id="edge5" class="edge">
<title>medicare.ps.ssa3_parent&#45;&gt;medicare.ps.ssa3</title>
<path fill="none" stroke="goldenrod" stroke-width="6" d="M1274.88,-389.41C1274.88,-376.38 1274.88,-362.19 1274.88,-348.34"/>
<polygon fill="goldenrod" stroke="goldenrod" stroke-width="6" points="1280.13,-348.79 1274.88,-338.79 1269.63,-348.79 1280.13,-348.79"/>
</g>
<!-- medicare.ps.fips2 -->
<g id="node7" class="node">
<title>medicare.ps.fips2</title>
<g id="a_node7"><a xlink:href="../medicare.ps/fips2.html" xlink:title="&lt;TABLE&gt;" target="_blank">
<polygon fill="none" stroke="black" points="1846,-352.5 1431.75,-352.5 1431.75,-192 1846,-192 1846,-352.5"/>
<text text-anchor="start" x="1587.88" y="-331.2" font-family="Times,serif" font-weight="bold" font-size="14.00">medicare.ps.fips2</text>
<text text-anchor="start" x="1479.38" y="-284.7" font-family="Times,serif" font-size="14.00">2 digit state FIPS, see https://en.wikip</text>
<text text-anchor="start" x="1467.75" y="-268.2" font-family="Times,serif" font-size="14.00">edia.org/wiki/Federal_Information_Proces</text>
<text text-anchor="start" x="1512.75" y="-251.7" font-family="Times,serif" font-size="14.00">sing_Standard_state_code</text>
<polygon fill="none" stroke="black" points="1442.75,-199 1442.75,-221.5 1835,-221.5 1835,-199 1442.75,-199"/>
<text text-anchor="start" x="1445.75" y="-205.2" font-family="Times,serif" font-size="14.00">(SELECT fips2 FROM public.us_states as s WHERE s.ssa2 = &quot;state&quot;)</text>
<polygon fill="none" stroke="black" points="1439.75,-196 1439.75,-348.5 1838,-348.5 1838,-196 1439.75,-196"/>
</a>
</g>
</g>
<!-- medicare.ps.fips2&#45;&gt;medicare._ps.fips3 -->
<g id="edge6" class="edge">
<title>medicare.ps.fips2&#45;&gt;medicare._ps.fips3</title>
<path fill="none" stroke="black" d="M1438.51,-191.57C1410.19,-180.31 1382.47,-169.29 1358.14,-159.61"/>
<polygon fill="black" stroke="black" points="1359.55,-156.41 1348.97,-155.96 1356.97,-162.91 1359.55,-156.41"/>
<text text-anchor="middle" x="1431.5" y="-168.45" font-family="Times,serif" font-size="14.00"> &#160;Transformed</text>
</g>
</g>
</svg>
