<?xml version="1.0" encoding="UTF-8" standalone="no"?>
<!DOCTYPE svg PUBLIC "-//W3C//DTD SVG 1.1//EN"
 "http://www.w3.org/Graphics/SVG/1.1/DTD/svg11.dtd">
<!-- Generated by graphviz version 10.0.1 (20240210.2158)
 -->
<!-- Pages: 1 -->
<svg width="2393pt" height="602pt"
 viewBox="0.00 0.00 2392.50 601.50" xmlns="http://www.w3.org/2000/svg" xmlns:xlink="http://www.w3.org/1999/xlink">
<g id="graph0" class="graph" transform="scale(1 1) rotate(0) translate(4 597.5)">
<polygon fill="white" stroke="none" points="-4,4 -4,-597.5 2388.5,-597.5 2388.5,4 -4,4"/>
<!-- medicare.enrollments.residence_county -->
<g id="node1" class="node">
<title>medicare.enrollments.residence_county</title>
<g id="a_node1"><a xlink:href="../medicare.enrollments/residence_county.html" xlink:title="&lt;TABLE&gt;" target="_blank">
<polygon fill="none" stroke="black" points="1320.38,-59 1064.12,-59 1064.12,0 1320.38,0 1320.38,-59"/>
<text text-anchor="start" x="1077.12" y="-37.7" font-family="Times,serif" font-weight="bold" font-size="14.00">medicare.enrollments.residence_county</text>
<polygon fill="none" stroke="black" points="1075.12,-7 1075.12,-29.5 1309.38,-29.5 1309.38,-7 1075.12,-7"/>
<text text-anchor="start" x="1078.12" y="-13.2" font-family="Times,serif" font-size="14.00">MAX(fips3)</text>
<polygon fill="none" stroke="black" points="1072.12,-4 1072.12,-55 1312.38,-55 1312.38,-4 1072.12,-4"/>
</a>
</g>
</g>
<!-- medicare._enrollments.fips3 -->
<g id="node2" class="node">
<title>medicare._enrollments.fips3</title>
<g id="a_node2"><a xlink:href="../medicare._enrollments/fips3.html" xlink:title="&lt;TABLE&gt;" target="_blank">
<polygon fill="none" stroke="black" points="1287.75,-155 1096.75,-155 1096.75,-96 1287.75,-96 1287.75,-155"/>
<text text-anchor="start" x="1109.75" y="-133.7" font-family="Times,serif" font-weight="bold" font-size="14.00">medicare._enrollments.fips3</text>
<polygon fill="none" stroke="black" points="1107.75,-103 1107.75,-125.5 1276.75,-125.5 1276.75,-103 1107.75,-103"/>
<text text-anchor="start" x="1110.75" y="-109.2" font-family="Times,serif" font-size="14.00">MAX(fips3)</text>
<polygon fill="none" stroke="black" points="1104.75,-100 1104.75,-151 1279.75,-151 1279.75,-100 1104.75,-100"/>
</a>
</g>
</g>
<!-- medicare._enrollments.fips3&#45;&gt;medicare.enrollments.residence_county -->
<g id="edge1" class="edge">
<title>medicare._enrollments.fips3&#45;&gt;medicare.enrollments.residence_county</title>
<path fill="none" stroke="black" d="M1192.25,-95.53C1192.25,-87.68 1192.25,-79.05 1192.25,-70.7"/>
<polygon fill="black" stroke="black" points="1195.75,-70.73 1192.25,-60.73 1188.75,-70.73 1195.75,-70.73"/>
<text text-anchor="middle" x="1211.75" y="-72.45" font-family="Times,serif" font-size="14.00">Copied</text>
</g>
<!-- medicare._ps.fips3 -->
<g id="node3" class="node">
<title>medicare._ps.fips3</title>
<g id="a_node3"><a xlink:href="../medicare._ps/fips3.html" xlink:title="&lt;TABLE&gt;" target="_blank">
<polygon fill="none" stroke="black" points="2384.5,-251 0,-251 0,-192 2384.5,-192 2384.5,-251"/>
<text text-anchor="start" x="1137.88" y="-229.7" font-family="Times,serif" font-weight="bold" font-size="14.00">medicare._ps.fips3</text>
<polygon fill="none" stroke="black" points="11,-199 11,-221.5 2373.5,-221.5 2373.5,-199 11,-199"/>
<text text-anchor="start" x="14" y="-205.2" font-family="Times,serif" font-size="14.00">CASE WHEN ssa3 is NOT NULL THEN &#160;CASE WHEN year &gt; 2010 THEN &#160;&#160;&#160;&#160;&#160;(SELECT fips3 from public.ssa as s where ps.ssa3 = s.ssa3 and ps.year = s.year and ps.fips2 = s.fips2 ORDER BY 1 DESC LIMIT 1) &#160;&#160;&#160;ELSE &#160;&#160;&#160;&#160;&#160;(SELECT fips3 from public.ssa as s where ps.ssa3 = s.ssa3 and 2003 = s.year and ps.fips2 = s.fips2 ORDER BY 1 DESC LIMIT 1) &#160;ENDELSE &#160;(SELECT public.zip_to_fips3(year, zip))END AS fips3</text>
<polygon fill="none" stroke="black" points="8,-196 8,-247 2376.5,-247 2376.5,-196 8,-196"/>
</a>
</g>
</g>
<!-- medicare._ps.fips3&#45;&gt;medicare._enrollments.fips3 -->
<g id="edge2" class="edge">
<title>medicare._ps.fips3&#45;&gt;medicare._enrollments.fips3</title>
<path fill="none" stroke="blue" stroke-width="5" d="M1192.25,-191.53C1192.25,-185.13 1192.25,-178.2 1192.25,-171.33"/>
<polygon fill="blue" stroke="blue" stroke-width="5" points="1196.63,-171.45 1192.25,-161.45 1187.88,-171.45 1196.63,-171.45"/>
<text text-anchor="middle" x="1306.62" y="-168.45" font-family="Times,serif" font-size="14.00">	 &#160;Aggregated On bene_id, year, state</text>
</g>
<!-- medicare.ps.ssa3 -->
<g id="node4" class="node">
<title>medicare.ps.ssa3</title>
<g id="a_node4"><a xlink:href="../medicare.ps/ssa3.html" xlink:title="&lt;TABLE&gt;" target="_blank">
<polygon fill="none" stroke="black" points="615,-428 337.5,-428 337.5,-308.5 615,-308.5 615,-428"/>
<text text-anchor="start" x="427.12" y="-406.7" font-family="Times,serif" font-weight="bold" font-size="14.00">medicare.ps.ssa3</text>
<text text-anchor="start" x="373.5" y="-360.2" font-family="Times,serif" font-size="14.00">Social Security Administration (SSA)</text>
<text text-anchor="start" x="403.88" y="-343.7" font-family="Times,serif" font-size="14.00">three digit code for county</text>
<polygon fill="none" stroke="black" points="345.5,-312.5 345.5,-424 607,-424 607,-312.5 345.5,-312.5"/>
</a>
</g>
</g>
<!-- medicare.ps.ssa3&#45;&gt;medicare._ps.fips3 -->
<g id="edge3" class="edge">
<title>medicare.ps.ssa3&#45;&gt;medicare._ps.fips3</title>
<path fill="none" stroke="black" d="M574.73,-308.01C590.85,-300.23 607.7,-293.18 624.25,-288 670.27,-273.6 719.28,-262.31 768.48,-253.46"/>
<polygon fill="black" stroke="black" points="768.91,-256.94 778.15,-251.76 767.7,-250.05 768.91,-256.94"/>
<text text-anchor="middle" x="730.88" y="-264.45" font-family="Times,serif" font-size="14.00"> &#160;Transformed</text>
</g>
<!-- medicare.ps.ssa3_parent -->
<g id="node5" class="node">
<title>medicare.ps.ssa3_parent</title>
<g id="a_node5"><a xlink:href="../medicare.ps/ssa3.html" xlink:title="8 incoming links (columns)" target="_blank">
<path fill="yellow" stroke="black" d="M584.25,-583.68C584.25,-589.1 535.84,-593.5 476.25,-593.5 416.66,-593.5 368.25,-589.1 368.25,-583.68 368.25,-583.68 368.25,-495.32 368.25,-495.32 368.25,-489.9 416.66,-485.5 476.25,-485.5 535.84,-485.5 584.25,-489.9 584.25,-495.32 584.25,-495.32 584.25,-583.68 584.25,-583.68"/>
<path fill="none" stroke="black" d="M584.25,-583.68C584.25,-578.26 535.84,-573.86 476.25,-573.86 416.66,-573.86 368.25,-578.26 368.25,-583.68"/>
<text text-anchor="middle" x="476.25" y="-534.45" font-family="Times,serif" font-size="14.00">8 incoming links (columns)</text>
</a>
</g>
</g>
<!-- medicare.ps.ssa3_parent&#45;&gt;medicare.ps.ssa3 -->
<g id="edge4" class="edge">
<title>medicare.ps.ssa3_parent&#45;&gt;medicare.ps.ssa3</title>
<path fill="none" stroke="goldenrod" stroke-width="6" d="M476.25,-485.41C476.25,-472.38 476.25,-458.19 476.25,-444.34"/>
<polygon fill="goldenrod" stroke="goldenrod" stroke-width="6" points="481.5,-444.79 476.25,-434.79 471,-444.79 481.5,-444.79"/>
</g>
<!-- medicare.ps.year -->
<g id="node6" class="node">
<title>medicare.ps.year</title>
<g id="a_node6"><a xlink:href="../medicare.ps/year.html" xlink:title="&lt;TABLE&gt;" target="_blank">
<polygon fill="none" stroke="black" points="1751.12,-432 633.38,-432 633.38,-304.5 1751.12,-304.5 1751.12,-432"/>
<text text-anchor="start" x="1142.38" y="-410.7" font-family="Times,serif" font-weight="bold" font-size="14.00">medicare.ps.year</text>
<text text-anchor="start" x="669.38" y="-364.2" font-family="Times,serif" font-size="14.00">Beneficiary Enrollment Reference Year</text>
<polygon fill="none" stroke="black" points="644.38,-311.5 644.38,-334 1740.12,-334 1740.12,-311.5 644.38,-311.5"/>
<text text-anchor="start" x="647.38" y="-317.7" font-family="Times,serif" font-size="14.00">(CASE WHEN &quot;year&quot;::int &lt; 20 THEN (2000 + &quot;year&quot;::int) WHEN (20 &lt; &quot;year&quot;::int AND &quot;year&quot;::int &lt; 100) THEN (1900 + &quot;year&quot;::int) WHEN &quot;year&quot; IS NULL THEN 2000 ELSE &quot;year&quot;::int END)</text>
<polygon fill="none" stroke="black" points="641.38,-308.5 641.38,-428 1743.12,-428 1743.12,-308.5 641.38,-308.5"/>
</a>
</g>
</g>
<!-- medicare.ps.year&#45;&gt;medicare._ps.fips3 -->
<g id="edge5" class="edge">
<title>medicare.ps.year&#45;&gt;medicare._ps.fips3</title>
<path fill="none" stroke="black" d="M1192.25,-304.18C1192.25,-290.07 1192.25,-275.47 1192.25,-262.59"/>
<polygon fill="black" stroke="black" points="1195.75,-262.82 1192.25,-252.82 1188.75,-262.82 1195.75,-262.82"/>
<text text-anchor="middle" x="1230.88" y="-264.45" font-family="Times,serif" font-size="14.00"> &#160;Transformed</text>
</g>
<!-- medicare.ps.year_parent -->
<g id="node7" class="node">
<title>medicare.ps.year_parent</title>
<g id="a_node7"><a xlink:href="../medicare.ps/year.html" xlink:title="8 incoming links (columns)" target="_blank">
<path fill="yellow" stroke="black" d="M1300.25,-583.68C1300.25,-589.1 1251.84,-593.5 1192.25,-593.5 1132.66,-593.5 1084.25,-589.1 1084.25,-583.68 1084.25,-583.68 1084.25,-495.32 1084.25,-495.32 1084.25,-489.9 1132.66,-485.5 1192.25,-485.5 1251.84,-485.5 1300.25,-489.9 1300.25,-495.32 1300.25,-495.32 1300.25,-583.68 1300.25,-583.68"/>
<path fill="none" stroke="black" d="M1300.25,-583.68C1300.25,-578.26 1251.84,-573.86 1192.25,-573.86 1132.66,-573.86 1084.25,-578.26 1084.25,-583.68"/>
<text text-anchor="middle" x="1192.25" y="-534.45" font-family="Times,serif" font-size="14.00">8 incoming links (columns)</text>
</a>
</g>
</g>
<!-- medicare.ps.year_parent&#45;&gt;medicare.ps.year -->
<g id="edge6" class="edge">
<title>medicare.ps.year_parent&#45;&gt;medicare.ps.year</title>
<path fill="none" stroke="goldenrod" stroke-width="6" d="M1192.25,-485.41C1192.25,-473.68 1192.25,-461.01 1192.25,-448.5"/>
<polygon fill="goldenrod" stroke="goldenrod" stroke-width="6" points="1197.5,-448.68 1192.25,-438.68 1187,-448.68 1197.5,-448.68"/>
</g>
<!-- medicare.ps.fips2 -->
<g id="node8" class="node">
<title>medicare.ps.fips2</title>
<g id="a_node8"><a xlink:href="../medicare.ps/fips2.html" xlink:title="&lt;TABLE&gt;" target="_blank">
<polygon fill="none" stroke="black" points="2183.38,-448.5 1769.12,-448.5 1769.12,-288 2183.38,-288 2183.38,-448.5"/>
<text text-anchor="start" x="1925.25" y="-427.2" font-family="Times,serif" font-weight="bold" font-size="14.00">medicare.ps.fips2</text>
<text text-anchor="start" x="1816.75" y="-380.7" font-family="Times,serif" font-size="14.00">2 digit state FIPS, see https://en.wikip</text>
<text text-anchor="start" x="1805.12" y="-364.2" font-family="Times,serif" font-size="14.00">edia.org/wiki/Federal_Information_Proces</text>
<text text-anchor="start" x="1850.12" y="-347.7" font-family="Times,serif" font-size="14.00">sing_Standard_state_code</text>
<polygon fill="none" stroke="black" points="1780.12,-295 1780.12,-317.5 2172.38,-317.5 2172.38,-295 1780.12,-295"/>
<text text-anchor="start" x="1783.12" y="-301.2" font-family="Times,serif" font-size="14.00">(SELECT fips2 FROM public.us_states as s WHERE s.ssa2 = &quot;state&quot;)</text>
<polygon fill="none" stroke="black" points="1777.12,-292 1777.12,-444.5 2175.38,-444.5 2175.38,-292 1777.12,-292"/>
</a>
</g>
</g>
<!-- medicare.ps.fips2&#45;&gt;medicare._ps.fips3 -->
<g id="edge7" class="edge">
<title>medicare.ps.fips2&#45;&gt;medicare._ps.fips3</title>
<path fill="none" stroke="black" d="M1768.74,-290.08C1765.9,-289.36 1763.07,-288.67 1760.25,-288 1698.4,-273.31 1631.94,-261.87 1567.06,-252.97"/>
<polygon fill="black" stroke="black" points="1567.7,-249.52 1557.32,-251.65 1566.76,-256.46 1567.7,-249.52"/>
<text text-anchor="middle" x="1707.88" y="-264.45" font-family="Times,serif" font-size="14.00"> &#160;Transformed</text>
</g>
</g>
</svg>
