<?xml version="1.0" encoding="UTF-8" standalone="no"?>
<!DOCTYPE svg PUBLIC "-//W3C//DTD SVG 1.1//EN"
 "http://www.w3.org/Graphics/SVG/1.1/DTD/svg11.dtd">
<!-- Generated by graphviz version 14.1.4 (20260321.0153)
 -->
<!-- Pages: 1 -->
<svg width="2385pt" height="506pt"
 viewBox="0.00 0.00 2385.00 506.00" xmlns="http://www.w3.org/2000/svg" xmlns:xlink="http://www.w3.org/1999/xlink">
<g id="graph0" class="graph" transform="scale(1 1) rotate(0) translate(4 501.5)">
<polygon fill="white" stroke="none" points="-4,4 -4,-501.5 2381,-501.5 2381,4 -4,4"/>
<!-- medicare._enrollments.residence_county -->
<g id="node1" class="node">
<title>medicare._enrollments.residence_county</title>
<g id="a_node1"><a xlink:href="../medicare._enrollments/residence_county.html" xlink:title="&lt;TABLE&gt;" target="_blank">
<polygon fill="none" stroke="black" points="1320,-59 1057,-59 1057,0 1320,0 1320,-59"/>
<text xml:space="preserve" text-anchor="start" x="1070" y="-37.7" font-family="Times,serif" font-weight="bold" font-size="14.00">medicare._enrollments.residence_county</text>
<polygon fill="none" stroke="black" points="1068,-7 1068,-29.5 1309,-29.5 1309,-7 1068,-7"/>
<text xml:space="preserve" text-anchor="start" x="1071" y="-13.75" font-family="Times,serif" font-size="14.00">MAX(fips3)</text>
<polygon fill="none" stroke="black" points="1065,-4 1065,-55 1312,-55 1312,-4 1065,-4"/>
</a>
</g>
</g>
<!-- medicare._ps.fips3 -->
<g id="node2" class="node">
<title>medicare._ps.fips3</title>
<g id="a_node2"><a xlink:href="../medicare._ps/fips3.html" xlink:title="&lt;TABLE&gt;" target="_blank">
<polygon fill="none" stroke="black" points="2377,-155 0,-155 0,-96 2377,-96 2377,-155"/>
<text xml:space="preserve" text-anchor="start" x="1134.12" y="-133.7" font-family="Times,serif" font-weight="bold" font-size="14.00">medicare._ps.fips3</text>
<polygon fill="none" stroke="black" points="11,-103 11,-125.5 2366,-125.5 2366,-103 11,-103"/>
<text xml:space="preserve" text-anchor="start" x="14" y="-109.75" font-family="Times,serif" font-size="14.00">CASE WHEN ssa3 is NOT NULL THEN &#160;CASE WHEN year &gt; 2010 THEN &#160;&#160;&#160;&#160;&#160;(SELECT fips3 from public.ssa as s where ps.ssa3 = s.ssa3 and ps.year = s.year and ps.fips2 = s.fips2 ORDER BY 1 DESC LIMIT 1) &#160;&#160;&#160;ELSE &#160;&#160;&#160;&#160;&#160;(SELECT fips3 from public.ssa as s where ps.ssa3 = s.ssa3 and 2003 = s.year and ps.fips2 = s.fips2 ORDER BY 1 DESC LIMIT 1) &#160;ENDELSE &#160;(SELECT public.zip_to_fips3(year, zip))END AS fips3</text>
<polygon fill="none" stroke="black" points="8,-100 8,-151 2369,-151 2369,-100 8,-100"/>
</a>
</g>
</g>
<!-- medicare._ps.fips3&#45;&gt;medicare._enrollments.residence_county -->
<g id="edge1" class="edge">
<title>medicare._ps.fips3&#45;&gt;medicare._enrollments.residence_county</title>
<path fill="none" stroke="blue" stroke-width="5" d="M1188.5,-95.53C1188.5,-89.13 1188.5,-82.2 1188.5,-75.33"/>
<polygon fill="blue" stroke="blue" stroke-width="5" points="1192.88,-75.45 1188.5,-65.45 1184.13,-75.45 1192.88,-75.45"/>
<text xml:space="preserve" text-anchor="middle" x="1302.88" y="-72.45" font-family="Times,serif" font-size="14.00">	 &#160;Aggregated On bene_id, year, state</text>
</g>
<!-- medicare.ps.ssa3 -->
<g id="node3" class="node">
<title>medicare.ps.ssa3</title>
<g id="a_node3"><a xlink:href="../medicare.ps/ssa3.html" xlink:title="&lt;TABLE&gt;" target="_blank">
<polygon fill="none" stroke="black" points="612.25,-332 334.75,-332 334.75,-212.5 612.25,-212.5 612.25,-332"/>
<text xml:space="preserve" text-anchor="start" x="424.38" y="-310.7" font-family="Times,serif" font-weight="bold" font-size="14.00">medicare.ps.ssa3</text>
<text xml:space="preserve" text-anchor="start" x="370.75" y="-264.75" font-family="Times,serif" font-size="14.00">Social Security Administration (SSA)</text>
<text xml:space="preserve" text-anchor="start" x="401.12" y="-248.25" font-family="Times,serif" font-size="14.00">three digit code for county</text>
<polygon fill="none" stroke="black" points="342.75,-216.5 342.75,-328 604.25,-328 604.25,-216.5 342.75,-216.5"/>
</a>
</g>
</g>
<!-- medicare.ps.ssa3&#45;&gt;medicare._ps.fips3 -->
<g id="edge2" class="edge">
<title>medicare.ps.ssa3&#45;&gt;medicare._ps.fips3</title>
<path fill="none" stroke="black" d="M571.98,-212.01C588.1,-204.23 604.95,-197.18 621.5,-192 667.55,-177.59 716.59,-166.29 765.83,-157.44"/>
<polygon fill="black" stroke="black" points="766.27,-160.92 775.51,-155.74 765.05,-154.02 766.27,-160.92"/>
<text xml:space="preserve" text-anchor="middle" x="727.21" y="-168.45" font-family="Times,serif" font-size="14.00"> &#160;Transformed</text>
</g>
<!-- medicare.ps.ssa3_parent -->
<g id="node4" class="node">
<title>medicare.ps.ssa3_parent</title>
<g id="a_node4"><a xlink:href="../medicare.ps/ssa3.html" xlink:title="8 incoming links (columns)" target="_blank">
<path fill="yellow" stroke="black" d="M581.5,-487.68C581.5,-493.1 533.09,-497.5 473.5,-497.5 413.91,-497.5 365.5,-493.1 365.5,-487.68 365.5,-487.68 365.5,-399.32 365.5,-399.32 365.5,-393.9 413.91,-389.5 473.5,-389.5 533.09,-389.5 581.5,-393.9 581.5,-399.32 581.5,-399.32 581.5,-487.68 581.5,-487.68"/>
<path fill="none" stroke="black" d="M581.5,-487.68C581.5,-482.26 533.09,-477.86 473.5,-477.86 413.91,-477.86 365.5,-482.26 365.5,-487.68"/>
<text xml:space="preserve" text-anchor="middle" x="473.5" y="-438.45" font-family="Times,serif" font-size="14.00">8 incoming links (columns)</text>
</a>
</g>
</g>
<!-- medicare.ps.ssa3_parent&#45;&gt;medicare.ps.ssa3 -->
<g id="edge3" class="edge">
<title>medicare.ps.ssa3_parent&#45;&gt;medicare.ps.ssa3</title>
<path fill="none" stroke="goldenrod" stroke-width="6" d="M473.5,-389.41C473.5,-376.38 473.5,-362.19 473.5,-348.34"/>
<polygon fill="goldenrod" stroke="goldenrod" stroke-width="6" points="478.75,-348.79 473.5,-338.79 468.25,-348.79 478.75,-348.79"/>
</g>
<!-- medicare.ps.year -->
<g id="node5" class="node">
<title>medicare.ps.year</title>
<g id="a_node5"><a xlink:href="../medicare.ps/year.html" xlink:title="&lt;TABLE&gt;" target="_blank">
<polygon fill="none" stroke="black" points="1746.25,-301.75 630.75,-301.75 630.75,-242.75 1746.25,-242.75 1746.25,-301.75"/>
<text xml:space="preserve" text-anchor="start" x="1138.62" y="-280.45" font-family="Times,serif" font-weight="bold" font-size="14.00">medicare.ps.year</text>
<polygon fill="none" stroke="black" points="641.75,-249.75 641.75,-272.25 1735.25,-272.25 1735.25,-249.75 641.75,-249.75"/>
<text xml:space="preserve" text-anchor="start" x="644.75" y="-256.5" font-family="Times,serif" font-size="14.00">(CASE WHEN &quot;year&quot;::int &lt; 20 THEN (2000 + &quot;year&quot;::int) WHEN (20 &lt; &quot;year&quot;::int AND &quot;year&quot;::int &lt; 100) THEN (1900 + &quot;year&quot;::int) WHEN &quot;year&quot; IS NULL THEN 2000 ELSE &quot;year&quot;::int END)</text>
<polygon fill="none" stroke="black" points="638.75,-246.75 638.75,-297.75 1738.25,-297.75 1738.25,-246.75 638.75,-246.75"/>
</a>
</g>
</g>
<!-- medicare.ps.year&#45;&gt;medicare._ps.fips3 -->
<g id="edge4" class="edge">
<title>medicare.ps.year&#45;&gt;medicare._ps.fips3</title>
<path fill="none" stroke="black" d="M1188.5,-242.31C1188.5,-220.61 1188.5,-190.65 1188.5,-166.64"/>
<polygon fill="black" stroke="black" points="1192,-166.91 1188.5,-156.91 1185,-166.91 1192,-166.91"/>
<text xml:space="preserve" text-anchor="middle" x="1227.12" y="-168.45" font-family="Times,serif" font-size="14.00"> &#160;Transformed</text>
</g>
<!-- medicare.ps.year_parent -->
<g id="node6" class="node">
<title>medicare.ps.year_parent</title>
<g id="a_node6"><a xlink:href="../medicare.ps/year.html" xlink:title="8 incoming links (columns)" target="_blank">
<path fill="yellow" stroke="black" d="M1296.5,-487.68C1296.5,-493.1 1248.09,-497.5 1188.5,-497.5 1128.91,-497.5 1080.5,-493.1 1080.5,-487.68 1080.5,-487.68 1080.5,-399.32 1080.5,-399.32 1080.5,-393.9 1128.91,-389.5 1188.5,-389.5 1248.09,-389.5 1296.5,-393.9 1296.5,-399.32 1296.5,-399.32 1296.5,-487.68 1296.5,-487.68"/>
<path fill="none" stroke="black" d="M1296.5,-487.68C1296.5,-482.26 1248.09,-477.86 1188.5,-477.86 1128.91,-477.86 1080.5,-482.26 1080.5,-487.68"/>
<text xml:space="preserve" text-anchor="middle" x="1188.5" y="-438.45" font-family="Times,serif" font-size="14.00">8 incoming links (columns)</text>
</a>
</g>
</g>
<!-- medicare.ps.year_parent&#45;&gt;medicare.ps.year -->
<g id="edge5" class="edge">
<title>medicare.ps.year_parent&#45;&gt;medicare.ps.year</title>
<path fill="none" stroke="goldenrod" stroke-width="6" d="M1188.5,-389.41C1188.5,-366.62 1188.5,-340.26 1188.5,-318.42"/>
<polygon fill="goldenrod" stroke="goldenrod" stroke-width="6" points="1193.75,-318.48 1188.5,-308.48 1183.25,-318.48 1193.75,-318.48"/>
</g>
<!-- medicare.ps.fips2 -->
<g id="node7" class="node">
<title>medicare.ps.fips2</title>
<g id="a_node7"><a xlink:href="../medicare.ps/fips2.html" xlink:title="&lt;TABLE&gt;" target="_blank">
<polygon fill="none" stroke="black" points="2176.88,-352.5 1764.12,-352.5 1764.12,-192 2176.88,-192 2176.88,-352.5"/>
<text xml:space="preserve" text-anchor="start" x="1919.5" y="-331.2" font-family="Times,serif" font-weight="bold" font-size="14.00">medicare.ps.fips2</text>
<text xml:space="preserve" text-anchor="start" x="1811.75" y="-285.25" font-family="Times,serif" font-size="14.00">2 digit state FIPS, see https://en.wikip</text>
<text xml:space="preserve" text-anchor="start" x="1800.12" y="-268.75" font-family="Times,serif" font-size="14.00">edia.org/wiki/Federal_Information_Proces</text>
<text xml:space="preserve" text-anchor="start" x="1845.12" y="-252.25" font-family="Times,serif" font-size="14.00">sing_Standard_state_code</text>
<polygon fill="none" stroke="black" points="1775.12,-199 1775.12,-221.5 2165.88,-221.5 2165.88,-199 1775.12,-199"/>
<text xml:space="preserve" text-anchor="start" x="1778.12" y="-205.75" font-family="Times,serif" font-size="14.00">(SELECT fips2 FROM public.us_states as s WHERE s.ssa2 = &quot;state&quot;)</text>
<polygon fill="none" stroke="black" points="1772.12,-196 1772.12,-348.5 2168.88,-348.5 2168.88,-196 1772.12,-196"/>
</a>
</g>
</g>
<!-- medicare.ps.fips2&#45;&gt;medicare._ps.fips3 -->
<g id="edge6" class="edge">
<title>medicare.ps.fips2&#45;&gt;medicare._ps.fips3</title>
<path fill="none" stroke="black" d="M1763.66,-194.01C1760.93,-193.32 1758.21,-192.65 1755.5,-192 1693.88,-177.31 1627.68,-165.87 1563.03,-156.97"/>
<polygon fill="black" stroke="black" points="1563.7,-153.53 1553.32,-155.66 1562.76,-160.47 1563.7,-153.53"/>
<text xml:space="preserve" text-anchor="middle" x="1706.68" y="-168.45" font-family="Times,serif" font-size="14.00"> &#160;Transformed</text>
</g>
</g>
</svg>
