<?xml version="1.0" encoding="UTF-8" standalone="no"?>
<!DOCTYPE svg PUBLIC "-//W3C//DTD SVG 1.1//EN"
 "http://www.w3.org/Graphics/SVG/1.1/DTD/svg11.dtd">
<!-- Generated by graphviz version 10.0.1 (20240210.2158)
 -->
<!-- Pages: 1 -->
<svg width="2393pt" height="506pt"
 viewBox="0.00 0.00 2392.50 505.50" xmlns="http://www.w3.org/2000/svg" xmlns:xlink="http://www.w3.org/1999/xlink">
<g id="graph0" class="graph" transform="scale(1 1) rotate(0) translate(4 501.5)">
<polygon fill="white" stroke="none" points="-4,4 -4,-501.5 2388.5,-501.5 2388.5,4 -4,4"/>
<!-- medicare._enrollments.residence_county -->
<g id="node1" class="node">
<title>medicare._enrollments.residence_county</title>
<g id="a_node1"><a xlink:href="../medicare._enrollments/residence_county.html" xlink:title="&lt;TABLE&gt;" target="_blank">
<polygon fill="none" stroke="black" points="1323.75,-59 1060.75,-59 1060.75,0 1323.75,0 1323.75,-59"/>
<text text-anchor="start" x="1073.75" y="-37.7" font-family="Times,serif" font-weight="bold" font-size="14.00">medicare._enrollments.residence_county</text>
<polygon fill="none" stroke="black" points="1071.75,-7 1071.75,-29.5 1312.75,-29.5 1312.75,-7 1071.75,-7"/>
<text text-anchor="start" x="1074.75" y="-13.2" font-family="Times,serif" font-size="14.00">MAX(fips3)</text>
<polygon fill="none" stroke="black" points="1068.75,-4 1068.75,-55 1315.75,-55 1315.75,-4 1068.75,-4"/>
</a>
</g>
</g>
<!-- medicare._ps.fips3 -->
<g id="node2" class="node">
<title>medicare._ps.fips3</title>
<g id="a_node2"><a xlink:href="../medicare._ps/fips3.html" xlink:title="&lt;TABLE&gt;" target="_blank">
<polygon fill="none" stroke="black" points="2384.5,-155 0,-155 0,-96 2384.5,-96 2384.5,-155"/>
<text text-anchor="start" x="1137.88" y="-133.7" font-family="Times,serif" font-weight="bold" font-size="14.00">medicare._ps.fips3</text>
<polygon fill="none" stroke="black" points="11,-103 11,-125.5 2373.5,-125.5 2373.5,-103 11,-103"/>
<text text-anchor="start" x="14" y="-109.2" font-family="Times,serif" font-size="14.00">CASE WHEN ssa3 is NOT NULL THEN &#160;CASE WHEN year &gt; 2010 THEN &#160;&#160;&#160;&#160;&#160;(SELECT fips3 from public.ssa as s where ps.ssa3 = s.ssa3 and ps.year = s.year and ps.fips2 = s.fips2 ORDER BY 1 DESC LIMIT 1) &#160;&#160;&#160;ELSE &#160;&#160;&#160;&#160;&#160;(SELECT fips3 from public.ssa as s where ps.ssa3 = s.ssa3 and 2003 = s.year and ps.fips2 = s.fips2 ORDER BY 1 DESC LIMIT 1) &#160;ENDELSE &#160;(SELECT public.zip_to_fips3(year, zip))END AS fips3</text>
<polygon fill="none" stroke="black" points="8,-100 8,-151 2376.5,-151 2376.5,-100 8,-100"/>
</a>
</g>
</g>
<!-- medicare._ps.fips3&#45;&gt;medicare._enrollments.residence_county -->
<g id="edge1" class="edge">
<title>medicare._ps.fips3&#45;&gt;medicare._enrollments.residence_county</title>
<path fill="none" stroke="blue" stroke-width="5" d="M1192.25,-95.53C1192.25,-89.13 1192.25,-82.2 1192.25,-75.33"/>
<polygon fill="blue" stroke="blue" stroke-width="5" points="1196.63,-75.45 1192.25,-65.45 1187.88,-75.45 1196.63,-75.45"/>
<text text-anchor="middle" x="1306.62" y="-72.45" font-family="Times,serif" font-size="14.00">	 &#160;Aggregated On bene_id, year, state</text>
</g>
<!-- medicare.ps.fips2 -->
<g id="node3" class="node">
<title>medicare.ps.fips2</title>
<g id="a_node3"><a xlink:href="../medicare.ps/fips2.html" xlink:title="&lt;TABLE&gt;" target="_blank">
<polygon fill="none" stroke="black" points="615.38,-352.5 201.12,-352.5 201.12,-192 615.38,-192 615.38,-352.5"/>
<text text-anchor="start" x="357.25" y="-331.2" font-family="Times,serif" font-weight="bold" font-size="14.00">medicare.ps.fips2</text>
<text text-anchor="start" x="248.75" y="-284.7" font-family="Times,serif" font-size="14.00">2 digit state FIPS, see https://en.wikip</text>
<text text-anchor="start" x="237.12" y="-268.2" font-family="Times,serif" font-size="14.00">edia.org/wiki/Federal_Information_Proces</text>
<text text-anchor="start" x="282.12" y="-251.7" font-family="Times,serif" font-size="14.00">sing_Standard_state_code</text>
<polygon fill="none" stroke="black" points="212.12,-199 212.12,-221.5 604.38,-221.5 604.38,-199 212.12,-199"/>
<text text-anchor="start" x="215.12" y="-205.2" font-family="Times,serif" font-size="14.00">(SELECT fips2 FROM public.us_states as s WHERE s.ssa2 = &quot;state&quot;)</text>
<polygon fill="none" stroke="black" points="209.12,-196 209.12,-348.5 607.38,-348.5 607.38,-196 209.12,-196"/>
</a>
</g>
</g>
<!-- medicare.ps.fips2&#45;&gt;medicare._ps.fips3 -->
<g id="edge2" class="edge">
<title>medicare.ps.fips2&#45;&gt;medicare._ps.fips3</title>
<path fill="none" stroke="black" d="M615.76,-194.08C618.6,-193.36 621.43,-192.67 624.25,-192 686.1,-177.31 752.56,-165.87 817.44,-156.97"/>
<polygon fill="black" stroke="black" points="817.74,-160.46 827.18,-155.65 816.8,-153.52 817.74,-160.46"/>
<text text-anchor="middle" x="754.88" y="-168.45" font-family="Times,serif" font-size="14.00"> &#160;Transformed</text>
</g>
<!-- medicare.ps.year -->
<g id="node4" class="node">
<title>medicare.ps.year</title>
<g id="a_node4"><a xlink:href="../medicare.ps/year.html" xlink:title="&lt;TABLE&gt;" target="_blank">
<polygon fill="none" stroke="black" points="1751.12,-336 633.38,-336 633.38,-208.5 1751.12,-208.5 1751.12,-336"/>
<text text-anchor="start" x="1142.38" y="-314.7" font-family="Times,serif" font-weight="bold" font-size="14.00">medicare.ps.year</text>
<text text-anchor="start" x="669.38" y="-268.2" font-family="Times,serif" font-size="14.00">Beneficiary Enrollment Reference Year</text>
<polygon fill="none" stroke="black" points="644.38,-215.5 644.38,-238 1740.12,-238 1740.12,-215.5 644.38,-215.5"/>
<text text-anchor="start" x="647.38" y="-221.7" font-family="Times,serif" font-size="14.00">(CASE WHEN &quot;year&quot;::int &lt; 20 THEN (2000 + &quot;year&quot;::int) WHEN (20 &lt; &quot;year&quot;::int AND &quot;year&quot;::int &lt; 100) THEN (1900 + &quot;year&quot;::int) WHEN &quot;year&quot; IS NULL THEN 2000 ELSE &quot;year&quot;::int END)</text>
<polygon fill="none" stroke="black" points="641.38,-212.5 641.38,-332 1743.12,-332 1743.12,-212.5 641.38,-212.5"/>
</a>
</g>
</g>
<!-- medicare.ps.year&#45;&gt;medicare._ps.fips3 -->
<g id="edge3" class="edge">
<title>medicare.ps.year&#45;&gt;medicare._ps.fips3</title>
<path fill="none" stroke="black" d="M1192.25,-208.18C1192.25,-194.07 1192.25,-179.47 1192.25,-166.59"/>
<polygon fill="black" stroke="black" points="1195.75,-166.82 1192.25,-156.82 1188.75,-166.82 1195.75,-166.82"/>
<text text-anchor="middle" x="1230.88" y="-168.45" font-family="Times,serif" font-size="14.00"> &#160;Transformed</text>
</g>
<!-- medicare.ps.year_parent -->
<g id="node5" class="node">
<title>medicare.ps.year_parent</title>
<g id="a_node5"><a xlink:href="../medicare.ps/year.html" xlink:title="8 incoming links (columns)" target="_blank">
<path fill="yellow" stroke="black" d="M1300.25,-487.68C1300.25,-493.1 1251.84,-497.5 1192.25,-497.5 1132.66,-497.5 1084.25,-493.1 1084.25,-487.68 1084.25,-487.68 1084.25,-399.32 1084.25,-399.32 1084.25,-393.9 1132.66,-389.5 1192.25,-389.5 1251.84,-389.5 1300.25,-393.9 1300.25,-399.32 1300.25,-399.32 1300.25,-487.68 1300.25,-487.68"/>
<path fill="none" stroke="black" d="M1300.25,-487.68C1300.25,-482.26 1251.84,-477.86 1192.25,-477.86 1132.66,-477.86 1084.25,-482.26 1084.25,-487.68"/>
<text text-anchor="middle" x="1192.25" y="-438.45" font-family="Times,serif" font-size="14.00">8 incoming links (columns)</text>
</a>
</g>
</g>
<!-- medicare.ps.year_parent&#45;&gt;medicare.ps.year -->
<g id="edge4" class="edge">
<title>medicare.ps.year_parent&#45;&gt;medicare.ps.year</title>
<path fill="none" stroke="goldenrod" stroke-width="6" d="M1192.25,-389.41C1192.25,-377.68 1192.25,-365.01 1192.25,-352.5"/>
<polygon fill="goldenrod" stroke="goldenrod" stroke-width="6" points="1197.5,-352.68 1192.25,-342.68 1187,-352.68 1197.5,-352.68"/>
</g>
<!-- medicare.ps.ssa3 -->
<g id="node6" class="node">
<title>medicare.ps.ssa3</title>
<g id="a_node6"><a xlink:href="../medicare.ps/ssa3.html" xlink:title="&lt;TABLE&gt;" target="_blank">
<polygon fill="none" stroke="black" points="2047,-332 1769.5,-332 1769.5,-212.5 2047,-212.5 2047,-332"/>
<text text-anchor="start" x="1859.12" y="-310.7" font-family="Times,serif" font-weight="bold" font-size="14.00">medicare.ps.ssa3</text>
<text text-anchor="start" x="1805.5" y="-264.2" font-family="Times,serif" font-size="14.00">Social Security Administration (SSA)</text>
<text text-anchor="start" x="1835.88" y="-247.7" font-family="Times,serif" font-size="14.00">three digit code for county</text>
<polygon fill="none" stroke="black" points="1777.5,-216.5 1777.5,-328 2039,-328 2039,-216.5 1777.5,-216.5"/>
</a>
</g>
</g>
<!-- medicare.ps.ssa3&#45;&gt;medicare._ps.fips3 -->
<g id="edge5" class="edge">
<title>medicare.ps.ssa3&#45;&gt;medicare._ps.fips3</title>
<path fill="none" stroke="black" d="M1809.77,-212.01C1793.65,-204.23 1776.8,-197.18 1760.25,-192 1714.23,-177.6 1665.22,-166.31 1616.02,-157.46"/>
<polygon fill="black" stroke="black" points="1616.8,-154.05 1606.35,-155.76 1615.59,-160.94 1616.8,-154.05"/>
<text text-anchor="middle" x="1731.88" y="-168.45" font-family="Times,serif" font-size="14.00"> &#160;Transformed</text>
</g>
<!-- medicare.ps.ssa3_parent -->
<g id="node7" class="node">
<title>medicare.ps.ssa3_parent</title>
<g id="a_node7"><a xlink:href="../medicare.ps/ssa3.html" xlink:title="8 incoming links (columns)" target="_blank">
<path fill="yellow" stroke="black" d="M2016.25,-487.68C2016.25,-493.1 1967.84,-497.5 1908.25,-497.5 1848.66,-497.5 1800.25,-493.1 1800.25,-487.68 1800.25,-487.68 1800.25,-399.32 1800.25,-399.32 1800.25,-393.9 1848.66,-389.5 1908.25,-389.5 1967.84,-389.5 2016.25,-393.9 2016.25,-399.32 2016.25,-399.32 2016.25,-487.68 2016.25,-487.68"/>
<path fill="none" stroke="black" d="M2016.25,-487.68C2016.25,-482.26 1967.84,-477.86 1908.25,-477.86 1848.66,-477.86 1800.25,-482.26 1800.25,-487.68"/>
<text text-anchor="middle" x="1908.25" y="-438.45" font-family="Times,serif" font-size="14.00">8 incoming links (columns)</text>
</a>
</g>
</g>
<!-- medicare.ps.ssa3_parent&#45;&gt;medicare.ps.ssa3 -->
<g id="edge6" class="edge">
<title>medicare.ps.ssa3_parent&#45;&gt;medicare.ps.ssa3</title>
<path fill="none" stroke="goldenrod" stroke-width="6" d="M1908.25,-389.41C1908.25,-376.38 1908.25,-362.19 1908.25,-348.34"/>
<polygon fill="goldenrod" stroke="goldenrod" stroke-width="6" points="1913.5,-348.79 1908.25,-338.79 1903,-348.79 1913.5,-348.79"/>
</g>
</g>
</svg>
