<?xml version="1.0" encoding="UTF-8" standalone="no"?>
<!DOCTYPE svg PUBLIC "-//W3C//DTD SVG 1.1//EN"
 "http://www.w3.org/Graphics/SVG/1.1/DTD/svg11.dtd">
<!-- Generated by graphviz version 10.0.1 (20240210.2158)
 -->
<!-- Pages: 1 -->
<svg width="283pt" height="550pt"
 viewBox="0.00 0.00 282.50 550.00" xmlns="http://www.w3.org/2000/svg" xmlns:xlink="http://www.w3.org/1999/xlink">
<g id="graph0" class="graph" transform="scale(1 1) rotate(0) translate(4 546)">
<polygon fill="white" stroke="none" points="-4,4 -4,-546 278.5,-546 278.5,4 -4,4"/>
<!-- medicare.qc_enrl_bene.sex -->
<g id="node1" class="node">
<title>medicare.qc_enrl_bene.sex</title>
<g id="a_node1"><a xlink:href="../medicare.qc_enrl_bene/sex.html" xlink:title="&lt;TABLE&gt;" target="_blank">
<polygon fill="none" stroke="black" points="199.38,-59 16.62,-59 16.62,0 199.38,0 199.38,-59"/>
<text text-anchor="start" x="29.62" y="-37.7" font-family="Times,serif" font-weight="bold" font-size="14.00">medicare.qc_enrl_bene.sex</text>
<polygon fill="none" stroke="black" points="27.62,-7 27.62,-29.5 188.38,-29.5 188.38,-7 27.62,-7"/>
<text text-anchor="start" x="30.62" y="-13.2" font-family="Times,serif" font-size="14.00">string_agg(distinct sex, &#39;,&#39;)</text>
<polygon fill="none" stroke="black" points="24.62,-4 24.62,-55 191.38,-55 191.38,-4 24.62,-4"/>
</a>
</g>
</g>
<!-- medicare.beneficiaries.sex -->
<g id="node2" class="node">
<title>medicare.beneficiaries.sex</title>
<g id="a_node2"><a xlink:href="../medicare.beneficiaries/sex.html" xlink:title="&lt;TABLE&gt;" target="_blank">
<polygon fill="none" stroke="black" points="197.12,-155 18.88,-155 18.88,-96 197.12,-96 197.12,-155"/>
<text text-anchor="start" x="31.88" y="-133.7" font-family="Times,serif" font-weight="bold" font-size="14.00">medicare.beneficiaries.sex</text>
<polygon fill="none" stroke="black" points="29.88,-103 29.88,-125.5 186.12,-125.5 186.12,-103 29.88,-103"/>
<text text-anchor="start" x="32.88" y="-109.2" font-family="Times,serif" font-size="14.00">string_agg(distinct sex, &#39;,&#39;)</text>
<polygon fill="none" stroke="black" points="26.88,-100 26.88,-151 189.12,-151 189.12,-100 26.88,-100"/>
</a>
</g>
</g>
<!-- medicare.beneficiaries.sex&#45;&gt;medicare.qc_enrl_bene.sex -->
<g id="edge1" class="edge">
<title>medicare.beneficiaries.sex&#45;&gt;medicare.qc_enrl_bene.sex</title>
<path fill="none" stroke="black" d="M108,-95.53C108,-87.68 108,-79.05 108,-70.7"/>
<polygon fill="black" stroke="black" points="111.5,-70.73 108,-60.73 104.5,-70.73 111.5,-70.73"/>
<text text-anchor="middle" x="154.12" y="-72.45" font-family="Times,serif" font-size="14.00">	join natural</text>
</g>
<!-- medicare._beneficiaries.sex -->
<g id="node3" class="node">
<title>medicare._beneficiaries.sex</title>
<g id="a_node3"><a xlink:href="../medicare._beneficiaries/sex.html" xlink:title="&lt;TABLE&gt;" target="_blank">
<polygon fill="none" stroke="black" points="200.5,-251 15.5,-251 15.5,-192 200.5,-192 200.5,-251"/>
<text text-anchor="start" x="28.5" y="-229.7" font-family="Times,serif" font-weight="bold" font-size="14.00">medicare._beneficiaries.sex</text>
<polygon fill="none" stroke="black" points="26.5,-199 26.5,-221.5 189.5,-221.5 189.5,-199 26.5,-199"/>
<text text-anchor="start" x="29.5" y="-205.2" font-family="Times,serif" font-size="14.00">string_agg(distinct sex, &#39;,&#39;)</text>
<polygon fill="none" stroke="black" points="23.5,-196 23.5,-247 192.5,-247 192.5,-196 23.5,-196"/>
</a>
</g>
</g>
<!-- medicare._beneficiaries.sex&#45;&gt;medicare.beneficiaries.sex -->
<g id="edge2" class="edge">
<title>medicare._beneficiaries.sex&#45;&gt;medicare.beneficiaries.sex</title>
<path fill="none" stroke="black" d="M108,-191.53C108,-183.68 108,-175.05 108,-166.7"/>
<polygon fill="black" stroke="black" points="111.5,-166.73 108,-156.73 104.5,-166.73 111.5,-166.73"/>
<text text-anchor="middle" x="127.5" y="-168.45" font-family="Times,serif" font-size="14.00">Copied</text>
</g>
<!-- medicare._ps.sex -->
<g id="node4" class="node">
<title>medicare._ps.sex</title>
<g id="a_node4"><a xlink:href="../medicare._ps/sex.html" xlink:title="&lt;TABLE&gt;" target="_blank">
<polygon fill="none" stroke="black" points="170.5,-324 45.5,-324 45.5,-288 170.5,-288 170.5,-324"/>
<text text-anchor="start" x="58.5" y="-301.95" font-family="Times,serif" font-weight="bold" font-size="14.00">medicare._ps.sex</text>
<polygon fill="none" stroke="black" points="53.5,-292.75 53.5,-319.25 162.5,-319.25 162.5,-292.75 53.5,-292.75"/>
</a>
</g>
</g>
<!-- medicare._ps.sex&#45;&gt;medicare._beneficiaries.sex -->
<g id="edge3" class="edge">
<title>medicare._ps.sex&#45;&gt;medicare._beneficiaries.sex</title>
<path fill="none" stroke="blue" stroke-width="5" d="M108,-287.5C108,-281.52 108,-274.51 108,-267.37"/>
<polygon fill="blue" stroke="blue" stroke-width="5" points="112.38,-267.57 108,-257.57 103.63,-267.57 112.38,-267.57"/>
<text text-anchor="middle" x="191.25" y="-264.45" font-family="Times,serif" font-size="14.00">	 &#160;Aggregated On bene_id</text>
</g>
<!-- medicare.ps.sex -->
<g id="node5" class="node">
<title>medicare.ps.sex</title>
<g id="a_node5"><a xlink:href="../medicare.ps/sex.html" xlink:title="&lt;TABLE&gt;" target="_blank">
<polygon fill="none" stroke="black" points="167.12,-397 48.88,-397 48.88,-361 167.12,-361 167.12,-397"/>
<text text-anchor="start" x="61.88" y="-374.95" font-family="Times,serif" font-weight="bold" font-size="14.00">medicare.ps.sex</text>
<polygon fill="none" stroke="black" points="56.88,-365.75 56.88,-392.25 159.12,-392.25 159.12,-365.75 56.88,-365.75"/>
</a>
</g>
</g>
<!-- medicare.ps.sex&#45;&gt;medicare._ps.sex -->
<g id="edge4" class="edge">
<title>medicare.ps.sex&#45;&gt;medicare._ps.sex</title>
<path fill="none" stroke="black" d="M108,-360.81C108,-353.23 108,-344.1 108,-335.54"/>
<polygon fill="black" stroke="black" points="111.5,-335.54 108,-325.54 104.5,-335.54 111.5,-335.54"/>
<text text-anchor="middle" x="127.5" y="-337.45" font-family="Times,serif" font-size="14.00">Copied</text>
</g>
<!-- medicare.ps.sex_parent -->
<g id="node6" class="node">
<title>medicare.ps.sex_parent</title>
<g id="a_node6"><a xlink:href="../medicare.ps/sex.html" xlink:title="8 incoming links (columns)" target="_blank">
<path fill="yellow" stroke="black" d="M216,-532.18C216,-537.6 167.59,-542 108,-542 48.41,-542 0,-537.6 0,-532.18 0,-532.18 0,-443.82 0,-443.82 0,-438.4 48.41,-434 108,-434 167.59,-434 216,-438.4 216,-443.82 216,-443.82 216,-532.18 216,-532.18"/>
<path fill="none" stroke="black" d="M216,-532.18C216,-526.76 167.59,-522.36 108,-522.36 48.41,-522.36 0,-526.76 0,-532.18"/>
<text text-anchor="middle" x="108" y="-482.95" font-family="Times,serif" font-size="14.00">8 incoming links (columns)</text>
</a>
</g>
</g>
<!-- medicare.ps.sex_parent&#45;&gt;medicare.ps.sex -->
<g id="edge5" class="edge">
<title>medicare.ps.sex_parent&#45;&gt;medicare.ps.sex</title>
<path fill="none" stroke="goldenrod" stroke-width="6" d="M108,-433.5C108,-426.71 108,-419.92 108,-413.57"/>
<polygon fill="goldenrod" stroke="goldenrod" stroke-width="6" points="113.25,-413.65 108,-403.65 102.75,-413.65 113.25,-413.65"/>
</g>
</g>
</svg>
