<?xml version="1.0" encoding="UTF-8" standalone="no"?>
<!DOCTYPE svg PUBLIC "-//W3C//DTD SVG 1.1//EN"
 "http://www.w3.org/Graphics/SVG/1.1/DTD/svg11.dtd">
<!-- Generated by graphviz version 10.0.1 (20240210.2158)
 -->
<!-- Pages: 1 -->
<svg width="283pt" height="561pt"
 viewBox="0.00 0.00 282.50 560.50" xmlns="http://www.w3.org/2000/svg" xmlns:xlink="http://www.w3.org/1999/xlink">
<g id="graph0" class="graph" transform="scale(1 1) rotate(0) translate(4 556.5)">
<polygon fill="white" stroke="none" points="-4,4 -4,-556.5 278.5,-556.5 278.5,4 -4,4"/>
<!-- medicare._beneficiaries.sex -->
<g id="node1" class="node">
<title>medicare._beneficiaries.sex</title>
<g id="a_node1"><a xlink:href="../medicare._beneficiaries/sex.html" xlink:title="&lt;TABLE&gt;" target="_blank">
<polygon fill="none" stroke="black" points="200.5,-127.5 15.5,-127.5 15.5,0 200.5,0 200.5,-127.5"/>
<text text-anchor="start" x="28.5" y="-106.2" font-family="Times,serif" font-weight="bold" font-size="14.00">medicare._beneficiaries.sex</text>
<text text-anchor="start" x="51.5" y="-59.7" font-family="Times,serif" font-size="14.00">Sex</text>
<polygon fill="none" stroke="black" points="26.5,-7 26.5,-29.5 189.5,-29.5 189.5,-7 26.5,-7"/>
<text text-anchor="start" x="29.5" y="-13.2" font-family="Times,serif" font-size="14.00">string_agg(distinct sex, &#39;,&#39;)</text>
<polygon fill="none" stroke="black" points="23.5,-4 23.5,-123.5 192.5,-123.5 192.5,-4 23.5,-4"/>
</a>
</g>
</g>
<!-- medicare._ps.sex -->
<g id="node2" class="node">
<title>medicare._ps.sex</title>
<g id="a_node2"><a xlink:href="../medicare._ps/sex.html" xlink:title="&lt;TABLE&gt;" target="_blank">
<polygon fill="none" stroke="black" points="170.5,-267.5 45.5,-267.5 45.5,-164.5 170.5,-164.5 170.5,-267.5"/>
<text text-anchor="start" x="58.5" y="-246.2" font-family="Times,serif" font-weight="bold" font-size="14.00">medicare._ps.sex</text>
<text text-anchor="start" x="81.5" y="-199.7" font-family="Times,serif" font-size="14.00">Sex</text>
<polygon fill="none" stroke="black" points="53.5,-168.5 53.5,-263.5 162.5,-263.5 162.5,-168.5 53.5,-168.5"/>
</a>
</g>
</g>
<!-- medicare._ps.sex&#45;&gt;medicare._beneficiaries.sex -->
<g id="edge1" class="edge">
<title>medicare._ps.sex&#45;&gt;medicare._beneficiaries.sex</title>
<path fill="none" stroke="blue" stroke-width="5" d="M108,-164.13C108,-157.57 108,-150.73 108,-143.85"/>
<polygon fill="blue" stroke="blue" stroke-width="5" points="112.38,-144.06 108,-134.06 103.63,-144.06 112.38,-144.06"/>
<text text-anchor="middle" x="191.25" y="-140.95" font-family="Times,serif" font-size="14.00">	 &#160;Aggregated On bene_id</text>
</g>
<!-- medicare.ps.sex -->
<g id="node3" class="node">
<title>medicare.ps.sex</title>
<g id="a_node3"><a xlink:href="../medicare.ps/sex.html" xlink:title="&lt;TABLE&gt;" target="_blank">
<polygon fill="none" stroke="black" points="167.12,-407.5 48.88,-407.5 48.88,-304.5 167.12,-304.5 167.12,-407.5"/>
<text text-anchor="start" x="61.88" y="-386.2" font-family="Times,serif" font-weight="bold" font-size="14.00">medicare.ps.sex</text>
<text text-anchor="start" x="84.88" y="-339.7" font-family="Times,serif" font-size="14.00">Sex</text>
<polygon fill="none" stroke="black" points="56.88,-308.5 56.88,-403.5 159.12,-403.5 159.12,-308.5 56.88,-308.5"/>
</a>
</g>
</g>
<!-- medicare.ps.sex&#45;&gt;medicare._ps.sex -->
<g id="edge2" class="edge">
<title>medicare.ps.sex&#45;&gt;medicare._ps.sex</title>
<path fill="none" stroke="black" d="M108,-304.01C108,-295.88 108,-287.39 108,-279.04"/>
<polygon fill="black" stroke="black" points="111.5,-279.3 108,-269.3 104.5,-279.3 111.5,-279.3"/>
<text text-anchor="middle" x="127.5" y="-280.95" font-family="Times,serif" font-size="14.00">Copied</text>
</g>
<!-- medicare.ps.sex_parent -->
<g id="node4" class="node">
<title>medicare.ps.sex_parent</title>
<g id="a_node4"><a xlink:href="../medicare.ps/sex.html" xlink:title="8 incoming links (columns)" target="_blank">
<path fill="yellow" stroke="black" d="M216,-542.68C216,-548.1 167.59,-552.5 108,-552.5 48.41,-552.5 0,-548.1 0,-542.68 0,-542.68 0,-454.32 0,-454.32 0,-448.9 48.41,-444.5 108,-444.5 167.59,-444.5 216,-448.9 216,-454.32 216,-454.32 216,-542.68 216,-542.68"/>
<path fill="none" stroke="black" d="M216,-542.68C216,-537.26 167.59,-532.86 108,-532.86 48.41,-532.86 0,-537.26 0,-542.68"/>
<text text-anchor="middle" x="108" y="-493.45" font-family="Times,serif" font-size="14.00">8 incoming links (columns)</text>
</a>
</g>
</g>
<!-- medicare.ps.sex_parent&#45;&gt;medicare.ps.sex -->
<g id="edge3" class="edge">
<title>medicare.ps.sex_parent&#45;&gt;medicare.ps.sex</title>
<path fill="none" stroke="goldenrod" stroke-width="6" d="M108,-444.38C108,-437.74 108,-430.89 108,-424.07"/>
<polygon fill="goldenrod" stroke="goldenrod" stroke-width="6" points="113.25,-424.32 108,-414.32 102.75,-424.32 113.25,-424.32"/>
</g>
</g>
</svg>
