<?xml version="1.0" encoding="UTF-8" standalone="no"?>
<!DOCTYPE svg PUBLIC "-//W3C//DTD SVG 1.1//EN"
 "http://www.w3.org/Graphics/SVG/1.1/DTD/svg11.dtd">
<!-- Generated by graphviz version 10.0.1 (20240210.2158)
 -->
<!-- Pages: 1 -->
<svg width="283pt" height="454pt"
 viewBox="0.00 0.00 282.50 454.00" xmlns="http://www.w3.org/2000/svg" xmlns:xlink="http://www.w3.org/1999/xlink">
<g id="graph0" class="graph" transform="scale(1 1) rotate(0) translate(4 450)">
<polygon fill="white" stroke="none" points="-4,4 -4,-450 278.5,-450 278.5,4 -4,4"/>
<!-- medicare.beneficiaries.sex -->
<g id="node1" class="node">
<title>medicare.beneficiaries.sex</title>
<g id="a_node1"><a xlink:href="../medicare.beneficiaries/sex.html" xlink:title="&lt;TABLE&gt;" target="_blank">
<polygon fill="none" stroke="black" points="197.12,-59 18.88,-59 18.88,0 197.12,0 197.12,-59"/>
<text text-anchor="start" x="31.88" y="-37.7" font-family="Times,serif" font-weight="bold" font-size="14.00">medicare.beneficiaries.sex</text>
<polygon fill="none" stroke="black" points="29.88,-7 29.88,-29.5 186.12,-29.5 186.12,-7 29.88,-7"/>
<text text-anchor="start" x="32.88" y="-13.2" font-family="Times,serif" font-size="14.00">string_agg(distinct sex, &#39;,&#39;)</text>
<polygon fill="none" stroke="black" points="26.88,-4 26.88,-55 189.12,-55 189.12,-4 26.88,-4"/>
</a>
</g>
</g>
<!-- medicare._beneficiaries.sex -->
<g id="node2" class="node">
<title>medicare._beneficiaries.sex</title>
<g id="a_node2"><a xlink:href="../medicare._beneficiaries/sex.html" xlink:title="&lt;TABLE&gt;" target="_blank">
<polygon fill="none" stroke="black" points="200.5,-155 15.5,-155 15.5,-96 200.5,-96 200.5,-155"/>
<text text-anchor="start" x="28.5" y="-133.7" font-family="Times,serif" font-weight="bold" font-size="14.00">medicare._beneficiaries.sex</text>
<polygon fill="none" stroke="black" points="26.5,-103 26.5,-125.5 189.5,-125.5 189.5,-103 26.5,-103"/>
<text text-anchor="start" x="29.5" y="-109.2" font-family="Times,serif" font-size="14.00">string_agg(distinct sex, &#39;,&#39;)</text>
<polygon fill="none" stroke="black" points="23.5,-100 23.5,-151 192.5,-151 192.5,-100 23.5,-100"/>
</a>
</g>
</g>
<!-- medicare._beneficiaries.sex&#45;&gt;medicare.beneficiaries.sex -->
<g id="edge1" class="edge">
<title>medicare._beneficiaries.sex&#45;&gt;medicare.beneficiaries.sex</title>
<path fill="none" stroke="black" d="M108,-95.53C108,-87.68 108,-79.05 108,-70.7"/>
<polygon fill="black" stroke="black" points="111.5,-70.73 108,-60.73 104.5,-70.73 111.5,-70.73"/>
<text text-anchor="middle" x="127.5" y="-72.45" font-family="Times,serif" font-size="14.00">Copied</text>
</g>
<!-- medicare._ps.sex -->
<g id="node3" class="node">
<title>medicare._ps.sex</title>
<g id="a_node3"><a xlink:href="../medicare._ps/sex.html" xlink:title="&lt;TABLE&gt;" target="_blank">
<polygon fill="none" stroke="black" points="170.5,-228 45.5,-228 45.5,-192 170.5,-192 170.5,-228"/>
<text text-anchor="start" x="58.5" y="-205.95" font-family="Times,serif" font-weight="bold" font-size="14.00">medicare._ps.sex</text>
<polygon fill="none" stroke="black" points="53.5,-196.75 53.5,-223.25 162.5,-223.25 162.5,-196.75 53.5,-196.75"/>
</a>
</g>
</g>
<!-- medicare._ps.sex&#45;&gt;medicare._beneficiaries.sex -->
<g id="edge2" class="edge">
<title>medicare._ps.sex&#45;&gt;medicare._beneficiaries.sex</title>
<path fill="none" stroke="blue" stroke-width="5" d="M108,-191.5C108,-185.52 108,-178.51 108,-171.37"/>
<polygon fill="blue" stroke="blue" stroke-width="5" points="112.38,-171.57 108,-161.57 103.63,-171.57 112.38,-171.57"/>
<text text-anchor="middle" x="191.25" y="-168.45" font-family="Times,serif" font-size="14.00">	 &#160;Aggregated On bene_id</text>
</g>
<!-- medicare.ps.sex -->
<g id="node4" class="node">
<title>medicare.ps.sex</title>
<g id="a_node4"><a xlink:href="../medicare.ps/sex.html" xlink:title="&lt;TABLE&gt;" target="_blank">
<polygon fill="none" stroke="black" points="167.12,-301 48.88,-301 48.88,-265 167.12,-265 167.12,-301"/>
<text text-anchor="start" x="61.88" y="-278.95" font-family="Times,serif" font-weight="bold" font-size="14.00">medicare.ps.sex</text>
<polygon fill="none" stroke="black" points="56.88,-269.75 56.88,-296.25 159.12,-296.25 159.12,-269.75 56.88,-269.75"/>
</a>
</g>
</g>
<!-- medicare.ps.sex&#45;&gt;medicare._ps.sex -->
<g id="edge3" class="edge">
<title>medicare.ps.sex&#45;&gt;medicare._ps.sex</title>
<path fill="none" stroke="black" d="M108,-264.81C108,-257.23 108,-248.1 108,-239.54"/>
<polygon fill="black" stroke="black" points="111.5,-239.54 108,-229.54 104.5,-239.54 111.5,-239.54"/>
<text text-anchor="middle" x="127.5" y="-241.45" font-family="Times,serif" font-size="14.00">Copied</text>
</g>
<!-- medicare.ps.sex_parent -->
<g id="node5" class="node">
<title>medicare.ps.sex_parent</title>
<g id="a_node5"><a xlink:href="../medicare.ps/sex.html" xlink:title="8 incoming links (columns)" target="_blank">
<path fill="yellow" stroke="black" d="M216,-436.18C216,-441.6 167.59,-446 108,-446 48.41,-446 0,-441.6 0,-436.18 0,-436.18 0,-347.82 0,-347.82 0,-342.4 48.41,-338 108,-338 167.59,-338 216,-342.4 216,-347.82 216,-347.82 216,-436.18 216,-436.18"/>
<path fill="none" stroke="black" d="M216,-436.18C216,-430.76 167.59,-426.36 108,-426.36 48.41,-426.36 0,-430.76 0,-436.18"/>
<text text-anchor="middle" x="108" y="-386.95" font-family="Times,serif" font-size="14.00">8 incoming links (columns)</text>
</a>
</g>
</g>
<!-- medicare.ps.sex_parent&#45;&gt;medicare.ps.sex -->
<g id="edge4" class="edge">
<title>medicare.ps.sex_parent&#45;&gt;medicare.ps.sex</title>
<path fill="none" stroke="goldenrod" stroke-width="6" d="M108,-337.5C108,-330.71 108,-323.92 108,-317.57"/>
<polygon fill="goldenrod" stroke="goldenrod" stroke-width="6" points="113.25,-317.65 108,-307.65 102.75,-317.65 113.25,-317.65"/>
</g>
</g>
</svg>
