<?xml version="1.0" encoding="UTF-8" standalone="no"?>
<!DOCTYPE svg PUBLIC "-//W3C//DTD SVG 1.1//EN"
 "http://www.w3.org/Graphics/SVG/1.1/DTD/svg11.dtd">
<!-- Generated by graphviz version 10.0.1 (20240210.2158)
 -->
<!-- Pages: 1 -->
<svg width="283pt" height="725pt"
 viewBox="0.00 0.00 282.50 725.00" xmlns="http://www.w3.org/2000/svg" xmlns:xlink="http://www.w3.org/1999/xlink">
<g id="graph0" class="graph" transform="scale(1 1) rotate(0) translate(4 721)">
<polygon fill="white" stroke="none" points="-4,4 -4,-721 278.5,-721 278.5,4 -4,4"/>
<!-- medicare.beneficiaries.sex -->
<g id="node1" class="node">
<title>medicare.beneficiaries.sex</title>
<g id="a_node1"><a xlink:href="../medicare.beneficiaries/sex.html" xlink:title="&lt;TABLE&gt;" target="_blank">
<polygon fill="none" stroke="black" points="197.12,-127.5 18.88,-127.5 18.88,0 197.12,0 197.12,-127.5"/>
<text text-anchor="start" x="31.88" y="-106.2" font-family="Times,serif" font-weight="bold" font-size="14.00">medicare.beneficiaries.sex</text>
<text text-anchor="start" x="54.88" y="-59.7" font-family="Times,serif" font-size="14.00">Sex</text>
<polygon fill="none" stroke="black" points="29.88,-7 29.88,-29.5 186.12,-29.5 186.12,-7 29.88,-7"/>
<text text-anchor="start" x="32.88" y="-13.2" font-family="Times,serif" font-size="14.00">string_agg(distinct sex, &#39;,&#39;)</text>
<polygon fill="none" stroke="black" points="26.88,-4 26.88,-123.5 189.12,-123.5 189.12,-4 26.88,-4"/>
</a>
</g>
</g>
<!-- medicare._beneficiaries.sex -->
<g id="node2" class="node">
<title>medicare._beneficiaries.sex</title>
<g id="a_node2"><a xlink:href="../medicare._beneficiaries/sex.html" xlink:title="&lt;TABLE&gt;" target="_blank">
<polygon fill="none" stroke="black" points="200.5,-292 15.5,-292 15.5,-164.5 200.5,-164.5 200.5,-292"/>
<text text-anchor="start" x="28.5" y="-270.7" font-family="Times,serif" font-weight="bold" font-size="14.00">medicare._beneficiaries.sex</text>
<text text-anchor="start" x="51.5" y="-224.2" font-family="Times,serif" font-size="14.00">Sex</text>
<polygon fill="none" stroke="black" points="26.5,-171.5 26.5,-194 189.5,-194 189.5,-171.5 26.5,-171.5"/>
<text text-anchor="start" x="29.5" y="-177.7" font-family="Times,serif" font-size="14.00">string_agg(distinct sex, &#39;,&#39;)</text>
<polygon fill="none" stroke="black" points="23.5,-168.5 23.5,-288 192.5,-288 192.5,-168.5 23.5,-168.5"/>
</a>
</g>
</g>
<!-- medicare._beneficiaries.sex&#45;&gt;medicare.beneficiaries.sex -->
<g id="edge1" class="edge">
<title>medicare._beneficiaries.sex&#45;&gt;medicare.beneficiaries.sex</title>
<path fill="none" stroke="black" d="M108,-164.42C108,-156.2 108,-147.7 108,-139.3"/>
<polygon fill="black" stroke="black" points="111.5,-139.46 108,-129.46 104.5,-139.46 111.5,-139.46"/>
<text text-anchor="middle" x="127.5" y="-140.95" font-family="Times,serif" font-size="14.00">Copied</text>
</g>
<!-- medicare._ps.sex -->
<g id="node3" class="node">
<title>medicare._ps.sex</title>
<g id="a_node3"><a xlink:href="../medicare._ps/sex.html" xlink:title="&lt;TABLE&gt;" target="_blank">
<polygon fill="none" stroke="black" points="170.5,-432 45.5,-432 45.5,-329 170.5,-329 170.5,-432"/>
<text text-anchor="start" x="58.5" y="-410.7" font-family="Times,serif" font-weight="bold" font-size="14.00">medicare._ps.sex</text>
<text text-anchor="start" x="81.5" y="-364.2" font-family="Times,serif" font-size="14.00">Sex</text>
<polygon fill="none" stroke="black" points="53.5,-333 53.5,-428 162.5,-428 162.5,-333 53.5,-333"/>
</a>
</g>
</g>
<!-- medicare._ps.sex&#45;&gt;medicare._beneficiaries.sex -->
<g id="edge2" class="edge">
<title>medicare._ps.sex&#45;&gt;medicare._beneficiaries.sex</title>
<path fill="none" stroke="blue" stroke-width="5" d="M108,-328.63C108,-322.07 108,-315.23 108,-308.35"/>
<polygon fill="blue" stroke="blue" stroke-width="5" points="112.38,-308.56 108,-298.56 103.63,-308.56 112.38,-308.56"/>
<text text-anchor="middle" x="191.25" y="-305.45" font-family="Times,serif" font-size="14.00">	 &#160;Aggregated On bene_id</text>
</g>
<!-- medicare.ps.sex -->
<g id="node4" class="node">
<title>medicare.ps.sex</title>
<g id="a_node4"><a xlink:href="../medicare.ps/sex.html" xlink:title="&lt;TABLE&gt;" target="_blank">
<polygon fill="none" stroke="black" points="167.12,-572 48.88,-572 48.88,-469 167.12,-469 167.12,-572"/>
<text text-anchor="start" x="61.88" y="-550.7" font-family="Times,serif" font-weight="bold" font-size="14.00">medicare.ps.sex</text>
<text text-anchor="start" x="84.88" y="-504.2" font-family="Times,serif" font-size="14.00">Sex</text>
<polygon fill="none" stroke="black" points="56.88,-473 56.88,-568 159.12,-568 159.12,-473 56.88,-473"/>
</a>
</g>
</g>
<!-- medicare.ps.sex&#45;&gt;medicare._ps.sex -->
<g id="edge3" class="edge">
<title>medicare.ps.sex&#45;&gt;medicare._ps.sex</title>
<path fill="none" stroke="black" d="M108,-468.51C108,-460.38 108,-451.89 108,-443.54"/>
<polygon fill="black" stroke="black" points="111.5,-443.8 108,-433.8 104.5,-443.8 111.5,-443.8"/>
<text text-anchor="middle" x="127.5" y="-445.45" font-family="Times,serif" font-size="14.00">Copied</text>
</g>
<!-- medicare.ps.sex_parent -->
<g id="node5" class="node">
<title>medicare.ps.sex_parent</title>
<g id="a_node5"><a xlink:href="../medicare.ps/sex.html" xlink:title="8 incoming links (columns)" target="_blank">
<path fill="yellow" stroke="black" d="M216,-707.18C216,-712.6 167.59,-717 108,-717 48.41,-717 0,-712.6 0,-707.18 0,-707.18 0,-618.82 0,-618.82 0,-613.4 48.41,-609 108,-609 167.59,-609 216,-613.4 216,-618.82 216,-618.82 216,-707.18 216,-707.18"/>
<path fill="none" stroke="black" d="M216,-707.18C216,-701.76 167.59,-697.36 108,-697.36 48.41,-697.36 0,-701.76 0,-707.18"/>
<text text-anchor="middle" x="108" y="-657.95" font-family="Times,serif" font-size="14.00">8 incoming links (columns)</text>
</a>
</g>
</g>
<!-- medicare.ps.sex_parent&#45;&gt;medicare.ps.sex -->
<g id="edge4" class="edge">
<title>medicare.ps.sex_parent&#45;&gt;medicare.ps.sex</title>
<path fill="none" stroke="goldenrod" stroke-width="6" d="M108,-608.88C108,-602.24 108,-595.39 108,-588.57"/>
<polygon fill="goldenrod" stroke="goldenrod" stroke-width="6" points="113.25,-588.82 108,-578.82 102.75,-588.82 113.25,-588.82"/>
</g>
</g>
</svg>
