<?xml version="1.0" encoding="UTF-8" standalone="no"?>
<!DOCTYPE svg PUBLIC "-//W3C//DTD SVG 1.1//EN"
 "http://www.w3.org/Graphics/SVG/1.1/DTD/svg11.dtd">
<!-- Generated by graphviz version 10.0.1 (20240210.2158)
 -->
<!-- Pages: 1 -->
<svg width="224pt" height="396pt"
 viewBox="0.00 0.00 224.00 396.00" xmlns="http://www.w3.org/2000/svg" xmlns:xlink="http://www.w3.org/1999/xlink">
<g id="graph0" class="graph" transform="scale(1 1) rotate(0) translate(4 392)">
<polygon fill="white" stroke="none" points="-4,4 -4,-392 220,-392 220,4 -4,4"/>
<!-- medicare._ps.sex -->
<g id="node1" class="node">
<title>medicare._ps.sex</title>
<g id="a_node1"><a xlink:href="../medicare._ps/sex.html" xlink:title="&lt;TABLE&gt;" target="_blank">
<polygon fill="none" stroke="black" points="170.5,-103 45.5,-103 45.5,0 170.5,0 170.5,-103"/>
<text text-anchor="start" x="58.5" y="-81.7" font-family="Times,serif" font-weight="bold" font-size="14.00">medicare._ps.sex</text>
<text text-anchor="start" x="81.5" y="-35.2" font-family="Times,serif" font-size="14.00">Sex</text>
<polygon fill="none" stroke="black" points="53.5,-4 53.5,-99 162.5,-99 162.5,-4 53.5,-4"/>
</a>
</g>
</g>
<!-- medicare.ps.sex -->
<g id="node2" class="node">
<title>medicare.ps.sex</title>
<g id="a_node2"><a xlink:href="../medicare.ps/sex.html" xlink:title="&lt;TABLE&gt;" target="_blank">
<polygon fill="none" stroke="black" points="167.12,-243 48.88,-243 48.88,-140 167.12,-140 167.12,-243"/>
<text text-anchor="start" x="61.88" y="-221.7" font-family="Times,serif" font-weight="bold" font-size="14.00">medicare.ps.sex</text>
<text text-anchor="start" x="84.88" y="-175.2" font-family="Times,serif" font-size="14.00">Sex</text>
<polygon fill="none" stroke="black" points="56.88,-144 56.88,-239 159.12,-239 159.12,-144 56.88,-144"/>
</a>
</g>
</g>
<!-- medicare.ps.sex&#45;&gt;medicare._ps.sex -->
<g id="edge1" class="edge">
<title>medicare.ps.sex&#45;&gt;medicare._ps.sex</title>
<path fill="none" stroke="black" d="M108,-139.51C108,-131.38 108,-122.89 108,-114.54"/>
<polygon fill="black" stroke="black" points="111.5,-114.8 108,-104.8 104.5,-114.8 111.5,-114.8"/>
<text text-anchor="middle" x="127.5" y="-116.45" font-family="Times,serif" font-size="14.00">Copied</text>
</g>
<!-- medicare.ps.sex_parent -->
<g id="node3" class="node">
<title>medicare.ps.sex_parent</title>
<g id="a_node3"><a xlink:href="../medicare.ps/sex.html" xlink:title="8 incoming links (columns)" target="_blank">
<path fill="yellow" stroke="black" d="M216,-378.18C216,-383.6 167.59,-388 108,-388 48.41,-388 0,-383.6 0,-378.18 0,-378.18 0,-289.82 0,-289.82 0,-284.4 48.41,-280 108,-280 167.59,-280 216,-284.4 216,-289.82 216,-289.82 216,-378.18 216,-378.18"/>
<path fill="none" stroke="black" d="M216,-378.18C216,-372.76 167.59,-368.36 108,-368.36 48.41,-368.36 0,-372.76 0,-378.18"/>
<text text-anchor="middle" x="108" y="-328.95" font-family="Times,serif" font-size="14.00">8 incoming links (columns)</text>
</a>
</g>
</g>
<!-- medicare.ps.sex_parent&#45;&gt;medicare.ps.sex -->
<g id="edge2" class="edge">
<title>medicare.ps.sex_parent&#45;&gt;medicare.ps.sex</title>
<path fill="none" stroke="goldenrod" stroke-width="6" d="M108,-279.88C108,-273.24 108,-266.39 108,-259.57"/>
<polygon fill="goldenrod" stroke="goldenrod" stroke-width="6" points="113.25,-259.82 108,-249.82 102.75,-259.82 113.25,-259.82"/>
</g>
</g>
</svg>
