<?xml version="1.0" encoding="UTF-8" standalone="no"?>
<!DOCTYPE svg PUBLIC "-//W3C//DTD SVG 1.1//EN"
 "http://www.w3.org/Graphics/SVG/1.1/DTD/svg11.dtd">
<!-- Generated by graphviz version 10.0.1 (20240210.2158)
 -->
<!-- Pages: 1 -->
<svg width="243pt" height="262pt"
 viewBox="0.00 0.00 242.50 262.00" xmlns="http://www.w3.org/2000/svg" xmlns:xlink="http://www.w3.org/1999/xlink">
<g id="graph0" class="graph" transform="scale(1 1) rotate(0) translate(4 258)">
<polygon fill="white" stroke="none" points="-4,4 -4,-258 238.5,-258 238.5,4 -4,4"/>
<!-- medicare.admissions.src_admsn_cd -->
<g id="node1" class="node">
<title>medicare.admissions.src_admsn_cd</title>
<g id="a_node1"><a xlink:href="../medicare.admissions/src_admsn_cd.html" xlink:title="&lt;TABLE&gt;" target="_blank">
<polygon fill="none" stroke="black" points="234.5,-36 0,-36 0,0 234.5,0 234.5,-36"/>
<text text-anchor="start" x="13" y="-13.95" font-family="Times,serif" font-weight="bold" font-size="14.00">medicare.admissions.src_admsn_cd</text>
<polygon fill="none" stroke="black" points="8,-4.75 8,-31.25 226.5,-31.25 226.5,-4.75 8,-4.75"/>
</a>
</g>
</g>
<!-- medicare.ip.src_admsn_cd -->
<g id="node2" class="node">
<title>medicare.ip.src_admsn_cd</title>
<g id="a_node2"><a xlink:href="../medicare.ip/src_admsn_cd.html" xlink:title="&lt;TABLE&gt;" target="_blank">
<polygon fill="none" stroke="black" points="208.25,-109 26.25,-109 26.25,-73 208.25,-73 208.25,-109"/>
<text text-anchor="start" x="39.25" y="-86.95" font-family="Times,serif" font-weight="bold" font-size="14.00">medicare.ip.src_admsn_cd</text>
<polygon fill="none" stroke="black" points="34.25,-77.75 34.25,-104.25 200.25,-104.25 200.25,-77.75 34.25,-77.75"/>
</a>
</g>
</g>
<!-- medicare.ip.src_admsn_cd&#45;&gt;medicare.admissions.src_admsn_cd -->
<g id="edge1" class="edge">
<title>medicare.ip.src_admsn_cd&#45;&gt;medicare.admissions.src_admsn_cd</title>
<path fill="none" stroke="black" d="M117.25,-72.81C117.25,-65.23 117.25,-56.1 117.25,-47.54"/>
<polygon fill="black" stroke="black" points="120.75,-47.54 117.25,-37.54 113.75,-47.54 120.75,-47.54"/>
<text text-anchor="middle" x="136.75" y="-49.45" font-family="Times,serif" font-size="14.00">Copied</text>
</g>
<!-- medicare.ip.src_admsn_cd_parent -->
<g id="node3" class="node">
<title>medicare.ip.src_admsn_cd_parent</title>
<g id="a_node3"><a xlink:href="../medicare.ip/src_admsn_cd.html" xlink:title="8 incoming links (columns)" target="_blank">
<path fill="yellow" stroke="black" d="M225.25,-244.18C225.25,-249.6 176.84,-254 117.25,-254 57.66,-254 9.25,-249.6 9.25,-244.18 9.25,-244.18 9.25,-155.82 9.25,-155.82 9.25,-150.4 57.66,-146 117.25,-146 176.84,-146 225.25,-150.4 225.25,-155.82 225.25,-155.82 225.25,-244.18 225.25,-244.18"/>
<path fill="none" stroke="black" d="M225.25,-244.18C225.25,-238.76 176.84,-234.36 117.25,-234.36 57.66,-234.36 9.25,-238.76 9.25,-244.18"/>
<text text-anchor="middle" x="117.25" y="-194.95" font-family="Times,serif" font-size="14.00">8 incoming links (columns)</text>
</a>
</g>
</g>
<!-- medicare.ip.src_admsn_cd_parent&#45;&gt;medicare.ip.src_admsn_cd -->
<g id="edge2" class="edge">
<title>medicare.ip.src_admsn_cd_parent&#45;&gt;medicare.ip.src_admsn_cd</title>
<path fill="none" stroke="goldenrod" stroke-width="6" d="M117.25,-145.5C117.25,-138.71 117.25,-131.92 117.25,-125.57"/>
<polygon fill="goldenrod" stroke="goldenrod" stroke-width="6" points="122.5,-125.65 117.25,-115.65 112,-125.65 122.5,-125.65"/>
</g>
</g>
</svg>
