<?xml version="1.0" encoding="UTF-8" standalone="no"?>
<!DOCTYPE svg PUBLIC "-//W3C//DTD SVG 1.1//EN"
 "http://www.w3.org/Graphics/SVG/1.1/DTD/svg11.dtd">
<!-- Generated by graphviz version 10.0.1 (20240210.2158)
 -->
<!-- Pages: 1 -->
<svg width="388pt" height="429pt"
 viewBox="0.00 0.00 387.50 429.00" xmlns="http://www.w3.org/2000/svg" xmlns:xlink="http://www.w3.org/1999/xlink">
<g id="graph0" class="graph" transform="scale(1 1) rotate(0) translate(4 425)">
<polygon fill="white" stroke="none" points="-4,4 -4,-425 383.5,-425 383.5,4 -4,4"/>
<!-- medicare._enrollments.ssa2_list -->
<g id="node1" class="node">
<title>medicare._enrollments.ssa2_list</title>
<g id="a_node1"><a xlink:href="../medicare._enrollments/ssa2_list.html" xlink:title="&lt;TABLE&gt;" target="_blank">
<polygon fill="none" stroke="black" points="256.38,-59 45.12,-59 45.12,0 256.38,0 256.38,-59"/>
<text text-anchor="start" x="58.12" y="-37.7" font-family="Times,serif" font-weight="bold" font-size="14.00">medicare._enrollments.ssa2_list</text>
<polygon fill="none" stroke="black" points="56.12,-7 56.12,-29.5 245.38,-29.5 245.38,-7 56.12,-7"/>
<text text-anchor="start" x="59.12" y="-13.2" font-family="Times,serif" font-size="14.00">string_agg(distinct ssa2, &#39;,&#39;)</text>
<polygon fill="none" stroke="black" points="53.12,-4 53.12,-55 248.38,-55 248.38,-4 53.12,-4"/>
</a>
</g>
</g>
<!-- medicare._ps.ssa2 -->
<g id="node2" class="node">
<title>medicare._ps.ssa2</title>
<g id="a_node2"><a xlink:href="../medicare._ps/ssa2.html" xlink:title="&lt;TABLE&gt;" target="_blank">
<polygon fill="none" stroke="black" points="301.5,-240 0,-240 0,-96 301.5,-96 301.5,-240"/>
<text text-anchor="start" x="98.25" y="-218.7" font-family="Times,serif" font-weight="bold" font-size="14.00">medicare._ps.ssa2</text>
<text text-anchor="start" x="36" y="-172.2" font-family="Times,serif" font-size="14.00">Social Security Administration (SSA) two</text>
<text text-anchor="start" x="99.75" y="-155.7" font-family="Times,serif" font-size="14.00">digit code for state</text>
<polygon fill="none" stroke="black" points="11,-103 11,-125.5 290.5,-125.5 290.5,-103 11,-103"/>
<text text-anchor="start" x="14" y="-109.2" font-family="Times,serif" font-size="14.00">state</text>
<polygon fill="none" stroke="black" points="8,-100 8,-236 293.5,-236 293.5,-100 8,-100"/>
</a>
</g>
</g>
<!-- medicare._ps.ssa2&#45;&gt;medicare._enrollments.ssa2_list -->
<g id="edge1" class="edge">
<title>medicare._ps.ssa2&#45;&gt;medicare._enrollments.ssa2_list</title>
<path fill="none" stroke="blue" stroke-width="5" d="M150.75,-95.55C150.75,-88.77 150.75,-82.02 150.75,-75.59"/>
<polygon fill="blue" stroke="blue" stroke-width="5" points="155.13,-75.72 150.75,-65.72 146.38,-75.72 155.13,-75.72"/>
<text text-anchor="middle" x="265.12" y="-72.45" font-family="Times,serif" font-size="14.00">	 &#160;Aggregated On bene_id, year, state</text>
</g>
<!-- medicare.ps.ssa2 -->
<g id="node3" class="node">
<title>medicare.ps.ssa2</title>
<g id="a_node3"><a xlink:href="../medicare.ps/ssa2.html" xlink:title="&lt;TABLE&gt;" target="_blank">
<polygon fill="none" stroke="black" points="301.5,-421 0,-421 0,-277 301.5,-277 301.5,-421"/>
<text text-anchor="start" x="101.62" y="-399.7" font-family="Times,serif" font-weight="bold" font-size="14.00">medicare.ps.ssa2</text>
<text text-anchor="start" x="36" y="-353.2" font-family="Times,serif" font-size="14.00">Social Security Administration (SSA) two</text>
<text text-anchor="start" x="99.75" y="-336.7" font-family="Times,serif" font-size="14.00">digit code for state</text>
<polygon fill="none" stroke="black" points="11,-284 11,-306.5 290.5,-306.5 290.5,-284 11,-284"/>
<text text-anchor="start" x="14" y="-290.2" font-family="Times,serif" font-size="14.00">state</text>
<polygon fill="none" stroke="black" points="8,-281 8,-417 293.5,-417 293.5,-281 8,-281"/>
</a>
</g>
</g>
<!-- medicare.ps.ssa2&#45;&gt;medicare._ps.ssa2 -->
<g id="edge2" class="edge">
<title>medicare.ps.ssa2&#45;&gt;medicare._ps.ssa2</title>
<path fill="none" stroke="black" d="M150.75,-276.74C150.75,-268.5 150.75,-260.04 150.75,-251.66"/>
<polygon fill="black" stroke="black" points="154.25,-251.82 150.75,-241.82 147.25,-251.82 154.25,-251.82"/>
<text text-anchor="middle" x="170.25" y="-253.45" font-family="Times,serif" font-size="14.00">Copied</text>
</g>
</g>
</svg>
