<?xml version="1.0" encoding="UTF-8" standalone="no"?>
<!DOCTYPE svg PUBLIC "-//W3C//DTD SVG 1.1//EN"
 "http://www.w3.org/Graphics/SVG/1.1/DTD/svg11.dtd">
<!-- Generated by graphviz version 10.0.1 (20240210.2158)
 -->
<!-- Pages: 1 -->
<svg width="388pt" height="525pt"
 viewBox="0.00 0.00 387.50 525.00" xmlns="http://www.w3.org/2000/svg" xmlns:xlink="http://www.w3.org/1999/xlink">
<g id="graph0" class="graph" transform="scale(1 1) rotate(0) translate(4 521)">
<polygon fill="white" stroke="none" points="-4,4 -4,-521 383.5,-521 383.5,4 -4,4"/>
<!-- medicare.enrollments.ssa2_list -->
<g id="node1" class="node">
<title>medicare.enrollments.ssa2_list</title>
<g id="a_node1"><a xlink:href="../medicare.enrollments/ssa2_list.html" xlink:title="&lt;TABLE&gt;" target="_blank">
<polygon fill="none" stroke="black" points="253,-59 48.5,-59 48.5,0 253,0 253,-59"/>
<text text-anchor="start" x="61.5" y="-37.7" font-family="Times,serif" font-weight="bold" font-size="14.00">medicare.enrollments.ssa2_list</text>
<polygon fill="none" stroke="black" points="59.5,-7 59.5,-29.5 242,-29.5 242,-7 59.5,-7"/>
<text text-anchor="start" x="62.5" y="-13.2" font-family="Times,serif" font-size="14.00">string_agg(distinct ssa2, &#39;,&#39;)</text>
<polygon fill="none" stroke="black" points="56.5,-4 56.5,-55 245,-55 245,-4 56.5,-4"/>
</a>
</g>
</g>
<!-- medicare._enrollments.ssa2 -->
<g id="node2" class="node">
<title>medicare._enrollments.ssa2</title>
<g id="a_node2"><a xlink:href="../medicare._enrollments/ssa2.html" xlink:title="&lt;TABLE&gt;" target="_blank">
<polygon fill="none" stroke="black" points="244.38,-155 57.12,-155 57.12,-96 244.38,-96 244.38,-155"/>
<text text-anchor="start" x="70.12" y="-133.7" font-family="Times,serif" font-weight="bold" font-size="14.00">medicare._enrollments.ssa2</text>
<polygon fill="none" stroke="black" points="68.12,-103 68.12,-125.5 233.38,-125.5 233.38,-103 68.12,-103"/>
<text text-anchor="start" x="71.12" y="-109.2" font-family="Times,serif" font-size="14.00">MAX(ssa2)</text>
<polygon fill="none" stroke="black" points="65.12,-100 65.12,-151 236.38,-151 236.38,-100 65.12,-100"/>
</a>
</g>
</g>
<!-- medicare._enrollments.ssa2&#45;&gt;medicare.enrollments.ssa2_list -->
<g id="edge1" class="edge">
<title>medicare._enrollments.ssa2&#45;&gt;medicare.enrollments.ssa2_list</title>
<path fill="none" stroke="black" d="M150.75,-95.53C150.75,-87.68 150.75,-79.05 150.75,-70.7"/>
<polygon fill="black" stroke="black" points="154.25,-70.73 150.75,-60.73 147.25,-70.73 154.25,-70.73"/>
<text text-anchor="middle" x="170.25" y="-72.45" font-family="Times,serif" font-size="14.00">Copied</text>
</g>
<!-- medicare._ps.ssa2 -->
<g id="node3" class="node">
<title>medicare._ps.ssa2</title>
<g id="a_node3"><a xlink:href="../medicare._ps/ssa2.html" xlink:title="&lt;TABLE&gt;" target="_blank">
<polygon fill="none" stroke="black" points="301.5,-336 0,-336 0,-192 301.5,-192 301.5,-336"/>
<text text-anchor="start" x="98.25" y="-314.7" font-family="Times,serif" font-weight="bold" font-size="14.00">medicare._ps.ssa2</text>
<text text-anchor="start" x="36" y="-268.2" font-family="Times,serif" font-size="14.00">Social Security Administration (SSA) two</text>
<text text-anchor="start" x="99.75" y="-251.7" font-family="Times,serif" font-size="14.00">digit code for state</text>
<polygon fill="none" stroke="black" points="11,-199 11,-221.5 290.5,-221.5 290.5,-199 11,-199"/>
<text text-anchor="start" x="14" y="-205.2" font-family="Times,serif" font-size="14.00">state</text>
<polygon fill="none" stroke="black" points="8,-196 8,-332 293.5,-332 293.5,-196 8,-196"/>
</a>
</g>
</g>
<!-- medicare._ps.ssa2&#45;&gt;medicare._enrollments.ssa2 -->
<g id="edge2" class="edge">
<title>medicare._ps.ssa2&#45;&gt;medicare._enrollments.ssa2</title>
<path fill="none" stroke="blue" stroke-width="5" d="M150.75,-191.55C150.75,-184.77 150.75,-178.02 150.75,-171.59"/>
<polygon fill="blue" stroke="blue" stroke-width="5" points="155.13,-171.72 150.75,-161.72 146.38,-171.72 155.13,-171.72"/>
<text text-anchor="middle" x="265.12" y="-168.45" font-family="Times,serif" font-size="14.00">	 &#160;Aggregated On bene_id, year, state</text>
</g>
<!-- medicare.ps.ssa2 -->
<g id="node4" class="node">
<title>medicare.ps.ssa2</title>
<g id="a_node4"><a xlink:href="../medicare.ps/ssa2.html" xlink:title="&lt;TABLE&gt;" target="_blank">
<polygon fill="none" stroke="black" points="301.5,-517 0,-517 0,-373 301.5,-373 301.5,-517"/>
<text text-anchor="start" x="101.62" y="-495.7" font-family="Times,serif" font-weight="bold" font-size="14.00">medicare.ps.ssa2</text>
<text text-anchor="start" x="36" y="-449.2" font-family="Times,serif" font-size="14.00">Social Security Administration (SSA) two</text>
<text text-anchor="start" x="99.75" y="-432.7" font-family="Times,serif" font-size="14.00">digit code for state</text>
<polygon fill="none" stroke="black" points="11,-380 11,-402.5 290.5,-402.5 290.5,-380 11,-380"/>
<text text-anchor="start" x="14" y="-386.2" font-family="Times,serif" font-size="14.00">state</text>
<polygon fill="none" stroke="black" points="8,-377 8,-513 293.5,-513 293.5,-377 8,-377"/>
</a>
</g>
</g>
<!-- medicare.ps.ssa2&#45;&gt;medicare._ps.ssa2 -->
<g id="edge3" class="edge">
<title>medicare.ps.ssa2&#45;&gt;medicare._ps.ssa2</title>
<path fill="none" stroke="black" d="M150.75,-372.74C150.75,-364.5 150.75,-356.04 150.75,-347.66"/>
<polygon fill="black" stroke="black" points="154.25,-347.82 150.75,-337.82 147.25,-347.82 154.25,-347.82"/>
<text text-anchor="middle" x="170.25" y="-349.45" font-family="Times,serif" font-size="14.00">Copied</text>
</g>
</g>
</svg>
