<?xml version="1.0" encoding="UTF-8" standalone="no"?>
<!DOCTYPE svg PUBLIC "-//W3C//DTD SVG 1.1//EN"
 "http://www.w3.org/Graphics/SVG/1.1/DTD/svg11.dtd">
<!-- Generated by graphviz version 10.0.1 (20240210.2158)
 -->
<!-- Pages: 1 -->
<svg width="286pt" height="429pt"
 viewBox="0.00 0.00 285.50 429.00" xmlns="http://www.w3.org/2000/svg" xmlns:xlink="http://www.w3.org/1999/xlink">
<g id="graph0" class="graph" transform="scale(1 1) rotate(0) translate(4 425)">
<polygon fill="white" stroke="none" points="-4,4 -4,-425 281.5,-425 281.5,4 -4,4"/>
<!-- medicare._ps.ssa3 -->
<g id="node1" class="node">
<title>medicare._ps.ssa3</title>
<g id="a_node1"><a xlink:href="../medicare._ps/ssa3.html" xlink:title="&lt;TABLE&gt;" target="_blank">
<polygon fill="none" stroke="black" points="277.5,-119.5 0,-119.5 0,0 277.5,0 277.5,-119.5"/>
<text text-anchor="start" x="86.25" y="-98.2" font-family="Times,serif" font-weight="bold" font-size="14.00">medicare._ps.ssa3</text>
<text text-anchor="start" x="36" y="-51.7" font-family="Times,serif" font-size="14.00">Social Security Administration (SSA)</text>
<text text-anchor="start" x="66.38" y="-35.2" font-family="Times,serif" font-size="14.00">three digit code for county</text>
<polygon fill="none" stroke="black" points="8,-4 8,-115.5 269.5,-115.5 269.5,-4 8,-4"/>
</a>
</g>
</g>
<!-- medicare.ps.ssa3 -->
<g id="node2" class="node">
<title>medicare.ps.ssa3</title>
<g id="a_node2"><a xlink:href="../medicare.ps/ssa3.html" xlink:title="&lt;TABLE&gt;" target="_blank">
<polygon fill="none" stroke="black" points="277.5,-276 0,-276 0,-156.5 277.5,-156.5 277.5,-276"/>
<text text-anchor="start" x="89.62" y="-254.7" font-family="Times,serif" font-weight="bold" font-size="14.00">medicare.ps.ssa3</text>
<text text-anchor="start" x="36" y="-208.2" font-family="Times,serif" font-size="14.00">Social Security Administration (SSA)</text>
<text text-anchor="start" x="66.38" y="-191.7" font-family="Times,serif" font-size="14.00">three digit code for county</text>
<polygon fill="none" stroke="black" points="8,-160.5 8,-272 269.5,-272 269.5,-160.5 8,-160.5"/>
</a>
</g>
</g>
<!-- medicare.ps.ssa3&#45;&gt;medicare._ps.ssa3 -->
<g id="edge1" class="edge">
<title>medicare.ps.ssa3&#45;&gt;medicare._ps.ssa3</title>
<path fill="none" stroke="black" d="M138.75,-156.4C138.75,-148.19 138.75,-139.69 138.75,-131.29"/>
<polygon fill="black" stroke="black" points="142.25,-131.46 138.75,-121.46 135.25,-131.46 142.25,-131.46"/>
<text text-anchor="middle" x="158.25" y="-132.95" font-family="Times,serif" font-size="14.00">Copied</text>
</g>
<!-- medicare.ps.ssa3_parent -->
<g id="node3" class="node">
<title>medicare.ps.ssa3_parent</title>
<g id="a_node3"><a xlink:href="../medicare.ps/ssa3.html" xlink:title="8 incoming links (columns)" target="_blank">
<path fill="yellow" stroke="black" d="M246.75,-411.18C246.75,-416.6 198.34,-421 138.75,-421 79.16,-421 30.75,-416.6 30.75,-411.18 30.75,-411.18 30.75,-322.82 30.75,-322.82 30.75,-317.4 79.16,-313 138.75,-313 198.34,-313 246.75,-317.4 246.75,-322.82 246.75,-322.82 246.75,-411.18 246.75,-411.18"/>
<path fill="none" stroke="black" d="M246.75,-411.18C246.75,-405.76 198.34,-401.36 138.75,-401.36 79.16,-401.36 30.75,-405.76 30.75,-411.18"/>
<text text-anchor="middle" x="138.75" y="-361.95" font-family="Times,serif" font-size="14.00">8 incoming links (columns)</text>
</a>
</g>
</g>
<!-- medicare.ps.ssa3_parent&#45;&gt;medicare.ps.ssa3 -->
<g id="edge2" class="edge">
<title>medicare.ps.ssa3_parent&#45;&gt;medicare.ps.ssa3</title>
<path fill="none" stroke="goldenrod" stroke-width="6" d="M138.75,-312.72C138.75,-306.2 138.75,-299.44 138.75,-292.68"/>
<polygon fill="goldenrod" stroke="goldenrod" stroke-width="6" points="144,-292.92 138.75,-282.92 133.5,-292.92 144,-292.92"/>
</g>
</g>
</svg>
