<?xml version="1.0" encoding="UTF-8" standalone="no"?>
<!DOCTYPE svg PUBLIC "-//W3C//DTD SVG 1.1//EN"
 "http://www.w3.org/Graphics/SVG/1.1/DTD/svg11.dtd">
<!-- Generated by graphviz version 10.0.1 (20240210.2158)
 -->
<!-- Pages: 1 -->
<svg width="376pt" height="525pt"
 viewBox="0.00 0.00 375.50 525.00" xmlns="http://www.w3.org/2000/svg" xmlns:xlink="http://www.w3.org/1999/xlink">
<g id="graph0" class="graph" transform="scale(1 1) rotate(0) translate(4 521)">
<polygon fill="white" stroke="none" points="-4,4 -4,-521 371.5,-521 371.5,4 -4,4"/>
<!-- medicare._enrollments.ssa3_list -->
<g id="node1" class="node">
<title>medicare._enrollments.ssa3_list</title>
<g id="a_node1"><a xlink:href="../medicare._enrollments/ssa3_list.html" xlink:title="&lt;TABLE&gt;" target="_blank">
<polygon fill="none" stroke="black" points="244.38,-59 33.12,-59 33.12,0 244.38,0 244.38,-59"/>
<text text-anchor="start" x="46.12" y="-37.7" font-family="Times,serif" font-weight="bold" font-size="14.00">medicare._enrollments.ssa3_list</text>
<polygon fill="none" stroke="black" points="44.12,-7 44.12,-29.5 233.38,-29.5 233.38,-7 44.12,-7"/>
<text text-anchor="start" x="47.12" y="-13.2" font-family="Times,serif" font-size="14.00">string_agg(distinct ssa3, &#39;,&#39;)</text>
<polygon fill="none" stroke="black" points="41.12,-4 41.12,-55 236.38,-55 236.38,-4 41.12,-4"/>
</a>
</g>
</g>
<!-- medicare._ps.ssa3 -->
<g id="node2" class="node">
<title>medicare._ps.ssa3</title>
<g id="a_node2"><a xlink:href="../medicare._ps/ssa3.html" xlink:title="&lt;TABLE&gt;" target="_blank">
<polygon fill="none" stroke="black" points="277.5,-215.5 0,-215.5 0,-96 277.5,-96 277.5,-215.5"/>
<text text-anchor="start" x="86.25" y="-194.2" font-family="Times,serif" font-weight="bold" font-size="14.00">medicare._ps.ssa3</text>
<text text-anchor="start" x="36" y="-147.7" font-family="Times,serif" font-size="14.00">Social Security Administration (SSA)</text>
<text text-anchor="start" x="66.38" y="-131.2" font-family="Times,serif" font-size="14.00">three digit code for county</text>
<polygon fill="none" stroke="black" points="8,-100 8,-211.5 269.5,-211.5 269.5,-100 8,-100"/>
</a>
</g>
</g>
<!-- medicare._ps.ssa3&#45;&gt;medicare._enrollments.ssa3_list -->
<g id="edge1" class="edge">
<title>medicare._ps.ssa3&#45;&gt;medicare._enrollments.ssa3_list</title>
<path fill="none" stroke="blue" stroke-width="5" d="M138.75,-95.54C138.75,-88.73 138.75,-81.88 138.75,-75.31"/>
<polygon fill="blue" stroke="blue" stroke-width="5" points="143.13,-75.51 138.75,-65.51 134.38,-75.51 143.13,-75.51"/>
<text text-anchor="middle" x="253.12" y="-72.45" font-family="Times,serif" font-size="14.00">	 &#160;Aggregated On bene_id, year, state</text>
</g>
<!-- medicare.ps.ssa3 -->
<g id="node3" class="node">
<title>medicare.ps.ssa3</title>
<g id="a_node3"><a xlink:href="../medicare.ps/ssa3.html" xlink:title="&lt;TABLE&gt;" target="_blank">
<polygon fill="none" stroke="black" points="277.5,-372 0,-372 0,-252.5 277.5,-252.5 277.5,-372"/>
<text text-anchor="start" x="89.62" y="-350.7" font-family="Times,serif" font-weight="bold" font-size="14.00">medicare.ps.ssa3</text>
<text text-anchor="start" x="36" y="-304.2" font-family="Times,serif" font-size="14.00">Social Security Administration (SSA)</text>
<text text-anchor="start" x="66.38" y="-287.7" font-family="Times,serif" font-size="14.00">three digit code for county</text>
<polygon fill="none" stroke="black" points="8,-256.5 8,-368 269.5,-368 269.5,-256.5 8,-256.5"/>
</a>
</g>
</g>
<!-- medicare.ps.ssa3&#45;&gt;medicare._ps.ssa3 -->
<g id="edge2" class="edge">
<title>medicare.ps.ssa3&#45;&gt;medicare._ps.ssa3</title>
<path fill="none" stroke="black" d="M138.75,-252.4C138.75,-244.19 138.75,-235.69 138.75,-227.29"/>
<polygon fill="black" stroke="black" points="142.25,-227.46 138.75,-217.46 135.25,-227.46 142.25,-227.46"/>
<text text-anchor="middle" x="158.25" y="-228.95" font-family="Times,serif" font-size="14.00">Copied</text>
</g>
<!-- medicare.ps.ssa3_parent -->
<g id="node4" class="node">
<title>medicare.ps.ssa3_parent</title>
<g id="a_node4"><a xlink:href="../medicare.ps/ssa3.html" xlink:title="8 incoming links (columns)" target="_blank">
<path fill="yellow" stroke="black" d="M246.75,-507.18C246.75,-512.6 198.34,-517 138.75,-517 79.16,-517 30.75,-512.6 30.75,-507.18 30.75,-507.18 30.75,-418.82 30.75,-418.82 30.75,-413.4 79.16,-409 138.75,-409 198.34,-409 246.75,-413.4 246.75,-418.82 246.75,-418.82 246.75,-507.18 246.75,-507.18"/>
<path fill="none" stroke="black" d="M246.75,-507.18C246.75,-501.76 198.34,-497.36 138.75,-497.36 79.16,-497.36 30.75,-501.76 30.75,-507.18"/>
<text text-anchor="middle" x="138.75" y="-457.95" font-family="Times,serif" font-size="14.00">8 incoming links (columns)</text>
</a>
</g>
</g>
<!-- medicare.ps.ssa3_parent&#45;&gt;medicare.ps.ssa3 -->
<g id="edge3" class="edge">
<title>medicare.ps.ssa3_parent&#45;&gt;medicare.ps.ssa3</title>
<path fill="none" stroke="goldenrod" stroke-width="6" d="M138.75,-408.72C138.75,-402.2 138.75,-395.44 138.75,-388.68"/>
<polygon fill="goldenrod" stroke="goldenrod" stroke-width="6" points="144,-388.92 138.75,-378.92 133.5,-388.92 144,-388.92"/>
</g>
</g>
</svg>
