<?xml version="1.0" encoding="UTF-8" standalone="no"?>
<!DOCTYPE svg PUBLIC "-//W3C//DTD SVG 1.1//EN"
 "http://www.w3.org/Graphics/SVG/1.1/DTD/svg11.dtd">
<!-- Generated by graphviz version 10.0.1 (20240210.2158)
 -->
<!-- Pages: 1 -->
<svg width="775pt" height="919pt"
 viewBox="0.00 0.00 775.38 919.00" xmlns="http://www.w3.org/2000/svg" xmlns:xlink="http://www.w3.org/1999/xlink">
<g id="graph0" class="graph" transform="scale(1 1) rotate(0) translate(4 915)">
<polygon fill="white" stroke="none" points="-4,4 -4,-915 771.38,-915 771.38,4 -4,4"/>
<!-- medicare.admissions.state -->
<g id="node1" class="node">
<title>medicare.admissions.state</title>
<g id="a_node1"><a xlink:href="../medicare.admissions/state.html" xlink:title="&lt;TABLE&gt;" target="_blank">
<polygon fill="none" stroke="black" points="591.25,-127.5 162,-127.5 162,0 591.25,0 591.25,-127.5"/>
<text text-anchor="start" x="300.5" y="-106.2" font-family="Times,serif" font-weight="bold" font-size="14.00">medicare.admissions.state</text>
<text text-anchor="start" x="198" y="-59.7" font-family="Times,serif" font-size="14.00">State Code</text>
<polygon fill="none" stroke="black" points="173,-7 173,-29.5 580.25,-29.5 580.25,-7 173,-7"/>
<text text-anchor="start" x="176" y="-13.2" font-family="Times,serif" font-size="14.00">(SELECT state_id FROM public.us_states as s WHERE s.ssa2 = &quot;state&quot;)</text>
<polygon fill="none" stroke="black" points="170,-4 170,-123.5 583.25,-123.5 583.25,-4 170,-4"/>
</a>
</g>
</g>
<!-- medicare.ip.state -->
<g id="node2" class="node">
<title>medicare.ip.state</title>
<g id="a_node2"><a xlink:href="../medicare.ip/state.html" xlink:title="&lt;TABLE&gt;" target="_blank">
<polygon fill="none" stroke="black" points="429.25,-292 0,-292 0,-164.5 429.25,-164.5 429.25,-292"/>
<text text-anchor="start" x="164.75" y="-270.7" font-family="Times,serif" font-weight="bold" font-size="14.00">medicare.ip.state</text>
<text text-anchor="start" x="36" y="-224.2" font-family="Times,serif" font-size="14.00">State Code</text>
<polygon fill="none" stroke="black" points="11,-171.5 11,-194 418.25,-194 418.25,-171.5 11,-171.5"/>
<text text-anchor="start" x="14" y="-177.7" font-family="Times,serif" font-size="14.00">(SELECT state_id FROM public.us_states as s WHERE s.ssa2 = &quot;state&quot;)</text>
<polygon fill="none" stroke="black" points="8,-168.5 8,-288 421.25,-288 421.25,-168.5 8,-168.5"/>
</a>
</g>
</g>
<!-- medicare.ip.state&#45;&gt;medicare.admissions.state -->
<g id="edge1" class="edge">
<title>medicare.ip.state&#45;&gt;medicare.admissions.state</title>
<path fill="none" stroke="black" d="M277.26,-164.42C286.58,-155.07 296.24,-145.38 305.72,-135.87"/>
<polygon fill="black" stroke="black" points="307.97,-138.57 312.56,-129.02 303.02,-133.63 307.97,-138.57"/>
<text text-anchor="middle" x="315.12" y="-140.95" font-family="Times,serif" font-size="14.00">Copied</text>
</g>
<!-- medicare.ip.state_parent -->
<g id="node3" class="node">
<title>medicare.ip.state_parent</title>
<g id="a_node3"><a xlink:href="../medicare.ip/state.html" xlink:title="8 incoming links (columns)" target="_blank">
<path fill="yellow" stroke="black" d="M322.62,-427.18C322.62,-432.6 274.22,-437 214.62,-437 155.03,-437 106.62,-432.6 106.62,-427.18 106.62,-427.18 106.62,-338.82 106.62,-338.82 106.62,-333.4 155.03,-329 214.62,-329 274.22,-329 322.62,-333.4 322.62,-338.82 322.62,-338.82 322.62,-427.18 322.62,-427.18"/>
<path fill="none" stroke="black" d="M322.62,-427.18C322.62,-421.76 274.22,-417.36 214.62,-417.36 155.03,-417.36 106.62,-421.76 106.62,-427.18"/>
<text text-anchor="middle" x="214.62" y="-377.95" font-family="Times,serif" font-size="14.00">8 incoming links (columns)</text>
</a>
</g>
</g>
<!-- medicare.ip.state_parent&#45;&gt;medicare.ip.state -->
<g id="edge2" class="edge">
<title>medicare.ip.state_parent&#45;&gt;medicare.ip.state</title>
<path fill="none" stroke="goldenrod" stroke-width="6" d="M214.62,-328.58C214.62,-322.09 214.62,-315.35 214.62,-308.59"/>
<polygon fill="goldenrod" stroke="goldenrod" stroke-width="6" points="219.88,-308.8 214.63,-298.8 209.38,-308.8 219.88,-308.8"/>
</g>
<!-- medicare.enrollments.state -->
<g id="node4" class="node">
<title>medicare.enrollments.state</title>
<g id="a_node4"><a xlink:href="../medicare.enrollments/state.html" xlink:title="&lt;TABLE&gt;" target="_blank">
<polygon fill="none" stroke="black" points="630.38,-279.75 446.88,-279.75 446.88,-176.75 630.38,-176.75 630.38,-279.75"/>
<text text-anchor="start" x="459.88" y="-258.45" font-family="Times,serif" font-weight="bold" font-size="14.00">medicare.enrollments.state</text>
<text text-anchor="start" x="482.88" y="-211.95" font-family="Times,serif" font-size="14.00">State Code</text>
<polygon fill="none" stroke="black" points="454.88,-180.75 454.88,-275.75 622.38,-275.75 622.38,-180.75 454.88,-180.75"/>
</a>
</g>
</g>
<!-- medicare.enrollments.state&#45;&gt;medicare.admissions.state -->
<g id="edge3" class="edge">
<title>medicare.enrollments.state&#45;&gt;medicare.admissions.state</title>
<path fill="none" stroke="darkorchid" stroke-width="2" d="M487.81,-176.28C475.37,-163.8 461.82,-150.21 448.6,-136.95"/>
<polygon fill="darkorchid" stroke="darkorchid" stroke-width="2" points="451.19,-134.59 441.65,-129.98 446.23,-139.53 451.19,-134.59"/>
<text text-anchor="middle" x="477.12" y="-140.95" font-family="Times,serif" font-size="14.00">Copied</text>
</g>
<!-- medicare._enrollments.state -->
<g id="node5" class="node">
<title>medicare._enrollments.state</title>
<g id="a_node5"><a xlink:href="../medicare._enrollments/state.html" xlink:title="&lt;TABLE&gt;" target="_blank">
<polygon fill="none" stroke="black" points="633.75,-434.5 443.5,-434.5 443.5,-331.5 633.75,-331.5 633.75,-434.5"/>
<text text-anchor="start" x="456.5" y="-413.2" font-family="Times,serif" font-weight="bold" font-size="14.00">medicare._enrollments.state</text>
<text text-anchor="start" x="479.5" y="-366.7" font-family="Times,serif" font-size="14.00">State Code</text>
<polygon fill="none" stroke="black" points="451.5,-335.5 451.5,-430.5 625.75,-430.5 625.75,-335.5 451.5,-335.5"/>
</a>
</g>
</g>
<!-- medicare._enrollments.state&#45;&gt;medicare.enrollments.state -->
<g id="edge4" class="edge">
<title>medicare._enrollments.state&#45;&gt;medicare.enrollments.state</title>
<path fill="none" stroke="black" d="M538.62,-331.14C538.62,-318.45 538.62,-304.7 538.62,-291.53"/>
<polygon fill="black" stroke="black" points="542.13,-291.67 538.63,-281.67 535.13,-291.67 542.13,-291.67"/>
<text text-anchor="middle" x="558.12" y="-305.45" font-family="Times,serif" font-size="14.00">Copied</text>
</g>
<!-- medicare._ps.state -->
<g id="node6" class="node">
<title>medicare._ps.state</title>
<g id="a_node6"><a xlink:href="../medicare._ps/state.html" xlink:title="&lt;TABLE&gt;" target="_blank">
<polygon fill="none" stroke="black" points="753.25,-601.5 324,-601.5 324,-474 753.25,-474 753.25,-601.5"/>
<text text-anchor="start" x="484.62" y="-580.2" font-family="Times,serif" font-weight="bold" font-size="14.00">medicare._ps.state</text>
<text text-anchor="start" x="360" y="-533.7" font-family="Times,serif" font-size="14.00">State Code</text>
<polygon fill="none" stroke="black" points="335,-481 335,-503.5 742.25,-503.5 742.25,-481 335,-481"/>
<text text-anchor="start" x="338" y="-487.2" font-family="Times,serif" font-size="14.00">(SELECT state_id FROM public.us_states as s WHERE s.ssa2 = &quot;state&quot;)</text>
<polygon fill="none" stroke="black" points="332,-478 332,-597.5 745.25,-597.5 745.25,-478 332,-478"/>
</a>
</g>
</g>
<!-- medicare._ps.state&#45;&gt;medicare._enrollments.state -->
<g id="edge5" class="edge">
<title>medicare._ps.state&#45;&gt;medicare._enrollments.state</title>
<path fill="none" stroke="blue" stroke-width="5" d="M538.62,-473.74C538.62,-466.23 538.62,-458.55 538.62,-450.99"/>
<polygon fill="blue" stroke="blue" stroke-width="5" points="543,-450.99 538.63,-440.99 534.25,-450.99 543,-450.99"/>
<text text-anchor="middle" x="653" y="-450.45" font-family="Times,serif" font-size="14.00">	 &#160;Aggregated On bene_id, year, state</text>
</g>
<!-- medicare.ps.state -->
<g id="node7" class="node">
<title>medicare.ps.state</title>
<g id="a_node7"><a xlink:href="../medicare.ps/state.html" xlink:title="&lt;TABLE&gt;" target="_blank">
<polygon fill="none" stroke="black" points="753.25,-766 324,-766 324,-638.5 753.25,-638.5 753.25,-766"/>
<text text-anchor="start" x="488" y="-744.7" font-family="Times,serif" font-weight="bold" font-size="14.00">medicare.ps.state</text>
<text text-anchor="start" x="360" y="-698.2" font-family="Times,serif" font-size="14.00">State Code</text>
<polygon fill="none" stroke="black" points="335,-645.5 335,-668 742.25,-668 742.25,-645.5 335,-645.5"/>
<text text-anchor="start" x="338" y="-651.7" font-family="Times,serif" font-size="14.00">(SELECT state_id FROM public.us_states as s WHERE s.ssa2 = &quot;state&quot;)</text>
<polygon fill="none" stroke="black" points="332,-642.5 332,-762 745.25,-762 745.25,-642.5 332,-642.5"/>
</a>
</g>
</g>
<!-- medicare.ps.state&#45;&gt;medicare._ps.state -->
<g id="edge6" class="edge">
<title>medicare.ps.state&#45;&gt;medicare._ps.state</title>
<path fill="none" stroke="black" d="M538.62,-638.42C538.62,-630.2 538.62,-621.7 538.62,-613.3"/>
<polygon fill="black" stroke="black" points="542.13,-613.46 538.63,-603.46 535.13,-613.46 542.13,-613.46"/>
<text text-anchor="middle" x="558.12" y="-614.95" font-family="Times,serif" font-size="14.00">Copied</text>
</g>
<!-- medicare.ps.state_parent -->
<g id="node8" class="node">
<title>medicare.ps.state_parent</title>
<g id="a_node8"><a xlink:href="../medicare.ps/state.html" xlink:title="8 incoming links (columns)" target="_blank">
<path fill="yellow" stroke="black" d="M646.62,-901.18C646.62,-906.6 598.22,-911 538.62,-911 479.03,-911 430.62,-906.6 430.62,-901.18 430.62,-901.18 430.62,-812.82 430.62,-812.82 430.62,-807.4 479.03,-803 538.62,-803 598.22,-803 646.62,-807.4 646.62,-812.82 646.62,-812.82 646.62,-901.18 646.62,-901.18"/>
<path fill="none" stroke="black" d="M646.62,-901.18C646.62,-895.76 598.22,-891.36 538.62,-891.36 479.03,-891.36 430.62,-895.76 430.62,-901.18"/>
<text text-anchor="middle" x="538.62" y="-851.95" font-family="Times,serif" font-size="14.00">8 incoming links (columns)</text>
</a>
</g>
</g>
<!-- medicare.ps.state_parent&#45;&gt;medicare.ps.state -->
<g id="edge7" class="edge">
<title>medicare.ps.state_parent&#45;&gt;medicare.ps.state</title>
<path fill="none" stroke="goldenrod" stroke-width="6" d="M538.62,-802.58C538.62,-796.09 538.62,-789.35 538.62,-782.59"/>
<polygon fill="goldenrod" stroke="goldenrod" stroke-width="6" points="543.88,-782.8 538.63,-772.8 533.38,-782.8 543.88,-782.8"/>
</g>
</g>
</svg>
