<?xml version="1.0" encoding="UTF-8" standalone="no"?>
<!DOCTYPE svg PUBLIC "-//W3C//DTD SVG 1.1//EN"
 "http://www.w3.org/Graphics/SVG/1.1/DTD/svg11.dtd">
<!-- Generated by graphviz version 10.0.1 (20240210.2158)
 -->
<!-- Pages: 1 -->
<svg width="775pt" height="814pt"
 viewBox="0.00 0.00 775.38 814.00" xmlns="http://www.w3.org/2000/svg" xmlns:xlink="http://www.w3.org/1999/xlink">
<g id="graph0" class="graph" transform="scale(1 1) rotate(0) translate(4 810)">
<polygon fill="white" stroke="none" points="-4,4 -4,-810 771.38,-810 771.38,4 -4,4"/>
<!-- medicare.qc_admissions.state -->
<g id="node1" class="node">
<title>medicare.qc_admissions.state</title>
<g id="a_node1"><a xlink:href="../medicare.qc_admissions/state.html" xlink:title="&lt;TABLE&gt;" target="_blank">
<polygon fill="none" stroke="black" points="475.88,-36 277.38,-36 277.38,0 475.88,0 475.88,-36"/>
<text text-anchor="start" x="290.38" y="-13.95" font-family="Times,serif" font-weight="bold" font-size="14.00">medicare.qc_admissions.state</text>
<polygon fill="none" stroke="black" points="285.38,-4.75 285.38,-31.25 467.88,-31.25 467.88,-4.75 285.38,-4.75"/>
</a>
</g>
</g>
<!-- medicare.qc_adm_union.state -->
<g id="node2" class="node">
<title>medicare.qc_adm_union.state</title>
<g id="a_node2"><a xlink:href="../medicare.qc_adm_union/state.html" xlink:title="&lt;TABLE&gt;" target="_blank">
<polygon fill="none" stroke="black" points="591.25,-132 162,-132 162,-73 591.25,-73 591.25,-132"/>
<text text-anchor="start" x="289.25" y="-110.7" font-family="Times,serif" font-weight="bold" font-size="14.00">medicare.qc_adm_union.state</text>
<polygon fill="none" stroke="black" points="173,-80 173,-102.5 580.25,-102.5 580.25,-80 173,-80"/>
<text text-anchor="start" x="176" y="-86.2" font-family="Times,serif" font-size="14.00">(SELECT state_id FROM public.us_states as s WHERE s.ssa2 = &quot;state&quot;)</text>
<polygon fill="none" stroke="black" points="170,-77 170,-128 583.25,-128 583.25,-77 170,-77"/>
</a>
</g>
</g>
<!-- medicare.qc_adm_union.state&#45;&gt;medicare.qc_admissions.state -->
<g id="edge1" class="edge">
<title>medicare.qc_adm_union.state&#45;&gt;medicare.qc_admissions.state</title>
<path fill="none" stroke="black" d="M376.62,-72.65C376.62,-64.62 376.62,-55.91 376.62,-47.89"/>
<polygon fill="black" stroke="black" points="380.13,-47.93 376.63,-37.93 373.13,-47.93 380.13,-47.93"/>
<text text-anchor="middle" x="415.25" y="-49.45" font-family="Times,serif" font-size="14.00"> &#160;Transformed</text>
</g>
<!-- medicare.admissions.state -->
<g id="node3" class="node">
<title>medicare.admissions.state</title>
<g id="a_node3"><a xlink:href="../medicare.admissions/state.html" xlink:title="&lt;TABLE&gt;" target="_blank">
<polygon fill="none" stroke="black" points="591.25,-228 162,-228 162,-169 591.25,-169 591.25,-228"/>
<text text-anchor="start" x="300.5" y="-206.7" font-family="Times,serif" font-weight="bold" font-size="14.00">medicare.admissions.state</text>
<polygon fill="none" stroke="black" points="173,-176 173,-198.5 580.25,-198.5 580.25,-176 173,-176"/>
<text text-anchor="start" x="176" y="-182.2" font-family="Times,serif" font-size="14.00">(SELECT state_id FROM public.us_states as s WHERE s.ssa2 = &quot;state&quot;)</text>
<polygon fill="none" stroke="black" points="170,-173 170,-224 583.25,-224 583.25,-173 170,-173"/>
</a>
</g>
</g>
<!-- medicare.admissions.state&#45;&gt;medicare.qc_adm_union.state -->
<g id="edge2" class="edge">
<title>medicare.admissions.state&#45;&gt;medicare.qc_adm_union.state</title>
<path fill="none" stroke="black" d="M376.62,-168.53C376.62,-160.68 376.62,-152.05 376.62,-143.7"/>
<polygon fill="black" stroke="black" points="380.13,-143.73 376.63,-133.73 373.13,-143.73 380.13,-143.73"/>
<text text-anchor="middle" x="396.12" y="-145.45" font-family="Times,serif" font-size="14.00">Copied</text>
</g>
<!-- medicare.ip.state -->
<g id="node4" class="node">
<title>medicare.ip.state</title>
<g id="a_node4"><a xlink:href="../medicare.ip/state.html" xlink:title="&lt;TABLE&gt;" target="_blank">
<polygon fill="none" stroke="black" points="429.25,-324 0,-324 0,-265 429.25,-265 429.25,-324"/>
<text text-anchor="start" x="164.75" y="-302.7" font-family="Times,serif" font-weight="bold" font-size="14.00">medicare.ip.state</text>
<polygon fill="none" stroke="black" points="11,-272 11,-294.5 418.25,-294.5 418.25,-272 11,-272"/>
<text text-anchor="start" x="14" y="-278.2" font-family="Times,serif" font-size="14.00">(SELECT state_id FROM public.us_states as s WHERE s.ssa2 = &quot;state&quot;)</text>
<polygon fill="none" stroke="black" points="8,-269 8,-320 421.25,-320 421.25,-269 8,-269"/>
</a>
</g>
</g>
<!-- medicare.ip.state&#45;&gt;medicare.admissions.state -->
<g id="edge3" class="edge">
<title>medicare.ip.state&#45;&gt;medicare.admissions.state</title>
<path fill="none" stroke="black" d="M264.55,-264.53C281.11,-254.92 299.7,-244.14 316.91,-234.15"/>
<polygon fill="black" stroke="black" points="318.66,-237.18 325.55,-229.13 315.15,-231.13 318.66,-237.18"/>
<text text-anchor="middle" x="315.12" y="-241.45" font-family="Times,serif" font-size="14.00">Copied</text>
</g>
<!-- medicare.ip.state_parent -->
<g id="node5" class="node">
<title>medicare.ip.state_parent</title>
<g id="a_node5"><a xlink:href="../medicare.ip/state.html" xlink:title="8 incoming links (columns)" target="_blank">
<path fill="yellow" stroke="black" d="M322.62,-459.18C322.62,-464.6 274.22,-469 214.62,-469 155.03,-469 106.62,-464.6 106.62,-459.18 106.62,-459.18 106.62,-370.82 106.62,-370.82 106.62,-365.4 155.03,-361 214.62,-361 274.22,-361 322.62,-365.4 322.62,-370.82 322.62,-370.82 322.62,-459.18 322.62,-459.18"/>
<path fill="none" stroke="black" d="M322.62,-459.18C322.62,-453.76 274.22,-449.36 214.62,-449.36 155.03,-449.36 106.62,-453.76 106.62,-459.18"/>
<text text-anchor="middle" x="214.62" y="-409.95" font-family="Times,serif" font-size="14.00">8 incoming links (columns)</text>
</a>
</g>
</g>
<!-- medicare.ip.state_parent&#45;&gt;medicare.ip.state -->
<g id="edge4" class="edge">
<title>medicare.ip.state_parent&#45;&gt;medicare.ip.state</title>
<path fill="none" stroke="goldenrod" stroke-width="6" d="M214.62,-360.64C214.62,-353.89 214.62,-347.03 214.62,-340.42"/>
<polygon fill="goldenrod" stroke="goldenrod" stroke-width="6" points="219.88,-340.71 214.63,-330.71 209.38,-340.71 219.88,-340.71"/>
</g>
<!-- medicare.enrollments.state -->
<g id="node6" class="node">
<title>medicare.enrollments.state</title>
<g id="a_node6"><a xlink:href="../medicare.enrollments/state.html" xlink:title="&lt;TABLE&gt;" target="_blank">
<polygon fill="none" stroke="black" points="630.38,-312.5 446.88,-312.5 446.88,-276.5 630.38,-276.5 630.38,-312.5"/>
<text text-anchor="start" x="459.88" y="-290.45" font-family="Times,serif" font-weight="bold" font-size="14.00">medicare.enrollments.state</text>
<polygon fill="none" stroke="black" points="454.88,-281.25 454.88,-307.75 622.38,-307.75 622.38,-281.25 454.88,-281.25"/>
</a>
</g>
</g>
<!-- medicare.enrollments.state&#45;&gt;medicare.admissions.state -->
<g id="edge5" class="edge">
<title>medicare.enrollments.state&#45;&gt;medicare.admissions.state</title>
<path fill="none" stroke="darkorchid" stroke-width="2" d="M508.53,-276.04C488.54,-264.44 461.58,-248.8 437.25,-234.68"/>
<polygon fill="darkorchid" stroke="darkorchid" stroke-width="2" points="439.31,-231.83 428.9,-229.84 435.8,-237.88 439.31,-231.83"/>
<text text-anchor="middle" x="477.12" y="-241.45" font-family="Times,serif" font-size="14.00">Copied</text>
</g>
<!-- medicare._enrollments.state -->
<g id="node7" class="node">
<title>medicare._enrollments.state</title>
<g id="a_node7"><a xlink:href="../medicare._enrollments/state.html" xlink:title="&lt;TABLE&gt;" target="_blank">
<polygon fill="none" stroke="black" points="633.75,-433 443.5,-433 443.5,-397 633.75,-397 633.75,-433"/>
<text text-anchor="start" x="456.5" y="-410.95" font-family="Times,serif" font-weight="bold" font-size="14.00">medicare._enrollments.state</text>
<polygon fill="none" stroke="black" points="451.5,-401.75 451.5,-428.25 625.75,-428.25 625.75,-401.75 451.5,-401.75"/>
</a>
</g>
</g>
<!-- medicare._enrollments.state&#45;&gt;medicare.enrollments.state -->
<g id="edge6" class="edge">
<title>medicare._enrollments.state&#45;&gt;medicare.enrollments.state</title>
<path fill="none" stroke="black" d="M538.62,-396.51C538.62,-377.41 538.62,-346.53 538.62,-323.94"/>
<polygon fill="black" stroke="black" points="542.13,-324.19 538.63,-314.19 535.13,-324.19 542.13,-324.19"/>
<text text-anchor="middle" x="558.12" y="-337.45" font-family="Times,serif" font-size="14.00">Copied</text>
</g>
<!-- medicare._ps.state -->
<g id="node8" class="node">
<title>medicare._ps.state</title>
<g id="a_node8"><a xlink:href="../medicare._ps/state.html" xlink:title="&lt;TABLE&gt;" target="_blank">
<polygon fill="none" stroke="black" points="753.25,-565 324,-565 324,-506 753.25,-506 753.25,-565"/>
<text text-anchor="start" x="484.62" y="-543.7" font-family="Times,serif" font-weight="bold" font-size="14.00">medicare._ps.state</text>
<polygon fill="none" stroke="black" points="335,-513 335,-535.5 742.25,-535.5 742.25,-513 335,-513"/>
<text text-anchor="start" x="338" y="-519.2" font-family="Times,serif" font-size="14.00">(SELECT state_id FROM public.us_states as s WHERE s.ssa2 = &quot;state&quot;)</text>
<polygon fill="none" stroke="black" points="332,-510 332,-561 745.25,-561 745.25,-510 332,-510"/>
</a>
</g>
</g>
<!-- medicare._ps.state&#45;&gt;medicare._enrollments.state -->
<g id="edge7" class="edge">
<title>medicare._ps.state&#45;&gt;medicare._enrollments.state</title>
<path fill="none" stroke="blue" stroke-width="5" d="M538.62,-505.51C538.62,-488.55 538.62,-467.07 538.62,-449.41"/>
<polygon fill="blue" stroke="blue" stroke-width="5" points="543,-449.56 538.63,-439.56 534.25,-449.56 543,-449.56"/>
<text text-anchor="middle" x="653" y="-482.45" font-family="Times,serif" font-size="14.00">	 &#160;Aggregated On bene_id, year, state</text>
</g>
<!-- medicare.ps.state -->
<g id="node9" class="node">
<title>medicare.ps.state</title>
<g id="a_node9"><a xlink:href="../medicare.ps/state.html" xlink:title="&lt;TABLE&gt;" target="_blank">
<polygon fill="none" stroke="black" points="753.25,-661 324,-661 324,-602 753.25,-602 753.25,-661"/>
<text text-anchor="start" x="488" y="-639.7" font-family="Times,serif" font-weight="bold" font-size="14.00">medicare.ps.state</text>
<polygon fill="none" stroke="black" points="335,-609 335,-631.5 742.25,-631.5 742.25,-609 335,-609"/>
<text text-anchor="start" x="338" y="-615.2" font-family="Times,serif" font-size="14.00">(SELECT state_id FROM public.us_states as s WHERE s.ssa2 = &quot;state&quot;)</text>
<polygon fill="none" stroke="black" points="332,-606 332,-657 745.25,-657 745.25,-606 332,-606"/>
</a>
</g>
</g>
<!-- medicare.ps.state&#45;&gt;medicare._ps.state -->
<g id="edge8" class="edge">
<title>medicare.ps.state&#45;&gt;medicare._ps.state</title>
<path fill="none" stroke="black" d="M538.62,-601.53C538.62,-593.68 538.62,-585.05 538.62,-576.7"/>
<polygon fill="black" stroke="black" points="542.13,-576.73 538.63,-566.73 535.13,-576.73 542.13,-576.73"/>
<text text-anchor="middle" x="558.12" y="-578.45" font-family="Times,serif" font-size="14.00">Copied</text>
</g>
<!-- medicare.ps.state_parent -->
<g id="node10" class="node">
<title>medicare.ps.state_parent</title>
<g id="a_node10"><a xlink:href="../medicare.ps/state.html" xlink:title="8 incoming links (columns)" target="_blank">
<path fill="yellow" stroke="black" d="M646.62,-796.18C646.62,-801.6 598.22,-806 538.62,-806 479.03,-806 430.62,-801.6 430.62,-796.18 430.62,-796.18 430.62,-707.82 430.62,-707.82 430.62,-702.4 479.03,-698 538.62,-698 598.22,-698 646.62,-702.4 646.62,-707.82 646.62,-707.82 646.62,-796.18 646.62,-796.18"/>
<path fill="none" stroke="black" d="M646.62,-796.18C646.62,-790.76 598.22,-786.36 538.62,-786.36 479.03,-786.36 430.62,-790.76 430.62,-796.18"/>
<text text-anchor="middle" x="538.62" y="-746.95" font-family="Times,serif" font-size="14.00">8 incoming links (columns)</text>
</a>
</g>
</g>
<!-- medicare.ps.state_parent&#45;&gt;medicare.ps.state -->
<g id="edge9" class="edge">
<title>medicare.ps.state_parent&#45;&gt;medicare.ps.state</title>
<path fill="none" stroke="goldenrod" stroke-width="6" d="M538.62,-697.64C538.62,-690.89 538.62,-684.03 538.62,-677.42"/>
<polygon fill="goldenrod" stroke="goldenrod" stroke-width="6" points="543.88,-677.71 538.63,-667.71 533.38,-677.71 543.88,-677.71"/>
</g>
</g>
</svg>
