<?xml version="1.0" encoding="UTF-8" standalone="no"?>
<!DOCTYPE svg PUBLIC "-//W3C//DTD SVG 1.1//EN"
 "http://www.w3.org/Graphics/SVG/1.1/DTD/svg11.dtd">
<!-- Generated by graphviz version 10.0.1 (20240210.2158)
 -->
<!-- Pages: 1 -->
<svg width="451pt" height="865pt"
 viewBox="0.00 0.00 451.38 865.00" xmlns="http://www.w3.org/2000/svg" xmlns:xlink="http://www.w3.org/1999/xlink">
<g id="graph0" class="graph" transform="scale(1 1) rotate(0) translate(4 861)">
<polygon fill="white" stroke="none" points="-4,4 -4,-861 447.38,-861 447.38,4 -4,4"/>
<!-- medicare.qc_enrl_bene.state -->
<g id="node1" class="node">
<title>medicare.qc_enrl_bene.state</title>
<g id="a_node1"><a xlink:href="../medicare.qc_enrl_bene/state.html" xlink:title="&lt;TABLE&gt;" target="_blank">
<polygon fill="none" stroke="black" points="310.5,-103 118.75,-103 118.75,0 310.5,0 310.5,-103"/>
<text text-anchor="start" x="131.75" y="-81.7" font-family="Times,serif" font-weight="bold" font-size="14.00">medicare.qc_enrl_bene.state</text>
<text text-anchor="start" x="154.75" y="-35.2" font-family="Times,serif" font-size="14.00">State Code</text>
<polygon fill="none" stroke="black" points="126.75,-4 126.75,-99 302.5,-99 302.5,-4 126.75,-4"/>
</a>
</g>
</g>
<!-- medicare.enrollments.state -->
<g id="node2" class="node">
<title>medicare.enrollments.state</title>
<g id="a_node2"><a xlink:href="../medicare.enrollments/state.html" xlink:title="&lt;TABLE&gt;" target="_blank">
<polygon fill="none" stroke="black" points="306.38,-243 122.88,-243 122.88,-140 306.38,-140 306.38,-243"/>
<text text-anchor="start" x="135.88" y="-221.7" font-family="Times,serif" font-weight="bold" font-size="14.00">medicare.enrollments.state</text>
<text text-anchor="start" x="158.88" y="-175.2" font-family="Times,serif" font-size="14.00">State Code</text>
<polygon fill="none" stroke="black" points="130.88,-144 130.88,-239 298.38,-239 298.38,-144 130.88,-144"/>
</a>
</g>
</g>
<!-- medicare.enrollments.state&#45;&gt;medicare.qc_enrl_bene.state -->
<g id="edge1" class="edge">
<title>medicare.enrollments.state&#45;&gt;medicare.qc_enrl_bene.state</title>
<path fill="none" stroke="black" d="M214.62,-139.51C214.62,-131.38 214.62,-122.89 214.62,-114.54"/>
<polygon fill="black" stroke="black" points="218.13,-114.8 214.63,-104.8 211.13,-114.8 218.13,-114.8"/>
<text text-anchor="middle" x="260.75" y="-116.45" font-family="Times,serif" font-size="14.00">	join natural</text>
</g>
<!-- medicare._enrollments.state -->
<g id="node3" class="node">
<title>medicare._enrollments.state</title>
<g id="a_node3"><a xlink:href="../medicare._enrollments/state.html" xlink:title="&lt;TABLE&gt;" target="_blank">
<polygon fill="none" stroke="black" points="309.75,-383 119.5,-383 119.5,-280 309.75,-280 309.75,-383"/>
<text text-anchor="start" x="132.5" y="-361.7" font-family="Times,serif" font-weight="bold" font-size="14.00">medicare._enrollments.state</text>
<text text-anchor="start" x="155.5" y="-315.2" font-family="Times,serif" font-size="14.00">State Code</text>
<polygon fill="none" stroke="black" points="127.5,-284 127.5,-379 301.75,-379 301.75,-284 127.5,-284"/>
</a>
</g>
</g>
<!-- medicare._enrollments.state&#45;&gt;medicare.enrollments.state -->
<g id="edge2" class="edge">
<title>medicare._enrollments.state&#45;&gt;medicare.enrollments.state</title>
<path fill="none" stroke="black" d="M214.62,-279.51C214.62,-271.38 214.62,-262.89 214.62,-254.54"/>
<polygon fill="black" stroke="black" points="218.13,-254.8 214.63,-244.8 211.13,-254.8 218.13,-254.8"/>
<text text-anchor="middle" x="234.12" y="-256.45" font-family="Times,serif" font-size="14.00">Copied</text>
</g>
<!-- medicare._ps.state -->
<g id="node4" class="node">
<title>medicare._ps.state</title>
<g id="a_node4"><a xlink:href="../medicare._ps/state.html" xlink:title="&lt;TABLE&gt;" target="_blank">
<polygon fill="none" stroke="black" points="429.25,-547.5 0,-547.5 0,-420 429.25,-420 429.25,-547.5"/>
<text text-anchor="start" x="160.62" y="-526.2" font-family="Times,serif" font-weight="bold" font-size="14.00">medicare._ps.state</text>
<text text-anchor="start" x="36" y="-479.7" font-family="Times,serif" font-size="14.00">State Code</text>
<polygon fill="none" stroke="black" points="11,-427 11,-449.5 418.25,-449.5 418.25,-427 11,-427"/>
<text text-anchor="start" x="14" y="-433.2" font-family="Times,serif" font-size="14.00">(SELECT state_id FROM public.us_states as s WHERE s.ssa2 = &quot;state&quot;)</text>
<polygon fill="none" stroke="black" points="8,-424 8,-543.5 421.25,-543.5 421.25,-424 8,-424"/>
</a>
</g>
</g>
<!-- medicare._ps.state&#45;&gt;medicare._enrollments.state -->
<g id="edge3" class="edge">
<title>medicare._ps.state&#45;&gt;medicare._enrollments.state</title>
<path fill="none" stroke="blue" stroke-width="5" d="M214.62,-419.9C214.62,-413.12 214.62,-406.2 214.62,-399.38"/>
<polygon fill="blue" stroke="blue" stroke-width="5" points="219,-399.47 214.63,-389.47 210.25,-399.47 219,-399.47"/>
<text text-anchor="middle" x="329" y="-396.45" font-family="Times,serif" font-size="14.00">	 &#160;Aggregated On bene_id, year, state</text>
</g>
<!-- medicare.ps.state -->
<g id="node5" class="node">
<title>medicare.ps.state</title>
<g id="a_node5"><a xlink:href="../medicare.ps/state.html" xlink:title="&lt;TABLE&gt;" target="_blank">
<polygon fill="none" stroke="black" points="429.25,-712 0,-712 0,-584.5 429.25,-584.5 429.25,-712"/>
<text text-anchor="start" x="164" y="-690.7" font-family="Times,serif" font-weight="bold" font-size="14.00">medicare.ps.state</text>
<text text-anchor="start" x="36" y="-644.2" font-family="Times,serif" font-size="14.00">State Code</text>
<polygon fill="none" stroke="black" points="11,-591.5 11,-614 418.25,-614 418.25,-591.5 11,-591.5"/>
<text text-anchor="start" x="14" y="-597.7" font-family="Times,serif" font-size="14.00">(SELECT state_id FROM public.us_states as s WHERE s.ssa2 = &quot;state&quot;)</text>
<polygon fill="none" stroke="black" points="8,-588.5 8,-708 421.25,-708 421.25,-588.5 8,-588.5"/>
</a>
</g>
</g>
<!-- medicare.ps.state&#45;&gt;medicare._ps.state -->
<g id="edge4" class="edge">
<title>medicare.ps.state&#45;&gt;medicare._ps.state</title>
<path fill="none" stroke="black" d="M214.62,-584.42C214.62,-576.2 214.62,-567.7 214.62,-559.3"/>
<polygon fill="black" stroke="black" points="218.13,-559.46 214.63,-549.46 211.13,-559.46 218.13,-559.46"/>
<text text-anchor="middle" x="234.12" y="-560.95" font-family="Times,serif" font-size="14.00">Copied</text>
</g>
<!-- medicare.ps.state_parent -->
<g id="node6" class="node">
<title>medicare.ps.state_parent</title>
<g id="a_node6"><a xlink:href="../medicare.ps/state.html" xlink:title="8 incoming links (columns)" target="_blank">
<path fill="yellow" stroke="black" d="M322.62,-847.18C322.62,-852.6 274.22,-857 214.62,-857 155.03,-857 106.62,-852.6 106.62,-847.18 106.62,-847.18 106.62,-758.82 106.62,-758.82 106.62,-753.4 155.03,-749 214.62,-749 274.22,-749 322.62,-753.4 322.62,-758.82 322.62,-758.82 322.62,-847.18 322.62,-847.18"/>
<path fill="none" stroke="black" d="M322.62,-847.18C322.62,-841.76 274.22,-837.36 214.62,-837.36 155.03,-837.36 106.62,-841.76 106.62,-847.18"/>
<text text-anchor="middle" x="214.62" y="-797.95" font-family="Times,serif" font-size="14.00">8 incoming links (columns)</text>
</a>
</g>
</g>
<!-- medicare.ps.state_parent&#45;&gt;medicare.ps.state -->
<g id="edge5" class="edge">
<title>medicare.ps.state_parent&#45;&gt;medicare.ps.state</title>
<path fill="none" stroke="goldenrod" stroke-width="6" d="M214.62,-748.58C214.62,-742.09 214.62,-735.35 214.62,-728.59"/>
<polygon fill="goldenrod" stroke="goldenrod" stroke-width="6" points="219.88,-728.8 214.63,-718.8 209.38,-728.8 219.88,-728.8"/>
</g>
</g>
</svg>
