<?xml version="1.0" encoding="UTF-8" standalone="no"?>
<!DOCTYPE svg PUBLIC "-//W3C//DTD SVG 1.1//EN"
 "http://www.w3.org/Graphics/SVG/1.1/DTD/svg11.dtd">
<!-- Generated by graphviz version 10.0.1 (20240210.2158)
 -->
<!-- Pages: 1 -->
<svg width="451pt" height="381pt"
 viewBox="0.00 0.00 451.38 381.00" xmlns="http://www.w3.org/2000/svg" xmlns:xlink="http://www.w3.org/1999/xlink">
<g id="graph0" class="graph" transform="scale(1 1) rotate(0) translate(4 377)">
<polygon fill="white" stroke="none" points="-4,4 -4,-377 447.38,-377 447.38,4 -4,4"/>
<!-- medicare._enrollments.state -->
<g id="node1" class="node">
<title>medicare._enrollments.state</title>
<g id="a_node1"><a xlink:href="../medicare._enrollments/state.html" xlink:title="&lt;TABLE&gt;" target="_blank">
<polygon fill="none" stroke="black" points="309.75,-36 119.5,-36 119.5,0 309.75,0 309.75,-36"/>
<text text-anchor="start" x="132.5" y="-13.95" font-family="Times,serif" font-weight="bold" font-size="14.00">medicare._enrollments.state</text>
<polygon fill="none" stroke="black" points="127.5,-4.75 127.5,-31.25 301.75,-31.25 301.75,-4.75 127.5,-4.75"/>
</a>
</g>
</g>
<!-- medicare._ps.state -->
<g id="node2" class="node">
<title>medicare._ps.state</title>
<g id="a_node2"><a xlink:href="../medicare._ps/state.html" xlink:title="&lt;TABLE&gt;" target="_blank">
<polygon fill="none" stroke="black" points="429.25,-132 0,-132 0,-73 429.25,-73 429.25,-132"/>
<text text-anchor="start" x="160.62" y="-110.7" font-family="Times,serif" font-weight="bold" font-size="14.00">medicare._ps.state</text>
<polygon fill="none" stroke="black" points="11,-80 11,-102.5 418.25,-102.5 418.25,-80 11,-80"/>
<text text-anchor="start" x="14" y="-86.2" font-family="Times,serif" font-size="14.00">(SELECT state_id FROM public.us_states as s WHERE s.ssa2 = &quot;state&quot;)</text>
<polygon fill="none" stroke="black" points="8,-77 8,-128 421.25,-128 421.25,-77 8,-77"/>
</a>
</g>
</g>
<!-- medicare._ps.state&#45;&gt;medicare._enrollments.state -->
<g id="edge1" class="edge">
<title>medicare._ps.state&#45;&gt;medicare._enrollments.state</title>
<path fill="none" stroke="blue" stroke-width="5" d="M214.62,-72.65C214.62,-66.13 214.62,-59.17 214.62,-52.48"/>
<polygon fill="blue" stroke="blue" stroke-width="5" points="219,-52.65 214.63,-42.65 210.25,-52.65 219,-52.65"/>
<text text-anchor="middle" x="329" y="-49.45" font-family="Times,serif" font-size="14.00">	 &#160;Aggregated On bene_id, year, state</text>
</g>
<!-- medicare.ps.state -->
<g id="node3" class="node">
<title>medicare.ps.state</title>
<g id="a_node3"><a xlink:href="../medicare.ps/state.html" xlink:title="&lt;TABLE&gt;" target="_blank">
<polygon fill="none" stroke="black" points="429.25,-228 0,-228 0,-169 429.25,-169 429.25,-228"/>
<text text-anchor="start" x="164" y="-206.7" font-family="Times,serif" font-weight="bold" font-size="14.00">medicare.ps.state</text>
<polygon fill="none" stroke="black" points="11,-176 11,-198.5 418.25,-198.5 418.25,-176 11,-176"/>
<text text-anchor="start" x="14" y="-182.2" font-family="Times,serif" font-size="14.00">(SELECT state_id FROM public.us_states as s WHERE s.ssa2 = &quot;state&quot;)</text>
<polygon fill="none" stroke="black" points="8,-173 8,-224 421.25,-224 421.25,-173 8,-173"/>
</a>
</g>
</g>
<!-- medicare.ps.state&#45;&gt;medicare._ps.state -->
<g id="edge2" class="edge">
<title>medicare.ps.state&#45;&gt;medicare._ps.state</title>
<path fill="none" stroke="black" d="M214.62,-168.53C214.62,-160.68 214.62,-152.05 214.62,-143.7"/>
<polygon fill="black" stroke="black" points="218.13,-143.73 214.63,-133.73 211.13,-143.73 218.13,-143.73"/>
<text text-anchor="middle" x="234.12" y="-145.45" font-family="Times,serif" font-size="14.00">Copied</text>
</g>
<!-- medicare.ps.state_parent -->
<g id="node4" class="node">
<title>medicare.ps.state_parent</title>
<g id="a_node4"><a xlink:href="../medicare.ps/state.html" xlink:title="8 incoming links (columns)" target="_blank">
<path fill="yellow" stroke="black" d="M322.62,-363.18C322.62,-368.6 274.22,-373 214.62,-373 155.03,-373 106.62,-368.6 106.62,-363.18 106.62,-363.18 106.62,-274.82 106.62,-274.82 106.62,-269.4 155.03,-265 214.62,-265 274.22,-265 322.62,-269.4 322.62,-274.82 322.62,-274.82 322.62,-363.18 322.62,-363.18"/>
<path fill="none" stroke="black" d="M322.62,-363.18C322.62,-357.76 274.22,-353.36 214.62,-353.36 155.03,-353.36 106.62,-357.76 106.62,-363.18"/>
<text text-anchor="middle" x="214.62" y="-313.95" font-family="Times,serif" font-size="14.00">8 incoming links (columns)</text>
</a>
</g>
</g>
<!-- medicare.ps.state_parent&#45;&gt;medicare.ps.state -->
<g id="edge3" class="edge">
<title>medicare.ps.state_parent&#45;&gt;medicare.ps.state</title>
<path fill="none" stroke="goldenrod" stroke-width="6" d="M214.62,-264.64C214.62,-257.89 214.62,-251.03 214.62,-244.42"/>
<polygon fill="goldenrod" stroke="goldenrod" stroke-width="6" points="219.88,-244.71 214.63,-234.71 209.38,-244.71 219.88,-244.71"/>
</g>
</g>
</svg>
