<?xml version="1.0" encoding="UTF-8" standalone="no"?>
<!DOCTYPE svg PUBLIC "-//W3C//DTD SVG 1.1//EN"
 "http://www.w3.org/Graphics/SVG/1.1/DTD/svg11.dtd">
<!-- Generated by graphviz version 10.0.1 (20240210.2158)
 -->
<!-- Pages: 1 -->
<svg width="2097pt" height="465pt"
 viewBox="0.00 0.00 2096.50 464.50" xmlns="http://www.w3.org/2000/svg" xmlns:xlink="http://www.w3.org/1999/xlink">
<g id="graph0" class="graph" transform="scale(1 1) rotate(0) translate(4 460.5)">
<polygon fill="white" stroke="none" points="-4,4 -4,-460.5 2092.5,-460.5 2092.5,4 -4,4"/>
<!-- medicare.ps.state -->
<g id="node1" class="node">
<title>medicare.ps.state</title>
<g id="a_node1"><a xlink:href="../medicare.ps/state.html" xlink:title="&lt;TABLE&gt;" target="_blank">
<polygon fill="none" stroke="black" points="1065.88,-127.5 636.62,-127.5 636.62,0 1065.88,0 1065.88,-127.5"/>
<text text-anchor="start" x="800.62" y="-106.2" font-family="Times,serif" font-weight="bold" font-size="14.00">medicare.ps.state</text>
<text text-anchor="start" x="672.62" y="-59.7" font-family="Times,serif" font-size="14.00">State Code</text>
<polygon fill="none" stroke="black" points="647.62,-7 647.62,-29.5 1054.88,-29.5 1054.88,-7 647.62,-7"/>
<text text-anchor="start" x="650.62" y="-13.2" font-family="Times,serif" font-size="14.00">(SELECT state_id FROM public.us_states as s WHERE s.ssa2 = &quot;state&quot;)</text>
<polygon fill="none" stroke="black" points="644.62,-4 644.62,-123.5 1057.88,-123.5 1057.88,-4 644.62,-4"/>
</a>
</g>
</g>
<!-- cms.mbsf_ab_2011.STATE -->
<g id="node2" class="node">
<title>cms.mbsf_ab_2011.STATE</title>
<g id="a_node2"><a xlink:href="../cms.mbsf_ab_2011/STATE.html" xlink:title="&lt;TABLE&gt;" target="_blank">
<polygon fill="none" stroke="black" points="320.5,-456.5 0,-456.5 0,-329 320.5,-329 320.5,-456.5"/>
<text text-anchor="start" x="81.88" y="-435.2" font-family="Times,serif" font-weight="bold" font-size="14.00">cms.mbsf_ab_2011.STATE</text>
<text text-anchor="start" x="36" y="-388.7" font-family="Times,serif" font-size="14.00">State Code</text>
<polygon fill="none" stroke="black" points="11,-336 11,-358.5 309.5,-358.5 309.5,-336 11,-336"/>
<text text-anchor="start" x="14" y="-342.2" font-family="Times,serif" font-size="14.00">GENERATED ALWAYS AS (STATE_CD) STORED</text>
<polygon fill="none" stroke="black" points="8,-333 8,-452.5 312.5,-452.5 312.5,-333 8,-333"/>
</a>
</g>
</g>
<!-- cms.mbsf_ab_2011.STATE&#45;&gt;medicare.ps.state -->
<g id="edge5" class="edge">
<title>cms.mbsf_ab_2011.STATE&#45;&gt;medicare.ps.state</title>
<path fill="none" stroke="chocolate" stroke-width="2" d="M236.67,-328.58C299.23,-279.11 391.59,-211.1 480.25,-164.5 502.03,-153.05 508.74,-152.75 532.25,-145.5 561.77,-136.4 593.05,-127.54 624.03,-119.22"/>
<polygon fill="chocolate" stroke="chocolate" stroke-width="2" points="624.66,-122.68 633.42,-116.72 622.86,-115.91 624.66,-122.68"/>
<text text-anchor="middle" x="495.62" y="-223.2" font-family="Times,serif" font-size="14.00">union</text>
</g>
<!-- cms.mbsf_ab_2012.STATE -->
<g id="node3" class="node">
<title>cms.mbsf_ab_2012.STATE</title>
<g id="a_node3"><a xlink:href="../cms.mbsf_ab_2012/STATE.html" xlink:title="&lt;TABLE&gt;" target="_blank">
<polygon fill="none" stroke="black" points="659.5,-456.5 339,-456.5 339,-329 659.5,-329 659.5,-456.5"/>
<text text-anchor="start" x="420.5" y="-435.2" font-family="Times,serif" font-weight="bold" font-size="14.00">cms.mbsf_ab_2012.STATE</text>
<text text-anchor="start" x="375" y="-388.7" font-family="Times,serif" font-size="14.00">State Code</text>
<polygon fill="none" stroke="black" points="350,-336 350,-358.5 648.5,-358.5 648.5,-336 350,-336"/>
<text text-anchor="start" x="353" y="-342.2" font-family="Times,serif" font-size="14.00">GENERATED ALWAYS AS (STATE_CD) STORED</text>
<polygon fill="none" stroke="black" points="347,-333 347,-452.5 651.5,-452.5 651.5,-333 347,-333"/>
</a>
</g>
</g>
<!-- cms.mbsf_ab_2012.STATE&#45;&gt;medicare.ps.state -->
<g id="edge6" class="edge">
<title>cms.mbsf_ab_2012.STATE&#45;&gt;medicare.ps.state</title>
<path fill="none" stroke="chocolate" stroke-width="2" d="M487.36,-328.69C481.69,-279.6 482.15,-212.05 515.25,-164.5 530.26,-142.94 573.35,-124.58 623.88,-109.71"/>
<polygon fill="chocolate" stroke="chocolate" stroke-width="2" points="624.61,-113.15 633.26,-107.03 622.68,-106.42 624.61,-113.15"/>
<text text-anchor="middle" x="530.62" y="-223.2" font-family="Times,serif" font-size="14.00">union</text>
</g>
<!-- cms.mbsf_ab_2013.STATE -->
<g id="node4" class="node">
<title>cms.mbsf_ab_2013.STATE</title>
<g id="a_node4"><a xlink:href="../cms.mbsf_ab_2013/STATE.html" xlink:title="&lt;TABLE&gt;" target="_blank">
<polygon fill="none" stroke="black" points="1214.5,-456.5 894,-456.5 894,-329 1214.5,-329 1214.5,-456.5"/>
<text text-anchor="start" x="975.5" y="-435.2" font-family="Times,serif" font-weight="bold" font-size="14.00">cms.mbsf_ab_2013.STATE</text>
<text text-anchor="start" x="930" y="-388.7" font-family="Times,serif" font-size="14.00">State Code</text>
<polygon fill="none" stroke="black" points="905,-336 905,-358.5 1203.5,-358.5 1203.5,-336 905,-336"/>
<text text-anchor="start" x="908" y="-342.2" font-family="Times,serif" font-size="14.00">GENERATED ALWAYS AS (STATE_CD) STORED</text>
<polygon fill="none" stroke="black" points="902,-333 902,-452.5 1206.5,-452.5 1206.5,-333 902,-333"/>
</a>
</g>
</g>
<!-- cms.mbsf_ab_2013.STATE&#45;&gt;medicare.ps.state -->
<g id="edge7" class="edge">
<title>cms.mbsf_ab_2013.STATE&#45;&gt;medicare.ps.state</title>
<path fill="none" stroke="chocolate" stroke-width="2" d="M893.58,-365.3C748.7,-340.68 556.58,-305.76 545.25,-292 509.24,-248.25 511.96,-210.36 545.25,-164.5 565.42,-136.71 593.54,-116.51 624.63,-101.87"/>
<polygon fill="chocolate" stroke="chocolate" stroke-width="2" points="625.73,-105.21 633.44,-97.95 622.88,-98.81 625.73,-105.21"/>
<text text-anchor="middle" x="560.62" y="-223.2" font-family="Times,serif" font-size="14.00">union</text>
</g>
<!-- cms.mbsf_abcd_2015.STATE -->
<g id="node6" class="node">
<title>cms.mbsf_abcd_2015.STATE</title>
<g id="a_node6"><a xlink:href="../cms.mbsf_abcd_2015/STATE.html" xlink:title="&lt;TABLE&gt;" target="_blank">
<polygon fill="none" stroke="black" points="875.5,-292 555,-292 555,-164.5 875.5,-164.5 875.5,-292"/>
<text text-anchor="start" x="629.75" y="-270.7" font-family="Times,serif" font-weight="bold" font-size="14.00">cms.mbsf_abcd_2015.STATE</text>
<text text-anchor="start" x="591" y="-224.2" font-family="Times,serif" font-size="14.00">SSA State Code</text>
<polygon fill="none" stroke="black" points="566,-171.5 566,-194 864.5,-194 864.5,-171.5 566,-171.5"/>
<text text-anchor="start" x="569" y="-177.7" font-family="Times,serif" font-size="14.00">GENERATED ALWAYS AS (STATE_CD) STORED</text>
<polygon fill="none" stroke="black" points="563,-168.5 563,-288 867.5,-288 867.5,-168.5 563,-168.5"/>
</a>
</g>
</g>
<!-- cms.mbsf_ab_2013.STATE&#45;&gt;cms.mbsf_abcd_2015.STATE -->
<!-- cms.mbsf_abcd_2016.STATE -->
<g id="node7" class="node">
<title>cms.mbsf_abcd_2016.STATE</title>
<g id="a_node7"><a xlink:href="../cms.mbsf_abcd_2016/STATE.html" xlink:title="&lt;TABLE&gt;" target="_blank">
<polygon fill="none" stroke="black" points="1214.5,-292 894,-292 894,-164.5 1214.5,-164.5 1214.5,-292"/>
<text text-anchor="start" x="968.75" y="-270.7" font-family="Times,serif" font-weight="bold" font-size="14.00">cms.mbsf_abcd_2016.STATE</text>
<text text-anchor="start" x="930" y="-224.2" font-family="Times,serif" font-size="14.00">SSA State Code</text>
<polygon fill="none" stroke="black" points="905,-171.5 905,-194 1203.5,-194 1203.5,-171.5 905,-171.5"/>
<text text-anchor="start" x="908" y="-177.7" font-family="Times,serif" font-size="14.00">GENERATED ALWAYS AS (STATE_CD) STORED</text>
<polygon fill="none" stroke="black" points="902,-168.5 902,-288 1206.5,-288 1206.5,-168.5 902,-168.5"/>
</a>
</g>
</g>
<!-- cms.mbsf_ab_2013.STATE&#45;&gt;cms.mbsf_abcd_2016.STATE -->
<!-- cms.mbsf_abcd_2017.STATE -->
<g id="node8" class="node">
<title>cms.mbsf_abcd_2017.STATE</title>
<g id="a_node8"><a xlink:href="../cms.mbsf_abcd_2017/STATE.html" xlink:title="&lt;TABLE&gt;" target="_blank">
<polygon fill="none" stroke="black" points="1553.5,-292 1233,-292 1233,-164.5 1553.5,-164.5 1553.5,-292"/>
<text text-anchor="start" x="1307.75" y="-270.7" font-family="Times,serif" font-weight="bold" font-size="14.00">cms.mbsf_abcd_2017.STATE</text>
<text text-anchor="start" x="1269" y="-224.2" font-family="Times,serif" font-size="14.00">SSA State Code</text>
<polygon fill="none" stroke="black" points="1244,-171.5 1244,-194 1542.5,-194 1542.5,-171.5 1244,-171.5"/>
<text text-anchor="start" x="1247" y="-177.7" font-family="Times,serif" font-size="14.00">GENERATED ALWAYS AS (STATE_CD) STORED</text>
<polygon fill="none" stroke="black" points="1241,-168.5 1241,-288 1545.5,-288 1545.5,-168.5 1241,-168.5"/>
</a>
</g>
</g>
<!-- cms.mbsf_ab_2013.STATE&#45;&gt;cms.mbsf_abcd_2017.STATE -->
<!-- cms.mbsf_abcd_2018.STATE -->
<g id="node9" class="node">
<title>cms.mbsf_abcd_2018.STATE</title>
<g id="a_node9"><a xlink:href="../cms.mbsf_abcd_2018/STATE.html" xlink:title="&lt;TABLE&gt;" target="_blank">
<polygon fill="none" stroke="black" points="1892.5,-292 1572,-292 1572,-164.5 1892.5,-164.5 1892.5,-292"/>
<text text-anchor="start" x="1646.75" y="-270.7" font-family="Times,serif" font-weight="bold" font-size="14.00">cms.mbsf_abcd_2018.STATE</text>
<text text-anchor="start" x="1608" y="-224.2" font-family="Times,serif" font-size="14.00">SSA State Code</text>
<polygon fill="none" stroke="black" points="1583,-171.5 1583,-194 1881.5,-194 1881.5,-171.5 1583,-171.5"/>
<text text-anchor="start" x="1586" y="-177.7" font-family="Times,serif" font-size="14.00">GENERATED ALWAYS AS (STATE_CD) STORED</text>
<polygon fill="none" stroke="black" points="1580,-168.5 1580,-288 1884.5,-288 1884.5,-168.5 1580,-168.5"/>
</a>
</g>
</g>
<!-- cms.mbsf_ab_2013.STATE&#45;&gt;cms.mbsf_abcd_2018.STATE -->
<!-- cms.mbsf_ab_2014.STATE -->
<g id="node5" class="node">
<title>cms.mbsf_ab_2014.STATE</title>
<g id="a_node5"><a xlink:href="../cms.mbsf_ab_2014/STATE.html" xlink:title="&lt;TABLE&gt;" target="_blank">
<polygon fill="none" stroke="black" points="2088.5,-456.5 1768,-456.5 1768,-329 2088.5,-329 2088.5,-456.5"/>
<text text-anchor="start" x="1849.5" y="-435.2" font-family="Times,serif" font-weight="bold" font-size="14.00">cms.mbsf_ab_2014.STATE</text>
<text text-anchor="start" x="1804" y="-388.7" font-family="Times,serif" font-size="14.00">State Code</text>
<polygon fill="none" stroke="black" points="1779,-336 1779,-358.5 2077.5,-358.5 2077.5,-336 1779,-336"/>
<text text-anchor="start" x="1782" y="-342.2" font-family="Times,serif" font-size="14.00">GENERATED ALWAYS AS (STATE_CD) STORED</text>
<polygon fill="none" stroke="black" points="1776,-333 1776,-452.5 2080.5,-452.5 2080.5,-333 1776,-333"/>
</a>
</g>
</g>
<!-- cms.mbsf_ab_2014.STATE&#45;&gt;medicare.ps.state -->
<g id="edge8" class="edge">
<title>cms.mbsf_ab_2014.STATE&#45;&gt;medicare.ps.state</title>
<path fill="none" stroke="chocolate" stroke-width="2" d="M1940.12,-328.55C1945.83,-277 1943.88,-206.14 1901.25,-164.5 1843.69,-108.28 1370.22,-82.24 1079.08,-71.44"/>
<polygon fill="chocolate" stroke="chocolate" stroke-width="2" points="1079.36,-67.94 1069.24,-71.08 1079.1,-74.94 1079.36,-67.94"/>
<text text-anchor="middle" x="1957.62" y="-223.2" font-family="Times,serif" font-size="14.00">union</text>
</g>
<!-- cms.mbsf_abcd_2015.STATE&#45;&gt;medicare.ps.state -->
<g id="edge9" class="edge">
<title>cms.mbsf_abcd_2015.STATE&#45;&gt;medicare.ps.state</title>
<path fill="none" stroke="chocolate" stroke-width="2" d="M767.83,-164.42C775.11,-155.73 782.63,-146.74 790.05,-137.87"/>
<polygon fill="chocolate" stroke="chocolate" stroke-width="2" points="792.68,-140.18 796.42,-130.27 787.32,-135.69 792.68,-140.18"/>
<text text-anchor="middle" x="798.62" y="-140.95" font-family="Times,serif" font-size="14.00">union</text>
</g>
<!-- cms.mbsf_abcd_2016.STATE&#45;&gt;medicare.ps.state -->
<g id="edge10" class="edge">
<title>cms.mbsf_abcd_2016.STATE&#45;&gt;medicare.ps.state</title>
<path fill="none" stroke="chocolate" stroke-width="2" d="M975.47,-164.19C963.81,-154.85 951.72,-145.17 939.87,-135.69"/>
<polygon fill="chocolate" stroke="chocolate" stroke-width="2" points="942.34,-133.18 932.34,-129.67 937.96,-138.65 942.34,-133.18"/>
<text text-anchor="middle" x="968.62" y="-140.95" font-family="Times,serif" font-size="14.00">union</text>
</g>
<!-- cms.mbsf_abcd_2017.STATE&#45;&gt;medicare.ps.state -->
<g id="edge11" class="edge">
<title>cms.mbsf_abcd_2017.STATE&#45;&gt;medicare.ps.state</title>
<path fill="none" stroke="chocolate" stroke-width="2" d="M1232.77,-167.57C1229.57,-166.52 1226.4,-165.5 1223.25,-164.5 1176.79,-149.73 1126.63,-135.29 1078.63,-122.17"/>
<polygon fill="chocolate" stroke="chocolate" stroke-width="2" points="1079.64,-118.82 1069.07,-119.58 1077.81,-125.58 1079.64,-118.82"/>
<text text-anchor="middle" x="1178.62" y="-140.95" font-family="Times,serif" font-size="14.00">union</text>
</g>
<!-- cms.mbsf_abcd_2018.STATE&#45;&gt;medicare.ps.state -->
<g id="edge12" class="edge">
<title>cms.mbsf_abcd_2018.STATE&#45;&gt;medicare.ps.state</title>
<path fill="none" stroke="chocolate" stroke-width="2" d="M1571.92,-167.03C1568.68,-166.15 1565.45,-165.31 1562.25,-164.5 1403.11,-124.46 1219.61,-99.22 1078.9,-84.15"/>
<polygon fill="chocolate" stroke="chocolate" stroke-width="2" points="1079.6,-80.7 1069.29,-83.13 1078.86,-87.67 1079.6,-80.7"/>
<text text-anchor="middle" x="1497.62" y="-140.95" font-family="Times,serif" font-size="14.00">union</text>
</g>
</g>
</svg>
