<?xml version="1.0" encoding="UTF-8" standalone="no"?>
<!DOCTYPE svg PUBLIC "-//W3C//DTD SVG 1.1//EN"
 "http://www.w3.org/Graphics/SVG/1.1/DTD/svg11.dtd">
<!-- Generated by graphviz version 10.0.1 (20240210.2158)
 -->
<!-- Pages: 1 -->
<svg width="451pt" height="527pt"
 viewBox="0.00 0.00 451.38 527.00" xmlns="http://www.w3.org/2000/svg" xmlns:xlink="http://www.w3.org/1999/xlink">
<g id="graph0" class="graph" transform="scale(1 1) rotate(0) translate(4 523)">
<polygon fill="white" stroke="none" points="-4,4 -4,-523 447.38,-523 447.38,4 -4,4"/>
<!-- medicare.qc_enrl_bene.state -->
<g id="node1" class="node">
<title>medicare.qc_enrl_bene.state</title>
<g id="a_node1"><a xlink:href="../medicare.qc_enrl_bene/state.html" xlink:title="&lt;TABLE&gt;" target="_blank">
<polygon fill="none" stroke="black" points="310.5,-36 118.75,-36 118.75,0 310.5,0 310.5,-36"/>
<text text-anchor="start" x="131.75" y="-13.95" font-family="Times,serif" font-weight="bold" font-size="14.00">medicare.qc_enrl_bene.state</text>
<polygon fill="none" stroke="black" points="126.75,-4.75 126.75,-31.25 302.5,-31.25 302.5,-4.75 126.75,-4.75"/>
</a>
</g>
</g>
<!-- medicare.enrollments.state -->
<g id="node2" class="node">
<title>medicare.enrollments.state</title>
<g id="a_node2"><a xlink:href="../medicare.enrollments/state.html" xlink:title="&lt;TABLE&gt;" target="_blank">
<polygon fill="none" stroke="black" points="306.38,-109 122.88,-109 122.88,-73 306.38,-73 306.38,-109"/>
<text text-anchor="start" x="135.88" y="-86.95" font-family="Times,serif" font-weight="bold" font-size="14.00">medicare.enrollments.state</text>
<polygon fill="none" stroke="black" points="130.88,-77.75 130.88,-104.25 298.38,-104.25 298.38,-77.75 130.88,-77.75"/>
</a>
</g>
</g>
<!-- medicare.enrollments.state&#45;&gt;medicare.qc_enrl_bene.state -->
<g id="edge1" class="edge">
<title>medicare.enrollments.state&#45;&gt;medicare.qc_enrl_bene.state</title>
<path fill="none" stroke="black" d="M214.62,-72.81C214.62,-65.23 214.62,-56.1 214.62,-47.54"/>
<polygon fill="black" stroke="black" points="218.13,-47.54 214.63,-37.54 211.13,-47.54 218.13,-47.54"/>
<text text-anchor="middle" x="260.75" y="-49.45" font-family="Times,serif" font-size="14.00">	join natural</text>
</g>
<!-- medicare._enrollments.state -->
<g id="node3" class="node">
<title>medicare._enrollments.state</title>
<g id="a_node3"><a xlink:href="../medicare._enrollments/state.html" xlink:title="&lt;TABLE&gt;" target="_blank">
<polygon fill="none" stroke="black" points="309.75,-182 119.5,-182 119.5,-146 309.75,-146 309.75,-182"/>
<text text-anchor="start" x="132.5" y="-159.95" font-family="Times,serif" font-weight="bold" font-size="14.00">medicare._enrollments.state</text>
<polygon fill="none" stroke="black" points="127.5,-150.75 127.5,-177.25 301.75,-177.25 301.75,-150.75 127.5,-150.75"/>
</a>
</g>
</g>
<!-- medicare._enrollments.state&#45;&gt;medicare.enrollments.state -->
<g id="edge2" class="edge">
<title>medicare._enrollments.state&#45;&gt;medicare.enrollments.state</title>
<path fill="none" stroke="black" d="M214.62,-145.81C214.62,-138.23 214.62,-129.1 214.62,-120.54"/>
<polygon fill="black" stroke="black" points="218.13,-120.54 214.63,-110.54 211.13,-120.54 218.13,-120.54"/>
<text text-anchor="middle" x="234.12" y="-122.45" font-family="Times,serif" font-size="14.00">Copied</text>
</g>
<!-- medicare._ps.state -->
<g id="node4" class="node">
<title>medicare._ps.state</title>
<g id="a_node4"><a xlink:href="../medicare._ps/state.html" xlink:title="&lt;TABLE&gt;" target="_blank">
<polygon fill="none" stroke="black" points="429.25,-278 0,-278 0,-219 429.25,-219 429.25,-278"/>
<text text-anchor="start" x="160.62" y="-256.7" font-family="Times,serif" font-weight="bold" font-size="14.00">medicare._ps.state</text>
<polygon fill="none" stroke="black" points="11,-226 11,-248.5 418.25,-248.5 418.25,-226 11,-226"/>
<text text-anchor="start" x="14" y="-232.2" font-family="Times,serif" font-size="14.00">(SELECT state_id FROM public.us_states as s WHERE s.ssa2 = &quot;state&quot;)</text>
<polygon fill="none" stroke="black" points="8,-223 8,-274 421.25,-274 421.25,-223 8,-223"/>
</a>
</g>
</g>
<!-- medicare._ps.state&#45;&gt;medicare._enrollments.state -->
<g id="edge3" class="edge">
<title>medicare._ps.state&#45;&gt;medicare._enrollments.state</title>
<path fill="none" stroke="blue" stroke-width="5" d="M214.62,-218.65C214.62,-212.13 214.62,-205.17 214.62,-198.48"/>
<polygon fill="blue" stroke="blue" stroke-width="5" points="219,-198.65 214.63,-188.65 210.25,-198.65 219,-198.65"/>
<text text-anchor="middle" x="329" y="-195.45" font-family="Times,serif" font-size="14.00">	 &#160;Aggregated On bene_id, year, state</text>
</g>
<!-- medicare.ps.state -->
<g id="node5" class="node">
<title>medicare.ps.state</title>
<g id="a_node5"><a xlink:href="../medicare.ps/state.html" xlink:title="&lt;TABLE&gt;" target="_blank">
<polygon fill="none" stroke="black" points="429.25,-374 0,-374 0,-315 429.25,-315 429.25,-374"/>
<text text-anchor="start" x="164" y="-352.7" font-family="Times,serif" font-weight="bold" font-size="14.00">medicare.ps.state</text>
<polygon fill="none" stroke="black" points="11,-322 11,-344.5 418.25,-344.5 418.25,-322 11,-322"/>
<text text-anchor="start" x="14" y="-328.2" font-family="Times,serif" font-size="14.00">(SELECT state_id FROM public.us_states as s WHERE s.ssa2 = &quot;state&quot;)</text>
<polygon fill="none" stroke="black" points="8,-319 8,-370 421.25,-370 421.25,-319 8,-319"/>
</a>
</g>
</g>
<!-- medicare.ps.state&#45;&gt;medicare._ps.state -->
<g id="edge4" class="edge">
<title>medicare.ps.state&#45;&gt;medicare._ps.state</title>
<path fill="none" stroke="black" d="M214.62,-314.53C214.62,-306.68 214.62,-298.05 214.62,-289.7"/>
<polygon fill="black" stroke="black" points="218.13,-289.73 214.63,-279.73 211.13,-289.73 218.13,-289.73"/>
<text text-anchor="middle" x="234.12" y="-291.45" font-family="Times,serif" font-size="14.00">Copied</text>
</g>
<!-- medicare.ps.state_parent -->
<g id="node6" class="node">
<title>medicare.ps.state_parent</title>
<g id="a_node6"><a xlink:href="../medicare.ps/state.html" xlink:title="8 incoming links (columns)" target="_blank">
<path fill="yellow" stroke="black" d="M322.62,-509.18C322.62,-514.6 274.22,-519 214.62,-519 155.03,-519 106.62,-514.6 106.62,-509.18 106.62,-509.18 106.62,-420.82 106.62,-420.82 106.62,-415.4 155.03,-411 214.62,-411 274.22,-411 322.62,-415.4 322.62,-420.82 322.62,-420.82 322.62,-509.18 322.62,-509.18"/>
<path fill="none" stroke="black" d="M322.62,-509.18C322.62,-503.76 274.22,-499.36 214.62,-499.36 155.03,-499.36 106.62,-503.76 106.62,-509.18"/>
<text text-anchor="middle" x="214.62" y="-459.95" font-family="Times,serif" font-size="14.00">8 incoming links (columns)</text>
</a>
</g>
</g>
<!-- medicare.ps.state_parent&#45;&gt;medicare.ps.state -->
<g id="edge5" class="edge">
<title>medicare.ps.state_parent&#45;&gt;medicare.ps.state</title>
<path fill="none" stroke="goldenrod" stroke-width="6" d="M214.62,-410.64C214.62,-403.89 214.62,-397.03 214.62,-390.42"/>
<polygon fill="goldenrod" stroke="goldenrod" stroke-width="6" points="219.88,-390.71 214.63,-380.71 209.38,-390.71 219.88,-390.71"/>
</g>
</g>
</svg>
