<?xml version="1.0" encoding="UTF-8" standalone="no"?>
<!DOCTYPE svg PUBLIC "-//W3C//DTD SVG 1.1//EN"
 "http://www.w3.org/Graphics/SVG/1.1/DTD/svg11.dtd">
<!-- Generated by graphviz version 10.0.1 (20240210.2158)
 -->
<!-- Pages: 1 -->
<svg width="775pt" height="645pt"
 viewBox="0.00 0.00 775.38 645.00" xmlns="http://www.w3.org/2000/svg" xmlns:xlink="http://www.w3.org/1999/xlink">
<g id="graph0" class="graph" transform="scale(1 1) rotate(0) translate(4 641)">
<polygon fill="white" stroke="none" points="-4,4 -4,-641 771.38,-641 771.38,4 -4,4"/>
<!-- medicare.admissions.state -->
<g id="node1" class="node">
<title>medicare.admissions.state</title>
<g id="a_node1"><a xlink:href="../medicare.admissions/state.html" xlink:title="&lt;TABLE&gt;" target="_blank">
<polygon fill="none" stroke="black" points="591.25,-59 162,-59 162,0 591.25,0 591.25,-59"/>
<text text-anchor="start" x="300.5" y="-37.7" font-family="Times,serif" font-weight="bold" font-size="14.00">medicare.admissions.state</text>
<polygon fill="none" stroke="black" points="173,-7 173,-29.5 580.25,-29.5 580.25,-7 173,-7"/>
<text text-anchor="start" x="176" y="-13.2" font-family="Times,serif" font-size="14.00">(SELECT state_id FROM public.us_states as s WHERE s.ssa2 = &quot;state&quot;)</text>
<polygon fill="none" stroke="black" points="170,-4 170,-55 583.25,-55 583.25,-4 170,-4"/>
</a>
</g>
</g>
<!-- medicare.ip.state -->
<g id="node2" class="node">
<title>medicare.ip.state</title>
<g id="a_node2"><a xlink:href="../medicare.ip/state.html" xlink:title="&lt;TABLE&gt;" target="_blank">
<polygon fill="none" stroke="black" points="429.25,-155 0,-155 0,-96 429.25,-96 429.25,-155"/>
<text text-anchor="start" x="164.75" y="-133.7" font-family="Times,serif" font-weight="bold" font-size="14.00">medicare.ip.state</text>
<polygon fill="none" stroke="black" points="11,-103 11,-125.5 418.25,-125.5 418.25,-103 11,-103"/>
<text text-anchor="start" x="14" y="-109.2" font-family="Times,serif" font-size="14.00">(SELECT state_id FROM public.us_states as s WHERE s.ssa2 = &quot;state&quot;)</text>
<polygon fill="none" stroke="black" points="8,-100 8,-151 421.25,-151 421.25,-100 8,-100"/>
</a>
</g>
</g>
<!-- medicare.ip.state&#45;&gt;medicare.admissions.state -->
<g id="edge1" class="edge">
<title>medicare.ip.state&#45;&gt;medicare.admissions.state</title>
<path fill="none" stroke="black" d="M264.55,-95.53C281.11,-85.92 299.7,-75.14 316.91,-65.15"/>
<polygon fill="black" stroke="black" points="318.66,-68.18 325.55,-60.13 315.15,-62.13 318.66,-68.18"/>
<text text-anchor="middle" x="315.12" y="-72.45" font-family="Times,serif" font-size="14.00">Copied</text>
</g>
<!-- medicare.ip.state_parent -->
<g id="node3" class="node">
<title>medicare.ip.state_parent</title>
<g id="a_node3"><a xlink:href="../medicare.ip/state.html" xlink:title="8 incoming links (columns)" target="_blank">
<path fill="yellow" stroke="black" d="M322.62,-290.18C322.62,-295.6 274.22,-300 214.62,-300 155.03,-300 106.62,-295.6 106.62,-290.18 106.62,-290.18 106.62,-201.82 106.62,-201.82 106.62,-196.4 155.03,-192 214.62,-192 274.22,-192 322.62,-196.4 322.62,-201.82 322.62,-201.82 322.62,-290.18 322.62,-290.18"/>
<path fill="none" stroke="black" d="M322.62,-290.18C322.62,-284.76 274.22,-280.36 214.62,-280.36 155.03,-280.36 106.62,-284.76 106.62,-290.18"/>
<text text-anchor="middle" x="214.62" y="-240.95" font-family="Times,serif" font-size="14.00">8 incoming links (columns)</text>
</a>
</g>
</g>
<!-- medicare.ip.state_parent&#45;&gt;medicare.ip.state -->
<g id="edge2" class="edge">
<title>medicare.ip.state_parent&#45;&gt;medicare.ip.state</title>
<path fill="none" stroke="goldenrod" stroke-width="6" d="M214.62,-191.64C214.62,-184.89 214.62,-178.03 214.62,-171.42"/>
<polygon fill="goldenrod" stroke="goldenrod" stroke-width="6" points="219.88,-171.71 214.63,-161.71 209.38,-171.71 219.88,-171.71"/>
</g>
<!-- medicare.enrollments.state -->
<g id="node4" class="node">
<title>medicare.enrollments.state</title>
<g id="a_node4"><a xlink:href="../medicare.enrollments/state.html" xlink:title="&lt;TABLE&gt;" target="_blank">
<polygon fill="none" stroke="black" points="630.38,-143.5 446.88,-143.5 446.88,-107.5 630.38,-107.5 630.38,-143.5"/>
<text text-anchor="start" x="459.88" y="-121.45" font-family="Times,serif" font-weight="bold" font-size="14.00">medicare.enrollments.state</text>
<polygon fill="none" stroke="black" points="454.88,-112.25 454.88,-138.75 622.38,-138.75 622.38,-112.25 454.88,-112.25"/>
</a>
</g>
</g>
<!-- medicare.enrollments.state&#45;&gt;medicare.admissions.state -->
<g id="edge3" class="edge">
<title>medicare.enrollments.state&#45;&gt;medicare.admissions.state</title>
<path fill="none" stroke="darkorchid" stroke-width="2" d="M508.53,-107.04C488.54,-95.44 461.58,-79.8 437.25,-65.68"/>
<polygon fill="darkorchid" stroke="darkorchid" stroke-width="2" points="439.31,-62.83 428.9,-60.84 435.8,-68.88 439.31,-62.83"/>
<text text-anchor="middle" x="477.12" y="-72.45" font-family="Times,serif" font-size="14.00">Copied</text>
</g>
<!-- medicare._enrollments.state -->
<g id="node5" class="node">
<title>medicare._enrollments.state</title>
<g id="a_node5"><a xlink:href="../medicare._enrollments/state.html" xlink:title="&lt;TABLE&gt;" target="_blank">
<polygon fill="none" stroke="black" points="633.75,-264 443.5,-264 443.5,-228 633.75,-228 633.75,-264"/>
<text text-anchor="start" x="456.5" y="-241.95" font-family="Times,serif" font-weight="bold" font-size="14.00">medicare._enrollments.state</text>
<polygon fill="none" stroke="black" points="451.5,-232.75 451.5,-259.25 625.75,-259.25 625.75,-232.75 451.5,-232.75"/>
</a>
</g>
</g>
<!-- medicare._enrollments.state&#45;&gt;medicare.enrollments.state -->
<g id="edge4" class="edge">
<title>medicare._enrollments.state&#45;&gt;medicare.enrollments.state</title>
<path fill="none" stroke="black" d="M538.62,-227.51C538.62,-208.41 538.62,-177.53 538.62,-154.94"/>
<polygon fill="black" stroke="black" points="542.13,-155.19 538.63,-145.19 535.13,-155.19 542.13,-155.19"/>
<text text-anchor="middle" x="558.12" y="-168.45" font-family="Times,serif" font-size="14.00">Copied</text>
</g>
<!-- medicare._ps.state -->
<g id="node6" class="node">
<title>medicare._ps.state</title>
<g id="a_node6"><a xlink:href="../medicare._ps/state.html" xlink:title="&lt;TABLE&gt;" target="_blank">
<polygon fill="none" stroke="black" points="753.25,-396 324,-396 324,-337 753.25,-337 753.25,-396"/>
<text text-anchor="start" x="484.62" y="-374.7" font-family="Times,serif" font-weight="bold" font-size="14.00">medicare._ps.state</text>
<polygon fill="none" stroke="black" points="335,-344 335,-366.5 742.25,-366.5 742.25,-344 335,-344"/>
<text text-anchor="start" x="338" y="-350.2" font-family="Times,serif" font-size="14.00">(SELECT state_id FROM public.us_states as s WHERE s.ssa2 = &quot;state&quot;)</text>
<polygon fill="none" stroke="black" points="332,-341 332,-392 745.25,-392 745.25,-341 332,-341"/>
</a>
</g>
</g>
<!-- medicare._ps.state&#45;&gt;medicare._enrollments.state -->
<g id="edge5" class="edge">
<title>medicare._ps.state&#45;&gt;medicare._enrollments.state</title>
<path fill="none" stroke="blue" stroke-width="5" d="M538.62,-336.51C538.62,-319.55 538.62,-298.07 538.62,-280.41"/>
<polygon fill="blue" stroke="blue" stroke-width="5" points="543,-280.56 538.63,-270.56 534.25,-280.56 543,-280.56"/>
<text text-anchor="middle" x="653" y="-313.45" font-family="Times,serif" font-size="14.00">	 &#160;Aggregated On bene_id, year, state</text>
</g>
<!-- medicare.ps.state -->
<g id="node7" class="node">
<title>medicare.ps.state</title>
<g id="a_node7"><a xlink:href="../medicare.ps/state.html" xlink:title="&lt;TABLE&gt;" target="_blank">
<polygon fill="none" stroke="black" points="753.25,-492 324,-492 324,-433 753.25,-433 753.25,-492"/>
<text text-anchor="start" x="488" y="-470.7" font-family="Times,serif" font-weight="bold" font-size="14.00">medicare.ps.state</text>
<polygon fill="none" stroke="black" points="335,-440 335,-462.5 742.25,-462.5 742.25,-440 335,-440"/>
<text text-anchor="start" x="338" y="-446.2" font-family="Times,serif" font-size="14.00">(SELECT state_id FROM public.us_states as s WHERE s.ssa2 = &quot;state&quot;)</text>
<polygon fill="none" stroke="black" points="332,-437 332,-488 745.25,-488 745.25,-437 332,-437"/>
</a>
</g>
</g>
<!-- medicare.ps.state&#45;&gt;medicare._ps.state -->
<g id="edge6" class="edge">
<title>medicare.ps.state&#45;&gt;medicare._ps.state</title>
<path fill="none" stroke="black" d="M538.62,-432.53C538.62,-424.68 538.62,-416.05 538.62,-407.7"/>
<polygon fill="black" stroke="black" points="542.13,-407.73 538.63,-397.73 535.13,-407.73 542.13,-407.73"/>
<text text-anchor="middle" x="558.12" y="-409.45" font-family="Times,serif" font-size="14.00">Copied</text>
</g>
<!-- medicare.ps.state_parent -->
<g id="node8" class="node">
<title>medicare.ps.state_parent</title>
<g id="a_node8"><a xlink:href="../medicare.ps/state.html" xlink:title="8 incoming links (columns)" target="_blank">
<path fill="yellow" stroke="black" d="M646.62,-627.18C646.62,-632.6 598.22,-637 538.62,-637 479.03,-637 430.62,-632.6 430.62,-627.18 430.62,-627.18 430.62,-538.82 430.62,-538.82 430.62,-533.4 479.03,-529 538.62,-529 598.22,-529 646.62,-533.4 646.62,-538.82 646.62,-538.82 646.62,-627.18 646.62,-627.18"/>
<path fill="none" stroke="black" d="M646.62,-627.18C646.62,-621.76 598.22,-617.36 538.62,-617.36 479.03,-617.36 430.62,-621.76 430.62,-627.18"/>
<text text-anchor="middle" x="538.62" y="-577.95" font-family="Times,serif" font-size="14.00">8 incoming links (columns)</text>
</a>
</g>
</g>
<!-- medicare.ps.state_parent&#45;&gt;medicare.ps.state -->
<g id="edge7" class="edge">
<title>medicare.ps.state_parent&#45;&gt;medicare.ps.state</title>
<path fill="none" stroke="goldenrod" stroke-width="6" d="M538.62,-528.64C538.62,-521.89 538.62,-515.03 538.62,-508.42"/>
<polygon fill="goldenrod" stroke="goldenrod" stroke-width="6" points="543.88,-508.71 538.63,-498.71 533.38,-508.71 543.88,-508.71"/>
</g>
</g>
</svg>
