<?xml version="1.0" encoding="UTF-8" standalone="no"?>
<!DOCTYPE svg PUBLIC "-//W3C//DTD SVG 1.1//EN"
 "http://www.w3.org/Graphics/SVG/1.1/DTD/svg11.dtd">
<!-- Generated by graphviz version 10.0.1 (20240210.2158)
 -->
<!-- Pages: 1 -->
<svg width="767pt" height="821pt"
 viewBox="0.00 0.00 766.50 821.00" xmlns="http://www.w3.org/2000/svg" xmlns:xlink="http://www.w3.org/1999/xlink">
<g id="graph0" class="graph" transform="scale(1 1) rotate(0) translate(4 817)">
<polygon fill="white" stroke="none" points="-4,4 -4,-817 762.5,-817 762.5,4 -4,4"/>
<!-- medicare.qc_enrl_bene.state_count -->
<g id="node1" class="node">
<title>medicare.qc_enrl_bene.state_count</title>
<g id="a_node1"><a xlink:href="../medicare.qc_enrl_bene/state_count.html" xlink:title="&lt;TABLE&gt;" target="_blank">
<polygon fill="none" stroke="black" points="758.5,-59 0,-59 0,0 758.5,0 758.5,-59"/>
<text text-anchor="start" x="276.88" y="-37.7" font-family="Times,serif" font-weight="bold" font-size="14.00">medicare.qc_enrl_bene.state_count</text>
<polygon fill="none" stroke="black" points="11,-7 11,-29.5 747.5,-29.5 747.5,-7 11,-7"/>
<text text-anchor="start" x="14" y="-13.2" font-family="Times,serif" font-size="14.00">( &#160;SELECT COUNT(distinct state) &#160;FROM medicare._ps AS ps2 &#160;WHERE &#160;&#160;&#160;_ps.bene_id = ps2.bene_id &#160;&#160;&#160;AND _ps.year = ps2.year)</text>
<polygon fill="none" stroke="black" points="8,-4 8,-55 750.5,-55 750.5,-4 8,-4"/>
</a>
</g>
</g>
<!-- medicare.enrollments.state -->
<g id="node2" class="node">
<title>medicare.enrollments.state</title>
<g id="a_node2"><a xlink:href="../medicare.enrollments/state.html" xlink:title="&lt;TABLE&gt;" target="_blank">
<polygon fill="none" stroke="black" points="471,-199 287.5,-199 287.5,-96 471,-96 471,-199"/>
<text text-anchor="start" x="300.5" y="-177.7" font-family="Times,serif" font-weight="bold" font-size="14.00">medicare.enrollments.state</text>
<text text-anchor="start" x="323.5" y="-131.2" font-family="Times,serif" font-size="14.00">State Code</text>
<polygon fill="none" stroke="black" points="295.5,-100 295.5,-195 463,-195 463,-100 295.5,-100"/>
</a>
</g>
</g>
<!-- medicare.enrollments.state&#45;&gt;medicare.qc_enrl_bene.state_count -->
<g id="edge1" class="edge">
<title>medicare.enrollments.state&#45;&gt;medicare.qc_enrl_bene.state_count</title>
<path fill="none" stroke="black" d="M379.25,-95.62C379.25,-87.28 379.25,-78.73 379.25,-70.7"/>
<polygon fill="black" stroke="black" points="382.75,-70.88 379.25,-60.88 375.75,-70.88 382.75,-70.88"/>
<text text-anchor="middle" x="425.38" y="-72.45" font-family="Times,serif" font-size="14.00">	join natural</text>
</g>
<!-- medicare._enrollments.state -->
<g id="node3" class="node">
<title>medicare._enrollments.state</title>
<g id="a_node3"><a xlink:href="../medicare._enrollments/state.html" xlink:title="&lt;TABLE&gt;" target="_blank">
<polygon fill="none" stroke="black" points="474.38,-339 284.12,-339 284.12,-236 474.38,-236 474.38,-339"/>
<text text-anchor="start" x="297.12" y="-317.7" font-family="Times,serif" font-weight="bold" font-size="14.00">medicare._enrollments.state</text>
<text text-anchor="start" x="320.12" y="-271.2" font-family="Times,serif" font-size="14.00">State Code</text>
<polygon fill="none" stroke="black" points="292.12,-240 292.12,-335 466.38,-335 466.38,-240 292.12,-240"/>
</a>
</g>
</g>
<!-- medicare._enrollments.state&#45;&gt;medicare.enrollments.state -->
<g id="edge2" class="edge">
<title>medicare._enrollments.state&#45;&gt;medicare.enrollments.state</title>
<path fill="none" stroke="black" d="M379.25,-235.51C379.25,-227.38 379.25,-218.89 379.25,-210.54"/>
<polygon fill="black" stroke="black" points="382.75,-210.8 379.25,-200.8 375.75,-210.8 382.75,-210.8"/>
<text text-anchor="middle" x="398.75" y="-212.45" font-family="Times,serif" font-size="14.00">Copied</text>
</g>
<!-- medicare._ps.state -->
<g id="node4" class="node">
<title>medicare._ps.state</title>
<g id="a_node4"><a xlink:href="../medicare._ps/state.html" xlink:title="&lt;TABLE&gt;" target="_blank">
<polygon fill="none" stroke="black" points="593.88,-503.5 164.62,-503.5 164.62,-376 593.88,-376 593.88,-503.5"/>
<text text-anchor="start" x="325.25" y="-482.2" font-family="Times,serif" font-weight="bold" font-size="14.00">medicare._ps.state</text>
<text text-anchor="start" x="200.62" y="-435.7" font-family="Times,serif" font-size="14.00">State Code</text>
<polygon fill="none" stroke="black" points="175.62,-383 175.62,-405.5 582.88,-405.5 582.88,-383 175.62,-383"/>
<text text-anchor="start" x="178.62" y="-389.2" font-family="Times,serif" font-size="14.00">(SELECT state_id FROM public.us_states as s WHERE s.ssa2 = &quot;state&quot;)</text>
<polygon fill="none" stroke="black" points="172.62,-380 172.62,-499.5 585.88,-499.5 585.88,-380 172.62,-380"/>
</a>
</g>
</g>
<!-- medicare._ps.state&#45;&gt;medicare._enrollments.state -->
<g id="edge3" class="edge">
<title>medicare._ps.state&#45;&gt;medicare._enrollments.state</title>
<path fill="none" stroke="blue" stroke-width="5" d="M379.25,-375.9C379.25,-369.12 379.25,-362.2 379.25,-355.38"/>
<polygon fill="blue" stroke="blue" stroke-width="5" points="383.63,-355.47 379.25,-345.47 374.88,-355.47 383.63,-355.47"/>
<text text-anchor="middle" x="493.62" y="-352.45" font-family="Times,serif" font-size="14.00">	 &#160;Aggregated On bene_id, year, state</text>
</g>
<!-- medicare.ps.state -->
<g id="node5" class="node">
<title>medicare.ps.state</title>
<g id="a_node5"><a xlink:href="../medicare.ps/state.html" xlink:title="&lt;TABLE&gt;" target="_blank">
<polygon fill="none" stroke="black" points="593.88,-668 164.62,-668 164.62,-540.5 593.88,-540.5 593.88,-668"/>
<text text-anchor="start" x="328.62" y="-646.7" font-family="Times,serif" font-weight="bold" font-size="14.00">medicare.ps.state</text>
<text text-anchor="start" x="200.62" y="-600.2" font-family="Times,serif" font-size="14.00">State Code</text>
<polygon fill="none" stroke="black" points="175.62,-547.5 175.62,-570 582.88,-570 582.88,-547.5 175.62,-547.5"/>
<text text-anchor="start" x="178.62" y="-553.7" font-family="Times,serif" font-size="14.00">(SELECT state_id FROM public.us_states as s WHERE s.ssa2 = &quot;state&quot;)</text>
<polygon fill="none" stroke="black" points="172.62,-544.5 172.62,-664 585.88,-664 585.88,-544.5 172.62,-544.5"/>
</a>
</g>
</g>
<!-- medicare.ps.state&#45;&gt;medicare._ps.state -->
<g id="edge4" class="edge">
<title>medicare.ps.state&#45;&gt;medicare._ps.state</title>
<path fill="none" stroke="black" d="M379.25,-540.42C379.25,-532.2 379.25,-523.7 379.25,-515.3"/>
<polygon fill="black" stroke="black" points="382.75,-515.46 379.25,-505.46 375.75,-515.46 382.75,-515.46"/>
<text text-anchor="middle" x="398.75" y="-516.95" font-family="Times,serif" font-size="14.00">Copied</text>
</g>
<!-- medicare.ps.state_parent -->
<g id="node6" class="node">
<title>medicare.ps.state_parent</title>
<g id="a_node6"><a xlink:href="../medicare.ps/state.html" xlink:title="8 incoming links (columns)" target="_blank">
<path fill="yellow" stroke="black" d="M487.25,-803.18C487.25,-808.6 438.84,-813 379.25,-813 319.66,-813 271.25,-808.6 271.25,-803.18 271.25,-803.18 271.25,-714.82 271.25,-714.82 271.25,-709.4 319.66,-705 379.25,-705 438.84,-705 487.25,-709.4 487.25,-714.82 487.25,-714.82 487.25,-803.18 487.25,-803.18"/>
<path fill="none" stroke="black" d="M487.25,-803.18C487.25,-797.76 438.84,-793.36 379.25,-793.36 319.66,-793.36 271.25,-797.76 271.25,-803.18"/>
<text text-anchor="middle" x="379.25" y="-753.95" font-family="Times,serif" font-size="14.00">8 incoming links (columns)</text>
</a>
</g>
</g>
<!-- medicare.ps.state_parent&#45;&gt;medicare.ps.state -->
<g id="edge5" class="edge">
<title>medicare.ps.state_parent&#45;&gt;medicare.ps.state</title>
<path fill="none" stroke="goldenrod" stroke-width="6" d="M379.25,-704.58C379.25,-698.09 379.25,-691.35 379.25,-684.59"/>
<polygon fill="goldenrod" stroke="goldenrod" stroke-width="6" points="384.5,-684.8 379.25,-674.8 374,-684.8 384.5,-684.8"/>
</g>
</g>
</svg>
