<?xml version="1.0" encoding="UTF-8" standalone="no"?>
<!DOCTYPE svg PUBLIC "-//W3C//DTD SVG 1.1//EN"
 "http://www.w3.org/Graphics/SVG/1.1/DTD/svg11.dtd">
<!-- Generated by graphviz version 10.0.1 (20240210.2158)
 -->
<!-- Pages: 1 -->
<svg width="2097pt" height="429pt"
 viewBox="0.00 0.00 2096.50 429.00" xmlns="http://www.w3.org/2000/svg" xmlns:xlink="http://www.w3.org/1999/xlink">
<g id="graph0" class="graph" transform="scale(1 1) rotate(0) translate(4 425)">
<polygon fill="white" stroke="none" points="-4,4 -4,-425 2092.5,-425 2092.5,4 -4,4"/>
<!-- medicare.ip.state -->
<g id="node1" class="node">
<title>medicare.ip.state</title>
<g id="a_node1"><a xlink:href="../medicare.ip/state.html" xlink:title="&lt;TABLE&gt;" target="_blank">
<polygon fill="none" stroke="black" points="1065.88,-59 636.62,-59 636.62,0 1065.88,0 1065.88,-59"/>
<text text-anchor="start" x="801.38" y="-37.7" font-family="Times,serif" font-weight="bold" font-size="14.00">medicare.ip.state</text>
<polygon fill="none" stroke="black" points="647.62,-7 647.62,-29.5 1054.88,-29.5 1054.88,-7 647.62,-7"/>
<text text-anchor="start" x="650.62" y="-13.2" font-family="Times,serif" font-size="14.00">(SELECT state_id FROM public.us_states as s WHERE s.ssa2 = &quot;state&quot;)</text>
<polygon fill="none" stroke="black" points="644.62,-4 644.62,-55 1057.88,-55 1057.88,-4 644.62,-4"/>
</a>
</g>
</g>
<!-- cms.medpar_2011.STATE -->
<g id="node2" class="node">
<title>cms.medpar_2011.STATE</title>
<g id="a_node2"><a xlink:href="../cms.medpar_2011/STATE.html" xlink:title="&lt;TABLE&gt;" target="_blank">
<polygon fill="none" stroke="black" points="320.5,-421 0,-421 0,-277 320.5,-277 320.5,-421"/>
<text text-anchor="start" x="84.12" y="-399.7" font-family="Times,serif" font-weight="bold" font-size="14.00">cms.medpar_2011.STATE</text>
<text text-anchor="start" x="36" y="-353.2" font-family="Times,serif" font-size="14.00">SSA standard state code of a</text>
<text text-anchor="start" x="51.75" y="-336.7" font-family="Times,serif" font-size="14.00">beneficiarys residence.</text>
<polygon fill="none" stroke="black" points="11,-284 11,-306.5 309.5,-306.5 309.5,-284 11,-284"/>
<text text-anchor="start" x="14" y="-290.2" font-family="Times,serif" font-size="14.00">GENERATED ALWAYS AS (STATE_CD) STORED</text>
<polygon fill="none" stroke="black" points="8,-281 8,-417 312.5,-417 312.5,-281 8,-281"/>
</a>
</g>
</g>
<!-- cms.medpar_2011.STATE&#45;&gt;medicare.ip.state -->
<g id="edge5" class="edge">
<title>cms.medpar_2011.STATE&#45;&gt;medicare.ip.state</title>
<path fill="none" stroke="chocolate" stroke-width="2" d="M232.56,-276.72C292.5,-220.98 382.18,-144.97 472.25,-96 500.16,-80.82 559.69,-67.88 623.47,-57.61"/>
<polygon fill="chocolate" stroke="chocolate" stroke-width="2" points="623.95,-61.07 633.28,-56.06 622.86,-54.16 623.95,-61.07"/>
<text text-anchor="middle" x="487.62" y="-162.95" font-family="Times,serif" font-size="14.00">union</text>
</g>
<!-- cms.medpar_2012.STATE -->
<g id="node3" class="node">
<title>cms.medpar_2012.STATE</title>
<g id="a_node3"><a xlink:href="../cms.medpar_2012/STATE.html" xlink:title="&lt;TABLE&gt;" target="_blank">
<polygon fill="none" stroke="black" points="659.5,-421 339,-421 339,-277 659.5,-277 659.5,-421"/>
<text text-anchor="start" x="422.75" y="-399.7" font-family="Times,serif" font-weight="bold" font-size="14.00">cms.medpar_2012.STATE</text>
<text text-anchor="start" x="375" y="-353.2" font-family="Times,serif" font-size="14.00">SSA standard state code of a</text>
<text text-anchor="start" x="390.75" y="-336.7" font-family="Times,serif" font-size="14.00">beneficiarys residence.</text>
<polygon fill="none" stroke="black" points="350,-284 350,-306.5 648.5,-306.5 648.5,-284 350,-284"/>
<text text-anchor="start" x="353" y="-290.2" font-family="Times,serif" font-size="14.00">GENERATED ALWAYS AS (STATE_CD) STORED</text>
<polygon fill="none" stroke="black" points="347,-281 347,-417 651.5,-417 651.5,-281 347,-281"/>
</a>
</g>
</g>
<!-- cms.medpar_2012.STATE&#45;&gt;medicare.ip.state -->
<g id="edge6" class="edge">
<title>cms.medpar_2012.STATE&#45;&gt;medicare.ip.state</title>
<path fill="none" stroke="chocolate" stroke-width="2" d="M482.2,-276.62C473.47,-221.74 471.61,-146.94 510.25,-96 526.23,-74.93 571.29,-60.61 623.63,-50.89"/>
<polygon fill="chocolate" stroke="chocolate" stroke-width="2" points="624.13,-54.36 633.37,-49.17 622.91,-47.46 624.13,-54.36"/>
<text text-anchor="middle" x="525.62" y="-162.95" font-family="Times,serif" font-size="14.00">union</text>
</g>
<!-- cms.medpar_2013.STATE -->
<g id="node4" class="node">
<title>cms.medpar_2013.STATE</title>
<g id="a_node4"><a xlink:href="../cms.medpar_2013/STATE.html" xlink:title="&lt;TABLE&gt;" target="_blank">
<polygon fill="none" stroke="black" points="1214.5,-421 894,-421 894,-277 1214.5,-277 1214.5,-421"/>
<text text-anchor="start" x="977.75" y="-399.7" font-family="Times,serif" font-weight="bold" font-size="14.00">cms.medpar_2013.STATE</text>
<text text-anchor="start" x="930" y="-353.2" font-family="Times,serif" font-size="14.00">SSA standard state code of a</text>
<text text-anchor="start" x="945.75" y="-336.7" font-family="Times,serif" font-size="14.00">beneficiarys residence.</text>
<polygon fill="none" stroke="black" points="905,-284 905,-306.5 1203.5,-306.5 1203.5,-284 905,-284"/>
<text text-anchor="start" x="908" y="-290.2" font-family="Times,serif" font-size="14.00">GENERATED ALWAYS AS (STATE_CD) STORED</text>
<polygon fill="none" stroke="black" points="902,-281 902,-417 1206.5,-417 1206.5,-281 902,-281"/>
</a>
</g>
</g>
<!-- cms.medpar_2013.STATE&#45;&gt;medicare.ip.state -->
<g id="edge7" class="edge">
<title>cms.medpar_2013.STATE&#45;&gt;medicare.ip.state</title>
<path fill="none" stroke="chocolate" stroke-width="2" d="M893.55,-318.92C748.65,-291.93 556.51,-253.9 545.25,-240 504.96,-190.27 505.01,-145.77 545.25,-96 557.6,-80.72 587.4,-68.85 623.8,-59.68"/>
<polygon fill="chocolate" stroke="chocolate" stroke-width="2" points="624.52,-63.1 633.43,-57.37 622.89,-56.29 624.52,-63.1"/>
<text text-anchor="middle" x="560.62" y="-162.95" font-family="Times,serif" font-size="14.00">union</text>
</g>
<!-- cms.medpar_2015.STATE -->
<g id="node6" class="node">
<title>cms.medpar_2015.STATE</title>
<g id="a_node6"><a xlink:href="../cms.medpar_2015/STATE.html" xlink:title="&lt;TABLE&gt;" target="_blank">
<polygon fill="none" stroke="black" points="875.5,-240 555,-240 555,-96 875.5,-96 875.5,-240"/>
<text text-anchor="start" x="638.75" y="-218.7" font-family="Times,serif" font-weight="bold" font-size="14.00">cms.medpar_2015.STATE</text>
<text text-anchor="start" x="591" y="-172.2" font-family="Times,serif" font-size="14.00">SSA standard state code of a</text>
<text text-anchor="start" x="606.75" y="-155.7" font-family="Times,serif" font-size="14.00">beneficiarys residence.</text>
<polygon fill="none" stroke="black" points="566,-103 566,-125.5 864.5,-125.5 864.5,-103 566,-103"/>
<text text-anchor="start" x="569" y="-109.2" font-family="Times,serif" font-size="14.00">GENERATED ALWAYS AS (STATE_CD) STORED</text>
<polygon fill="none" stroke="black" points="563,-100 563,-236 867.5,-236 867.5,-100 563,-100"/>
</a>
</g>
</g>
<!-- cms.medpar_2013.STATE&#45;&gt;cms.medpar_2015.STATE -->
<!-- cms.medpar_2016.STATE -->
<g id="node7" class="node">
<title>cms.medpar_2016.STATE</title>
<g id="a_node7"><a xlink:href="../cms.medpar_2016/STATE.html" xlink:title="&lt;TABLE&gt;" target="_blank">
<polygon fill="none" stroke="black" points="1214.5,-240 894,-240 894,-96 1214.5,-96 1214.5,-240"/>
<text text-anchor="start" x="977.75" y="-218.7" font-family="Times,serif" font-weight="bold" font-size="14.00">cms.medpar_2016.STATE</text>
<text text-anchor="start" x="930" y="-172.2" font-family="Times,serif" font-size="14.00">SSA standard state code of a</text>
<text text-anchor="start" x="945.75" y="-155.7" font-family="Times,serif" font-size="14.00">beneficiarys residence.</text>
<polygon fill="none" stroke="black" points="905,-103 905,-125.5 1203.5,-125.5 1203.5,-103 905,-103"/>
<text text-anchor="start" x="908" y="-109.2" font-family="Times,serif" font-size="14.00">GENERATED ALWAYS AS (STATE_CD) STORED</text>
<polygon fill="none" stroke="black" points="902,-100 902,-236 1206.5,-236 1206.5,-100 902,-100"/>
</a>
</g>
</g>
<!-- cms.medpar_2013.STATE&#45;&gt;cms.medpar_2016.STATE -->
<!-- cms.medpar_2017.STATE -->
<g id="node8" class="node">
<title>cms.medpar_2017.STATE</title>
<g id="a_node8"><a xlink:href="../cms.medpar_2017/STATE.html" xlink:title="&lt;TABLE&gt;" target="_blank">
<polygon fill="none" stroke="black" points="1553.5,-240 1233,-240 1233,-96 1553.5,-96 1553.5,-240"/>
<text text-anchor="start" x="1316.75" y="-218.7" font-family="Times,serif" font-weight="bold" font-size="14.00">cms.medpar_2017.STATE</text>
<text text-anchor="start" x="1269" y="-172.2" font-family="Times,serif" font-size="14.00">SSA standard state code of a</text>
<text text-anchor="start" x="1284.75" y="-155.7" font-family="Times,serif" font-size="14.00">beneficiarys residence.</text>
<polygon fill="none" stroke="black" points="1244,-103 1244,-125.5 1542.5,-125.5 1542.5,-103 1244,-103"/>
<text text-anchor="start" x="1247" y="-109.2" font-family="Times,serif" font-size="14.00">GENERATED ALWAYS AS (STATE_CD) STORED</text>
<polygon fill="none" stroke="black" points="1241,-100 1241,-236 1545.5,-236 1545.5,-100 1241,-100"/>
</a>
</g>
</g>
<!-- cms.medpar_2013.STATE&#45;&gt;cms.medpar_2017.STATE -->
<!-- cms.medpar_2018.STATE -->
<g id="node9" class="node">
<title>cms.medpar_2018.STATE</title>
<g id="a_node9"><a xlink:href="../cms.medpar_2018/STATE.html" xlink:title="&lt;TABLE&gt;" target="_blank">
<polygon fill="none" stroke="black" points="1892.5,-240 1572,-240 1572,-96 1892.5,-96 1892.5,-240"/>
<text text-anchor="start" x="1655.75" y="-218.7" font-family="Times,serif" font-weight="bold" font-size="14.00">cms.medpar_2018.STATE</text>
<text text-anchor="start" x="1608" y="-172.2" font-family="Times,serif" font-size="14.00">SSA standard state code of a</text>
<text text-anchor="start" x="1623.75" y="-155.7" font-family="Times,serif" font-size="14.00">beneficiarys residence.</text>
<polygon fill="none" stroke="black" points="1583,-103 1583,-125.5 1881.5,-125.5 1881.5,-103 1583,-103"/>
<text text-anchor="start" x="1586" y="-109.2" font-family="Times,serif" font-size="14.00">GENERATED ALWAYS AS (STATE_CD) STORED</text>
<polygon fill="none" stroke="black" points="1580,-100 1580,-236 1884.5,-236 1884.5,-100 1580,-100"/>
</a>
</g>
</g>
<!-- cms.medpar_2013.STATE&#45;&gt;cms.medpar_2018.STATE -->
<!-- cms.medpar_2014.STATE -->
<g id="node5" class="node">
<title>cms.medpar_2014.STATE</title>
<g id="a_node5"><a xlink:href="../cms.medpar_2014/STATE.html" xlink:title="&lt;TABLE&gt;" target="_blank">
<polygon fill="none" stroke="black" points="2088.5,-421 1768,-421 1768,-277 2088.5,-277 2088.5,-421"/>
<text text-anchor="start" x="1851.75" y="-399.7" font-family="Times,serif" font-weight="bold" font-size="14.00">cms.medpar_2014.STATE</text>
<text text-anchor="start" x="1804" y="-353.2" font-family="Times,serif" font-size="14.00">SSA standard state code of a</text>
<text text-anchor="start" x="1819.75" y="-336.7" font-family="Times,serif" font-size="14.00">beneficiarys residence.</text>
<polygon fill="none" stroke="black" points="1779,-284 1779,-306.5 2077.5,-306.5 2077.5,-284 1779,-284"/>
<text text-anchor="start" x="1782" y="-290.2" font-family="Times,serif" font-size="14.00">GENERATED ALWAYS AS (STATE_CD) STORED</text>
<polygon fill="none" stroke="black" points="1776,-281 1776,-417 2080.5,-417 2080.5,-281 1776,-281"/>
</a>
</g>
</g>
<!-- cms.medpar_2014.STATE&#45;&gt;medicare.ip.state -->
<g id="edge8" class="edge">
<title>cms.medpar_2014.STATE&#45;&gt;medicare.ip.state</title>
<path fill="none" stroke="chocolate" stroke-width="2" d="M1942.84,-276.77C1950.01,-219.51 1948.71,-141.39 1901.25,-96 1871.97,-68 1378.78,-47.34 1078.88,-37.31"/>
<polygon fill="chocolate" stroke="chocolate" stroke-width="2" points="1079.21,-33.82 1069.1,-36.98 1078.98,-40.81 1079.21,-33.82"/>
<text text-anchor="middle" x="1960.62" y="-162.95" font-family="Times,serif" font-size="14.00">union</text>
</g>
<!-- cms.medpar_2015.STATE&#45;&gt;medicare.ip.state -->
<g id="edge9" class="edge">
<title>cms.medpar_2015.STATE&#45;&gt;medicare.ip.state</title>
<path fill="none" stroke="chocolate" stroke-width="2" d="M786.44,-95.55C795.68,-86.27 804.85,-77.07 813.25,-68.64"/>
<polygon fill="chocolate" stroke="chocolate" stroke-width="2" points="815.66,-71.18 820.24,-61.62 810.7,-66.24 815.66,-71.18"/>
<text text-anchor="middle" x="820.62" y="-72.45" font-family="Times,serif" font-size="14.00">union</text>
</g>
<!-- cms.medpar_2016.STATE&#45;&gt;medicare.ip.state -->
<g id="edge10" class="edge">
<title>cms.medpar_2016.STATE&#45;&gt;medicare.ip.state</title>
<path fill="none" stroke="chocolate" stroke-width="2" d="M947.99,-95.55C933.15,-85.57 918.45,-75.69 905.16,-66.75"/>
<polygon fill="chocolate" stroke="chocolate" stroke-width="2" points="907.11,-63.84 896.86,-61.17 903.21,-69.65 907.11,-63.84"/>
<text text-anchor="middle" x="936.62" y="-72.45" font-family="Times,serif" font-size="14.00">union</text>
</g>
<!-- cms.medpar_2017.STATE&#45;&gt;medicare.ip.state -->
<g id="edge11" class="edge">
<title>cms.medpar_2017.STATE&#45;&gt;medicare.ip.state</title>
<path fill="none" stroke="chocolate" stroke-width="2" d="M1232.51,-98.81C1229.41,-97.84 1226.32,-96.9 1223.25,-96 1176.21,-82.22 1124.93,-70.9 1075.89,-61.79"/>
<polygon fill="chocolate" stroke="chocolate" stroke-width="2" points="1076.59,-58.36 1066.12,-60 1075.33,-65.24 1076.59,-58.36"/>
<text text-anchor="middle" x="1169.62" y="-72.45" font-family="Times,serif" font-size="14.00">union</text>
</g>
<!-- cms.medpar_2018.STATE&#45;&gt;medicare.ip.state -->
<g id="edge12" class="edge">
<title>cms.medpar_2018.STATE&#45;&gt;medicare.ip.state</title>
<path fill="none" stroke="chocolate" stroke-width="2" d="M1571.61,-98.45C1568.47,-97.59 1565.35,-96.77 1562.25,-96 1403.59,-56.54 1219.68,-40.36 1078.66,-33.94"/>
<polygon fill="chocolate" stroke="chocolate" stroke-width="2" points="1079.18,-30.46 1069.04,-33.51 1078.88,-37.45 1079.18,-30.46"/>
<text text-anchor="middle" x="1492.62" y="-72.45" font-family="Times,serif" font-size="14.00">union</text>
</g>
</g>
</svg>
