<?xml version="1.0" encoding="UTF-8" standalone="no"?>
<!DOCTYPE svg PUBLIC "-//W3C//DTD SVG 1.1//EN"
 "http://www.w3.org/Graphics/SVG/1.1/DTD/svg11.dtd">
<!-- Generated by graphviz version 10.0.1 (20240210.2158)
 -->
<!-- Pages: 1 -->
<svg width="437pt" height="445pt"
 viewBox="0.00 0.00 437.25 445.00" xmlns="http://www.w3.org/2000/svg" xmlns:xlink="http://www.w3.org/1999/xlink">
<g id="graph0" class="graph" transform="scale(1 1) rotate(0) translate(4 441)">
<polygon fill="white" stroke="none" points="-4,4 -4,-441 433.25,-441 433.25,4 -4,4"/>
<!-- medicare._ps.state -->
<g id="node1" class="node">
<title>medicare._ps.state</title>
<g id="a_node1"><a xlink:href="../medicare._ps/state.html" xlink:title="&lt;TABLE&gt;" target="_blank">
<polygon fill="none" stroke="black" points="429.25,-127.5 0,-127.5 0,0 429.25,0 429.25,-127.5"/>
<text text-anchor="start" x="160.62" y="-106.2" font-family="Times,serif" font-weight="bold" font-size="14.00">medicare._ps.state</text>
<text text-anchor="start" x="36" y="-59.7" font-family="Times,serif" font-size="14.00">State Code</text>
<polygon fill="none" stroke="black" points="11,-7 11,-29.5 418.25,-29.5 418.25,-7 11,-7"/>
<text text-anchor="start" x="14" y="-13.2" font-family="Times,serif" font-size="14.00">(SELECT state_id FROM public.us_states as s WHERE s.ssa2 = &quot;state&quot;)</text>
<polygon fill="none" stroke="black" points="8,-4 8,-123.5 421.25,-123.5 421.25,-4 8,-4"/>
</a>
</g>
</g>
<!-- medicare.ps.state -->
<g id="node2" class="node">
<title>medicare.ps.state</title>
<g id="a_node2"><a xlink:href="../medicare.ps/state.html" xlink:title="&lt;TABLE&gt;" target="_blank">
<polygon fill="none" stroke="black" points="429.25,-292 0,-292 0,-164.5 429.25,-164.5 429.25,-292"/>
<text text-anchor="start" x="164" y="-270.7" font-family="Times,serif" font-weight="bold" font-size="14.00">medicare.ps.state</text>
<text text-anchor="start" x="36" y="-224.2" font-family="Times,serif" font-size="14.00">State Code</text>
<polygon fill="none" stroke="black" points="11,-171.5 11,-194 418.25,-194 418.25,-171.5 11,-171.5"/>
<text text-anchor="start" x="14" y="-177.7" font-family="Times,serif" font-size="14.00">(SELECT state_id FROM public.us_states as s WHERE s.ssa2 = &quot;state&quot;)</text>
<polygon fill="none" stroke="black" points="8,-168.5 8,-288 421.25,-288 421.25,-168.5 8,-168.5"/>
</a>
</g>
</g>
<!-- medicare.ps.state&#45;&gt;medicare._ps.state -->
<g id="edge1" class="edge">
<title>medicare.ps.state&#45;&gt;medicare._ps.state</title>
<path fill="none" stroke="black" d="M214.62,-164.42C214.62,-156.2 214.62,-147.7 214.62,-139.3"/>
<polygon fill="black" stroke="black" points="218.13,-139.46 214.63,-129.46 211.13,-139.46 218.13,-139.46"/>
<text text-anchor="middle" x="234.12" y="-140.95" font-family="Times,serif" font-size="14.00">Copied</text>
</g>
<!-- medicare.ps.state_parent -->
<g id="node3" class="node">
<title>medicare.ps.state_parent</title>
<g id="a_node3"><a xlink:href="../medicare.ps/state.html" xlink:title="8 incoming links (columns)" target="_blank">
<path fill="yellow" stroke="black" d="M322.62,-427.18C322.62,-432.6 274.22,-437 214.62,-437 155.03,-437 106.62,-432.6 106.62,-427.18 106.62,-427.18 106.62,-338.82 106.62,-338.82 106.62,-333.4 155.03,-329 214.62,-329 274.22,-329 322.62,-333.4 322.62,-338.82 322.62,-338.82 322.62,-427.18 322.62,-427.18"/>
<path fill="none" stroke="black" d="M322.62,-427.18C322.62,-421.76 274.22,-417.36 214.62,-417.36 155.03,-417.36 106.62,-421.76 106.62,-427.18"/>
<text text-anchor="middle" x="214.62" y="-377.95" font-family="Times,serif" font-size="14.00">8 incoming links (columns)</text>
</a>
</g>
</g>
<!-- medicare.ps.state_parent&#45;&gt;medicare.ps.state -->
<g id="edge2" class="edge">
<title>medicare.ps.state_parent&#45;&gt;medicare.ps.state</title>
<path fill="none" stroke="goldenrod" stroke-width="6" d="M214.62,-328.58C214.62,-322.09 214.62,-315.35 214.62,-308.59"/>
<polygon fill="goldenrod" stroke="goldenrod" stroke-width="6" points="219.88,-308.8 214.63,-298.8 209.38,-308.8 219.88,-308.8"/>
</g>
</g>
</svg>
