<?xml version="1.0" encoding="UTF-8" standalone="no"?>
<!DOCTYPE svg PUBLIC "-//W3C//DTD SVG 1.1//EN"
 "http://www.w3.org/Graphics/SVG/1.1/DTD/svg11.dtd">
<!-- Generated by graphviz version 10.0.1 (20240210.2158)
 -->
<!-- Pages: 1 -->
<svg width="451pt" height="454pt"
 viewBox="0.00 0.00 451.38 454.00" xmlns="http://www.w3.org/2000/svg" xmlns:xlink="http://www.w3.org/1999/xlink">
<g id="graph0" class="graph" transform="scale(1 1) rotate(0) translate(4 450)">
<polygon fill="white" stroke="none" points="-4,4 -4,-450 447.38,-450 447.38,4 -4,4"/>
<!-- medicare.enrollments.state -->
<g id="node1" class="node">
<title>medicare.enrollments.state</title>
<g id="a_node1"><a xlink:href="../medicare.enrollments/state.html" xlink:title="&lt;TABLE&gt;" target="_blank">
<polygon fill="none" stroke="black" points="306.38,-36 122.88,-36 122.88,0 306.38,0 306.38,-36"/>
<text text-anchor="start" x="135.88" y="-13.95" font-family="Times,serif" font-weight="bold" font-size="14.00">medicare.enrollments.state</text>
<polygon fill="none" stroke="black" points="130.88,-4.75 130.88,-31.25 298.38,-31.25 298.38,-4.75 130.88,-4.75"/>
</a>
</g>
</g>
<!-- medicare._enrollments.state -->
<g id="node2" class="node">
<title>medicare._enrollments.state</title>
<g id="a_node2"><a xlink:href="../medicare._enrollments/state.html" xlink:title="&lt;TABLE&gt;" target="_blank">
<polygon fill="none" stroke="black" points="309.75,-109 119.5,-109 119.5,-73 309.75,-73 309.75,-109"/>
<text text-anchor="start" x="132.5" y="-86.95" font-family="Times,serif" font-weight="bold" font-size="14.00">medicare._enrollments.state</text>
<polygon fill="none" stroke="black" points="127.5,-77.75 127.5,-104.25 301.75,-104.25 301.75,-77.75 127.5,-77.75"/>
</a>
</g>
</g>
<!-- medicare._enrollments.state&#45;&gt;medicare.enrollments.state -->
<g id="edge1" class="edge">
<title>medicare._enrollments.state&#45;&gt;medicare.enrollments.state</title>
<path fill="none" stroke="black" d="M214.62,-72.81C214.62,-65.23 214.62,-56.1 214.62,-47.54"/>
<polygon fill="black" stroke="black" points="218.13,-47.54 214.63,-37.54 211.13,-47.54 218.13,-47.54"/>
<text text-anchor="middle" x="234.12" y="-49.45" font-family="Times,serif" font-size="14.00">Copied</text>
</g>
<!-- medicare._ps.state -->
<g id="node3" class="node">
<title>medicare._ps.state</title>
<g id="a_node3"><a xlink:href="../medicare._ps/state.html" xlink:title="&lt;TABLE&gt;" target="_blank">
<polygon fill="none" stroke="black" points="429.25,-205 0,-205 0,-146 429.25,-146 429.25,-205"/>
<text text-anchor="start" x="160.62" y="-183.7" font-family="Times,serif" font-weight="bold" font-size="14.00">medicare._ps.state</text>
<polygon fill="none" stroke="black" points="11,-153 11,-175.5 418.25,-175.5 418.25,-153 11,-153"/>
<text text-anchor="start" x="14" y="-159.2" font-family="Times,serif" font-size="14.00">(SELECT state_id FROM public.us_states as s WHERE s.ssa2 = &quot;state&quot;)</text>
<polygon fill="none" stroke="black" points="8,-150 8,-201 421.25,-201 421.25,-150 8,-150"/>
</a>
</g>
</g>
<!-- medicare._ps.state&#45;&gt;medicare._enrollments.state -->
<g id="edge2" class="edge">
<title>medicare._ps.state&#45;&gt;medicare._enrollments.state</title>
<path fill="none" stroke="blue" stroke-width="5" d="M214.62,-145.65C214.62,-139.13 214.62,-132.17 214.62,-125.48"/>
<polygon fill="blue" stroke="blue" stroke-width="5" points="219,-125.65 214.63,-115.65 210.25,-125.65 219,-125.65"/>
<text text-anchor="middle" x="329" y="-122.45" font-family="Times,serif" font-size="14.00">	 &#160;Aggregated On bene_id, year, state</text>
</g>
<!-- medicare.ps.state -->
<g id="node4" class="node">
<title>medicare.ps.state</title>
<g id="a_node4"><a xlink:href="../medicare.ps/state.html" xlink:title="&lt;TABLE&gt;" target="_blank">
<polygon fill="none" stroke="black" points="429.25,-301 0,-301 0,-242 429.25,-242 429.25,-301"/>
<text text-anchor="start" x="164" y="-279.7" font-family="Times,serif" font-weight="bold" font-size="14.00">medicare.ps.state</text>
<polygon fill="none" stroke="black" points="11,-249 11,-271.5 418.25,-271.5 418.25,-249 11,-249"/>
<text text-anchor="start" x="14" y="-255.2" font-family="Times,serif" font-size="14.00">(SELECT state_id FROM public.us_states as s WHERE s.ssa2 = &quot;state&quot;)</text>
<polygon fill="none" stroke="black" points="8,-246 8,-297 421.25,-297 421.25,-246 8,-246"/>
</a>
</g>
</g>
<!-- medicare.ps.state&#45;&gt;medicare._ps.state -->
<g id="edge3" class="edge">
<title>medicare.ps.state&#45;&gt;medicare._ps.state</title>
<path fill="none" stroke="black" d="M214.62,-241.53C214.62,-233.68 214.62,-225.05 214.62,-216.7"/>
<polygon fill="black" stroke="black" points="218.13,-216.73 214.63,-206.73 211.13,-216.73 218.13,-216.73"/>
<text text-anchor="middle" x="234.12" y="-218.45" font-family="Times,serif" font-size="14.00">Copied</text>
</g>
<!-- medicare.ps.state_parent -->
<g id="node5" class="node">
<title>medicare.ps.state_parent</title>
<g id="a_node5"><a xlink:href="../medicare.ps/state.html" xlink:title="8 incoming links (columns)" target="_blank">
<path fill="yellow" stroke="black" d="M322.62,-436.18C322.62,-441.6 274.22,-446 214.62,-446 155.03,-446 106.62,-441.6 106.62,-436.18 106.62,-436.18 106.62,-347.82 106.62,-347.82 106.62,-342.4 155.03,-338 214.62,-338 274.22,-338 322.62,-342.4 322.62,-347.82 322.62,-347.82 322.62,-436.18 322.62,-436.18"/>
<path fill="none" stroke="black" d="M322.62,-436.18C322.62,-430.76 274.22,-426.36 214.62,-426.36 155.03,-426.36 106.62,-430.76 106.62,-436.18"/>
<text text-anchor="middle" x="214.62" y="-386.95" font-family="Times,serif" font-size="14.00">8 incoming links (columns)</text>
</a>
</g>
</g>
<!-- medicare.ps.state_parent&#45;&gt;medicare.ps.state -->
<g id="edge4" class="edge">
<title>medicare.ps.state_parent&#45;&gt;medicare.ps.state</title>
<path fill="none" stroke="goldenrod" stroke-width="6" d="M214.62,-337.64C214.62,-330.89 214.62,-324.03 214.62,-317.42"/>
<polygon fill="goldenrod" stroke="goldenrod" stroke-width="6" points="219.88,-317.71 214.63,-307.71 209.38,-317.71 219.88,-317.71"/>
</g>
</g>
</svg>
