<?xml version="1.0" encoding="UTF-8" standalone="no"?>
<!DOCTYPE svg PUBLIC "-//W3C//DTD SVG 1.1//EN"
 "http://www.w3.org/Graphics/SVG/1.1/DTD/svg11.dtd">
<!-- Generated by graphviz version 10.0.1 (20240210.2158)
 -->
<!-- Pages: 1 -->
<svg width="767pt" height="404pt"
 viewBox="0.00 0.00 766.50 404.00" xmlns="http://www.w3.org/2000/svg" xmlns:xlink="http://www.w3.org/1999/xlink">
<g id="graph0" class="graph" transform="scale(1 1) rotate(0) translate(4 400)">
<polygon fill="white" stroke="none" points="-4,4 -4,-400 762.5,-400 762.5,4 -4,4"/>
<!-- medicare._enrollments.state_count -->
<g id="node1" class="node">
<title>medicare._enrollments.state_count</title>
<g id="a_node1"><a xlink:href="../medicare._enrollments/state_count.html" xlink:title="&lt;TABLE&gt;" target="_blank">
<polygon fill="none" stroke="black" points="758.5,-59 0,-59 0,0 758.5,0 758.5,-59"/>
<text text-anchor="start" x="277.62" y="-37.7" font-family="Times,serif" font-weight="bold" font-size="14.00">medicare._enrollments.state_count</text>
<polygon fill="none" stroke="black" points="11,-7 11,-29.5 747.5,-29.5 747.5,-7 11,-7"/>
<text text-anchor="start" x="14" y="-13.2" font-family="Times,serif" font-size="14.00">( &#160;SELECT COUNT(distinct state) &#160;FROM medicare._ps AS ps2 &#160;WHERE &#160;&#160;&#160;_ps.bene_id = ps2.bene_id &#160;&#160;&#160;AND _ps.year = ps2.year)</text>
<polygon fill="none" stroke="black" points="8,-4 8,-55 750.5,-55 750.5,-4 8,-4"/>
</a>
</g>
</g>
<!-- medicare._ps.state -->
<g id="node2" class="node">
<title>medicare._ps.state</title>
<g id="a_node2"><a xlink:href="../medicare._ps/state.html" xlink:title="&lt;TABLE&gt;" target="_blank">
<polygon fill="none" stroke="black" points="593.88,-155 164.62,-155 164.62,-96 593.88,-96 593.88,-155"/>
<text text-anchor="start" x="325.25" y="-133.7" font-family="Times,serif" font-weight="bold" font-size="14.00">medicare._ps.state</text>
<polygon fill="none" stroke="black" points="175.62,-103 175.62,-125.5 582.88,-125.5 582.88,-103 175.62,-103"/>
<text text-anchor="start" x="178.62" y="-109.2" font-family="Times,serif" font-size="14.00">(SELECT state_id FROM public.us_states as s WHERE s.ssa2 = &quot;state&quot;)</text>
<polygon fill="none" stroke="black" points="172.62,-100 172.62,-151 585.88,-151 585.88,-100 172.62,-100"/>
</a>
</g>
</g>
<!-- medicare._ps.state&#45;&gt;medicare._enrollments.state_count -->
<g id="edge1" class="edge">
<title>medicare._ps.state&#45;&gt;medicare._enrollments.state_count</title>
<path fill="none" stroke="blue" stroke-width="5" d="M379.25,-95.53C379.25,-89.13 379.25,-82.2 379.25,-75.33"/>
<polygon fill="blue" stroke="blue" stroke-width="5" points="383.63,-75.45 379.25,-65.45 374.88,-75.45 383.63,-75.45"/>
<text text-anchor="middle" x="493.62" y="-72.45" font-family="Times,serif" font-size="14.00">	 &#160;Aggregated On bene_id, year, state</text>
</g>
<!-- medicare.ps.state -->
<g id="node3" class="node">
<title>medicare.ps.state</title>
<g id="a_node3"><a xlink:href="../medicare.ps/state.html" xlink:title="&lt;TABLE&gt;" target="_blank">
<polygon fill="none" stroke="black" points="593.88,-251 164.62,-251 164.62,-192 593.88,-192 593.88,-251"/>
<text text-anchor="start" x="328.62" y="-229.7" font-family="Times,serif" font-weight="bold" font-size="14.00">medicare.ps.state</text>
<polygon fill="none" stroke="black" points="175.62,-199 175.62,-221.5 582.88,-221.5 582.88,-199 175.62,-199"/>
<text text-anchor="start" x="178.62" y="-205.2" font-family="Times,serif" font-size="14.00">(SELECT state_id FROM public.us_states as s WHERE s.ssa2 = &quot;state&quot;)</text>
<polygon fill="none" stroke="black" points="172.62,-196 172.62,-247 585.88,-247 585.88,-196 172.62,-196"/>
</a>
</g>
</g>
<!-- medicare.ps.state&#45;&gt;medicare._ps.state -->
<g id="edge2" class="edge">
<title>medicare.ps.state&#45;&gt;medicare._ps.state</title>
<path fill="none" stroke="black" d="M379.25,-191.53C379.25,-183.68 379.25,-175.05 379.25,-166.7"/>
<polygon fill="black" stroke="black" points="382.75,-166.73 379.25,-156.73 375.75,-166.73 382.75,-166.73"/>
<text text-anchor="middle" x="398.75" y="-168.45" font-family="Times,serif" font-size="14.00">Copied</text>
</g>
<!-- medicare.ps.state_parent -->
<g id="node4" class="node">
<title>medicare.ps.state_parent</title>
<g id="a_node4"><a xlink:href="../medicare.ps/state.html" xlink:title="8 incoming links (columns)" target="_blank">
<path fill="yellow" stroke="black" d="M487.25,-386.18C487.25,-391.6 438.84,-396 379.25,-396 319.66,-396 271.25,-391.6 271.25,-386.18 271.25,-386.18 271.25,-297.82 271.25,-297.82 271.25,-292.4 319.66,-288 379.25,-288 438.84,-288 487.25,-292.4 487.25,-297.82 487.25,-297.82 487.25,-386.18 487.25,-386.18"/>
<path fill="none" stroke="black" d="M487.25,-386.18C487.25,-380.76 438.84,-376.36 379.25,-376.36 319.66,-376.36 271.25,-380.76 271.25,-386.18"/>
<text text-anchor="middle" x="379.25" y="-336.95" font-family="Times,serif" font-size="14.00">8 incoming links (columns)</text>
</a>
</g>
</g>
<!-- medicare.ps.state_parent&#45;&gt;medicare.ps.state -->
<g id="edge3" class="edge">
<title>medicare.ps.state_parent&#45;&gt;medicare.ps.state</title>
<path fill="none" stroke="goldenrod" stroke-width="6" d="M379.25,-287.64C379.25,-280.89 379.25,-274.03 379.25,-267.42"/>
<polygon fill="goldenrod" stroke="goldenrod" stroke-width="6" points="384.5,-267.71 379.25,-257.71 374,-267.71 384.5,-267.71"/>
</g>
</g>
</svg>
