<?xml version="1.0" encoding="UTF-8" standalone="no"?>
<!DOCTYPE svg PUBLIC "-//W3C//DTD SVG 1.1//EN"
 "http://www.w3.org/Graphics/SVG/1.1/DTD/svg11.dtd">
<!-- Generated by graphviz version 10.0.1 (20240210.2158)
 -->
<!-- Pages: 1 -->
<svg width="2097pt" height="396pt"
 viewBox="0.00 0.00 2096.50 396.00" xmlns="http://www.w3.org/2000/svg" xmlns:xlink="http://www.w3.org/1999/xlink">
<g id="graph0" class="graph" transform="scale(1 1) rotate(0) translate(4 392)">
<polygon fill="white" stroke="none" points="-4,4 -4,-392 2092.5,-392 2092.5,4 -4,4"/>
<!-- medicare.ps.state -->
<g id="node1" class="node">
<title>medicare.ps.state</title>
<g id="a_node1"><a xlink:href="../medicare.ps/state.html" xlink:title="&lt;TABLE&gt;" target="_blank">
<polygon fill="none" stroke="black" points="1065.88,-59 636.62,-59 636.62,0 1065.88,0 1065.88,-59"/>
<text text-anchor="start" x="800.62" y="-37.7" font-family="Times,serif" font-weight="bold" font-size="14.00">medicare.ps.state</text>
<polygon fill="none" stroke="black" points="647.62,-7 647.62,-29.5 1054.88,-29.5 1054.88,-7 647.62,-7"/>
<text text-anchor="start" x="650.62" y="-13.2" font-family="Times,serif" font-size="14.00">(SELECT state_id FROM public.us_states as s WHERE s.ssa2 = &quot;state&quot;)</text>
<polygon fill="none" stroke="black" points="644.62,-4 644.62,-55 1057.88,-55 1057.88,-4 644.62,-4"/>
</a>
</g>
</g>
<!-- cms.mbsf_ab_2011.STATE -->
<g id="node2" class="node">
<title>cms.mbsf_ab_2011.STATE</title>
<g id="a_node2"><a xlink:href="../cms.mbsf_ab_2011/STATE.html" xlink:title="&lt;TABLE&gt;" target="_blank">
<polygon fill="none" stroke="black" points="320.5,-388 0,-388 0,-260.5 320.5,-260.5 320.5,-388"/>
<text text-anchor="start" x="81.88" y="-366.7" font-family="Times,serif" font-weight="bold" font-size="14.00">cms.mbsf_ab_2011.STATE</text>
<text text-anchor="start" x="36" y="-320.2" font-family="Times,serif" font-size="14.00">State Code</text>
<polygon fill="none" stroke="black" points="11,-267.5 11,-290 309.5,-290 309.5,-267.5 11,-267.5"/>
<text text-anchor="start" x="14" y="-273.7" font-family="Times,serif" font-size="14.00">GENERATED ALWAYS AS (STATE_CD) STORED</text>
<polygon fill="none" stroke="black" points="8,-264.5 8,-384 312.5,-384 312.5,-264.5 8,-264.5"/>
</a>
</g>
</g>
<!-- cms.mbsf_ab_2011.STATE&#45;&gt;medicare.ps.state -->
<g id="edge5" class="edge">
<title>cms.mbsf_ab_2011.STATE&#45;&gt;medicare.ps.state</title>
<path fill="none" stroke="chocolate" stroke-width="2" d="M224.65,-260.25C294.2,-197.55 411.62,-106.54 534.25,-77 563,-70.07 593.49,-64.02 623.75,-58.77"/>
<polygon fill="chocolate" stroke="chocolate" stroke-width="2" points="623.98,-62.28 633.25,-57.16 622.81,-55.38 623.98,-62.28"/>
<text text-anchor="middle" x="489.62" y="-154.7" font-family="Times,serif" font-size="14.00">union</text>
</g>
<!-- cms.mbsf_ab_2012.STATE -->
<g id="node3" class="node">
<title>cms.mbsf_ab_2012.STATE</title>
<g id="a_node3"><a xlink:href="../cms.mbsf_ab_2012/STATE.html" xlink:title="&lt;TABLE&gt;" target="_blank">
<polygon fill="none" stroke="black" points="659.5,-388 339,-388 339,-260.5 659.5,-260.5 659.5,-388"/>
<text text-anchor="start" x="420.5" y="-366.7" font-family="Times,serif" font-weight="bold" font-size="14.00">cms.mbsf_ab_2012.STATE</text>
<text text-anchor="start" x="375" y="-320.2" font-family="Times,serif" font-size="14.00">State Code</text>
<polygon fill="none" stroke="black" points="350,-267.5 350,-290 648.5,-290 648.5,-267.5 350,-267.5"/>
<text text-anchor="start" x="353" y="-273.7" font-family="Times,serif" font-size="14.00">GENERATED ALWAYS AS (STATE_CD) STORED</text>
<polygon fill="none" stroke="black" points="347,-264.5 347,-384 651.5,-384 651.5,-264.5 347,-264.5"/>
</a>
</g>
</g>
<!-- cms.mbsf_ab_2012.STATE&#45;&gt;medicare.ps.state -->
<g id="edge6" class="edge">
<title>cms.mbsf_ab_2012.STATE&#45;&gt;medicare.ps.state</title>
<path fill="none" stroke="chocolate" stroke-width="2" d="M486.02,-260.17C479.38,-210.59 479.05,-142.38 514.25,-96 529.77,-75.55 573.01,-61.45 623.55,-51.73"/>
<polygon fill="chocolate" stroke="chocolate" stroke-width="2" points="624,-55.21 633.21,-49.96 622.74,-48.32 624,-55.21"/>
<text text-anchor="middle" x="529.62" y="-154.7" font-family="Times,serif" font-size="14.00">union</text>
</g>
<!-- cms.mbsf_ab_2013.STATE -->
<g id="node4" class="node">
<title>cms.mbsf_ab_2013.STATE</title>
<g id="a_node4"><a xlink:href="../cms.mbsf_ab_2013/STATE.html" xlink:title="&lt;TABLE&gt;" target="_blank">
<polygon fill="none" stroke="black" points="1214.5,-388 894,-388 894,-260.5 1214.5,-260.5 1214.5,-388"/>
<text text-anchor="start" x="975.5" y="-366.7" font-family="Times,serif" font-weight="bold" font-size="14.00">cms.mbsf_ab_2013.STATE</text>
<text text-anchor="start" x="930" y="-320.2" font-family="Times,serif" font-size="14.00">State Code</text>
<polygon fill="none" stroke="black" points="905,-267.5 905,-290 1203.5,-290 1203.5,-267.5 905,-267.5"/>
<text text-anchor="start" x="908" y="-273.7" font-family="Times,serif" font-size="14.00">GENERATED ALWAYS AS (STATE_CD) STORED</text>
<polygon fill="none" stroke="black" points="902,-264.5 902,-384 1206.5,-384 1206.5,-264.5 902,-264.5"/>
</a>
</g>
</g>
<!-- cms.mbsf_ab_2013.STATE&#45;&gt;medicare.ps.state -->
<g id="edge7" class="edge">
<title>cms.mbsf_ab_2013.STATE&#45;&gt;medicare.ps.state</title>
<path fill="none" stroke="chocolate" stroke-width="2" d="M893.58,-296.8C748.7,-272.18 556.58,-237.26 545.25,-223.5 509.24,-179.75 509.62,-140.06 545.25,-96 557.6,-80.72 587.4,-68.85 623.8,-59.68"/>
<polygon fill="chocolate" stroke="chocolate" stroke-width="2" points="624.52,-63.1 633.43,-57.37 622.89,-56.29 624.52,-63.1"/>
<text text-anchor="middle" x="560.62" y="-154.7" font-family="Times,serif" font-size="14.00">union</text>
</g>
<!-- cms.mbsf_abcd_2015.STATE -->
<g id="node6" class="node">
<title>cms.mbsf_abcd_2015.STATE</title>
<g id="a_node6"><a xlink:href="../cms.mbsf_abcd_2015/STATE.html" xlink:title="&lt;TABLE&gt;" target="_blank">
<polygon fill="none" stroke="black" points="875.5,-223.5 555,-223.5 555,-96 875.5,-96 875.5,-223.5"/>
<text text-anchor="start" x="629.75" y="-202.2" font-family="Times,serif" font-weight="bold" font-size="14.00">cms.mbsf_abcd_2015.STATE</text>
<text text-anchor="start" x="591" y="-155.7" font-family="Times,serif" font-size="14.00">SSA State Code</text>
<polygon fill="none" stroke="black" points="566,-103 566,-125.5 864.5,-125.5 864.5,-103 566,-103"/>
<text text-anchor="start" x="569" y="-109.2" font-family="Times,serif" font-size="14.00">GENERATED ALWAYS AS (STATE_CD) STORED</text>
<polygon fill="none" stroke="black" points="563,-100 563,-219.5 867.5,-219.5 867.5,-100 563,-100"/>
</a>
</g>
</g>
<!-- cms.mbsf_ab_2013.STATE&#45;&gt;cms.mbsf_abcd_2015.STATE -->
<!-- cms.mbsf_abcd_2016.STATE -->
<g id="node7" class="node">
<title>cms.mbsf_abcd_2016.STATE</title>
<g id="a_node7"><a xlink:href="../cms.mbsf_abcd_2016/STATE.html" xlink:title="&lt;TABLE&gt;" target="_blank">
<polygon fill="none" stroke="black" points="1214.5,-223.5 894,-223.5 894,-96 1214.5,-96 1214.5,-223.5"/>
<text text-anchor="start" x="968.75" y="-202.2" font-family="Times,serif" font-weight="bold" font-size="14.00">cms.mbsf_abcd_2016.STATE</text>
<text text-anchor="start" x="930" y="-155.7" font-family="Times,serif" font-size="14.00">SSA State Code</text>
<polygon fill="none" stroke="black" points="905,-103 905,-125.5 1203.5,-125.5 1203.5,-103 905,-103"/>
<text text-anchor="start" x="908" y="-109.2" font-family="Times,serif" font-size="14.00">GENERATED ALWAYS AS (STATE_CD) STORED</text>
<polygon fill="none" stroke="black" points="902,-100 902,-219.5 1206.5,-219.5 1206.5,-100 902,-100"/>
</a>
</g>
</g>
<!-- cms.mbsf_ab_2013.STATE&#45;&gt;cms.mbsf_abcd_2016.STATE -->
<!-- cms.mbsf_abcd_2017.STATE -->
<g id="node8" class="node">
<title>cms.mbsf_abcd_2017.STATE</title>
<g id="a_node8"><a xlink:href="../cms.mbsf_abcd_2017/STATE.html" xlink:title="&lt;TABLE&gt;" target="_blank">
<polygon fill="none" stroke="black" points="1553.5,-223.5 1233,-223.5 1233,-96 1553.5,-96 1553.5,-223.5"/>
<text text-anchor="start" x="1307.75" y="-202.2" font-family="Times,serif" font-weight="bold" font-size="14.00">cms.mbsf_abcd_2017.STATE</text>
<text text-anchor="start" x="1269" y="-155.7" font-family="Times,serif" font-size="14.00">SSA State Code</text>
<polygon fill="none" stroke="black" points="1244,-103 1244,-125.5 1542.5,-125.5 1542.5,-103 1244,-103"/>
<text text-anchor="start" x="1247" y="-109.2" font-family="Times,serif" font-size="14.00">GENERATED ALWAYS AS (STATE_CD) STORED</text>
<polygon fill="none" stroke="black" points="1241,-100 1241,-219.5 1545.5,-219.5 1545.5,-100 1241,-100"/>
</a>
</g>
</g>
<!-- cms.mbsf_ab_2013.STATE&#45;&gt;cms.mbsf_abcd_2017.STATE -->
<!-- cms.mbsf_abcd_2018.STATE -->
<g id="node9" class="node">
<title>cms.mbsf_abcd_2018.STATE</title>
<g id="a_node9"><a xlink:href="../cms.mbsf_abcd_2018/STATE.html" xlink:title="&lt;TABLE&gt;" target="_blank">
<polygon fill="none" stroke="black" points="1892.5,-223.5 1572,-223.5 1572,-96 1892.5,-96 1892.5,-223.5"/>
<text text-anchor="start" x="1646.75" y="-202.2" font-family="Times,serif" font-weight="bold" font-size="14.00">cms.mbsf_abcd_2018.STATE</text>
<text text-anchor="start" x="1608" y="-155.7" font-family="Times,serif" font-size="14.00">SSA State Code</text>
<polygon fill="none" stroke="black" points="1583,-103 1583,-125.5 1881.5,-125.5 1881.5,-103 1583,-103"/>
<text text-anchor="start" x="1586" y="-109.2" font-family="Times,serif" font-size="14.00">GENERATED ALWAYS AS (STATE_CD) STORED</text>
<polygon fill="none" stroke="black" points="1580,-100 1580,-219.5 1884.5,-219.5 1884.5,-100 1580,-100"/>
</a>
</g>
</g>
<!-- cms.mbsf_ab_2013.STATE&#45;&gt;cms.mbsf_abcd_2018.STATE -->
<!-- cms.mbsf_ab_2014.STATE -->
<g id="node5" class="node">
<title>cms.mbsf_ab_2014.STATE</title>
<g id="a_node5"><a xlink:href="../cms.mbsf_ab_2014/STATE.html" xlink:title="&lt;TABLE&gt;" target="_blank">
<polygon fill="none" stroke="black" points="2088.5,-388 1768,-388 1768,-260.5 2088.5,-260.5 2088.5,-388"/>
<text text-anchor="start" x="1849.5" y="-366.7" font-family="Times,serif" font-weight="bold" font-size="14.00">cms.mbsf_ab_2014.STATE</text>
<text text-anchor="start" x="1804" y="-320.2" font-family="Times,serif" font-size="14.00">State Code</text>
<polygon fill="none" stroke="black" points="1779,-267.5 1779,-290 2077.5,-290 2077.5,-267.5 1779,-267.5"/>
<text text-anchor="start" x="1782" y="-273.7" font-family="Times,serif" font-size="14.00">GENERATED ALWAYS AS (STATE_CD) STORED</text>
<polygon fill="none" stroke="black" points="1776,-264.5 1776,-384 2080.5,-384 2080.5,-264.5 1776,-264.5"/>
</a>
</g>
</g>
<!-- cms.mbsf_ab_2014.STATE&#45;&gt;medicare.ps.state -->
<g id="edge8" class="edge">
<title>cms.mbsf_ab_2014.STATE&#45;&gt;medicare.ps.state</title>
<path fill="none" stroke="chocolate" stroke-width="2" d="M1940.41,-260.21C1946.39,-208.4 1944.7,-137.08 1901.25,-96 1871.82,-68.17 1379.02,-47.46 1079.14,-37.36"/>
<polygon fill="chocolate" stroke="chocolate" stroke-width="2" points="1079.48,-33.87 1069.37,-37.04 1079.25,-40.87 1079.48,-33.87"/>
<text text-anchor="middle" x="1957.62" y="-154.7" font-family="Times,serif" font-size="14.00">union</text>
</g>
<!-- cms.mbsf_abcd_2015.STATE&#45;&gt;medicare.ps.state -->
<g id="edge9" class="edge">
<title>cms.mbsf_abcd_2015.STATE&#45;&gt;medicare.ps.state</title>
<path fill="none" stroke="chocolate" stroke-width="2" d="M782.05,-95.75C792.13,-86.26 802.23,-76.72 811.49,-68"/>
<polygon fill="chocolate" stroke="chocolate" stroke-width="2" points="813.71,-70.71 818.59,-61.3 808.91,-65.61 813.71,-70.71"/>
<text text-anchor="middle" x="817.62" y="-72.45" font-family="Times,serif" font-size="14.00">union</text>
</g>
<!-- cms.mbsf_abcd_2016.STATE&#45;&gt;medicare.ps.state -->
<g id="edge10" class="edge">
<title>cms.mbsf_abcd_2016.STATE&#45;&gt;medicare.ps.state</title>
<path fill="none" stroke="chocolate" stroke-width="2" d="M954.24,-95.56C938.29,-85.49 922.29,-75.38 907.82,-66.24"/>
<polygon fill="chocolate" stroke="chocolate" stroke-width="2" points="909.95,-63.45 899.63,-61.07 906.22,-69.37 909.95,-63.45"/>
<text text-anchor="middle" x="941.62" y="-72.45" font-family="Times,serif" font-size="14.00">union</text>
</g>
<!-- cms.mbsf_abcd_2017.STATE&#45;&gt;medicare.ps.state -->
<g id="edge11" class="edge">
<title>cms.mbsf_abcd_2017.STATE&#45;&gt;medicare.ps.state</title>
<path fill="none" stroke="chocolate" stroke-width="2" d="M1232.88,-98.69C1229.65,-97.76 1226.44,-96.86 1223.25,-96 1173.25,-82.49 1118.69,-71.08 1067.14,-61.76"/>
<polygon fill="chocolate" stroke="chocolate" stroke-width="2" points="1067.89,-58.34 1057.43,-60.03 1066.66,-65.23 1067.89,-58.34"/>
<text text-anchor="middle" x="1163.62" y="-72.45" font-family="Times,serif" font-size="14.00">union</text>
</g>
<!-- cms.mbsf_abcd_2018.STATE&#45;&gt;medicare.ps.state -->
<g id="edge12" class="edge">
<title>cms.mbsf_abcd_2018.STATE&#45;&gt;medicare.ps.state</title>
<path fill="none" stroke="chocolate" stroke-width="2" d="M1571.51,-98.2C1568.41,-97.43 1565.32,-96.69 1562.25,-96 1403.09,-59.95 1219.59,-43.66 1078.88,-36.33"/>
<polygon fill="chocolate" stroke="chocolate" stroke-width="2" points="1079.45,-32.86 1069.28,-35.85 1079.09,-39.85 1079.45,-32.86"/>
<text text-anchor="middle" x="1482.62" y="-72.45" font-family="Times,serif" font-size="14.00">union</text>
</g>
</g>
</svg>
