<?xml version="1.0" encoding="UTF-8" standalone="no"?>
<!DOCTYPE svg PUBLIC "-//W3C//DTD SVG 1.1//EN"
 "http://www.w3.org/Graphics/SVG/1.1/DTD/svg11.dtd">
<!-- Generated by graphviz version 10.0.1 (20240210.2158)
 -->
<!-- Pages: 1 -->
<svg width="767pt" height="477pt"
 viewBox="0.00 0.00 766.50 477.00" xmlns="http://www.w3.org/2000/svg" xmlns:xlink="http://www.w3.org/1999/xlink">
<g id="graph0" class="graph" transform="scale(1 1) rotate(0) translate(4 473)">
<polygon fill="white" stroke="none" points="-4,4 -4,-473 762.5,-473 762.5,4 -4,4"/>
<!-- medicare.enrollments.state_count -->
<g id="node1" class="node">
<title>medicare.enrollments.state_count</title>
<g id="a_node1"><a xlink:href="../medicare.enrollments/state_count.html" xlink:title="&lt;TABLE&gt;" target="_blank">
<polygon fill="none" stroke="black" points="758.5,-59 0,-59 0,0 758.5,0 758.5,-59"/>
<text text-anchor="start" x="281" y="-37.7" font-family="Times,serif" font-weight="bold" font-size="14.00">medicare.enrollments.state_count</text>
<polygon fill="none" stroke="black" points="11,-7 11,-29.5 747.5,-29.5 747.5,-7 11,-7"/>
<text text-anchor="start" x="14" y="-13.2" font-family="Times,serif" font-size="14.00">( &#160;SELECT COUNT(distinct state) &#160;FROM medicare._ps AS ps2 &#160;WHERE &#160;&#160;&#160;_ps.bene_id = ps2.bene_id &#160;&#160;&#160;AND _ps.year = ps2.year)</text>
<polygon fill="none" stroke="black" points="8,-4 8,-55 750.5,-55 750.5,-4 8,-4"/>
</a>
</g>
</g>
<!-- medicare._enrollments.state -->
<g id="node2" class="node">
<title>medicare._enrollments.state</title>
<g id="a_node2"><a xlink:href="../medicare._enrollments/state.html" xlink:title="&lt;TABLE&gt;" target="_blank">
<polygon fill="none" stroke="black" points="474.38,-132 284.12,-132 284.12,-96 474.38,-96 474.38,-132"/>
<text text-anchor="start" x="297.12" y="-109.95" font-family="Times,serif" font-weight="bold" font-size="14.00">medicare._enrollments.state</text>
<polygon fill="none" stroke="black" points="292.12,-100.75 292.12,-127.25 466.38,-127.25 466.38,-100.75 292.12,-100.75"/>
</a>
</g>
</g>
<!-- medicare._enrollments.state&#45;&gt;medicare.enrollments.state_count -->
<g id="edge1" class="edge">
<title>medicare._enrollments.state&#45;&gt;medicare.enrollments.state_count</title>
<path fill="none" stroke="black" d="M379.25,-95.5C379.25,-88.2 379.25,-79.4 379.25,-70.65"/>
<polygon fill="black" stroke="black" points="382.75,-70.85 379.25,-60.85 375.75,-70.85 382.75,-70.85"/>
<text text-anchor="middle" x="398.75" y="-72.45" font-family="Times,serif" font-size="14.00">Copied</text>
</g>
<!-- medicare._ps.state -->
<g id="node3" class="node">
<title>medicare._ps.state</title>
<g id="a_node3"><a xlink:href="../medicare._ps/state.html" xlink:title="&lt;TABLE&gt;" target="_blank">
<polygon fill="none" stroke="black" points="593.88,-228 164.62,-228 164.62,-169 593.88,-169 593.88,-228"/>
<text text-anchor="start" x="325.25" y="-206.7" font-family="Times,serif" font-weight="bold" font-size="14.00">medicare._ps.state</text>
<polygon fill="none" stroke="black" points="175.62,-176 175.62,-198.5 582.88,-198.5 582.88,-176 175.62,-176"/>
<text text-anchor="start" x="178.62" y="-182.2" font-family="Times,serif" font-size="14.00">(SELECT state_id FROM public.us_states as s WHERE s.ssa2 = &quot;state&quot;)</text>
<polygon fill="none" stroke="black" points="172.62,-173 172.62,-224 585.88,-224 585.88,-173 172.62,-173"/>
</a>
</g>
</g>
<!-- medicare._ps.state&#45;&gt;medicare._enrollments.state -->
<g id="edge2" class="edge">
<title>medicare._ps.state&#45;&gt;medicare._enrollments.state</title>
<path fill="none" stroke="blue" stroke-width="5" d="M379.25,-168.65C379.25,-162.13 379.25,-155.17 379.25,-148.48"/>
<polygon fill="blue" stroke="blue" stroke-width="5" points="383.63,-148.65 379.25,-138.65 374.88,-148.65 383.63,-148.65"/>
<text text-anchor="middle" x="493.62" y="-145.45" font-family="Times,serif" font-size="14.00">	 &#160;Aggregated On bene_id, year, state</text>
</g>
<!-- medicare.ps.state -->
<g id="node4" class="node">
<title>medicare.ps.state</title>
<g id="a_node4"><a xlink:href="../medicare.ps/state.html" xlink:title="&lt;TABLE&gt;" target="_blank">
<polygon fill="none" stroke="black" points="593.88,-324 164.62,-324 164.62,-265 593.88,-265 593.88,-324"/>
<text text-anchor="start" x="328.62" y="-302.7" font-family="Times,serif" font-weight="bold" font-size="14.00">medicare.ps.state</text>
<polygon fill="none" stroke="black" points="175.62,-272 175.62,-294.5 582.88,-294.5 582.88,-272 175.62,-272"/>
<text text-anchor="start" x="178.62" y="-278.2" font-family="Times,serif" font-size="14.00">(SELECT state_id FROM public.us_states as s WHERE s.ssa2 = &quot;state&quot;)</text>
<polygon fill="none" stroke="black" points="172.62,-269 172.62,-320 585.88,-320 585.88,-269 172.62,-269"/>
</a>
</g>
</g>
<!-- medicare.ps.state&#45;&gt;medicare._ps.state -->
<g id="edge3" class="edge">
<title>medicare.ps.state&#45;&gt;medicare._ps.state</title>
<path fill="none" stroke="black" d="M379.25,-264.53C379.25,-256.68 379.25,-248.05 379.25,-239.7"/>
<polygon fill="black" stroke="black" points="382.75,-239.73 379.25,-229.73 375.75,-239.73 382.75,-239.73"/>
<text text-anchor="middle" x="398.75" y="-241.45" font-family="Times,serif" font-size="14.00">Copied</text>
</g>
<!-- medicare.ps.state_parent -->
<g id="node5" class="node">
<title>medicare.ps.state_parent</title>
<g id="a_node5"><a xlink:href="../medicare.ps/state.html" xlink:title="8 incoming links (columns)" target="_blank">
<path fill="yellow" stroke="black" d="M487.25,-459.18C487.25,-464.6 438.84,-469 379.25,-469 319.66,-469 271.25,-464.6 271.25,-459.18 271.25,-459.18 271.25,-370.82 271.25,-370.82 271.25,-365.4 319.66,-361 379.25,-361 438.84,-361 487.25,-365.4 487.25,-370.82 487.25,-370.82 487.25,-459.18 487.25,-459.18"/>
<path fill="none" stroke="black" d="M487.25,-459.18C487.25,-453.76 438.84,-449.36 379.25,-449.36 319.66,-449.36 271.25,-453.76 271.25,-459.18"/>
<text text-anchor="middle" x="379.25" y="-409.95" font-family="Times,serif" font-size="14.00">8 incoming links (columns)</text>
</a>
</g>
</g>
<!-- medicare.ps.state_parent&#45;&gt;medicare.ps.state -->
<g id="edge4" class="edge">
<title>medicare.ps.state_parent&#45;&gt;medicare.ps.state</title>
<path fill="none" stroke="goldenrod" stroke-width="6" d="M379.25,-360.64C379.25,-353.89 379.25,-347.03 379.25,-340.42"/>
<polygon fill="goldenrod" stroke="goldenrod" stroke-width="6" points="384.5,-340.71 379.25,-330.71 374,-340.71 384.5,-340.71"/>
</g>
</g>
</svg>
