<?xml version="1.0" encoding="UTF-8" standalone="no"?>
<!DOCTYPE svg PUBLIC "-//W3C//DTD SVG 1.1//EN"
 "http://www.w3.org/Graphics/SVG/1.1/DTD/svg11.dtd">
<!-- Generated by graphviz version 10.0.1 (20240210.2158)
 -->
<!-- Pages: 1 -->
<svg width="451pt" height="600pt"
 viewBox="0.00 0.00 451.38 600.00" xmlns="http://www.w3.org/2000/svg" xmlns:xlink="http://www.w3.org/1999/xlink">
<g id="graph0" class="graph" transform="scale(1 1) rotate(0) translate(4 596)">
<polygon fill="white" stroke="none" points="-4,4 -4,-596 447.38,-596 447.38,4 -4,4"/>
<!-- medicare.qc_enrollments.state -->
<g id="node1" class="node">
<title>medicare.qc_enrollments.state</title>
<g id="a_node1"><a xlink:href="../medicare.qc_enrollments/state.html" xlink:title="&lt;TABLE&gt;" target="_blank">
<polygon fill="none" stroke="black" points="316.5,-36 112.75,-36 112.75,0 316.5,0 316.5,-36"/>
<text text-anchor="start" x="125.75" y="-13.95" font-family="Times,serif" font-weight="bold" font-size="14.00">medicare.qc_enrollments.state</text>
<polygon fill="none" stroke="black" points="120.75,-4.75 120.75,-31.25 308.5,-31.25 308.5,-4.75 120.75,-4.75"/>
</a>
</g>
</g>
<!-- medicare.qc_enrl_bene.state -->
<g id="node2" class="node">
<title>medicare.qc_enrl_bene.state</title>
<g id="a_node2"><a xlink:href="../medicare.qc_enrl_bene/state.html" xlink:title="&lt;TABLE&gt;" target="_blank">
<polygon fill="none" stroke="black" points="310.5,-109 118.75,-109 118.75,-73 310.5,-73 310.5,-109"/>
<text text-anchor="start" x="131.75" y="-86.95" font-family="Times,serif" font-weight="bold" font-size="14.00">medicare.qc_enrl_bene.state</text>
<polygon fill="none" stroke="black" points="126.75,-77.75 126.75,-104.25 302.5,-104.25 302.5,-77.75 126.75,-77.75"/>
</a>
</g>
</g>
<!-- medicare.qc_enrl_bene.state&#45;&gt;medicare.qc_enrollments.state -->
<g id="edge1" class="edge">
<title>medicare.qc_enrl_bene.state&#45;&gt;medicare.qc_enrollments.state</title>
<path fill="none" stroke="black" d="M214.62,-72.81C214.62,-65.23 214.62,-56.1 214.62,-47.54"/>
<polygon fill="black" stroke="black" points="218.13,-47.54 214.63,-37.54 211.13,-47.54 218.13,-47.54"/>
<text text-anchor="middle" x="253.25" y="-49.45" font-family="Times,serif" font-size="14.00"> &#160;Transformed</text>
</g>
<!-- medicare.enrollments.state -->
<g id="node3" class="node">
<title>medicare.enrollments.state</title>
<g id="a_node3"><a xlink:href="../medicare.enrollments/state.html" xlink:title="&lt;TABLE&gt;" target="_blank">
<polygon fill="none" stroke="black" points="306.38,-182 122.88,-182 122.88,-146 306.38,-146 306.38,-182"/>
<text text-anchor="start" x="135.88" y="-159.95" font-family="Times,serif" font-weight="bold" font-size="14.00">medicare.enrollments.state</text>
<polygon fill="none" stroke="black" points="130.88,-150.75 130.88,-177.25 298.38,-177.25 298.38,-150.75 130.88,-150.75"/>
</a>
</g>
</g>
<!-- medicare.enrollments.state&#45;&gt;medicare.qc_enrl_bene.state -->
<g id="edge2" class="edge">
<title>medicare.enrollments.state&#45;&gt;medicare.qc_enrl_bene.state</title>
<path fill="none" stroke="black" d="M214.62,-145.81C214.62,-138.23 214.62,-129.1 214.62,-120.54"/>
<polygon fill="black" stroke="black" points="218.13,-120.54 214.63,-110.54 211.13,-120.54 218.13,-120.54"/>
<text text-anchor="middle" x="260.75" y="-122.45" font-family="Times,serif" font-size="14.00">	join natural</text>
</g>
<!-- medicare._enrollments.state -->
<g id="node4" class="node">
<title>medicare._enrollments.state</title>
<g id="a_node4"><a xlink:href="../medicare._enrollments/state.html" xlink:title="&lt;TABLE&gt;" target="_blank">
<polygon fill="none" stroke="black" points="309.75,-255 119.5,-255 119.5,-219 309.75,-219 309.75,-255"/>
<text text-anchor="start" x="132.5" y="-232.95" font-family="Times,serif" font-weight="bold" font-size="14.00">medicare._enrollments.state</text>
<polygon fill="none" stroke="black" points="127.5,-223.75 127.5,-250.25 301.75,-250.25 301.75,-223.75 127.5,-223.75"/>
</a>
</g>
</g>
<!-- medicare._enrollments.state&#45;&gt;medicare.enrollments.state -->
<g id="edge3" class="edge">
<title>medicare._enrollments.state&#45;&gt;medicare.enrollments.state</title>
<path fill="none" stroke="black" d="M214.62,-218.81C214.62,-211.23 214.62,-202.1 214.62,-193.54"/>
<polygon fill="black" stroke="black" points="218.13,-193.54 214.63,-183.54 211.13,-193.54 218.13,-193.54"/>
<text text-anchor="middle" x="234.12" y="-195.45" font-family="Times,serif" font-size="14.00">Copied</text>
</g>
<!-- medicare._ps.state -->
<g id="node5" class="node">
<title>medicare._ps.state</title>
<g id="a_node5"><a xlink:href="../medicare._ps/state.html" xlink:title="&lt;TABLE&gt;" target="_blank">
<polygon fill="none" stroke="black" points="429.25,-351 0,-351 0,-292 429.25,-292 429.25,-351"/>
<text text-anchor="start" x="160.62" y="-329.7" font-family="Times,serif" font-weight="bold" font-size="14.00">medicare._ps.state</text>
<polygon fill="none" stroke="black" points="11,-299 11,-321.5 418.25,-321.5 418.25,-299 11,-299"/>
<text text-anchor="start" x="14" y="-305.2" font-family="Times,serif" font-size="14.00">(SELECT state_id FROM public.us_states as s WHERE s.ssa2 = &quot;state&quot;)</text>
<polygon fill="none" stroke="black" points="8,-296 8,-347 421.25,-347 421.25,-296 8,-296"/>
</a>
</g>
</g>
<!-- medicare._ps.state&#45;&gt;medicare._enrollments.state -->
<g id="edge4" class="edge">
<title>medicare._ps.state&#45;&gt;medicare._enrollments.state</title>
<path fill="none" stroke="blue" stroke-width="5" d="M214.62,-291.65C214.62,-285.13 214.62,-278.17 214.62,-271.48"/>
<polygon fill="blue" stroke="blue" stroke-width="5" points="219,-271.65 214.63,-261.65 210.25,-271.65 219,-271.65"/>
<text text-anchor="middle" x="329" y="-268.45" font-family="Times,serif" font-size="14.00">	 &#160;Aggregated On bene_id, year, state</text>
</g>
<!-- medicare.ps.state -->
<g id="node6" class="node">
<title>medicare.ps.state</title>
<g id="a_node6"><a xlink:href="../medicare.ps/state.html" xlink:title="&lt;TABLE&gt;" target="_blank">
<polygon fill="none" stroke="black" points="429.25,-447 0,-447 0,-388 429.25,-388 429.25,-447"/>
<text text-anchor="start" x="164" y="-425.7" font-family="Times,serif" font-weight="bold" font-size="14.00">medicare.ps.state</text>
<polygon fill="none" stroke="black" points="11,-395 11,-417.5 418.25,-417.5 418.25,-395 11,-395"/>
<text text-anchor="start" x="14" y="-401.2" font-family="Times,serif" font-size="14.00">(SELECT state_id FROM public.us_states as s WHERE s.ssa2 = &quot;state&quot;)</text>
<polygon fill="none" stroke="black" points="8,-392 8,-443 421.25,-443 421.25,-392 8,-392"/>
</a>
</g>
</g>
<!-- medicare.ps.state&#45;&gt;medicare._ps.state -->
<g id="edge5" class="edge">
<title>medicare.ps.state&#45;&gt;medicare._ps.state</title>
<path fill="none" stroke="black" d="M214.62,-387.53C214.62,-379.68 214.62,-371.05 214.62,-362.7"/>
<polygon fill="black" stroke="black" points="218.13,-362.73 214.63,-352.73 211.13,-362.73 218.13,-362.73"/>
<text text-anchor="middle" x="234.12" y="-364.45" font-family="Times,serif" font-size="14.00">Copied</text>
</g>
<!-- medicare.ps.state_parent -->
<g id="node7" class="node">
<title>medicare.ps.state_parent</title>
<g id="a_node7"><a xlink:href="../medicare.ps/state.html" xlink:title="8 incoming links (columns)" target="_blank">
<path fill="yellow" stroke="black" d="M322.62,-582.18C322.62,-587.6 274.22,-592 214.62,-592 155.03,-592 106.62,-587.6 106.62,-582.18 106.62,-582.18 106.62,-493.82 106.62,-493.82 106.62,-488.4 155.03,-484 214.62,-484 274.22,-484 322.62,-488.4 322.62,-493.82 322.62,-493.82 322.62,-582.18 322.62,-582.18"/>
<path fill="none" stroke="black" d="M322.62,-582.18C322.62,-576.76 274.22,-572.36 214.62,-572.36 155.03,-572.36 106.62,-576.76 106.62,-582.18"/>
<text text-anchor="middle" x="214.62" y="-532.95" font-family="Times,serif" font-size="14.00">8 incoming links (columns)</text>
</a>
</g>
</g>
<!-- medicare.ps.state_parent&#45;&gt;medicare.ps.state -->
<g id="edge6" class="edge">
<title>medicare.ps.state_parent&#45;&gt;medicare.ps.state</title>
<path fill="none" stroke="goldenrod" stroke-width="6" d="M214.62,-483.64C214.62,-476.89 214.62,-470.03 214.62,-463.42"/>
<polygon fill="goldenrod" stroke="goldenrod" stroke-width="6" points="219.88,-463.71 214.63,-453.71 209.38,-463.71 219.88,-463.71"/>
</g>
</g>
</svg>
