<?xml version="1.0" encoding="UTF-8" standalone="no"?>
<!DOCTYPE svg PUBLIC "-//W3C//DTD SVG 1.1//EN"
 "http://www.w3.org/Graphics/SVG/1.1/DTD/svg11.dtd">
<!-- Generated by graphviz version 10.0.1 (20240210.2158)
 -->
<!-- Pages: 1 -->
<svg width="437pt" height="308pt"
 viewBox="0.00 0.00 437.25 308.00" xmlns="http://www.w3.org/2000/svg" xmlns:xlink="http://www.w3.org/1999/xlink">
<g id="graph0" class="graph" transform="scale(1 1) rotate(0) translate(4 304)">
<polygon fill="white" stroke="none" points="-4,4 -4,-304 433.25,-304 433.25,4 -4,4"/>
<!-- medicare._ps.state -->
<g id="node1" class="node">
<title>medicare._ps.state</title>
<g id="a_node1"><a xlink:href="../medicare._ps/state.html" xlink:title="&lt;TABLE&gt;" target="_blank">
<polygon fill="none" stroke="black" points="429.25,-59 0,-59 0,0 429.25,0 429.25,-59"/>
<text text-anchor="start" x="160.62" y="-37.7" font-family="Times,serif" font-weight="bold" font-size="14.00">medicare._ps.state</text>
<polygon fill="none" stroke="black" points="11,-7 11,-29.5 418.25,-29.5 418.25,-7 11,-7"/>
<text text-anchor="start" x="14" y="-13.2" font-family="Times,serif" font-size="14.00">(SELECT state_id FROM public.us_states as s WHERE s.ssa2 = &quot;state&quot;)</text>
<polygon fill="none" stroke="black" points="8,-4 8,-55 421.25,-55 421.25,-4 8,-4"/>
</a>
</g>
</g>
<!-- medicare.ps.state -->
<g id="node2" class="node">
<title>medicare.ps.state</title>
<g id="a_node2"><a xlink:href="../medicare.ps/state.html" xlink:title="&lt;TABLE&gt;" target="_blank">
<polygon fill="none" stroke="black" points="429.25,-155 0,-155 0,-96 429.25,-96 429.25,-155"/>
<text text-anchor="start" x="164" y="-133.7" font-family="Times,serif" font-weight="bold" font-size="14.00">medicare.ps.state</text>
<polygon fill="none" stroke="black" points="11,-103 11,-125.5 418.25,-125.5 418.25,-103 11,-103"/>
<text text-anchor="start" x="14" y="-109.2" font-family="Times,serif" font-size="14.00">(SELECT state_id FROM public.us_states as s WHERE s.ssa2 = &quot;state&quot;)</text>
<polygon fill="none" stroke="black" points="8,-100 8,-151 421.25,-151 421.25,-100 8,-100"/>
</a>
</g>
</g>
<!-- medicare.ps.state&#45;&gt;medicare._ps.state -->
<g id="edge1" class="edge">
<title>medicare.ps.state&#45;&gt;medicare._ps.state</title>
<path fill="none" stroke="black" d="M214.62,-95.53C214.62,-87.68 214.62,-79.05 214.62,-70.7"/>
<polygon fill="black" stroke="black" points="218.13,-70.73 214.63,-60.73 211.13,-70.73 218.13,-70.73"/>
<text text-anchor="middle" x="234.12" y="-72.45" font-family="Times,serif" font-size="14.00">Copied</text>
</g>
<!-- medicare.ps.state_parent -->
<g id="node3" class="node">
<title>medicare.ps.state_parent</title>
<g id="a_node3"><a xlink:href="../medicare.ps/state.html" xlink:title="8 incoming links (columns)" target="_blank">
<path fill="yellow" stroke="black" d="M322.62,-290.18C322.62,-295.6 274.22,-300 214.62,-300 155.03,-300 106.62,-295.6 106.62,-290.18 106.62,-290.18 106.62,-201.82 106.62,-201.82 106.62,-196.4 155.03,-192 214.62,-192 274.22,-192 322.62,-196.4 322.62,-201.82 322.62,-201.82 322.62,-290.18 322.62,-290.18"/>
<path fill="none" stroke="black" d="M322.62,-290.18C322.62,-284.76 274.22,-280.36 214.62,-280.36 155.03,-280.36 106.62,-284.76 106.62,-290.18"/>
<text text-anchor="middle" x="214.62" y="-240.95" font-family="Times,serif" font-size="14.00">8 incoming links (columns)</text>
</a>
</g>
</g>
<!-- medicare.ps.state_parent&#45;&gt;medicare.ps.state -->
<g id="edge2" class="edge">
<title>medicare.ps.state_parent&#45;&gt;medicare.ps.state</title>
<path fill="none" stroke="goldenrod" stroke-width="6" d="M214.62,-191.64C214.62,-184.89 214.62,-178.03 214.62,-171.42"/>
<polygon fill="goldenrod" stroke="goldenrod" stroke-width="6" points="219.88,-171.71 214.63,-161.71 209.38,-171.71 219.88,-171.71"/>
</g>
</g>
</svg>
