<?xml version="1.0" encoding="UTF-8" standalone="no"?>
<!DOCTYPE svg PUBLIC "-//W3C//DTD SVG 1.1//EN"
 "http://www.w3.org/Graphics/SVG/1.1/DTD/svg11.dtd">
<!-- Generated by graphviz version 10.0.1 (20240210.2158)
 -->
<!-- Pages: 1 -->
<svg width="332pt" height="451pt"
 viewBox="0.00 0.00 331.50 451.00" xmlns="http://www.w3.org/2000/svg" xmlns:xlink="http://www.w3.org/1999/xlink">
<g id="graph0" class="graph" transform="scale(1 1) rotate(0) translate(4 447)">
<polygon fill="white" stroke="none" points="-4,4 -4,-447 327.5,-447 327.5,4 -4,4"/>
<!-- medicare.qc_admissions.state_iso -->
<g id="node1" class="node">
<title>medicare.qc_admissions.state_iso</title>
<g id="a_node1"><a xlink:href="../medicare.qc_admissions/state_iso.html" xlink:title="&lt;TABLE&gt;" target="_blank">
<polygon fill="none" stroke="black" points="272.25,-59 51.25,-59 51.25,0 272.25,0 272.25,-59"/>
<text text-anchor="start" x="64.25" y="-37.7" font-family="Times,serif" font-weight="bold" font-size="14.00">medicare.qc_admissions.state_iso</text>
<polygon fill="none" stroke="black" points="62.25,-7 62.25,-29.5 261.25,-29.5 261.25,-7 62.25,-7"/>
<text text-anchor="start" x="65.25" y="-13.2" font-family="Times,serif" font-size="14.00">MAX(state_iso)</text>
<polygon fill="none" stroke="black" points="59.25,-4 59.25,-55 264.25,-55 264.25,-4 59.25,-4"/>
</a>
</g>
</g>
<!-- medicare.qc_adm_union.state_iso -->
<g id="node2" class="node">
<title>medicare.qc_adm_union.state_iso</title>
<g id="a_node2"><a xlink:href="../medicare.qc_adm_union/state_iso.html" xlink:title="&lt;TABLE&gt;" target="_blank">
<polygon fill="none" stroke="black" points="323.5,-155 0,-155 0,-96 323.5,-96 323.5,-155"/>
<text text-anchor="start" x="63.12" y="-133.7" font-family="Times,serif" font-weight="bold" font-size="14.00">medicare.qc_adm_union.state_iso</text>
<polygon fill="none" stroke="black" points="11,-103 11,-125.5 312.5,-125.5 312.5,-103 11,-103"/>
<text text-anchor="start" x="14" y="-109.2" font-family="Times,serif" font-size="14.00">GENERATED ALWAYS AS (&#39;US&#45;&#39; || state) &#160;STORED</text>
<polygon fill="none" stroke="black" points="8,-100 8,-151 315.5,-151 315.5,-100 8,-100"/>
</a>
</g>
</g>
<!-- medicare.qc_adm_union.state_iso&#45;&gt;medicare.qc_admissions.state_iso -->
<g id="edge1" class="edge">
<title>medicare.qc_adm_union.state_iso&#45;&gt;medicare.qc_admissions.state_iso</title>
<path fill="none" stroke="black" d="M161.75,-95.53C161.75,-87.68 161.75,-79.05 161.75,-70.7"/>
<polygon fill="black" stroke="black" points="165.25,-70.73 161.75,-60.73 158.25,-70.73 165.25,-70.73"/>
<text text-anchor="middle" x="200.38" y="-72.45" font-family="Times,serif" font-size="14.00"> &#160;Transformed</text>
</g>
<!-- medicare.admissions.state_iso -->
<g id="node3" class="node">
<title>medicare.admissions.state_iso</title>
<g id="a_node3"><a xlink:href="../medicare.admissions/state_iso.html" xlink:title="&lt;TABLE&gt;" target="_blank">
<polygon fill="none" stroke="black" points="323.5,-251 0,-251 0,-192 323.5,-192 323.5,-251"/>
<text text-anchor="start" x="74.38" y="-229.7" font-family="Times,serif" font-weight="bold" font-size="14.00">medicare.admissions.state_iso</text>
<polygon fill="none" stroke="black" points="11,-199 11,-221.5 312.5,-221.5 312.5,-199 11,-199"/>
<text text-anchor="start" x="14" y="-205.2" font-family="Times,serif" font-size="14.00">GENERATED ALWAYS AS (&#39;US&#45;&#39; || state) &#160;STORED</text>
<polygon fill="none" stroke="black" points="8,-196 8,-247 315.5,-247 315.5,-196 8,-196"/>
</a>
</g>
</g>
<!-- medicare.admissions.state_iso&#45;&gt;medicare.qc_adm_union.state_iso -->
<g id="edge2" class="edge">
<title>medicare.admissions.state_iso&#45;&gt;medicare.qc_adm_union.state_iso</title>
<path fill="none" stroke="black" d="M161.75,-191.53C161.75,-183.68 161.75,-175.05 161.75,-166.7"/>
<polygon fill="black" stroke="black" points="165.25,-166.73 161.75,-156.73 158.25,-166.73 165.25,-166.73"/>
<text text-anchor="middle" x="181.25" y="-168.45" font-family="Times,serif" font-size="14.00">Copied</text>
</g>
<!-- medicare.enrollments.state_iso -->
<g id="node4" class="node">
<title>medicare.enrollments.state_iso</title>
<g id="a_node4"><a xlink:href="../medicare.enrollments/state_iso.html" xlink:title="&lt;TABLE&gt;" target="_blank">
<polygon fill="none" stroke="black" points="264.75,-347 58.75,-347 58.75,-288 264.75,-288 264.75,-347"/>
<text text-anchor="start" x="71.75" y="-325.7" font-family="Times,serif" font-weight="bold" font-size="14.00">medicare.enrollments.state_iso</text>
<polygon fill="none" stroke="black" points="69.75,-295 69.75,-317.5 253.75,-317.5 253.75,-295 69.75,-295"/>
<text text-anchor="start" x="72.75" y="-301.2" font-family="Times,serif" font-size="14.00">(&#39;US&#45;&#39; || state) </text>
<polygon fill="none" stroke="black" points="66.75,-292 66.75,-343 256.75,-343 256.75,-292 66.75,-292"/>
</a>
</g>
</g>
<!-- medicare.enrollments.state_iso&#45;&gt;medicare.admissions.state_iso -->
<g id="edge3" class="edge">
<title>medicare.enrollments.state_iso&#45;&gt;medicare.admissions.state_iso</title>
<path fill="none" stroke="darkorchid" stroke-width="2" d="M161.75,-287.53C161.75,-280.13 161.75,-272.04 161.75,-264.14"/>
<polygon fill="darkorchid" stroke="darkorchid" stroke-width="2" points="165.25,-264.24 161.75,-254.24 158.25,-264.24 165.25,-264.24"/>
<text text-anchor="middle" x="194.38" y="-264.45" font-family="Times,serif" font-size="14.00">parent&#45;child</text>
</g>
<!-- medicare._enrollments.state_iso -->
<g id="node5" class="node">
<title>medicare._enrollments.state_iso</title>
<g id="a_node5"><a xlink:href="../medicare._enrollments/state_iso.html" xlink:title="&lt;TABLE&gt;" target="_blank">
<polygon fill="none" stroke="black" points="268.12,-443 55.38,-443 55.38,-384 268.12,-384 268.12,-443"/>
<text text-anchor="start" x="68.38" y="-421.7" font-family="Times,serif" font-weight="bold" font-size="14.00">medicare._enrollments.state_iso</text>
<polygon fill="none" stroke="black" points="66.38,-391 66.38,-413.5 257.12,-413.5 257.12,-391 66.38,-391"/>
<text text-anchor="start" x="69.38" y="-397.2" font-family="Times,serif" font-size="14.00">(&#39;US&#45;&#39; || state) </text>
<polygon fill="none" stroke="black" points="63.38,-388 63.38,-439 260.12,-439 260.12,-388 63.38,-388"/>
</a>
</g>
</g>
<!-- medicare._enrollments.state_iso&#45;&gt;medicare.enrollments.state_iso -->
<g id="edge4" class="edge">
<title>medicare._enrollments.state_iso&#45;&gt;medicare.enrollments.state_iso</title>
<path fill="none" stroke="black" d="M161.75,-383.53C161.75,-375.68 161.75,-367.05 161.75,-358.7"/>
<polygon fill="black" stroke="black" points="165.25,-358.73 161.75,-348.73 158.25,-358.73 165.25,-358.73"/>
<text text-anchor="middle" x="181.25" y="-360.45" font-family="Times,serif" font-size="14.00">Copied</text>
</g>
</g>
</svg>
