<?xml version="1.0" encoding="UTF-8" standalone="no"?>
<!DOCTYPE svg PUBLIC "-//W3C//DTD SVG 1.1//EN"
 "http://www.w3.org/Graphics/SVG/1.1/DTD/svg11.dtd">
<!-- Generated by graphviz version 10.0.1 (20240210.2158)
 -->
<!-- Pages: 1 -->
<svg width="767pt" height="550pt"
 viewBox="0.00 0.00 766.50 550.00" xmlns="http://www.w3.org/2000/svg" xmlns:xlink="http://www.w3.org/1999/xlink">
<g id="graph0" class="graph" transform="scale(1 1) rotate(0) translate(4 546)">
<polygon fill="white" stroke="none" points="-4,4 -4,-546 762.5,-546 762.5,4 -4,4"/>
<!-- medicare.qc_enrl_bene.state_count -->
<g id="node1" class="node">
<title>medicare.qc_enrl_bene.state_count</title>
<g id="a_node1"><a xlink:href="../medicare.qc_enrl_bene/state_count.html" xlink:title="&lt;TABLE&gt;" target="_blank">
<polygon fill="none" stroke="black" points="758.5,-59 0,-59 0,0 758.5,0 758.5,-59"/>
<text text-anchor="start" x="276.88" y="-37.7" font-family="Times,serif" font-weight="bold" font-size="14.00">medicare.qc_enrl_bene.state_count</text>
<polygon fill="none" stroke="black" points="11,-7 11,-29.5 747.5,-29.5 747.5,-7 11,-7"/>
<text text-anchor="start" x="14" y="-13.2" font-family="Times,serif" font-size="14.00">( &#160;SELECT COUNT(distinct state) &#160;FROM medicare._ps AS ps2 &#160;WHERE &#160;&#160;&#160;_ps.bene_id = ps2.bene_id &#160;&#160;&#160;AND _ps.year = ps2.year)</text>
<polygon fill="none" stroke="black" points="8,-4 8,-55 750.5,-55 750.5,-4 8,-4"/>
</a>
</g>
</g>
<!-- medicare.enrollments.state -->
<g id="node2" class="node">
<title>medicare.enrollments.state</title>
<g id="a_node2"><a xlink:href="../medicare.enrollments/state.html" xlink:title="&lt;TABLE&gt;" target="_blank">
<polygon fill="none" stroke="black" points="471,-132 287.5,-132 287.5,-96 471,-96 471,-132"/>
<text text-anchor="start" x="300.5" y="-109.95" font-family="Times,serif" font-weight="bold" font-size="14.00">medicare.enrollments.state</text>
<polygon fill="none" stroke="black" points="295.5,-100.75 295.5,-127.25 463,-127.25 463,-100.75 295.5,-100.75"/>
</a>
</g>
</g>
<!-- medicare.enrollments.state&#45;&gt;medicare.qc_enrl_bene.state_count -->
<g id="edge1" class="edge">
<title>medicare.enrollments.state&#45;&gt;medicare.qc_enrl_bene.state_count</title>
<path fill="none" stroke="black" d="M379.25,-95.5C379.25,-88.2 379.25,-79.4 379.25,-70.65"/>
<polygon fill="black" stroke="black" points="382.75,-70.85 379.25,-60.85 375.75,-70.85 382.75,-70.85"/>
<text text-anchor="middle" x="425.38" y="-72.45" font-family="Times,serif" font-size="14.00">	join natural</text>
</g>
<!-- medicare._enrollments.state -->
<g id="node3" class="node">
<title>medicare._enrollments.state</title>
<g id="a_node3"><a xlink:href="../medicare._enrollments/state.html" xlink:title="&lt;TABLE&gt;" target="_blank">
<polygon fill="none" stroke="black" points="474.38,-205 284.12,-205 284.12,-169 474.38,-169 474.38,-205"/>
<text text-anchor="start" x="297.12" y="-182.95" font-family="Times,serif" font-weight="bold" font-size="14.00">medicare._enrollments.state</text>
<polygon fill="none" stroke="black" points="292.12,-173.75 292.12,-200.25 466.38,-200.25 466.38,-173.75 292.12,-173.75"/>
</a>
</g>
</g>
<!-- medicare._enrollments.state&#45;&gt;medicare.enrollments.state -->
<g id="edge2" class="edge">
<title>medicare._enrollments.state&#45;&gt;medicare.enrollments.state</title>
<path fill="none" stroke="black" d="M379.25,-168.81C379.25,-161.23 379.25,-152.1 379.25,-143.54"/>
<polygon fill="black" stroke="black" points="382.75,-143.54 379.25,-133.54 375.75,-143.54 382.75,-143.54"/>
<text text-anchor="middle" x="398.75" y="-145.45" font-family="Times,serif" font-size="14.00">Copied</text>
</g>
<!-- medicare._ps.state -->
<g id="node4" class="node">
<title>medicare._ps.state</title>
<g id="a_node4"><a xlink:href="../medicare._ps/state.html" xlink:title="&lt;TABLE&gt;" target="_blank">
<polygon fill="none" stroke="black" points="593.88,-301 164.62,-301 164.62,-242 593.88,-242 593.88,-301"/>
<text text-anchor="start" x="325.25" y="-279.7" font-family="Times,serif" font-weight="bold" font-size="14.00">medicare._ps.state</text>
<polygon fill="none" stroke="black" points="175.62,-249 175.62,-271.5 582.88,-271.5 582.88,-249 175.62,-249"/>
<text text-anchor="start" x="178.62" y="-255.2" font-family="Times,serif" font-size="14.00">(SELECT state_id FROM public.us_states as s WHERE s.ssa2 = &quot;state&quot;)</text>
<polygon fill="none" stroke="black" points="172.62,-246 172.62,-297 585.88,-297 585.88,-246 172.62,-246"/>
</a>
</g>
</g>
<!-- medicare._ps.state&#45;&gt;medicare._enrollments.state -->
<g id="edge3" class="edge">
<title>medicare._ps.state&#45;&gt;medicare._enrollments.state</title>
<path fill="none" stroke="blue" stroke-width="5" d="M379.25,-241.65C379.25,-235.13 379.25,-228.17 379.25,-221.48"/>
<polygon fill="blue" stroke="blue" stroke-width="5" points="383.63,-221.65 379.25,-211.65 374.88,-221.65 383.63,-221.65"/>
<text text-anchor="middle" x="493.62" y="-218.45" font-family="Times,serif" font-size="14.00">	 &#160;Aggregated On bene_id, year, state</text>
</g>
<!-- medicare.ps.state -->
<g id="node5" class="node">
<title>medicare.ps.state</title>
<g id="a_node5"><a xlink:href="../medicare.ps/state.html" xlink:title="&lt;TABLE&gt;" target="_blank">
<polygon fill="none" stroke="black" points="593.88,-397 164.62,-397 164.62,-338 593.88,-338 593.88,-397"/>
<text text-anchor="start" x="328.62" y="-375.7" font-family="Times,serif" font-weight="bold" font-size="14.00">medicare.ps.state</text>
<polygon fill="none" stroke="black" points="175.62,-345 175.62,-367.5 582.88,-367.5 582.88,-345 175.62,-345"/>
<text text-anchor="start" x="178.62" y="-351.2" font-family="Times,serif" font-size="14.00">(SELECT state_id FROM public.us_states as s WHERE s.ssa2 = &quot;state&quot;)</text>
<polygon fill="none" stroke="black" points="172.62,-342 172.62,-393 585.88,-393 585.88,-342 172.62,-342"/>
</a>
</g>
</g>
<!-- medicare.ps.state&#45;&gt;medicare._ps.state -->
<g id="edge4" class="edge">
<title>medicare.ps.state&#45;&gt;medicare._ps.state</title>
<path fill="none" stroke="black" d="M379.25,-337.53C379.25,-329.68 379.25,-321.05 379.25,-312.7"/>
<polygon fill="black" stroke="black" points="382.75,-312.73 379.25,-302.73 375.75,-312.73 382.75,-312.73"/>
<text text-anchor="middle" x="398.75" y="-314.45" font-family="Times,serif" font-size="14.00">Copied</text>
</g>
<!-- medicare.ps.state_parent -->
<g id="node6" class="node">
<title>medicare.ps.state_parent</title>
<g id="a_node6"><a xlink:href="../medicare.ps/state.html" xlink:title="8 incoming links (columns)" target="_blank">
<path fill="yellow" stroke="black" d="M487.25,-532.18C487.25,-537.6 438.84,-542 379.25,-542 319.66,-542 271.25,-537.6 271.25,-532.18 271.25,-532.18 271.25,-443.82 271.25,-443.82 271.25,-438.4 319.66,-434 379.25,-434 438.84,-434 487.25,-438.4 487.25,-443.82 487.25,-443.82 487.25,-532.18 487.25,-532.18"/>
<path fill="none" stroke="black" d="M487.25,-532.18C487.25,-526.76 438.84,-522.36 379.25,-522.36 319.66,-522.36 271.25,-526.76 271.25,-532.18"/>
<text text-anchor="middle" x="379.25" y="-482.95" font-family="Times,serif" font-size="14.00">8 incoming links (columns)</text>
</a>
</g>
</g>
<!-- medicare.ps.state_parent&#45;&gt;medicare.ps.state -->
<g id="edge5" class="edge">
<title>medicare.ps.state_parent&#45;&gt;medicare.ps.state</title>
<path fill="none" stroke="goldenrod" stroke-width="6" d="M379.25,-433.64C379.25,-426.89 379.25,-420.03 379.25,-413.42"/>
<polygon fill="goldenrod" stroke="goldenrod" stroke-width="6" points="384.5,-413.71 379.25,-403.71 374,-413.71 384.5,-413.71"/>
</g>
</g>
</svg>
