<?xml version="1.0" encoding="UTF-8" standalone="no"?>
<!DOCTYPE svg PUBLIC "-//W3C//DTD SVG 1.1//EN"
 "http://www.w3.org/Graphics/SVG/1.1/DTD/svg11.dtd">
<!-- Generated by graphviz version 10.0.1 (20240210.2158)
 -->
<!-- Pages: 1 -->
<svg width="451pt" height="585pt"
 viewBox="0.00 0.00 451.38 585.00" xmlns="http://www.w3.org/2000/svg" xmlns:xlink="http://www.w3.org/1999/xlink">
<g id="graph0" class="graph" transform="scale(1 1) rotate(0) translate(4 581)">
<polygon fill="white" stroke="none" points="-4,4 -4,-581 447.38,-581 447.38,4 -4,4"/>
<!-- medicare._enrollments.state -->
<g id="node1" class="node">
<title>medicare._enrollments.state</title>
<g id="a_node1"><a xlink:href="../medicare._enrollments/state.html" xlink:title="&lt;TABLE&gt;" target="_blank">
<polygon fill="none" stroke="black" points="309.75,-103 119.5,-103 119.5,0 309.75,0 309.75,-103"/>
<text text-anchor="start" x="132.5" y="-81.7" font-family="Times,serif" font-weight="bold" font-size="14.00">medicare._enrollments.state</text>
<text text-anchor="start" x="155.5" y="-35.2" font-family="Times,serif" font-size="14.00">State Code</text>
<polygon fill="none" stroke="black" points="127.5,-4 127.5,-99 301.75,-99 301.75,-4 127.5,-4"/>
</a>
</g>
</g>
<!-- medicare._ps.state -->
<g id="node2" class="node">
<title>medicare._ps.state</title>
<g id="a_node2"><a xlink:href="../medicare._ps/state.html" xlink:title="&lt;TABLE&gt;" target="_blank">
<polygon fill="none" stroke="black" points="429.25,-267.5 0,-267.5 0,-140 429.25,-140 429.25,-267.5"/>
<text text-anchor="start" x="160.62" y="-246.2" font-family="Times,serif" font-weight="bold" font-size="14.00">medicare._ps.state</text>
<text text-anchor="start" x="36" y="-199.7" font-family="Times,serif" font-size="14.00">State Code</text>
<polygon fill="none" stroke="black" points="11,-147 11,-169.5 418.25,-169.5 418.25,-147 11,-147"/>
<text text-anchor="start" x="14" y="-153.2" font-family="Times,serif" font-size="14.00">(SELECT state_id FROM public.us_states as s WHERE s.ssa2 = &quot;state&quot;)</text>
<polygon fill="none" stroke="black" points="8,-144 8,-263.5 421.25,-263.5 421.25,-144 8,-144"/>
</a>
</g>
</g>
<!-- medicare._ps.state&#45;&gt;medicare._enrollments.state -->
<g id="edge1" class="edge">
<title>medicare._ps.state&#45;&gt;medicare._enrollments.state</title>
<path fill="none" stroke="blue" stroke-width="5" d="M214.62,-139.9C214.62,-133.12 214.62,-126.2 214.62,-119.38"/>
<polygon fill="blue" stroke="blue" stroke-width="5" points="219,-119.47 214.63,-109.47 210.25,-119.47 219,-119.47"/>
<text text-anchor="middle" x="329" y="-116.45" font-family="Times,serif" font-size="14.00">	 &#160;Aggregated On bene_id, year, state</text>
</g>
<!-- medicare.ps.state -->
<g id="node3" class="node">
<title>medicare.ps.state</title>
<g id="a_node3"><a xlink:href="../medicare.ps/state.html" xlink:title="&lt;TABLE&gt;" target="_blank">
<polygon fill="none" stroke="black" points="429.25,-432 0,-432 0,-304.5 429.25,-304.5 429.25,-432"/>
<text text-anchor="start" x="164" y="-410.7" font-family="Times,serif" font-weight="bold" font-size="14.00">medicare.ps.state</text>
<text text-anchor="start" x="36" y="-364.2" font-family="Times,serif" font-size="14.00">State Code</text>
<polygon fill="none" stroke="black" points="11,-311.5 11,-334 418.25,-334 418.25,-311.5 11,-311.5"/>
<text text-anchor="start" x="14" y="-317.7" font-family="Times,serif" font-size="14.00">(SELECT state_id FROM public.us_states as s WHERE s.ssa2 = &quot;state&quot;)</text>
<polygon fill="none" stroke="black" points="8,-308.5 8,-428 421.25,-428 421.25,-308.5 8,-308.5"/>
</a>
</g>
</g>
<!-- medicare.ps.state&#45;&gt;medicare._ps.state -->
<g id="edge2" class="edge">
<title>medicare.ps.state&#45;&gt;medicare._ps.state</title>
<path fill="none" stroke="black" d="M214.62,-304.42C214.62,-296.2 214.62,-287.7 214.62,-279.3"/>
<polygon fill="black" stroke="black" points="218.13,-279.46 214.63,-269.46 211.13,-279.46 218.13,-279.46"/>
<text text-anchor="middle" x="234.12" y="-280.95" font-family="Times,serif" font-size="14.00">Copied</text>
</g>
<!-- medicare.ps.state_parent -->
<g id="node4" class="node">
<title>medicare.ps.state_parent</title>
<g id="a_node4"><a xlink:href="../medicare.ps/state.html" xlink:title="8 incoming links (columns)" target="_blank">
<path fill="yellow" stroke="black" d="M322.62,-567.18C322.62,-572.6 274.22,-577 214.62,-577 155.03,-577 106.62,-572.6 106.62,-567.18 106.62,-567.18 106.62,-478.82 106.62,-478.82 106.62,-473.4 155.03,-469 214.62,-469 274.22,-469 322.62,-473.4 322.62,-478.82 322.62,-478.82 322.62,-567.18 322.62,-567.18"/>
<path fill="none" stroke="black" d="M322.62,-567.18C322.62,-561.76 274.22,-557.36 214.62,-557.36 155.03,-557.36 106.62,-561.76 106.62,-567.18"/>
<text text-anchor="middle" x="214.62" y="-517.95" font-family="Times,serif" font-size="14.00">8 incoming links (columns)</text>
</a>
</g>
</g>
<!-- medicare.ps.state_parent&#45;&gt;medicare.ps.state -->
<g id="edge3" class="edge">
<title>medicare.ps.state_parent&#45;&gt;medicare.ps.state</title>
<path fill="none" stroke="goldenrod" stroke-width="6" d="M214.62,-468.58C214.62,-462.09 214.62,-455.35 214.62,-448.59"/>
<polygon fill="goldenrod" stroke="goldenrod" stroke-width="6" points="219.88,-448.8 214.63,-438.8 209.38,-448.8 219.88,-448.8"/>
</g>
</g>
</svg>
