<?xml version="1.0" encoding="UTF-8" standalone="no"?>
<!DOCTYPE svg PUBLIC "-//W3C//DTD SVG 1.1//EN"
 "http://www.w3.org/Graphics/SVG/1.1/DTD/svg11.dtd">
<!-- Generated by graphviz version 10.0.1 (20240210.2158)
 -->
<!-- Pages: 1 -->
<svg width="1126pt" height="865pt"
 viewBox="0.00 0.00 1125.75 865.00" xmlns="http://www.w3.org/2000/svg" xmlns:xlink="http://www.w3.org/1999/xlink">
<g id="graph0" class="graph" transform="scale(1 1) rotate(0) translate(4 861)">
<polygon fill="white" stroke="none" points="-4,4 -4,-861 1121.75,-861 1121.75,4 -4,4"/>
<!-- medicare.qc_enrl_bene.year -->
<g id="node1" class="node">
<title>medicare.qc_enrl_bene.year</title>
<g id="a_node1"><a xlink:href="../medicare.qc_enrl_bene/year.html" xlink:title="&lt;TABLE&gt;" target="_blank">
<polygon fill="none" stroke="black" points="702.5,-103 415.25,-103 415.25,0 702.5,0 702.5,-103"/>
<text text-anchor="start" x="476.75" y="-81.7" font-family="Times,serif" font-weight="bold" font-size="14.00">medicare.qc_enrl_bene.year</text>
<text text-anchor="start" x="451.25" y="-35.2" font-family="Times,serif" font-size="14.00">Beneficiary Enrollment Reference Year</text>
<polygon fill="none" stroke="black" points="423.25,-4 423.25,-99 694.5,-99 694.5,-4 423.25,-4"/>
</a>
</g>
</g>
<!-- medicare.enrollments.year -->
<g id="node2" class="node">
<title>medicare.enrollments.year</title>
<g id="a_node2"><a xlink:href="../medicare.enrollments/year.html" xlink:title="&lt;TABLE&gt;" target="_blank">
<polygon fill="none" stroke="black" points="702.5,-243 415.25,-243 415.25,-140 702.5,-140 702.5,-243"/>
<text text-anchor="start" x="480.88" y="-221.7" font-family="Times,serif" font-weight="bold" font-size="14.00">medicare.enrollments.year</text>
<text text-anchor="start" x="451.25" y="-175.2" font-family="Times,serif" font-size="14.00">Beneficiary Enrollment Reference Year</text>
<polygon fill="none" stroke="black" points="423.25,-144 423.25,-239 694.5,-239 694.5,-144 423.25,-144"/>
</a>
</g>
</g>
<!-- medicare.enrollments.year&#45;&gt;medicare.qc_enrl_bene.year -->
<g id="edge1" class="edge">
<title>medicare.enrollments.year&#45;&gt;medicare.qc_enrl_bene.year</title>
<path fill="none" stroke="black" d="M558.88,-139.51C558.88,-131.38 558.88,-122.89 558.88,-114.54"/>
<polygon fill="black" stroke="black" points="562.38,-114.8 558.88,-104.8 555.38,-114.8 562.38,-114.8"/>
<text text-anchor="middle" x="605" y="-116.45" font-family="Times,serif" font-size="14.00">	join natural</text>
</g>
<!-- medicare._enrollments.year -->
<g id="node3" class="node">
<title>medicare._enrollments.year</title>
<g id="a_node3"><a xlink:href="../medicare._enrollments/year.html" xlink:title="&lt;TABLE&gt;" target="_blank">
<polygon fill="none" stroke="black" points="702.5,-383 415.25,-383 415.25,-280 702.5,-280 702.5,-383"/>
<text text-anchor="start" x="477.5" y="-361.7" font-family="Times,serif" font-weight="bold" font-size="14.00">medicare._enrollments.year</text>
<text text-anchor="start" x="451.25" y="-315.2" font-family="Times,serif" font-size="14.00">Beneficiary Enrollment Reference Year</text>
<polygon fill="none" stroke="black" points="423.25,-284 423.25,-379 694.5,-379 694.5,-284 423.25,-284"/>
</a>
</g>
</g>
<!-- medicare._enrollments.year&#45;&gt;medicare.enrollments.year -->
<g id="edge2" class="edge">
<title>medicare._enrollments.year&#45;&gt;medicare.enrollments.year</title>
<path fill="none" stroke="black" d="M558.88,-279.51C558.88,-271.38 558.88,-262.89 558.88,-254.54"/>
<polygon fill="black" stroke="black" points="562.38,-254.8 558.88,-244.8 555.38,-254.8 562.38,-254.8"/>
<text text-anchor="middle" x="578.38" y="-256.45" font-family="Times,serif" font-size="14.00">Copied</text>
</g>
<!-- medicare._ps.year -->
<g id="node4" class="node">
<title>medicare._ps.year</title>
<g id="a_node4"><a xlink:href="../medicare._ps/year.html" xlink:title="&lt;TABLE&gt;" target="_blank">
<polygon fill="none" stroke="black" points="1117.75,-547.5 0,-547.5 0,-420 1117.75,-420 1117.75,-547.5"/>
<text text-anchor="start" x="505.62" y="-526.2" font-family="Times,serif" font-weight="bold" font-size="14.00">medicare._ps.year</text>
<text text-anchor="start" x="36" y="-479.7" font-family="Times,serif" font-size="14.00">Beneficiary Enrollment Reference Year</text>
<polygon fill="none" stroke="black" points="11,-427 11,-449.5 1106.75,-449.5 1106.75,-427 11,-427"/>
<text text-anchor="start" x="14" y="-433.2" font-family="Times,serif" font-size="14.00">(CASE WHEN &quot;year&quot;::int &lt; 20 THEN (2000 + &quot;year&quot;::int) WHEN (20 &lt; &quot;year&quot;::int AND &quot;year&quot;::int &lt; 100) THEN (1900 + &quot;year&quot;::int) WHEN &quot;year&quot; IS NULL THEN 2000 ELSE &quot;year&quot;::int END)</text>
<polygon fill="none" stroke="black" points="8,-424 8,-543.5 1109.75,-543.5 1109.75,-424 8,-424"/>
</a>
</g>
</g>
<!-- medicare._ps.year&#45;&gt;medicare._enrollments.year -->
<g id="edge3" class="edge">
<title>medicare._ps.year&#45;&gt;medicare._enrollments.year</title>
<path fill="none" stroke="blue" stroke-width="5" d="M558.88,-419.9C558.88,-413.12 558.88,-406.2 558.88,-399.38"/>
<polygon fill="blue" stroke="blue" stroke-width="5" points="563.25,-399.47 558.88,-389.47 554.5,-399.47 563.25,-399.47"/>
<text text-anchor="middle" x="673.25" y="-396.45" font-family="Times,serif" font-size="14.00">	 &#160;Aggregated On bene_id, year, state</text>
</g>
<!-- medicare.ps.year -->
<g id="node5" class="node">
<title>medicare.ps.year</title>
<g id="a_node5"><a xlink:href="../medicare.ps/year.html" xlink:title="&lt;TABLE&gt;" target="_blank">
<polygon fill="none" stroke="black" points="1117.75,-712 0,-712 0,-584.5 1117.75,-584.5 1117.75,-712"/>
<text text-anchor="start" x="509" y="-690.7" font-family="Times,serif" font-weight="bold" font-size="14.00">medicare.ps.year</text>
<text text-anchor="start" x="36" y="-644.2" font-family="Times,serif" font-size="14.00">Beneficiary Enrollment Reference Year</text>
<polygon fill="none" stroke="black" points="11,-591.5 11,-614 1106.75,-614 1106.75,-591.5 11,-591.5"/>
<text text-anchor="start" x="14" y="-597.7" font-family="Times,serif" font-size="14.00">(CASE WHEN &quot;year&quot;::int &lt; 20 THEN (2000 + &quot;year&quot;::int) WHEN (20 &lt; &quot;year&quot;::int AND &quot;year&quot;::int &lt; 100) THEN (1900 + &quot;year&quot;::int) WHEN &quot;year&quot; IS NULL THEN 2000 ELSE &quot;year&quot;::int END)</text>
<polygon fill="none" stroke="black" points="8,-588.5 8,-708 1109.75,-708 1109.75,-588.5 8,-588.5"/>
</a>
</g>
</g>
<!-- medicare.ps.year&#45;&gt;medicare._ps.year -->
<g id="edge4" class="edge">
<title>medicare.ps.year&#45;&gt;medicare._ps.year</title>
<path fill="none" stroke="black" d="M558.88,-584.42C558.88,-576.2 558.88,-567.7 558.88,-559.3"/>
<polygon fill="black" stroke="black" points="562.38,-559.46 558.88,-549.46 555.38,-559.46 562.38,-559.46"/>
<text text-anchor="middle" x="578.38" y="-560.95" font-family="Times,serif" font-size="14.00">Copied</text>
</g>
<!-- medicare.ps.year_parent -->
<g id="node6" class="node">
<title>medicare.ps.year_parent</title>
<g id="a_node6"><a xlink:href="../medicare.ps/year.html" xlink:title="8 incoming links (columns)" target="_blank">
<path fill="yellow" stroke="black" d="M666.88,-847.18C666.88,-852.6 618.47,-857 558.88,-857 499.28,-857 450.88,-852.6 450.88,-847.18 450.88,-847.18 450.88,-758.82 450.88,-758.82 450.88,-753.4 499.28,-749 558.88,-749 618.47,-749 666.88,-753.4 666.88,-758.82 666.88,-758.82 666.88,-847.18 666.88,-847.18"/>
<path fill="none" stroke="black" d="M666.88,-847.18C666.88,-841.76 618.47,-837.36 558.88,-837.36 499.28,-837.36 450.88,-841.76 450.88,-847.18"/>
<text text-anchor="middle" x="558.88" y="-797.95" font-family="Times,serif" font-size="14.00">8 incoming links (columns)</text>
</a>
</g>
</g>
<!-- medicare.ps.year_parent&#45;&gt;medicare.ps.year -->
<g id="edge5" class="edge">
<title>medicare.ps.year_parent&#45;&gt;medicare.ps.year</title>
<path fill="none" stroke="goldenrod" stroke-width="6" d="M558.88,-748.58C558.88,-742.09 558.88,-735.35 558.88,-728.59"/>
<polygon fill="goldenrod" stroke="goldenrod" stroke-width="6" points="564.13,-728.8 558.88,-718.8 553.63,-728.8 564.13,-728.8"/>
</g>
</g>
</svg>
