<?xml version="1.0" encoding="UTF-8" standalone="no"?>
<!DOCTYPE svg PUBLIC "-//W3C//DTD SVG 1.1//EN"
 "http://www.w3.org/Graphics/SVG/1.1/DTD/svg11.dtd">
<!-- Generated by graphviz version 10.0.1 (20240210.2158)
 -->
<!-- Pages: 1 -->
<svg width="1126pt" height="1005pt"
 viewBox="0.00 0.00 1125.75 1005.00" xmlns="http://www.w3.org/2000/svg" xmlns:xlink="http://www.w3.org/1999/xlink">
<g id="graph0" class="graph" transform="scale(1 1) rotate(0) translate(4 1001)">
<polygon fill="white" stroke="none" points="-4,4 -4,-1001 1121.75,-1001 1121.75,4 -4,4"/>
<!-- medicare.qc_enrollments.year -->
<g id="node1" class="node">
<title>medicare.qc_enrollments.year</title>
<g id="a_node1"><a xlink:href="../medicare.qc_enrollments/year.html" xlink:title="&lt;TABLE&gt;" target="_blank">
<polygon fill="none" stroke="black" points="702.5,-103 415.25,-103 415.25,0 702.5,0 702.5,-103"/>
<text text-anchor="start" x="470.75" y="-81.7" font-family="Times,serif" font-weight="bold" font-size="14.00">medicare.qc_enrollments.year</text>
<text text-anchor="start" x="451.25" y="-35.2" font-family="Times,serif" font-size="14.00">Beneficiary Enrollment Reference Year</text>
<polygon fill="none" stroke="black" points="423.25,-4 423.25,-99 694.5,-99 694.5,-4 423.25,-4"/>
</a>
</g>
</g>
<!-- medicare.qc_enrl_bene.year -->
<g id="node2" class="node">
<title>medicare.qc_enrl_bene.year</title>
<g id="a_node2"><a xlink:href="../medicare.qc_enrl_bene/year.html" xlink:title="&lt;TABLE&gt;" target="_blank">
<polygon fill="none" stroke="black" points="702.5,-243 415.25,-243 415.25,-140 702.5,-140 702.5,-243"/>
<text text-anchor="start" x="476.75" y="-221.7" font-family="Times,serif" font-weight="bold" font-size="14.00">medicare.qc_enrl_bene.year</text>
<text text-anchor="start" x="451.25" y="-175.2" font-family="Times,serif" font-size="14.00">Beneficiary Enrollment Reference Year</text>
<polygon fill="none" stroke="black" points="423.25,-144 423.25,-239 694.5,-239 694.5,-144 423.25,-144"/>
</a>
</g>
</g>
<!-- medicare.qc_enrl_bene.year&#45;&gt;medicare.qc_enrollments.year -->
<g id="edge1" class="edge">
<title>medicare.qc_enrl_bene.year&#45;&gt;medicare.qc_enrollments.year</title>
<path fill="none" stroke="black" d="M558.88,-139.51C558.88,-131.38 558.88,-122.89 558.88,-114.54"/>
<polygon fill="black" stroke="black" points="562.38,-114.8 558.88,-104.8 555.38,-114.8 562.38,-114.8"/>
<text text-anchor="middle" x="597.5" y="-116.45" font-family="Times,serif" font-size="14.00"> &#160;Transformed</text>
</g>
<!-- medicare.enrollments.year -->
<g id="node3" class="node">
<title>medicare.enrollments.year</title>
<g id="a_node3"><a xlink:href="../medicare.enrollments/year.html" xlink:title="&lt;TABLE&gt;" target="_blank">
<polygon fill="none" stroke="black" points="702.5,-383 415.25,-383 415.25,-280 702.5,-280 702.5,-383"/>
<text text-anchor="start" x="480.88" y="-361.7" font-family="Times,serif" font-weight="bold" font-size="14.00">medicare.enrollments.year</text>
<text text-anchor="start" x="451.25" y="-315.2" font-family="Times,serif" font-size="14.00">Beneficiary Enrollment Reference Year</text>
<polygon fill="none" stroke="black" points="423.25,-284 423.25,-379 694.5,-379 694.5,-284 423.25,-284"/>
</a>
</g>
</g>
<!-- medicare.enrollments.year&#45;&gt;medicare.qc_enrl_bene.year -->
<g id="edge2" class="edge">
<title>medicare.enrollments.year&#45;&gt;medicare.qc_enrl_bene.year</title>
<path fill="none" stroke="black" d="M558.88,-279.51C558.88,-271.38 558.88,-262.89 558.88,-254.54"/>
<polygon fill="black" stroke="black" points="562.38,-254.8 558.88,-244.8 555.38,-254.8 562.38,-254.8"/>
<text text-anchor="middle" x="605" y="-256.45" font-family="Times,serif" font-size="14.00">	join natural</text>
</g>
<!-- medicare._enrollments.year -->
<g id="node4" class="node">
<title>medicare._enrollments.year</title>
<g id="a_node4"><a xlink:href="../medicare._enrollments/year.html" xlink:title="&lt;TABLE&gt;" target="_blank">
<polygon fill="none" stroke="black" points="702.5,-523 415.25,-523 415.25,-420 702.5,-420 702.5,-523"/>
<text text-anchor="start" x="477.5" y="-501.7" font-family="Times,serif" font-weight="bold" font-size="14.00">medicare._enrollments.year</text>
<text text-anchor="start" x="451.25" y="-455.2" font-family="Times,serif" font-size="14.00">Beneficiary Enrollment Reference Year</text>
<polygon fill="none" stroke="black" points="423.25,-424 423.25,-519 694.5,-519 694.5,-424 423.25,-424"/>
</a>
</g>
</g>
<!-- medicare._enrollments.year&#45;&gt;medicare.enrollments.year -->
<g id="edge3" class="edge">
<title>medicare._enrollments.year&#45;&gt;medicare.enrollments.year</title>
<path fill="none" stroke="black" d="M558.88,-419.51C558.88,-411.38 558.88,-402.89 558.88,-394.54"/>
<polygon fill="black" stroke="black" points="562.38,-394.8 558.88,-384.8 555.38,-394.8 562.38,-394.8"/>
<text text-anchor="middle" x="578.38" y="-396.45" font-family="Times,serif" font-size="14.00">Copied</text>
</g>
<!-- medicare._ps.year -->
<g id="node5" class="node">
<title>medicare._ps.year</title>
<g id="a_node5"><a xlink:href="../medicare._ps/year.html" xlink:title="&lt;TABLE&gt;" target="_blank">
<polygon fill="none" stroke="black" points="1117.75,-687.5 0,-687.5 0,-560 1117.75,-560 1117.75,-687.5"/>
<text text-anchor="start" x="505.62" y="-666.2" font-family="Times,serif" font-weight="bold" font-size="14.00">medicare._ps.year</text>
<text text-anchor="start" x="36" y="-619.7" font-family="Times,serif" font-size="14.00">Beneficiary Enrollment Reference Year</text>
<polygon fill="none" stroke="black" points="11,-567 11,-589.5 1106.75,-589.5 1106.75,-567 11,-567"/>
<text text-anchor="start" x="14" y="-573.2" font-family="Times,serif" font-size="14.00">(CASE WHEN &quot;year&quot;::int &lt; 20 THEN (2000 + &quot;year&quot;::int) WHEN (20 &lt; &quot;year&quot;::int AND &quot;year&quot;::int &lt; 100) THEN (1900 + &quot;year&quot;::int) WHEN &quot;year&quot; IS NULL THEN 2000 ELSE &quot;year&quot;::int END)</text>
<polygon fill="none" stroke="black" points="8,-564 8,-683.5 1109.75,-683.5 1109.75,-564 8,-564"/>
</a>
</g>
</g>
<!-- medicare._ps.year&#45;&gt;medicare._enrollments.year -->
<g id="edge4" class="edge">
<title>medicare._ps.year&#45;&gt;medicare._enrollments.year</title>
<path fill="none" stroke="blue" stroke-width="5" d="M558.88,-559.9C558.88,-553.12 558.88,-546.2 558.88,-539.38"/>
<polygon fill="blue" stroke="blue" stroke-width="5" points="563.25,-539.47 558.88,-529.47 554.5,-539.47 563.25,-539.47"/>
<text text-anchor="middle" x="673.25" y="-536.45" font-family="Times,serif" font-size="14.00">	 &#160;Aggregated On bene_id, year, state</text>
</g>
<!-- medicare.ps.year -->
<g id="node6" class="node">
<title>medicare.ps.year</title>
<g id="a_node6"><a xlink:href="../medicare.ps/year.html" xlink:title="&lt;TABLE&gt;" target="_blank">
<polygon fill="none" stroke="black" points="1117.75,-852 0,-852 0,-724.5 1117.75,-724.5 1117.75,-852"/>
<text text-anchor="start" x="509" y="-830.7" font-family="Times,serif" font-weight="bold" font-size="14.00">medicare.ps.year</text>
<text text-anchor="start" x="36" y="-784.2" font-family="Times,serif" font-size="14.00">Beneficiary Enrollment Reference Year</text>
<polygon fill="none" stroke="black" points="11,-731.5 11,-754 1106.75,-754 1106.75,-731.5 11,-731.5"/>
<text text-anchor="start" x="14" y="-737.7" font-family="Times,serif" font-size="14.00">(CASE WHEN &quot;year&quot;::int &lt; 20 THEN (2000 + &quot;year&quot;::int) WHEN (20 &lt; &quot;year&quot;::int AND &quot;year&quot;::int &lt; 100) THEN (1900 + &quot;year&quot;::int) WHEN &quot;year&quot; IS NULL THEN 2000 ELSE &quot;year&quot;::int END)</text>
<polygon fill="none" stroke="black" points="8,-728.5 8,-848 1109.75,-848 1109.75,-728.5 8,-728.5"/>
</a>
</g>
</g>
<!-- medicare.ps.year&#45;&gt;medicare._ps.year -->
<g id="edge5" class="edge">
<title>medicare.ps.year&#45;&gt;medicare._ps.year</title>
<path fill="none" stroke="black" d="M558.88,-724.42C558.88,-716.2 558.88,-707.7 558.88,-699.3"/>
<polygon fill="black" stroke="black" points="562.38,-699.46 558.88,-689.46 555.38,-699.46 562.38,-699.46"/>
<text text-anchor="middle" x="578.38" y="-700.95" font-family="Times,serif" font-size="14.00">Copied</text>
</g>
<!-- medicare.ps.year_parent -->
<g id="node7" class="node">
<title>medicare.ps.year_parent</title>
<g id="a_node7"><a xlink:href="../medicare.ps/year.html" xlink:title="8 incoming links (columns)" target="_blank">
<path fill="yellow" stroke="black" d="M666.88,-987.18C666.88,-992.6 618.47,-997 558.88,-997 499.28,-997 450.88,-992.6 450.88,-987.18 450.88,-987.18 450.88,-898.82 450.88,-898.82 450.88,-893.4 499.28,-889 558.88,-889 618.47,-889 666.88,-893.4 666.88,-898.82 666.88,-898.82 666.88,-987.18 666.88,-987.18"/>
<path fill="none" stroke="black" d="M666.88,-987.18C666.88,-981.76 618.47,-977.36 558.88,-977.36 499.28,-977.36 450.88,-981.76 450.88,-987.18"/>
<text text-anchor="middle" x="558.88" y="-937.95" font-family="Times,serif" font-size="14.00">8 incoming links (columns)</text>
</a>
</g>
</g>
<!-- medicare.ps.year_parent&#45;&gt;medicare.ps.year -->
<g id="edge6" class="edge">
<title>medicare.ps.year_parent&#45;&gt;medicare.ps.year</title>
<path fill="none" stroke="goldenrod" stroke-width="6" d="M558.88,-888.58C558.88,-882.09 558.88,-875.35 558.88,-868.59"/>
<polygon fill="goldenrod" stroke="goldenrod" stroke-width="6" points="564.13,-868.8 558.88,-858.8 553.63,-868.8 564.13,-868.8"/>
</g>
</g>
</svg>
