<?xml version="1.0" encoding="UTF-8" standalone="no"?>
<!DOCTYPE svg PUBLIC "-//W3C//DTD SVG 1.1//EN"
 "http://www.w3.org/Graphics/SVG/1.1/DTD/svg11.dtd">
<!-- Generated by graphviz version 10.0.1 (20240210.2158)
 -->
<!-- Pages: 1 -->
<svg width="1126pt" height="454pt"
 viewBox="0.00 0.00 1125.75 454.00" xmlns="http://www.w3.org/2000/svg" xmlns:xlink="http://www.w3.org/1999/xlink">
<g id="graph0" class="graph" transform="scale(1 1) rotate(0) translate(4 450)">
<polygon fill="white" stroke="none" points="-4,4 -4,-450 1121.75,-450 1121.75,4 -4,4"/>
<!-- medicare.enrollments.year -->
<g id="node1" class="node">
<title>medicare.enrollments.year</title>
<g id="a_node1"><a xlink:href="../medicare.enrollments/year.html" xlink:title="&lt;TABLE&gt;" target="_blank">
<polygon fill="none" stroke="black" points="649.88,-36 467.88,-36 467.88,0 649.88,0 649.88,-36"/>
<text text-anchor="start" x="480.88" y="-13.95" font-family="Times,serif" font-weight="bold" font-size="14.00">medicare.enrollments.year</text>
<polygon fill="none" stroke="black" points="475.88,-4.75 475.88,-31.25 641.88,-31.25 641.88,-4.75 475.88,-4.75"/>
</a>
</g>
</g>
<!-- medicare._enrollments.year -->
<g id="node2" class="node">
<title>medicare._enrollments.year</title>
<g id="a_node2"><a xlink:href="../medicare._enrollments/year.html" xlink:title="&lt;TABLE&gt;" target="_blank">
<polygon fill="none" stroke="black" points="653.25,-109 464.5,-109 464.5,-73 653.25,-73 653.25,-109"/>
<text text-anchor="start" x="477.5" y="-86.95" font-family="Times,serif" font-weight="bold" font-size="14.00">medicare._enrollments.year</text>
<polygon fill="none" stroke="black" points="472.5,-77.75 472.5,-104.25 645.25,-104.25 645.25,-77.75 472.5,-77.75"/>
</a>
</g>
</g>
<!-- medicare._enrollments.year&#45;&gt;medicare.enrollments.year -->
<g id="edge1" class="edge">
<title>medicare._enrollments.year&#45;&gt;medicare.enrollments.year</title>
<path fill="none" stroke="black" d="M558.88,-72.81C558.88,-65.23 558.88,-56.1 558.88,-47.54"/>
<polygon fill="black" stroke="black" points="562.38,-47.54 558.88,-37.54 555.38,-47.54 562.38,-47.54"/>
<text text-anchor="middle" x="578.38" y="-49.45" font-family="Times,serif" font-size="14.00">Copied</text>
</g>
<!-- medicare._ps.year -->
<g id="node3" class="node">
<title>medicare._ps.year</title>
<g id="a_node3"><a xlink:href="../medicare._ps/year.html" xlink:title="&lt;TABLE&gt;" target="_blank">
<polygon fill="none" stroke="black" points="1117.75,-205 0,-205 0,-146 1117.75,-146 1117.75,-205"/>
<text text-anchor="start" x="505.62" y="-183.7" font-family="Times,serif" font-weight="bold" font-size="14.00">medicare._ps.year</text>
<polygon fill="none" stroke="black" points="11,-153 11,-175.5 1106.75,-175.5 1106.75,-153 11,-153"/>
<text text-anchor="start" x="14" y="-159.2" font-family="Times,serif" font-size="14.00">(CASE WHEN &quot;year&quot;::int &lt; 20 THEN (2000 + &quot;year&quot;::int) WHEN (20 &lt; &quot;year&quot;::int AND &quot;year&quot;::int &lt; 100) THEN (1900 + &quot;year&quot;::int) WHEN &quot;year&quot; IS NULL THEN 2000 ELSE &quot;year&quot;::int END)</text>
<polygon fill="none" stroke="black" points="8,-150 8,-201 1109.75,-201 1109.75,-150 8,-150"/>
</a>
</g>
</g>
<!-- medicare._ps.year&#45;&gt;medicare._enrollments.year -->
<g id="edge2" class="edge">
<title>medicare._ps.year&#45;&gt;medicare._enrollments.year</title>
<path fill="none" stroke="blue" stroke-width="5" d="M558.88,-145.65C558.88,-139.13 558.88,-132.17 558.88,-125.48"/>
<polygon fill="blue" stroke="blue" stroke-width="5" points="563.25,-125.65 558.88,-115.65 554.5,-125.65 563.25,-125.65"/>
<text text-anchor="middle" x="673.25" y="-122.45" font-family="Times,serif" font-size="14.00">	 &#160;Aggregated On bene_id, year, state</text>
</g>
<!-- medicare.ps.year -->
<g id="node4" class="node">
<title>medicare.ps.year</title>
<g id="a_node4"><a xlink:href="../medicare.ps/year.html" xlink:title="&lt;TABLE&gt;" target="_blank">
<polygon fill="none" stroke="black" points="1117.75,-301 0,-301 0,-242 1117.75,-242 1117.75,-301"/>
<text text-anchor="start" x="509" y="-279.7" font-family="Times,serif" font-weight="bold" font-size="14.00">medicare.ps.year</text>
<polygon fill="none" stroke="black" points="11,-249 11,-271.5 1106.75,-271.5 1106.75,-249 11,-249"/>
<text text-anchor="start" x="14" y="-255.2" font-family="Times,serif" font-size="14.00">(CASE WHEN &quot;year&quot;::int &lt; 20 THEN (2000 + &quot;year&quot;::int) WHEN (20 &lt; &quot;year&quot;::int AND &quot;year&quot;::int &lt; 100) THEN (1900 + &quot;year&quot;::int) WHEN &quot;year&quot; IS NULL THEN 2000 ELSE &quot;year&quot;::int END)</text>
<polygon fill="none" stroke="black" points="8,-246 8,-297 1109.75,-297 1109.75,-246 8,-246"/>
</a>
</g>
</g>
<!-- medicare.ps.year&#45;&gt;medicare._ps.year -->
<g id="edge3" class="edge">
<title>medicare.ps.year&#45;&gt;medicare._ps.year</title>
<path fill="none" stroke="black" d="M558.88,-241.53C558.88,-233.68 558.88,-225.05 558.88,-216.7"/>
<polygon fill="black" stroke="black" points="562.38,-216.73 558.88,-206.73 555.38,-216.73 562.38,-216.73"/>
<text text-anchor="middle" x="578.38" y="-218.45" font-family="Times,serif" font-size="14.00">Copied</text>
</g>
<!-- medicare.ps.year_parent -->
<g id="node5" class="node">
<title>medicare.ps.year_parent</title>
<g id="a_node5"><a xlink:href="../medicare.ps/year.html" xlink:title="8 incoming links (columns)" target="_blank">
<path fill="yellow" stroke="black" d="M666.88,-436.18C666.88,-441.6 618.47,-446 558.88,-446 499.28,-446 450.88,-441.6 450.88,-436.18 450.88,-436.18 450.88,-347.82 450.88,-347.82 450.88,-342.4 499.28,-338 558.88,-338 618.47,-338 666.88,-342.4 666.88,-347.82 666.88,-347.82 666.88,-436.18 666.88,-436.18"/>
<path fill="none" stroke="black" d="M666.88,-436.18C666.88,-430.76 618.47,-426.36 558.88,-426.36 499.28,-426.36 450.88,-430.76 450.88,-436.18"/>
<text text-anchor="middle" x="558.88" y="-386.95" font-family="Times,serif" font-size="14.00">8 incoming links (columns)</text>
</a>
</g>
</g>
<!-- medicare.ps.year_parent&#45;&gt;medicare.ps.year -->
<g id="edge4" class="edge">
<title>medicare.ps.year_parent&#45;&gt;medicare.ps.year</title>
<path fill="none" stroke="goldenrod" stroke-width="6" d="M558.88,-337.64C558.88,-330.89 558.88,-324.03 558.88,-317.42"/>
<polygon fill="goldenrod" stroke="goldenrod" stroke-width="6" points="564.13,-317.71 558.88,-307.71 553.63,-317.71 564.13,-317.71"/>
</g>
</g>
</svg>
