<?xml version="1.0" encoding="UTF-8" standalone="no"?>
<!DOCTYPE svg PUBLIC "-//W3C//DTD SVG 1.1//EN"
 "http://www.w3.org/Graphics/SVG/1.1/DTD/svg11.dtd">
<!-- Generated by graphviz version 10.0.1 (20240210.2158)
 -->
<!-- Pages: 1 -->
<svg width="1126pt" height="600pt"
 viewBox="0.00 0.00 1125.75 600.00" xmlns="http://www.w3.org/2000/svg" xmlns:xlink="http://www.w3.org/1999/xlink">
<g id="graph0" class="graph" transform="scale(1 1) rotate(0) translate(4 596)">
<polygon fill="white" stroke="none" points="-4,4 -4,-596 1121.75,-596 1121.75,4 -4,4"/>
<!-- medicare.qc_enrollments.year -->
<g id="node1" class="node">
<title>medicare.qc_enrollments.year</title>
<g id="a_node1"><a xlink:href="../medicare.qc_enrollments/year.html" xlink:title="&lt;TABLE&gt;" target="_blank">
<polygon fill="none" stroke="black" points="660,-36 457.75,-36 457.75,0 660,0 660,-36"/>
<text text-anchor="start" x="470.75" y="-13.95" font-family="Times,serif" font-weight="bold" font-size="14.00">medicare.qc_enrollments.year</text>
<polygon fill="none" stroke="black" points="465.75,-4.75 465.75,-31.25 652,-31.25 652,-4.75 465.75,-4.75"/>
</a>
</g>
</g>
<!-- medicare.qc_enrl_bene.year -->
<g id="node2" class="node">
<title>medicare.qc_enrl_bene.year</title>
<g id="a_node2"><a xlink:href="../medicare.qc_enrl_bene/year.html" xlink:title="&lt;TABLE&gt;" target="_blank">
<polygon fill="none" stroke="black" points="654,-109 463.75,-109 463.75,-73 654,-73 654,-109"/>
<text text-anchor="start" x="476.75" y="-86.95" font-family="Times,serif" font-weight="bold" font-size="14.00">medicare.qc_enrl_bene.year</text>
<polygon fill="none" stroke="black" points="471.75,-77.75 471.75,-104.25 646,-104.25 646,-77.75 471.75,-77.75"/>
</a>
</g>
</g>
<!-- medicare.qc_enrl_bene.year&#45;&gt;medicare.qc_enrollments.year -->
<g id="edge1" class="edge">
<title>medicare.qc_enrl_bene.year&#45;&gt;medicare.qc_enrollments.year</title>
<path fill="none" stroke="black" d="M558.88,-72.81C558.88,-65.23 558.88,-56.1 558.88,-47.54"/>
<polygon fill="black" stroke="black" points="562.38,-47.54 558.88,-37.54 555.38,-47.54 562.38,-47.54"/>
<text text-anchor="middle" x="597.5" y="-49.45" font-family="Times,serif" font-size="14.00"> &#160;Transformed</text>
</g>
<!-- medicare.enrollments.year -->
<g id="node3" class="node">
<title>medicare.enrollments.year</title>
<g id="a_node3"><a xlink:href="../medicare.enrollments/year.html" xlink:title="&lt;TABLE&gt;" target="_blank">
<polygon fill="none" stroke="black" points="649.88,-182 467.88,-182 467.88,-146 649.88,-146 649.88,-182"/>
<text text-anchor="start" x="480.88" y="-159.95" font-family="Times,serif" font-weight="bold" font-size="14.00">medicare.enrollments.year</text>
<polygon fill="none" stroke="black" points="475.88,-150.75 475.88,-177.25 641.88,-177.25 641.88,-150.75 475.88,-150.75"/>
</a>
</g>
</g>
<!-- medicare.enrollments.year&#45;&gt;medicare.qc_enrl_bene.year -->
<g id="edge2" class="edge">
<title>medicare.enrollments.year&#45;&gt;medicare.qc_enrl_bene.year</title>
<path fill="none" stroke="black" d="M558.88,-145.81C558.88,-138.23 558.88,-129.1 558.88,-120.54"/>
<polygon fill="black" stroke="black" points="562.38,-120.54 558.88,-110.54 555.38,-120.54 562.38,-120.54"/>
<text text-anchor="middle" x="605" y="-122.45" font-family="Times,serif" font-size="14.00">	join natural</text>
</g>
<!-- medicare._enrollments.year -->
<g id="node4" class="node">
<title>medicare._enrollments.year</title>
<g id="a_node4"><a xlink:href="../medicare._enrollments/year.html" xlink:title="&lt;TABLE&gt;" target="_blank">
<polygon fill="none" stroke="black" points="653.25,-255 464.5,-255 464.5,-219 653.25,-219 653.25,-255"/>
<text text-anchor="start" x="477.5" y="-232.95" font-family="Times,serif" font-weight="bold" font-size="14.00">medicare._enrollments.year</text>
<polygon fill="none" stroke="black" points="472.5,-223.75 472.5,-250.25 645.25,-250.25 645.25,-223.75 472.5,-223.75"/>
</a>
</g>
</g>
<!-- medicare._enrollments.year&#45;&gt;medicare.enrollments.year -->
<g id="edge3" class="edge">
<title>medicare._enrollments.year&#45;&gt;medicare.enrollments.year</title>
<path fill="none" stroke="black" d="M558.88,-218.81C558.88,-211.23 558.88,-202.1 558.88,-193.54"/>
<polygon fill="black" stroke="black" points="562.38,-193.54 558.88,-183.54 555.38,-193.54 562.38,-193.54"/>
<text text-anchor="middle" x="578.38" y="-195.45" font-family="Times,serif" font-size="14.00">Copied</text>
</g>
<!-- medicare._ps.year -->
<g id="node5" class="node">
<title>medicare._ps.year</title>
<g id="a_node5"><a xlink:href="../medicare._ps/year.html" xlink:title="&lt;TABLE&gt;" target="_blank">
<polygon fill="none" stroke="black" points="1117.75,-351 0,-351 0,-292 1117.75,-292 1117.75,-351"/>
<text text-anchor="start" x="505.62" y="-329.7" font-family="Times,serif" font-weight="bold" font-size="14.00">medicare._ps.year</text>
<polygon fill="none" stroke="black" points="11,-299 11,-321.5 1106.75,-321.5 1106.75,-299 11,-299"/>
<text text-anchor="start" x="14" y="-305.2" font-family="Times,serif" font-size="14.00">(CASE WHEN &quot;year&quot;::int &lt; 20 THEN (2000 + &quot;year&quot;::int) WHEN (20 &lt; &quot;year&quot;::int AND &quot;year&quot;::int &lt; 100) THEN (1900 + &quot;year&quot;::int) WHEN &quot;year&quot; IS NULL THEN 2000 ELSE &quot;year&quot;::int END)</text>
<polygon fill="none" stroke="black" points="8,-296 8,-347 1109.75,-347 1109.75,-296 8,-296"/>
</a>
</g>
</g>
<!-- medicare._ps.year&#45;&gt;medicare._enrollments.year -->
<g id="edge4" class="edge">
<title>medicare._ps.year&#45;&gt;medicare._enrollments.year</title>
<path fill="none" stroke="blue" stroke-width="5" d="M558.88,-291.65C558.88,-285.13 558.88,-278.17 558.88,-271.48"/>
<polygon fill="blue" stroke="blue" stroke-width="5" points="563.25,-271.65 558.88,-261.65 554.5,-271.65 563.25,-271.65"/>
<text text-anchor="middle" x="673.25" y="-268.45" font-family="Times,serif" font-size="14.00">	 &#160;Aggregated On bene_id, year, state</text>
</g>
<!-- medicare.ps.year -->
<g id="node6" class="node">
<title>medicare.ps.year</title>
<g id="a_node6"><a xlink:href="../medicare.ps/year.html" xlink:title="&lt;TABLE&gt;" target="_blank">
<polygon fill="none" stroke="black" points="1117.75,-447 0,-447 0,-388 1117.75,-388 1117.75,-447"/>
<text text-anchor="start" x="509" y="-425.7" font-family="Times,serif" font-weight="bold" font-size="14.00">medicare.ps.year</text>
<polygon fill="none" stroke="black" points="11,-395 11,-417.5 1106.75,-417.5 1106.75,-395 11,-395"/>
<text text-anchor="start" x="14" y="-401.2" font-family="Times,serif" font-size="14.00">(CASE WHEN &quot;year&quot;::int &lt; 20 THEN (2000 + &quot;year&quot;::int) WHEN (20 &lt; &quot;year&quot;::int AND &quot;year&quot;::int &lt; 100) THEN (1900 + &quot;year&quot;::int) WHEN &quot;year&quot; IS NULL THEN 2000 ELSE &quot;year&quot;::int END)</text>
<polygon fill="none" stroke="black" points="8,-392 8,-443 1109.75,-443 1109.75,-392 8,-392"/>
</a>
</g>
</g>
<!-- medicare.ps.year&#45;&gt;medicare._ps.year -->
<g id="edge5" class="edge">
<title>medicare.ps.year&#45;&gt;medicare._ps.year</title>
<path fill="none" stroke="black" d="M558.88,-387.53C558.88,-379.68 558.88,-371.05 558.88,-362.7"/>
<polygon fill="black" stroke="black" points="562.38,-362.73 558.88,-352.73 555.38,-362.73 562.38,-362.73"/>
<text text-anchor="middle" x="578.38" y="-364.45" font-family="Times,serif" font-size="14.00">Copied</text>
</g>
<!-- medicare.ps.year_parent -->
<g id="node7" class="node">
<title>medicare.ps.year_parent</title>
<g id="a_node7"><a xlink:href="../medicare.ps/year.html" xlink:title="8 incoming links (columns)" target="_blank">
<path fill="yellow" stroke="black" d="M666.88,-582.18C666.88,-587.6 618.47,-592 558.88,-592 499.28,-592 450.88,-587.6 450.88,-582.18 450.88,-582.18 450.88,-493.82 450.88,-493.82 450.88,-488.4 499.28,-484 558.88,-484 618.47,-484 666.88,-488.4 666.88,-493.82 666.88,-493.82 666.88,-582.18 666.88,-582.18"/>
<path fill="none" stroke="black" d="M666.88,-582.18C666.88,-576.76 618.47,-572.36 558.88,-572.36 499.28,-572.36 450.88,-576.76 450.88,-582.18"/>
<text text-anchor="middle" x="558.88" y="-532.95" font-family="Times,serif" font-size="14.00">8 incoming links (columns)</text>
</a>
</g>
</g>
<!-- medicare.ps.year_parent&#45;&gt;medicare.ps.year -->
<g id="edge6" class="edge">
<title>medicare.ps.year_parent&#45;&gt;medicare.ps.year</title>
<path fill="none" stroke="goldenrod" stroke-width="6" d="M558.88,-483.64C558.88,-476.89 558.88,-470.03 558.88,-463.42"/>
<polygon fill="goldenrod" stroke="goldenrod" stroke-width="6" points="564.13,-463.71 558.88,-453.71 553.63,-463.71 564.13,-463.71"/>
</g>
</g>
</svg>
