<?xml version="1.0" encoding="UTF-8" standalone="no"?>
<!DOCTYPE svg PUBLIC "-//W3C//DTD SVG 1.1//EN"
 "http://www.w3.org/Graphics/SVG/1.1/DTD/svg11.dtd">
<!-- Generated by graphviz version 10.0.1 (20240210.2158)
 -->
<!-- Pages: 1 -->
<svg width="1126pt" height="381pt"
 viewBox="0.00 0.00 1125.75 381.00" xmlns="http://www.w3.org/2000/svg" xmlns:xlink="http://www.w3.org/1999/xlink">
<g id="graph0" class="graph" transform="scale(1 1) rotate(0) translate(4 377)">
<polygon fill="white" stroke="none" points="-4,4 -4,-377 1121.75,-377 1121.75,4 -4,4"/>
<!-- medicare._enrollments.year -->
<g id="node1" class="node">
<title>medicare._enrollments.year</title>
<g id="a_node1"><a xlink:href="../medicare._enrollments/year.html" xlink:title="&lt;TABLE&gt;" target="_blank">
<polygon fill="none" stroke="black" points="653.25,-36 464.5,-36 464.5,0 653.25,0 653.25,-36"/>
<text text-anchor="start" x="477.5" y="-13.95" font-family="Times,serif" font-weight="bold" font-size="14.00">medicare._enrollments.year</text>
<polygon fill="none" stroke="black" points="472.5,-4.75 472.5,-31.25 645.25,-31.25 645.25,-4.75 472.5,-4.75"/>
</a>
</g>
</g>
<!-- medicare._ps.year -->
<g id="node2" class="node">
<title>medicare._ps.year</title>
<g id="a_node2"><a xlink:href="../medicare._ps/year.html" xlink:title="&lt;TABLE&gt;" target="_blank">
<polygon fill="none" stroke="black" points="1117.75,-132 0,-132 0,-73 1117.75,-73 1117.75,-132"/>
<text text-anchor="start" x="505.62" y="-110.7" font-family="Times,serif" font-weight="bold" font-size="14.00">medicare._ps.year</text>
<polygon fill="none" stroke="black" points="11,-80 11,-102.5 1106.75,-102.5 1106.75,-80 11,-80"/>
<text text-anchor="start" x="14" y="-86.2" font-family="Times,serif" font-size="14.00">(CASE WHEN &quot;year&quot;::int &lt; 20 THEN (2000 + &quot;year&quot;::int) WHEN (20 &lt; &quot;year&quot;::int AND &quot;year&quot;::int &lt; 100) THEN (1900 + &quot;year&quot;::int) WHEN &quot;year&quot; IS NULL THEN 2000 ELSE &quot;year&quot;::int END)</text>
<polygon fill="none" stroke="black" points="8,-77 8,-128 1109.75,-128 1109.75,-77 8,-77"/>
</a>
</g>
</g>
<!-- medicare._ps.year&#45;&gt;medicare._enrollments.year -->
<g id="edge1" class="edge">
<title>medicare._ps.year&#45;&gt;medicare._enrollments.year</title>
<path fill="none" stroke="blue" stroke-width="5" d="M558.88,-72.65C558.88,-66.13 558.88,-59.17 558.88,-52.48"/>
<polygon fill="blue" stroke="blue" stroke-width="5" points="563.25,-52.65 558.88,-42.65 554.5,-52.65 563.25,-52.65"/>
<text text-anchor="middle" x="673.25" y="-49.45" font-family="Times,serif" font-size="14.00">	 &#160;Aggregated On bene_id, year, state</text>
</g>
<!-- medicare.ps.year -->
<g id="node3" class="node">
<title>medicare.ps.year</title>
<g id="a_node3"><a xlink:href="../medicare.ps/year.html" xlink:title="&lt;TABLE&gt;" target="_blank">
<polygon fill="none" stroke="black" points="1117.75,-228 0,-228 0,-169 1117.75,-169 1117.75,-228"/>
<text text-anchor="start" x="509" y="-206.7" font-family="Times,serif" font-weight="bold" font-size="14.00">medicare.ps.year</text>
<polygon fill="none" stroke="black" points="11,-176 11,-198.5 1106.75,-198.5 1106.75,-176 11,-176"/>
<text text-anchor="start" x="14" y="-182.2" font-family="Times,serif" font-size="14.00">(CASE WHEN &quot;year&quot;::int &lt; 20 THEN (2000 + &quot;year&quot;::int) WHEN (20 &lt; &quot;year&quot;::int AND &quot;year&quot;::int &lt; 100) THEN (1900 + &quot;year&quot;::int) WHEN &quot;year&quot; IS NULL THEN 2000 ELSE &quot;year&quot;::int END)</text>
<polygon fill="none" stroke="black" points="8,-173 8,-224 1109.75,-224 1109.75,-173 8,-173"/>
</a>
</g>
</g>
<!-- medicare.ps.year&#45;&gt;medicare._ps.year -->
<g id="edge2" class="edge">
<title>medicare.ps.year&#45;&gt;medicare._ps.year</title>
<path fill="none" stroke="black" d="M558.88,-168.53C558.88,-160.68 558.88,-152.05 558.88,-143.7"/>
<polygon fill="black" stroke="black" points="562.38,-143.73 558.88,-133.73 555.38,-143.73 562.38,-143.73"/>
<text text-anchor="middle" x="578.38" y="-145.45" font-family="Times,serif" font-size="14.00">Copied</text>
</g>
<!-- medicare.ps.year_parent -->
<g id="node4" class="node">
<title>medicare.ps.year_parent</title>
<g id="a_node4"><a xlink:href="../medicare.ps/year.html" xlink:title="8 incoming links (columns)" target="_blank">
<path fill="yellow" stroke="black" d="M666.88,-363.18C666.88,-368.6 618.47,-373 558.88,-373 499.28,-373 450.88,-368.6 450.88,-363.18 450.88,-363.18 450.88,-274.82 450.88,-274.82 450.88,-269.4 499.28,-265 558.88,-265 618.47,-265 666.88,-269.4 666.88,-274.82 666.88,-274.82 666.88,-363.18 666.88,-363.18"/>
<path fill="none" stroke="black" d="M666.88,-363.18C666.88,-357.76 618.47,-353.36 558.88,-353.36 499.28,-353.36 450.88,-357.76 450.88,-363.18"/>
<text text-anchor="middle" x="558.88" y="-313.95" font-family="Times,serif" font-size="14.00">8 incoming links (columns)</text>
</a>
</g>
</g>
<!-- medicare.ps.year_parent&#45;&gt;medicare.ps.year -->
<g id="edge3" class="edge">
<title>medicare.ps.year_parent&#45;&gt;medicare.ps.year</title>
<path fill="none" stroke="goldenrod" stroke-width="6" d="M558.88,-264.64C558.88,-257.89 558.88,-251.03 558.88,-244.42"/>
<polygon fill="goldenrod" stroke="goldenrod" stroke-width="6" points="564.13,-244.71 558.88,-234.71 553.63,-244.71 564.13,-244.71"/>
</g>
</g>
</svg>
