<?xml version="1.0" encoding="UTF-8" standalone="no"?>
<!DOCTYPE svg PUBLIC "-//W3C//DTD SVG 1.1//EN"
 "http://www.w3.org/Graphics/SVG/1.1/DTD/svg11.dtd">
<!-- Generated by graphviz version 10.0.1 (20240210.2158)
 -->
<!-- Pages: 1 -->
<svg width="463pt" height="369pt"
 viewBox="0.00 0.00 462.75 368.50" xmlns="http://www.w3.org/2000/svg" xmlns:xlink="http://www.w3.org/1999/xlink">
<g id="graph0" class="graph" transform="scale(1 1) rotate(0) translate(4 364.5)">
<polygon fill="white" stroke="none" points="-4,4 -4,-364.5 458.75,-364.5 458.75,4 -4,4"/>
<!-- medicare._ps.yob -->
<g id="node1" class="node">
<title>medicare._ps.yob</title>
<g id="a_node1"><a xlink:href="../medicare._ps/yob.html" xlink:title="&lt;TABLE&gt;" target="_blank">
<polygon fill="none" stroke="black" points="454.75,-59 0,-59 0,0 454.75,0 454.75,-59"/>
<text text-anchor="start" x="176.38" y="-37.7" font-family="Times,serif" font-weight="bold" font-size="14.00">medicare._ps.yob</text>
<polygon fill="none" stroke="black" points="11,-7 11,-29.5 443.75,-29.5 443.75,-7 11,-7"/>
<text text-anchor="start" x="14" y="-13.2" font-family="Times,serif" font-size="14.00">CASE WHEN age is not NULL THEN (year &#45; age) ELSE NULL END as yob</text>
<polygon fill="none" stroke="black" points="8,-4 8,-55 446.75,-55 446.75,-4 8,-4"/>
</a>
</g>
</g>
<!-- medicare.ps.age -->
<g id="node2" class="node">
<title>medicare.ps.age</title>
<g id="a_node2"><a xlink:href="../medicare.ps/age.html" xlink:title="&lt;TABLE&gt;" target="_blank">
<polygon fill="none" stroke="black" points="361.62,-215.5 93.12,-215.5 93.12,-96 361.62,-96 361.62,-215.5"/>
<text text-anchor="start" x="180.5" y="-194.2" font-family="Times,serif" font-weight="bold" font-size="14.00">medicare.ps.age</text>
<text text-anchor="start" x="129.12" y="-147.7" font-family="Times,serif" font-size="14.00">Age on January 1 of a given year, if</text>
<text text-anchor="start" x="203.38" y="-131.2" font-family="Times,serif" font-size="14.00">provided</text>
<polygon fill="none" stroke="black" points="101.12,-100 101.12,-211.5 353.62,-211.5 353.62,-100 101.12,-100"/>
</a>
</g>
</g>
<!-- medicare.ps.age&#45;&gt;medicare._ps.yob -->
<g id="edge1" class="edge">
<title>medicare.ps.age&#45;&gt;medicare._ps.yob</title>
<path fill="none" stroke="black" d="M227.38,-95.54C227.38,-87.05 227.38,-78.5 227.38,-70.5"/>
<polygon fill="black" stroke="black" points="230.88,-70.78 227.38,-60.78 223.88,-70.78 230.88,-70.78"/>
<text text-anchor="middle" x="266" y="-72.45" font-family="Times,serif" font-size="14.00"> &#160;Transformed</text>
</g>
<!-- medicare.ps.age_parent -->
<g id="node3" class="node">
<title>medicare.ps.age_parent</title>
<g id="a_node3"><a xlink:href="../medicare.ps/age.html" xlink:title="8 incoming links (columns)" target="_blank">
<path fill="yellow" stroke="black" d="M335.38,-350.68C335.38,-356.1 286.97,-360.5 227.38,-360.5 167.78,-360.5 119.38,-356.1 119.38,-350.68 119.38,-350.68 119.38,-262.32 119.38,-262.32 119.38,-256.9 167.78,-252.5 227.38,-252.5 286.97,-252.5 335.38,-256.9 335.38,-262.32 335.38,-262.32 335.38,-350.68 335.38,-350.68"/>
<path fill="none" stroke="black" d="M335.38,-350.68C335.38,-345.26 286.97,-340.86 227.38,-340.86 167.78,-340.86 119.38,-345.26 119.38,-350.68"/>
<text text-anchor="middle" x="227.38" y="-301.45" font-family="Times,serif" font-size="14.00">8 incoming links (columns)</text>
</a>
</g>
</g>
<!-- medicare.ps.age_parent&#45;&gt;medicare.ps.age -->
<g id="edge2" class="edge">
<title>medicare.ps.age_parent&#45;&gt;medicare.ps.age</title>
<path fill="none" stroke="goldenrod" stroke-width="6" d="M227.38,-252.22C227.38,-245.7 227.38,-238.94 227.38,-232.18"/>
<polygon fill="goldenrod" stroke="goldenrod" stroke-width="6" points="232.63,-232.42 227.38,-222.42 222.13,-232.42 232.63,-232.42"/>
</g>
</g>
</svg>
