<?xml version="1.0" encoding="UTF-8" standalone="no"?>
<!DOCTYPE svg PUBLIC "-//W3C//DTD SVG 1.1//EN"
 "http://www.w3.org/Graphics/SVG/1.1/DTD/svg11.dtd">
<!-- Generated by graphviz version 10.0.1 (20240210.2158)
 -->
<!-- Pages: 1 -->
<svg width="463pt" height="561pt"
 viewBox="0.00 0.00 462.75 560.50" xmlns="http://www.w3.org/2000/svg" xmlns:xlink="http://www.w3.org/1999/xlink">
<g id="graph0" class="graph" transform="scale(1 1) rotate(0) translate(4 556.5)">
<polygon fill="white" stroke="none" points="-4,4 -4,-556.5 458.75,-556.5 458.75,4 -4,4"/>
<!-- medicare.beneficiaries.yob -->
<g id="node1" class="node">
<title>medicare.beneficiaries.yob</title>
<g id="a_node1"><a xlink:href="../medicare.beneficiaries/yob.html" xlink:title="&lt;TABLE&gt;" target="_blank">
<polygon fill="none" stroke="black" points="318,-59 136.75,-59 136.75,0 318,0 318,-59"/>
<text text-anchor="start" x="149.75" y="-37.7" font-family="Times,serif" font-weight="bold" font-size="14.00">medicare.beneficiaries.yob</text>
<polygon fill="none" stroke="black" points="147.75,-7 147.75,-29.5 307,-29.5 307,-7 147.75,-7"/>
<text text-anchor="start" x="150.75" y="-13.2" font-family="Times,serif" font-size="14.00">MIN(yob)</text>
<polygon fill="none" stroke="black" points="144.75,-4 144.75,-55 310,-55 310,-4 144.75,-4"/>
</a>
</g>
</g>
<!-- medicare._beneficiaries.yob -->
<g id="node2" class="node">
<title>medicare._beneficiaries.yob</title>
<g id="a_node2"><a xlink:href="../medicare._beneficiaries/yob.html" xlink:title="&lt;TABLE&gt;" target="_blank">
<polygon fill="none" stroke="black" points="321.38,-155 133.38,-155 133.38,-96 321.38,-96 321.38,-155"/>
<text text-anchor="start" x="146.38" y="-133.7" font-family="Times,serif" font-weight="bold" font-size="14.00">medicare._beneficiaries.yob</text>
<polygon fill="none" stroke="black" points="144.38,-103 144.38,-125.5 310.38,-125.5 310.38,-103 144.38,-103"/>
<text text-anchor="start" x="147.38" y="-109.2" font-family="Times,serif" font-size="14.00">MIN(yob)</text>
<polygon fill="none" stroke="black" points="141.38,-100 141.38,-151 313.38,-151 313.38,-100 141.38,-100"/>
</a>
</g>
</g>
<!-- medicare._beneficiaries.yob&#45;&gt;medicare.beneficiaries.yob -->
<g id="edge1" class="edge">
<title>medicare._beneficiaries.yob&#45;&gt;medicare.beneficiaries.yob</title>
<path fill="none" stroke="black" d="M227.38,-95.53C227.38,-87.68 227.38,-79.05 227.38,-70.7"/>
<polygon fill="black" stroke="black" points="230.88,-70.73 227.38,-60.73 223.88,-70.73 230.88,-70.73"/>
<text text-anchor="middle" x="246.88" y="-72.45" font-family="Times,serif" font-size="14.00">Copied</text>
</g>
<!-- medicare._ps.yob -->
<g id="node3" class="node">
<title>medicare._ps.yob</title>
<g id="a_node3"><a xlink:href="../medicare._ps/yob.html" xlink:title="&lt;TABLE&gt;" target="_blank">
<polygon fill="none" stroke="black" points="454.75,-251 0,-251 0,-192 454.75,-192 454.75,-251"/>
<text text-anchor="start" x="176.38" y="-229.7" font-family="Times,serif" font-weight="bold" font-size="14.00">medicare._ps.yob</text>
<polygon fill="none" stroke="black" points="11,-199 11,-221.5 443.75,-221.5 443.75,-199 11,-199"/>
<text text-anchor="start" x="14" y="-205.2" font-family="Times,serif" font-size="14.00">CASE WHEN age is not NULL THEN (year &#45; age) ELSE NULL END as yob</text>
<polygon fill="none" stroke="black" points="8,-196 8,-247 446.75,-247 446.75,-196 8,-196"/>
</a>
</g>
</g>
<!-- medicare._ps.yob&#45;&gt;medicare._beneficiaries.yob -->
<g id="edge2" class="edge">
<title>medicare._ps.yob&#45;&gt;medicare._beneficiaries.yob</title>
<path fill="none" stroke="blue" stroke-width="5" d="M227.38,-191.53C227.38,-185.13 227.38,-178.2 227.38,-171.33"/>
<polygon fill="blue" stroke="blue" stroke-width="5" points="231.75,-171.45 227.38,-161.45 223,-171.45 231.75,-171.45"/>
<text text-anchor="middle" x="310.62" y="-168.45" font-family="Times,serif" font-size="14.00">	 &#160;Aggregated On bene_id</text>
</g>
<!-- medicare.ps.age -->
<g id="node4" class="node">
<title>medicare.ps.age</title>
<g id="a_node4"><a xlink:href="../medicare.ps/age.html" xlink:title="&lt;TABLE&gt;" target="_blank">
<polygon fill="none" stroke="black" points="361.62,-407.5 93.12,-407.5 93.12,-288 361.62,-288 361.62,-407.5"/>
<text text-anchor="start" x="180.5" y="-386.2" font-family="Times,serif" font-weight="bold" font-size="14.00">medicare.ps.age</text>
<text text-anchor="start" x="129.12" y="-339.7" font-family="Times,serif" font-size="14.00">Age on January 1 of a given year, if</text>
<text text-anchor="start" x="203.38" y="-323.2" font-family="Times,serif" font-size="14.00">provided</text>
<polygon fill="none" stroke="black" points="101.12,-292 101.12,-403.5 353.62,-403.5 353.62,-292 101.12,-292"/>
</a>
</g>
</g>
<!-- medicare.ps.age&#45;&gt;medicare._ps.yob -->
<g id="edge3" class="edge">
<title>medicare.ps.age&#45;&gt;medicare._ps.yob</title>
<path fill="none" stroke="black" d="M227.38,-287.54C227.38,-279.05 227.38,-270.5 227.38,-262.5"/>
<polygon fill="black" stroke="black" points="230.88,-262.78 227.38,-252.78 223.88,-262.78 230.88,-262.78"/>
<text text-anchor="middle" x="266" y="-264.45" font-family="Times,serif" font-size="14.00"> &#160;Transformed</text>
</g>
<!-- medicare.ps.age_parent -->
<g id="node5" class="node">
<title>medicare.ps.age_parent</title>
<g id="a_node5"><a xlink:href="../medicare.ps/age.html" xlink:title="8 incoming links (columns)" target="_blank">
<path fill="yellow" stroke="black" d="M335.38,-542.68C335.38,-548.1 286.97,-552.5 227.38,-552.5 167.78,-552.5 119.38,-548.1 119.38,-542.68 119.38,-542.68 119.38,-454.32 119.38,-454.32 119.38,-448.9 167.78,-444.5 227.38,-444.5 286.97,-444.5 335.38,-448.9 335.38,-454.32 335.38,-454.32 335.38,-542.68 335.38,-542.68"/>
<path fill="none" stroke="black" d="M335.38,-542.68C335.38,-537.26 286.97,-532.86 227.38,-532.86 167.78,-532.86 119.38,-537.26 119.38,-542.68"/>
<text text-anchor="middle" x="227.38" y="-493.45" font-family="Times,serif" font-size="14.00">8 incoming links (columns)</text>
</a>
</g>
</g>
<!-- medicare.ps.age_parent&#45;&gt;medicare.ps.age -->
<g id="edge4" class="edge">
<title>medicare.ps.age_parent&#45;&gt;medicare.ps.age</title>
<path fill="none" stroke="goldenrod" stroke-width="6" d="M227.38,-444.22C227.38,-437.7 227.38,-430.94 227.38,-424.18"/>
<polygon fill="goldenrod" stroke="goldenrod" stroke-width="6" points="232.63,-424.42 227.38,-414.42 222.13,-424.42 232.63,-424.42"/>
</g>
</g>
</svg>
