<?xml version="1.0" encoding="UTF-8" standalone="no"?>
<!DOCTYPE svg PUBLIC "-//W3C//DTD SVG 1.1//EN"
 "http://www.w3.org/Graphics/SVG/1.1/DTD/svg11.dtd">
<!-- Generated by graphviz version 10.0.1 (20240210.2158)
 -->
<!-- Pages: 1 -->
<svg width="1421pt" height="1438pt"
 viewBox="0.00 0.00 1421.00 1437.50" xmlns="http://www.w3.org/2000/svg" xmlns:xlink="http://www.w3.org/1999/xlink">
<g id="graph0" class="graph" transform="scale(1 1) rotate(0) translate(4 1433.5)">
<polygon fill="white" stroke="none" points="-4,4 -4,-1433.5 1417,-1433.5 1417,4 -4,4"/>
<!-- medicare.qc_admissions.zip -->
<g id="node1" class="node">
<title>medicare.qc_admissions.zip</title>
<g id="a_node1"><a xlink:href="../medicare.qc_admissions/zip.html" xlink:title="&lt;TABLE&gt;" target="_blank">
<polygon fill="none" stroke="black" points="786.12,-103 588.88,-103 588.88,0 786.12,0 786.12,-103"/>
<text text-anchor="start" x="606.12" y="-81.7" font-family="Times,serif" font-weight="bold" font-size="14.00">medicare.qc_admissions.zip</text>
<text text-anchor="start" x="624.88" y="-35.2" font-family="Times,serif" font-size="14.00">Zip Code of Residence</text>
<polygon fill="none" stroke="black" points="596.88,-4 596.88,-99 778.12,-99 778.12,-4 596.88,-4"/>
</a>
</g>
</g>
<!-- medicare.qc_adm_union.zip -->
<g id="node2" class="node">
<title>medicare.qc_adm_union.zip</title>
<g id="a_node2"><a xlink:href="../medicare.qc_adm_union/zip.html" xlink:title="&lt;TABLE&gt;" target="_blank">
<polygon fill="none" stroke="black" points="1107,-290 268,-290 268,-140 1107,-140 1107,-290"/>
<text text-anchor="start" x="284" y="-268.7" font-family="Times,serif" font-weight="bold" font-size="14.00">medicare.qc_adm_union.zip</text>
<text text-anchor="start" x="303.88" y="-222.7" font-family="Times,serif" font-size="14.00">Zip Code of Residence</text>
<polygon fill="none" stroke="black" points="279,-171 279,-193 454,-193 454,-171 279,-171"/>
<text text-anchor="start" x="282" y="-176.7" font-family="Times,serif" font-size="14.00">numeric →</text>
<polygon fill="none" stroke="black" points="456,-171 456,-193 1096,-193 1096,-171 456,-171"/>
<text text-anchor="start" x="458.75" y="-176.7" font-family="Times,serif" font-size="14.00">(CASE WHEN {column_name} &lt; 100000 THEN {column_name}::int ELSE ({column_name}/10000)::INT END)</text>
<polygon fill="none" stroke="black" points="279,-147 279,-169 454,-169 454,-147 279,-147"/>
<text text-anchor="start" x="282" y="-152.7" font-family="Times,serif" font-size="14.00">character varying →</text>
<polygon fill="none" stroke="black" points="456,-147 456,-169 1096,-169 1096,-147 456,-147"/>
<text text-anchor="start" x="459" y="-152.7" font-family="Times,serif" font-size="14.00">SUBSTRING({column_name} FROM 1 FOR 5)::INT</text>
<polygon fill="none" stroke="black" points="276,-144 276,-286 1099,-286 1099,-144 276,-144"/>
</a>
</g>
</g>
<!-- medicare.qc_adm_union.zip&#45;&gt;medicare.qc_admissions.zip -->
<g id="edge1" class="edge">
<title>medicare.qc_adm_union.zip&#45;&gt;medicare.qc_admissions.zip</title>
<path fill="none" stroke="black" d="M687.5,-139.87C687.5,-131.41 687.5,-122.86 687.5,-114.59"/>
<polygon fill="black" stroke="black" points="691,-114.63 687.5,-104.63 684,-114.63 691,-114.63"/>
<text text-anchor="middle" x="726.12" y="-116.45" font-family="Times,serif" font-size="14.00"> &#160;Transformed</text>
</g>
<!-- medicare.admissions.zip -->
<g id="node3" class="node">
<title>medicare.admissions.zip</title>
<g id="a_node3"><a xlink:href="../medicare.admissions/zip.html" xlink:title="&lt;TABLE&gt;" target="_blank">
<polygon fill="none" stroke="black" points="1107,-477 268,-477 268,-327 1107,-327 1107,-477"/>
<text text-anchor="start" x="295.25" y="-455.7" font-family="Times,serif" font-weight="bold" font-size="14.00">medicare.admissions.zip</text>
<text text-anchor="start" x="303.88" y="-409.7" font-family="Times,serif" font-size="14.00">Zip Code of Residence</text>
<polygon fill="none" stroke="black" points="279,-358 279,-380 454,-380 454,-358 279,-358"/>
<text text-anchor="start" x="282" y="-363.7" font-family="Times,serif" font-size="14.00">numeric →</text>
<polygon fill="none" stroke="black" points="456,-358 456,-380 1096,-380 1096,-358 456,-358"/>
<text text-anchor="start" x="458.75" y="-363.7" font-family="Times,serif" font-size="14.00">(CASE WHEN {column_name} &lt; 100000 THEN {column_name}::int ELSE ({column_name}/10000)::INT END)</text>
<polygon fill="none" stroke="black" points="279,-334 279,-356 454,-356 454,-334 279,-334"/>
<text text-anchor="start" x="282" y="-339.7" font-family="Times,serif" font-size="14.00">character varying →</text>
<polygon fill="none" stroke="black" points="456,-334 456,-356 1096,-356 1096,-334 456,-334"/>
<text text-anchor="start" x="459" y="-339.7" font-family="Times,serif" font-size="14.00">SUBSTRING({column_name} FROM 1 FOR 5)::INT</text>
<polygon fill="none" stroke="black" points="276,-331 276,-473 1099,-473 1099,-331 276,-331"/>
</a>
</g>
</g>
<!-- medicare.admissions.zip&#45;&gt;medicare.qc_adm_union.zip -->
<g id="edge2" class="edge">
<title>medicare.admissions.zip&#45;&gt;medicare.qc_adm_union.zip</title>
<path fill="none" stroke="black" d="M687.5,-326.55C687.5,-318.34 687.5,-309.93 687.5,-301.59"/>
<polygon fill="black" stroke="black" points="691,-301.81 687.5,-291.81 684,-301.81 691,-301.81"/>
<text text-anchor="middle" x="707" y="-303.45" font-family="Times,serif" font-size="14.00">Copied</text>
</g>
<!-- medicare.ip.zip -->
<g id="node4" class="node">
<title>medicare.ip.zip</title>
<g id="a_node4"><a xlink:href="../medicare.ip/zip.html" xlink:title="&lt;TABLE&gt;" target="_blank">
<polygon fill="none" stroke="black" points="839,-664 0,-664 0,-514 839,-514 839,-664"/>
<text text-anchor="start" x="53.5" y="-642.7" font-family="Times,serif" font-weight="bold" font-size="14.00">medicare.ip.zip</text>
<text text-anchor="start" x="35.88" y="-596.7" font-family="Times,serif" font-size="14.00">Zip Code of Residence</text>
<polygon fill="none" stroke="black" points="11,-545 11,-567 186,-567 186,-545 11,-545"/>
<text text-anchor="start" x="14" y="-550.7" font-family="Times,serif" font-size="14.00">numeric →</text>
<polygon fill="none" stroke="black" points="188,-545 188,-567 828,-567 828,-545 188,-545"/>
<text text-anchor="start" x="190.75" y="-550.7" font-family="Times,serif" font-size="14.00">(CASE WHEN {column_name} &lt; 100000 THEN {column_name}::int ELSE ({column_name}/10000)::INT END)</text>
<polygon fill="none" stroke="black" points="11,-521 11,-543 186,-543 186,-521 11,-521"/>
<text text-anchor="start" x="14" y="-526.7" font-family="Times,serif" font-size="14.00">character varying →</text>
<polygon fill="none" stroke="black" points="188,-521 188,-543 828,-543 828,-521 188,-521"/>
<text text-anchor="start" x="191" y="-526.7" font-family="Times,serif" font-size="14.00">SUBSTRING({column_name} FROM 1 FOR 5)::INT</text>
<polygon fill="none" stroke="black" points="8,-518 8,-660 831,-660 831,-518 8,-518"/>
</a>
</g>
</g>
<!-- medicare.ip.zip&#45;&gt;medicare.admissions.zip -->
<g id="edge3" class="edge">
<title>medicare.ip.zip&#45;&gt;medicare.admissions.zip</title>
<path fill="none" stroke="black" d="M527.35,-513.55C541.55,-503.75 556.15,-493.67 570.49,-483.77"/>
<polygon fill="black" stroke="black" points="572.39,-486.72 578.63,-478.15 568.41,-480.95 572.39,-486.72"/>
<text text-anchor="middle" x="573" y="-490.45" font-family="Times,serif" font-size="14.00">Copied</text>
</g>
<!-- medicare.ip.zip_parent -->
<g id="node5" class="node">
<title>medicare.ip.zip_parent</title>
<g id="a_node5"><a xlink:href="../medicare.ip/zip.html" xlink:title="8 incoming links (columns)" target="_blank">
<path fill="yellow" stroke="black" d="M527.5,-808.93C527.5,-814.35 479.09,-818.75 419.5,-818.75 359.91,-818.75 311.5,-814.35 311.5,-808.93 311.5,-808.93 311.5,-720.57 311.5,-720.57 311.5,-715.15 359.91,-710.75 419.5,-710.75 479.09,-710.75 527.5,-715.15 527.5,-720.57 527.5,-720.57 527.5,-808.93 527.5,-808.93"/>
<path fill="none" stroke="black" d="M527.5,-808.93C527.5,-803.51 479.09,-799.11 419.5,-799.11 359.91,-799.11 311.5,-803.51 311.5,-808.93"/>
<text text-anchor="middle" x="419.5" y="-759.7" font-family="Times,serif" font-size="14.00">8 incoming links (columns)</text>
</a>
</g>
</g>
<!-- medicare.ip.zip_parent&#45;&gt;medicare.ip.zip -->
<g id="edge4" class="edge">
<title>medicare.ip.zip_parent&#45;&gt;medicare.ip.zip</title>
<path fill="none" stroke="goldenrod" stroke-width="6" d="M419.5,-710.68C419.5,-701.11 419.5,-690.9 419.5,-680.62"/>
<polygon fill="goldenrod" stroke="goldenrod" stroke-width="6" points="424.75,-680.95 419.5,-670.95 414.25,-680.95 424.75,-680.95"/>
</g>
<!-- medicare.enrollments.zip -->
<g id="node6" class="node">
<title>medicare.enrollments.zip</title>
<g id="a_node6"><a xlink:href="../medicare.enrollments/zip.html" xlink:title="&lt;TABLE&gt;" target="_blank">
<polygon fill="none" stroke="black" points="1054.12,-652.75 856.88,-652.75 856.88,-525.25 1054.12,-525.25 1054.12,-652.75"/>
<text text-anchor="start" x="881.62" y="-631.45" font-family="Times,serif" font-weight="bold" font-size="14.00">medicare.enrollments.zip</text>
<text text-anchor="start" x="892.88" y="-584.95" font-family="Times,serif" font-size="14.00">Zip Code of Residence</text>
<polygon fill="none" stroke="black" points="867.88,-532.25 867.88,-554.75 1043.12,-554.75 1043.12,-532.25 867.88,-532.25"/>
<text text-anchor="start" x="870.88" y="-538.45" font-family="Times,serif" font-size="14.00">MAX(zip)</text>
<polygon fill="none" stroke="black" points="864.88,-529.25 864.88,-648.75 1046.12,-648.75 1046.12,-529.25 864.88,-529.25"/>
</a>
</g>
</g>
<!-- medicare.enrollments.zip&#45;&gt;medicare.admissions.zip -->
<g id="edge5" class="edge">
<title>medicare.enrollments.zip&#45;&gt;medicare.admissions.zip</title>
<path fill="none" stroke="darkorchid" stroke-width="2" d="M864.15,-524.81C858.86,-521.15 853.61,-517.53 848.5,-514 834.67,-504.45 820.18,-494.45 805.79,-484.52"/>
<polygon fill="darkorchid" stroke="darkorchid" stroke-width="2" points="808.05,-481.83 797.83,-479.03 804.07,-487.59 808.05,-481.83"/>
<text text-anchor="middle" x="841" y="-490.45" font-family="Times,serif" font-size="14.00">Copied</text>
</g>
<!-- medicare._enrollments.zip -->
<g id="node7" class="node">
<title>medicare._enrollments.zip</title>
<g id="a_node7"><a xlink:href="../medicare._enrollments/zip.html" xlink:title="&lt;TABLE&gt;" target="_blank">
<polygon fill="none" stroke="black" points="1054.12,-828.5 856.88,-828.5 856.88,-701 1054.12,-701 1054.12,-828.5"/>
<text text-anchor="start" x="878.25" y="-807.2" font-family="Times,serif" font-weight="bold" font-size="14.00">medicare._enrollments.zip</text>
<text text-anchor="start" x="892.88" y="-760.7" font-family="Times,serif" font-size="14.00">Zip Code of Residence</text>
<polygon fill="none" stroke="black" points="867.88,-708 867.88,-730.5 1043.12,-730.5 1043.12,-708 867.88,-708"/>
<text text-anchor="start" x="870.88" y="-714.2" font-family="Times,serif" font-size="14.00">MAX(zip)</text>
<polygon fill="none" stroke="black" points="864.88,-705 864.88,-824.5 1046.12,-824.5 1046.12,-705 864.88,-705"/>
</a>
</g>
</g>
<!-- medicare._enrollments.zip&#45;&gt;medicare.enrollments.zip -->
<g id="edge6" class="edge">
<title>medicare._enrollments.zip&#45;&gt;medicare.enrollments.zip</title>
<path fill="none" stroke="black" d="M955.5,-700.53C955.5,-688.84 955.5,-676.53 955.5,-664.54"/>
<polygon fill="black" stroke="black" points="959,-664.69 955.5,-654.69 952,-664.69 959,-664.69"/>
<text text-anchor="middle" x="975" y="-677.45" font-family="Times,serif" font-size="14.00">Copied</text>
</g>
<!-- medicare._ps.zip -->
<g id="node8" class="node">
<title>medicare._ps.zip</title>
<g id="a_node8"><a xlink:href="../medicare._ps/zip.html" xlink:title="&lt;TABLE&gt;" target="_blank">
<polygon fill="none" stroke="black" points="1413,-1056.5 498,-1056.5 498,-865.5 1413,-865.5 1413,-1056.5"/>
<text text-anchor="start" x="585.38" y="-1035.2" font-family="Times,serif" font-weight="bold" font-size="14.00">medicare._ps.zip</text>
<text text-anchor="start" x="534" y="-989.2" font-family="Times,serif" font-size="14.00">US Postal ZIP code, the first 5 digits</text>
<text text-anchor="start" x="623.25" y="-972.7" font-family="Times,serif" font-size="14.00">of it</text>
<polygon fill="none" stroke="black" points="509,-920.5 509,-942.5 760,-942.5 760,-920.5 509,-920.5"/>
<text text-anchor="start" x="512" y="-926.2" font-family="Times,serif" font-size="14.00">numeric →</text>
<polygon fill="none" stroke="black" points="762,-920.5 762,-942.5 1402,-942.5 1402,-920.5 762,-920.5"/>
<text text-anchor="start" x="764.75" y="-926.2" font-family="Times,serif" font-size="14.00">(CASE WHEN {column_name} &lt; 100000 THEN {column_name}::int ELSE ({column_name}/10000)::INT END)</text>
<polygon fill="none" stroke="black" points="509,-896.5 509,-918.5 760,-918.5 760,-896.5 509,-896.5"/>
<text text-anchor="start" x="512" y="-902.2" font-family="Times,serif" font-size="14.00">character varying →</text>
<polygon fill="none" stroke="black" points="762,-896.5 762,-918.5 1402,-918.5 1402,-896.5 762,-896.5"/>
<text text-anchor="start" x="765" y="-902.2" font-family="Times,serif" font-size="14.00">SUBSTRING({column_name} FROM 1 FOR 5)::INT</text>
<polygon fill="none" stroke="black" points="509,-872.5 509,-894.5 760,-894.5 760,-872.5 509,-872.5"/>
<text text-anchor="start" x="512" y="-878.2" font-family="Times,serif" font-size="14.00">integer →</text>
<polygon fill="none" stroke="black" points="762,-872.5 762,-894.5 1402,-894.5 1402,-872.5 762,-872.5"/>
<text text-anchor="start" x="765" y="-878.2" font-family="Times,serif" font-size="14.00">{column_name}::INT</text>
<polygon fill="none" stroke="black" points="506,-869.5 506,-1052.5 1405,-1052.5 1405,-869.5 506,-869.5"/>
</a>
</g>
</g>
<!-- medicare._ps.zip&#45;&gt;medicare._enrollments.zip -->
<g id="edge7" class="edge">
<title>medicare._ps.zip&#45;&gt;medicare._enrollments.zip</title>
<path fill="none" stroke="blue" stroke-width="5" d="M955.5,-865.15C955.5,-858.41 955.5,-851.65 955.5,-845.01"/>
<polygon fill="blue" stroke="blue" stroke-width="5" points="959.88,-845.05 955.5,-835.05 951.13,-845.05 959.88,-845.05"/>
<text text-anchor="middle" x="1069.88" y="-841.95" font-family="Times,serif" font-size="14.00">	 &#160;Aggregated On bene_id, year, state</text>
</g>
<!-- medicare.ps.zip -->
<g id="node9" class="node">
<title>medicare.ps.zip</title>
<g id="a_node9"><a xlink:href="../medicare.ps/zip.html" xlink:title="&lt;TABLE&gt;" target="_blank">
<polygon fill="none" stroke="black" points="1413,-1284.5 498,-1284.5 498,-1093.5 1413,-1093.5 1413,-1284.5"/>
<text text-anchor="start" x="588.75" y="-1263.2" font-family="Times,serif" font-weight="bold" font-size="14.00">medicare.ps.zip</text>
<text text-anchor="start" x="534" y="-1217.2" font-family="Times,serif" font-size="14.00">US Postal ZIP code, the first 5 digits</text>
<text text-anchor="start" x="623.25" y="-1200.7" font-family="Times,serif" font-size="14.00">of it</text>
<polygon fill="none" stroke="black" points="509,-1148.5 509,-1170.5 760,-1170.5 760,-1148.5 509,-1148.5"/>
<text text-anchor="start" x="512" y="-1154.2" font-family="Times,serif" font-size="14.00">numeric →</text>
<polygon fill="none" stroke="black" points="762,-1148.5 762,-1170.5 1402,-1170.5 1402,-1148.5 762,-1148.5"/>
<text text-anchor="start" x="764.75" y="-1154.2" font-family="Times,serif" font-size="14.00">(CASE WHEN {column_name} &lt; 100000 THEN {column_name}::int ELSE ({column_name}/10000)::INT END)</text>
<polygon fill="none" stroke="black" points="509,-1124.5 509,-1146.5 760,-1146.5 760,-1124.5 509,-1124.5"/>
<text text-anchor="start" x="512" y="-1130.2" font-family="Times,serif" font-size="14.00">character varying →</text>
<polygon fill="none" stroke="black" points="762,-1124.5 762,-1146.5 1402,-1146.5 1402,-1124.5 762,-1124.5"/>
<text text-anchor="start" x="765" y="-1130.2" font-family="Times,serif" font-size="14.00">SUBSTRING({column_name} FROM 1 FOR 5)::INT</text>
<polygon fill="none" stroke="black" points="509,-1100.5 509,-1122.5 760,-1122.5 760,-1100.5 509,-1100.5"/>
<text text-anchor="start" x="512" y="-1106.2" font-family="Times,serif" font-size="14.00">integer →</text>
<polygon fill="none" stroke="black" points="762,-1100.5 762,-1122.5 1402,-1122.5 1402,-1100.5 762,-1100.5"/>
<text text-anchor="start" x="765" y="-1106.2" font-family="Times,serif" font-size="14.00">{column_name}::INT</text>
<polygon fill="none" stroke="black" points="506,-1097.5 506,-1280.5 1405,-1280.5 1405,-1097.5 506,-1097.5"/>
</a>
</g>
</g>
<!-- medicare.ps.zip&#45;&gt;medicare._ps.zip -->
<g id="edge8" class="edge">
<title>medicare.ps.zip&#45;&gt;medicare._ps.zip</title>
<path fill="none" stroke="black" d="M955.5,-1093.14C955.5,-1084.92 955.5,-1076.56 955.5,-1068.26"/>
<polygon fill="black" stroke="black" points="959,-1068.5 955.5,-1058.5 952,-1068.5 959,-1068.5"/>
<text text-anchor="middle" x="975" y="-1069.95" font-family="Times,serif" font-size="14.00">Copied</text>
</g>
<!-- medicare.ps.zip_parent -->
<g id="node10" class="node">
<title>medicare.ps.zip_parent</title>
<g id="a_node10"><a xlink:href="../medicare.ps/zip.html" xlink:title="8 incoming links (columns)" target="_blank">
<path fill="yellow" stroke="black" d="M1063.5,-1419.68C1063.5,-1425.1 1015.09,-1429.5 955.5,-1429.5 895.91,-1429.5 847.5,-1425.1 847.5,-1419.68 847.5,-1419.68 847.5,-1331.32 847.5,-1331.32 847.5,-1325.9 895.91,-1321.5 955.5,-1321.5 1015.09,-1321.5 1063.5,-1325.9 1063.5,-1331.32 1063.5,-1331.32 1063.5,-1419.68 1063.5,-1419.68"/>
<path fill="none" stroke="black" d="M1063.5,-1419.68C1063.5,-1414.26 1015.09,-1409.86 955.5,-1409.86 895.91,-1409.86 847.5,-1414.26 847.5,-1419.68"/>
<text text-anchor="middle" x="955.5" y="-1370.45" font-family="Times,serif" font-size="14.00">8 incoming links (columns)</text>
</a>
</g>
</g>
<!-- medicare.ps.zip_parent&#45;&gt;medicare.ps.zip -->
<g id="edge9" class="edge">
<title>medicare.ps.zip_parent&#45;&gt;medicare.ps.zip</title>
<path fill="none" stroke="goldenrod" stroke-width="6" d="M955.5,-1321.13C955.5,-1314.73 955.5,-1308.02 955.5,-1301.16"/>
<polygon fill="goldenrod" stroke="goldenrod" stroke-width="6" points="960.75,-1301.43 955.5,-1291.43 950.25,-1301.43 960.75,-1301.43"/>
</g>
</g>
</svg>
