<?xml version="1.0" encoding="UTF-8" standalone="no"?>
<!DOCTYPE svg PUBLIC "-//W3C//DTD SVG 1.1//EN"
 "http://www.w3.org/Graphics/SVG/1.1/DTD/svg11.dtd">
<!-- Generated by graphviz version 14.1.4 (20260321.0153)
 -->
<!-- Pages: 1 -->
<svg width="921pt" height="937pt"
 viewBox="0.00 0.00 921.00 937.00" xmlns="http://www.w3.org/2000/svg" xmlns:xlink="http://www.w3.org/1999/xlink">
<g id="graph0" class="graph" transform="scale(1 1) rotate(0) translate(4 933)">
<polygon fill="white" stroke="none" points="-4,4 -4,-933 917.25,-933 917.25,4 -4,4"/>
<!-- medicare.qc_enrollments.zip -->
<g id="node1" class="node">
<title>medicare.qc_enrollments.zip</title>
<g id="a_node1"><a xlink:href="../medicare.qc_enrollments/zip.html" xlink:title="&lt;TABLE&gt;" target="_blank">
<polygon fill="none" stroke="black" points="553.62,-36 359.62,-36 359.62,0 553.62,0 553.62,-36"/>
<text xml:space="preserve" text-anchor="start" x="372.62" y="-13.95" font-family="Times,serif" font-weight="bold" font-size="14.00">medicare.qc_enrollments.zip</text>
<polygon fill="none" stroke="black" points="367.62,-4.75 367.62,-31.25 545.62,-31.25 545.62,-4.75 367.62,-4.75"/>
</a>
</g>
</g>
<!-- medicare.qc_enrl_bene.zip -->
<g id="node2" class="node">
<title>medicare.qc_enrl_bene.zip</title>
<g id="a_node2"><a xlink:href="../medicare.qc_enrl_bene/zip.html" xlink:title="&lt;TABLE&gt;" target="_blank">
<polygon fill="none" stroke="black" points="547.62,-132 365.62,-132 365.62,-73 547.62,-73 547.62,-132"/>
<text xml:space="preserve" text-anchor="start" x="378.62" y="-110.7" font-family="Times,serif" font-weight="bold" font-size="14.00">medicare.qc_enrl_bene.zip</text>
<polygon fill="none" stroke="black" points="376.62,-80 376.62,-102.5 536.62,-102.5 536.62,-80 376.62,-80"/>
<text xml:space="preserve" text-anchor="start" x="379.62" y="-86.75" font-family="Times,serif" font-size="14.00">MAX(zip)</text>
<polygon fill="none" stroke="black" points="373.62,-77 373.62,-128 539.62,-128 539.62,-77 373.62,-77"/>
</a>
</g>
</g>
<!-- medicare.qc_enrl_bene.zip&#45;&gt;medicare.qc_enrollments.zip -->
<g id="edge1" class="edge">
<title>medicare.qc_enrl_bene.zip&#45;&gt;medicare.qc_enrollments.zip</title>
<path fill="none" stroke="black" d="M456.62,-72.65C456.62,-64.62 456.62,-55.91 456.62,-47.89"/>
<polygon fill="black" stroke="black" points="460.13,-47.93 456.63,-37.93 453.13,-47.93 460.13,-47.93"/>
<text xml:space="preserve" text-anchor="middle" x="495.25" y="-49.45" font-family="Times,serif" font-size="14.00"> &#160;Transformed</text>
</g>
<!-- medicare.enrollments.zip -->
<g id="node3" class="node">
<title>medicare.enrollments.zip</title>
<g id="a_node3"><a xlink:href="../medicare.enrollments/zip.html" xlink:title="&lt;TABLE&gt;" target="_blank">
<polygon fill="none" stroke="black" points="543.5,-228 369.75,-228 369.75,-169 543.5,-169 543.5,-228"/>
<text xml:space="preserve" text-anchor="start" x="382.75" y="-206.7" font-family="Times,serif" font-weight="bold" font-size="14.00">medicare.enrollments.zip</text>
<polygon fill="none" stroke="black" points="380.75,-176 380.75,-198.5 532.5,-198.5 532.5,-176 380.75,-176"/>
<text xml:space="preserve" text-anchor="start" x="383.75" y="-182.75" font-family="Times,serif" font-size="14.00">MAX(zip)</text>
<polygon fill="none" stroke="black" points="377.75,-173 377.75,-224 535.5,-224 535.5,-173 377.75,-173"/>
</a>
</g>
</g>
<!-- medicare.enrollments.zip&#45;&gt;medicare.qc_enrl_bene.zip -->
<g id="edge2" class="edge">
<title>medicare.enrollments.zip&#45;&gt;medicare.qc_enrl_bene.zip</title>
<path fill="none" stroke="black" d="M456.62,-168.53C456.62,-160.68 456.62,-152.05 456.62,-143.7"/>
<polygon fill="black" stroke="black" points="460.13,-143.73 456.63,-133.73 453.13,-143.73 460.13,-143.73"/>
<text xml:space="preserve" text-anchor="middle" x="502.75" y="-145.45" font-family="Times,serif" font-size="14.00">	join natural</text>
</g>
<!-- medicare._enrollments.zip -->
<g id="node4" class="node">
<title>medicare._enrollments.zip</title>
<g id="a_node4"><a xlink:href="../medicare._enrollments/zip.html" xlink:title="&lt;TABLE&gt;" target="_blank">
<polygon fill="none" stroke="black" points="546.88,-324 366.38,-324 366.38,-265 546.88,-265 546.88,-324"/>
<text xml:space="preserve" text-anchor="start" x="379.38" y="-302.7" font-family="Times,serif" font-weight="bold" font-size="14.00">medicare._enrollments.zip</text>
<polygon fill="none" stroke="black" points="377.38,-272 377.38,-294.5 535.88,-294.5 535.88,-272 377.38,-272"/>
<text xml:space="preserve" text-anchor="start" x="380.38" y="-278.75" font-family="Times,serif" font-size="14.00">MAX(zip)</text>
<polygon fill="none" stroke="black" points="374.38,-269 374.38,-320 538.88,-320 538.88,-269 374.38,-269"/>
</a>
</g>
</g>
<!-- medicare._enrollments.zip&#45;&gt;medicare.enrollments.zip -->
<g id="edge3" class="edge">
<title>medicare._enrollments.zip&#45;&gt;medicare.enrollments.zip</title>
<path fill="none" stroke="black" d="M456.62,-264.53C456.62,-256.68 456.62,-248.05 456.62,-239.7"/>
<polygon fill="black" stroke="black" points="460.13,-239.73 456.63,-229.73 453.13,-239.73 460.13,-239.73"/>
<text xml:space="preserve" text-anchor="middle" x="476.12" y="-241.45" font-family="Times,serif" font-size="14.00">Copied</text>
</g>
<!-- medicare._ps.zip -->
<g id="node5" class="node">
<title>medicare._ps.zip</title>
<g id="a_node5"><a xlink:href="../medicare._ps/zip.html" xlink:title="&lt;TABLE&gt;" target="_blank">
<polygon fill="none" stroke="black" points="913.25,-554 0,-554 0,-361 913.25,-361 913.25,-554"/>
<text xml:space="preserve" text-anchor="start" x="87" y="-532.7" font-family="Times,serif" font-weight="bold" font-size="14.00">medicare._ps.zip</text>
<text xml:space="preserve" text-anchor="start" x="36" y="-486.75" font-family="Times,serif" font-size="14.00">US Postal ZIP code, the first 5 digits</text>
<text xml:space="preserve" text-anchor="start" x="124.88" y="-470.25" font-family="Times,serif" font-size="14.00">of it</text>
<polygon fill="none" stroke="black" points="11,-417 11,-439.5 261.25,-439.5 261.25,-417 11,-417"/>
<text xml:space="preserve" text-anchor="start" x="14" y="-423.75" font-family="Times,serif" font-size="14.00">numeric →</text>
<polygon fill="none" stroke="black" points="263.25,-417 263.25,-439.5 902.25,-439.5 902.25,-417 263.25,-417"/>
<text xml:space="preserve" text-anchor="start" x="266.25" y="-423.75" font-family="Times,serif" font-size="14.00">(CASE WHEN {column_name} &lt; 100000 THEN {column_name}::int ELSE ({column_name}/10000)::INT END)</text>
<polygon fill="none" stroke="black" points="11,-392.5 11,-415 261.25,-415 261.25,-392.5 11,-392.5"/>
<text xml:space="preserve" text-anchor="start" x="14" y="-399.25" font-family="Times,serif" font-size="14.00">character varying →</text>
<polygon fill="none" stroke="black" points="263.25,-392.5 263.25,-415 902.25,-415 902.25,-392.5 263.25,-392.5"/>
<text xml:space="preserve" text-anchor="start" x="266.25" y="-399.25" font-family="Times,serif" font-size="14.00">SUBSTRING({column_name} FROM 1 FOR 5)::INT</text>
<polygon fill="none" stroke="black" points="11,-368 11,-390.5 261.25,-390.5 261.25,-368 11,-368"/>
<text xml:space="preserve" text-anchor="start" x="14" y="-374.75" font-family="Times,serif" font-size="14.00">integer →</text>
<polygon fill="none" stroke="black" points="263.25,-368 263.25,-390.5 902.25,-390.5 902.25,-368 263.25,-368"/>
<text xml:space="preserve" text-anchor="start" x="266.25" y="-374.75" font-family="Times,serif" font-size="14.00">{column_name}::INT</text>
<polygon fill="none" stroke="black" points="8,-365 8,-550 905.25,-550 905.25,-365 8,-365"/>
</a>
</g>
</g>
<!-- medicare._ps.zip&#45;&gt;medicare._enrollments.zip -->
<g id="edge4" class="edge">
<title>medicare._ps.zip&#45;&gt;medicare._enrollments.zip</title>
<path fill="none" stroke="blue" stroke-width="5" d="M456.62,-360.52C456.62,-353.68 456.62,-347 456.62,-340.68"/>
<polygon fill="blue" stroke="blue" stroke-width="5" points="461,-340.71 456.63,-330.71 452.25,-340.71 461,-340.71"/>
<text xml:space="preserve" text-anchor="middle" x="571" y="-337.45" font-family="Times,serif" font-size="14.00">	 &#160;Aggregated On bene_id, year, state</text>
</g>
<!-- medicare.ps.zip -->
<g id="node6" class="node">
<title>medicare.ps.zip</title>
<g id="a_node6"><a xlink:href="../medicare.ps/zip.html" xlink:title="&lt;TABLE&gt;" target="_blank">
<polygon fill="none" stroke="black" points="913.25,-784 0,-784 0,-591 913.25,-591 913.25,-784"/>
<text xml:space="preserve" text-anchor="start" x="90.38" y="-762.7" font-family="Times,serif" font-weight="bold" font-size="14.00">medicare.ps.zip</text>
<text xml:space="preserve" text-anchor="start" x="36" y="-716.75" font-family="Times,serif" font-size="14.00">US Postal ZIP code, the first 5 digits</text>
<text xml:space="preserve" text-anchor="start" x="124.88" y="-700.25" font-family="Times,serif" font-size="14.00">of it</text>
<polygon fill="none" stroke="black" points="11,-647 11,-669.5 261.25,-669.5 261.25,-647 11,-647"/>
<text xml:space="preserve" text-anchor="start" x="14" y="-653.75" font-family="Times,serif" font-size="14.00">numeric →</text>
<polygon fill="none" stroke="black" points="263.25,-647 263.25,-669.5 902.25,-669.5 902.25,-647 263.25,-647"/>
<text xml:space="preserve" text-anchor="start" x="266.25" y="-653.75" font-family="Times,serif" font-size="14.00">(CASE WHEN {column_name} &lt; 100000 THEN {column_name}::int ELSE ({column_name}/10000)::INT END)</text>
<polygon fill="none" stroke="black" points="11,-622.5 11,-645 261.25,-645 261.25,-622.5 11,-622.5"/>
<text xml:space="preserve" text-anchor="start" x="14" y="-629.25" font-family="Times,serif" font-size="14.00">character varying →</text>
<polygon fill="none" stroke="black" points="263.25,-622.5 263.25,-645 902.25,-645 902.25,-622.5 263.25,-622.5"/>
<text xml:space="preserve" text-anchor="start" x="266.25" y="-629.25" font-family="Times,serif" font-size="14.00">SUBSTRING({column_name} FROM 1 FOR 5)::INT</text>
<polygon fill="none" stroke="black" points="11,-598 11,-620.5 261.25,-620.5 261.25,-598 11,-598"/>
<text xml:space="preserve" text-anchor="start" x="14" y="-604.75" font-family="Times,serif" font-size="14.00">integer →</text>
<polygon fill="none" stroke="black" points="263.25,-598 263.25,-620.5 902.25,-620.5 902.25,-598 263.25,-598"/>
<text xml:space="preserve" text-anchor="start" x="266.25" y="-604.75" font-family="Times,serif" font-size="14.00">{column_name}::INT</text>
<polygon fill="none" stroke="black" points="8,-595 8,-780 905.25,-780 905.25,-595 8,-595"/>
</a>
</g>
</g>
<!-- medicare.ps.zip&#45;&gt;medicare._ps.zip -->
<g id="edge5" class="edge">
<title>medicare.ps.zip&#45;&gt;medicare._ps.zip</title>
<path fill="none" stroke="black" d="M456.62,-590.8C456.62,-582.5 456.62,-574.08 456.62,-565.7"/>
<polygon fill="black" stroke="black" points="460.13,-565.84 456.63,-555.84 453.13,-565.84 460.13,-565.84"/>
<text xml:space="preserve" text-anchor="middle" x="476.12" y="-567.45" font-family="Times,serif" font-size="14.00">Copied</text>
</g>
<!-- medicare.ps.zip_parent -->
<g id="node7" class="node">
<title>medicare.ps.zip_parent</title>
<g id="a_node7"><a xlink:href="../medicare.ps/zip.html" xlink:title="8 incoming links (columns)" target="_blank">
<path fill="yellow" stroke="black" d="M564.62,-919.18C564.62,-924.6 516.22,-929 456.62,-929 397.03,-929 348.62,-924.6 348.62,-919.18 348.62,-919.18 348.62,-830.82 348.62,-830.82 348.62,-825.4 397.03,-821 456.62,-821 516.22,-821 564.62,-825.4 564.62,-830.82 564.62,-830.82 564.62,-919.18 564.62,-919.18"/>
<path fill="none" stroke="black" d="M564.62,-919.18C564.62,-913.76 516.22,-909.36 456.62,-909.36 397.03,-909.36 348.62,-913.76 348.62,-919.18"/>
<text xml:space="preserve" text-anchor="middle" x="456.62" y="-869.95" font-family="Times,serif" font-size="14.00">8 incoming links (columns)</text>
</a>
</g>
</g>
<!-- medicare.ps.zip_parent&#45;&gt;medicare.ps.zip -->
<g id="edge6" class="edge">
<title>medicare.ps.zip_parent&#45;&gt;medicare.ps.zip</title>
<path fill="none" stroke="goldenrod" stroke-width="6" d="M456.62,-820.84C456.62,-814.4 456.62,-807.64 456.62,-800.73"/>
<polygon fill="goldenrod" stroke="goldenrod" stroke-width="6" points="461.88,-800.87 456.63,-790.87 451.38,-800.87 461.88,-800.87"/>
</g>
</g>
</svg>
