<?xml version="1.0" encoding="UTF-8" standalone="no"?>
<!DOCTYPE svg PUBLIC "-//W3C//DTD SVG 1.1//EN"
 "http://www.w3.org/Graphics/SVG/1.1/DTD/svg11.dtd">
<!-- Generated by graphviz version 10.0.1 (20240210.2158)
 -->
<!-- Pages: 1 -->
<svg width="923pt" height="764pt"
 viewBox="0.00 0.00 923.00 764.00" xmlns="http://www.w3.org/2000/svg" xmlns:xlink="http://www.w3.org/1999/xlink">
<g id="graph0" class="graph" transform="scale(1 1) rotate(0) translate(4 760)">
<polygon fill="white" stroke="none" points="-4,4 -4,-760 919,-760 919,4 -4,4"/>
<!-- medicare.enrollments.zip -->
<g id="node1" class="node">
<title>medicare.enrollments.zip</title>
<g id="a_node1"><a xlink:href="../medicare.enrollments/zip.html" xlink:title="&lt;TABLE&gt;" target="_blank">
<polygon fill="none" stroke="black" points="544.38,-59 370.62,-59 370.62,0 544.38,0 544.38,-59"/>
<text text-anchor="start" x="383.62" y="-37.7" font-family="Times,serif" font-weight="bold" font-size="14.00">medicare.enrollments.zip</text>
<polygon fill="none" stroke="black" points="381.62,-7 381.62,-29.5 533.38,-29.5 533.38,-7 381.62,-7"/>
<text text-anchor="start" x="384.62" y="-13.2" font-family="Times,serif" font-size="14.00">MAX(zip)</text>
<polygon fill="none" stroke="black" points="378.62,-4 378.62,-55 536.38,-55 536.38,-4 378.62,-4"/>
</a>
</g>
</g>
<!-- medicare._enrollments.zip -->
<g id="node2" class="node">
<title>medicare._enrollments.zip</title>
<g id="a_node2"><a xlink:href="../medicare._enrollments/zip.html" xlink:title="&lt;TABLE&gt;" target="_blank">
<polygon fill="none" stroke="black" points="547.75,-155 367.25,-155 367.25,-96 547.75,-96 547.75,-155"/>
<text text-anchor="start" x="380.25" y="-133.7" font-family="Times,serif" font-weight="bold" font-size="14.00">medicare._enrollments.zip</text>
<polygon fill="none" stroke="black" points="378.25,-103 378.25,-125.5 536.75,-125.5 536.75,-103 378.25,-103"/>
<text text-anchor="start" x="381.25" y="-109.2" font-family="Times,serif" font-size="14.00">MAX(zip)</text>
<polygon fill="none" stroke="black" points="375.25,-100 375.25,-151 539.75,-151 539.75,-100 375.25,-100"/>
</a>
</g>
</g>
<!-- medicare._enrollments.zip&#45;&gt;medicare.enrollments.zip -->
<g id="edge1" class="edge">
<title>medicare._enrollments.zip&#45;&gt;medicare.enrollments.zip</title>
<path fill="none" stroke="black" d="M457.5,-95.53C457.5,-87.68 457.5,-79.05 457.5,-70.7"/>
<polygon fill="black" stroke="black" points="461,-70.73 457.5,-60.73 454,-70.73 461,-70.73"/>
<text text-anchor="middle" x="477" y="-72.45" font-family="Times,serif" font-size="14.00">Copied</text>
</g>
<!-- medicare._ps.zip -->
<g id="node3" class="node">
<title>medicare._ps.zip</title>
<g id="a_node3"><a xlink:href="../medicare._ps/zip.html" xlink:title="&lt;TABLE&gt;" target="_blank">
<polygon fill="none" stroke="black" points="915,-383 0,-383 0,-192 915,-192 915,-383"/>
<text text-anchor="start" x="87.38" y="-361.7" font-family="Times,serif" font-weight="bold" font-size="14.00">medicare._ps.zip</text>
<text text-anchor="start" x="36" y="-315.7" font-family="Times,serif" font-size="14.00">US Postal ZIP code, the first 5 digits</text>
<text text-anchor="start" x="125.25" y="-299.2" font-family="Times,serif" font-size="14.00">of it</text>
<polygon fill="none" stroke="black" points="11,-247 11,-269 262,-269 262,-247 11,-247"/>
<text text-anchor="start" x="14" y="-252.7" font-family="Times,serif" font-size="14.00">numeric →</text>
<polygon fill="none" stroke="black" points="264,-247 264,-269 904,-269 904,-247 264,-247"/>
<text text-anchor="start" x="266.75" y="-252.7" font-family="Times,serif" font-size="14.00">(CASE WHEN {column_name} &lt; 100000 THEN {column_name}::int ELSE ({column_name}/10000)::INT END)</text>
<polygon fill="none" stroke="black" points="11,-223 11,-245 262,-245 262,-223 11,-223"/>
<text text-anchor="start" x="14" y="-228.7" font-family="Times,serif" font-size="14.00">character varying →</text>
<polygon fill="none" stroke="black" points="264,-223 264,-245 904,-245 904,-223 264,-223"/>
<text text-anchor="start" x="267" y="-228.7" font-family="Times,serif" font-size="14.00">SUBSTRING({column_name} FROM 1 FOR 5)::INT</text>
<polygon fill="none" stroke="black" points="11,-199 11,-221 262,-221 262,-199 11,-199"/>
<text text-anchor="start" x="14" y="-204.7" font-family="Times,serif" font-size="14.00">integer →</text>
<polygon fill="none" stroke="black" points="264,-199 264,-221 904,-221 904,-199 264,-199"/>
<text text-anchor="start" x="267" y="-204.7" font-family="Times,serif" font-size="14.00">{column_name}::INT</text>
<polygon fill="none" stroke="black" points="8,-196 8,-379 907,-379 907,-196 8,-196"/>
</a>
</g>
</g>
<!-- medicare._ps.zip&#45;&gt;medicare._enrollments.zip -->
<g id="edge2" class="edge">
<title>medicare._ps.zip&#45;&gt;medicare._enrollments.zip</title>
<path fill="none" stroke="blue" stroke-width="5" d="M457.5,-191.58C457.5,-184.57 457.5,-177.72 457.5,-171.26"/>
<polygon fill="blue" stroke="blue" stroke-width="5" points="461.88,-171.43 457.5,-161.43 453.13,-171.43 461.88,-171.43"/>
<text text-anchor="middle" x="571.88" y="-168.45" font-family="Times,serif" font-size="14.00">	 &#160;Aggregated On bene_id, year, state</text>
</g>
<!-- medicare.ps.zip -->
<g id="node4" class="node">
<title>medicare.ps.zip</title>
<g id="a_node4"><a xlink:href="../medicare.ps/zip.html" xlink:title="&lt;TABLE&gt;" target="_blank">
<polygon fill="none" stroke="black" points="915,-611 0,-611 0,-420 915,-420 915,-611"/>
<text text-anchor="start" x="90.75" y="-589.7" font-family="Times,serif" font-weight="bold" font-size="14.00">medicare.ps.zip</text>
<text text-anchor="start" x="36" y="-543.7" font-family="Times,serif" font-size="14.00">US Postal ZIP code, the first 5 digits</text>
<text text-anchor="start" x="125.25" y="-527.2" font-family="Times,serif" font-size="14.00">of it</text>
<polygon fill="none" stroke="black" points="11,-475 11,-497 262,-497 262,-475 11,-475"/>
<text text-anchor="start" x="14" y="-480.7" font-family="Times,serif" font-size="14.00">numeric →</text>
<polygon fill="none" stroke="black" points="264,-475 264,-497 904,-497 904,-475 264,-475"/>
<text text-anchor="start" x="266.75" y="-480.7" font-family="Times,serif" font-size="14.00">(CASE WHEN {column_name} &lt; 100000 THEN {column_name}::int ELSE ({column_name}/10000)::INT END)</text>
<polygon fill="none" stroke="black" points="11,-451 11,-473 262,-473 262,-451 11,-451"/>
<text text-anchor="start" x="14" y="-456.7" font-family="Times,serif" font-size="14.00">character varying →</text>
<polygon fill="none" stroke="black" points="264,-451 264,-473 904,-473 904,-451 264,-451"/>
<text text-anchor="start" x="267" y="-456.7" font-family="Times,serif" font-size="14.00">SUBSTRING({column_name} FROM 1 FOR 5)::INT</text>
<polygon fill="none" stroke="black" points="11,-427 11,-449 262,-449 262,-427 11,-427"/>
<text text-anchor="start" x="14" y="-432.7" font-family="Times,serif" font-size="14.00">integer →</text>
<polygon fill="none" stroke="black" points="264,-427 264,-449 904,-449 904,-427 264,-427"/>
<text text-anchor="start" x="267" y="-432.7" font-family="Times,serif" font-size="14.00">{column_name}::INT</text>
<polygon fill="none" stroke="black" points="8,-424 8,-607 907,-607 907,-424 8,-424"/>
</a>
</g>
</g>
<!-- medicare.ps.zip&#45;&gt;medicare._ps.zip -->
<g id="edge3" class="edge">
<title>medicare.ps.zip&#45;&gt;medicare._ps.zip</title>
<path fill="none" stroke="black" d="M457.5,-419.64C457.5,-411.42 457.5,-403.06 457.5,-394.76"/>
<polygon fill="black" stroke="black" points="461,-395 457.5,-385 454,-395 461,-395"/>
<text text-anchor="middle" x="477" y="-396.45" font-family="Times,serif" font-size="14.00">Copied</text>
</g>
<!-- medicare.ps.zip_parent -->
<g id="node5" class="node">
<title>medicare.ps.zip_parent</title>
<g id="a_node5"><a xlink:href="../medicare.ps/zip.html" xlink:title="8 incoming links (columns)" target="_blank">
<path fill="yellow" stroke="black" d="M565.5,-746.18C565.5,-751.6 517.09,-756 457.5,-756 397.91,-756 349.5,-751.6 349.5,-746.18 349.5,-746.18 349.5,-657.82 349.5,-657.82 349.5,-652.4 397.91,-648 457.5,-648 517.09,-648 565.5,-652.4 565.5,-657.82 565.5,-657.82 565.5,-746.18 565.5,-746.18"/>
<path fill="none" stroke="black" d="M565.5,-746.18C565.5,-740.76 517.09,-736.36 457.5,-736.36 397.91,-736.36 349.5,-740.76 349.5,-746.18"/>
<text text-anchor="middle" x="457.5" y="-696.95" font-family="Times,serif" font-size="14.00">8 incoming links (columns)</text>
</a>
</g>
</g>
<!-- medicare.ps.zip_parent&#45;&gt;medicare.ps.zip -->
<g id="edge4" class="edge">
<title>medicare.ps.zip_parent&#45;&gt;medicare.ps.zip</title>
<path fill="none" stroke="goldenrod" stroke-width="6" d="M457.5,-647.63C457.5,-641.23 457.5,-634.52 457.5,-627.66"/>
<polygon fill="goldenrod" stroke="goldenrod" stroke-width="6" points="462.75,-627.93 457.5,-617.93 452.25,-627.93 462.75,-627.93"/>
</g>
</g>
</svg>
