<?xml version="1.0" encoding="UTF-8" standalone="no"?>
<!DOCTYPE svg PUBLIC "-//W3C//DTD SVG 1.1//EN"
 "http://www.w3.org/Graphics/SVG/1.1/DTD/svg11.dtd">
<!-- Generated by graphviz version 10.0.1 (20240210.2158)
 -->
<!-- Pages: 1 -->
<svg width="923pt" height="933pt"
 viewBox="0.00 0.00 923.00 933.00" xmlns="http://www.w3.org/2000/svg" xmlns:xlink="http://www.w3.org/1999/xlink">
<g id="graph0" class="graph" transform="scale(1 1) rotate(0) translate(4 929)">
<polygon fill="white" stroke="none" points="-4,4 -4,-929 919,-929 919,4 -4,4"/>
<!-- medicare.qc_enrollments.zip -->
<g id="node1" class="node">
<title>medicare.qc_enrollments.zip</title>
<g id="a_node1"><a xlink:href="../medicare.qc_enrollments/zip.html" xlink:title="&lt;TABLE&gt;" target="_blank">
<polygon fill="none" stroke="black" points="554.5,-36 360.5,-36 360.5,0 554.5,0 554.5,-36"/>
<text text-anchor="start" x="373.5" y="-13.95" font-family="Times,serif" font-weight="bold" font-size="14.00">medicare.qc_enrollments.zip</text>
<polygon fill="none" stroke="black" points="368.5,-4.75 368.5,-31.25 546.5,-31.25 546.5,-4.75 368.5,-4.75"/>
</a>
</g>
</g>
<!-- medicare.qc_enrl_bene.zip -->
<g id="node2" class="node">
<title>medicare.qc_enrl_bene.zip</title>
<g id="a_node2"><a xlink:href="../medicare.qc_enrl_bene/zip.html" xlink:title="&lt;TABLE&gt;" target="_blank">
<polygon fill="none" stroke="black" points="548.5,-132 366.5,-132 366.5,-73 548.5,-73 548.5,-132"/>
<text text-anchor="start" x="379.5" y="-110.7" font-family="Times,serif" font-weight="bold" font-size="14.00">medicare.qc_enrl_bene.zip</text>
<polygon fill="none" stroke="black" points="377.5,-80 377.5,-102.5 537.5,-102.5 537.5,-80 377.5,-80"/>
<text text-anchor="start" x="380.5" y="-86.2" font-family="Times,serif" font-size="14.00">MAX(zip)</text>
<polygon fill="none" stroke="black" points="374.5,-77 374.5,-128 540.5,-128 540.5,-77 374.5,-77"/>
</a>
</g>
</g>
<!-- medicare.qc_enrl_bene.zip&#45;&gt;medicare.qc_enrollments.zip -->
<g id="edge1" class="edge">
<title>medicare.qc_enrl_bene.zip&#45;&gt;medicare.qc_enrollments.zip</title>
<path fill="none" stroke="black" d="M457.5,-72.65C457.5,-64.62 457.5,-55.91 457.5,-47.89"/>
<polygon fill="black" stroke="black" points="461,-47.93 457.5,-37.93 454,-47.93 461,-47.93"/>
<text text-anchor="middle" x="496.12" y="-49.45" font-family="Times,serif" font-size="14.00"> &#160;Transformed</text>
</g>
<!-- medicare.enrollments.zip -->
<g id="node3" class="node">
<title>medicare.enrollments.zip</title>
<g id="a_node3"><a xlink:href="../medicare.enrollments/zip.html" xlink:title="&lt;TABLE&gt;" target="_blank">
<polygon fill="none" stroke="black" points="544.38,-228 370.62,-228 370.62,-169 544.38,-169 544.38,-228"/>
<text text-anchor="start" x="383.62" y="-206.7" font-family="Times,serif" font-weight="bold" font-size="14.00">medicare.enrollments.zip</text>
<polygon fill="none" stroke="black" points="381.62,-176 381.62,-198.5 533.38,-198.5 533.38,-176 381.62,-176"/>
<text text-anchor="start" x="384.62" y="-182.2" font-family="Times,serif" font-size="14.00">MAX(zip)</text>
<polygon fill="none" stroke="black" points="378.62,-173 378.62,-224 536.38,-224 536.38,-173 378.62,-173"/>
</a>
</g>
</g>
<!-- medicare.enrollments.zip&#45;&gt;medicare.qc_enrl_bene.zip -->
<g id="edge2" class="edge">
<title>medicare.enrollments.zip&#45;&gt;medicare.qc_enrl_bene.zip</title>
<path fill="none" stroke="black" d="M457.5,-168.53C457.5,-160.68 457.5,-152.05 457.5,-143.7"/>
<polygon fill="black" stroke="black" points="461,-143.73 457.5,-133.73 454,-143.73 461,-143.73"/>
<text text-anchor="middle" x="503.62" y="-145.45" font-family="Times,serif" font-size="14.00">	join natural</text>
</g>
<!-- medicare._enrollments.zip -->
<g id="node4" class="node">
<title>medicare._enrollments.zip</title>
<g id="a_node4"><a xlink:href="../medicare._enrollments/zip.html" xlink:title="&lt;TABLE&gt;" target="_blank">
<polygon fill="none" stroke="black" points="547.75,-324 367.25,-324 367.25,-265 547.75,-265 547.75,-324"/>
<text text-anchor="start" x="380.25" y="-302.7" font-family="Times,serif" font-weight="bold" font-size="14.00">medicare._enrollments.zip</text>
<polygon fill="none" stroke="black" points="378.25,-272 378.25,-294.5 536.75,-294.5 536.75,-272 378.25,-272"/>
<text text-anchor="start" x="381.25" y="-278.2" font-family="Times,serif" font-size="14.00">MAX(zip)</text>
<polygon fill="none" stroke="black" points="375.25,-269 375.25,-320 539.75,-320 539.75,-269 375.25,-269"/>
</a>
</g>
</g>
<!-- medicare._enrollments.zip&#45;&gt;medicare.enrollments.zip -->
<g id="edge3" class="edge">
<title>medicare._enrollments.zip&#45;&gt;medicare.enrollments.zip</title>
<path fill="none" stroke="black" d="M457.5,-264.53C457.5,-256.68 457.5,-248.05 457.5,-239.7"/>
<polygon fill="black" stroke="black" points="461,-239.73 457.5,-229.73 454,-239.73 461,-239.73"/>
<text text-anchor="middle" x="477" y="-241.45" font-family="Times,serif" font-size="14.00">Copied</text>
</g>
<!-- medicare._ps.zip -->
<g id="node5" class="node">
<title>medicare._ps.zip</title>
<g id="a_node5"><a xlink:href="../medicare._ps/zip.html" xlink:title="&lt;TABLE&gt;" target="_blank">
<polygon fill="none" stroke="black" points="915,-552 0,-552 0,-361 915,-361 915,-552"/>
<text text-anchor="start" x="87.38" y="-530.7" font-family="Times,serif" font-weight="bold" font-size="14.00">medicare._ps.zip</text>
<text text-anchor="start" x="36" y="-484.7" font-family="Times,serif" font-size="14.00">US Postal ZIP code, the first 5 digits</text>
<text text-anchor="start" x="125.25" y="-468.2" font-family="Times,serif" font-size="14.00">of it</text>
<polygon fill="none" stroke="black" points="11,-416 11,-438 262,-438 262,-416 11,-416"/>
<text text-anchor="start" x="14" y="-421.7" font-family="Times,serif" font-size="14.00">numeric →</text>
<polygon fill="none" stroke="black" points="264,-416 264,-438 904,-438 904,-416 264,-416"/>
<text text-anchor="start" x="266.75" y="-421.7" font-family="Times,serif" font-size="14.00">(CASE WHEN {column_name} &lt; 100000 THEN {column_name}::int ELSE ({column_name}/10000)::INT END)</text>
<polygon fill="none" stroke="black" points="11,-392 11,-414 262,-414 262,-392 11,-392"/>
<text text-anchor="start" x="14" y="-397.7" font-family="Times,serif" font-size="14.00">character varying →</text>
<polygon fill="none" stroke="black" points="264,-392 264,-414 904,-414 904,-392 264,-392"/>
<text text-anchor="start" x="267" y="-397.7" font-family="Times,serif" font-size="14.00">SUBSTRING({column_name} FROM 1 FOR 5)::INT</text>
<polygon fill="none" stroke="black" points="11,-368 11,-390 262,-390 262,-368 11,-368"/>
<text text-anchor="start" x="14" y="-373.7" font-family="Times,serif" font-size="14.00">integer →</text>
<polygon fill="none" stroke="black" points="264,-368 264,-390 904,-390 904,-368 264,-368"/>
<text text-anchor="start" x="267" y="-373.7" font-family="Times,serif" font-size="14.00">{column_name}::INT</text>
<polygon fill="none" stroke="black" points="8,-365 8,-548 907,-548 907,-365 8,-365"/>
</a>
</g>
</g>
<!-- medicare._ps.zip&#45;&gt;medicare._enrollments.zip -->
<g id="edge4" class="edge">
<title>medicare._ps.zip&#45;&gt;medicare._enrollments.zip</title>
<path fill="none" stroke="blue" stroke-width="5" d="M457.5,-360.58C457.5,-353.57 457.5,-346.72 457.5,-340.26"/>
<polygon fill="blue" stroke="blue" stroke-width="5" points="461.88,-340.43 457.5,-330.43 453.13,-340.43 461.88,-340.43"/>
<text text-anchor="middle" x="571.88" y="-337.45" font-family="Times,serif" font-size="14.00">	 &#160;Aggregated On bene_id, year, state</text>
</g>
<!-- medicare.ps.zip -->
<g id="node6" class="node">
<title>medicare.ps.zip</title>
<g id="a_node6"><a xlink:href="../medicare.ps/zip.html" xlink:title="&lt;TABLE&gt;" target="_blank">
<polygon fill="none" stroke="black" points="915,-780 0,-780 0,-589 915,-589 915,-780"/>
<text text-anchor="start" x="90.75" y="-758.7" font-family="Times,serif" font-weight="bold" font-size="14.00">medicare.ps.zip</text>
<text text-anchor="start" x="36" y="-712.7" font-family="Times,serif" font-size="14.00">US Postal ZIP code, the first 5 digits</text>
<text text-anchor="start" x="125.25" y="-696.2" font-family="Times,serif" font-size="14.00">of it</text>
<polygon fill="none" stroke="black" points="11,-644 11,-666 262,-666 262,-644 11,-644"/>
<text text-anchor="start" x="14" y="-649.7" font-family="Times,serif" font-size="14.00">numeric →</text>
<polygon fill="none" stroke="black" points="264,-644 264,-666 904,-666 904,-644 264,-644"/>
<text text-anchor="start" x="266.75" y="-649.7" font-family="Times,serif" font-size="14.00">(CASE WHEN {column_name} &lt; 100000 THEN {column_name}::int ELSE ({column_name}/10000)::INT END)</text>
<polygon fill="none" stroke="black" points="11,-620 11,-642 262,-642 262,-620 11,-620"/>
<text text-anchor="start" x="14" y="-625.7" font-family="Times,serif" font-size="14.00">character varying →</text>
<polygon fill="none" stroke="black" points="264,-620 264,-642 904,-642 904,-620 264,-620"/>
<text text-anchor="start" x="267" y="-625.7" font-family="Times,serif" font-size="14.00">SUBSTRING({column_name} FROM 1 FOR 5)::INT</text>
<polygon fill="none" stroke="black" points="11,-596 11,-618 262,-618 262,-596 11,-596"/>
<text text-anchor="start" x="14" y="-601.7" font-family="Times,serif" font-size="14.00">integer →</text>
<polygon fill="none" stroke="black" points="264,-596 264,-618 904,-618 904,-596 264,-596"/>
<text text-anchor="start" x="267" y="-601.7" font-family="Times,serif" font-size="14.00">{column_name}::INT</text>
<polygon fill="none" stroke="black" points="8,-593 8,-776 907,-776 907,-593 8,-593"/>
</a>
</g>
</g>
<!-- medicare.ps.zip&#45;&gt;medicare._ps.zip -->
<g id="edge5" class="edge">
<title>medicare.ps.zip&#45;&gt;medicare._ps.zip</title>
<path fill="none" stroke="black" d="M457.5,-588.64C457.5,-580.42 457.5,-572.06 457.5,-563.76"/>
<polygon fill="black" stroke="black" points="461,-564 457.5,-554 454,-564 461,-564"/>
<text text-anchor="middle" x="477" y="-565.45" font-family="Times,serif" font-size="14.00">Copied</text>
</g>
<!-- medicare.ps.zip_parent -->
<g id="node7" class="node">
<title>medicare.ps.zip_parent</title>
<g id="a_node7"><a xlink:href="../medicare.ps/zip.html" xlink:title="8 incoming links (columns)" target="_blank">
<path fill="yellow" stroke="black" d="M565.5,-915.18C565.5,-920.6 517.09,-925 457.5,-925 397.91,-925 349.5,-920.6 349.5,-915.18 349.5,-915.18 349.5,-826.82 349.5,-826.82 349.5,-821.4 397.91,-817 457.5,-817 517.09,-817 565.5,-821.4 565.5,-826.82 565.5,-826.82 565.5,-915.18 565.5,-915.18"/>
<path fill="none" stroke="black" d="M565.5,-915.18C565.5,-909.76 517.09,-905.36 457.5,-905.36 397.91,-905.36 349.5,-909.76 349.5,-915.18"/>
<text text-anchor="middle" x="457.5" y="-865.95" font-family="Times,serif" font-size="14.00">8 incoming links (columns)</text>
</a>
</g>
</g>
<!-- medicare.ps.zip_parent&#45;&gt;medicare.ps.zip -->
<g id="edge6" class="edge">
<title>medicare.ps.zip_parent&#45;&gt;medicare.ps.zip</title>
<path fill="none" stroke="goldenrod" stroke-width="6" d="M457.5,-816.63C457.5,-810.23 457.5,-803.52 457.5,-796.66"/>
<polygon fill="goldenrod" stroke="goldenrod" stroke-width="6" points="462.75,-796.93 457.5,-786.93 452.25,-796.93 462.75,-796.93"/>
</g>
</g>
</svg>
