<?xml version="1.0" encoding="UTF-8" standalone="no"?>
<!DOCTYPE svg PUBLIC "-//W3C//DTD SVG 1.1//EN"
 "http://www.w3.org/Graphics/SVG/1.1/DTD/svg11.dtd">
<!-- Generated by graphviz version 10.0.1 (20240210.2158)
 -->
<!-- Pages: 1 -->
<svg width="923pt" height="901pt"
 viewBox="0.00 0.00 923.00 901.00" xmlns="http://www.w3.org/2000/svg" xmlns:xlink="http://www.w3.org/1999/xlink">
<g id="graph0" class="graph" transform="scale(1 1) rotate(0) translate(4 897)">
<polygon fill="white" stroke="none" points="-4,4 -4,-897 919,-897 919,4 -4,4"/>
<!-- medicare.enrollments.zip -->
<g id="node1" class="node">
<title>medicare.enrollments.zip</title>
<g id="a_node1"><a xlink:href="../medicare.enrollments/zip.html" xlink:title="&lt;TABLE&gt;" target="_blank">
<polygon fill="none" stroke="black" points="556.12,-127.5 358.88,-127.5 358.88,0 556.12,0 556.12,-127.5"/>
<text text-anchor="start" x="383.62" y="-106.2" font-family="Times,serif" font-weight="bold" font-size="14.00">medicare.enrollments.zip</text>
<text text-anchor="start" x="394.88" y="-59.7" font-family="Times,serif" font-size="14.00">Zip Code of Residence</text>
<polygon fill="none" stroke="black" points="369.88,-7 369.88,-29.5 545.12,-29.5 545.12,-7 369.88,-7"/>
<text text-anchor="start" x="372.88" y="-13.2" font-family="Times,serif" font-size="14.00">MAX(zip)</text>
<polygon fill="none" stroke="black" points="366.88,-4 366.88,-123.5 548.12,-123.5 548.12,-4 366.88,-4"/>
</a>
</g>
</g>
<!-- medicare._enrollments.zip -->
<g id="node2" class="node">
<title>medicare._enrollments.zip</title>
<g id="a_node2"><a xlink:href="../medicare._enrollments/zip.html" xlink:title="&lt;TABLE&gt;" target="_blank">
<polygon fill="none" stroke="black" points="556.12,-292 358.88,-292 358.88,-164.5 556.12,-164.5 556.12,-292"/>
<text text-anchor="start" x="380.25" y="-270.7" font-family="Times,serif" font-weight="bold" font-size="14.00">medicare._enrollments.zip</text>
<text text-anchor="start" x="394.88" y="-224.2" font-family="Times,serif" font-size="14.00">Zip Code of Residence</text>
<polygon fill="none" stroke="black" points="369.88,-171.5 369.88,-194 545.12,-194 545.12,-171.5 369.88,-171.5"/>
<text text-anchor="start" x="372.88" y="-177.7" font-family="Times,serif" font-size="14.00">MAX(zip)</text>
<polygon fill="none" stroke="black" points="366.88,-168.5 366.88,-288 548.12,-288 548.12,-168.5 366.88,-168.5"/>
</a>
</g>
</g>
<!-- medicare._enrollments.zip&#45;&gt;medicare.enrollments.zip -->
<g id="edge1" class="edge">
<title>medicare._enrollments.zip&#45;&gt;medicare.enrollments.zip</title>
<path fill="none" stroke="black" d="M457.5,-164.42C457.5,-156.2 457.5,-147.7 457.5,-139.3"/>
<polygon fill="black" stroke="black" points="461,-139.46 457.5,-129.46 454,-139.46 461,-139.46"/>
<text text-anchor="middle" x="477" y="-140.95" font-family="Times,serif" font-size="14.00">Copied</text>
</g>
<!-- medicare._ps.zip -->
<g id="node3" class="node">
<title>medicare._ps.zip</title>
<g id="a_node3"><a xlink:href="../medicare._ps/zip.html" xlink:title="&lt;TABLE&gt;" target="_blank">
<polygon fill="none" stroke="black" points="915,-520 0,-520 0,-329 915,-329 915,-520"/>
<text text-anchor="start" x="87.38" y="-498.7" font-family="Times,serif" font-weight="bold" font-size="14.00">medicare._ps.zip</text>
<text text-anchor="start" x="36" y="-452.7" font-family="Times,serif" font-size="14.00">US Postal ZIP code, the first 5 digits</text>
<text text-anchor="start" x="125.25" y="-436.2" font-family="Times,serif" font-size="14.00">of it</text>
<polygon fill="none" stroke="black" points="11,-384 11,-406 262,-406 262,-384 11,-384"/>
<text text-anchor="start" x="14" y="-389.7" font-family="Times,serif" font-size="14.00">numeric →</text>
<polygon fill="none" stroke="black" points="264,-384 264,-406 904,-406 904,-384 264,-384"/>
<text text-anchor="start" x="266.75" y="-389.7" font-family="Times,serif" font-size="14.00">(CASE WHEN {column_name} &lt; 100000 THEN {column_name}::int ELSE ({column_name}/10000)::INT END)</text>
<polygon fill="none" stroke="black" points="11,-360 11,-382 262,-382 262,-360 11,-360"/>
<text text-anchor="start" x="14" y="-365.7" font-family="Times,serif" font-size="14.00">character varying →</text>
<polygon fill="none" stroke="black" points="264,-360 264,-382 904,-382 904,-360 264,-360"/>
<text text-anchor="start" x="267" y="-365.7" font-family="Times,serif" font-size="14.00">SUBSTRING({column_name} FROM 1 FOR 5)::INT</text>
<polygon fill="none" stroke="black" points="11,-336 11,-358 262,-358 262,-336 11,-336"/>
<text text-anchor="start" x="14" y="-341.7" font-family="Times,serif" font-size="14.00">integer →</text>
<polygon fill="none" stroke="black" points="264,-336 264,-358 904,-358 904,-336 264,-336"/>
<text text-anchor="start" x="267" y="-341.7" font-family="Times,serif" font-size="14.00">{column_name}::INT</text>
<polygon fill="none" stroke="black" points="8,-333 8,-516 907,-516 907,-333 8,-333"/>
</a>
</g>
</g>
<!-- medicare._ps.zip&#45;&gt;medicare._enrollments.zip -->
<g id="edge2" class="edge">
<title>medicare._ps.zip&#45;&gt;medicare._enrollments.zip</title>
<path fill="none" stroke="blue" stroke-width="5" d="M457.5,-328.65C457.5,-321.91 457.5,-315.15 457.5,-308.51"/>
<polygon fill="blue" stroke="blue" stroke-width="5" points="461.88,-308.55 457.5,-298.55 453.13,-308.55 461.88,-308.55"/>
<text text-anchor="middle" x="571.88" y="-305.45" font-family="Times,serif" font-size="14.00">	 &#160;Aggregated On bene_id, year, state</text>
</g>
<!-- medicare.ps.zip -->
<g id="node4" class="node">
<title>medicare.ps.zip</title>
<g id="a_node4"><a xlink:href="../medicare.ps/zip.html" xlink:title="&lt;TABLE&gt;" target="_blank">
<polygon fill="none" stroke="black" points="915,-748 0,-748 0,-557 915,-557 915,-748"/>
<text text-anchor="start" x="90.75" y="-726.7" font-family="Times,serif" font-weight="bold" font-size="14.00">medicare.ps.zip</text>
<text text-anchor="start" x="36" y="-680.7" font-family="Times,serif" font-size="14.00">US Postal ZIP code, the first 5 digits</text>
<text text-anchor="start" x="125.25" y="-664.2" font-family="Times,serif" font-size="14.00">of it</text>
<polygon fill="none" stroke="black" points="11,-612 11,-634 262,-634 262,-612 11,-612"/>
<text text-anchor="start" x="14" y="-617.7" font-family="Times,serif" font-size="14.00">numeric →</text>
<polygon fill="none" stroke="black" points="264,-612 264,-634 904,-634 904,-612 264,-612"/>
<text text-anchor="start" x="266.75" y="-617.7" font-family="Times,serif" font-size="14.00">(CASE WHEN {column_name} &lt; 100000 THEN {column_name}::int ELSE ({column_name}/10000)::INT END)</text>
<polygon fill="none" stroke="black" points="11,-588 11,-610 262,-610 262,-588 11,-588"/>
<text text-anchor="start" x="14" y="-593.7" font-family="Times,serif" font-size="14.00">character varying →</text>
<polygon fill="none" stroke="black" points="264,-588 264,-610 904,-610 904,-588 264,-588"/>
<text text-anchor="start" x="267" y="-593.7" font-family="Times,serif" font-size="14.00">SUBSTRING({column_name} FROM 1 FOR 5)::INT</text>
<polygon fill="none" stroke="black" points="11,-564 11,-586 262,-586 262,-564 11,-564"/>
<text text-anchor="start" x="14" y="-569.7" font-family="Times,serif" font-size="14.00">integer →</text>
<polygon fill="none" stroke="black" points="264,-564 264,-586 904,-586 904,-564 264,-564"/>
<text text-anchor="start" x="267" y="-569.7" font-family="Times,serif" font-size="14.00">{column_name}::INT</text>
<polygon fill="none" stroke="black" points="8,-561 8,-744 907,-744 907,-561 8,-561"/>
</a>
</g>
</g>
<!-- medicare.ps.zip&#45;&gt;medicare._ps.zip -->
<g id="edge3" class="edge">
<title>medicare.ps.zip&#45;&gt;medicare._ps.zip</title>
<path fill="none" stroke="black" d="M457.5,-556.64C457.5,-548.42 457.5,-540.06 457.5,-531.76"/>
<polygon fill="black" stroke="black" points="461,-532 457.5,-522 454,-532 461,-532"/>
<text text-anchor="middle" x="477" y="-533.45" font-family="Times,serif" font-size="14.00">Copied</text>
</g>
<!-- medicare.ps.zip_parent -->
<g id="node5" class="node">
<title>medicare.ps.zip_parent</title>
<g id="a_node5"><a xlink:href="../medicare.ps/zip.html" xlink:title="8 incoming links (columns)" target="_blank">
<path fill="yellow" stroke="black" d="M565.5,-883.18C565.5,-888.6 517.09,-893 457.5,-893 397.91,-893 349.5,-888.6 349.5,-883.18 349.5,-883.18 349.5,-794.82 349.5,-794.82 349.5,-789.4 397.91,-785 457.5,-785 517.09,-785 565.5,-789.4 565.5,-794.82 565.5,-794.82 565.5,-883.18 565.5,-883.18"/>
<path fill="none" stroke="black" d="M565.5,-883.18C565.5,-877.76 517.09,-873.36 457.5,-873.36 397.91,-873.36 349.5,-877.76 349.5,-883.18"/>
<text text-anchor="middle" x="457.5" y="-833.95" font-family="Times,serif" font-size="14.00">8 incoming links (columns)</text>
</a>
</g>
</g>
<!-- medicare.ps.zip_parent&#45;&gt;medicare.ps.zip -->
<g id="edge4" class="edge">
<title>medicare.ps.zip_parent&#45;&gt;medicare.ps.zip</title>
<path fill="none" stroke="goldenrod" stroke-width="6" d="M457.5,-784.63C457.5,-778.23 457.5,-771.52 457.5,-764.66"/>
<polygon fill="goldenrod" stroke="goldenrod" stroke-width="6" points="462.75,-764.93 457.5,-754.93 452.25,-764.93 462.75,-764.93"/>
</g>
</g>
</svg>
