<?xml version="1.0" encoding="UTF-8" standalone="no"?>
<!DOCTYPE svg PUBLIC "-//W3C//DTD SVG 1.1//EN"
 "http://www.w3.org/Graphics/SVG/1.1/DTD/svg11.dtd">
<!-- Generated by graphviz version 10.0.1 (20240210.2158)
 -->
<!-- Pages: 1 -->
<svg width="923pt" height="1066pt"
 viewBox="0.00 0.00 923.00 1065.50" xmlns="http://www.w3.org/2000/svg" xmlns:xlink="http://www.w3.org/1999/xlink">
<g id="graph0" class="graph" transform="scale(1 1) rotate(0) translate(4 1061.5)">
<polygon fill="white" stroke="none" points="-4,4 -4,-1061.5 919,-1061.5 919,4 -4,4"/>
<!-- medicare.qc_enrl_bene.zip -->
<g id="node1" class="node">
<title>medicare.qc_enrl_bene.zip</title>
<g id="a_node1"><a xlink:href="../medicare.qc_enrl_bene/zip.html" xlink:title="&lt;TABLE&gt;" target="_blank">
<polygon fill="none" stroke="black" points="556.12,-127.5 358.88,-127.5 358.88,0 556.12,0 556.12,-127.5"/>
<text text-anchor="start" x="379.5" y="-106.2" font-family="Times,serif" font-weight="bold" font-size="14.00">medicare.qc_enrl_bene.zip</text>
<text text-anchor="start" x="394.88" y="-59.7" font-family="Times,serif" font-size="14.00">Zip Code of Residence</text>
<polygon fill="none" stroke="black" points="369.88,-7 369.88,-29.5 545.12,-29.5 545.12,-7 369.88,-7"/>
<text text-anchor="start" x="372.88" y="-13.2" font-family="Times,serif" font-size="14.00">MAX(zip)</text>
<polygon fill="none" stroke="black" points="366.88,-4 366.88,-123.5 548.12,-123.5 548.12,-4 366.88,-4"/>
</a>
</g>
</g>
<!-- medicare.enrollments.zip -->
<g id="node2" class="node">
<title>medicare.enrollments.zip</title>
<g id="a_node2"><a xlink:href="../medicare.enrollments/zip.html" xlink:title="&lt;TABLE&gt;" target="_blank">
<polygon fill="none" stroke="black" points="556.12,-292 358.88,-292 358.88,-164.5 556.12,-164.5 556.12,-292"/>
<text text-anchor="start" x="383.62" y="-270.7" font-family="Times,serif" font-weight="bold" font-size="14.00">medicare.enrollments.zip</text>
<text text-anchor="start" x="394.88" y="-224.2" font-family="Times,serif" font-size="14.00">Zip Code of Residence</text>
<polygon fill="none" stroke="black" points="369.88,-171.5 369.88,-194 545.12,-194 545.12,-171.5 369.88,-171.5"/>
<text text-anchor="start" x="372.88" y="-177.7" font-family="Times,serif" font-size="14.00">MAX(zip)</text>
<polygon fill="none" stroke="black" points="366.88,-168.5 366.88,-288 548.12,-288 548.12,-168.5 366.88,-168.5"/>
</a>
</g>
</g>
<!-- medicare.enrollments.zip&#45;&gt;medicare.qc_enrl_bene.zip -->
<g id="edge1" class="edge">
<title>medicare.enrollments.zip&#45;&gt;medicare.qc_enrl_bene.zip</title>
<path fill="none" stroke="black" d="M457.5,-164.42C457.5,-156.2 457.5,-147.7 457.5,-139.3"/>
<polygon fill="black" stroke="black" points="461,-139.46 457.5,-129.46 454,-139.46 461,-139.46"/>
<text text-anchor="middle" x="503.62" y="-140.95" font-family="Times,serif" font-size="14.00">	join natural</text>
</g>
<!-- medicare._enrollments.zip -->
<g id="node3" class="node">
<title>medicare._enrollments.zip</title>
<g id="a_node3"><a xlink:href="../medicare._enrollments/zip.html" xlink:title="&lt;TABLE&gt;" target="_blank">
<polygon fill="none" stroke="black" points="556.12,-456.5 358.88,-456.5 358.88,-329 556.12,-329 556.12,-456.5"/>
<text text-anchor="start" x="380.25" y="-435.2" font-family="Times,serif" font-weight="bold" font-size="14.00">medicare._enrollments.zip</text>
<text text-anchor="start" x="394.88" y="-388.7" font-family="Times,serif" font-size="14.00">Zip Code of Residence</text>
<polygon fill="none" stroke="black" points="369.88,-336 369.88,-358.5 545.12,-358.5 545.12,-336 369.88,-336"/>
<text text-anchor="start" x="372.88" y="-342.2" font-family="Times,serif" font-size="14.00">MAX(zip)</text>
<polygon fill="none" stroke="black" points="366.88,-333 366.88,-452.5 548.12,-452.5 548.12,-333 366.88,-333"/>
</a>
</g>
</g>
<!-- medicare._enrollments.zip&#45;&gt;medicare.enrollments.zip -->
<g id="edge2" class="edge">
<title>medicare._enrollments.zip&#45;&gt;medicare.enrollments.zip</title>
<path fill="none" stroke="black" d="M457.5,-328.92C457.5,-320.7 457.5,-312.2 457.5,-303.8"/>
<polygon fill="black" stroke="black" points="461,-303.96 457.5,-293.96 454,-303.96 461,-303.96"/>
<text text-anchor="middle" x="477" y="-305.45" font-family="Times,serif" font-size="14.00">Copied</text>
</g>
<!-- medicare._ps.zip -->
<g id="node4" class="node">
<title>medicare._ps.zip</title>
<g id="a_node4"><a xlink:href="../medicare._ps/zip.html" xlink:title="&lt;TABLE&gt;" target="_blank">
<polygon fill="none" stroke="black" points="915,-684.5 0,-684.5 0,-493.5 915,-493.5 915,-684.5"/>
<text text-anchor="start" x="87.38" y="-663.2" font-family="Times,serif" font-weight="bold" font-size="14.00">medicare._ps.zip</text>
<text text-anchor="start" x="36" y="-617.2" font-family="Times,serif" font-size="14.00">US Postal ZIP code, the first 5 digits</text>
<text text-anchor="start" x="125.25" y="-600.7" font-family="Times,serif" font-size="14.00">of it</text>
<polygon fill="none" stroke="black" points="11,-548.5 11,-570.5 262,-570.5 262,-548.5 11,-548.5"/>
<text text-anchor="start" x="14" y="-554.2" font-family="Times,serif" font-size="14.00">numeric →</text>
<polygon fill="none" stroke="black" points="264,-548.5 264,-570.5 904,-570.5 904,-548.5 264,-548.5"/>
<text text-anchor="start" x="266.75" y="-554.2" font-family="Times,serif" font-size="14.00">(CASE WHEN {column_name} &lt; 100000 THEN {column_name}::int ELSE ({column_name}/10000)::INT END)</text>
<polygon fill="none" stroke="black" points="11,-524.5 11,-546.5 262,-546.5 262,-524.5 11,-524.5"/>
<text text-anchor="start" x="14" y="-530.2" font-family="Times,serif" font-size="14.00">character varying →</text>
<polygon fill="none" stroke="black" points="264,-524.5 264,-546.5 904,-546.5 904,-524.5 264,-524.5"/>
<text text-anchor="start" x="267" y="-530.2" font-family="Times,serif" font-size="14.00">SUBSTRING({column_name} FROM 1 FOR 5)::INT</text>
<polygon fill="none" stroke="black" points="11,-500.5 11,-522.5 262,-522.5 262,-500.5 11,-500.5"/>
<text text-anchor="start" x="14" y="-506.2" font-family="Times,serif" font-size="14.00">integer →</text>
<polygon fill="none" stroke="black" points="264,-500.5 264,-522.5 904,-522.5 904,-500.5 264,-500.5"/>
<text text-anchor="start" x="267" y="-506.2" font-family="Times,serif" font-size="14.00">{column_name}::INT</text>
<polygon fill="none" stroke="black" points="8,-497.5 8,-680.5 907,-680.5 907,-497.5 8,-497.5"/>
</a>
</g>
</g>
<!-- medicare._ps.zip&#45;&gt;medicare._enrollments.zip -->
<g id="edge3" class="edge">
<title>medicare._ps.zip&#45;&gt;medicare._enrollments.zip</title>
<path fill="none" stroke="blue" stroke-width="5" d="M457.5,-493.15C457.5,-486.41 457.5,-479.65 457.5,-473.01"/>
<polygon fill="blue" stroke="blue" stroke-width="5" points="461.88,-473.05 457.5,-463.05 453.13,-473.05 461.88,-473.05"/>
<text text-anchor="middle" x="571.88" y="-469.95" font-family="Times,serif" font-size="14.00">	 &#160;Aggregated On bene_id, year, state</text>
</g>
<!-- medicare.ps.zip -->
<g id="node5" class="node">
<title>medicare.ps.zip</title>
<g id="a_node5"><a xlink:href="../medicare.ps/zip.html" xlink:title="&lt;TABLE&gt;" target="_blank">
<polygon fill="none" stroke="black" points="915,-912.5 0,-912.5 0,-721.5 915,-721.5 915,-912.5"/>
<text text-anchor="start" x="90.75" y="-891.2" font-family="Times,serif" font-weight="bold" font-size="14.00">medicare.ps.zip</text>
<text text-anchor="start" x="36" y="-845.2" font-family="Times,serif" font-size="14.00">US Postal ZIP code, the first 5 digits</text>
<text text-anchor="start" x="125.25" y="-828.7" font-family="Times,serif" font-size="14.00">of it</text>
<polygon fill="none" stroke="black" points="11,-776.5 11,-798.5 262,-798.5 262,-776.5 11,-776.5"/>
<text text-anchor="start" x="14" y="-782.2" font-family="Times,serif" font-size="14.00">numeric →</text>
<polygon fill="none" stroke="black" points="264,-776.5 264,-798.5 904,-798.5 904,-776.5 264,-776.5"/>
<text text-anchor="start" x="266.75" y="-782.2" font-family="Times,serif" font-size="14.00">(CASE WHEN {column_name} &lt; 100000 THEN {column_name}::int ELSE ({column_name}/10000)::INT END)</text>
<polygon fill="none" stroke="black" points="11,-752.5 11,-774.5 262,-774.5 262,-752.5 11,-752.5"/>
<text text-anchor="start" x="14" y="-758.2" font-family="Times,serif" font-size="14.00">character varying →</text>
<polygon fill="none" stroke="black" points="264,-752.5 264,-774.5 904,-774.5 904,-752.5 264,-752.5"/>
<text text-anchor="start" x="267" y="-758.2" font-family="Times,serif" font-size="14.00">SUBSTRING({column_name} FROM 1 FOR 5)::INT</text>
<polygon fill="none" stroke="black" points="11,-728.5 11,-750.5 262,-750.5 262,-728.5 11,-728.5"/>
<text text-anchor="start" x="14" y="-734.2" font-family="Times,serif" font-size="14.00">integer →</text>
<polygon fill="none" stroke="black" points="264,-728.5 264,-750.5 904,-750.5 904,-728.5 264,-728.5"/>
<text text-anchor="start" x="267" y="-734.2" font-family="Times,serif" font-size="14.00">{column_name}::INT</text>
<polygon fill="none" stroke="black" points="8,-725.5 8,-908.5 907,-908.5 907,-725.5 8,-725.5"/>
</a>
</g>
</g>
<!-- medicare.ps.zip&#45;&gt;medicare._ps.zip -->
<g id="edge4" class="edge">
<title>medicare.ps.zip&#45;&gt;medicare._ps.zip</title>
<path fill="none" stroke="black" d="M457.5,-721.14C457.5,-712.92 457.5,-704.56 457.5,-696.26"/>
<polygon fill="black" stroke="black" points="461,-696.5 457.5,-686.5 454,-696.5 461,-696.5"/>
<text text-anchor="middle" x="477" y="-697.95" font-family="Times,serif" font-size="14.00">Copied</text>
</g>
<!-- medicare.ps.zip_parent -->
<g id="node6" class="node">
<title>medicare.ps.zip_parent</title>
<g id="a_node6"><a xlink:href="../medicare.ps/zip.html" xlink:title="8 incoming links (columns)" target="_blank">
<path fill="yellow" stroke="black" d="M565.5,-1047.68C565.5,-1053.1 517.09,-1057.5 457.5,-1057.5 397.91,-1057.5 349.5,-1053.1 349.5,-1047.68 349.5,-1047.68 349.5,-959.32 349.5,-959.32 349.5,-953.9 397.91,-949.5 457.5,-949.5 517.09,-949.5 565.5,-953.9 565.5,-959.32 565.5,-959.32 565.5,-1047.68 565.5,-1047.68"/>
<path fill="none" stroke="black" d="M565.5,-1047.68C565.5,-1042.26 517.09,-1037.86 457.5,-1037.86 397.91,-1037.86 349.5,-1042.26 349.5,-1047.68"/>
<text text-anchor="middle" x="457.5" y="-998.45" font-family="Times,serif" font-size="14.00">8 incoming links (columns)</text>
</a>
</g>
</g>
<!-- medicare.ps.zip_parent&#45;&gt;medicare.ps.zip -->
<g id="edge5" class="edge">
<title>medicare.ps.zip_parent&#45;&gt;medicare.ps.zip</title>
<path fill="none" stroke="goldenrod" stroke-width="6" d="M457.5,-949.13C457.5,-942.73 457.5,-936.02 457.5,-929.16"/>
<polygon fill="goldenrod" stroke="goldenrod" stroke-width="6" points="462.75,-929.43 457.5,-919.43 452.25,-929.43 462.75,-929.43"/>
</g>
</g>
</svg>
