<?xml version="1.0" encoding="UTF-8" standalone="no"?>
<!DOCTYPE svg PUBLIC "-//W3C//DTD SVG 1.1//EN"
 "http://www.w3.org/Graphics/SVG/1.1/DTD/svg11.dtd">
<!-- Generated by graphviz version 10.0.1 (20240210.2158)
 -->
<!-- Pages: 1 -->
<svg width="923pt" height="860pt"
 viewBox="0.00 0.00 923.00 860.00" xmlns="http://www.w3.org/2000/svg" xmlns:xlink="http://www.w3.org/1999/xlink">
<g id="graph0" class="graph" transform="scale(1 1) rotate(0) translate(4 856)">
<polygon fill="white" stroke="none" points="-4,4 -4,-856 919,-856 919,4 -4,4"/>
<!-- medicare.qc_enrl_bene.zip -->
<g id="node1" class="node">
<title>medicare.qc_enrl_bene.zip</title>
<g id="a_node1"><a xlink:href="../medicare.qc_enrl_bene/zip.html" xlink:title="&lt;TABLE&gt;" target="_blank">
<polygon fill="none" stroke="black" points="548.5,-59 366.5,-59 366.5,0 548.5,0 548.5,-59"/>
<text text-anchor="start" x="379.5" y="-37.7" font-family="Times,serif" font-weight="bold" font-size="14.00">medicare.qc_enrl_bene.zip</text>
<polygon fill="none" stroke="black" points="377.5,-7 377.5,-29.5 537.5,-29.5 537.5,-7 377.5,-7"/>
<text text-anchor="start" x="380.5" y="-13.2" font-family="Times,serif" font-size="14.00">MAX(zip)</text>
<polygon fill="none" stroke="black" points="374.5,-4 374.5,-55 540.5,-55 540.5,-4 374.5,-4"/>
</a>
</g>
</g>
<!-- medicare.enrollments.zip -->
<g id="node2" class="node">
<title>medicare.enrollments.zip</title>
<g id="a_node2"><a xlink:href="../medicare.enrollments/zip.html" xlink:title="&lt;TABLE&gt;" target="_blank">
<polygon fill="none" stroke="black" points="544.38,-155 370.62,-155 370.62,-96 544.38,-96 544.38,-155"/>
<text text-anchor="start" x="383.62" y="-133.7" font-family="Times,serif" font-weight="bold" font-size="14.00">medicare.enrollments.zip</text>
<polygon fill="none" stroke="black" points="381.62,-103 381.62,-125.5 533.38,-125.5 533.38,-103 381.62,-103"/>
<text text-anchor="start" x="384.62" y="-109.2" font-family="Times,serif" font-size="14.00">MAX(zip)</text>
<polygon fill="none" stroke="black" points="378.62,-100 378.62,-151 536.38,-151 536.38,-100 378.62,-100"/>
</a>
</g>
</g>
<!-- medicare.enrollments.zip&#45;&gt;medicare.qc_enrl_bene.zip -->
<g id="edge1" class="edge">
<title>medicare.enrollments.zip&#45;&gt;medicare.qc_enrl_bene.zip</title>
<path fill="none" stroke="black" d="M457.5,-95.53C457.5,-87.68 457.5,-79.05 457.5,-70.7"/>
<polygon fill="black" stroke="black" points="461,-70.73 457.5,-60.73 454,-70.73 461,-70.73"/>
<text text-anchor="middle" x="503.62" y="-72.45" font-family="Times,serif" font-size="14.00">	join natural</text>
</g>
<!-- medicare._enrollments.zip -->
<g id="node3" class="node">
<title>medicare._enrollments.zip</title>
<g id="a_node3"><a xlink:href="../medicare._enrollments/zip.html" xlink:title="&lt;TABLE&gt;" target="_blank">
<polygon fill="none" stroke="black" points="547.75,-251 367.25,-251 367.25,-192 547.75,-192 547.75,-251"/>
<text text-anchor="start" x="380.25" y="-229.7" font-family="Times,serif" font-weight="bold" font-size="14.00">medicare._enrollments.zip</text>
<polygon fill="none" stroke="black" points="378.25,-199 378.25,-221.5 536.75,-221.5 536.75,-199 378.25,-199"/>
<text text-anchor="start" x="381.25" y="-205.2" font-family="Times,serif" font-size="14.00">MAX(zip)</text>
<polygon fill="none" stroke="black" points="375.25,-196 375.25,-247 539.75,-247 539.75,-196 375.25,-196"/>
</a>
</g>
</g>
<!-- medicare._enrollments.zip&#45;&gt;medicare.enrollments.zip -->
<g id="edge2" class="edge">
<title>medicare._enrollments.zip&#45;&gt;medicare.enrollments.zip</title>
<path fill="none" stroke="black" d="M457.5,-191.53C457.5,-183.68 457.5,-175.05 457.5,-166.7"/>
<polygon fill="black" stroke="black" points="461,-166.73 457.5,-156.73 454,-166.73 461,-166.73"/>
<text text-anchor="middle" x="477" y="-168.45" font-family="Times,serif" font-size="14.00">Copied</text>
</g>
<!-- medicare._ps.zip -->
<g id="node4" class="node">
<title>medicare._ps.zip</title>
<g id="a_node4"><a xlink:href="../medicare._ps/zip.html" xlink:title="&lt;TABLE&gt;" target="_blank">
<polygon fill="none" stroke="black" points="915,-479 0,-479 0,-288 915,-288 915,-479"/>
<text text-anchor="start" x="87.38" y="-457.7" font-family="Times,serif" font-weight="bold" font-size="14.00">medicare._ps.zip</text>
<text text-anchor="start" x="36" y="-411.7" font-family="Times,serif" font-size="14.00">US Postal ZIP code, the first 5 digits</text>
<text text-anchor="start" x="125.25" y="-395.2" font-family="Times,serif" font-size="14.00">of it</text>
<polygon fill="none" stroke="black" points="11,-343 11,-365 262,-365 262,-343 11,-343"/>
<text text-anchor="start" x="14" y="-348.7" font-family="Times,serif" font-size="14.00">numeric →</text>
<polygon fill="none" stroke="black" points="264,-343 264,-365 904,-365 904,-343 264,-343"/>
<text text-anchor="start" x="266.75" y="-348.7" font-family="Times,serif" font-size="14.00">(CASE WHEN {column_name} &lt; 100000 THEN {column_name}::int ELSE ({column_name}/10000)::INT END)</text>
<polygon fill="none" stroke="black" points="11,-319 11,-341 262,-341 262,-319 11,-319"/>
<text text-anchor="start" x="14" y="-324.7" font-family="Times,serif" font-size="14.00">character varying →</text>
<polygon fill="none" stroke="black" points="264,-319 264,-341 904,-341 904,-319 264,-319"/>
<text text-anchor="start" x="267" y="-324.7" font-family="Times,serif" font-size="14.00">SUBSTRING({column_name} FROM 1 FOR 5)::INT</text>
<polygon fill="none" stroke="black" points="11,-295 11,-317 262,-317 262,-295 11,-295"/>
<text text-anchor="start" x="14" y="-300.7" font-family="Times,serif" font-size="14.00">integer →</text>
<polygon fill="none" stroke="black" points="264,-295 264,-317 904,-317 904,-295 264,-295"/>
<text text-anchor="start" x="267" y="-300.7" font-family="Times,serif" font-size="14.00">{column_name}::INT</text>
<polygon fill="none" stroke="black" points="8,-292 8,-475 907,-475 907,-292 8,-292"/>
</a>
</g>
</g>
<!-- medicare._ps.zip&#45;&gt;medicare._enrollments.zip -->
<g id="edge3" class="edge">
<title>medicare._ps.zip&#45;&gt;medicare._enrollments.zip</title>
<path fill="none" stroke="blue" stroke-width="5" d="M457.5,-287.58C457.5,-280.57 457.5,-273.72 457.5,-267.26"/>
<polygon fill="blue" stroke="blue" stroke-width="5" points="461.88,-267.43 457.5,-257.43 453.13,-267.43 461.88,-267.43"/>
<text text-anchor="middle" x="571.88" y="-264.45" font-family="Times,serif" font-size="14.00">	 &#160;Aggregated On bene_id, year, state</text>
</g>
<!-- medicare.ps.zip -->
<g id="node5" class="node">
<title>medicare.ps.zip</title>
<g id="a_node5"><a xlink:href="../medicare.ps/zip.html" xlink:title="&lt;TABLE&gt;" target="_blank">
<polygon fill="none" stroke="black" points="915,-707 0,-707 0,-516 915,-516 915,-707"/>
<text text-anchor="start" x="90.75" y="-685.7" font-family="Times,serif" font-weight="bold" font-size="14.00">medicare.ps.zip</text>
<text text-anchor="start" x="36" y="-639.7" font-family="Times,serif" font-size="14.00">US Postal ZIP code, the first 5 digits</text>
<text text-anchor="start" x="125.25" y="-623.2" font-family="Times,serif" font-size="14.00">of it</text>
<polygon fill="none" stroke="black" points="11,-571 11,-593 262,-593 262,-571 11,-571"/>
<text text-anchor="start" x="14" y="-576.7" font-family="Times,serif" font-size="14.00">numeric →</text>
<polygon fill="none" stroke="black" points="264,-571 264,-593 904,-593 904,-571 264,-571"/>
<text text-anchor="start" x="266.75" y="-576.7" font-family="Times,serif" font-size="14.00">(CASE WHEN {column_name} &lt; 100000 THEN {column_name}::int ELSE ({column_name}/10000)::INT END)</text>
<polygon fill="none" stroke="black" points="11,-547 11,-569 262,-569 262,-547 11,-547"/>
<text text-anchor="start" x="14" y="-552.7" font-family="Times,serif" font-size="14.00">character varying →</text>
<polygon fill="none" stroke="black" points="264,-547 264,-569 904,-569 904,-547 264,-547"/>
<text text-anchor="start" x="267" y="-552.7" font-family="Times,serif" font-size="14.00">SUBSTRING({column_name} FROM 1 FOR 5)::INT</text>
<polygon fill="none" stroke="black" points="11,-523 11,-545 262,-545 262,-523 11,-523"/>
<text text-anchor="start" x="14" y="-528.7" font-family="Times,serif" font-size="14.00">integer →</text>
<polygon fill="none" stroke="black" points="264,-523 264,-545 904,-545 904,-523 264,-523"/>
<text text-anchor="start" x="267" y="-528.7" font-family="Times,serif" font-size="14.00">{column_name}::INT</text>
<polygon fill="none" stroke="black" points="8,-520 8,-703 907,-703 907,-520 8,-520"/>
</a>
</g>
</g>
<!-- medicare.ps.zip&#45;&gt;medicare._ps.zip -->
<g id="edge4" class="edge">
<title>medicare.ps.zip&#45;&gt;medicare._ps.zip</title>
<path fill="none" stroke="black" d="M457.5,-515.64C457.5,-507.42 457.5,-499.06 457.5,-490.76"/>
<polygon fill="black" stroke="black" points="461,-491 457.5,-481 454,-491 461,-491"/>
<text text-anchor="middle" x="477" y="-492.45" font-family="Times,serif" font-size="14.00">Copied</text>
</g>
<!-- medicare.ps.zip_parent -->
<g id="node6" class="node">
<title>medicare.ps.zip_parent</title>
<g id="a_node6"><a xlink:href="../medicare.ps/zip.html" xlink:title="8 incoming links (columns)" target="_blank">
<path fill="yellow" stroke="black" d="M565.5,-842.18C565.5,-847.6 517.09,-852 457.5,-852 397.91,-852 349.5,-847.6 349.5,-842.18 349.5,-842.18 349.5,-753.82 349.5,-753.82 349.5,-748.4 397.91,-744 457.5,-744 517.09,-744 565.5,-748.4 565.5,-753.82 565.5,-753.82 565.5,-842.18 565.5,-842.18"/>
<path fill="none" stroke="black" d="M565.5,-842.18C565.5,-836.76 517.09,-832.36 457.5,-832.36 397.91,-832.36 349.5,-836.76 349.5,-842.18"/>
<text text-anchor="middle" x="457.5" y="-792.95" font-family="Times,serif" font-size="14.00">8 incoming links (columns)</text>
</a>
</g>
</g>
<!-- medicare.ps.zip_parent&#45;&gt;medicare.ps.zip -->
<g id="edge5" class="edge">
<title>medicare.ps.zip_parent&#45;&gt;medicare.ps.zip</title>
<path fill="none" stroke="goldenrod" stroke-width="6" d="M457.5,-743.63C457.5,-737.23 457.5,-730.52 457.5,-723.66"/>
<polygon fill="goldenrod" stroke="goldenrod" stroke-width="6" points="462.75,-723.93 457.5,-713.93 452.25,-723.93 462.75,-723.93"/>
</g>
</g>
</svg>
