<?xml version="1.0" encoding="UTF-8" standalone="no"?>
<!DOCTYPE svg PUBLIC "-//W3C//DTD SVG 1.1//EN"
 "http://www.w3.org/Graphics/SVG/1.1/DTD/svg11.dtd">
<!-- Generated by graphviz version 10.0.1 (20240210.2158)
 -->
<!-- Pages: 1 -->
<svg width="923pt" height="668pt"
 viewBox="0.00 0.00 923.00 668.00" xmlns="http://www.w3.org/2000/svg" xmlns:xlink="http://www.w3.org/1999/xlink">
<g id="graph0" class="graph" transform="scale(1 1) rotate(0) translate(4 664)">
<polygon fill="white" stroke="none" points="-4,4 -4,-664 919,-664 919,4 -4,4"/>
<!-- medicare._enrollments.zips -->
<g id="node1" class="node">
<title>medicare._enrollments.zips</title>
<g id="a_node1"><a xlink:href="../medicare._enrollments/zips.html" xlink:title="&lt;TABLE&gt;" target="_blank">
<polygon fill="none" stroke="black" points="566,-59 349,-59 349,0 566,0 566,-59"/>
<text text-anchor="start" x="377.62" y="-37.7" font-family="Times,serif" font-weight="bold" font-size="14.00">medicare._enrollments.zips</text>
<polygon fill="none" stroke="black" points="360,-7 360,-29.5 555,-29.5 555,-7 360,-7"/>
<text text-anchor="start" x="363" y="-13.2" font-family="Times,serif" font-size="14.00">string_agg(distinct zip::varchar, &#39;,&#39;)</text>
<polygon fill="none" stroke="black" points="357,-4 357,-55 558,-55 558,-4 357,-4"/>
</a>
</g>
</g>
<!-- medicare._ps.zip -->
<g id="node2" class="node">
<title>medicare._ps.zip</title>
<g id="a_node2"><a xlink:href="../medicare._ps/zip.html" xlink:title="&lt;TABLE&gt;" target="_blank">
<polygon fill="none" stroke="black" points="915,-287 0,-287 0,-96 915,-96 915,-287"/>
<text text-anchor="start" x="87.38" y="-265.7" font-family="Times,serif" font-weight="bold" font-size="14.00">medicare._ps.zip</text>
<text text-anchor="start" x="36" y="-219.7" font-family="Times,serif" font-size="14.00">US Postal ZIP code, the first 5 digits</text>
<text text-anchor="start" x="125.25" y="-203.2" font-family="Times,serif" font-size="14.00">of it</text>
<polygon fill="none" stroke="black" points="11,-151 11,-173 262,-173 262,-151 11,-151"/>
<text text-anchor="start" x="14" y="-156.7" font-family="Times,serif" font-size="14.00">numeric →</text>
<polygon fill="none" stroke="black" points="264,-151 264,-173 904,-173 904,-151 264,-151"/>
<text text-anchor="start" x="266.75" y="-156.7" font-family="Times,serif" font-size="14.00">(CASE WHEN {column_name} &lt; 100000 THEN {column_name}::int ELSE ({column_name}/10000)::INT END)</text>
<polygon fill="none" stroke="black" points="11,-127 11,-149 262,-149 262,-127 11,-127"/>
<text text-anchor="start" x="14" y="-132.7" font-family="Times,serif" font-size="14.00">character varying →</text>
<polygon fill="none" stroke="black" points="264,-127 264,-149 904,-149 904,-127 264,-127"/>
<text text-anchor="start" x="267" y="-132.7" font-family="Times,serif" font-size="14.00">SUBSTRING({column_name} FROM 1 FOR 5)::INT</text>
<polygon fill="none" stroke="black" points="11,-103 11,-125 262,-125 262,-103 11,-103"/>
<text text-anchor="start" x="14" y="-108.7" font-family="Times,serif" font-size="14.00">integer →</text>
<polygon fill="none" stroke="black" points="264,-103 264,-125 904,-125 904,-103 264,-103"/>
<text text-anchor="start" x="267" y="-108.7" font-family="Times,serif" font-size="14.00">{column_name}::INT</text>
<polygon fill="none" stroke="black" points="8,-100 8,-283 907,-283 907,-100 8,-100"/>
</a>
</g>
</g>
<!-- medicare._ps.zip&#45;&gt;medicare._enrollments.zips -->
<g id="edge1" class="edge">
<title>medicare._ps.zip&#45;&gt;medicare._enrollments.zips</title>
<path fill="none" stroke="blue" stroke-width="5" d="M457.5,-95.58C457.5,-88.57 457.5,-81.72 457.5,-75.26"/>
<polygon fill="blue" stroke="blue" stroke-width="5" points="461.88,-75.43 457.5,-65.43 453.13,-75.43 461.88,-75.43"/>
<text text-anchor="middle" x="571.88" y="-72.45" font-family="Times,serif" font-size="14.00">	 &#160;Aggregated On bene_id, year, state</text>
</g>
<!-- medicare.ps.zip -->
<g id="node3" class="node">
<title>medicare.ps.zip</title>
<g id="a_node3"><a xlink:href="../medicare.ps/zip.html" xlink:title="&lt;TABLE&gt;" target="_blank">
<polygon fill="none" stroke="black" points="915,-515 0,-515 0,-324 915,-324 915,-515"/>
<text text-anchor="start" x="90.75" y="-493.7" font-family="Times,serif" font-weight="bold" font-size="14.00">medicare.ps.zip</text>
<text text-anchor="start" x="36" y="-447.7" font-family="Times,serif" font-size="14.00">US Postal ZIP code, the first 5 digits</text>
<text text-anchor="start" x="125.25" y="-431.2" font-family="Times,serif" font-size="14.00">of it</text>
<polygon fill="none" stroke="black" points="11,-379 11,-401 262,-401 262,-379 11,-379"/>
<text text-anchor="start" x="14" y="-384.7" font-family="Times,serif" font-size="14.00">numeric →</text>
<polygon fill="none" stroke="black" points="264,-379 264,-401 904,-401 904,-379 264,-379"/>
<text text-anchor="start" x="266.75" y="-384.7" font-family="Times,serif" font-size="14.00">(CASE WHEN {column_name} &lt; 100000 THEN {column_name}::int ELSE ({column_name}/10000)::INT END)</text>
<polygon fill="none" stroke="black" points="11,-355 11,-377 262,-377 262,-355 11,-355"/>
<text text-anchor="start" x="14" y="-360.7" font-family="Times,serif" font-size="14.00">character varying →</text>
<polygon fill="none" stroke="black" points="264,-355 264,-377 904,-377 904,-355 264,-355"/>
<text text-anchor="start" x="267" y="-360.7" font-family="Times,serif" font-size="14.00">SUBSTRING({column_name} FROM 1 FOR 5)::INT</text>
<polygon fill="none" stroke="black" points="11,-331 11,-353 262,-353 262,-331 11,-331"/>
<text text-anchor="start" x="14" y="-336.7" font-family="Times,serif" font-size="14.00">integer →</text>
<polygon fill="none" stroke="black" points="264,-331 264,-353 904,-353 904,-331 264,-331"/>
<text text-anchor="start" x="267" y="-336.7" font-family="Times,serif" font-size="14.00">{column_name}::INT</text>
<polygon fill="none" stroke="black" points="8,-328 8,-511 907,-511 907,-328 8,-328"/>
</a>
</g>
</g>
<!-- medicare.ps.zip&#45;&gt;medicare._ps.zip -->
<g id="edge2" class="edge">
<title>medicare.ps.zip&#45;&gt;medicare._ps.zip</title>
<path fill="none" stroke="black" d="M457.5,-323.64C457.5,-315.42 457.5,-307.06 457.5,-298.76"/>
<polygon fill="black" stroke="black" points="461,-299 457.5,-289 454,-299 461,-299"/>
<text text-anchor="middle" x="477" y="-300.45" font-family="Times,serif" font-size="14.00">Copied</text>
</g>
<!-- medicare.ps.zip_parent -->
<g id="node4" class="node">
<title>medicare.ps.zip_parent</title>
<g id="a_node4"><a xlink:href="../medicare.ps/zip.html" xlink:title="8 incoming links (columns)" target="_blank">
<path fill="yellow" stroke="black" d="M565.5,-650.18C565.5,-655.6 517.09,-660 457.5,-660 397.91,-660 349.5,-655.6 349.5,-650.18 349.5,-650.18 349.5,-561.82 349.5,-561.82 349.5,-556.4 397.91,-552 457.5,-552 517.09,-552 565.5,-556.4 565.5,-561.82 565.5,-561.82 565.5,-650.18 565.5,-650.18"/>
<path fill="none" stroke="black" d="M565.5,-650.18C565.5,-644.76 517.09,-640.36 457.5,-640.36 397.91,-640.36 349.5,-644.76 349.5,-650.18"/>
<text text-anchor="middle" x="457.5" y="-600.95" font-family="Times,serif" font-size="14.00">8 incoming links (columns)</text>
</a>
</g>
</g>
<!-- medicare.ps.zip_parent&#45;&gt;medicare.ps.zip -->
<g id="edge3" class="edge">
<title>medicare.ps.zip_parent&#45;&gt;medicare.ps.zip</title>
<path fill="none" stroke="goldenrod" stroke-width="6" d="M457.5,-551.63C457.5,-545.23 457.5,-538.52 457.5,-531.66"/>
<polygon fill="goldenrod" stroke="goldenrod" stroke-width="6" points="462.75,-531.93 457.5,-521.93 452.25,-531.93 462.75,-531.93"/>
</g>
</g>
</svg>
