<?xml version="1.0" encoding="UTF-8" standalone="no"?>
<!DOCTYPE svg PUBLIC "-//W3C//DTD SVG 1.1//EN"
 "http://www.w3.org/Graphics/SVG/1.1/DTD/svg11.dtd">
<!-- Generated by graphviz version 14.1.4 (20260321.0153)
 -->
<!-- Pages: 1 -->
<svg width="921pt" height="672pt"
 viewBox="0.00 0.00 921.00 672.00" xmlns="http://www.w3.org/2000/svg" xmlns:xlink="http://www.w3.org/1999/xlink">
<g id="graph0" class="graph" transform="scale(1 1) rotate(0) translate(4 668)">
<polygon fill="white" stroke="none" points="-4,4 -4,-668 917.25,-668 917.25,4 -4,4"/>
<!-- medicare._enrollments.zips -->
<g id="node1" class="node">
<title>medicare._enrollments.zips</title>
<g id="a_node1"><a xlink:href="../medicare._enrollments/zips.html" xlink:title="&lt;TABLE&gt;" target="_blank">
<polygon fill="none" stroke="black" points="565.12,-59 348.12,-59 348.12,0 565.12,0 565.12,-59"/>
<text xml:space="preserve" text-anchor="start" x="376.75" y="-37.7" font-family="Times,serif" font-weight="bold" font-size="14.00">medicare._enrollments.zips</text>
<polygon fill="none" stroke="black" points="359.12,-7 359.12,-29.5 554.12,-29.5 554.12,-7 359.12,-7"/>
<text xml:space="preserve" text-anchor="start" x="362.12" y="-13.75" font-family="Times,serif" font-size="14.00">string_agg(distinct zip::varchar, &#39;,&#39;)</text>
<polygon fill="none" stroke="black" points="356.12,-4 356.12,-55 557.12,-55 557.12,-4 356.12,-4"/>
</a>
</g>
</g>
<!-- medicare._ps.zip -->
<g id="node2" class="node">
<title>medicare._ps.zip</title>
<g id="a_node2"><a xlink:href="../medicare._ps/zip.html" xlink:title="&lt;TABLE&gt;" target="_blank">
<polygon fill="none" stroke="black" points="913.25,-289 0,-289 0,-96 913.25,-96 913.25,-289"/>
<text xml:space="preserve" text-anchor="start" x="87" y="-267.7" font-family="Times,serif" font-weight="bold" font-size="14.00">medicare._ps.zip</text>
<text xml:space="preserve" text-anchor="start" x="36" y="-221.75" font-family="Times,serif" font-size="14.00">US Postal ZIP code, the first 5 digits</text>
<text xml:space="preserve" text-anchor="start" x="124.88" y="-205.25" font-family="Times,serif" font-size="14.00">of it</text>
<polygon fill="none" stroke="black" points="11,-152 11,-174.5 261.25,-174.5 261.25,-152 11,-152"/>
<text xml:space="preserve" text-anchor="start" x="14" y="-158.75" font-family="Times,serif" font-size="14.00">numeric →</text>
<polygon fill="none" stroke="black" points="263.25,-152 263.25,-174.5 902.25,-174.5 902.25,-152 263.25,-152"/>
<text xml:space="preserve" text-anchor="start" x="266.25" y="-158.75" font-family="Times,serif" font-size="14.00">(CASE WHEN {column_name} &lt; 100000 THEN {column_name}::int ELSE ({column_name}/10000)::INT END)</text>
<polygon fill="none" stroke="black" points="11,-127.5 11,-150 261.25,-150 261.25,-127.5 11,-127.5"/>
<text xml:space="preserve" text-anchor="start" x="14" y="-134.25" font-family="Times,serif" font-size="14.00">character varying →</text>
<polygon fill="none" stroke="black" points="263.25,-127.5 263.25,-150 902.25,-150 902.25,-127.5 263.25,-127.5"/>
<text xml:space="preserve" text-anchor="start" x="266.25" y="-134.25" font-family="Times,serif" font-size="14.00">SUBSTRING({column_name} FROM 1 FOR 5)::INT</text>
<polygon fill="none" stroke="black" points="11,-103 11,-125.5 261.25,-125.5 261.25,-103 11,-103"/>
<text xml:space="preserve" text-anchor="start" x="14" y="-109.75" font-family="Times,serif" font-size="14.00">integer →</text>
<polygon fill="none" stroke="black" points="263.25,-103 263.25,-125.5 902.25,-125.5 902.25,-103 263.25,-103"/>
<text xml:space="preserve" text-anchor="start" x="266.25" y="-109.75" font-family="Times,serif" font-size="14.00">{column_name}::INT</text>
<polygon fill="none" stroke="black" points="8,-100 8,-285 905.25,-285 905.25,-100 8,-100"/>
</a>
</g>
</g>
<!-- medicare._ps.zip&#45;&gt;medicare._enrollments.zips -->
<g id="edge1" class="edge">
<title>medicare._ps.zip&#45;&gt;medicare._enrollments.zips</title>
<path fill="none" stroke="blue" stroke-width="5" d="M456.62,-95.52C456.62,-88.68 456.62,-82 456.62,-75.68"/>
<polygon fill="blue" stroke="blue" stroke-width="5" points="461,-75.71 456.63,-65.71 452.25,-75.71 461,-75.71"/>
<text xml:space="preserve" text-anchor="middle" x="571" y="-72.45" font-family="Times,serif" font-size="14.00">	 &#160;Aggregated On bene_id, year, state</text>
</g>
<!-- medicare.ps.zip -->
<g id="node3" class="node">
<title>medicare.ps.zip</title>
<g id="a_node3"><a xlink:href="../medicare.ps/zip.html" xlink:title="&lt;TABLE&gt;" target="_blank">
<polygon fill="none" stroke="black" points="913.25,-519 0,-519 0,-326 913.25,-326 913.25,-519"/>
<text xml:space="preserve" text-anchor="start" x="90.38" y="-497.7" font-family="Times,serif" font-weight="bold" font-size="14.00">medicare.ps.zip</text>
<text xml:space="preserve" text-anchor="start" x="36" y="-451.75" font-family="Times,serif" font-size="14.00">US Postal ZIP code, the first 5 digits</text>
<text xml:space="preserve" text-anchor="start" x="124.88" y="-435.25" font-family="Times,serif" font-size="14.00">of it</text>
<polygon fill="none" stroke="black" points="11,-382 11,-404.5 261.25,-404.5 261.25,-382 11,-382"/>
<text xml:space="preserve" text-anchor="start" x="14" y="-388.75" font-family="Times,serif" font-size="14.00">numeric →</text>
<polygon fill="none" stroke="black" points="263.25,-382 263.25,-404.5 902.25,-404.5 902.25,-382 263.25,-382"/>
<text xml:space="preserve" text-anchor="start" x="266.25" y="-388.75" font-family="Times,serif" font-size="14.00">(CASE WHEN {column_name} &lt; 100000 THEN {column_name}::int ELSE ({column_name}/10000)::INT END)</text>
<polygon fill="none" stroke="black" points="11,-357.5 11,-380 261.25,-380 261.25,-357.5 11,-357.5"/>
<text xml:space="preserve" text-anchor="start" x="14" y="-364.25" font-family="Times,serif" font-size="14.00">character varying →</text>
<polygon fill="none" stroke="black" points="263.25,-357.5 263.25,-380 902.25,-380 902.25,-357.5 263.25,-357.5"/>
<text xml:space="preserve" text-anchor="start" x="266.25" y="-364.25" font-family="Times,serif" font-size="14.00">SUBSTRING({column_name} FROM 1 FOR 5)::INT</text>
<polygon fill="none" stroke="black" points="11,-333 11,-355.5 261.25,-355.5 261.25,-333 11,-333"/>
<text xml:space="preserve" text-anchor="start" x="14" y="-339.75" font-family="Times,serif" font-size="14.00">integer →</text>
<polygon fill="none" stroke="black" points="263.25,-333 263.25,-355.5 902.25,-355.5 902.25,-333 263.25,-333"/>
<text xml:space="preserve" text-anchor="start" x="266.25" y="-339.75" font-family="Times,serif" font-size="14.00">{column_name}::INT</text>
<polygon fill="none" stroke="black" points="8,-330 8,-515 905.25,-515 905.25,-330 8,-330"/>
</a>
</g>
</g>
<!-- medicare.ps.zip&#45;&gt;medicare._ps.zip -->
<g id="edge2" class="edge">
<title>medicare.ps.zip&#45;&gt;medicare._ps.zip</title>
<path fill="none" stroke="black" d="M456.62,-325.8C456.62,-317.5 456.62,-309.08 456.62,-300.7"/>
<polygon fill="black" stroke="black" points="460.13,-300.84 456.63,-290.84 453.13,-300.84 460.13,-300.84"/>
<text xml:space="preserve" text-anchor="middle" x="476.12" y="-302.45" font-family="Times,serif" font-size="14.00">Copied</text>
</g>
<!-- medicare.ps.zip_parent -->
<g id="node4" class="node">
<title>medicare.ps.zip_parent</title>
<g id="a_node4"><a xlink:href="../medicare.ps/zip.html" xlink:title="8 incoming links (columns)" target="_blank">
<path fill="yellow" stroke="black" d="M564.62,-654.18C564.62,-659.6 516.22,-664 456.62,-664 397.03,-664 348.62,-659.6 348.62,-654.18 348.62,-654.18 348.62,-565.82 348.62,-565.82 348.62,-560.4 397.03,-556 456.62,-556 516.22,-556 564.62,-560.4 564.62,-565.82 564.62,-565.82 564.62,-654.18 564.62,-654.18"/>
<path fill="none" stroke="black" d="M564.62,-654.18C564.62,-648.76 516.22,-644.36 456.62,-644.36 397.03,-644.36 348.62,-648.76 348.62,-654.18"/>
<text xml:space="preserve" text-anchor="middle" x="456.62" y="-604.95" font-family="Times,serif" font-size="14.00">8 incoming links (columns)</text>
</a>
</g>
</g>
<!-- medicare.ps.zip_parent&#45;&gt;medicare.ps.zip -->
<g id="edge3" class="edge">
<title>medicare.ps.zip_parent&#45;&gt;medicare.ps.zip</title>
<path fill="none" stroke="goldenrod" stroke-width="6" d="M456.62,-555.84C456.62,-549.4 456.62,-542.64 456.62,-535.73"/>
<polygon fill="goldenrod" stroke="goldenrod" stroke-width="6" points="461.88,-535.87 456.63,-525.87 451.38,-535.87 461.88,-535.87"/>
</g>
</g>
</svg>
