<?xml version="1.0" encoding="UTF-8" standalone="no"?>
<!DOCTYPE svg PUBLIC "-//W3C//DTD SVG 1.1//EN"
 "http://www.w3.org/Graphics/SVG/1.1/DTD/svg11.dtd">
<!-- Generated by graphviz version 10.0.1 (20240210.2158)
 -->
<!-- Pages: 1 -->
<svg width="923pt" height="833pt"
 viewBox="0.00 0.00 923.00 832.50" xmlns="http://www.w3.org/2000/svg" xmlns:xlink="http://www.w3.org/1999/xlink">
<g id="graph0" class="graph" transform="scale(1 1) rotate(0) translate(4 828.5)">
<polygon fill="white" stroke="none" points="-4,4 -4,-828.5 919,-828.5 919,4 -4,4"/>
<!-- medicare.enrollments.zips -->
<g id="node1" class="node">
<title>medicare.enrollments.zips</title>
<g id="a_node1"><a xlink:href="../medicare.enrollments/zips.html" xlink:title="&lt;TABLE&gt;" target="_blank">
<polygon fill="none" stroke="black" points="566,-59 349,-59 349,0 566,0 566,-59"/>
<text text-anchor="start" x="381" y="-37.7" font-family="Times,serif" font-weight="bold" font-size="14.00">medicare.enrollments.zips</text>
<polygon fill="none" stroke="black" points="360,-7 360,-29.5 555,-29.5 555,-7 360,-7"/>
<text text-anchor="start" x="363" y="-13.2" font-family="Times,serif" font-size="14.00">string_agg(distinct zip::varchar, &#39;,&#39;)</text>
<polygon fill="none" stroke="black" points="357,-4 357,-55 558,-55 558,-4 357,-4"/>
</a>
</g>
</g>
<!-- medicare._enrollments.zip -->
<g id="node2" class="node">
<title>medicare._enrollments.zip</title>
<g id="a_node2"><a xlink:href="../medicare._enrollments/zip.html" xlink:title="&lt;TABLE&gt;" target="_blank">
<polygon fill="none" stroke="black" points="556.12,-223.5 358.88,-223.5 358.88,-96 556.12,-96 556.12,-223.5"/>
<text text-anchor="start" x="380.25" y="-202.2" font-family="Times,serif" font-weight="bold" font-size="14.00">medicare._enrollments.zip</text>
<text text-anchor="start" x="394.88" y="-155.7" font-family="Times,serif" font-size="14.00">Zip Code of Residence</text>
<polygon fill="none" stroke="black" points="369.88,-103 369.88,-125.5 545.12,-125.5 545.12,-103 369.88,-103"/>
<text text-anchor="start" x="372.88" y="-109.2" font-family="Times,serif" font-size="14.00">MAX(zip)</text>
<polygon fill="none" stroke="black" points="366.88,-100 366.88,-219.5 548.12,-219.5 548.12,-100 366.88,-100"/>
</a>
</g>
</g>
<!-- medicare._enrollments.zip&#45;&gt;medicare.enrollments.zips -->
<g id="edge1" class="edge">
<title>medicare._enrollments.zip&#45;&gt;medicare.enrollments.zips</title>
<path fill="none" stroke="black" d="M457.5,-95.75C457.5,-87.15 457.5,-78.53 457.5,-70.5"/>
<polygon fill="black" stroke="black" points="461,-70.74 457.5,-60.74 454,-70.74 461,-70.74"/>
<text text-anchor="middle" x="477" y="-72.45" font-family="Times,serif" font-size="14.00">Copied</text>
</g>
<!-- medicare._ps.zip -->
<g id="node3" class="node">
<title>medicare._ps.zip</title>
<g id="a_node3"><a xlink:href="../medicare._ps/zip.html" xlink:title="&lt;TABLE&gt;" target="_blank">
<polygon fill="none" stroke="black" points="915,-451.5 0,-451.5 0,-260.5 915,-260.5 915,-451.5"/>
<text text-anchor="start" x="87.38" y="-430.2" font-family="Times,serif" font-weight="bold" font-size="14.00">medicare._ps.zip</text>
<text text-anchor="start" x="36" y="-384.2" font-family="Times,serif" font-size="14.00">US Postal ZIP code, the first 5 digits</text>
<text text-anchor="start" x="125.25" y="-367.7" font-family="Times,serif" font-size="14.00">of it</text>
<polygon fill="none" stroke="black" points="11,-315.5 11,-337.5 262,-337.5 262,-315.5 11,-315.5"/>
<text text-anchor="start" x="14" y="-321.2" font-family="Times,serif" font-size="14.00">numeric →</text>
<polygon fill="none" stroke="black" points="264,-315.5 264,-337.5 904,-337.5 904,-315.5 264,-315.5"/>
<text text-anchor="start" x="266.75" y="-321.2" font-family="Times,serif" font-size="14.00">(CASE WHEN {column_name} &lt; 100000 THEN {column_name}::int ELSE ({column_name}/10000)::INT END)</text>
<polygon fill="none" stroke="black" points="11,-291.5 11,-313.5 262,-313.5 262,-291.5 11,-291.5"/>
<text text-anchor="start" x="14" y="-297.2" font-family="Times,serif" font-size="14.00">character varying →</text>
<polygon fill="none" stroke="black" points="264,-291.5 264,-313.5 904,-313.5 904,-291.5 264,-291.5"/>
<text text-anchor="start" x="267" y="-297.2" font-family="Times,serif" font-size="14.00">SUBSTRING({column_name} FROM 1 FOR 5)::INT</text>
<polygon fill="none" stroke="black" points="11,-267.5 11,-289.5 262,-289.5 262,-267.5 11,-267.5"/>
<text text-anchor="start" x="14" y="-273.2" font-family="Times,serif" font-size="14.00">integer →</text>
<polygon fill="none" stroke="black" points="264,-267.5 264,-289.5 904,-289.5 904,-267.5 264,-267.5"/>
<text text-anchor="start" x="267" y="-273.2" font-family="Times,serif" font-size="14.00">{column_name}::INT</text>
<polygon fill="none" stroke="black" points="8,-264.5 8,-447.5 907,-447.5 907,-264.5 8,-264.5"/>
</a>
</g>
</g>
<!-- medicare._ps.zip&#45;&gt;medicare._enrollments.zip -->
<g id="edge2" class="edge">
<title>medicare._ps.zip&#45;&gt;medicare._enrollments.zip</title>
<path fill="none" stroke="blue" stroke-width="5" d="M457.5,-260.15C457.5,-253.41 457.5,-246.65 457.5,-240.01"/>
<polygon fill="blue" stroke="blue" stroke-width="5" points="461.88,-240.05 457.5,-230.05 453.13,-240.05 461.88,-240.05"/>
<text text-anchor="middle" x="571.88" y="-236.95" font-family="Times,serif" font-size="14.00">	 &#160;Aggregated On bene_id, year, state</text>
</g>
<!-- medicare.ps.zip -->
<g id="node4" class="node">
<title>medicare.ps.zip</title>
<g id="a_node4"><a xlink:href="../medicare.ps/zip.html" xlink:title="&lt;TABLE&gt;" target="_blank">
<polygon fill="none" stroke="black" points="915,-679.5 0,-679.5 0,-488.5 915,-488.5 915,-679.5"/>
<text text-anchor="start" x="90.75" y="-658.2" font-family="Times,serif" font-weight="bold" font-size="14.00">medicare.ps.zip</text>
<text text-anchor="start" x="36" y="-612.2" font-family="Times,serif" font-size="14.00">US Postal ZIP code, the first 5 digits</text>
<text text-anchor="start" x="125.25" y="-595.7" font-family="Times,serif" font-size="14.00">of it</text>
<polygon fill="none" stroke="black" points="11,-543.5 11,-565.5 262,-565.5 262,-543.5 11,-543.5"/>
<text text-anchor="start" x="14" y="-549.2" font-family="Times,serif" font-size="14.00">numeric →</text>
<polygon fill="none" stroke="black" points="264,-543.5 264,-565.5 904,-565.5 904,-543.5 264,-543.5"/>
<text text-anchor="start" x="266.75" y="-549.2" font-family="Times,serif" font-size="14.00">(CASE WHEN {column_name} &lt; 100000 THEN {column_name}::int ELSE ({column_name}/10000)::INT END)</text>
<polygon fill="none" stroke="black" points="11,-519.5 11,-541.5 262,-541.5 262,-519.5 11,-519.5"/>
<text text-anchor="start" x="14" y="-525.2" font-family="Times,serif" font-size="14.00">character varying →</text>
<polygon fill="none" stroke="black" points="264,-519.5 264,-541.5 904,-541.5 904,-519.5 264,-519.5"/>
<text text-anchor="start" x="267" y="-525.2" font-family="Times,serif" font-size="14.00">SUBSTRING({column_name} FROM 1 FOR 5)::INT</text>
<polygon fill="none" stroke="black" points="11,-495.5 11,-517.5 262,-517.5 262,-495.5 11,-495.5"/>
<text text-anchor="start" x="14" y="-501.2" font-family="Times,serif" font-size="14.00">integer →</text>
<polygon fill="none" stroke="black" points="264,-495.5 264,-517.5 904,-517.5 904,-495.5 264,-495.5"/>
<text text-anchor="start" x="267" y="-501.2" font-family="Times,serif" font-size="14.00">{column_name}::INT</text>
<polygon fill="none" stroke="black" points="8,-492.5 8,-675.5 907,-675.5 907,-492.5 8,-492.5"/>
</a>
</g>
</g>
<!-- medicare.ps.zip&#45;&gt;medicare._ps.zip -->
<g id="edge3" class="edge">
<title>medicare.ps.zip&#45;&gt;medicare._ps.zip</title>
<path fill="none" stroke="black" d="M457.5,-488.14C457.5,-479.92 457.5,-471.56 457.5,-463.26"/>
<polygon fill="black" stroke="black" points="461,-463.5 457.5,-453.5 454,-463.5 461,-463.5"/>
<text text-anchor="middle" x="477" y="-464.95" font-family="Times,serif" font-size="14.00">Copied</text>
</g>
<!-- medicare.ps.zip_parent -->
<g id="node5" class="node">
<title>medicare.ps.zip_parent</title>
<g id="a_node5"><a xlink:href="../medicare.ps/zip.html" xlink:title="8 incoming links (columns)" target="_blank">
<path fill="yellow" stroke="black" d="M565.5,-814.68C565.5,-820.1 517.09,-824.5 457.5,-824.5 397.91,-824.5 349.5,-820.1 349.5,-814.68 349.5,-814.68 349.5,-726.32 349.5,-726.32 349.5,-720.9 397.91,-716.5 457.5,-716.5 517.09,-716.5 565.5,-720.9 565.5,-726.32 565.5,-726.32 565.5,-814.68 565.5,-814.68"/>
<path fill="none" stroke="black" d="M565.5,-814.68C565.5,-809.26 517.09,-804.86 457.5,-804.86 397.91,-804.86 349.5,-809.26 349.5,-814.68"/>
<text text-anchor="middle" x="457.5" y="-765.45" font-family="Times,serif" font-size="14.00">8 incoming links (columns)</text>
</a>
</g>
</g>
<!-- medicare.ps.zip_parent&#45;&gt;medicare.ps.zip -->
<g id="edge4" class="edge">
<title>medicare.ps.zip_parent&#45;&gt;medicare.ps.zip</title>
<path fill="none" stroke="goldenrod" stroke-width="6" d="M457.5,-716.13C457.5,-709.73 457.5,-703.02 457.5,-696.16"/>
<polygon fill="goldenrod" stroke="goldenrod" stroke-width="6" points="462.75,-696.43 457.5,-686.43 452.25,-696.43 462.75,-696.43"/>
</g>
</g>
</svg>
